<svg width="219" height="319" viewBox="0 0 219 319" fill="none" xmlns="http://www.w3.org/2000/svg">
<g clip-path="url(#clip0_1_10256)">
<path d="M250.515 319.111C250.515 319.231 191.112 319.333 117.858 319.333C44.604 319.333 -14.8254 319.231 -14.8254 319.111C-14.8254 318.992 44.5698 318.889 117.858 318.889C191.146 318.889 250.515 319 250.515 319.111Z" fill="#263238"/>
<path d="M177.843 254.299L92.3907 253.906C87.4559 253.879 82.7336 251.896 79.2609 248.392C75.7883 244.888 73.8493 240.149 73.8698 235.218L74.7766 21.1365C74.7867 18.6932 75.2785 16.2758 76.224 14.0225C77.1694 11.7693 78.55 9.72434 80.2867 8.00459C82.0235 6.28484 84.0823 4.92401 86.3456 3.9999C88.6089 3.07579 91.0323 2.60651 93.4771 2.61889L178.921 3.01215C183.856 3.03704 188.579 5.01828 192.054 8.52074C195.528 12.0232 197.469 16.7605 197.451 21.6922L196.544 235.765C196.534 238.209 196.042 240.627 195.097 242.881C194.152 245.136 192.771 247.182 191.035 248.903C189.298 250.624 187.24 251.986 184.976 252.912C182.713 253.838 180.289 254.31 177.843 254.299Z" fill="#455A64"/>
<path d="M178.793 10.3731H162.231C161.691 10.3831 161.158 10.4994 160.662 10.7153C160.167 10.9313 159.719 11.2427 159.344 11.6317C158.969 12.0207 158.674 12.4797 158.477 12.9825C158.28 13.4854 158.183 14.0221 158.193 14.5622V17.563C158.204 18.1026 158.107 18.6389 157.91 19.1413C157.712 19.6436 157.417 20.102 157.042 20.4904C156.667 20.8787 156.219 21.1893 155.724 21.4043C155.228 21.6194 154.696 21.7346 154.156 21.7435L121.87 21.5982C120.778 21.5691 119.742 21.108 118.99 20.3161C118.237 19.5243 117.83 18.4664 117.858 17.3749V14.3741C117.886 13.284 117.48 12.2274 116.729 11.4358C115.979 10.6442 114.945 10.1821 113.854 10.1508H108.029L93.5285 10.0824C90.0796 10.0619 86.763 11.4079 84.3051 13.8259C81.8471 16.2438 80.448 19.5366 80.4141 22.9832L79.5587 231.943C79.5508 233.653 79.88 235.348 80.5275 236.931C81.175 238.513 82.1281 239.953 83.3323 241.168C84.5366 242.382 85.9685 243.348 87.5462 244.01C89.1239 244.671 90.8166 245.016 92.5276 245.024L177.801 245.417C179.513 245.425 181.21 245.096 182.794 244.448C184.379 243.801 185.821 242.847 187.037 241.643C188.253 240.439 189.22 239.007 189.883 237.429C190.545 235.851 190.89 234.159 190.898 232.448L191.753 23.4876C191.774 20.0312 190.42 16.7082 187.99 14.249C185.56 11.7898 182.252 10.3957 178.793 10.3731Z" fill="white"/>
<path d="M167.537 217.501L104.129 217.227C103.471 217.227 102.94 216.509 102.949 215.637L103.017 199.06C103.017 198.205 103.556 197.47 104.215 197.47L167.622 197.761C167.987 197.824 168.314 198.025 168.534 198.323C168.754 198.621 168.85 198.992 168.803 199.36L168.743 215.919C168.743 216.8 168.195 217.51 167.537 217.501Z" fill="#FF725E"/>
<path d="M116.561 71.7994L94.5588 71.6996L94.5405 75.7348L116.543 75.8346L116.561 71.7994Z" fill="#FF725E"/>
<path opacity="0.1" d="M116.561 71.7994L94.5588 71.6996L94.5405 75.7348L116.543 75.8346L116.561 71.7994Z" fill="black"/>
<path d="M181.06 96.5749C181.233 96.5574 181.403 96.5172 181.565 96.4552C181.802 96.3627 182.007 96.2053 182.159 96.0011C182.31 95.797 182.401 95.5543 182.42 95.301C182.42 93.9417 182.42 91.9583 182.42 89.4106C182.42 88.1368 182.42 86.7091 182.42 85.136C182.42 84.7513 182.42 84.3495 182.42 83.9477C182.476 83.5578 182.391 83.1608 182.181 82.8277C182.063 82.668 181.91 82.5378 181.733 82.4473C181.556 82.3568 181.361 82.3085 181.163 82.3062H179.828H167.467L95.9152 82.0412C95.7321 82.0381 95.5509 82.0792 95.3871 82.1611C95.2232 82.2429 95.0816 82.3631 94.9742 82.5114C94.7676 82.8458 94.6887 83.2434 94.7518 83.6313C94.7518 84.4863 94.7518 85.3412 94.7518 86.1961C94.7518 87.906 94.7518 89.6158 94.7518 91.3256C94.7518 92.1806 94.7518 93.0355 94.7518 93.8904C94.7163 94.2886 94.7163 94.6891 94.7518 95.0873C94.7967 95.258 94.8803 95.4161 94.9959 95.5495C95.1116 95.6829 95.2564 95.788 95.4191 95.8567C95.5876 95.9238 95.7681 95.9558 95.9495 95.9508H100.304L119.304 96.0534L151.469 96.25L173.156 96.421L179.05 96.4894H180.581C180.932 96.4894 181.103 96.4894 181.103 96.4894H180.581H179.05H173.156H151.469L119.304 96.3868L100.304 96.3098H95.9495C95.7098 96.3195 95.4708 96.2787 95.248 96.1902C95.0227 96.0941 94.8224 95.9479 94.6623 95.7627C94.5022 95.5775 94.3865 95.3582 94.3241 95.1215C94.2745 94.8971 94.2573 94.6668 94.2727 94.4376V93.8049C94.2727 92.95 94.2727 92.0951 94.2727 91.2401C94.2727 89.5303 94.2727 87.8205 94.2727 86.1106C94.2727 85.2557 94.2727 84.4008 94.2727 83.5458C94.2564 83.3182 94.2564 83.0896 94.2727 82.8619C94.3048 82.6104 94.4021 82.3717 94.555 82.1694C94.7026 81.9631 94.8979 81.7954 95.1244 81.6808C95.3508 81.5662 95.6016 81.508 95.8554 81.5111L167.407 81.9044L179.768 81.9899H181.103C181.338 81.9901 181.57 82.0469 181.778 82.1555C181.987 82.2642 182.166 82.4214 182.3 82.614C182.542 82.9857 182.639 83.4325 182.574 83.8707C182.574 84.2725 182.574 84.6743 182.574 85.0591C182.574 86.615 182.574 88.0427 182.574 89.3337C182.574 91.8984 182.514 93.8648 182.497 95.2326C182.476 95.4956 182.381 95.7472 182.222 95.9577C182.062 96.1683 181.846 96.329 181.599 96.421C181.437 96.5212 181.25 96.5745 181.06 96.5749Z" fill="#E0E0E0"/>
<path d="M141.409 86.3329H101.168V90.1031H141.409V86.3329Z" fill="#FF725E"/>
<path opacity="0.2" d="M141.409 86.3329H101.168V90.1031H141.409V86.3329Z" fill="white"/>
<path d="M116.411 108.611L94.4087 108.511L94.3904 112.547L116.393 112.646L116.411 108.611Z" fill="#FF725E"/>
<path opacity="0.1" d="M116.411 108.611L94.4087 108.511L94.3904 112.547L116.393 112.646L116.411 108.611Z" fill="black"/>
<path d="M180.504 133.388C180.677 133.367 180.848 133.335 181.017 133.294C181.256 133.218 181.476 133.091 181.662 132.923C181.848 132.755 181.996 132.549 182.095 132.319C182.23 131.974 182.283 131.602 182.249 131.233C182.249 130.823 182.249 130.378 182.249 129.883C182.249 128.891 182.249 127.762 182.249 126.463V121.034C182.29 120.641 182.203 120.245 182.001 119.906C181.79 119.557 181.458 119.299 181.069 119.179C180.642 119.103 180.209 119.08 179.777 119.111H167.467L96.1633 118.846C95.7798 118.846 95.4096 118.987 95.1216 119.24C94.8337 119.493 94.6475 119.842 94.5978 120.222C94.5978 121.034 94.5978 121.932 94.5978 122.787C94.5978 124.497 94.5978 126.206 94.5978 127.916C94.5978 128.771 94.5978 129.626 94.5978 130.481C94.5659 130.881 94.5831 131.283 94.6491 131.678C94.7559 132.025 94.9757 132.326 95.2736 132.533C95.5896 132.733 95.9608 132.829 96.3344 132.806H97.5235H99.9958L118.927 132.901L150.982 133.097L172.591 133.268L178.468 133.337H172.591H150.982L118.91 133.302L99.9787 133.234H96.2574C95.7947 133.261 95.3355 133.138 94.9485 132.883C94.5593 132.614 94.2752 132.218 94.1444 131.763C94.0677 131.329 94.0447 130.887 94.0759 130.447C94.0759 129.592 94.0759 128.737 94.0759 127.882C94.0759 126.172 94.0759 124.462 94.0759 122.753C94.0759 121.898 94.0759 121.043 94.0759 120.188C94.1384 119.699 94.3769 119.25 94.747 118.924C95.117 118.598 95.5932 118.418 96.0863 118.418L167.39 118.811L179.7 118.905C180.158 118.877 180.618 118.909 181.069 118.999C181.513 119.145 181.888 119.449 182.121 119.854C182.342 120.231 182.438 120.668 182.395 121.103C182.395 121.504 182.395 121.898 182.395 122.291C182.395 123.838 182.395 125.257 182.395 126.566C182.395 127.874 182.395 128.976 182.395 129.985C182.395 130.473 182.395 130.926 182.395 131.345C182.426 131.727 182.364 132.111 182.215 132.464C182.104 132.7 181.943 132.91 181.744 133.078C181.545 133.246 181.311 133.369 181.06 133.439C180.873 133.455 180.685 133.437 180.504 133.388Z" fill="#E0E0E0"/>
<path d="M116.245 147.022L94.2429 146.922L94.2246 150.957L116.227 151.057L116.245 147.022Z" fill="#FF725E"/>
<path opacity="0.1" d="M116.245 147.022L94.2429 146.922L94.2246 150.957L116.227 151.057L116.245 147.022Z" fill="black"/>
<path d="M180.333 171.782C180.506 171.762 180.677 171.731 180.846 171.688C181.084 171.613 181.303 171.488 181.489 171.321C181.675 171.154 181.823 170.95 181.924 170.722C182.058 170.377 182.111 170.005 182.078 169.637C182.078 169.218 182.078 168.782 182.078 168.277C182.078 167.294 182.078 166.157 182.078 164.858V159.429C182.119 159.036 182.032 158.64 181.83 158.3C181.614 157.958 181.284 157.704 180.897 157.582C180.472 157.503 180.038 157.477 179.606 157.505H167.296L95.9922 157.24C95.6087 157.241 95.2385 157.381 94.9506 157.634C94.6626 157.887 94.4765 158.237 94.4267 158.617C94.4267 159.471 94.4267 160.326 94.4267 161.181C94.4267 162.891 94.4267 164.601 94.4267 166.311C94.4267 167.166 94.4267 168.021 94.4267 168.876C94.3949 169.272 94.4121 169.671 94.4781 170.064C94.5805 170.413 94.8013 170.715 95.1025 170.919C95.4166 171.124 95.7893 171.22 96.1633 171.192H99.8846L118.816 171.295L150.871 171.492L172.48 171.663L178.357 171.731H172.48H150.871L118.816 171.637L99.8846 171.56H96.1633C95.7002 171.591 95.2399 171.468 94.8545 171.21C94.4652 170.94 94.1811 170.544 94.0503 170.09C93.9736 169.655 93.9507 169.213 93.9819 168.773C93.9819 167.918 93.9819 167.063 93.9819 166.208C93.9819 164.498 93.9819 162.789 93.9819 161.079C93.9819 160.224 93.9819 159.369 93.9819 158.471C94.0424 157.983 94.2792 157.534 94.6478 157.208C95.0165 156.882 95.4915 156.702 95.9837 156.702L167.287 157.095L179.597 157.189C180.056 157.161 180.516 157.192 180.966 157.283C181.41 157.428 181.785 157.733 182.018 158.138C182.239 158.514 182.335 158.951 182.292 159.386C182.292 159.788 182.292 160.19 182.292 160.574C182.292 162.122 182.292 163.541 182.292 164.849C182.292 166.157 182.292 167.26 182.292 168.269C182.292 168.756 182.292 169.209 182.292 169.628C182.325 170.01 182.263 170.395 182.112 170.748C182.001 170.984 181.841 171.193 181.641 171.361C181.442 171.529 181.209 171.653 180.957 171.723C180.757 171.791 180.543 171.812 180.333 171.782Z" fill="#E0E0E0"/>
<path d="M140.55 124.212L100.309 124.029L100.292 127.799L140.533 127.982L140.55 124.212Z" fill="#FF725E"/>
<path opacity="0.2" d="M140.55 124.212L100.309 124.029L100.292 127.799L140.533 127.982L140.55 124.212Z" fill="white"/>
<path d="M103.948 164.806C103.923 165.15 103.797 165.479 103.587 165.752C103.376 166.025 103.09 166.231 102.764 166.343C102.437 166.455 102.085 166.469 101.751 166.383C101.417 166.297 101.115 166.115 100.884 165.859C100.652 165.603 100.501 165.285 100.449 164.945C100.396 164.604 100.445 164.255 100.589 163.942C100.733 163.629 100.966 163.364 101.259 163.182C101.552 163 101.892 162.908 102.237 162.917C102.714 162.943 103.161 163.157 103.481 163.51C103.801 163.864 103.969 164.33 103.948 164.806Z" fill="#FF725E"/>
<path d="M109.397 164.832C109.414 165.073 109.381 165.315 109.301 165.543C109.22 165.77 109.093 165.979 108.928 166.156C108.763 166.332 108.564 166.473 108.342 166.57C108.12 166.666 107.881 166.716 107.639 166.716C107.398 166.716 107.158 166.666 106.937 166.57C106.715 166.473 106.516 166.332 106.351 166.156C106.186 165.979 106.059 165.77 105.978 165.543C105.898 165.315 105.865 165.073 105.881 164.832C105.865 164.591 105.898 164.349 105.978 164.121C106.059 163.893 106.186 163.685 106.351 163.508C106.516 163.331 106.715 163.19 106.937 163.094C107.158 162.998 107.398 162.948 107.639 162.948C107.881 162.948 108.12 162.998 108.342 163.094C108.564 163.19 108.763 163.331 108.928 163.508C109.093 163.685 109.22 163.893 109.301 164.121C109.381 164.349 109.414 164.591 109.397 164.832Z" fill="#FF725E"/>
<path d="M114.855 164.857C114.83 165.201 114.704 165.53 114.494 165.803C114.283 166.077 113.997 166.282 113.671 166.394C113.344 166.506 112.992 166.52 112.658 166.434C112.324 166.348 112.023 166.166 111.791 165.91C111.56 165.655 111.408 165.337 111.356 164.996C111.304 164.655 111.352 164.306 111.497 163.993C111.641 163.68 111.874 163.416 112.167 163.233C112.459 163.051 112.799 162.959 113.144 162.968C113.62 162.997 114.066 163.211 114.386 163.564C114.705 163.917 114.874 164.382 114.855 164.857Z" fill="#FF725E"/>
<path d="M120.305 164.883C120.279 165.227 120.154 165.556 119.943 165.829C119.733 166.102 119.446 166.308 119.12 166.42C118.794 166.532 118.442 166.546 118.108 166.46C117.773 166.374 117.472 166.192 117.24 165.936C117.009 165.68 116.858 165.362 116.805 165.022C116.753 164.681 116.802 164.332 116.946 164.019C117.09 163.705 117.323 163.441 117.616 163.259C117.909 163.077 118.249 162.985 118.594 162.994C119.069 163.022 119.515 163.236 119.835 163.59C120.155 163.943 120.323 164.407 120.305 164.883Z" fill="#FF725E"/>
<path d="M125.754 164.9C125.73 165.245 125.606 165.575 125.396 165.849C125.187 166.123 124.901 166.33 124.575 166.443C124.248 166.557 123.896 166.572 123.561 166.487C123.227 166.402 122.924 166.22 122.692 165.965C122.459 165.709 122.307 165.391 122.254 165.05C122.201 164.709 122.25 164.36 122.394 164.046C122.538 163.732 122.771 163.468 123.064 163.285C123.357 163.103 123.698 163.01 124.043 163.019C124.517 163.048 124.962 163.261 125.281 163.612C125.601 163.964 125.77 164.426 125.754 164.9Z" fill="#FF725E"/>
<path d="M131.212 164.926C131.189 165.269 131.065 165.597 130.858 165.87C130.65 166.144 130.367 166.351 130.043 166.466C129.719 166.581 129.369 166.599 129.035 166.517C128.701 166.435 128.399 166.258 128.164 166.007C127.93 165.756 127.774 165.441 127.717 165.103C127.659 164.764 127.701 164.416 127.839 164.102C127.976 163.787 128.203 163.519 128.49 163.331C128.778 163.144 129.115 163.044 129.458 163.045C129.94 163.063 130.395 163.271 130.724 163.623C131.053 163.976 131.228 164.444 131.212 164.926Z" fill="#FF725E"/>
<path d="M136.661 164.952C136.678 165.193 136.645 165.434 136.564 165.662C136.484 165.89 136.357 166.099 136.192 166.275C136.027 166.452 135.828 166.593 135.606 166.689C135.384 166.786 135.145 166.835 134.903 166.835C134.661 166.835 134.422 166.786 134.201 166.689C133.979 166.593 133.779 166.452 133.614 166.275C133.45 166.099 133.323 165.89 133.242 165.662C133.161 165.434 133.128 165.193 133.145 164.952C133.128 164.711 133.161 164.469 133.242 164.241C133.323 164.013 133.45 163.804 133.614 163.628C133.779 163.451 133.979 163.31 134.201 163.214C134.422 163.117 134.661 163.068 134.903 163.068C135.145 163.068 135.384 163.117 135.606 163.214C135.828 163.31 136.027 163.451 136.192 163.628C136.357 163.804 136.484 164.013 136.564 164.241C136.645 164.469 136.678 164.711 136.661 164.952Z" fill="#FF725E"/>
<path d="M142.111 164.977C142.087 165.32 141.964 165.648 141.756 165.922C141.549 166.195 141.266 166.402 140.942 166.517C140.618 166.632 140.268 166.65 139.934 166.568C139.6 166.487 139.297 166.309 139.063 166.058C138.829 165.807 138.673 165.493 138.615 165.154C138.557 164.816 138.6 164.468 138.737 164.153C138.875 163.838 139.101 163.57 139.389 163.383C139.677 163.195 140.013 163.095 140.357 163.096C140.839 163.114 141.294 163.322 141.623 163.675C141.951 164.027 142.127 164.496 142.111 164.977Z" fill="#FF725E"/>
<path d="M147.56 165.003C147.536 165.347 147.412 165.677 147.202 165.951C146.993 166.226 146.707 166.433 146.381 166.546C146.054 166.659 145.702 166.674 145.367 166.589C145.032 166.504 144.73 166.323 144.498 166.067C144.265 165.812 144.113 165.494 144.06 165.153C144.007 164.811 144.056 164.462 144.2 164.149C144.344 163.835 144.577 163.57 144.87 163.388C145.163 163.205 145.504 163.113 145.849 163.122C146.323 163.151 146.767 163.363 147.087 163.715C147.407 164.066 147.576 164.528 147.56 165.003Z" fill="#FF725E"/>
<g opacity="0.2">
<path d="M103.948 164.806C103.923 165.15 103.797 165.479 103.587 165.752C103.376 166.025 103.09 166.231 102.764 166.343C102.437 166.455 102.085 166.469 101.751 166.383C101.417 166.297 101.115 166.115 100.884 165.859C100.652 165.603 100.501 165.285 100.449 164.945C100.396 164.604 100.445 164.255 100.589 163.942C100.733 163.629 100.966 163.364 101.259 163.182C101.552 163 101.892 162.908 102.237 162.917C102.714 162.943 103.161 163.157 103.481 163.51C103.801 163.864 103.969 164.33 103.948 164.806Z" fill="white"/>
<path d="M109.397 164.832C109.414 165.073 109.381 165.315 109.301 165.543C109.22 165.77 109.093 165.979 108.928 166.156C108.763 166.332 108.564 166.473 108.342 166.57C108.12 166.666 107.881 166.716 107.639 166.716C107.398 166.716 107.159 166.666 106.937 166.57C106.715 166.473 106.516 166.332 106.351 166.156C106.186 165.979 106.059 165.77 105.978 165.543C105.898 165.315 105.865 165.073 105.881 164.832C105.865 164.591 105.898 164.349 105.978 164.121C106.059 163.893 106.186 163.685 106.351 163.508C106.516 163.331 106.715 163.19 106.937 163.094C107.159 162.998 107.398 162.948 107.639 162.948C107.881 162.948 108.12 162.998 108.342 163.094C108.564 163.19 108.763 163.331 108.928 163.508C109.093 163.685 109.22 163.893 109.301 164.121C109.381 164.349 109.414 164.591 109.397 164.832Z" fill="white"/>
<path d="M114.855 164.857C114.83 165.201 114.704 165.53 114.494 165.803C114.283 166.077 113.997 166.282 113.671 166.394C113.344 166.506 112.992 166.52 112.658 166.434C112.324 166.348 112.023 166.166 111.791 165.91C111.56 165.655 111.408 165.337 111.356 164.996C111.304 164.655 111.352 164.306 111.497 163.993C111.641 163.68 111.874 163.416 112.167 163.233C112.459 163.051 112.799 162.959 113.144 162.968C113.62 162.997 114.066 163.211 114.386 163.564C114.705 163.917 114.874 164.382 114.855 164.857Z" fill="white"/>
<path d="M120.305 164.883C120.279 165.227 120.154 165.556 119.943 165.829C119.733 166.102 119.446 166.308 119.12 166.42C118.794 166.532 118.442 166.546 118.108 166.46C117.774 166.374 117.472 166.192 117.24 165.936C117.009 165.68 116.858 165.362 116.805 165.022C116.753 164.681 116.802 164.332 116.946 164.019C117.09 163.705 117.323 163.441 117.616 163.259C117.909 163.077 118.249 162.985 118.594 162.994C119.07 163.022 119.515 163.236 119.835 163.59C120.155 163.943 120.323 164.407 120.305 164.883Z" fill="white"/>
<path d="M125.754 164.9C125.73 165.245 125.606 165.575 125.396 165.849C125.187 166.123 124.901 166.33 124.575 166.443C124.248 166.557 123.896 166.572 123.561 166.487C123.227 166.402 122.924 166.22 122.692 165.965C122.46 165.709 122.307 165.391 122.254 165.05C122.201 164.709 122.25 164.36 122.394 164.046C122.538 163.732 122.771 163.468 123.064 163.285C123.357 163.103 123.698 163.01 124.043 163.019C124.517 163.048 124.962 163.261 125.281 163.612C125.601 163.963 125.77 164.426 125.754 164.9Z" fill="white"/>
<path d="M131.212 164.926C131.189 165.269 131.065 165.597 130.858 165.87C130.65 166.144 130.367 166.351 130.043 166.466C129.719 166.581 129.369 166.599 129.035 166.517C128.701 166.435 128.399 166.258 128.164 166.007C127.93 165.756 127.774 165.441 127.717 165.103C127.659 164.764 127.701 164.416 127.839 164.102C127.976 163.787 128.203 163.519 128.49 163.331C128.778 163.144 129.115 163.044 129.458 163.045C129.94 163.063 130.395 163.271 130.724 163.623C131.053 163.976 131.228 164.444 131.212 164.926Z" fill="white"/>
<path d="M136.661 164.952C136.678 165.193 136.645 165.434 136.564 165.662C136.484 165.89 136.357 166.099 136.192 166.275C136.027 166.452 135.828 166.593 135.606 166.689C135.384 166.786 135.145 166.835 134.903 166.835C134.661 166.835 134.422 166.786 134.201 166.689C133.979 166.593 133.779 166.452 133.614 166.275C133.45 166.099 133.323 165.89 133.242 165.662C133.161 165.434 133.128 165.193 133.145 164.952C133.128 164.711 133.161 164.469 133.242 164.241C133.323 164.013 133.45 163.804 133.614 163.628C133.779 163.451 133.979 163.31 134.201 163.214C134.422 163.117 134.661 163.068 134.903 163.068C135.145 163.068 135.384 163.117 135.606 163.214C135.828 163.31 136.027 163.451 136.192 163.628C136.357 163.804 136.484 164.013 136.564 164.241C136.645 164.469 136.678 164.711 136.661 164.952Z" fill="white"/>
<path d="M142.111 164.977C142.087 165.32 141.964 165.648 141.756 165.922C141.549 166.195 141.266 166.402 140.942 166.517C140.618 166.632 140.268 166.65 139.934 166.568C139.6 166.487 139.297 166.309 139.063 166.058C138.829 165.807 138.673 165.493 138.615 165.154C138.557 164.816 138.6 164.468 138.737 164.153C138.875 163.838 139.101 163.57 139.389 163.383C139.677 163.195 140.013 163.096 140.357 163.096C140.839 163.114 141.294 163.322 141.623 163.675C141.951 164.027 142.127 164.496 142.111 164.977Z" fill="white"/>
<path d="M147.56 165.003C147.536 165.347 147.412 165.677 147.202 165.951C146.993 166.226 146.707 166.433 146.381 166.546C146.054 166.659 145.702 166.674 145.367 166.589C145.033 166.504 144.73 166.323 144.498 166.067C144.265 165.812 144.113 165.494 144.06 165.153C144.007 164.811 144.056 164.462 144.2 164.149C144.344 163.835 144.577 163.57 144.87 163.388C145.163 163.205 145.504 163.113 145.849 163.122C146.323 163.151 146.768 163.363 147.087 163.715C147.407 164.066 147.576 164.528 147.56 165.003Z" fill="white"/>
</g>
<path d="M139.818 41.5863C140.412 41.3247 140.916 40.8943 141.268 40.3486C141.619 39.8029 141.802 39.166 141.794 38.5171C141.816 38.0953 141.752 37.6734 141.606 37.2771C141.46 36.8808 141.234 36.5184 140.943 36.212C140.652 35.9056 140.302 35.6616 139.914 35.4949C139.525 35.3281 139.107 35.2421 138.684 35.2421C138.262 35.2421 137.843 35.3281 137.455 35.4949C137.067 35.6616 136.716 35.9056 136.426 36.212C136.135 36.5184 135.909 36.8808 135.763 37.2771C135.617 37.6734 135.553 38.0953 135.575 38.5171C135.562 39.1725 135.743 39.817 136.097 40.3693C136.45 40.9217 136.959 41.357 137.559 41.6205C132.769 42.3386 132.983 47.5365 132.983 47.5365L144.309 47.5878C144.309 47.5878 144.574 42.2958 139.818 41.5863Z" fill="#FF725E"/>
<path opacity="0.1" d="M139.818 41.5863C140.412 41.3247 140.916 40.8943 141.268 40.3486C141.619 39.8029 141.802 39.166 141.794 38.5171C141.816 38.0953 141.752 37.6734 141.606 37.2771C141.46 36.8808 141.234 36.5184 140.943 36.212C140.652 35.9056 140.302 35.6616 139.914 35.4949C139.525 35.3281 139.107 35.2421 138.684 35.2421C138.262 35.2421 137.843 35.3281 137.455 35.4949C137.067 35.6616 136.716 35.9056 136.426 36.212C136.135 36.5184 135.909 36.8808 135.763 37.2771C135.617 37.6734 135.553 38.0953 135.575 38.5171C135.562 39.1725 135.743 39.817 136.097 40.3693C136.45 40.9217 136.959 41.357 137.559 41.6205C132.769 42.3386 132.983 47.5365 132.983 47.5365L144.309 47.5878C144.309 47.5878 144.574 42.2958 139.818 41.5863Z" fill="black"/>
<path d="M158.223 50.9403L117.854 50.7573L117.832 55.579L158.201 55.762L158.223 50.9403Z" fill="#FF725E"/>
<path opacity="0.2" d="M158.223 50.9403L117.854 50.7573L117.832 55.579L158.201 55.762L158.223 50.9403Z" fill="white"/>
<path d="M51.4565 315.016V307.706L38.3422 307.612L38.231 318.667L39.0436 318.726C42.6623 318.957 57.4533 319.299 59.8829 318.547C62.5862 317.709 51.4565 315.016 51.4565 315.016Z" fill="#FF725E"/>
<path d="M60.1908 317.863C60.1908 317.983 55.2804 318.085 49.2322 318.085C43.1841 318.085 38.2737 317.983 38.2737 317.863C38.2737 317.743 43.1841 317.641 49.2322 317.641C55.2804 317.641 60.1908 317.743 60.1908 317.863Z" fill="#263238"/>
<path d="M51.6874 316.512C51.5762 316.452 51.6874 316.068 51.9526 315.657C52.2178 315.247 52.5771 315.076 52.6627 315.161C52.7482 315.247 52.5686 315.572 52.3119 315.922C52.0553 316.273 51.7986 316.572 51.6874 316.512Z" fill="#263238"/>
<path d="M52.5258 316.991C52.406 316.991 52.4659 316.512 52.7226 316.059C52.9792 315.606 53.3214 315.332 53.4155 315.401C53.5096 315.469 53.3556 315.854 53.1161 316.256C52.8766 316.657 52.637 317.034 52.5258 316.991Z" fill="#263238"/>
<path d="M42.226 317.829C42.1746 317.829 41.9779 317.675 41.6956 317.35C41.351 316.932 40.9671 316.549 40.5492 316.204C40.1383 315.876 39.6488 315.661 39.1292 315.58C38.7271 315.529 38.4705 315.58 38.4448 315.529C38.4191 315.478 38.6672 315.298 39.1377 315.264C39.7587 315.251 40.3644 315.457 40.8487 315.845C41.3024 316.215 41.685 316.664 41.9779 317.17C42.1747 317.547 42.2773 317.795 42.226 317.829Z" fill="#263238"/>
<path d="M51.7303 315.136C51.7901 315.238 51.5677 315.495 51.1913 315.632C50.8149 315.768 50.4813 315.717 50.4642 315.632C50.4471 315.546 50.7122 315.367 51.0373 315.247C51.3624 315.127 51.6618 315.033 51.7303 315.136Z" fill="#263238"/>
<path d="M51.5249 314.426C51.5249 314.554 51.1827 314.657 50.7379 314.666C50.293 314.674 49.9423 314.571 49.9508 314.452C49.9594 314.332 50.3101 314.221 50.7379 314.212C51.1656 314.204 51.5078 314.306 51.5249 314.426Z" fill="#263238"/>
<path d="M83.7504 315.016V307.706L70.6361 307.612L70.5249 318.555L71.3376 318.615C74.9562 318.846 89.7558 319.299 92.1768 318.547C94.8801 317.709 83.7504 315.016 83.7504 315.016Z" fill="#FF725E"/>
<path d="M92.4848 317.88C92.4848 318 87.583 318.102 81.5262 318.102C75.4695 318.102 70.5762 318 70.5762 317.88C70.5762 317.76 75.4781 317.658 81.5262 317.658C87.5744 317.658 92.4848 317.76 92.4848 317.88Z" fill="#263238"/>
<path d="M83.9814 316.512C83.8787 316.452 83.9814 316.068 84.2466 315.657C84.5118 315.247 84.8711 315.076 84.9566 315.161C85.0422 315.247 84.8625 315.572 84.6059 315.922C84.3492 316.273 84.0926 316.572 83.9814 316.512Z" fill="#263238"/>
<path d="M84.8198 316.991C84.7085 316.991 84.7599 316.512 85.0251 316.059C85.2903 315.606 85.6239 315.332 85.718 315.401C85.8121 315.469 85.6496 315.854 85.41 316.256C85.1705 316.657 84.9395 317.034 84.8198 316.991Z" fill="#263238"/>
<path d="M74.5199 317.829C74.4686 317.829 74.2804 317.675 73.9895 317.35C73.6449 316.932 73.261 316.549 72.8432 316.204C72.4323 315.876 71.9428 315.661 71.4231 315.58C71.0296 315.529 70.7644 315.58 70.7387 315.529C70.7131 315.478 70.9612 315.298 71.4317 315.264C72.0526 315.251 72.6583 315.457 73.1426 315.845C73.5987 316.212 73.9817 316.662 74.2718 317.17C74.4686 317.547 74.5712 317.795 74.5199 317.829Z" fill="#263238"/>
<path d="M84.0242 315.136C84.0841 315.238 83.8617 315.495 83.4852 315.632C83.1088 315.768 82.7752 315.717 82.7581 315.632C82.741 315.546 83.0062 315.367 83.3313 315.247C83.6563 315.127 83.9558 315.033 84.0242 315.136Z" fill="#263238"/>
<path d="M83.836 314.426C83.836 314.554 83.4938 314.657 83.049 314.666C82.6041 314.674 82.2619 314.571 82.2705 314.452C82.279 314.332 82.6212 314.221 83.049 314.212C83.4767 314.204 83.836 314.306 83.836 314.426Z" fill="#263238"/>
<path d="M132.067 97.9513C131.725 97.6008 130.878 97.7717 130.878 97.7717C130.963 97.2795 130.963 96.7764 130.878 96.2842C130.724 95.8054 129.646 95.8995 129.646 95.8995C129.597 95.4963 129.597 95.0886 129.646 94.6855C129.655 94.5961 129.636 94.5063 129.591 94.4282C129.547 94.3502 129.479 94.2878 129.398 94.2495C128.888 94.0416 128.34 93.9426 127.79 93.9588C127.131 93.4886 129.8 89.7526 130.793 88.5557C131.785 87.3588 131.605 86.4269 130.724 86.4269C130.117 86.4269 127.003 90.0176 126.045 91.223C125.087 92.4285 122.546 95.7798 122.46 93.1039C122.375 90.428 121.297 88.4103 120.621 88.0684C119.945 87.7264 119.227 88.53 119.595 89.2738C119.918 90.1188 120.119 91.0054 120.193 91.907C120.286 92.6252 120.254 93.354 120.099 94.0614C119.816 95.3776 119.43 96.6696 118.944 97.9256H118.876C118.876 97.9256 100.21 115.819 98.858 117.093C97.6518 118.239 73.3907 115.734 68.5231 115.221C66.869 114.979 65.1988 114.864 63.5271 114.879C61.4141 114.973 61.0377 115.272 58.9333 115.298C53.6186 115.357 48.3163 115.822 43.0729 116.691C40.6986 117.095 38.4809 118.142 36.6615 119.719C34.8422 121.296 33.4912 123.342 32.7559 125.634C27.8541 140.937 16.7501 177.16 14.7911 197.507C13.3107 200.19 11.9743 202.949 10.7875 205.774C9.41019 209.519 9.74382 209.647 10.2058 209.732C11.4548 209.963 12.8748 203.243 13.4052 204.868C13.9356 206.492 10.7105 212.878 12.0194 213.067C13.7303 213.306 15.0905 206.227 15.253 205.663C15.4156 205.099 16.2625 205.278 16.1085 205.808C15.8604 206.561 13.4566 214.537 15.1333 214.793C16.0572 214.93 16.1598 213.246 16.1598 213.246C16.1598 213.246 17.8708 205.612 18.6493 205.766C19.4277 205.919 18.5979 210.425 18.2044 211.93C17.8109 213.434 18.3584 214.195 19.1625 213.827C19.71 213.571 21.0189 208.997 21.3782 207.51C21.7375 206.022 22.6357 201.901 23.8419 204.287C25.0482 206.672 26.8789 208.057 27.6317 208.091C27.8013 208.071 27.9612 208.002 28.0908 207.89C28.2204 207.779 28.3137 207.632 28.3588 207.467C28.4039 207.303 28.3987 207.128 28.3438 206.967C28.2889 206.805 28.1869 206.664 28.0508 206.561C27.4033 205.929 26.8476 205.209 26.3998 204.423C26.0007 203.811 25.7113 203.134 25.5443 202.423C25.1996 201.005 24.999 199.555 24.9455 198.097L24.8086 197.242C26.7249 187.761 32.2426 159.933 40.2071 142.159L43.475 148.879L44.895 153.855L36.1864 175.339L73.3308 174.852L67.7874 153.53L74.5199 131.302C81.7999 131.464 100.492 131.738 103.606 130.327C107.524 128.617 127.79 103.038 127.79 103.038C129.111 102.012 130.376 100.916 131.58 99.7552C131.58 99.7552 132.812 98.7207 132.067 97.9513Z" fill="#FFBE9D"/>
<path d="M34.5524 159.463C35.6303 155.787 41.1652 137.611 41.1652 137.611C41.1652 137.611 43.8856 152.427 43.167 154.214C42.506 155.743 41.725 157.218 40.8315 158.625C34.5524 168.175 35.3736 172.954 35.3736 172.954L73.3137 171.799C73.3992 166.499 70.2597 154.171 69.6095 152.205C68.9593 150.238 71.1237 143.801 71.1237 143.801C71.1237 143.801 75.401 139.449 75.247 137.209C75.1658 135.197 74.9168 133.196 74.5028 131.225L97.6004 132.08L96.8733 116.435L63.6982 113.118C62.5433 116.375 52.0981 114.776 52.0981 114.776C40.823 115.152 40.1215 117.221 35.4335 120.863C30.7456 124.505 22.9865 155.761 22.9865 155.761L34.5524 159.463Z" fill="#FF725E"/>
<path d="M56.9828 155.761C56.3253 155.879 55.6556 155.913 54.9895 155.864C53.7491 155.864 52.0467 155.778 50.1732 155.59C48.2998 155.402 46.606 155.137 45.3997 154.898C44.7346 154.812 44.0825 154.646 43.4578 154.402C44.1267 154.402 44.794 154.465 45.4511 154.59C46.6658 154.744 48.3511 154.957 50.216 155.146C52.0809 155.334 53.7748 155.462 54.9981 155.547C55.6649 155.556 56.3295 155.627 56.9828 155.761Z" fill="#263238"/>
<path d="M59.5834 152.538C58.9257 152.86 58.2302 153.098 57.5132 153.248C54.1002 154.144 50.5789 154.561 47.0508 154.487C46.3207 154.511 45.5906 154.442 44.8779 154.282C45.5985 154.191 46.3248 154.154 47.0508 154.171C48.3939 154.128 50.2417 154.034 52.2777 153.795C54.3137 153.555 56.1273 153.213 57.4105 152.94C58.1233 152.75 58.8498 152.615 59.5834 152.538Z" fill="#263238"/>
<path d="M72.347 138.158C72.3297 138.81 72.2408 139.458 72.0818 140.09C71.8594 141.279 71.5172 142.903 71.0809 144.681C70.6446 146.46 70.2254 148.101 69.849 149.212C69.6977 149.849 69.4738 150.465 69.1818 151.05C69.2294 150.401 69.3499 149.758 69.5411 149.135C69.8661 147.802 70.234 146.263 70.6446 144.579C71.0552 142.895 71.4488 141.356 71.7738 140.022C71.8896 139.38 72.0821 138.754 72.347 138.158Z" fill="#263238"/>
<path d="M34.9545 157.283C32.9754 156.977 31.0222 156.523 29.1116 155.924C27.1594 155.467 25.2436 154.867 23.38 154.128C25.3581 154.439 27.3109 154.893 29.2229 155.488C31.1756 155.942 33.0915 156.542 34.9545 157.283Z" fill="#263238"/>
<path d="M74.9135 131.037C74.5908 131.092 74.2609 131.092 73.9382 131.037C73.0447 130.945 72.1673 130.735 71.329 130.413C69.9296 129.887 68.6556 129.075 67.589 128.028C66.5223 126.981 65.6866 125.723 65.1354 124.334C64.5263 122.806 64.2662 121.162 64.3741 119.521C64.4122 118.167 64.8173 116.85 65.5461 115.708C66.0587 114.939 66.8243 114.373 67.7104 114.109C67.9472 114.044 68.192 114.012 68.4376 114.015C68.6086 114.015 68.6942 114.015 68.6942 114.015C68.6942 114.015 68.3349 114.015 67.7617 114.246C66.9489 114.546 66.2594 115.109 65.8027 115.845C64.6393 117.674 64.3142 121.017 65.5546 124.138C66.1319 125.609 67.0358 126.93 68.198 128.002C69.1504 128.879 70.2473 129.584 71.4402 130.088C72.5598 130.53 73.7245 130.848 74.9135 131.037Z" fill="#263238"/>
<path d="M94.8544 131.772C94.6404 129.15 94.5719 126.519 94.6491 123.89C94.5821 121.263 94.6621 118.634 94.8886 116.016C95.1028 118.635 95.1713 121.263 95.094 123.89C95.1659 126.519 95.0859 129.151 94.8544 131.772Z" fill="#263238"/>
<path d="M63.4758 114.075C63.5699 112.169 63.7667 110.014 63.7667 110.014C63.7667 110.014 68.4889 109.493 68.7712 104.62C69.0535 99.7466 68.7712 88.5044 68.7712 88.5044L60.2165 84.1272L50.7208 91.5907L52.1836 115.956L60.8923 116.512C61.558 116.53 62.2038 116.284 62.6881 115.827C63.1724 115.37 63.4557 114.74 63.4758 114.075Z" fill="#FFBE9D"/>
<path d="M64.3227 100.764C64.3227 100.764 64.3227 100.858 64.2457 100.969C64.1821 101.05 64.0997 101.114 64.0058 101.155C63.9119 101.197 63.8093 101.215 63.7068 101.209C63.1593 101.209 62.6289 100.576 62.4407 99.8406C62.3512 99.4842 62.3512 99.1113 62.4407 98.7549C62.4582 98.5993 62.5144 98.4506 62.604 98.3222C62.6936 98.1938 62.8139 98.0898 62.954 98.0197C63.069 97.9722 63.1982 97.9722 63.3133 98.0197C63.3986 98.062 63.4677 98.131 63.51 98.2163C63.5699 98.3616 63.51 98.4557 63.51 98.4471C63.51 98.4386 63.51 98.3616 63.4245 98.2761C63.3798 98.2149 63.314 98.1723 63.2398 98.1565C63.1656 98.1408 63.0882 98.1529 63.0224 98.1906C62.9175 98.2541 62.8303 98.343 62.769 98.4491C62.7076 98.5552 62.6742 98.6751 62.6717 98.7976C62.5996 99.1156 62.5996 99.4457 62.6717 99.7637C62.8427 100.431 63.3047 100.969 63.7153 101.02C63.7957 101.031 63.8774 101.026 63.9554 101.003C64.0334 100.981 64.106 100.944 64.1687 100.892C64.2714 100.824 64.3056 100.755 64.3227 100.764Z" fill="#EB996E"/>
<path d="M71.7054 85.8712C71.0467 83.6313 68.6599 82.5199 66.487 81.9044C63.1764 80.964 59.6005 80.5536 56.3669 81.7419C53.1332 82.9303 49.2494 85.0163 49.2494 88.5813C47.3417 88.4274 46.2466 90.0945 45.4938 92.1635C45.0125 93.4239 44.7241 94.7497 44.6384 96.0961C44.3988 100.764 43.09 107.21 40.0616 110.63C38.3507 112.536 35.981 113.853 35.0058 116.23C34.1503 118.29 34.5952 120.735 33.7996 122.821C33.0895 124.659 31.524 125.967 30.3777 127.566C29.2098 129.379 28.5225 131.46 28.3804 133.612C28.2382 135.764 28.6459 137.917 29.565 139.868C30.4908 141.769 31.7942 143.462 33.3958 144.844C34.9974 146.226 36.8637 147.267 38.8811 147.904C42.877 149.119 47.1382 149.161 51.157 148.024C54.1732 147.303 56.9868 145.909 59.3867 143.946C61.8422 141.942 63.5286 139.151 64.1602 136.047C64.7676 132.559 63.7923 129.011 63.0652 125.54C60.7896 114.571 61.4398 113.998 64.3142 103.816C64.3826 103.637 64.4168 103.448 64.4681 103.269C64.5195 103.089 64.5451 103.004 64.5794 102.867C64.661 102.465 64.704 102.055 64.7077 101.645C64.2878 101.801 63.8322 101.834 63.3942 101.74C62.9562 101.646 62.5542 101.429 62.2354 101.114C61.9158 100.779 61.693 100.364 61.5905 99.9123C61.4881 99.4607 61.5099 98.9899 61.6537 98.5497C61.8555 98.0683 62.1562 97.6346 62.5364 97.2768C62.9166 96.9189 63.3678 96.6448 63.8608 96.4723C64.8103 96.079 65.8283 95.8738 66.7608 95.4378C68.7369 94.4974 70.1057 92.5482 71.0381 90.5049C71.8048 89.0888 72.0414 87.4459 71.7054 85.8712Z" fill="#263238"/>
<path d="M64.6649 100.995C64.8457 101.262 64.9949 101.549 65.1098 101.85C65.3664 102.388 65.7086 103.149 66.085 104.03L66.1534 104.192H65.9738L65.1183 104.269C64.528 104.269 64.0319 104.38 63.4501 104.372C63.3995 104.36 63.3525 104.336 63.3137 104.302C63.2748 104.268 63.2452 104.224 63.2277 104.175C63.2023 104.097 63.2023 104.013 63.2277 103.936C63.2475 103.821 63.2732 103.706 63.3047 103.594L63.4587 102.987C63.5361 102.582 63.6565 102.186 63.818 101.807C63.8021 102.22 63.7418 102.63 63.6383 103.03L63.5186 103.637C63.4758 103.842 63.3988 104.158 63.5186 104.132C63.9463 104.132 64.5537 104.038 65.1183 104.004L65.9738 103.927L65.8626 104.115C65.4947 103.26 65.1867 102.457 65.0071 101.901C64.8495 101.617 64.7342 101.312 64.6649 100.995Z" fill="#FF725E"/>
<path d="M35.3737 172.954L73.3137 171.799L89.8242 236.209L86.7873 310.092H66.7266L69.1818 237.782L54.5105 192.942L56.7689 312.956L36.4943 313.255L34.3642 200.448C34.2701 197.31 33.2435 190.24 33.6285 187.128L35.3737 172.954Z" fill="#263238"/>
<path d="M59.5578 193.856C58.9367 193.896 58.3133 193.858 57.7014 193.745C56.5551 193.609 54.9896 193.369 53.2701 193.027C51.5506 192.685 50.0107 192.292 48.8986 191.976C48.3041 191.845 47.729 191.638 47.1877 191.36C47.1877 191.232 49.9765 191.899 53.3984 192.591C56.8203 193.284 59.5749 193.728 59.5578 193.856Z" fill="#455A64"/>
<path d="M86.582 306.039C86.582 306.159 82.0395 306.262 76.4362 306.262C70.8328 306.262 66.2817 306.159 66.2817 306.039C66.2817 305.92 70.8243 305.817 76.4362 305.817C82.048 305.817 86.582 305.911 86.582 306.039Z" fill="#455A64"/>
<path d="M56.5893 309.835C56.5893 309.963 52.1751 310.057 46.7343 310.057C41.2935 310.057 36.8878 309.963 36.8878 309.835C36.8878 309.707 41.302 309.613 46.7343 309.613C52.1665 309.613 56.5893 309.716 56.5893 309.835Z" fill="#455A64"/>
<path d="M53.9716 309.527C53.8518 309.527 53.3214 283.307 52.7825 250.965C52.2435 218.624 51.927 192.386 52.0382 192.386C52.1494 192.386 52.6969 218.598 53.2273 250.957C53.7577 283.316 54.0999 309.527 53.9716 309.527Z" fill="#455A64"/>
<path d="M83.8873 306.039C83.8779 305.923 83.8779 305.805 83.8873 305.689V304.663C83.8873 303.74 83.9557 302.414 84.0071 300.73C84.1268 297.311 84.2979 292.344 84.5118 286.256C84.9738 274.014 85.6239 257.138 86.334 238.509C86.334 238.33 86.334 238.159 86.334 238.005V238.064C81.8427 220.111 77.7793 203.816 74.8279 192.027L71.406 178.083C71.0125 176.45 70.7131 175.176 70.4992 174.287C70.3966 173.868 70.3281 173.544 70.2683 173.296C70.2349 173.184 70.2148 173.07 70.2084 172.954C70.2528 173.061 70.2872 173.173 70.311 173.287C70.3795 173.526 70.465 173.851 70.5848 174.262C70.8157 175.117 71.1494 176.416 71.5771 178.04C72.4326 181.34 73.6388 186.094 75.1444 191.95C78.1215 203.731 82.2277 219.983 86.7788 237.962V238.022C86.7788 238.176 86.7788 238.355 86.7788 238.526C86.0174 257.155 85.3245 274.023 84.8198 286.265C84.5546 292.361 84.3322 297.294 84.1782 300.73C84.0926 302.44 84.0242 303.74 83.9814 304.663C83.9814 305.099 83.9301 305.441 83.9215 305.689C83.9228 305.807 83.9113 305.924 83.8873 306.039Z" fill="#455A64"/>
<path d="M77.343 236.5C75.9021 236.973 74.4177 237.303 72.9117 237.483C71.0638 237.799 69.4898 238.022 68.7797 238.056V237.885C69.0107 237.953 69.1305 237.996 69.1305 238.03C69.1305 238.064 68.9851 238.03 68.7455 238.03H68.2322L68.7455 237.876C69.4128 237.68 70.9869 237.355 72.8347 237.021C74.3167 236.7 75.8267 236.525 77.343 236.5Z" fill="#455A64"/>
<path d="M76.9922 238.954C75.6578 239.015 74.3207 238.955 72.9972 238.774C71.6609 238.747 70.3297 238.601 69.0192 238.338C71.6927 238.12 74.3839 238.328 76.9922 238.954Z" fill="#455A64"/>
<path opacity="0.2" d="M35.2111 174.313C35.6605 174.89 36.2264 175.365 36.872 175.708C37.5177 176.051 38.2285 176.255 38.9581 176.305C40.4861 176.486 42.0317 176.457 43.5519 176.219C53.3471 175.134 63.7239 174.133 73.3137 171.799C60.9008 172.492 47.7865 172.261 35.3737 172.954L35.2453 174.014" fill="black"/>
<g opacity="0.2">
<path d="M48.0004 191.796L54.9981 218.931L54.5105 192.942L48.0004 191.796Z" fill="black"/>
</g>
</g>
<defs>
<clipPath id="clip0_1_10256">
<rect width="219" height="319" fill="white"/>
</clipPath>
</defs>
</svg>
