<svg width="22" height="22" viewBox="0 0 22 22" fill="none" xmlns="http://www.w3.org/2000/svg">
<path d="M11 0C4.9242 0 0 4.9242 0 11C0 17.0758 4.9242 22 11 22C17.0758 22 22 17.0758 22 11C22 4.9242 17.0758 0 11 0ZM15.4878 11.7748H15.4723C15.1082 11.7826 14.7441 11.7748 14.38 11.7748H11.7746V15.488C11.7746 15.9218 11.4183 16.2445 11 16.2626C10.5817 16.2807 10.2254 15.8933 10.2254 15.488V15.4725C10.2176 15.1084 10.2254 14.7443 10.2254 14.3802V11.7748H6.51222C6.07842 11.7748 5.75567 11.4185 5.73759 11.0002C5.7195 10.5819 6.10683 10.2256 6.51222 10.2256H6.52771C6.89179 10.2178 7.25588 10.2256 7.61997 10.2256H10.2279V6.51241C10.2279 6.07861 10.5843 5.75586 11.0025 5.73778C11.4209 5.7197 11.7772 6.10702 11.7772 6.51241V6.5279C11.7849 6.89198 11.7772 7.25607 11.7772 7.62016V10.2281H15.4903C15.9241 10.2281 16.2469 10.5844 16.265 11.0027C16.283 11.4185 15.8931 11.7748 15.4877 11.7748H15.4878Z" fill="#A74A45"/>
</svg>
