<svg width="20" height="18" viewBox="0 0 20 18" fill="none" xmlns="http://www.w3.org/2000/svg">
<path d="M11.1303 0H8.86963V4.39773H11.1303V0ZM10.0011 1.649C9.64492 1.649 9.35529 1.35908 9.35529 1.00276C9.35529 0.646415 9.64506 0.356508 10.0011 0.356508C10.3573 0.356508 10.6472 0.646435 10.6472 1.00276C10.6472 1.35895 10.3575 1.649 10.0011 1.649Z" fill="#A74A45"/>
<path d="M10.001 0.696289C9.83205 0.696289 9.69482 0.833823 9.69482 1.00289C9.69482 1.17197 9.83221 1.3095 10.001 1.3095C10.1699 1.3095 10.3074 1.17196 10.3074 1.00289C10.3074 0.833819 10.17 0.696289 10.001 0.696289Z" fill="#A74A45"/>
<path d="M8.69997 4.73828H0V17.4098H20V4.73828H8.69997ZM8.75335 14.3955C8.75335 14.4894 8.67738 14.5653 8.58352 14.5653H1.61834C1.52447 14.5653 1.44851 14.4894 1.44851 14.3955V7.75292C1.44851 7.65905 1.52447 7.58309 1.61834 7.58309H8.58352C8.67738 7.58309 8.75335 7.65905 8.75335 7.75292V14.3955ZM18.3846 14.449H10.8612C10.7673 14.449 10.6914 14.3731 10.6914 14.2792C10.6914 14.1853 10.7673 14.1094 10.8612 14.1094H18.3846C18.4784 14.1094 18.5544 14.1853 18.5544 14.2792C18.5544 14.3729 18.4783 14.449 18.3846 14.449ZM18.3846 11.244H10.8612C10.7673 11.244 10.6914 11.168 10.6914 11.0741C10.6914 10.9803 10.7673 10.9043 10.8612 10.9043H18.3846C18.4784 10.9043 18.5544 10.9803 18.5544 11.0741C18.5544 11.1678 18.4783 11.244 18.3846 11.244ZM18.5544 7.8689C18.5544 7.96276 18.4784 8.03873 18.3846 8.03873H10.8612C10.7673 8.03873 10.6914 7.96276 10.6914 7.8689C10.6914 7.77504 10.7673 7.69907 10.8612 7.69907H18.3846C18.4783 7.69907 18.5544 7.77519 18.5544 7.8689Z" fill="#A74A45"/>
<path d="M1.7879 7.9209H8.41342V14.2242H1.7879V7.9209Z" fill="#A74A45"/>
</svg>
