<svg width="26" height="23" viewBox="0 0 26 23" fill="none" xmlns="http://www.w3.org/2000/svg">
<path d="M16.0053 15.1121C14.4258 15.1121 13.1423 16.3956 13.1423 17.9792C13.1423 19.5587 14.4256 20.8422 16.0053 20.8422C17.5847 20.8422 18.8722 19.5589 18.8722 17.9792C18.8724 16.3956 17.5849 15.1121 16.0053 15.1121ZM16.0053 17.6708C16.6058 17.6708 17.0953 18.1562 17.0953 18.7567C17.0953 19.2503 16.7663 19.6698 16.3137 19.8014V19.8343C16.3137 20.003 16.1739 20.1427 16.0053 20.1427C15.8366 20.1427 15.6968 20.003 15.6968 19.8343V19.8014C15.2484 19.6698 14.9194 19.2503 14.9194 18.7567C14.9194 18.5839 15.0552 18.4483 15.2278 18.4483C15.3965 18.4483 15.5363 18.5841 15.5363 18.7567C15.5363 19.0159 15.7461 19.2297 16.0051 19.2297C16.2642 19.2297 16.478 19.0159 16.478 18.7567C16.478 18.4976 16.2642 18.2877 16.0051 18.2877C15.4046 18.2877 14.9191 17.7981 14.9191 17.1976C14.9191 16.7041 15.2482 16.2845 15.6966 16.1529V16.12C15.6966 15.9514 15.8366 15.8158 16.0051 15.8158C16.1737 15.8158 16.3135 15.9516 16.3135 16.12L16.3139 16.1529C16.7665 16.2846 17.0955 16.7041 17.0955 17.1976C17.0955 17.3663 16.9558 17.5061 16.7871 17.5061C16.6184 17.5061 16.4786 17.3661 16.4786 17.1976C16.4786 16.9343 16.2648 16.7247 16.0057 16.7247C15.7465 16.7247 15.5369 16.9345 15.5369 17.1976C15.5365 17.4568 15.7463 17.6708 16.0053 17.6708ZM16.0053 15.1121C14.4258 15.1121 13.1423 16.3956 13.1423 17.9792C13.1423 19.5587 14.4256 20.8422 16.0053 20.8422C17.5847 20.8422 18.8722 19.5589 18.8722 17.9792C18.8724 16.3956 17.5849 15.1121 16.0053 15.1121ZM16.0053 17.6708C16.6058 17.6708 17.0953 18.1562 17.0953 18.7567C17.0953 19.2503 16.7663 19.6698 16.3137 19.8014V19.8343C16.3137 20.003 16.1739 20.1427 16.0053 20.1427C15.8366 20.1427 15.6968 20.003 15.6968 19.8343V19.8014C15.2484 19.6698 14.9194 19.2503 14.9194 18.7567C14.9194 18.5839 15.0552 18.4483 15.2278 18.4483C15.3965 18.4483 15.5363 18.5841 15.5363 18.7567C15.5363 19.0159 15.7461 19.2297 16.0051 19.2297C16.2642 19.2297 16.478 19.0159 16.478 18.7567C16.478 18.4976 16.2642 18.2877 16.0051 18.2877C15.4046 18.2877 14.9191 17.7981 14.9191 17.1976C14.9191 16.7041 15.2482 16.2845 15.6966 16.1529V16.12C15.6966 15.9514 15.8366 15.8158 16.0051 15.8158C16.1737 15.8158 16.3135 15.9516 16.3135 16.12L16.3139 16.1529C16.7665 16.2846 17.0955 16.7041 17.0955 17.1976C17.0955 17.3663 16.9558 17.5061 16.7871 17.5061C16.6184 17.5061 16.4786 17.3661 16.4786 17.1976C16.4786 16.9343 16.2648 16.7247 16.0057 16.7247C15.7465 16.7247 15.5369 16.9345 15.5369 17.1976C15.5365 17.4568 15.7463 17.6708 16.0053 17.6708ZM16.0053 15.1121C14.4258 15.1121 13.1423 16.3956 13.1423 17.9792C13.1423 19.5587 14.4256 20.8422 16.0053 20.8422C17.5847 20.8422 18.8722 19.5589 18.8722 17.9792C18.8724 16.3956 17.5849 15.1121 16.0053 15.1121ZM16.0053 17.6708C16.6058 17.6708 17.0953 18.1562 17.0953 18.7567C17.0953 19.2503 16.7663 19.6698 16.3137 19.8014V19.8343C16.3137 20.003 16.1739 20.1427 16.0053 20.1427C15.8366 20.1427 15.6968 20.003 15.6968 19.8343V19.8014C15.2484 19.6698 14.9194 19.2503 14.9194 18.7567C14.9194 18.5839 15.0552 18.4483 15.2278 18.4483C15.3965 18.4483 15.5363 18.5841 15.5363 18.7567C15.5363 19.0159 15.7461 19.2297 16.0051 19.2297C16.2642 19.2297 16.478 19.0159 16.478 18.7567C16.478 18.4976 16.2642 18.2877 16.0051 18.2877C15.4046 18.2877 14.9191 17.7981 14.9191 17.1976C14.9191 16.7041 15.2482 16.2845 15.6966 16.1529V16.12C15.6966 15.9514 15.8366 15.8158 16.0051 15.8158C16.1737 15.8158 16.3135 15.9516 16.3135 16.12L16.3139 16.1529C16.7665 16.2846 17.0955 16.7041 17.0955 17.1976C17.0955 17.3663 16.9558 17.5061 16.7871 17.5061C16.6184 17.5061 16.4786 17.3661 16.4786 17.1976C16.4786 16.9343 16.2648 16.7247 16.0057 16.7247C15.7465 16.7247 15.5369 16.9345 15.5369 17.1976C15.5365 17.4568 15.7463 17.6708 16.0053 17.6708ZM16.0053 15.1121C14.4258 15.1121 13.1423 16.3956 13.1423 17.9792C13.1423 19.5587 14.4256 20.8422 16.0053 20.8422C17.5847 20.8422 18.8722 19.5589 18.8722 17.9792C18.8724 16.3956 17.5849 15.1121 16.0053 15.1121ZM16.0053 17.6708C16.6058 17.6708 17.0953 18.1562 17.0953 18.7567C17.0953 19.2503 16.7663 19.6698 16.3137 19.8014V19.8343C16.3137 20.003 16.1739 20.1427 16.0053 20.1427C15.8366 20.1427 15.6968 20.003 15.6968 19.8343V19.8014C15.2484 19.6698 14.9194 19.2503 14.9194 18.7567C14.9194 18.5839 15.0552 18.4483 15.2278 18.4483C15.3965 18.4483 15.5363 18.5841 15.5363 18.7567C15.5363 19.0159 15.7461 19.2297 16.0051 19.2297C16.2642 19.2297 16.478 19.0159 16.478 18.7567C16.478 18.4976 16.2642 18.2877 16.0051 18.2877C15.4046 18.2877 14.9191 17.7981 14.9191 17.1976C14.9191 16.7041 15.2482 16.2845 15.6966 16.1529V16.12C15.6966 15.9514 15.8366 15.8158 16.0051 15.8158C16.1737 15.8158 16.3135 15.9516 16.3135 16.12L16.3139 16.1529C16.7665 16.2846 17.0955 16.7041 17.0955 17.1976C17.0955 17.3663 16.9558 17.5061 16.7871 17.5061C16.6184 17.5061 16.4786 17.3661 16.4786 17.1976C16.4786 16.9343 16.2648 16.7247 16.0057 16.7247C15.7465 16.7247 15.5369 16.9345 15.5369 17.1976C15.5365 17.4568 15.7463 17.6708 16.0053 17.6708ZM16.0053 15.1121C14.4258 15.1121 13.1423 16.3956 13.1423 17.9792C13.1423 19.5587 14.4256 20.8422 16.0053 20.8422C17.5847 20.8422 18.8722 19.5589 18.8722 17.9792C18.8724 16.3956 17.5849 15.1121 16.0053 15.1121ZM16.0053 17.6708C16.6058 17.6708 17.0953 18.1562 17.0953 18.7567C17.0953 19.2503 16.7663 19.6698 16.3137 19.8014V19.8343C16.3137 20.003 16.1739 20.1427 16.0053 20.1427C15.8366 20.1427 15.6968 20.003 15.6968 19.8343V19.8014C15.2484 19.6698 14.9194 19.2503 14.9194 18.7567C14.9194 18.5839 15.0552 18.4483 15.2278 18.4483C15.3965 18.4483 15.5363 18.5841 15.5363 18.7567C15.5363 19.0159 15.7461 19.2297 16.0051 19.2297C16.2642 19.2297 16.478 19.0159 16.478 18.7567C16.478 18.4976 16.2642 18.2877 16.0051 18.2877C15.4046 18.2877 14.9191 17.7981 14.9191 17.1976C14.9191 16.7041 15.2482 16.2845 15.6966 16.1529V16.12C15.6966 15.9514 15.8366 15.8158 16.0051 15.8158C16.1737 15.8158 16.3135 15.9516 16.3135 16.12L16.3139 16.1529C16.7665 16.2846 17.0955 16.7041 17.0955 17.1976C17.0955 17.3663 16.9558 17.5061 16.7871 17.5061C16.6184 17.5061 16.4786 17.3661 16.4786 17.1976C16.4786 16.9343 16.2648 16.7247 16.0057 16.7247C15.7465 16.7247 15.5369 16.9345 15.5369 17.1976C15.5365 17.4568 15.7463 17.6708 16.0053 17.6708ZM16.0053 15.1121C14.4258 15.1121 13.1423 16.3956 13.1423 17.9792C13.1423 19.5587 14.4256 20.8422 16.0053 20.8422C17.5847 20.8422 18.8722 19.5589 18.8722 17.9792C18.8724 16.3956 17.5849 15.1121 16.0053 15.1121ZM16.0053 17.6708C16.6058 17.6708 17.0953 18.1562 17.0953 18.7567C17.0953 19.2503 16.7663 19.6698 16.3137 19.8014V19.8343C16.3137 20.003 16.1739 20.1427 16.0053 20.1427C15.8366 20.1427 15.6968 20.003 15.6968 19.8343V19.8014C15.2484 19.6698 14.9194 19.2503 14.9194 18.7567C14.9194 18.5839 15.0552 18.4483 15.2278 18.4483C15.3965 18.4483 15.5363 18.5841 15.5363 18.7567C15.5363 19.0159 15.7461 19.2297 16.0051 19.2297C16.2642 19.2297 16.478 19.0159 16.478 18.7567C16.478 18.4976 16.2642 18.2877 16.0051 18.2877C15.4046 18.2877 14.9191 17.7981 14.9191 17.1976C14.9191 16.7041 15.2482 16.2845 15.6966 16.1529V16.12C15.6966 15.9514 15.8366 15.8158 16.0051 15.8158C16.1737 15.8158 16.3135 15.9516 16.3135 16.12L16.3139 16.1529C16.7665 16.2846 17.0955 16.7041 17.0955 17.1976C17.0955 17.3663 16.9558 17.5061 16.7871 17.5061C16.6184 17.5061 16.4786 17.3661 16.4786 17.1976C16.4786 16.9343 16.2648 16.7247 16.0057 16.7247C15.7465 16.7247 15.5369 16.9345 15.5369 17.1976C15.5365 17.4568 15.7463 17.6708 16.0053 17.6708ZM16.0053 15.1121C14.4258 15.1121 13.1423 16.3956 13.1423 17.9792C13.1423 19.5587 14.4256 20.8422 16.0053 20.8422C17.5847 20.8422 18.8722 19.5589 18.8722 17.9792C18.8724 16.3956 17.5849 15.1121 16.0053 15.1121ZM16.0053 17.6708C16.6058 17.6708 17.0953 18.1562 17.0953 18.7567C17.0953 19.2503 16.7663 19.6698 16.3137 19.8014V19.8343C16.3137 20.003 16.1739 20.1427 16.0053 20.1427C15.8366 20.1427 15.6968 20.003 15.6968 19.8343V19.8014C15.2484 19.6698 14.9194 19.2503 14.9194 18.7567C14.9194 18.5839 15.0552 18.4483 15.2278 18.4483C15.3965 18.4483 15.5363 18.5841 15.5363 18.7567C15.5363 19.0159 15.7461 19.2297 16.0051 19.2297C16.2642 19.2297 16.478 19.0159 16.478 18.7567C16.478 18.4976 16.2642 18.2877 16.0051 18.2877C15.4046 18.2877 14.9191 17.7981 14.9191 17.1976C14.9191 16.7041 15.2482 16.2845 15.6966 16.1529V16.12C15.6966 15.9514 15.8366 15.8158 16.0051 15.8158C16.1737 15.8158 16.3135 15.9516 16.3135 16.12L16.3139 16.1529C16.7665 16.2846 17.0955 16.7041 17.0955 17.1976C17.0955 17.3663 16.9558 17.5061 16.7871 17.5061C16.6184 17.5061 16.4786 17.3661 16.4786 17.1976C16.4786 16.9343 16.2648 16.7247 16.0057 16.7247C15.7465 16.7247 15.5369 16.9345 15.5369 17.1976C15.5365 17.4568 15.7463 17.6708 16.0053 17.6708ZM16.0053 15.1121C14.4258 15.1121 13.1423 16.3956 13.1423 17.9792C13.1423 19.5587 14.4256 20.8422 16.0053 20.8422C17.5847 20.8422 18.8722 19.5589 18.8722 17.9792C18.8724 16.3956 17.5849 15.1121 16.0053 15.1121ZM16.0053 17.6708C16.6058 17.6708 17.0953 18.1562 17.0953 18.7567C17.0953 19.2503 16.7663 19.6698 16.3137 19.8014V19.8343C16.3137 20.003 16.1739 20.1427 16.0053 20.1427C15.8366 20.1427 15.6968 20.003 15.6968 19.8343V19.8014C15.2484 19.6698 14.9194 19.2503 14.9194 18.7567C14.9194 18.5839 15.0552 18.4483 15.2278 18.4483C15.3965 18.4483 15.5363 18.5841 15.5363 18.7567C15.5363 19.0159 15.7461 19.2297 16.0051 19.2297C16.2642 19.2297 16.478 19.0159 16.478 18.7567C16.478 18.4976 16.2642 18.2877 16.0051 18.2877C15.4046 18.2877 14.9191 17.7981 14.9191 17.1976C14.9191 16.7041 15.2482 16.2845 15.6966 16.1529V16.12C15.6966 15.9514 15.8366 15.8158 16.0051 15.8158C16.1737 15.8158 16.3135 15.9516 16.3135 16.12L16.3139 16.1529C16.7665 16.2846 17.0955 16.7041 17.0955 17.1976C17.0955 17.3663 16.9558 17.5061 16.7871 17.5061C16.6184 17.5061 16.4786 17.3661 16.4786 17.1976C16.4786 16.9343 16.2648 16.7247 16.0057 16.7247C15.7465 16.7247 15.5369 16.9345 15.5369 17.1976C15.5365 17.4568 15.7463 17.6708 16.0053 17.6708ZM16.0053 15.1121C14.4258 15.1121 13.1423 16.3956 13.1423 17.9792C13.1423 19.5587 14.4256 20.8422 16.0053 20.8422C17.5847 20.8422 18.8722 19.5589 18.8722 17.9792C18.8724 16.3956 17.5849 15.1121 16.0053 15.1121ZM16.0053 17.6708C16.6058 17.6708 17.0953 18.1562 17.0953 18.7567C17.0953 19.2503 16.7663 19.6698 16.3137 19.8014V19.8343C16.3137 20.003 16.1739 20.1427 16.0053 20.1427C15.8366 20.1427 15.6968 20.003 15.6968 19.8343V19.8014C15.2484 19.6698 14.9194 19.2503 14.9194 18.7567C14.9194 18.5839 15.0552 18.4483 15.2278 18.4483C15.3965 18.4483 15.5363 18.5841 15.5363 18.7567C15.5363 19.0159 15.7461 19.2297 16.0051 19.2297C16.2642 19.2297 16.478 19.0159 16.478 18.7567C16.478 18.4976 16.2642 18.2877 16.0051 18.2877C15.4046 18.2877 14.9191 17.7981 14.9191 17.1976C14.9191 16.7041 15.2482 16.2845 15.6966 16.1529V16.12C15.6966 15.9514 15.8366 15.8158 16.0051 15.8158C16.1737 15.8158 16.3135 15.9516 16.3135 16.12L16.3139 16.1529C16.7665 16.2846 17.0955 16.7041 17.0955 17.1976C17.0955 17.3663 16.9558 17.5061 16.7871 17.5061C16.6184 17.5061 16.4786 17.3661 16.4786 17.1976C16.4786 16.9343 16.2648 16.7247 16.0057 16.7247C15.7465 16.7247 15.5369 16.9345 15.5369 17.1976C15.5365 17.4568 15.7463 17.6708 16.0053 17.6708ZM16.0053 15.1121C14.4258 15.1121 13.1423 16.3956 13.1423 17.9792C13.1423 19.5587 14.4256 20.8422 16.0053 20.8422C17.5847 20.8422 18.8722 19.5589 18.8722 17.9792C18.8724 16.3956 17.5849 15.1121 16.0053 15.1121ZM16.0053 17.6708C16.6058 17.6708 17.0953 18.1562 17.0953 18.7567C17.0953 19.2503 16.7663 19.6698 16.3137 19.8014V19.8343C16.3137 20.003 16.1739 20.1427 16.0053 20.1427C15.8366 20.1427 15.6968 20.003 15.6968 19.8343V19.8014C15.2484 19.6698 14.9194 19.2503 14.9194 18.7567C14.9194 18.5839 15.0552 18.4483 15.2278 18.4483C15.3965 18.4483 15.5363 18.5841 15.5363 18.7567C15.5363 19.0159 15.7461 19.2297 16.0051 19.2297C16.2642 19.2297 16.478 19.0159 16.478 18.7567C16.478 18.4976 16.2642 18.2877 16.0051 18.2877C15.4046 18.2877 14.9191 17.7981 14.9191 17.1976C14.9191 16.7041 15.2482 16.2845 15.6966 16.1529V16.12C15.6966 15.9514 15.8366 15.8158 16.0051 15.8158C16.1737 15.8158 16.3135 15.9516 16.3135 16.12L16.3139 16.1529C16.7665 16.2846 17.0955 16.7041 17.0955 17.1976C17.0955 17.3663 16.9558 17.5061 16.7871 17.5061C16.6184 17.5061 16.4786 17.3661 16.4786 17.1976C16.4786 16.9343 16.2648 16.7247 16.0057 16.7247C15.7465 16.7247 15.5369 16.9345 15.5369 17.1976C15.5365 17.4568 15.7463 17.6708 16.0053 17.6708ZM22.5539 13.6232H9.46118C9.32536 15.141 8.08723 16.4244 6.51193 16.5682V19.3859C8.05855 19.5256 9.3254 20.7927 9.46118 22.331H22.5539C22.6937 20.805 23.9443 19.5217 25.5032 19.3859V16.5682C23.9564 16.4285 22.6934 15.1658 22.5537 13.6232H22.5539ZM16.0053 21.4591C14.0885 21.4591 12.5254 19.8961 12.5254 17.9793C12.5254 16.0583 14.0885 14.4953 16.0053 14.4953C17.9262 14.4953 19.4893 16.0583 19.4893 17.9793C19.4893 19.8961 17.9262 21.4591 16.0053 21.4591ZM16.0053 15.1122C14.4258 15.1122 13.1423 16.3957 13.1423 17.9793C13.1423 19.5588 14.4256 20.8422 16.0053 20.8422C17.5847 20.8422 18.8722 19.559 18.8722 17.9793C18.8724 16.3957 17.5849 15.1122 16.0053 15.1122ZM16.0053 17.6708C16.6058 17.6708 17.0953 18.1563 17.0953 18.7568C17.0953 19.2503 16.7663 19.6699 16.3137 19.8015V19.8343C16.3137 20.003 16.1739 20.1427 16.0053 20.1427C15.8366 20.1427 15.6968 20.003 15.6968 19.8343V19.8015C15.2484 19.6698 14.9194 19.2503 14.9194 18.7568C14.9194 18.5839 15.0552 18.4483 15.2278 18.4483C15.3965 18.4483 15.5363 18.5841 15.5363 18.7568C15.5363 19.0159 15.7461 19.2297 16.0051 19.2297C16.2642 19.2297 16.478 19.0159 16.478 18.7568C16.478 18.4976 16.2642 18.2878 16.0051 18.2878C15.4046 18.2878 14.9191 17.7981 14.9191 17.1977C14.9191 16.7041 15.2482 16.2846 15.6966 16.153V16.1201C15.6966 15.9514 15.8366 15.8158 16.0051 15.8158C16.1737 15.8158 16.3135 15.9516 16.3135 16.1201L16.3139 16.153C16.7665 16.2846 17.0955 16.7041 17.0955 17.1977C17.0955 17.3664 16.9558 17.5061 16.7871 17.5061C16.6184 17.5061 16.4786 17.3662 16.4786 17.1977C16.4786 16.9344 16.2648 16.7247 16.0057 16.7247C15.7465 16.7247 15.5369 16.9346 15.5369 17.1977C15.5365 17.4568 15.7463 17.6708 16.0053 17.6708ZM16.0053 15.1122C14.4258 15.1122 13.1423 16.3957 13.1423 17.9793C13.1423 19.5588 14.4256 20.8422 16.0053 20.8422C17.5847 20.8422 18.8722 19.559 18.8722 17.9793C18.8724 16.3957 17.5849 15.1122 16.0053 15.1122ZM16.0053 17.6708C16.6058 17.6708 17.0953 18.1563 17.0953 18.7568C17.0953 19.2503 16.7663 19.6699 16.3137 19.8015V19.8343C16.3137 20.003 16.1739 20.1427 16.0053 20.1427C15.8366 20.1427 15.6968 20.003 15.6968 19.8343V19.8015C15.2484 19.6698 14.9194 19.2503 14.9194 18.7568C14.9194 18.5839 15.0552 18.4483 15.2278 18.4483C15.3965 18.4483 15.5363 18.5841 15.5363 18.7568C15.5363 19.0159 15.7461 19.2297 16.0051 19.2297C16.2642 19.2297 16.478 19.0159 16.478 18.7568C16.478 18.4976 16.2642 18.2878 16.0051 18.2878C15.4046 18.2878 14.9191 17.7981 14.9191 17.1977C14.9191 16.7041 15.2482 16.2846 15.6966 16.153V16.1201C15.6966 15.9514 15.8366 15.8158 16.0051 15.8158C16.1737 15.8158 16.3135 15.9516 16.3135 16.1201L16.3139 16.153C16.7665 16.2846 17.0955 16.7041 17.0955 17.1977C17.0955 17.3664 16.9558 17.5061 16.7871 17.5061C16.6184 17.5061 16.4786 17.3662 16.4786 17.1977C16.4786 16.9344 16.2648 16.7247 16.0057 16.7247C15.7465 16.7247 15.5369 16.9346 15.5369 17.1977C15.5365 17.4568 15.7463 17.6708 16.0053 17.6708ZM16.0053 15.1122C14.4258 15.1122 13.1423 16.3957 13.1423 17.9793C13.1423 19.5588 14.4256 20.8422 16.0053 20.8422C17.5847 20.8422 18.8722 19.559 18.8722 17.9793C18.8724 16.3957 17.5849 15.1122 16.0053 15.1122ZM16.0053 17.6708C16.6058 17.6708 17.0953 18.1563 17.0953 18.7568C17.0953 19.2503 16.7663 19.6699 16.3137 19.8015V19.8343C16.3137 20.003 16.1739 20.1427 16.0053 20.1427C15.8366 20.1427 15.6968 20.003 15.6968 19.8343V19.8015C15.2484 19.6698 14.9194 19.2503 14.9194 18.7568C14.9194 18.5839 15.0552 18.4483 15.2278 18.4483C15.3965 18.4483 15.5363 18.5841 15.5363 18.7568C15.5363 19.0159 15.7461 19.2297 16.0051 19.2297C16.2642 19.2297 16.478 19.0159 16.478 18.7568C16.478 18.4976 16.2642 18.2878 16.0051 18.2878C15.4046 18.2878 14.9191 17.7981 14.9191 17.1977C14.9191 16.7041 15.2482 16.2846 15.6966 16.153V16.1201C15.6966 15.9514 15.8366 15.8158 16.0051 15.8158C16.1737 15.8158 16.3135 15.9516 16.3135 16.1201L16.3139 16.153C16.7665 16.2846 17.0955 16.7041 17.0955 17.1977C17.0955 17.3664 16.9558 17.5061 16.7871 17.5061C16.6184 17.5061 16.4786 17.3662 16.4786 17.1977C16.4786 16.9344 16.2648 16.7247 16.0057 16.7247C15.7465 16.7247 15.5369 16.9346 15.5369 17.1977C15.5365 17.4568 15.7463 17.6708 16.0053 17.6708ZM16.0053 15.1122C14.4258 15.1122 13.1423 16.3957 13.1423 17.9793C13.1423 19.5588 14.4256 20.8422 16.0053 20.8422C17.5847 20.8422 18.8722 19.559 18.8722 17.9793C18.8724 16.3957 17.5849 15.1122 16.0053 15.1122ZM16.0053 17.6708C16.6058 17.6708 17.0953 18.1563 17.0953 18.7568C17.0953 19.2503 16.7663 19.6699 16.3137 19.8015V19.8343C16.3137 20.003 16.1739 20.1427 16.0053 20.1427C15.8366 20.1427 15.6968 20.003 15.6968 19.8343V19.8015C15.2484 19.6698 14.9194 19.2503 14.9194 18.7568C14.9194 18.5839 15.0552 18.4483 15.2278 18.4483C15.3965 18.4483 15.5363 18.5841 15.5363 18.7568C15.5363 19.0159 15.7461 19.2297 16.0051 19.2297C16.2642 19.2297 16.478 19.0159 16.478 18.7568C16.478 18.4976 16.2642 18.2878 16.0051 18.2878C15.4046 18.2878 14.9191 17.7981 14.9191 17.1977C14.9191 16.7041 15.2482 16.2846 15.6966 16.153V16.1201C15.6966 15.9514 15.8366 15.8158 16.0051 15.8158C16.1737 15.8158 16.3135 15.9516 16.3135 16.1201L16.3139 16.153C16.7665 16.2846 17.0955 16.7041 17.0955 17.1977C17.0955 17.3664 16.9558 17.5061 16.7871 17.5061C16.6184 17.5061 16.4786 17.3662 16.4786 17.1977C16.4786 16.9344 16.2648 16.7247 16.0057 16.7247C15.7465 16.7247 15.5369 16.9346 15.5369 17.1977C15.5365 17.4568 15.7463 17.6708 16.0053 17.6708ZM16.0053 15.1122C14.4258 15.1122 13.1423 16.3957 13.1423 17.9793C13.1423 19.5588 14.4256 20.8422 16.0053 20.8422C17.5847 20.8422 18.8722 19.559 18.8722 17.9793C18.8724 16.3957 17.5849 15.1122 16.0053 15.1122ZM16.0053 17.6708C16.6058 17.6708 17.0953 18.1563 17.0953 18.7568C17.0953 19.2503 16.7663 19.6699 16.3137 19.8015V19.8343C16.3137 20.003 16.1739 20.1427 16.0053 20.1427C15.8366 20.1427 15.6968 20.003 15.6968 19.8343V19.8015C15.2484 19.6698 14.9194 19.2503 14.9194 18.7568C14.9194 18.5839 15.0552 18.4483 15.2278 18.4483C15.3965 18.4483 15.5363 18.5841 15.5363 18.7568C15.5363 19.0159 15.7461 19.2297 16.0051 19.2297C16.2642 19.2297 16.478 19.0159 16.478 18.7568C16.478 18.4976 16.2642 18.2878 16.0051 18.2878C15.4046 18.2878 14.9191 17.7981 14.9191 17.1977C14.9191 16.7041 15.2482 16.2846 15.6966 16.153V16.1201C15.6966 15.9514 15.8366 15.8158 16.0051 15.8158C16.1737 15.8158 16.3135 15.9516 16.3135 16.1201L16.3139 16.153C16.7665 16.2846 17.0955 16.7041 17.0955 17.1977C17.0955 17.3664 16.9558 17.5061 16.7871 17.5061C16.6184 17.5061 16.4786 17.3662 16.4786 17.1977C16.4786 16.9344 16.2648 16.7247 16.0057 16.7247C15.7465 16.7247 15.5369 16.9346 15.5369 17.1977C15.5365 17.4568 15.7463 17.6708 16.0053 17.6708ZM16.0053 15.1122C14.4258 15.1122 13.1423 16.3957 13.1423 17.9793C13.1423 19.5588 14.4256 20.8422 16.0053 20.8422C17.5847 20.8422 18.8722 19.559 18.8722 17.9793C18.8724 16.3957 17.5849 15.1122 16.0053 15.1122ZM16.0053 17.6708C16.6058 17.6708 17.0953 18.1563 17.0953 18.7568C17.0953 19.2503 16.7663 19.6699 16.3137 19.8015V19.8343C16.3137 20.003 16.1739 20.1427 16.0053 20.1427C15.8366 20.1427 15.6968 20.003 15.6968 19.8343V19.8015C15.2484 19.6698 14.9194 19.2503 14.9194 18.7568C14.9194 18.5839 15.0552 18.4483 15.2278 18.4483C15.3965 18.4483 15.5363 18.5841 15.5363 18.7568C15.5363 19.0159 15.7461 19.2297 16.0051 19.2297C16.2642 19.2297 16.478 19.0159 16.478 18.7568C16.478 18.4976 16.2642 18.2878 16.0051 18.2878C15.4046 18.2878 14.9191 17.7981 14.9191 17.1977C14.9191 16.7041 15.2482 16.2846 15.6966 16.153V16.1201C15.6966 15.9514 15.8366 15.8158 16.0051 15.8158C16.1737 15.8158 16.3135 15.9516 16.3135 16.1201L16.3139 16.153C16.7665 16.2846 17.0955 16.7041 17.0955 17.1977C17.0955 17.3664 16.9558 17.5061 16.7871 17.5061C16.6184 17.5061 16.4786 17.3662 16.4786 17.1977C16.4786 16.9344 16.2648 16.7247 16.0057 16.7247C15.7465 16.7247 15.5369 16.9346 15.5369 17.1977C15.5365 17.4568 15.7463 17.6708 16.0053 17.6708ZM16.0053 15.1122C14.4258 15.1122 13.1423 16.3957 13.1423 17.9793C13.1423 19.5588 14.4256 20.8422 16.0053 20.8422C17.5847 20.8422 18.8722 19.559 18.8722 17.9793C18.8724 16.3957 17.5849 15.1122 16.0053 15.1122ZM16.0053 17.6708C16.6058 17.6708 17.0953 18.1563 17.0953 18.7568C17.0953 19.2503 16.7663 19.6699 16.3137 19.8015V19.8343C16.3137 20.003 16.1739 20.1427 16.0053 20.1427C15.8366 20.1427 15.6968 20.003 15.6968 19.8343V19.8015C15.2484 19.6698 14.9194 19.2503 14.9194 18.7568C14.9194 18.5839 15.0552 18.4483 15.2278 18.4483C15.3965 18.4483 15.5363 18.5841 15.5363 18.7568C15.5363 19.0159 15.7461 19.2297 16.0051 19.2297C16.2642 19.2297 16.478 19.0159 16.478 18.7568C16.478 18.4976 16.2642 18.2878 16.0051 18.2878C15.4046 18.2878 14.9191 17.7981 14.9191 17.1977C14.9191 16.7041 15.2482 16.2846 15.6966 16.153V16.1201C15.6966 15.9514 15.8366 15.8158 16.0051 15.8158C16.1737 15.8158 16.3135 15.9516 16.3135 16.1201L16.3139 16.153C16.7665 16.2846 17.0955 16.7041 17.0955 17.1977C17.0955 17.3664 16.9558 17.5061 16.7871 17.5061C16.6184 17.5061 16.4786 17.3662 16.4786 17.1977C16.4786 16.9344 16.2648 16.7247 16.0057 16.7247C15.7465 16.7247 15.5369 16.9346 15.5369 17.1977C15.5365 17.4568 15.7463 17.6708 16.0053 17.6708ZM16.0053 15.1122C14.4258 15.1122 13.1423 16.3957 13.1423 17.9793C13.1423 19.5588 14.4256 20.8422 16.0053 20.8422C17.5847 20.8422 18.8722 19.559 18.8722 17.9793C18.8724 16.3957 17.5849 15.1122 16.0053 15.1122ZM16.0053 17.6708C16.6058 17.6708 17.0953 18.1563 17.0953 18.7568C17.0953 19.2503 16.7663 19.6699 16.3137 19.8015V19.8343C16.3137 20.003 16.1739 20.1427 16.0053 20.1427C15.8366 20.1427 15.6968 20.003 15.6968 19.8343V19.8015C15.2484 19.6698 14.9194 19.2503 14.9194 18.7568C14.9194 18.5839 15.0552 18.4483 15.2278 18.4483C15.3965 18.4483 15.5363 18.5841 15.5363 18.7568C15.5363 19.0159 15.7461 19.2297 16.0051 19.2297C16.2642 19.2297 16.478 19.0159 16.478 18.7568C16.478 18.4976 16.2642 18.2878 16.0051 18.2878C15.4046 18.2878 14.9191 17.7981 14.9191 17.1977C14.9191 16.7041 15.2482 16.2846 15.6966 16.153V16.1201C15.6966 15.9514 15.8366 15.8158 16.0051 15.8158C16.1737 15.8158 16.3135 15.9516 16.3135 16.1201L16.3139 16.153C16.7665 16.2846 17.0955 16.7041 17.0955 17.1977C17.0955 17.3664 16.9558 17.5061 16.7871 17.5061C16.6184 17.5061 16.4786 17.3662 16.4786 17.1977C16.4786 16.9344 16.2648 16.7247 16.0057 16.7247C15.7465 16.7247 15.5369 16.9346 15.5369 17.1977C15.5365 17.4568 15.7463 17.6708 16.0053 17.6708ZM16.0053 15.1122C14.4258 15.1122 13.1423 16.3957 13.1423 17.9793C13.1423 19.5588 14.4256 20.8422 16.0053 20.8422C17.5847 20.8422 18.8722 19.559 18.8722 17.9793C18.8724 16.3957 17.5849 15.1122 16.0053 15.1122ZM16.0053 17.6708C16.6058 17.6708 17.0953 18.1563 17.0953 18.7568C17.0953 19.2503 16.7663 19.6699 16.3137 19.8015V19.8343C16.3137 20.003 16.1739 20.1427 16.0053 20.1427C15.8366 20.1427 15.6968 20.003 15.6968 19.8343V19.8015C15.2484 19.6698 14.9194 19.2503 14.9194 18.7568C14.9194 18.5839 15.0552 18.4483 15.2278 18.4483C15.3965 18.4483 15.5363 18.5841 15.5363 18.7568C15.5363 19.0159 15.7461 19.2297 16.0051 19.2297C16.2642 19.2297 16.478 19.0159 16.478 18.7568C16.478 18.4976 16.2642 18.2878 16.0051 18.2878C15.4046 18.2878 14.9191 17.7981 14.9191 17.1977C14.9191 16.7041 15.2482 16.2846 15.6966 16.153V16.1201C15.6966 15.9514 15.8366 15.8158 16.0051 15.8158C16.1737 15.8158 16.3135 15.9516 16.3135 16.1201L16.3139 16.153C16.7665 16.2846 17.0955 16.7041 17.0955 17.1977C17.0955 17.3664 16.9558 17.5061 16.7871 17.5061C16.6184 17.5061 16.4786 17.3662 16.4786 17.1977C16.4786 16.9344 16.2648 16.7247 16.0057 16.7247C15.7465 16.7247 15.5369 16.9346 15.5369 17.1977C15.5365 17.4568 15.7463 17.6708 16.0053 17.6708ZM25.1945 13.6232H23.1788C23.3228 14.8572 24.3017 15.8034 25.5029 15.9472V13.9318C25.5029 13.7631 25.3631 13.6232 25.1944 13.6232L25.1945 13.6232ZM6.82012 13.6232C6.65145 13.6232 6.51168 13.763 6.51168 13.9317V15.9471C7.72111 15.8073 8.69578 14.8447 8.83992 13.623L6.82012 13.6232ZM6.51148 20.0071V22.0226C6.51148 22.1912 6.65125 22.331 6.81993 22.331H8.83951C8.69994 21.1384 7.7538 20.1511 6.51148 20.0071ZM23.1788 22.3312H25.1945C25.3632 22.3312 25.5029 22.1914 25.5029 22.0227V20.0073C24.2772 20.151 23.3188 21.1217 23.1788 22.3312Z" fill="#A74A45"/>
<path d="M21.4347 5.42969V13.0067H6.80776C6.30173 13.0067 5.89447 13.4139 5.89447 13.9198V17.3709H1.80167C1.633 17.3709 1.49323 17.2312 1.49323 17.0625V5.42989H8.20609V8.79869C8.20609 9.12358 8.37872 9.42807 8.63807 9.58011C8.91366 9.75691 9.25913 9.76938 9.53885 9.62941L11.4679 8.68743L13.3847 9.62525C13.6809 9.7775 14.0428 9.74464 14.2691 9.58823C14.5488 9.42371 14.7217 9.12338 14.7217 8.7985V5.4297L21.4347 5.42969Z" fill="#A74A45"/>
<path d="M14.1047 8.79875C14.1047 8.90566 14.0471 9.00445 13.9566 9.0579C13.9073 9.09076 13.8539 9.1074 13.7963 9.1074C13.7509 9.1074 13.7016 9.09512 13.6605 9.07453L11.468 8.00088L9.26752 9.07453C9.17288 9.12383 9.05766 9.11571 8.96718 9.0581C8.87671 9.00464 8.82326 8.90585 8.82326 8.79894L8.82306 0H14.1047L14.1047 8.79875Z" fill="#A74A45"/>
<path d="M8.20626 0V4.81263H0.308447C0.13561 4.81263 0 4.67286 0 4.50419V0.30866C0 0.139984 0.135813 0.000212865 0.308447 0.000212865L8.20626 0Z" fill="#A74A45"/>
<path d="M22.9278 0.30866V4.50419C22.9278 4.67286 22.792 4.81263 22.6194 4.81263H14.7216V0H22.6189C22.7917 0 22.9275 0.139969 22.9275 0.308645L22.9278 0.30866Z" fill="#A74A45"/>
</svg>
