<svg width="22" height="23" viewBox="0 0 22 23" fill="none" xmlns="http://www.w3.org/2000/svg">
<path d="M1.44676 4.53125H16.03C16.8291 4.53125 17.4767 5.33034 17.4767 5.97801V20.5612C17.4767 21.3603 16.829 22.008 16.03 22.008H1.44676C0.647667 22.008 0 21.2089 0 20.5612V5.97801C0 5.17892 0.647721 4.53125 1.44676 4.53125Z" fill="#A74A45"/>
<path d="M20.553 17.4827C20.9368 17.4827 21.3049 17.3303 21.576 17.0589C21.8474 16.7878 21.9998 16.4197 21.9998 16.036V1.44677C21.999 1.06345 21.8463 0.695819 21.5752 0.42466C21.304 0.153501 20.9366 0.000846694 20.5531 0H5.96388C5.58014 0 5.21228 0.152437 4.9409 0.423813C4.66953 0.69519 4.51709 1.06301 4.51709 1.44679V3.36466H16.0305C16.7214 3.36466 17.3838 3.63922 17.8725 4.12772C18.361 4.6162 18.6353 5.27873 18.6353 5.9695V17.4829L20.553 17.4827Z" fill="#A74A45"/>
</svg>
