<svg width="24" height="20" viewBox="0 0 24 20" fill="none" xmlns="http://www.w3.org/2000/svg">
<path d="M14.9972 13.5348C13.5826 13.5348 12.4332 14.6843 12.4332 16.1025C12.4332 17.5171 13.5825 18.6666 14.9972 18.6666C16.4117 18.6666 17.5648 17.5173 17.5648 16.1025C17.5649 14.6843 16.4119 13.5348 14.9972 13.5348ZM14.9972 15.8263C15.535 15.8263 15.9735 16.2611 15.9735 16.7988C15.9735 17.2409 15.6788 17.6166 15.2734 17.7345V17.7639C15.2734 17.915 15.1483 18.0402 14.9972 18.0402C14.8461 18.0402 14.721 17.915 14.721 17.7639V17.7345C14.3194 17.6166 14.0247 17.2409 14.0247 16.7988C14.0247 16.644 14.1463 16.5226 14.3009 16.5226C14.452 16.5226 14.5772 16.6442 14.5772 16.7988C14.5772 17.0309 14.7651 17.2224 14.997 17.2224C15.2291 17.2224 15.4206 17.0309 15.4206 16.7988C15.4206 16.5667 15.2291 16.3788 14.997 16.3788C14.4592 16.3788 14.0245 15.9403 14.0245 15.4025C14.0245 14.9605 14.3192 14.5848 14.7208 14.4669V14.4375C14.7208 14.2864 14.8461 14.1649 14.997 14.1649C15.1481 14.1649 15.2733 14.2866 15.2733 14.4375L15.2736 14.4669C15.6789 14.5848 15.9736 14.9605 15.9736 15.4025C15.9736 15.5536 15.8484 15.6788 15.6974 15.6788C15.5463 15.6788 15.4211 15.5534 15.4211 15.4025C15.4211 15.1667 15.2296 14.979 14.9976 14.979C14.7655 14.979 14.5777 15.1669 14.5777 15.4025C14.5773 15.6346 14.7653 15.8263 14.9972 15.8263ZM14.9972 13.5348C13.5826 13.5348 12.4332 14.6843 12.4332 16.1025C12.4332 17.5171 13.5825 18.6666 14.9972 18.6666C16.4117 18.6666 17.5648 17.5173 17.5648 16.1025C17.5649 14.6843 16.4119 13.5348 14.9972 13.5348ZM14.9972 15.8263C15.535 15.8263 15.9735 16.2611 15.9735 16.7988C15.9735 17.2409 15.6788 17.6166 15.2734 17.7345V17.7639C15.2734 17.915 15.1483 18.0402 14.9972 18.0402C14.8461 18.0402 14.721 17.915 14.721 17.7639V17.7345C14.3194 17.6166 14.0247 17.2409 14.0247 16.7988C14.0247 16.644 14.1463 16.5226 14.3009 16.5226C14.452 16.5226 14.5772 16.6442 14.5772 16.7988C14.5772 17.0309 14.7651 17.2224 14.997 17.2224C15.2291 17.2224 15.4206 17.0309 15.4206 16.7988C15.4206 16.5667 15.2291 16.3788 14.997 16.3788C14.4592 16.3788 14.0245 15.9403 14.0245 15.4025C14.0245 14.9605 14.3192 14.5848 14.7208 14.4669V14.4375C14.7208 14.2864 14.8461 14.1649 14.997 14.1649C15.1481 14.1649 15.2733 14.2866 15.2733 14.4375L15.2736 14.4669C15.6789 14.5848 15.9736 14.9605 15.9736 15.4025C15.9736 15.5536 15.8484 15.6788 15.6974 15.6788C15.5463 15.6788 15.4211 15.5534 15.4211 15.4025C15.4211 15.1667 15.2296 14.979 14.9976 14.979C14.7655 14.979 14.5777 15.1669 14.5777 15.4025C14.5773 15.6346 14.7653 15.8263 14.9972 15.8263ZM14.9972 13.5348C13.5826 13.5348 12.4332 14.6843 12.4332 16.1025C12.4332 17.5171 13.5825 18.6666 14.9972 18.6666C16.4117 18.6666 17.5648 17.5173 17.5648 16.1025C17.5649 14.6843 16.4119 13.5348 14.9972 13.5348ZM14.9972 15.8263C15.535 15.8263 15.9735 16.2611 15.9735 16.7988C15.9735 17.2409 15.6788 17.6166 15.2734 17.7345V17.7639C15.2734 17.915 15.1483 18.0402 14.9972 18.0402C14.8461 18.0402 14.721 17.915 14.721 17.7639V17.7345C14.3194 17.6166 14.0247 17.2409 14.0247 16.7988C14.0247 16.644 14.1463 16.5226 14.3009 16.5226C14.452 16.5226 14.5772 16.6442 14.5772 16.7988C14.5772 17.0309 14.7651 17.2224 14.997 17.2224C15.2291 17.2224 15.4206 17.0309 15.4206 16.7988C15.4206 16.5667 15.2291 16.3788 14.997 16.3788C14.4592 16.3788 14.0245 15.9403 14.0245 15.4025C14.0245 14.9605 14.3192 14.5848 14.7208 14.4669V14.4375C14.7208 14.2864 14.8461 14.1649 14.997 14.1649C15.1481 14.1649 15.2733 14.2866 15.2733 14.4375L15.2736 14.4669C15.6789 14.5848 15.9736 14.9605 15.9736 15.4025C15.9736 15.5536 15.8484 15.6788 15.6974 15.6788C15.5463 15.6788 15.4211 15.5534 15.4211 15.4025C15.4211 15.1667 15.2296 14.979 14.9976 14.979C14.7655 14.979 14.5777 15.1669 14.5777 15.4025C14.5773 15.6346 14.7653 15.8263 14.9972 15.8263ZM14.9972 13.5348C13.5826 13.5348 12.4332 14.6843 12.4332 16.1025C12.4332 17.5171 13.5825 18.6666 14.9972 18.6666C16.4117 18.6666 17.5648 17.5173 17.5648 16.1025C17.5649 14.6843 16.4119 13.5348 14.9972 13.5348ZM14.9972 15.8263C15.535 15.8263 15.9735 16.2611 15.9735 16.7988C15.9735 17.2409 15.6788 17.6166 15.2734 17.7345V17.7639C15.2734 17.915 15.1483 18.0402 14.9972 18.0402C14.8461 18.0402 14.721 17.915 14.721 17.7639V17.7345C14.3194 17.6166 14.0247 17.2409 14.0247 16.7988C14.0247 16.644 14.1463 16.5226 14.3009 16.5226C14.452 16.5226 14.5772 16.6442 14.5772 16.7988C14.5772 17.0309 14.7651 17.2224 14.997 17.2224C15.2291 17.2224 15.4206 17.0309 15.4206 16.7988C15.4206 16.5667 15.2291 16.3788 14.997 16.3788C14.4592 16.3788 14.0245 15.9403 14.0245 15.4025C14.0245 14.9605 14.3192 14.5848 14.7208 14.4669V14.4375C14.7208 14.2864 14.8461 14.1649 14.997 14.1649C15.1481 14.1649 15.2733 14.2866 15.2733 14.4375L15.2736 14.4669C15.6789 14.5848 15.9736 14.9605 15.9736 15.4025C15.9736 15.5536 15.8484 15.6788 15.6974 15.6788C15.5463 15.6788 15.4211 15.5534 15.4211 15.4025C15.4211 15.1667 15.2296 14.979 14.9976 14.979C14.7655 14.979 14.5777 15.1669 14.5777 15.4025C14.5773 15.6346 14.7653 15.8263 14.9972 15.8263ZM14.9972 13.5348C13.5826 13.5348 12.4332 14.6843 12.4332 16.1025C12.4332 17.5171 13.5825 18.6666 14.9972 18.6666C16.4117 18.6666 17.5648 17.5173 17.5648 16.1025C17.5649 14.6843 16.4119 13.5348 14.9972 13.5348ZM14.9972 15.8263C15.535 15.8263 15.9735 16.2611 15.9735 16.7988C15.9735 17.2409 15.6788 17.6166 15.2734 17.7345V17.7639C15.2734 17.915 15.1483 18.0402 14.9972 18.0402C14.8461 18.0402 14.721 17.915 14.721 17.7639V17.7345C14.3194 17.6166 14.0247 17.2409 14.0247 16.7988C14.0247 16.644 14.1463 16.5226 14.3009 16.5226C14.452 16.5226 14.5772 16.6442 14.5772 16.7988C14.5772 17.0309 14.7651 17.2224 14.997 17.2224C15.2291 17.2224 15.4206 17.0309 15.4206 16.7988C15.4206 16.5667 15.2291 16.3788 14.997 16.3788C14.4592 16.3788 14.0245 15.9403 14.0245 15.4025C14.0245 14.9605 14.3192 14.5848 14.7208 14.4669V14.4375C14.7208 14.2864 14.8461 14.1649 14.997 14.1649C15.1481 14.1649 15.2733 14.2866 15.2733 14.4375L15.2736 14.4669C15.6789 14.5848 15.9736 14.9605 15.9736 15.4025C15.9736 15.5536 15.8484 15.6788 15.6974 15.6788C15.5463 15.6788 15.4211 15.5534 15.4211 15.4025C15.4211 15.1667 15.2296 14.979 14.9976 14.979C14.7655 14.979 14.5777 15.1669 14.5777 15.4025C14.5773 15.6346 14.7653 15.8263 14.9972 15.8263ZM14.9972 13.5348C13.5826 13.5348 12.4332 14.6843 12.4332 16.1025C12.4332 17.5171 13.5825 18.6666 14.9972 18.6666C16.4117 18.6666 17.5648 17.5173 17.5648 16.1025C17.5649 14.6843 16.4119 13.5348 14.9972 13.5348ZM14.9972 15.8263C15.535 15.8263 15.9735 16.2611 15.9735 16.7988C15.9735 17.2409 15.6788 17.6166 15.2734 17.7345V17.7639C15.2734 17.915 15.1483 18.0402 14.9972 18.0402C14.8461 18.0402 14.721 17.915 14.721 17.7639V17.7345C14.3194 17.6166 14.0247 17.2409 14.0247 16.7988C14.0247 16.644 14.1463 16.5226 14.3009 16.5226C14.452 16.5226 14.5772 16.6442 14.5772 16.7988C14.5772 17.0309 14.7651 17.2224 14.997 17.2224C15.2291 17.2224 15.4206 17.0309 15.4206 16.7988C15.4206 16.5667 15.2291 16.3788 14.997 16.3788C14.4592 16.3788 14.0245 15.9403 14.0245 15.4025C14.0245 14.9605 14.3192 14.5848 14.7208 14.4669V14.4375C14.7208 14.2864 14.8461 14.1649 14.997 14.1649C15.1481 14.1649 15.2733 14.2866 15.2733 14.4375L15.2736 14.4669C15.6789 14.5848 15.9736 14.9605 15.9736 15.4025C15.9736 15.5536 15.8484 15.6788 15.6974 15.6788C15.5463 15.6788 15.4211 15.5534 15.4211 15.4025C15.4211 15.1667 15.2296 14.979 14.9976 14.979C14.7655 14.979 14.5777 15.1669 14.5777 15.4025C14.5773 15.6346 14.7653 15.8263 14.9972 15.8263ZM14.9972 13.5348C13.5826 13.5348 12.4332 14.6843 12.4332 16.1025C12.4332 17.5171 13.5825 18.6666 14.9972 18.6666C16.4117 18.6666 17.5648 17.5173 17.5648 16.1025C17.5649 14.6843 16.4119 13.5348 14.9972 13.5348ZM14.9972 15.8263C15.535 15.8263 15.9735 16.2611 15.9735 16.7988C15.9735 17.2409 15.6788 17.6166 15.2734 17.7345V17.7639C15.2734 17.915 15.1483 18.0402 14.9972 18.0402C14.8461 18.0402 14.721 17.915 14.721 17.7639V17.7345C14.3194 17.6166 14.0247 17.2409 14.0247 16.7988C14.0247 16.644 14.1463 16.5226 14.3009 16.5226C14.452 16.5226 14.5772 16.6442 14.5772 16.7988C14.5772 17.0309 14.7651 17.2224 14.997 17.2224C15.2291 17.2224 15.4206 17.0309 15.4206 16.7988C15.4206 16.5667 15.2291 16.3788 14.997 16.3788C14.4592 16.3788 14.0245 15.9403 14.0245 15.4025C14.0245 14.9605 14.3192 14.5848 14.7208 14.4669V14.4375C14.7208 14.2864 14.8461 14.1649 14.997 14.1649C15.1481 14.1649 15.2733 14.2866 15.2733 14.4375L15.2736 14.4669C15.6789 14.5848 15.9736 14.9605 15.9736 15.4025C15.9736 15.5536 15.8484 15.6788 15.6974 15.6788C15.5463 15.6788 15.4211 15.5534 15.4211 15.4025C15.4211 15.1667 15.2296 14.979 14.9976 14.979C14.7655 14.979 14.5777 15.1669 14.5777 15.4025C14.5773 15.6346 14.7653 15.8263 14.9972 15.8263ZM14.9972 13.5348C13.5826 13.5348 12.4332 14.6843 12.4332 16.1025C12.4332 17.5171 13.5825 18.6666 14.9972 18.6666C16.4117 18.6666 17.5648 17.5173 17.5648 16.1025C17.5649 14.6843 16.4119 13.5348 14.9972 13.5348ZM14.9972 15.8263C15.535 15.8263 15.9735 16.2611 15.9735 16.7988C15.9735 17.2409 15.6788 17.6166 15.2734 17.7345V17.7639C15.2734 17.915 15.1483 18.0402 14.9972 18.0402C14.8461 18.0402 14.721 17.915 14.721 17.7639V17.7345C14.3194 17.6166 14.0247 17.2409 14.0247 16.7988C14.0247 16.644 14.1463 16.5226 14.3009 16.5226C14.452 16.5226 14.5772 16.6442 14.5772 16.7988C14.5772 17.0309 14.7651 17.2224 14.997 17.2224C15.2291 17.2224 15.4206 17.0309 15.4206 16.7988C15.4206 16.5667 15.2291 16.3788 14.997 16.3788C14.4592 16.3788 14.0245 15.9403 14.0245 15.4025C14.0245 14.9605 14.3192 14.5848 14.7208 14.4669V14.4375C14.7208 14.2864 14.8461 14.1649 14.997 14.1649C15.1481 14.1649 15.2733 14.2866 15.2733 14.4375L15.2736 14.4669C15.6789 14.5848 15.9736 14.9605 15.9736 15.4025C15.9736 15.5536 15.8484 15.6788 15.6974 15.6788C15.5463 15.6788 15.4211 15.5534 15.4211 15.4025C15.4211 15.1667 15.2296 14.979 14.9976 14.979C14.7655 14.979 14.5777 15.1669 14.5777 15.4025C14.5773 15.6346 14.7653 15.8263 14.9972 15.8263ZM14.9972 13.5348C13.5826 13.5348 12.4332 14.6843 12.4332 16.1025C12.4332 17.5171 13.5825 18.6666 14.9972 18.6666C16.4117 18.6666 17.5648 17.5173 17.5648 16.1025C17.5649 14.6843 16.4119 13.5348 14.9972 13.5348ZM14.9972 15.8263C15.535 15.8263 15.9735 16.2611 15.9735 16.7988C15.9735 17.2409 15.6788 17.6166 15.2734 17.7345V17.7639C15.2734 17.915 15.1483 18.0402 14.9972 18.0402C14.8461 18.0402 14.721 17.915 14.721 17.7639V17.7345C14.3194 17.6166 14.0247 17.2409 14.0247 16.7988C14.0247 16.644 14.1463 16.5226 14.3009 16.5226C14.452 16.5226 14.5772 16.6442 14.5772 16.7988C14.5772 17.0309 14.7651 17.2224 14.997 17.2224C15.2291 17.2224 15.4206 17.0309 15.4206 16.7988C15.4206 16.5667 15.2291 16.3788 14.997 16.3788C14.4592 16.3788 14.0245 15.9403 14.0245 15.4025C14.0245 14.9605 14.3192 14.5848 14.7208 14.4669V14.4375C14.7208 14.2864 14.8461 14.1649 14.997 14.1649C15.1481 14.1649 15.2733 14.2866 15.2733 14.4375L15.2736 14.4669C15.6789 14.5848 15.9736 14.9605 15.9736 15.4025C15.9736 15.5536 15.8484 15.6788 15.6974 15.6788C15.5463 15.6788 15.4211 15.5534 15.4211 15.4025C15.4211 15.1667 15.2296 14.979 14.9976 14.979C14.7655 14.979 14.5777 15.1669 14.5777 15.4025C14.5773 15.6346 14.7653 15.8263 14.9972 15.8263ZM14.9972 13.5348C13.5826 13.5348 12.4332 14.6843 12.4332 16.1025C12.4332 17.5171 13.5825 18.6666 14.9972 18.6666C16.4117 18.6666 17.5648 17.5173 17.5648 16.1025C17.5649 14.6843 16.4119 13.5348 14.9972 13.5348ZM14.9972 15.8263C15.535 15.8263 15.9735 16.2611 15.9735 16.7988C15.9735 17.2409 15.6788 17.6166 15.2734 17.7345V17.7639C15.2734 17.915 15.1483 18.0402 14.9972 18.0402C14.8461 18.0402 14.721 17.915 14.721 17.7639V17.7345C14.3194 17.6166 14.0247 17.2409 14.0247 16.7988C14.0247 16.644 14.1463 16.5226 14.3009 16.5226C14.452 16.5226 14.5772 16.6442 14.5772 16.7988C14.5772 17.0309 14.7651 17.2224 14.997 17.2224C15.2291 17.2224 15.4206 17.0309 15.4206 16.7988C15.4206 16.5667 15.2291 16.3788 14.997 16.3788C14.4592 16.3788 14.0245 15.9403 14.0245 15.4025C14.0245 14.9605 14.3192 14.5848 14.7208 14.4669V14.4375C14.7208 14.2864 14.8461 14.1649 14.997 14.1649C15.1481 14.1649 15.2733 14.2866 15.2733 14.4375L15.2736 14.4669C15.6789 14.5848 15.9736 14.9605 15.9736 15.4025C15.9736 15.5536 15.8484 15.6788 15.6974 15.6788C15.5463 15.6788 15.4211 15.5534 15.4211 15.4025C15.4211 15.1667 15.2296 14.979 14.9976 14.979C14.7655 14.979 14.5777 15.1669 14.5777 15.4025C14.5773 15.6346 14.7653 15.8263 14.9972 15.8263ZM20.8621 12.2013H9.13636C9.01472 13.5607 7.90586 14.71 6.49503 14.8389V17.3623C7.88017 17.4875 9.01476 18.6223 9.13636 19.9999H20.8621C20.9873 18.6333 22.1074 17.4839 23.5034 17.3623V14.8389C22.1181 14.7137 20.9871 13.5828 20.8619 12.2013H20.8621ZM14.9972 19.2191C13.2805 19.2191 11.8807 17.8193 11.8807 16.1026C11.8807 14.3822 13.2805 12.9823 14.9972 12.9823C16.7176 12.9823 18.1174 14.3822 18.1174 16.1026C18.1174 17.8193 16.7176 19.2191 14.9972 19.2191ZM14.9972 13.5348C13.5826 13.5348 12.4332 14.6843 12.4332 16.1026C12.4332 17.5171 13.5825 18.6666 14.9972 18.6666C16.4117 18.6666 17.5648 17.5173 17.5648 16.1026C17.5649 14.6843 16.4119 13.5348 14.9972 13.5348ZM14.9972 15.8263C15.535 15.8263 15.9735 16.2611 15.9735 16.7989C15.9735 17.2409 15.6788 17.6166 15.2734 17.7345V17.764C15.2734 17.915 15.1483 18.0402 14.9972 18.0402C14.8461 18.0402 14.721 17.915 14.721 17.764V17.7345C14.3194 17.6166 14.0247 17.2409 14.0247 16.7989C14.0247 16.6441 14.1463 16.5226 14.3009 16.5226C14.452 16.5226 14.5772 16.6443 14.5772 16.7989C14.5772 17.031 14.7651 17.2225 14.997 17.2225C15.2291 17.2225 15.4206 17.031 15.4206 16.7989C15.4206 16.5668 15.2291 16.3788 14.997 16.3788C14.4592 16.3788 14.0245 15.9404 14.0245 15.4026C14.0245 14.9606 14.3192 14.5848 14.7208 14.4669V14.4375C14.7208 14.2864 14.8461 14.165 14.997 14.165C15.1481 14.165 15.2733 14.2866 15.2733 14.4375L15.2736 14.4669C15.6789 14.5849 15.9736 14.9606 15.9736 15.4026C15.9736 15.5536 15.8484 15.6788 15.6974 15.6788C15.5463 15.6788 15.4211 15.5535 15.4211 15.4026C15.4211 15.1668 15.2296 14.979 14.9976 14.979C14.7655 14.979 14.5777 15.1669 14.5777 15.4026C14.5773 15.6347 14.7653 15.8263 14.9972 15.8263ZM14.9972 13.5348C13.5826 13.5348 12.4332 14.6843 12.4332 16.1026C12.4332 17.5171 13.5825 18.6666 14.9972 18.6666C16.4117 18.6666 17.5648 17.5173 17.5648 16.1026C17.5649 14.6843 16.4119 13.5348 14.9972 13.5348ZM14.9972 15.8263C15.535 15.8263 15.9735 16.2611 15.9735 16.7989C15.9735 17.2409 15.6788 17.6166 15.2734 17.7345V17.764C15.2734 17.915 15.1483 18.0402 14.9972 18.0402C14.8461 18.0402 14.721 17.915 14.721 17.764V17.7345C14.3194 17.6166 14.0247 17.2409 14.0247 16.7989C14.0247 16.6441 14.1463 16.5226 14.3009 16.5226C14.452 16.5226 14.5772 16.6443 14.5772 16.7989C14.5772 17.031 14.7651 17.2225 14.997 17.2225C15.2291 17.2225 15.4206 17.031 15.4206 16.7989C15.4206 16.5668 15.2291 16.3788 14.997 16.3788C14.4592 16.3788 14.0245 15.9404 14.0245 15.4026C14.0245 14.9606 14.3192 14.5848 14.7208 14.4669V14.4375C14.7208 14.2864 14.8461 14.165 14.997 14.165C15.1481 14.165 15.2733 14.2866 15.2733 14.4375L15.2736 14.4669C15.6789 14.5849 15.9736 14.9606 15.9736 15.4026C15.9736 15.5536 15.8484 15.6788 15.6974 15.6788C15.5463 15.6788 15.4211 15.5535 15.4211 15.4026C15.4211 15.1668 15.2296 14.979 14.9976 14.979C14.7655 14.979 14.5777 15.1669 14.5777 15.4026C14.5773 15.6347 14.7653 15.8263 14.9972 15.8263ZM14.9972 13.5348C13.5826 13.5348 12.4332 14.6843 12.4332 16.1026C12.4332 17.5171 13.5825 18.6666 14.9972 18.6666C16.4117 18.6666 17.5648 17.5173 17.5648 16.1026C17.5649 14.6843 16.4119 13.5348 14.9972 13.5348ZM14.9972 15.8263C15.535 15.8263 15.9735 16.2611 15.9735 16.7989C15.9735 17.2409 15.6788 17.6166 15.2734 17.7345V17.764C15.2734 17.915 15.1483 18.0402 14.9972 18.0402C14.8461 18.0402 14.721 17.915 14.721 17.764V17.7345C14.3194 17.6166 14.0247 17.2409 14.0247 16.7989C14.0247 16.6441 14.1463 16.5226 14.3009 16.5226C14.452 16.5226 14.5772 16.6443 14.5772 16.7989C14.5772 17.031 14.7651 17.2225 14.997 17.2225C15.2291 17.2225 15.4206 17.031 15.4206 16.7989C15.4206 16.5668 15.2291 16.3788 14.997 16.3788C14.4592 16.3788 14.0245 15.9404 14.0245 15.4026C14.0245 14.9606 14.3192 14.5848 14.7208 14.4669V14.4375C14.7208 14.2864 14.8461 14.165 14.997 14.165C15.1481 14.165 15.2733 14.2866 15.2733 14.4375L15.2736 14.4669C15.6789 14.5849 15.9736 14.9606 15.9736 15.4026C15.9736 15.5536 15.8484 15.6788 15.6974 15.6788C15.5463 15.6788 15.4211 15.5535 15.4211 15.4026C15.4211 15.1668 15.2296 14.979 14.9976 14.979C14.7655 14.979 14.5777 15.1669 14.5777 15.4026C14.5773 15.6347 14.7653 15.8263 14.9972 15.8263ZM14.9972 13.5348C13.5826 13.5348 12.4332 14.6843 12.4332 16.1026C12.4332 17.5171 13.5825 18.6666 14.9972 18.6666C16.4117 18.6666 17.5648 17.5173 17.5648 16.1026C17.5649 14.6843 16.4119 13.5348 14.9972 13.5348ZM14.9972 15.8263C15.535 15.8263 15.9735 16.2611 15.9735 16.7989C15.9735 17.2409 15.6788 17.6166 15.2734 17.7345V17.764C15.2734 17.915 15.1483 18.0402 14.9972 18.0402C14.8461 18.0402 14.721 17.915 14.721 17.764V17.7345C14.3194 17.6166 14.0247 17.2409 14.0247 16.7989C14.0247 16.6441 14.1463 16.5226 14.3009 16.5226C14.452 16.5226 14.5772 16.6443 14.5772 16.7989C14.5772 17.031 14.7651 17.2225 14.997 17.2225C15.2291 17.2225 15.4206 17.031 15.4206 16.7989C15.4206 16.5668 15.2291 16.3788 14.997 16.3788C14.4592 16.3788 14.0245 15.9404 14.0245 15.4026C14.0245 14.9606 14.3192 14.5848 14.7208 14.4669V14.4375C14.7208 14.2864 14.8461 14.165 14.997 14.165C15.1481 14.165 15.2733 14.2866 15.2733 14.4375L15.2736 14.4669C15.6789 14.5849 15.9736 14.9606 15.9736 15.4026C15.9736 15.5536 15.8484 15.6788 15.6974 15.6788C15.5463 15.6788 15.4211 15.5535 15.4211 15.4026C15.4211 15.1668 15.2296 14.979 14.9976 14.979C14.7655 14.979 14.5777 15.1669 14.5777 15.4026C14.5773 15.6347 14.7653 15.8263 14.9972 15.8263ZM14.9972 13.5348C13.5826 13.5348 12.4332 14.6843 12.4332 16.1026C12.4332 17.5171 13.5825 18.6666 14.9972 18.6666C16.4117 18.6666 17.5648 17.5173 17.5648 16.1026C17.5649 14.6843 16.4119 13.5348 14.9972 13.5348ZM14.9972 15.8263C15.535 15.8263 15.9735 16.2611 15.9735 16.7989C15.9735 17.2409 15.6788 17.6166 15.2734 17.7345V17.764C15.2734 17.915 15.1483 18.0402 14.9972 18.0402C14.8461 18.0402 14.721 17.915 14.721 17.764V17.7345C14.3194 17.6166 14.0247 17.2409 14.0247 16.7989C14.0247 16.6441 14.1463 16.5226 14.3009 16.5226C14.452 16.5226 14.5772 16.6443 14.5772 16.7989C14.5772 17.031 14.7651 17.2225 14.997 17.2225C15.2291 17.2225 15.4206 17.031 15.4206 16.7989C15.4206 16.5668 15.2291 16.3788 14.997 16.3788C14.4592 16.3788 14.0245 15.9404 14.0245 15.4026C14.0245 14.9606 14.3192 14.5848 14.7208 14.4669V14.4375C14.7208 14.2864 14.8461 14.165 14.997 14.165C15.1481 14.165 15.2733 14.2866 15.2733 14.4375L15.2736 14.4669C15.6789 14.5849 15.9736 14.9606 15.9736 15.4026C15.9736 15.5536 15.8484 15.6788 15.6974 15.6788C15.5463 15.6788 15.4211 15.5535 15.4211 15.4026C15.4211 15.1668 15.2296 14.979 14.9976 14.979C14.7655 14.979 14.5777 15.1669 14.5777 15.4026C14.5773 15.6347 14.7653 15.8263 14.9972 15.8263ZM14.9972 13.5348C13.5826 13.5348 12.4332 14.6843 12.4332 16.1026C12.4332 17.5171 13.5825 18.6666 14.9972 18.6666C16.4117 18.6666 17.5648 17.5173 17.5648 16.1026C17.5649 14.6843 16.4119 13.5348 14.9972 13.5348ZM14.9972 15.8263C15.535 15.8263 15.9735 16.2611 15.9735 16.7989C15.9735 17.2409 15.6788 17.6166 15.2734 17.7345V17.764C15.2734 17.915 15.1483 18.0402 14.9972 18.0402C14.8461 18.0402 14.721 17.915 14.721 17.764V17.7345C14.3194 17.6166 14.0247 17.2409 14.0247 16.7989C14.0247 16.6441 14.1463 16.5226 14.3009 16.5226C14.452 16.5226 14.5772 16.6443 14.5772 16.7989C14.5772 17.031 14.7651 17.2225 14.997 17.2225C15.2291 17.2225 15.4206 17.031 15.4206 16.7989C15.4206 16.5668 15.2291 16.3788 14.997 16.3788C14.4592 16.3788 14.0245 15.9404 14.0245 15.4026C14.0245 14.9606 14.3192 14.5848 14.7208 14.4669V14.4375C14.7208 14.2864 14.8461 14.165 14.997 14.165C15.1481 14.165 15.2733 14.2866 15.2733 14.4375L15.2736 14.4669C15.6789 14.5849 15.9736 14.9606 15.9736 15.4026C15.9736 15.5536 15.8484 15.6788 15.6974 15.6788C15.5463 15.6788 15.4211 15.5535 15.4211 15.4026C15.4211 15.1668 15.2296 14.979 14.9976 14.979C14.7655 14.979 14.5777 15.1669 14.5777 15.4026C14.5773 15.6347 14.7653 15.8263 14.9972 15.8263ZM14.9972 13.5348C13.5826 13.5348 12.4332 14.6843 12.4332 16.1026C12.4332 17.5171 13.5825 18.6666 14.9972 18.6666C16.4117 18.6666 17.5648 17.5173 17.5648 16.1026C17.5649 14.6843 16.4119 13.5348 14.9972 13.5348ZM14.9972 15.8263C15.535 15.8263 15.9735 16.2611 15.9735 16.7989C15.9735 17.2409 15.6788 17.6166 15.2734 17.7345V17.764C15.2734 17.915 15.1483 18.0402 14.9972 18.0402C14.8461 18.0402 14.721 17.915 14.721 17.764V17.7345C14.3194 17.6166 14.0247 17.2409 14.0247 16.7989C14.0247 16.6441 14.1463 16.5226 14.3009 16.5226C14.452 16.5226 14.5772 16.6443 14.5772 16.7989C14.5772 17.031 14.7651 17.2225 14.997 17.2225C15.2291 17.2225 15.4206 17.031 15.4206 16.7989C15.4206 16.5668 15.2291 16.3788 14.997 16.3788C14.4592 16.3788 14.0245 15.9404 14.0245 15.4026C14.0245 14.9606 14.3192 14.5848 14.7208 14.4669V14.4375C14.7208 14.2864 14.8461 14.165 14.997 14.165C15.1481 14.165 15.2733 14.2866 15.2733 14.4375L15.2736 14.4669C15.6789 14.5849 15.9736 14.9606 15.9736 15.4026C15.9736 15.5536 15.8484 15.6788 15.6974 15.6788C15.5463 15.6788 15.4211 15.5535 15.4211 15.4026C15.4211 15.1668 15.2296 14.979 14.9976 14.979C14.7655 14.979 14.5777 15.1669 14.5777 15.4026C14.5773 15.6347 14.7653 15.8263 14.9972 15.8263ZM14.9972 13.5348C13.5826 13.5348 12.4332 14.6843 12.4332 16.1026C12.4332 17.5171 13.5825 18.6666 14.9972 18.6666C16.4117 18.6666 17.5648 17.5173 17.5648 16.1026C17.5649 14.6843 16.4119 13.5348 14.9972 13.5348ZM14.9972 15.8263C15.535 15.8263 15.9735 16.2611 15.9735 16.7989C15.9735 17.2409 15.6788 17.6166 15.2734 17.7345V17.764C15.2734 17.915 15.1483 18.0402 14.9972 18.0402C14.8461 18.0402 14.721 17.915 14.721 17.764V17.7345C14.3194 17.6166 14.0247 17.2409 14.0247 16.7989C14.0247 16.6441 14.1463 16.5226 14.3009 16.5226C14.452 16.5226 14.5772 16.6443 14.5772 16.7989C14.5772 17.031 14.7651 17.2225 14.997 17.2225C15.2291 17.2225 15.4206 17.031 15.4206 16.7989C15.4206 16.5668 15.2291 16.3788 14.997 16.3788C14.4592 16.3788 14.0245 15.9404 14.0245 15.4026C14.0245 14.9606 14.3192 14.5848 14.7208 14.4669V14.4375C14.7208 14.2864 14.8461 14.165 14.997 14.165C15.1481 14.165 15.2733 14.2866 15.2733 14.4375L15.2736 14.4669C15.6789 14.5849 15.9736 14.9606 15.9736 15.4026C15.9736 15.5536 15.8484 15.6788 15.6974 15.6788C15.5463 15.6788 15.4211 15.5535 15.4211 15.4026C15.4211 15.1668 15.2296 14.979 14.9976 14.979C14.7655 14.979 14.5777 15.1669 14.5777 15.4026C14.5773 15.6347 14.7653 15.8263 14.9972 15.8263ZM14.9972 13.5348C13.5826 13.5348 12.4332 14.6843 12.4332 16.1026C12.4332 17.5171 13.5825 18.6666 14.9972 18.6666C16.4117 18.6666 17.5648 17.5173 17.5648 16.1026C17.5649 14.6843 16.4119 13.5348 14.9972 13.5348ZM14.9972 15.8263C15.535 15.8263 15.9735 16.2611 15.9735 16.7989C15.9735 17.2409 15.6788 17.6166 15.2734 17.7345V17.764C15.2734 17.915 15.1483 18.0402 14.9972 18.0402C14.8461 18.0402 14.721 17.915 14.721 17.764V17.7345C14.3194 17.6166 14.0247 17.2409 14.0247 16.7989C14.0247 16.6441 14.1463 16.5226 14.3009 16.5226C14.452 16.5226 14.5772 16.6443 14.5772 16.7989C14.5772 17.031 14.7651 17.2225 14.997 17.2225C15.2291 17.2225 15.4206 17.031 15.4206 16.7989C15.4206 16.5668 15.2291 16.3788 14.997 16.3788C14.4592 16.3788 14.0245 15.9404 14.0245 15.4026C14.0245 14.9606 14.3192 14.5848 14.7208 14.4669V14.4375C14.7208 14.2864 14.8461 14.165 14.997 14.165C15.1481 14.165 15.2733 14.2866 15.2733 14.4375L15.2736 14.4669C15.6789 14.5849 15.9736 14.9606 15.9736 15.4026C15.9736 15.5536 15.8484 15.6788 15.6974 15.6788C15.5463 15.6788 15.4211 15.5535 15.4211 15.4026C15.4211 15.1668 15.2296 14.979 14.9976 14.979C14.7655 14.979 14.5777 15.1669 14.5777 15.4026C14.5773 15.6347 14.7653 15.8263 14.9972 15.8263ZM23.227 12.2013H21.4218C21.5507 13.3065 22.4275 14.1538 23.5032 14.2827V12.4777C23.5032 12.3266 23.378 12.2013 23.2269 12.2013L23.227 12.2013ZM6.77105 12.2013C6.61999 12.2013 6.49481 12.3265 6.49481 12.4776V14.2826C7.57797 14.1574 8.45087 13.2953 8.57997 12.2012L6.77105 12.2013ZM6.49463 17.9187V19.7237C6.49463 19.8748 6.61981 20 6.77088 20H8.5796C8.4546 18.9319 7.60725 18.0476 6.49463 17.9187ZM21.4218 20.0001H23.227C23.378 20.0001 23.5032 19.8749 23.5032 19.7239V17.9189C22.4055 18.0476 21.5471 18.9169 21.4218 20.0001Z" fill="#666666"/>
<path d="M19.8594 4.86328V11.6492H6.75966C6.30646 11.6492 5.94172 12.0139 5.94172 12.4669V15.5578H2.27624C2.12518 15.5578 2 15.4326 2 15.2815V4.86347H8.01199V7.88054C8.01199 8.1715 8.1666 8.4442 8.39887 8.58037C8.64568 8.73871 8.95509 8.74988 9.2056 8.62452L10.9333 7.78089L12.6499 8.6208C12.9152 8.75715 13.2393 8.72771 13.442 8.58764C13.6925 8.4403 13.8473 8.17132 13.8473 7.88036V4.86329L19.8594 4.86328Z" fill="#666666"/>
<path d="M13.2947 7.88009C13.2947 7.97584 13.2431 8.06431 13.162 8.11218C13.1179 8.14162 13.07 8.15651 13.0184 8.15651C12.9778 8.15651 12.9337 8.14552 12.8968 8.12708L10.9333 7.16552L8.96251 8.12708C8.87775 8.17123 8.77456 8.16396 8.69353 8.11236C8.6125 8.06449 8.56463 7.97601 8.56463 7.88027L8.56445 0H13.2946L13.2947 7.88009Z" fill="#666666"/>
<path d="M8.01206 0V4.31016H0.93884C0.784049 4.31016 0.662598 4.18498 0.662598 4.03391V0.276433C0.662598 0.125369 0.784231 0.00019064 0.93884 0.00019064L8.01206 0Z" fill="#666666"/>
<path d="M21.1966 0.276433V4.03391C21.1966 4.18498 21.075 4.31016 20.9204 4.31016H13.8472V0H20.9199C21.0747 0 21.1964 0.125355 21.1964 0.27642L21.1966 0.276433Z" fill="#666666"/>
</svg>
