<svg width="24" height="17" viewBox="0 0 24 17" fill="none" xmlns="http://www.w3.org/2000/svg">
<path d="M5.15977 11.0527C3.65139 11.0527 2.42908 12.2756 2.42908 13.784C2.42908 15.2924 3.65193 16.5152 5.15977 16.5152C6.66816 16.5152 7.89139 15.2924 7.89139 13.784C7.89139 12.2756 6.66853 11.0527 5.15977 11.0527ZM5.15977 15.3475C4.29692 15.3475 3.59689 14.6476 3.59689 13.7843C3.59689 12.9211 4.29687 12.222 5.15977 12.222C6.023 12.222 6.72265 12.9213 6.72265 13.7843C6.72248 14.6476 6.02336 15.3475 5.15977 15.3475Z" fill="#A74A45"/>
<path d="M18.6765 11.0527C17.1681 11.0527 15.9453 12.2756 15.9453 13.784C15.9453 15.2924 17.1681 16.5152 18.6765 16.5152C20.1849 16.5152 21.4081 15.2924 21.4081 13.784C21.4081 12.2756 20.1853 11.0527 18.6765 11.0527ZM18.6769 15.3475C17.8136 15.3475 17.114 14.6476 17.114 13.7843C17.114 12.9211 17.8136 12.222 18.6769 12.222C19.5397 12.222 20.2397 12.9213 20.2397 13.7843C20.2397 14.6476 19.5401 15.3475 18.6769 15.3475Z" fill="#A74A45"/>
<path d="M22.0013 6.92928L20.2409 2.91963H14.6862V0H0V13.4496H1.88768C2.05572 11.7903 3.45641 10.4957 5.16 10.4957C6.86391 10.4957 8.26519 11.7901 8.43287 13.4496H15.4043C15.572 11.7903 16.973 10.4957 18.6766 10.4957C20.3805 10.4957 21.7814 11.7901 21.9495 13.4496H24V8.42194L22.0013 6.92928ZM15.5469 7.70446V3.91643H19.614L21.1476 7.70446H15.5469Z" fill="#A74A45"/>
</svg>
