<svg width="230" height="165" viewBox="0 0 230 165" fill="none" xmlns="http://www.w3.org/2000/svg">
<path d="M29.323 26.1448C36.5427 26.1448 42.3954 20.2921 42.3954 13.0724C42.3954 5.8527 36.5427 0 29.323 0C22.1033 0 16.2506 5.8527 16.2506 13.0724C16.2506 20.2921 22.1033 26.1448 29.323 26.1448Z" fill="#FF6584"/>
<path d="M182.865 133.779C178.308 133.778 173.899 132.162 170.421 129.217C166.944 126.271 164.623 122.188 163.873 117.693L163.857 117.598L163.918 117.525C164.94 116.299 165.799 114.947 166.473 113.5C165.728 114.313 164.884 115.029 163.961 115.632L163.653 115.837L163.635 115.467C163.62 115.148 163.612 114.831 163.612 114.526C163.61 112.728 163.858 110.938 164.349 109.209C166.584 101.352 166.967 92.9154 165.485 84.1329C165.232 82.627 165.105 81.1026 165.105 79.5756C165.107 73.1223 167.407 66.8806 171.591 61.9681C175.776 57.0556 181.573 53.7931 187.943 52.7648C194.314 51.7365 200.843 53.0095 206.361 56.356C211.878 59.7025 216.025 64.9038 218.057 71.0286L218.119 71.2153L217.937 71.2891C216.568 71.8685 215.116 72.2287 213.636 72.3563C215.201 72.7163 216.806 72.8705 218.411 72.815L218.58 72.8091L218.622 72.9738C219.16 75.1331 219.432 77.3502 219.432 79.5756L219.431 79.8165C219.425 81.5207 219.78 83.2069 220.47 84.765C221.16 86.3232 222.171 87.7183 223.437 88.8596C225.494 90.7309 227.121 93.0257 228.206 95.5858C229.291 98.146 229.809 100.911 229.723 103.69C229.638 106.47 228.952 109.198 227.711 111.686C226.471 114.175 224.706 116.366 222.538 118.107L222.438 118.188L222.32 118.135C219.841 117.01 218.035 115.784 216.714 114.321C217.594 116.199 218.78 117.917 220.223 119.407L220.409 119.599L220.177 119.734C217.234 121.45 213.887 122.354 210.479 122.353L210.382 122.353C210.348 122.352 210.313 122.352 210.279 122.352C205.066 122.352 200.125 124.368 196.708 127.892C194.909 129.745 192.758 131.221 190.381 132.232C188.004 133.243 185.449 133.769 182.865 133.779Z" fill="#F2F2F2"/>
<path d="M176.052 164.115C175.968 164.115 175.887 164.085 175.824 164.03C175.761 163.975 175.72 163.899 175.708 163.817C175.693 163.713 174.247 153.284 175.546 139.423C176.745 126.623 180.597 108.185 192.135 93.0426C192.163 93.0064 192.197 92.9759 192.237 92.9529C192.276 92.93 192.32 92.915 192.365 92.9089C192.41 92.9028 192.456 92.9056 192.5 92.9173C192.544 92.929 192.586 92.9492 192.622 92.9769C192.658 93.0045 192.689 93.0391 192.712 93.0785C192.735 93.118 192.75 93.1615 192.756 93.2068C192.762 93.252 192.759 93.298 192.748 93.3421C192.736 93.3862 192.716 93.4276 192.688 93.4639C181.25 108.476 177.429 126.778 176.238 139.488C174.947 153.268 176.382 163.616 176.396 163.719C176.403 163.768 176.399 163.818 176.385 163.866C176.371 163.914 176.347 163.958 176.314 163.996C176.282 164.033 176.241 164.063 176.196 164.084C176.151 164.105 176.102 164.115 176.052 164.115Z" fill="#3F3D56"/>
<path d="M181.82 113.065C181.746 113.065 181.675 113.042 181.615 112.999C181.556 112.956 181.512 112.895 181.489 112.825C181.466 112.755 181.466 112.68 181.489 112.61C181.511 112.541 181.556 112.48 181.615 112.437C184.903 110.211 188.454 108.403 192.188 107.054C198.021 104.919 206.892 102.982 216.024 105.889C216.068 105.903 216.108 105.925 216.143 105.954C216.178 105.984 216.206 106.02 216.227 106.06C216.248 106.101 216.261 106.145 216.265 106.191C216.269 106.236 216.264 106.282 216.25 106.325C216.236 106.369 216.214 106.409 216.184 106.444C216.155 106.479 216.119 106.508 216.078 106.529C216.038 106.55 215.994 106.562 215.948 106.566C215.903 106.57 215.857 106.565 215.813 106.551C206.868 103.704 198.159 105.608 192.427 107.707C188.753 109.033 185.259 110.81 182.024 112.999C181.964 113.042 181.893 113.065 181.82 113.065Z" fill="#3F3D56"/>
<path d="M40.6419 138.309C37.4002 138.303 32.2966 138.564 29.5166 140.032C27.3803 141.16 25.4348 142.618 23.7514 144.351C23.1026 145.021 22.488 145.724 21.9101 146.457C20.3114 140.987 20.1253 135.202 21.3693 129.641C21.4567 129.267 21.428 128.875 21.2869 128.517C21.1458 128.16 20.899 127.854 20.5794 127.64C20.2599 127.426 19.8828 127.315 19.4984 127.321C19.114 127.327 18.7407 127.45 18.4281 127.674C13.9119 130.968 11.0246 136.549 10.3224 142.195C9.42772 149.39 11.5344 156.639 14.4624 163.274L14.4615 163.277C14.4561 163.307 14.4479 163.34 14.4398 163.372C14.429 163.421 14.4155 163.47 14.4046 163.518C14.3856 163.602 14.364 163.689 14.345 163.773L14.8191 163.751C14.8462 163.765 14.8733 163.776 14.9003 163.789H26.7748C26.9322 163.618 27.0788 163.437 27.2137 163.247C28.5277 161.446 29.0722 159.005 29.736 156.802C30.2168 155.207 30.8182 153.651 31.535 152.148C33.3399 148.371 35.8303 144.962 38.8796 142.094C38.9771 142.002 39.0774 141.91 39.1777 141.82C39.6884 141.351 40.4801 140.722 41.2537 140.133C41.4228 140.004 41.5473 139.826 41.6097 139.623C41.6722 139.42 41.6695 139.203 41.602 139.001C41.5344 138.8 41.4055 138.625 41.2333 138.501C41.0611 138.376 40.8542 138.309 40.6419 138.309Z" fill="#F2F2F2"/>
<path d="M120.816 26.3458C121.096 27.1269 121.057 27.9864 120.708 28.739C120.36 29.4917 119.729 30.0773 118.953 30.3694C118.781 30.4335 118.604 30.4824 118.424 30.5153L116.629 41.5033L112.42 37.6164L114.769 27.7779C114.682 26.9489 114.925 26.1189 115.445 25.4675C115.965 24.816 116.721 24.3954 117.549 24.2966C118.245 24.2168 118.948 24.3761 119.542 24.7485C120.136 25.1209 120.585 25.6842 120.816 26.3458L120.816 26.3458Z" fill="#9E616A"/>
<path d="M89.7498 51.2434C89.7498 51.2434 93.0169 46.9266 104.873 47.0448L111.602 44.5999L113.14 30.5022L118.523 31.7838L117.754 49.2137L106.219 55.878L91.0964 58.9539L89.7498 51.2434Z" fill="#A74A45"/>
<path d="M71.5321 157.521L74.638 158.844L81.2211 147.495L76.6373 145.542L71.5321 157.521Z" fill="#9E616A"/>
<path d="M97.197 160.46L100.573 160.46L102.179 147.438L97.1962 147.438L97.197 160.46Z" fill="#9E616A"/>
<path d="M97.0781 163.981L107.459 163.981V163.85C107.459 162.778 107.034 161.75 106.276 160.993C105.518 160.235 104.49 159.809 103.419 159.809H103.418L101.522 158.37L97.9841 159.809L97.0779 159.809L97.0781 163.981Z" fill="#2F2E41"/>
<path d="M69.6437 159.775L79.1941 163.845L79.2456 163.724C79.6657 162.739 79.677 161.626 79.277 160.632C78.877 159.638 78.0984 158.843 77.1126 158.423L77.1124 158.423L75.932 156.356L72.113 156.292L71.2793 155.937L69.6437 159.775Z" fill="#2F2E41"/>
<path d="M100.509 83.3934L105.639 114.635L104.243 119.29L106.075 122.588L103.384 151.544L104.477 153.949L101.425 155.831H95.2154L94.8859 129.616L93.352 125.767V123.646L90.2294 107.661L89.6545 125.946L88.7462 129.801L89.5092 132.546L88.5123 134.469L79.9688 152.814H73.0057L73.5443 148.665C72.2967 148.033 75.4173 146.187 75.7172 144.822L74.6919 142.515L75.7172 138.157L76.6572 129.643L75.6658 111.67L76.1323 87.467L84.2778 81.2383L100.509 83.3934Z" fill="#2F2E41"/>
<path d="M88.0139 42.2504C91.9001 42.2504 95.0505 39.0999 95.0505 35.2137C95.0505 31.3274 91.9001 28.177 88.0139 28.177C84.1276 28.177 80.9772 31.3274 80.9772 35.2137C80.9772 39.0999 84.1276 42.2504 88.0139 42.2504Z" fill="#9E616A"/>
<path d="M75.7869 96.3525C75.9842 95.999 76.1015 95.6065 76.1306 95.2027C76.1597 94.799 76.1 94.3937 75.9555 94.0156C75.8111 93.6374 75.5855 93.2955 75.2946 93.0139C75.0038 92.7324 74.6547 92.518 74.272 92.3859L74.2554 82.5457L69.9913 85.368L70.6608 94.2798C70.4816 94.9373 70.5498 95.6378 70.8525 96.2485C71.1552 96.8591 71.6714 97.3375 72.3032 97.593C72.9351 97.8485 73.6387 97.8633 74.2808 97.6347C74.9229 97.4061 75.4588 96.9499 75.7869 96.3525Z" fill="#9E616A"/>
<path d="M75.3928 52.8124L73.4878 50.9762L72.0884 51.9863C72.0884 51.9863 70.7115 53.6385 69.61 58.5951C68.5086 63.5518 69.61 90.8134 69.61 90.8134L75.6682 89.9873L74.8421 75.668L77.3204 63.5518L75.3928 52.8124Z" fill="#A74A45"/>
<path d="M72.5798 51.4241L78.9979 48.3583L83.3554 44.3167L91.3014 44.2572L93.8646 47.5894L100.631 49.888L99.5036 73.2215L100.273 75.0158C100.273 75.0158 99.7369 75.4997 99.4921 75.7704C99.2473 76.041 99.8303 78.3071 99.8303 78.3071L100.159 80.7724L99.2473 81.4238L100.433 82.8238L100.727 85.0307C100.727 85.0307 80.0378 79.8884 76.1286 88.407C75.9221 88.8571 76.4307 84.4584 76.4307 84.4584L76.9393 81.2383L76.4348 78.3479L75.6658 77.579L76.9555 76.2893L76.1286 70.1699L72.5798 51.4241Z" fill="#A74A45"/>
<path d="M139.571 157.383H135.762L133.95 142.692H139.571V157.383Z" fill="#FFB6B6"/>
<path d="M141.581 163.982H138.85L138.362 161.403L137.114 163.982H129.87C129.522 163.982 129.184 163.871 128.905 163.665C128.625 163.459 128.418 163.169 128.315 162.838C128.212 162.506 128.217 162.15 128.33 161.822C128.443 161.494 128.659 161.21 128.944 161.013L134.729 157.018V154.411L140.814 154.774L141.581 163.982Z" fill="#2F2E41"/>
<path d="M176.612 149.826L173.336 151.769L164.283 140.058L169.118 137.19L176.612 149.826Z" fill="#FFB6B6"/>
<path d="M181.707 154.476L179.358 155.87L177.623 153.9L177.864 156.755L171.633 160.45C171.335 160.628 170.987 160.705 170.642 160.67C170.296 160.636 169.971 160.492 169.713 160.26C169.455 160.027 169.278 159.718 169.208 159.378C169.138 159.038 169.178 158.685 169.323 158.369L172.261 151.982L170.931 149.74L176.35 146.948L181.707 154.476Z" fill="#2F2E41"/>
<path d="M137.871 63.4523L136.021 75.2512L153.603 75.4825L151.29 64.1464L137.871 63.4523Z" fill="#FFB6B6"/>
<path d="M135.953 75.1021L130.931 87.2816L130.565 119.853L134.85 150.951H139.593L141.536 120.36L146.316 99.4277L151.029 121.32L165.686 142.749H172.888L159.647 119.135L158.115 93.4125C158.115 93.4125 159.07 82.5002 154.182 76.061L152.992 72.6235L135.953 75.1021Z" fill="#2F2E41"/>
<path d="M160.552 83.9944C160.062 83.861 159.608 83.6219 159.221 83.2939C158.834 82.9659 158.523 82.5569 158.311 82.0959C158.099 81.635 157.991 81.1331 157.994 80.6257C157.996 80.1183 158.111 79.6177 158.328 79.1591L150.848 54.7725L156.35 53.6819L163.191 77.5859C163.937 78.002 164.505 78.6774 164.786 79.484C165.067 80.2907 165.043 81.1725 164.718 81.9624C164.392 82.7523 163.789 83.3955 163.021 83.77C162.253 84.1445 161.375 84.2244 160.552 83.9944V83.9944Z" fill="#FFB6B6"/>
<path d="M151.678 72.0189L138.533 65.8896C138.186 65.8822 137.852 65.7615 137.58 65.5459C137.309 65.3303 137.116 65.0317 137.031 64.6959C136.381 62.1234 134.951 59.2638 135.71 52.5862C135.859 51.2927 136.267 50.0422 136.908 48.9089C137.55 47.7756 138.412 46.7825 139.444 45.9882C140.476 45.194 141.656 44.6148 142.916 44.2849C144.176 43.955 145.489 43.8812 146.778 44.0677C148.137 44.2623 149.44 44.7422 150.601 45.4759C151.762 46.2095 152.755 47.1804 153.515 48.3247C154.274 49.469 154.783 50.761 155.008 52.1158C155.233 53.4707 155.169 54.8578 154.82 56.1861C153.294 61.9799 153.458 68.1754 153.284 70.5567C153.258 70.901 153.121 71.2274 152.892 71.486C152.663 71.7447 152.356 71.9214 152.018 71.9891C151.917 72.0091 151.814 72.0192 151.712 72.0193C151.701 72.0193 151.689 72.0192 151.678 72.0189Z" fill="#A74A45"/>
<path d="M123.374 31.062C123.301 31.2252 123.216 31.3823 123.118 31.532L129.404 46.2708L133.267 46.7448L133.314 52.6692L126.393 52.4948C125.834 52.4807 125.294 52.2856 124.855 51.9388C124.416 51.592 124.102 51.1122 123.959 50.5715L119.3 32.9476C118.64 32.7507 118.056 32.3576 117.624 31.8205C117.193 31.2834 116.936 30.6277 116.887 29.9408C116.837 29.2538 116.998 28.5681 117.348 27.9749C117.698 27.3816 118.22 26.9089 118.845 26.6197C119.47 26.3304 120.168 26.2383 120.847 26.3556C121.526 26.4729 122.152 26.794 122.644 27.2762C123.136 27.7585 123.469 28.379 123.6 29.0552C123.73 29.7315 123.651 30.4314 123.374 31.062V31.062Z" fill="#FFB6B6"/>
<path d="M130.037 45.7455C130.193 45.6069 130.378 45.5037 130.578 45.4429C130.777 45.3822 130.988 45.3652 131.195 45.3933L138.426 46.3722C139.495 46.3583 140.526 46.7689 141.293 47.5139C142.059 48.2589 142.499 49.2775 142.516 50.3464C142.533 51.4152 142.125 52.4472 141.382 53.2158C140.639 53.9845 139.622 54.4272 138.553 54.4468L131.326 55.612C131.119 55.6452 130.908 55.6336 130.707 55.5779C130.505 55.5223 130.318 55.4238 130.159 55.2894C129.999 55.1549 129.87 54.9876 129.78 54.7988C129.691 54.6099 129.643 54.404 129.64 54.1951L129.547 46.8527C129.544 46.6437 129.586 46.4366 129.671 46.2455C129.756 46.0545 129.88 45.8839 130.037 45.7455Z" fill="#A74A45"/>
<path d="M150.513 60.9498C150.328 60.8526 150.166 60.7166 150.038 60.5511C149.911 60.3856 149.821 60.1946 149.774 59.991L148.131 52.881C147.74 51.8862 147.76 50.7769 148.185 49.7965C148.611 48.816 149.408 48.0443 150.402 47.6505C151.396 47.2568 152.505 47.2731 153.487 47.6959C154.468 48.1188 155.242 48.9136 155.639 49.9062L159.285 56.2542C159.389 56.4354 159.453 56.6368 159.472 56.8449C159.492 57.0529 159.466 57.2627 159.396 57.4598C159.327 57.657 159.216 57.8369 159.071 57.9873C158.926 58.1377 158.751 58.2551 158.556 58.3315L151.722 61.0166C151.527 61.0931 151.319 61.1267 151.11 61.1152C150.901 61.1037 150.698 61.0472 150.513 60.9498Z" fill="#A74A45"/>
<path d="M150.221 41.5604C153.824 39.591 155.148 35.0739 153.179 31.4712C151.209 27.8685 146.692 26.5445 143.089 28.5139C139.487 30.4833 138.163 35.0004 140.132 38.6031C142.102 42.2058 146.619 43.5299 150.221 41.5604Z" fill="#FFB6B6"/>
<path d="M141.541 32.0486C139.946 32.0396 138.351 32.0306 136.756 32.0216C136.643 30.9345 137.126 29.853 137.831 29.0178C138.536 28.1825 139.449 27.5536 140.35 26.9352C141.265 26.3073 142.213 25.6652 143.301 25.4458C144.212 25.2619 145.155 25.3895 146.076 25.5175C147.297 25.6874 148.519 25.8572 149.74 26.0271C151.081 26.2135 152.484 26.4244 153.573 27.2285C155.045 28.3159 154.669 30.8258 156.082 31.9895C160.349 35.5043 158.622 38.5737 158.701 41.7775C153.544 42.3184 148.387 42.8593 143.23 43.4003C142.67 43.4967 142.097 43.48 141.544 43.3513C141.002 43.1857 140.505 42.7374 140.465 42.1724C140.421 41.5415 140.921 41.025 141.328 40.5404C142.298 39.3389 142.88 37.8713 142.997 36.3318C143.115 34.7923 142.762 33.2534 141.986 31.9187L141.541 32.0486Z" fill="#2F2E41"/>
<path d="M86.2137 41.9058C86.1837 41.8396 86.1537 41.7732 86.1238 41.7065C86.1353 41.7069 86.1467 41.7086 86.1582 41.7089L86.2137 41.9058Z" fill="#2F2E41"/>
<path d="M80.7815 28.4969C81.1156 28.1817 81.5498 27.994 82.0084 27.9665C82.4634 27.9812 82.9248 28.3921 82.8305 28.8375C83.6663 27.3577 84.9966 26.2195 86.588 25.6228C88.1793 25.0261 89.93 25.009 91.5327 25.5744C92.6636 25.9734 93.7726 26.7717 94.0324 27.9424C94.0577 28.2498 94.1494 28.548 94.3011 28.8166C94.4326 28.9601 94.6032 29.0621 94.7919 29.1099C94.9806 29.1577 95.1791 29.1492 95.3631 29.0856L95.3743 29.0823C95.4372 29.0608 95.5052 29.0587 95.5694 29.0763C95.6336 29.0938 95.691 29.1302 95.7343 29.1808C95.7775 29.2313 95.8046 29.2937 95.8121 29.3598C95.8195 29.4259 95.8069 29.4927 95.776 29.5516L95.456 30.1484C95.8594 30.2383 96.2785 30.2294 96.6777 30.1224C96.744 30.1051 96.8141 30.1086 96.8783 30.1326C96.9425 30.1566 96.9977 30.1999 97.0363 30.2565C97.075 30.3132 97.0952 30.3803 97.0941 30.4489C97.093 30.5174 97.0708 30.584 97.0304 30.6394C96.4987 31.3669 95.8044 31.9603 95.0029 32.3723C94.2014 32.7843 93.3148 33.0035 92.4136 33.0125C91.1351 33.0047 89.8434 32.564 88.5991 32.8581C88.1178 32.9718 87.6679 33.1919 87.2827 33.5021C86.8975 33.8124 86.5866 34.2049 86.3729 34.651C86.1592 35.0971 86.048 35.5853 86.0476 36.08C86.0472 36.5746 86.1575 37.063 86.3705 37.5095C85.9883 37.0914 85.2493 37.1903 84.8583 37.6003C84.6783 37.8197 84.5452 38.0738 84.4673 38.3468C84.3894 38.6198 84.3683 38.9058 84.4055 39.1872C84.5098 40.0492 84.7657 40.886 85.1614 41.6588C83.6495 41.6123 82.1883 41.1029 80.9752 40.1994C79.762 39.2958 78.8554 38.0418 78.3778 36.6065C77.9002 35.1713 77.8746 33.624 78.3044 32.1738C78.7343 30.7235 79.5989 29.4401 80.7815 28.4969V28.4969Z" fill="#2F2E41"/>
<path d="M220.589 164.232H0.334161C0.253371 164.231 0.175971 164.199 0.118927 164.142C0.0618818 164.085 0.0298462 164.007 0.0298462 163.927C0.0298462 163.846 0.0618818 163.768 0.118927 163.711C0.175971 163.654 0.253371 163.622 0.334161 163.621H220.589C220.63 163.621 220.669 163.629 220.707 163.644C220.744 163.66 220.777 163.682 220.806 163.71C220.834 163.739 220.857 163.772 220.872 163.81C220.888 163.847 220.896 163.886 220.896 163.927C220.896 163.967 220.888 164.006 220.872 164.044C220.857 164.081 220.834 164.114 220.806 164.143C220.777 164.171 220.744 164.193 220.707 164.209C220.669 164.224 220.63 164.232 220.589 164.232Z" fill="#CCCCCC"/>
<path d="M52.9136 3.04265C46.5782 2.1863 39.3452 5.61065 37.7032 11.7892C37.2894 10.6907 36.537 9.75212 35.5549 9.10915C34.5727 8.46618 33.4116 8.15208 32.2392 8.21224C31.0668 8.2724 29.9439 8.7037 29.0327 9.44383C28.1216 10.184 27.4692 11.1946 27.17 12.3297L27.8954 12.8492C41.472 15.7852 55.526 15.7217 69.0756 12.663C64.6687 8.03158 59.2491 3.89899 52.9136 3.04265Z" fill="#F0F0F0"/>
<path d="M25.7436 20.4725C19.4081 19.6161 12.1752 23.0405 10.5331 29.219C10.1193 28.1205 9.36699 27.1819 8.38482 26.539C7.40266 25.896 6.24152 25.5819 5.06915 25.6421C3.89678 25.7022 2.77389 26.1335 1.8627 26.8736C0.951506 27.6138 0.299195 28.6244 0 29.7596L0.725315 30.279C14.302 33.215 28.356 33.1515 41.9056 30.0928C37.4987 25.4614 32.079 21.3288 25.7436 20.4725Z" fill="#F0F0F0"/>
</svg>
