<svg width="219" height="168" viewBox="0 0 219 168" fill="none" xmlns="http://www.w3.org/2000/svg">
<path d="M87.3985 35.296L86.6024 35.2978L86.5518 13.49C86.548 11.8325 86.2177 10.192 85.5798 8.66212C84.942 7.13225 84.0091 5.74299 82.8343 4.57367C81.6595 3.40435 80.266 2.47787 78.7332 1.84711C77.2004 1.21636 75.5583 0.893693 73.9008 0.897536L27.698 1.00469C24.3505 1.01245 21.1432 2.34968 18.7817 4.7222C16.4201 7.09472 15.0977 10.3082 15.1055 13.6557L15.383 133.295C15.3868 134.953 15.7171 136.593 16.355 138.123C16.9928 139.653 17.9257 141.042 19.1005 142.211C20.2753 143.381 21.6688 144.307 23.2016 144.938C24.7345 145.569 26.3765 145.891 28.034 145.887L74.2368 145.78C77.5843 145.773 80.7916 144.435 83.1531 142.063C85.5147 139.69 86.837 136.477 86.8293 133.129L86.6384 50.821L87.4345 50.8191L87.3985 35.296Z" fill="#3F3D56"/>
<path d="M74.4177 4.18004L68.3867 4.19402C68.6656 4.87335 68.7732 5.61085 68.6999 6.34155C68.6267 7.07225 68.3749 7.77373 67.9667 8.38419C67.5585 8.99464 67.0064 9.49534 66.3591 9.84218C65.7118 10.189 64.9892 10.3713 64.2548 10.3731L37.7858 10.4345C37.0515 10.4361 36.328 10.2572 35.6791 9.91334C35.0302 9.56951 34.4758 9.07137 34.0648 8.46282C33.6537 7.85426 33.3987 7.15396 33.322 6.42361C33.2454 5.69325 33.3496 4.95526 33.6253 4.27464L27.9924 4.28771C26.7546 4.29058 25.5294 4.53723 24.387 5.01357C23.2445 5.48991 22.207 6.18662 21.3337 7.06391C20.4605 7.94121 19.7686 8.98191 19.2976 10.1266C18.8265 11.2713 18.5856 12.4975 18.5885 13.7354L18.8655 133.199C18.8684 134.437 19.115 135.662 19.5914 136.805C20.0677 137.947 20.7644 138.984 21.6417 139.858C22.519 140.731 23.5597 141.423 24.7044 141.894C25.8491 142.365 27.0754 142.606 28.3132 142.603L74.7385 142.495C75.9763 142.492 77.2014 142.246 78.3439 141.769C79.4864 141.293 80.5239 140.596 81.3971 139.719C82.2703 138.842 82.9622 137.801 83.4333 136.656C83.9043 135.512 84.1453 134.286 84.1424 133.048L83.8653 13.584C83.8625 12.3461 83.6158 11.121 83.1395 9.97853C82.6631 8.83604 81.9664 7.79856 81.0891 6.92532C80.2118 6.05209 79.1711 5.3602 78.0264 4.88916C76.8817 4.41813 75.6555 4.17716 74.4177 4.18004Z" fill="white"/>
<path d="M102.464 145.735L0.603428 145.972C0.532523 145.972 0.464456 145.944 0.414202 145.894C0.363948 145.844 0.335623 145.776 0.335459 145.705C0.335294 145.634 0.363304 145.566 0.413325 145.516C0.463347 145.465 0.531283 145.437 0.602188 145.437L102.462 145.201C102.533 145.201 102.601 145.229 102.652 145.279C102.702 145.329 102.73 145.397 102.73 145.467C102.73 145.538 102.702 145.606 102.652 145.657C102.602 145.707 102.534 145.735 102.464 145.735Z" fill="#CBCBCB"/>
<path d="M51.4118 93.3675C63.8805 93.3386 73.965 83.2073 73.9361 70.7385C73.9071 58.2698 63.7758 48.1853 51.3071 48.2142C38.8383 48.2432 28.7539 58.3745 28.7828 70.8433C28.8117 83.312 38.943 93.3965 51.4118 93.3675Z" fill="#A74A45"/>
<path d="M49.1421 79.4083C48.6342 79.4103 48.1394 79.2471 47.7324 78.9434L47.7071 78.9245L42.3919 74.878C42.1457 74.6902 41.939 74.4558 41.7834 74.188C41.6278 73.9203 41.5266 73.6245 41.4853 73.3177C41.444 73.0108 41.4636 72.6988 41.5429 72.3995C41.6223 72.1002 41.7597 71.8194 41.9476 71.5732C42.1354 71.3271 42.3699 71.1203 42.6376 70.9648C42.9053 70.8092 43.2011 70.7079 43.5079 70.6666C43.8148 70.6254 44.1268 70.645 44.4261 70.7243C44.7254 70.8036 45.0062 70.9411 45.2524 71.1289L48.6952 73.7564L56.7916 63.1427C56.9794 62.8966 57.2138 62.69 57.4814 62.5345C57.749 62.379 58.0446 62.2777 58.3514 62.2365C58.6581 62.1952 58.97 62.2148 59.2692 62.2941C59.5684 62.3734 59.849 62.5108 60.0951 62.6986L60.0958 62.6991L60.0455 62.7692L60.0971 62.6991C60.5936 63.0788 60.9191 63.6399 61.0023 64.2594C61.0854 64.8788 60.9194 65.506 60.5408 66.0032L51.0175 78.4816C50.7972 78.7691 50.5136 79.002 50.1887 79.1622C49.8638 79.3225 49.5064 79.4057 49.1442 79.4055L49.1421 79.4083Z" fill="white"/>
<path d="M185.947 147.761C186.221 147.316 186.543 146.903 186.908 146.53C187.059 146.373 187.218 146.226 187.382 146.082C188.378 145.191 189.593 144.581 190.903 144.316C192.213 144.051 193.57 144.139 194.834 144.572C196.098 145.005 197.225 145.767 198.097 146.779C198.969 147.791 199.556 149.018 199.797 150.332C200.89 146.252 198.011 142.242 195.118 139.164C192.223 136.086 188.915 132.711 188.922 128.485C188.925 126.133 190.07 124.032 191.804 122.473C191.857 122.426 191.91 122.379 191.965 122.333C194.06 120.529 196.759 119.581 199.522 119.68C204.655 119.943 209.145 123.382 212.267 127.467C217.292 134.04 219.509 143.277 216.019 150.78C212.949 157.379 206.379 161.308 199.671 164.471C198.735 164.913 197.8 165.341 196.867 165.756C196.861 165.758 196.854 165.762 196.848 165.764C196.803 165.784 196.758 165.804 196.716 165.824C196.523 165.91 196.331 165.995 196.14 166.08L196.229 166.137L196.505 166.315C196.409 166.258 196.314 166.202 196.219 166.144C196.19 166.126 196.16 166.11 196.131 166.092C192.829 164.121 189.48 162.035 187.195 158.951C184.824 155.749 183.863 151.157 185.947 147.761Z" fill="#F1F1F1"/>
<path d="M207.934 140.261C208.668 141.92 209.156 143.678 209.383 145.479C209.562 147.084 209.5 148.707 209.199 150.295C208.551 153.556 207.13 156.615 205.055 159.213C203.489 161.185 201.68 162.952 199.671 164.471C198.735 164.913 197.8 165.341 196.867 165.756C196.861 165.758 196.854 165.762 196.848 165.764C196.803 165.784 196.758 165.804 196.716 165.824C196.523 165.91 196.331 165.995 196.14 166.08L196.228 166.137L196.505 166.315C196.409 166.258 196.314 166.202 196.218 166.144C196.19 166.126 196.16 166.11 196.131 166.092C196.851 163.552 196.952 160.876 196.424 158.289C195.897 155.701 194.757 153.278 193.101 151.222C191.435 149.192 189.313 147.584 186.908 146.53C187.059 146.373 187.218 146.225 187.382 146.082C188.308 146.504 189.195 147.008 190.033 147.587C193.029 149.648 195.281 152.618 196.458 156.058C197.508 159.179 197.646 162.535 196.856 165.732C197.021 165.624 197.187 165.512 197.348 165.401C200.416 163.322 203.242 160.827 205.367 157.771C207.201 155.188 208.371 152.193 208.775 149.051C209.176 145.619 208.31 142.247 206.771 139.189C205.071 135.918 202.933 132.894 200.415 130.202C197.885 127.436 195.026 124.99 191.902 122.918C191.832 122.87 191.782 122.798 191.764 122.715C191.746 122.632 191.76 122.546 191.803 122.473C191.837 122.407 191.895 122.357 191.965 122.333C192.001 122.324 192.038 122.323 192.074 122.33C192.11 122.337 192.144 122.353 192.173 122.375C192.559 122.631 192.941 122.889 193.319 123.155C196.465 125.372 199.324 127.971 201.83 130.893C204.251 133.709 206.455 136.839 207.934 140.261Z" fill="white"/>
<path d="M140.394 11.2262C143.042 11.2201 145.184 9.06848 145.177 6.42046C145.171 3.77244 143.02 1.63078 140.372 1.63692C137.724 1.64306 135.582 3.79468 135.588 6.4427C135.594 9.09072 137.746 11.2324 140.394 11.2262Z" fill="#F1F1F1"/>
<path d="M200.162 75.2519C201.776 75.2482 203.082 73.9364 203.078 72.3219C203.074 70.7075 201.763 69.4018 200.148 69.4055C198.534 69.4093 197.228 70.7211 197.232 72.3355C197.235 73.95 198.547 75.2557 200.162 75.2519Z" fill="#F1F1F1"/>
<path d="M114.628 83.4707C116.243 83.4669 117.549 82.1551 117.545 80.5407C117.541 78.9262 116.229 77.6205 114.615 77.6242C113 77.628 111.695 78.9398 111.698 80.5542C111.702 82.1687 113.014 83.4744 114.628 83.4707Z" fill="#F1F1F1"/>
<path d="M116.472 166.824L218.332 166.587C218.403 166.587 218.471 166.559 218.521 166.509C218.571 166.458 218.599 166.39 218.599 166.319C218.599 166.249 218.571 166.181 218.52 166.131C218.47 166.081 218.402 166.053 218.331 166.053L116.471 166.289C116.4 166.289 116.332 166.318 116.282 166.368C116.232 166.418 116.204 166.486 116.204 166.557C116.204 166.628 116.233 166.696 116.283 166.746C116.333 166.796 116.401 166.824 116.472 166.824Z" fill="#CBCBCB"/>
<path d="M206.766 26.4248C206.898 25.4749 206.677 24.5098 206.144 23.7123C205.612 22.9147 204.805 22.3402 203.877 22.0977C202.949 21.8551 201.965 21.9613 201.11 22.3961C200.255 22.8309 199.59 23.5642 199.24 24.4569L190.996 33.9521L193.437 40.7202L201.724 29.6286C202.267 29.8011 202.841 29.8525 203.406 29.7791C203.97 29.7058 204.512 29.5094 204.993 29.204C205.474 28.8985 205.882 28.4914 206.188 28.0112C206.495 27.5311 206.692 26.9896 206.766 26.4248Z" fill="#FFB7B7"/>
<path d="M172.589 63.3756L199.959 34.0295L196.245 28.1542L161.898 57.3388L172.589 63.3756Z" fill="#3F3D56"/>
<path d="M166.424 45.5979C171.74 45.5856 176.039 41.2665 176.027 35.951C176.014 30.6355 171.695 26.3364 166.38 26.3488C161.064 26.3611 156.765 30.6802 156.777 35.9957C156.79 41.3112 161.109 45.6103 166.424 45.5979Z" fill="#2F2E41"/>
<path d="M167.163 30.5345C169.229 28.4295 171.732 26.803 174.494 25.7696C176.268 25.1079 178.199 24.6972 180.055 25.0663C181.911 25.4354 183.669 26.715 184.191 28.5344C184.618 30.0221 184.184 31.626 183.531 33.0289C182.877 34.4318 182.003 35.7333 181.475 37.1882C180.937 38.6727 180.777 40.2683 181.012 41.83C181.246 43.3917 181.867 44.8701 182.818 46.1311C183.768 47.392 185.019 48.3955 186.456 49.0505C187.893 49.7055 189.471 49.9913 191.046 49.8819C189.224 50.1305 187.545 50.9912 185.764 51.4514C183.983 51.9115 181.88 51.8855 180.552 50.6119C179.148 49.2644 179.115 47.0682 179.178 45.123C179.272 42.2314 179.366 39.3398 179.46 36.4482C179.508 34.9735 179.549 33.4516 179.014 32.0766C178.479 30.7015 177.212 29.4993 175.737 29.5152C174.618 29.5273 173.63 30.207 172.735 30.8771C171.84 31.5473 170.892 32.2622 169.779 32.3641C168.665 32.4661 167.392 31.6448 167.472 30.5295L167.163 30.5345Z" fill="#2F2E41"/>
<path d="M129.997 100.683C129.074 100.941 128.087 100.853 127.225 100.433C126.363 100.013 125.685 99.2916 125.319 98.4051C124.953 97.5187 124.925 96.5288 125.24 95.6231C125.555 94.7175 126.192 93.9588 127.029 93.4911L135.322 84.0388L142.358 85.5418L132.489 95.253C132.734 95.7675 132.862 96.3293 132.866 96.8989C132.87 97.4685 132.748 98.032 132.511 98.5496C132.273 99.0673 131.925 99.5266 131.491 99.8951C131.056 100.264 130.546 100.532 129.997 100.683L129.997 100.683Z" fill="#FFB7B7"/>
<path d="M157.274 66.8482L136.611 92.9094L130.287 90.0238L154.557 52.0451L157.274 66.8482Z" fill="#3F3D56"/>
<path d="M140.921 145.435L135.982 145.369L136.615 162.202L140.959 162.192L140.921 145.435Z" fill="#FFB7B7"/>
<path d="M142.064 160.771L133.508 160.79L133.508 160.79C132.062 160.794 130.676 161.371 129.656 162.396C128.636 163.421 128.065 164.809 128.068 166.255L128.069 166.432L142.076 166.4L142.064 160.771Z" fill="#2F2E41"/>
<path d="M173.612 140.895L168.225 144.371L179.047 157.33L182.697 154.974L173.612 140.895Z" fill="#FFB7B7"/>
<path d="M182.859 153.182L175.67 157.82L175.67 157.821C174.455 158.605 173.602 159.839 173.297 161.253C172.992 162.666 173.261 164.143 174.045 165.358L174.141 165.507L185.911 157.912L182.859 153.182Z" fill="#2F2E41"/>
<path d="M175.415 89.4867C175.415 89.4867 163.335 49.6988 159.481 49.1697C155.627 48.6406 149.445 59.4093 149.445 59.4093C141.42 69.6964 133.199 102.977 133.199 102.977C133.199 102.977 147.035 103.811 157.161 109.168C167.286 114.525 179.208 108.844 179.208 108.844L175.415 89.4867Z" fill="#3F3D56"/>
<path opacity="0.1" d="M175.415 89.4867C175.415 89.4867 163.335 49.6989 159.481 49.1698C155.627 48.6407 151.021 59.5148 151.021 59.5148C147.05 76.0998 133.199 102.977 133.199 102.977C133.199 102.977 147.035 103.811 157.161 109.168C167.286 114.525 179.208 108.844 179.208 108.844L175.415 89.4867Z" fill="black"/>
<path d="M165.552 77.5972L165.598 97.6043L168.02 126.581L179.834 148.476L174.229 152.499L158.14 131.683L151.748 110.992L141.89 156.852L134.403 156.334L139.454 92.7705L149.278 74.8593L165.552 77.5972Z" fill="#2F2E41"/>
<path d="M153.42 58.2736C149.686 62.0252 153.171 66.0274 153.171 66.0274L148.916 75.6619L165.769 80.1678L171.594 53.8528L167.574 49.5845C159.553 49.3357 159.548 49.1695 159.548 49.1695C158.146 50.548 153.42 58.2736 153.42 58.2736Z" fill="#A74A45"/>
<path d="M172.266 51.1265C171.5 50.5636 170.63 50.1583 169.706 49.9342C168.782 49.71 167.822 49.6714 166.883 49.8207C165.944 49.9699 165.044 50.3039 164.235 50.8035C163.426 51.303 162.724 51.9581 162.17 52.7308C157.95 58.6362 154.056 68.1653 159.479 80.026C168.185 99.0705 175.745 108.813 178.809 108.804C178.943 108.805 179.076 108.784 179.203 108.742C181.088 108.097 183.807 104.899 184.295 102.085C184.469 101.078 184.424 99.6761 183.218 98.7161C179.753 95.958 173.524 87.3597 171.561 76.0279C170.477 69.7665 172.539 64.0558 174.46 60.3679C175.272 58.8418 175.506 57.0745 175.12 55.3897C174.734 53.7049 173.754 52.2156 172.359 51.1948L172.266 51.1265Z" fill="#3F3D56"/>
<path d="M166.917 44.6513C170.346 42.7665 171.598 38.4589 169.713 35.0299C167.828 31.6009 163.521 30.3491 160.092 32.2339C156.663 34.1187 155.411 38.4263 157.296 41.8553C159.181 45.2843 163.488 46.5361 166.917 44.6513Z" fill="#FFB7B7"/>
<path d="M153.539 37.93L163.77 37.9063L163.871 36.4373L164.399 37.9049L165.974 37.9012L166.176 34.9897L167.222 37.8983L170.27 37.8912L170.27 37.747C170.263 35.7204 169.452 33.7793 168.016 32.3496C166.579 30.9198 164.635 30.1182 162.608 30.1206L161.166 30.124C159.139 30.131 157.198 30.9416 155.768 32.378C154.338 33.8143 153.537 35.7592 153.539 37.7858L153.539 37.93Z" fill="#2F2E41"/>
<path d="M168.737 43.1741L173.099 41.7474L173.074 31.1455L164.828 31.1646L165.033 31.368C167.88 34.1982 171.062 44.2556 168.737 43.1741Z" fill="#2F2E41"/>
</svg>
