<svg width="16" height="23" viewBox="0 0 16 23" fill="none" xmlns="http://www.w3.org/2000/svg">
<path d="M0 0V23H16V0H0ZM5.48705 3.61932C5.57904 3.60605 5.66824 3.65915 5.70744 3.75056C5.74681 3.84197 5.72712 3.95045 5.65883 4.01872L4.11338 5.70111C4.09282 5.82078 3.99038 5.90252 3.87923 5.88792C3.76825 5.90252 3.66581 5.82078 3.64508 5.70111L2.6383 4.61367V4.61348C2.57784 4.55374 2.55433 4.46157 2.5775 4.37641C2.60084 4.29126 2.66704 4.22811 2.74753 4.21407C2.81896 4.1989 2.89265 4.2245 2.94265 4.28215L3.87924 5.31026L5.36216 3.6874C5.39561 3.65004 5.43967 3.62615 5.48705 3.61932ZM7.07135 5.12328H7.07153C7.08442 5.12195 7.09749 5.12195 7.11055 5.12328H13.9008H13.9006C13.9611 5.11513 14.0217 5.13561 14.0672 5.17961C14.1128 5.22342 14.139 5.28638 14.139 5.35276C14.139 5.41895 14.1128 5.48192 14.0672 5.52572C14.0217 5.56972 13.9611 5.5902 13.9006 5.58205H13.1903C13.1698 5.58547 13.1487 5.58547 13.128 5.58205H7.11018C6.99955 5.58357 6.90635 5.49216 6.89624 5.3723C6.88596 5.25225 6.9621 5.14396 7.07116 5.12329L7.07135 5.12328ZM5.48705 9.76217C5.49489 9.76179 5.50273 9.76179 5.51057 9.76217C5.59803 9.76103 5.6773 9.81831 5.71005 9.90669C5.7428 9.99506 5.72242 10.0961 5.65883 10.1616L4.11356 11.8438H4.11338C4.10537 11.9046 4.07523 11.9596 4.02976 11.9962C3.98446 12.033 3.92749 12.0484 3.87157 12.0393C3.76059 12.0486 3.66199 11.9634 3.64509 11.8438L2.6383 10.7563C2.57715 10.6943 2.55503 10.5987 2.58203 10.5126C2.60886 10.4263 2.67994 10.3655 2.76322 10.3569C2.8296 10.3476 2.89615 10.3727 2.94266 10.4248L3.87925 11.4529L5.36217 9.83862C5.3944 9.79822 5.43862 9.77108 5.48705 9.76217ZM7.07153 11.2661C7.08442 11.2648 7.09749 11.2648 7.11055 11.2661H13.9008H13.9006C13.9611 11.258 14.0217 11.2785 14.0672 11.3225C14.1128 11.3663 14.139 11.4292 14.139 11.4954C14.139 11.5616 14.1128 11.6248 14.0672 11.6686C14.0217 11.7124 13.9611 11.7329 13.9006 11.7249H7.11038H7.11055C6.99975 11.7264 6.90672 11.635 6.89644 11.5151C6.88633 11.3951 6.96247 11.2868 7.07153 11.2661ZM5.50235 15.9155L5.50252 15.9153C5.59138 15.9103 5.67378 15.9665 5.70862 16.0556C5.74347 16.1449 5.72343 16.2483 5.65862 16.3147L4.07432 18.0393H4.07415C4.06352 18.0583 4.05028 18.0756 4.03512 18.0904L4.02728 18.0987V18.0989C4.02014 18.108 4.0123 18.1165 4.00394 18.1243C3.98739 18.1385 3.96892 18.1501 3.94923 18.1583C3.87205 18.1856 3.78721 18.1626 3.73077 18.0989L3.71509 18.082C3.70638 18.0716 3.69854 18.0602 3.69174 18.0481L2.63808 16.9096C2.57432 16.8442 2.55394 16.7431 2.58687 16.6547C2.61962 16.5663 2.69889 16.5091 2.78635 16.5102C2.84593 16.5108 2.90255 16.5384 2.94244 16.5866L3.87903 17.6062L5.36196 15.9919C5.38913 15.9592 5.42432 15.9355 5.46352 15.924C5.47624 15.9198 5.4893 15.917 5.50254 15.9154L5.50235 15.9155ZM7.07118 17.4192C7.07901 17.4188 7.08685 17.4188 7.09469 17.4192C7.09992 17.419 7.10515 17.419 7.1102 17.4192H13.9004C14.018 17.4206 14.1128 17.5249 14.1128 17.6529C14.1128 17.7809 14.018 17.8852 13.9004 17.8865H7.1102C6.99226 17.8972 6.88859 17.8023 6.8778 17.6739C6.867 17.5455 6.95341 17.4319 7.07118 17.4192Z" fill="#A74A45"/>
</svg>
