<svg width="355" height="355" viewBox="0 0 355 355" fill="none" xmlns="http://www.w3.org/2000/svg">
<path d="M324.236 119.877C324.236 119.877 278 31.1338 208.399 13.4903C146.97 -2.12967 85.2355 20.3489 68.9552 83.8158C63.1545 106.422 54.7978 131.194 43.0402 151.003C29.8555 173.24 9.9755 190.571 17.537 237.46C25.0985 284.348 76.1333 332.33 117.036 337.435C157.939 342.54 201.072 310.285 237.026 280.528C272.981 250.772 378.018 231.858 324.236 119.877Z" fill="#F7A56D"/>
<path opacity="0.7" d="M324.236 119.877C324.236 119.877 278 31.1338 208.399 13.4903C146.97 -2.12967 85.2355 20.3489 68.9552 83.8158C63.1545 106.422 54.7978 131.194 43.0402 151.003C29.8555 173.24 9.9755 190.571 17.537 237.46C25.0985 284.348 76.1333 332.33 117.036 337.435C157.939 342.54 201.072 310.285 237.026 280.528C272.981 250.772 378.018 231.858 324.236 119.877Z" fill="white"/>
<path d="M84.135 305.641V266.832H86.7478V305.641" fill="white"/>
<path d="M84.135 305.641V266.832H86.7478V305.641" stroke="#263238" stroke-miterlimit="10"/>
<path d="M72.349 105.626C72.349 105.626 71.8733 111.576 70.929 113.244C69.9847 114.913 61.1665 117.291 61.1665 117.291L51.8726 268.017C51.8726 268.017 64.7307 272.547 83.5386 271.567C95.0214 270.984 106.466 269.799 117.825 268.017L112.145 116.34C112.145 116.34 99.9964 115.864 98.8036 113.244C97.6108 110.624 98.0936 105.626 98.0936 105.626H72.349Z" fill="white" stroke="#263238" stroke-miterlimit="10"/>
<path d="M29.6993 254.456V260.271C31.296 261.161 33.0354 261.766 34.8397 262.06C37.671 262.333 40.518 262.407 43.3597 262.28L43.5798 257.36L29.6993 254.456Z" fill="white" stroke="#263238" stroke-miterlimit="10"/>
<path d="M37.2963 121.616C35.4964 129.255 34.375 137.039 33.9451 144.875C33.2351 157.655 29.9194 245.731 29.252 249.309C28.8387 251.821 28.6888 254.37 28.8047 256.913C28.8047 256.913 34.1652 258.93 37.9708 259.377C40.4288 259.632 42.91 259.556 45.3477 259.15C45.3477 259.15 47.57 186.922 48.0315 182.001C48.493 177.081 49.3734 164.329 49.3734 164.329C49.3734 164.329 44.4531 131.236 41.5634 126.316C38.6737 121.396 37.2963 121.616 37.2963 121.616Z" fill="#F7A56D" stroke="#263238" stroke-miterlimit="10"/>
<path d="M72.633 181.106C72.633 182.221 68.6073 267.875 68.6073 267.875C68.6073 267.875 56.6012 268.479 51.8655 267.059C48.748 266.021 45.8566 264.399 43.3455 262.281C43.3455 262.281 50.694 186.154 50.2467 183.698C49.7994 181.241 40.6617 138.84 38.6524 131.683C36.6431 124.526 37.3034 121.622 37.3034 121.622C37.3034 121.622 50.1686 117.845 60.0234 115.09C65.7815 113.479 70.4959 112.25 70.9645 112.286C70.9645 112.286 67.0808 148.006 69.3244 162.32C71.568 176.633 72.633 179.984 72.633 181.106Z" fill="#F7A56D" stroke="#263238" stroke-miterlimit="10"/>
<path d="M72.633 181.106C68.5082 173.696 64.9206 165.998 61.8978 158.074C57.1976 145.549 54.2937 129.219 54.2937 129.219L61.8978 120.699L57.8721 118.236L60.0021 115.062C65.7602 113.45 70.4746 112.222 70.9432 112.258C70.9432 112.258 67.0595 147.978 69.3031 162.291C71.5467 176.605 72.633 179.984 72.633 181.106Z" fill="#F7A56D" stroke="#263238" stroke-miterlimit="10"/>
<path d="M124.79 183.385L130.555 263.615C130.555 263.615 118.925 268.756 109.532 268.976C103.184 269.06 96.8368 268.762 90.525 268.081C90.525 268.081 84.9302 184.457 84.49 182.675C84.0498 180.893 85.6118 177.08 89.4103 166.345C93.2088 155.61 101.04 113.344 101.04 113.344C101.85 113.72 106.01 114.409 111.108 115.183C120.153 116.603 131.982 118.292 132.124 119.159C132.337 120.501 124.79 183.385 124.79 183.385Z" fill="#F7A56D" stroke="#263238" stroke-miterlimit="10"/>
<path d="M113.785 126.088C113.785 126.088 107.295 148.673 98.3492 160.75C93.1636 167.685 88.5297 175.016 84.49 182.675C84.0498 180.879 85.6118 177.08 89.4103 166.345C93.2088 155.61 101.04 113.344 101.04 113.344C101.849 113.72 106.01 114.409 111.108 115.183L112.443 118.264L105.953 121.409L113.785 126.088Z" fill="#F7A56D" stroke="#263238" stroke-miterlimit="10"/>
<path d="M130.328 260.719L130.555 266.981C133.061 267.579 135.6 268.027 138.159 268.323C142.185 268.77 147.772 266.981 147.772 266.981V258.461L130.328 260.719Z" fill="white" stroke="#263238" stroke-miterlimit="10"/>
<path d="M132.117 119.159C132.117 119.159 137.264 120.948 139.721 131.009C142.178 141.07 151.791 188.711 151.791 194.973C151.791 201.235 149.554 262.508 149.554 262.508C145.106 263.134 140.626 263.507 136.135 263.623H128.986C128.986 263.623 129.213 216.663 129.433 213.085C129.653 209.507 126.018 173.836 126.018 173.836L132.117 119.159Z" fill="#F7A56D" stroke="#263238" stroke-miterlimit="10"/>
<path d="M98.0652 105.626C98.0652 107.202 92.3071 108.466 85.2071 108.466C78.1071 108.466 72.349 107.188 72.349 105.626C72.349 104.064 78.1071 102.786 85.2071 102.786C92.3071 102.786 98.0652 104.05 98.0652 105.626Z" fill="white" stroke="#263238" stroke-miterlimit="10"/>
<path d="M85.4414 107.21C85.0955 107.208 84.7643 107.069 84.5197 106.825C84.2751 106.58 84.1369 106.249 84.135 105.903V92.2996C84.135 91.9531 84.2726 91.6208 84.5176 91.3758C84.7626 91.1308 85.0949 90.9932 85.4414 90.9932C85.7879 90.9932 86.1202 91.1308 86.3652 91.3758C86.6102 91.6208 86.7478 91.9531 86.7478 92.2996V105.875C86.7516 106.049 86.7206 106.222 86.6566 106.383C86.5927 106.545 86.4971 106.693 86.3754 106.817C86.2537 106.941 86.1084 107.04 85.948 107.107C85.7876 107.175 85.6154 107.21 85.4414 107.21Z" fill="white" stroke="#263238" stroke-miterlimit="10"/>
<path d="M180.972 305.421L181.923 263.964L241.215 264.198V305.641" fill="#9E9E9E"/>
<path d="M180.972 305.421L181.923 263.964L241.215 264.198V305.641" stroke="#263238" stroke-miterlimit="10"/>
<path d="M233.299 274.763L223.764 279.364L223.103 305.094" stroke="#263238" stroke-miterlimit="10"/>
<path d="M126.898 305.229C126.898 301.119 126.018 204.409 126.898 194.626C127.779 184.842 133.771 116.604 133.828 115.915L136.434 116.142C136.377 116.852 130.384 185.133 129.504 194.867C128.624 204.601 129.504 304.207 129.504 305.208" fill="white"/>
<path d="M126.898 305.229C126.898 301.119 126.018 204.409 126.898 194.626C127.779 184.842 133.771 116.604 133.828 115.915L136.434 116.142C136.377 116.852 130.384 185.133 129.504 194.867C128.624 204.601 129.504 304.207 129.504 305.208" stroke="#263238" stroke-miterlimit="10"/>
<path d="M136.171 119.549L134.808 119.351" stroke="#263238" stroke-width="0.5" stroke-miterlimit="10"/>
<path d="M135.83 123.17L134.467 122.972" stroke="#263238" stroke-width="0.5" stroke-miterlimit="10"/>
<path d="M135.489 126.784L134.126 126.593" stroke="#263238" stroke-width="0.5" stroke-miterlimit="10"/>
<path d="M135.148 130.413L133.785 130.214" stroke="#263238" stroke-width="0.5" stroke-miterlimit="10"/>
<path d="M134.808 134.027L133.445 133.835" stroke="#263238" stroke-width="0.5" stroke-miterlimit="10"/>
<path d="M134.467 137.655L133.104 137.456" stroke="#263238" stroke-width="0.5" stroke-miterlimit="10"/>
<path d="M134.126 141.276L132.763 141.077" stroke="#263238" stroke-width="0.5" stroke-miterlimit="10"/>
<path d="M133.785 144.897L132.422 144.698" stroke="#263238" stroke-width="0.5" stroke-miterlimit="10"/>
<path d="M133.445 148.518L132.074 148.319" stroke="#263238" stroke-width="0.5" stroke-miterlimit="10"/>
<path d="M133.104 152.139L131.733 151.94" stroke="#263238" stroke-width="0.5" stroke-miterlimit="10"/>
<path d="M132.763 155.76L131.393 155.562" stroke="#263238" stroke-width="0.5" stroke-miterlimit="10"/>
<path d="M132.422 159.38L131.052 159.182" stroke="#263238" stroke-width="0.5" stroke-miterlimit="10"/>
<path d="M132.074 163.002L130.711 162.803" stroke="#263238" stroke-width="0.5" stroke-miterlimit="10"/>
<path d="M131.733 166.623L130.37 166.424" stroke="#263238" stroke-width="0.5" stroke-miterlimit="10"/>
<path d="M131.393 170.244L130.029 170.045" stroke="#263238" stroke-width="0.5" stroke-miterlimit="10"/>
<path d="M131.052 173.865L129.689 173.666" stroke="#263238" stroke-width="0.5" stroke-miterlimit="10"/>
<path d="M130.711 177.486L129.348 177.287" stroke="#263238" stroke-width="0.5" stroke-miterlimit="10"/>
<path d="M128.893 204.566L127.523 204.374" stroke="#263238" stroke-width="0.5" stroke-miterlimit="10"/>
<path d="M128.922 208.335L127.552 208.144" stroke="#263238" stroke-width="0.5" stroke-miterlimit="10"/>
<path d="M128.95 212.106L127.587 211.914" stroke="#263238" stroke-width="0.5" stroke-miterlimit="10"/>
<path d="M128.979 215.882L127.615 215.684" stroke="#263238" stroke-width="0.5" stroke-miterlimit="10"/>
<path d="M129.007 219.653L127.644 219.454" stroke="#263238" stroke-width="0.5" stroke-miterlimit="10"/>
<path d="M129.035 223.423L127.672 223.231" stroke="#263238" stroke-width="0.5" stroke-miterlimit="10"/>
<path d="M129.064 227.193L127.701 227.001" stroke="#263238" stroke-width="0.5" stroke-miterlimit="10"/>
<path d="M129.092 230.97L127.729 230.771" stroke="#263238" stroke-width="0.5" stroke-miterlimit="10"/>
<path d="M129.121 234.74L127.757 234.541" stroke="#263238" stroke-width="0.5" stroke-miterlimit="10"/>
<path d="M129.149 238.51L127.786 238.318" stroke="#263238" stroke-width="0.5" stroke-miterlimit="10"/>
<path d="M129.177 242.281L127.814 242.089" stroke="#263238" stroke-width="0.5" stroke-miterlimit="10"/>
<path d="M129.206 246.057L127.843 245.858" stroke="#263238" stroke-width="0.5" stroke-miterlimit="10"/>
<path d="M129.234 249.828L127.871 249.629" stroke="#263238" stroke-width="0.5" stroke-miterlimit="10"/>
<path d="M129.263 253.598L127.899 253.406" stroke="#263238" stroke-width="0.5" stroke-miterlimit="10"/>
<path d="M129.291 257.367L127.928 257.176" stroke="#263238" stroke-width="0.5" stroke-miterlimit="10"/>
<path d="M129.319 261.138L127.956 260.946" stroke="#263238" stroke-width="0.5" stroke-miterlimit="10"/>
<path d="M129.348 264.916L127.985 264.717" stroke="#263238" stroke-width="0.5" stroke-miterlimit="10"/>
<path d="M129.376 268.685L128.013 268.486" stroke="#263238" stroke-width="0.5" stroke-miterlimit="10"/>
<path d="M129.405 272.455L128.041 272.264" stroke="#263238" stroke-width="0.5" stroke-miterlimit="10"/>
<path d="M129.433 276.226L128.07 276.034" stroke="#263238" stroke-width="0.5" stroke-miterlimit="10"/>
<path d="M129.461 280.003L128.098 279.804" stroke="#263238" stroke-width="0.5" stroke-miterlimit="10"/>
<path d="M129.49 283.773L128.127 283.574" stroke="#263238" stroke-width="0.5" stroke-miterlimit="10"/>
<path d="M129.518 287.543L128.155 287.352" stroke="#263238" stroke-width="0.5" stroke-miterlimit="10"/>
<path d="M129.547 291.313L128.183 291.121" stroke="#263238" stroke-width="0.5" stroke-miterlimit="10"/>
<path d="M129.575 295.09L128.212 294.892" stroke="#263238" stroke-width="0.5" stroke-miterlimit="10"/>
<path d="M129.603 298.86L128.24 298.661" stroke="#263238" stroke-width="0.5" stroke-miterlimit="10"/>
<path d="M129.632 302.63L128.269 302.432" stroke="#263238" stroke-width="0.5" stroke-miterlimit="10"/>
<path d="M175.974 156.64L189.57 175.917L203.202 150.804L186.936 142.284C186.936 142.284 177.919 145.33 175.974 156.64Z" fill="white" stroke="#263238" stroke-miterlimit="10"/>
<path d="M183.684 160.851C186.297 162.235 189.996 163.691 193.865 163.591" stroke="#263238" stroke-miterlimit="10"/>
<path d="M179.964 158.5C180.597 158.985 181.256 159.435 181.937 159.849" stroke="#263238" stroke-miterlimit="10"/>
<path d="M180.944 156.15C183.255 156.673 185.628 156.871 187.994 156.74" stroke="#263238" stroke-miterlimit="10"/>
<path d="M133.835 115.915L137.797 120.416C138.906 120.696 140.066 120.703 141.179 120.437C142.292 120.171 143.323 119.64 144.187 118.89C147.247 116.298 133.835 115.915 133.835 115.915Z" fill="white" stroke="#263238" stroke-miterlimit="10"/>
<path d="M133.182 114.381C133.182 114.381 133.537 111.733 134.247 111.2C134.957 110.668 143.619 106.94 145.209 107.132C146.259 107.321 147.201 107.889 147.858 108.73L156.2 118.45L183.606 142.142L172.821 150.662C172.821 150.662 148.951 122.901 147.886 121.836C146.821 120.771 142.057 118.123 142.057 118.123L133.182 114.381Z" fill="white" stroke="#263238" stroke-miterlimit="10"/>
<path d="M145.742 112.442C145.742 112.442 137.428 113.862 135.482 113.5C133.537 113.138 130.001 111.91 129.092 114.033C128.183 116.156 132.805 117.746 134.921 117.746C136.053 117.723 137.184 117.84 138.287 118.094C138.287 118.094 142 119.514 144.826 120.394C146.959 120.967 149.156 121.265 151.365 121.282" fill="white"/>
<path d="M145.742 112.442C145.742 112.442 137.428 113.862 135.482 113.5C133.537 113.138 130.001 111.91 129.092 114.033C128.183 116.156 132.805 117.746 134.921 117.746C136.053 117.723 137.184 117.84 138.287 118.094C138.287 118.094 142 119.514 144.826 120.394C146.959 120.967 149.156 121.265 151.365 121.282" stroke="#263238" stroke-miterlimit="10"/>
<path d="M183.223 137.903C183.223 137.903 180.219 137.016 179.332 137.726C178.444 138.436 168.547 150.278 168.724 151.336C168.902 152.394 175.824 160.176 176.329 160.176C176.833 160.176 181.632 149.213 183.578 147.8C185.523 146.388 189.762 142.83 189.762 142.83L183.223 137.903Z" fill="white" stroke="#263238" stroke-miterlimit="10"/>
<path d="M199.311 156.641C199.311 156.641 187.646 171.671 185.701 177.5C183.755 183.33 179.864 224.708 180.567 230.75C181.27 236.793 178.274 265.228 178.274 265.228C178.274 265.228 189.57 272.811 210.451 272.64C231.332 272.47 243.871 267.159 243.871 267.159C243.871 267.159 239.98 233.732 239.98 233.2C239.98 232.667 244.24 186.525 241.4 169.726C238.56 152.927 232.17 146.033 232.17 146.033L199.311 156.641Z" fill="#263238" stroke="#263238" stroke-miterlimit="10"/>
<path d="M191.295 92.1083C191.295 92.1083 186.396 97.3197 185.523 100.451C184.65 103.582 184.941 113.515 185.672 115.212C186.403 116.909 187.973 119.564 186.176 122.454C184.38 125.343 182.42 126.813 183.074 127.807C183.727 128.801 187.88 130.796 187.88 130.796C187.88 130.796 186.46 133.991 188.115 135.766L189.748 137.534L190.671 140.807C190.671 140.807 188.541 143.903 190.493 145.28C192.446 146.658 194.867 147.609 195.74 147.503C196.913 147.175 198.053 146.743 199.148 146.21L204.118 152.203L228.45 139.693L224.36 133.579C224.36 133.579 232.937 121.879 233.476 112.911C234.016 103.944 227.449 93.6845 222.621 90.5179C217.793 87.3513 209.997 86.1443 204.906 86.7478C199.815 87.3513 191.295 92.1083 191.295 92.1083Z" fill="white" stroke="#263238" stroke-miterlimit="10"/>
<path d="M222.621 90.5179C217.793 87.3513 209.997 86.1443 204.906 86.7478C199.815 87.3513 191.295 92.1083 191.295 92.1083C191.295 92.1083 190.805 92.6266 190.11 93.4431L190.216 93.4857C190.216 93.4857 192.41 92.5059 199.609 91.6539C206.809 90.8019 207.462 91.7888 204.707 94.075C201.952 96.3612 195.037 104.129 195.477 107.991C195.917 111.853 199.645 111.591 200.319 112.755C200.994 113.92 200.966 118.201 202.606 118.535C204.246 118.868 205.559 119.429 206.603 117.704C207.647 115.979 211.772 114.779 212.908 119.834C214.044 124.889 209.841 129.994 209.841 129.994C212.442 131.357 215.198 132.403 218.048 133.111C220.235 133.547 222.486 133.547 224.672 133.111C226.263 130.846 232.979 120.814 233.455 112.911C234.009 103.944 227.449 93.72 222.621 90.5179Z" fill="#263238" stroke="#263238" stroke-miterlimit="10"/>
<path d="M209.862 129.966L207.973 130.541" stroke="#263238" stroke-miterlimit="10"/>
<path d="M199.148 146.196L206.085 141.631L202.875 150.556L199.148 146.196Z" fill="#263238" stroke="#263238" stroke-miterlimit="10"/>
<path d="M190.081 122.34C190.878 123.345 191.959 124.087 193.184 124.47" stroke="#263238" stroke-miterlimit="10"/>
<path d="M188.896 115.361C188.896 115.361 191.168 113.487 193.589 115.872" stroke="#263238" stroke-miterlimit="10"/>
<path d="M191.267 118.818C191.366 119.691 191.061 120.444 190.557 120.501C190.053 120.558 189.591 119.897 189.492 119.031C189.393 118.165 189.691 117.398 190.202 117.341C190.713 117.284 191.16 117.945 191.267 118.818Z" fill="#263238"/>
<path d="M187.88 130.796C187.187 131.959 186.851 133.299 186.915 134.651C187.149 136.582 189.535 137.186 191.544 137.662C193.553 138.137 196.72 137.754 195.804 136.242C194.888 134.729 195.243 134.523 193.319 133.331C191.395 132.138 189.087 130.476 187.88 130.796Z" fill="#263238"/>
<path d="M197.543 151.337L196.13 159.473L235.912 146.743L231.488 137.371L197.543 151.337Z" fill="white" stroke="#263238" stroke-miterlimit="10"/>
<path d="M223.004 171.82C223.004 171.82 218.936 163.684 210.984 163.513C203.032 163.343 185.7 177.5 185.7 177.5C185.7 177.5 168.192 202.428 166.069 204.374C163.946 206.319 162.185 208.087 162.185 208.087L156.505 205.247C156.505 205.247 152.955 209.308 151.535 213.199C150.618 216.062 150.083 219.035 149.945 222.039C149.945 222.039 162.32 230.885 164.621 231.411C166.921 231.936 214.661 202.769 220.845 196.23C227.03 189.691 223.004 171.82 223.004 171.82Z" fill="white" stroke="#263238" stroke-miterlimit="10"/>
<path d="M213.334 191.182C214.35 190.755 215.337 190.262 216.287 189.705" stroke="#263238" stroke-miterlimit="10"/>
<path d="M178.274 196.074C178.274 196.074 197.345 196.592 210.373 192.297" stroke="#263238" stroke-miterlimit="10"/>
<path d="M188.349 200.667C188.349 200.667 196.869 200.845 204.26 197.486" stroke="#263238" stroke-miterlimit="10"/>
<path d="M158.841 223.983C159.393 224.528 160.047 224.958 160.765 225.247" stroke="#263238" stroke-miterlimit="10"/>
<path d="M162.185 208.094C162.185 208.094 155.994 213.774 156.505 218.879C156.601 219.978 156.902 221.05 157.393 222.038" stroke="#263238" stroke-miterlimit="10"/>
<path d="M158.82 209.151C158.82 209.151 152.43 215.343 154.049 219.588" stroke="#263238" stroke-miterlimit="10"/>
<path d="M153.254 205.687L136.086 194.447C135.972 192.779 135.756 191.119 135.44 189.477C135.12 188.512 132.55 183.698 132.394 181.93C132.238 180.162 132.713 178.558 131.428 178.558C130.752 178.574 130.109 178.85 129.631 179.329C129.154 179.808 128.879 180.452 128.865 181.128L128.702 182.732C128.702 182.732 122.44 186.744 122.312 187.866C122.184 188.988 122.951 193.965 123.27 195.25C123.59 196.535 124.875 200.064 128.24 201.64C131.606 203.216 144.13 215.634 144.13 215.634L153.254 205.687Z" fill="white" stroke="#263238" stroke-miterlimit="10"/>
<path d="M159.53 205.446C159.53 205.446 154.759 203.146 152.991 203.146C151.223 203.146 142.199 215.698 142 216.401C141.801 217.104 145.003 224.005 145.358 224.538C145.713 225.07 150.662 226.483 150.662 226.483L152.252 224.183C152.252 224.183 150.662 221.002 152.607 215.166C153.674 211.779 155.853 208.852 158.792 206.859L159.53 205.446Z" fill="white" stroke="#263238" stroke-miterlimit="10"/>
<path d="M128.702 182.732L129.987 186.424L126.614 189.953" fill="white"/>
<path d="M128.702 182.732L129.987 186.424L126.614 189.953" stroke="#263238" stroke-miterlimit="10"/>
<path d="M11.3032 305.641H339.117" stroke="#263238" stroke-miterlimit="10"/>
</svg>
