<svg width="343" height="437" viewBox="0 0 343 437" fill="none" xmlns="http://www.w3.org/2000/svg">
<g clip-path="url(#clip0_32_365)">
<path d="M365.971 406.069C365.971 406.2 279.087 406.296 171.945 406.296C64.8034 406.296 -22.0987 406.2 -22.0987 406.069C-22.0987 405.938 64.7597 405.842 171.945 405.842C279.13 405.842 365.971 405.947 365.971 406.069Z" fill="#263238"/>
<path d="M83.5767 232.615C83.5767 232.615 78.6368 238.978 78.2877 240.306C77.9386 241.635 74.5872 250.253 74.5872 250.253L77.7204 254.422C77.9365 255.951 78.2572 257.464 78.6805 258.949C79.1605 260.295 80.7664 260.435 81.1679 259.735C81.3486 259.385 81.5844 259.067 81.8661 258.792C81.8661 258.792 83.3149 260.819 84.9383 259.727C86.5616 258.634 86.4743 257.9 86.4743 257.9C86.4743 257.9 88.8919 258.966 89.7385 258.451C90.2242 258.172 90.6161 257.755 90.8644 257.253L92.3568 251.599C92.3568 251.599 91.8157 256.231 92.3568 256.257C92.8979 256.283 94.2158 256.965 94.9751 256.607C95.7345 256.248 96.5723 253.731 96.5723 253.39C96.5723 253.049 97 248.574 97 248.574L97.4451 239.494L96.6771 235.814L83.5767 232.615Z" fill="#FFBF9D"/>
<path d="M101.46 186.284L101.757 191.598C101.966 195.531 95.8392 237.221 95.8392 237.221L82.9134 233.681L85.0255 193.399L84.8248 186.66L101.46 186.284Z" fill="#FFBF9D"/>
<path d="M141.651 124.283L142.14 84.2973C142.585 74.3512 137.174 65.8035 127.233 65.6375H126.316C121.855 65.8208 117.627 67.68 114.473 70.8447C111.319 74.0095 109.471 78.2477 109.297 82.7154C108.957 91.3418 108.695 100.868 108.94 105.439C109.454 114.975 119.046 116.067 119.046 116.067C119.046 116.067 119.099 121.871 119.099 124.676L116.856 131.222L124.711 129.308L141.651 124.283Z" fill="#FFBF9D"/>
<path d="M119.046 116.137C123.435 115.938 127.674 114.485 131.265 111.951C131.265 111.951 128.577 119.249 119.046 118.777V116.137Z" fill="#FF9A6C"/>
<path d="M114.167 91.3243C114.181 91.679 114.331 92.0147 114.587 92.2608C114.842 92.5069 115.183 92.6443 115.538 92.644C115.711 92.6498 115.884 92.6211 116.046 92.5595C116.208 92.4978 116.357 92.4045 116.482 92.285C116.608 92.1655 116.709 92.0221 116.779 91.8631C116.849 91.7042 116.887 91.5329 116.89 91.3592C116.877 91.0037 116.727 90.667 116.472 90.4195C116.216 90.172 115.876 90.0328 115.52 90.0308C115.346 90.0249 115.173 90.054 115.01 90.1161C114.847 90.1783 114.698 90.2724 114.572 90.3928C114.446 90.5133 114.346 90.6578 114.276 90.8177C114.207 90.9776 114.17 91.1499 114.167 91.3243Z" fill="#263238"/>
<path d="M111.497 86.8845C111.671 87.0506 112.666 86.2465 114.115 86.1941C115.564 86.1416 116.681 86.8234 116.838 86.6398C116.995 86.4563 116.725 86.2378 116.245 85.9144C115.589 85.5064 114.825 85.3054 114.054 85.3376C113.293 85.362 112.56 85.6352 111.968 86.1154C111.549 86.5262 111.409 86.8059 111.497 86.8845Z" fill="#263238"/>
<path d="M128.036 90.9836C128.045 91.3383 128.193 91.6753 128.447 91.9221C128.702 92.1688 129.043 92.3057 129.397 92.3033C129.571 92.3104 129.744 92.2824 129.907 92.2212C130.07 92.16 130.219 92.0668 130.345 91.947C130.471 91.8273 130.572 91.6834 130.641 91.5239C130.711 91.3644 130.748 91.1926 130.75 91.0186C130.741 90.6638 130.593 90.3269 130.339 90.0801C130.084 89.8333 129.743 89.6964 129.389 89.6988C129.215 89.6918 129.042 89.7197 128.879 89.7809C128.716 89.8421 128.567 89.9353 128.441 90.0551C128.315 90.1749 128.214 90.3188 128.145 90.4782C128.075 90.6377 128.038 90.8096 128.036 90.9836Z" fill="#263238"/>
<path d="M125.863 86.6311C126.037 86.7972 127.041 85.9931 128.481 85.9319C129.921 85.8707 131.099 86.5699 131.204 86.3864C131.309 86.2028 131.09 85.9843 130.61 85.661C129.958 85.2532 129.197 85.0521 128.429 85.0841C127.665 85.1117 126.931 85.3844 126.334 85.862C125.915 86.229 125.775 86.5262 125.863 86.6311Z" fill="#263238"/>
<path d="M121.071 98.1152C120.291 97.9032 119.488 97.7916 118.68 97.7831C118.304 97.7831 117.947 97.6957 117.868 97.4422C117.824 97.0567 117.897 96.6669 118.077 96.3235C118.392 95.4495 118.715 94.4444 119.064 93.4306C120.434 89.3053 121.403 85.9229 121.237 85.8705C121.071 85.8181 119.832 89.113 118.461 93.2383C118.13 94.2522 117.816 95.2223 117.519 96.1487C117.302 96.61 117.255 97.1335 117.388 97.6258C117.448 97.7555 117.537 97.8699 117.647 97.9607C117.757 98.0515 117.886 98.1163 118.025 98.1502C118.235 98.1937 118.448 98.2142 118.662 98.2114C119.466 98.2777 120.275 98.2455 121.071 98.1152Z" fill="#263238"/>
<path d="M125.199 82.06C125.409 82.4271 126.814 81.9726 128.542 81.8677C130.27 81.7628 131.728 81.9638 131.885 81.5705C131.955 81.387 131.649 81.0636 131.012 80.7839C130.185 80.4389 129.286 80.3009 128.394 80.3819C127.51 80.4387 126.652 80.7021 125.889 81.151C125.356 81.5181 125.103 81.8852 125.199 82.06Z" fill="#263238"/>
<path d="M111.244 82.5755C111.558 82.8989 112.745 82.5231 114.176 82.4706C115.607 82.4182 116.838 82.6192 117.109 82.2609C117.222 82.0948 117.021 81.7627 116.48 81.4655C115.739 81.1014 114.917 80.9327 114.092 80.9755C113.267 81.0183 112.467 81.2712 111.767 81.7103C111.27 82.0686 111.113 82.4182 111.244 82.5755Z" fill="#263238"/>
<path d="M141.651 91.3943C141.808 91.3156 148.118 89.1831 148.179 95.7643C148.24 102.346 141.677 101.008 141.669 100.816C141.66 100.624 141.651 91.3943 141.651 91.3943Z" fill="#FFBF9D"/>
<path d="M143.632 98.2813C143.632 98.2813 143.746 98.36 143.946 98.4474C144.084 98.5065 144.233 98.537 144.383 98.537C144.533 98.537 144.681 98.5065 144.819 98.4474C145.237 98.1765 145.576 97.7988 145.8 97.3533C146.024 96.9078 146.125 96.4105 146.094 95.9128C146.111 95.3525 145.997 94.7959 145.762 94.2871C145.699 94.0812 145.586 93.8938 145.434 93.7415C145.282 93.5891 145.095 93.4764 144.889 93.4131C144.758 93.3825 144.621 93.398 144.5 93.4569C144.379 93.5158 144.282 93.6145 144.226 93.7365C144.139 93.9201 144.226 94.0512 144.147 94.0599C144.069 94.0686 144.008 93.955 144.051 93.6841C144.086 93.5222 144.176 93.3773 144.304 93.2733C144.483 93.1359 144.709 93.0733 144.933 93.0985C145.202 93.148 145.454 93.2666 145.663 93.4428C145.873 93.619 146.033 93.8467 146.128 94.1036C146.413 94.6632 146.554 95.285 146.539 95.9128C146.539 97.2325 145.849 98.4736 144.907 98.7533C144.732 98.8061 144.548 98.8185 144.368 98.7898C144.188 98.761 144.017 98.6918 143.868 98.5872C143.65 98.4386 143.615 98.2901 143.632 98.2813Z" fill="#FF9A6C"/>
<path d="M125.679 99.0243C125.461 99.0243 125.444 100.51 124.161 101.568C122.878 102.625 121.281 102.442 121.263 102.66C121.246 102.879 121.621 102.957 122.293 102.975C123.171 102.991 124.027 102.697 124.711 102.145C125.365 101.614 125.788 100.849 125.889 100.012C125.941 99.3827 125.775 99.0156 125.679 99.0243Z" fill="#263238"/>
<path d="M96.1272 74.159C96.2448 73.7864 96.5011 73.4734 96.8429 73.285C97.6026 72.9294 98.4427 72.7817 99.2779 72.8567C101.356 72.7931 103.392 72.255 105.23 71.2835C104.589 70.9749 104 70.568 103.485 70.0774C102.932 69.575 102.526 68.9312 102.31 68.2152C102.095 67.4992 102.079 66.738 102.263 66.0133C102.29 65.8754 102.351 65.7461 102.439 65.6366C102.527 65.527 102.64 65.4404 102.769 65.384C103.188 65.2442 103.563 65.655 103.869 65.9871C104.252 66.4825 104.761 66.8655 105.343 67.0962C105.925 67.3268 106.558 67.3966 107.177 67.2981C108.047 67.2389 108.893 66.9787 109.646 66.5377L109.725 66.4503C110.057 66.092 110.388 65.7511 110.711 65.4277C113.138 62.9631 115.232 61.25 117.388 60.3498C120.565 59.0301 125.88 58.4445 129.214 59.2835C132.548 60.1226 135.559 62.7795 136.057 66.1794C137.898 64.58 140.7 64.5625 142.978 65.454H143.03C145.57 66.328 147.036 68.95 147.804 71.572C147.848 71.7118 147.883 71.8517 147.926 71.9915C148.792 73.3481 149.971 74.4755 151.365 75.2777C151.609 75.4176 151.889 75.5924 151.924 75.872C151.959 76.1517 151.723 76.379 151.496 76.545C150.892 76.9856 150.197 77.2843 149.462 77.419C149.703 78.0256 149.995 78.6104 150.335 79.167C150.632 79.6477 150.972 80.2158 150.728 80.7227C150.617 80.91 150.451 81.0583 150.252 81.1474C150.054 81.2366 149.833 81.2623 149.619 81.2209C149.194 81.1357 148.792 80.9599 148.441 80.7053L149.314 82.7242C148.398 82.8864 147.457 82.8325 146.565 82.5669C146.059 84.9879 145.692 89.4627 145.107 91.1059C143.362 91.1496 142.952 90.966 142.079 91.2719C140.953 91.6565 141.407 93.6579 139.932 93.0986C139.181 92.8189 138.003 89.9959 137.741 89.2355C136.029 84.1797 135.416 78.8159 135.943 73.5035C134.882 72.3966 133.616 71.5062 132.216 70.8815L132.339 70.9776C129.659 70.1036 126.631 69.2296 124.117 70.4882C122.162 71.4846 121.027 73.5297 119.579 75.1816C118.359 76.6812 116.835 77.904 115.108 78.7689C113.38 79.6338 111.489 80.1211 109.559 80.1983C109.219 83.0913 109.166 87.8109 109.053 90.5028L106.697 85.1364C106.514 84.8311 106.348 84.516 106.199 84.1925L106.147 84.0964C105.902 83.5895 105.675 83.0826 105.37 82.5756C105.062 82.8441 104.667 82.9908 104.258 82.988C103.85 82.9853 103.457 82.8334 103.152 82.5608C102.848 82.2882 102.654 81.9137 102.606 81.5077C102.557 81.1017 102.659 80.692 102.891 80.3557C103.114 80.0261 103.385 79.7316 103.694 79.4817C103.371 79.808 102.968 80.0436 102.525 80.1648C102.083 80.286 101.616 80.2885 101.172 80.1721C100.732 80.0416 100.348 79.7697 100.078 79.3985C99.8083 79.0272 99.6682 78.5772 99.6794 78.1182C99.7094 77.8083 99.8214 77.5121 100.004 77.2601C100.187 77.0081 100.433 76.8095 100.718 76.6849C99.5356 76.7914 98.3483 76.545 97.3055 75.9769C96.5723 75.6273 95.909 75.0068 96.1272 74.159Z" fill="#263238"/>
<path d="M133.063 67.2981C133.407 67.5652 133.731 67.8573 134.032 68.1721C134.795 69.0768 135.312 70.1636 135.533 71.3272C135.705 72.1259 135.796 72.94 135.803 73.757C135.803 74.631 135.803 75.5749 135.699 76.5712C135.637 77.6162 135.637 78.6639 135.699 79.7089C135.74 80.2642 135.819 80.8161 135.934 81.3608C136.027 81.9405 136.264 82.4876 136.624 82.9514C136.792 83.1361 137.005 83.2742 137.242 83.3523C137.479 83.4303 137.732 83.4458 137.977 83.3972C138.446 83.3035 138.871 83.0541 139.181 82.6892C139.684 81.9689 139.985 81.127 140.054 80.2508H139.853C140.15 80.9674 140.547 81.6383 141.031 82.2435C141.503 82.8019 142.173 83.1558 142.899 83.2311C143.239 83.2644 143.581 83.2008 143.885 83.0476C144.167 82.8968 144.398 82.6656 144.549 82.3833C144.692 82.1152 144.758 81.8128 144.741 81.5093C144.727 81.2323 144.616 80.969 144.426 80.7664L144.322 80.8626C144.899 81.5053 145.603 82.0203 146.39 82.3746C146.67 82.497 146.879 82.5669 147.027 82.6193L147.263 82.6718C147.193 82.636 147.12 82.6067 147.045 82.5844C146.896 82.5232 146.687 82.4445 146.425 82.3134C145.662 81.9371 144.982 81.411 144.426 80.7664L144.33 80.8626C144.489 81.0612 144.581 81.3042 144.595 81.558C144.61 81.8117 144.544 82.0635 144.409 82.2785C144.271 82.5318 144.062 82.7386 143.807 82.8728C143.535 83.0019 143.234 83.0562 142.934 83.0301C142.255 82.9456 141.632 82.6087 141.189 82.0862C140.722 81.4923 140.34 80.8363 140.054 80.1372L139.906 79.8313L139.853 80.1634C139.773 81.0046 139.471 81.8096 138.98 82.497C138.705 82.8218 138.326 83.0411 137.907 83.1175C137.7 83.1625 137.484 83.1523 137.282 83.0879C137.08 83.0235 136.898 82.9071 136.755 82.7504C136.419 82.3147 136.2 81.8002 136.118 81.2559C136.001 80.7231 135.923 80.1828 135.882 79.639C135.816 78.6029 135.816 77.5636 135.882 76.5275C135.934 75.5399 135.987 74.5873 135.961 73.6958C135.945 72.8692 135.845 72.0463 135.664 71.2398C135.414 70.0985 134.872 69.0416 134.093 68.1721C133.802 67.8237 133.454 67.528 133.063 67.2981Z" fill="#455A64"/>
<path d="M103.633 76.9645L103.712 77.0344L103.956 77.2005C104.083 77.2956 104.217 77.3804 104.357 77.454C104.546 77.5684 104.741 77.6706 104.942 77.7599C106.232 78.3245 107.641 78.5617 109.044 78.4503C111.128 78.2865 113.12 77.5215 114.778 76.2478C116.783 74.679 118.447 72.716 119.666 70.4794C120.347 69.317 120.897 68.1196 121.507 66.9834C122.068 65.9107 122.776 64.9221 123.611 64.0468C124.365 63.2593 125.304 62.6734 126.343 62.3425C126.814 62.2091 127.302 62.1473 127.791 62.159C128.242 62.184 128.688 62.2662 129.118 62.4037C130.434 62.8392 131.54 63.7529 132.216 64.9645C132.441 65.4205 132.611 65.9017 132.723 66.3979C132.723 66.3979 132.723 66.3979 132.723 66.293C132.723 66.1881 132.723 66.1182 132.679 66.0046C132.595 65.633 132.469 65.2723 132.304 64.9295C132.023 64.3938 131.657 63.9069 131.221 63.4874C130.632 62.9453 129.932 62.5369 129.17 62.2901C128.724 62.1426 128.261 62.0544 127.791 62.0279C127.285 62.0053 126.778 62.0644 126.29 62.2027C125.215 62.536 124.242 63.1375 123.462 63.9507C122.608 64.8325 121.884 65.8334 121.315 66.9223C120.696 68.0322 120.146 69.2209 119.465 70.4183C118.262 72.628 116.627 74.5721 114.656 76.1342C113.029 77.3941 111.076 78.1614 109.027 78.3454C107.648 78.466 106.259 78.2563 104.977 77.7336C104.515 77.5035 104.066 77.2467 103.633 76.9645Z" fill="#455A64"/>
<path d="M102.717 72.7782C102.824 72.8692 102.941 72.9483 103.066 73.0142C103.393 73.2059 103.734 73.3724 104.087 73.5124C104.606 73.7307 105.144 73.9032 105.693 74.028C106.371 74.1716 107.06 74.2535 107.753 74.2727C108.443 74.2826 109.133 74.227 109.812 74.1067C110.368 74.0089 110.914 73.8627 111.444 73.6697C111.803 73.5438 112.15 73.3889 112.483 73.2065C112.61 73.1467 112.73 73.0734 112.841 72.988C112.841 72.9443 112.3 73.2239 111.392 73.5211C110.864 73.6897 110.324 73.8182 109.777 73.9057C109.108 74.0113 108.43 74.0611 107.753 74.0542C107.076 74.0272 106.402 73.9512 105.736 73.827C105.193 73.7152 104.659 73.5603 104.139 73.3638C103.249 73.0404 102.743 72.7432 102.717 72.7782Z" fill="#455A64"/>
<path d="M103.319 377.376L104.017 396.114C104.017 396.114 85.2437 403.106 85.0342 406.602L121.359 406.532L121.455 377.297L103.319 377.376Z" fill="#455A64"/>
<path d="M115.25 394.515C115.601 394.619 115.901 394.85 116.091 395.164C116.282 395.477 116.349 395.85 116.28 396.21C116.187 396.564 115.962 396.867 115.652 397.059C115.341 397.251 114.969 397.317 114.613 397.242C114.243 397.13 113.928 396.885 113.728 396.554C113.528 396.223 113.458 395.83 113.53 395.45C113.67 395.094 113.94 394.805 114.286 394.642C114.632 394.479 115.027 394.456 115.389 394.576" fill="#E0E0E0"/>
<path d="M121.359 406.533L121.254 403.587L86.4656 404.75C86.4656 404.75 84.851 405.458 85.0343 406.602L121.359 406.533Z" fill="#263238"/>
<path d="M103.432 395.922C103.432 396.097 104.305 396.176 105.178 396.744C106.051 397.312 106.522 398.063 106.688 397.994C106.854 397.924 106.583 396.892 105.51 396.246C104.436 395.599 103.397 395.765 103.432 395.922Z" fill="white"/>
<path d="M99.627 397.513C99.5834 397.688 100.351 397.985 100.954 398.736C101.556 399.488 101.739 400.283 101.914 400.275C102.088 400.266 102.202 399.261 101.434 398.343C100.666 397.425 99.627 397.347 99.627 397.513Z" fill="white"/>
<path d="M97.4712 402.084C97.6283 402.084 97.8727 401.21 97.4189 400.266C96.965 399.322 96.1272 398.902 96.0574 399.051C95.9875 399.2 96.4937 399.715 96.8603 400.519C97.2269 401.323 97.2967 402.04 97.4712 402.084Z" fill="white"/>
<path d="M103.747 391.639C103.816 391.805 104.619 391.552 105.632 391.639C106.644 391.727 107.421 392.024 107.517 391.867C107.613 391.709 106.854 391.08 105.667 390.993C104.48 390.905 103.659 391.5 103.747 391.639Z" fill="white"/>
<path d="M146.896 378.538L147.909 401.166L143.545 419.319C143.47 419.629 143.459 419.95 143.514 420.264C143.569 420.578 143.687 420.877 143.863 421.143C144.038 421.408 144.266 421.635 144.533 421.809C144.799 421.982 145.099 422.099 145.413 422.151C145.777 422.216 146.151 422.193 146.504 422.081C146.856 421.97 147.177 421.775 147.438 421.513C150.824 418.113 162.868 405.396 162.921 404.19C163.008 402.267 163.566 379.937 163.566 379.937L146.896 378.538Z" fill="#455A64"/>
<path d="M145.413 422.186L163.008 402.416V403.377C163.008 404.207 162.732 405.013 162.222 405.667C160.826 407.415 156.846 412.065 147.481 421.548C147.212 421.82 146.88 422.021 146.514 422.132C146.149 422.243 145.761 422.262 145.387 422.186H145.413Z" fill="#263238"/>
<g opacity="0.6">
<path d="M158.199 395.205C157.924 395.416 157.737 395.721 157.674 396.062C157.611 396.403 157.677 396.755 157.858 397.05C158.059 397.331 158.36 397.526 158.699 397.592C159.039 397.659 159.39 397.593 159.683 397.408C159.972 397.183 160.168 396.858 160.232 396.496C160.297 396.135 160.225 395.762 160.032 395.45C159.792 395.178 159.457 395.008 159.096 394.977C158.735 394.946 158.376 395.056 158.094 395.284" fill="white"/>
</g>
<path d="M150.37 412.17C149.862 411.424 149.163 410.829 148.345 410.448C147.528 410.067 146.624 409.913 145.727 410.002C145.727 409.95 145.989 409.766 146.521 409.679C147.218 409.587 147.926 409.697 148.563 409.994C149.202 410.285 149.739 410.76 150.108 411.357C150.388 411.811 150.431 412.152 150.37 412.17Z" fill="white"/>
<path d="M148.825 415.237C148.721 415.342 147.953 414.617 146.8 414.311C146.066 414.191 145.326 414.109 144.584 414.066C144.929 413.846 145.322 413.709 145.729 413.668C146.137 413.627 146.549 413.683 146.931 413.83C148.275 414.189 148.939 415.15 148.825 415.237Z" fill="white"/>
<path d="M153.294 408.211C152.325 407.583 151.31 407.031 150.257 406.559C149.153 406.237 148.027 406 146.888 405.851C148.069 405.593 149.299 405.678 150.434 406.096C151.569 406.514 152.561 407.248 153.294 408.211Z" fill="white"/>
<path d="M153.556 401.297C153.503 401.428 152.238 400.939 150.614 400.913C148.991 400.887 147.699 401.306 147.647 401.166C148.522 400.578 149.574 400.312 150.623 400.415C151.674 400.353 152.713 400.666 153.556 401.297Z" fill="white"/>
<path d="M153.434 394.637C152.439 394.338 151.408 394.177 150.37 394.157C149.342 394.291 148.337 394.568 147.385 394.978C147.385 394.926 147.586 394.637 148.101 394.323C148.787 393.93 149.555 393.702 150.345 393.658C151.134 393.614 151.923 393.755 152.648 394.069C153.189 394.323 153.468 394.585 153.434 394.637Z" fill="white"/>
<path d="M150.388 392.889C150.301 392.606 150.283 392.307 150.335 392.015C150.409 391.243 150.631 390.492 150.99 389.804C151.207 389.265 151.597 388.813 152.098 388.519C152.271 388.436 152.466 388.409 152.655 388.442C152.845 388.475 153.019 388.566 153.154 388.703C153.4 388.983 153.537 389.343 153.538 389.717C153.5 390.479 153.199 391.205 152.687 391.771C152.175 392.337 151.482 392.707 150.728 392.819C149.979 392.912 149.22 392.78 148.547 392.439C147.874 392.098 147.318 391.564 146.949 390.905C146.856 390.74 146.801 390.557 146.786 390.369C146.771 390.18 146.796 389.99 146.862 389.813C146.94 389.636 147.075 389.49 147.246 389.398C147.417 389.306 147.613 389.274 147.804 389.306C148.364 389.416 148.885 389.672 149.314 390.049C149.943 390.532 150.481 391.124 150.902 391.797C151.075 392.025 151.197 392.287 151.26 392.566C150.655 391.723 149.929 390.975 149.105 390.346C148.718 390.038 148.263 389.828 147.778 389.734C147.674 389.717 147.568 389.734 147.475 389.783C147.382 389.832 147.307 389.91 147.263 390.005C147.227 390.125 147.217 390.25 147.234 390.374C147.25 390.498 147.293 390.616 147.359 390.722C147.696 391.281 148.186 391.731 148.77 392.019C149.355 392.307 150.01 392.421 150.658 392.347C151.298 392.248 151.885 391.935 152.324 391.459C152.763 390.983 153.028 390.372 153.076 389.725C153.089 389.465 153.005 389.21 152.84 389.009C152.766 388.931 152.67 388.879 152.566 388.859C152.461 388.838 152.352 388.851 152.255 388.895C151.837 389.149 151.506 389.524 151.304 389.97C150.828 390.881 150.517 391.869 150.388 392.889Z" fill="white"/>
<path d="M92.1387 220.641C90.0611 228.328 89.1317 236.28 89.3807 244.239C89.5552 249.282 100.613 389.157 100.613 389.157L123.497 390.127L122.625 259.071L124.475 259.561C124.475 259.561 134.608 315.872 135.245 324.945C135.821 333.099 143.859 392.522 143.859 392.522L164.701 391.945L161.393 315.365L156.785 240.201L154.778 218.29L92.1387 220.641Z" fill="#263238"/>
<path d="M126.779 245.882C126.475 246.089 126.147 246.256 125.802 246.381C124.886 246.802 123.917 247.096 122.921 247.255C122.222 247.356 121.509 247.333 120.818 247.185C120.017 247.007 119.282 246.608 118.697 246.031C118.081 245.352 117.654 244.523 117.458 243.628C117.231 242.754 117.109 241.792 116.96 240.848C116.393 237.038 116.044 233.577 115.861 231.059C115.773 229.801 115.721 228.787 115.695 228.079C115.654 227.716 115.654 227.35 115.695 226.987C115.797 227.339 115.856 227.703 115.869 228.07C115.957 228.866 116.061 229.862 116.184 231.033C116.454 233.533 116.856 236.976 117.423 240.778C117.72 242.649 117.885 244.554 119.003 245.716C119.525 246.194 120.147 246.549 120.823 246.756C121.499 246.963 122.213 247.017 122.913 246.914C123.885 246.787 124.839 246.55 125.758 246.206C126.086 246.063 126.429 245.955 126.779 245.882Z" fill="#455A64"/>
<path d="M120.643 227.852C120.643 227.852 120.792 227.738 121.115 227.729C121.577 227.741 122.023 227.907 122.38 228.201C122.654 228.416 122.876 228.69 123.027 229.004C123.178 229.318 123.256 229.662 123.253 230.011C123.205 230.444 123.033 230.855 122.758 231.193C122.483 231.532 122.117 231.784 121.702 231.919C121.288 232.055 120.844 232.068 120.422 231.957C120.001 231.847 119.62 231.617 119.326 231.295C119.12 231.013 118.982 230.688 118.921 230.344C118.861 230 118.88 229.647 118.976 229.311C119.089 228.862 119.351 228.465 119.718 228.184C119.98 228 120.163 227.983 120.172 228C119.74 228.358 119.434 228.845 119.299 229.39C119.242 229.672 119.245 229.962 119.308 230.242C119.371 230.523 119.493 230.786 119.666 231.016C119.909 231.254 120.212 231.42 120.543 231.498C120.873 231.575 121.219 231.56 121.542 231.455C121.865 231.35 122.153 231.158 122.374 230.9C122.596 230.642 122.743 230.329 122.799 229.993C122.805 229.705 122.748 229.418 122.632 229.154C122.516 228.89 122.344 228.654 122.127 228.464C121.711 228.105 121.191 227.89 120.643 227.852Z" fill="#455A64"/>
<path d="M156.506 238.829C156.25 238.9 155.985 238.929 155.72 238.917C155.004 238.949 154.286 238.926 153.573 238.847C151.207 238.613 148.898 237.975 146.748 236.959C144.601 235.938 142.641 234.561 140.953 232.886C140.444 232.382 139.971 231.841 139.539 231.269C139.361 231.073 139.217 230.848 139.111 230.605C139.172 230.553 139.879 231.427 141.189 232.633C144.635 235.811 148.968 237.86 153.608 238.506C155.354 238.759 156.506 238.742 156.506 238.829Z" fill="#455A64"/>
<path d="M101.242 227.45C100.912 228.266 100.478 229.036 99.95 229.74C97.5496 233.253 94.3328 236.129 90.5764 238.122C89.8229 238.569 89.0127 238.913 88.1675 239.144C88.89 238.663 89.6389 238.222 90.4106 237.824C94.0085 235.695 97.1546 232.88 99.6707 229.539C100.159 228.817 100.683 228.119 101.242 227.45Z" fill="#455A64"/>
<path d="M106.225 127.936L100.439 129.195C98.3655 129.627 96.4525 130.626 94.9118 132.081C93.3712 133.536 92.2633 135.389 91.711 137.437L91.6586 137.629C87.6264 154.235 82.8698 191.686 82.8698 191.686L103.816 195.628L107.77 154.025L106.225 127.936Z" fill="#455A64"/>
<path d="M146.547 218.273C146.404 218.361 146.252 218.434 146.094 218.491L144.732 219.042C143.562 219.514 141.834 220.135 139.67 220.842C137.505 221.55 134.922 222.302 132.007 223.036C129.092 223.77 125.898 224.426 122.406 224.968C118.915 225.51 115.695 225.842 112.701 226.069C109.708 226.296 107.002 226.349 104.733 226.331C102.464 226.314 100.631 226.253 99.3652 226.165L97.9077 226.06C97.7369 226.055 97.5672 226.032 97.4015 225.99C97.5695 225.968 97.7397 225.968 97.9077 225.99H99.3652C100.631 225.99 102.464 226.043 104.733 225.99C107.002 225.938 109.69 225.851 112.666 225.632C115.642 225.414 118.924 225.038 122.337 224.513C125.749 223.989 128.97 223.298 131.876 222.617C134.782 221.935 137.383 221.192 139.548 220.519C141.712 219.846 143.449 219.278 144.645 218.85L146.024 218.378C146.194 218.323 146.369 218.287 146.547 218.273Z" fill="#263238"/>
<path d="M99.8191 129.203L118.575 123.024C118.575 123.024 118.479 128.076 125.767 128.268C134.171 128.452 141.223 121.049 141.223 121.049C141.223 121.049 158.679 126.503 162.362 129.466C166.045 132.429 154.044 194.308 154.044 194.308L152.954 212.74C154.035 214.627 154.652 216.746 154.751 218.92C154.751 222.118 154.874 224.251 154.874 224.251C132.478 231.016 110.257 236.872 89.8083 230.325C89.8083 230.325 90.3146 219.453 91.5015 216.49C92.6885 213.527 92.4616 213.256 92.4616 213.256L94.4166 179.17L94.7657 153.579L99.8191 129.203Z" fill="#455A64"/>
<path d="M162.537 129.413C166.197 132.25 168.704 136.322 169.589 140.871C171.125 148.563 174.485 193.137 174.485 193.137L153.119 192.368C153.119 192.368 148.834 155.502 148.834 154.663C148.834 153.824 153.46 135.496 153.739 135.068C154.018 134.64 162.537 129.413 162.537 129.413Z" fill="#455A64"/>
<path d="M158.452 129.842C157.122 130.773 155.845 131.78 154.629 132.857C153.521 134.044 152.483 135.296 151.522 136.606C152.851 133.525 155.342 131.094 158.452 129.842Z" fill="#263238"/>
<path d="M172.381 193.154V198.477C172.381 202.419 163.802 243.68 163.802 243.68L151.077 239.389L155.537 199.272L155.729 192.525L172.381 193.154Z" fill="#FFBF9D"/>
<path d="M150.824 242.194C150.824 242.194 145.736 246.04 144.627 247.561C143.519 249.081 140.752 254.492 138.692 256.065C138.726 256.334 138.83 256.589 138.993 256.805C139.156 257.022 139.372 257.192 139.621 257.298C139.87 257.405 140.142 257.445 140.411 257.414C140.679 257.383 140.936 257.283 141.154 257.122C143.24 255.95 145.063 254.361 146.512 252.455C147.385 251.135 148.258 251.913 148.337 253.067C148.415 254.221 147.403 262.017 147.403 262.017C147.403 262.017 144.968 270.687 145.657 271.631C145.797 271.824 145.979 271.983 146.189 272.096C146.399 272.209 146.631 272.273 146.869 272.284C147.107 272.295 147.345 272.252 147.564 272.159C147.783 272.065 147.979 271.924 148.136 271.744C148.467 271.29 151.208 264.036 151.208 264.036L151.915 260.094C151.915 260.094 150.501 272.583 151.286 273.562C151.405 273.74 151.563 273.888 151.749 273.993C151.934 274.099 152.142 274.159 152.355 274.169C152.569 274.18 152.781 274.139 152.976 274.052C153.171 273.965 153.343 273.833 153.477 273.667C154.018 273.169 154.594 267.645 154.594 267.645L155.869 260.277L155.642 274.323C155.642 274.323 155.79 275.651 156.829 275.704C157.867 275.756 158.574 274.218 158.574 274.218L160.084 259.744C160.084 259.744 159.595 267.785 160.136 268.213C160.861 268.773 161.515 268.589 161.76 267.969C162.24 266.719 162.947 259.482 162.947 259.482L163.61 245.708L164.317 239.074L151.444 238.2L150.824 242.194Z" fill="#FFBF9D"/>
<path d="M117.659 124.641C117.659 124.318 119.046 119.992 119.046 119.992L123.576 127.447L128.664 122.937L141.075 117.614L144.915 122.535L131.291 129.833L125.505 132.297L120.032 131.292L117.659 124.641Z" fill="#455A64"/>
<path d="M148.904 152.618C149.026 152.618 149.777 159.479 150.649 167.974C151.522 176.469 152.055 183.365 151.932 183.374C151.81 183.383 151.06 176.513 150.187 168.018C149.314 159.523 148.782 152.627 148.904 152.618Z" fill="#263238"/>
<path d="M174.485 193.154C174.313 193.194 174.137 193.212 173.961 193.206C173.621 193.206 173.088 193.206 172.46 193.206C171.16 193.206 169.274 193.206 166.944 193.084C164.614 192.962 161.847 192.848 158.784 192.813C158.016 192.813 157.23 192.813 156.41 192.813C155.548 192.818 154.699 192.608 153.94 192.201C153.162 191.727 152.551 191.021 152.194 190.182C151.842 189.358 151.595 188.491 151.461 187.604C151.277 186.722 151.218 185.819 151.286 184.921C151.312 184.47 151.403 184.026 151.557 183.601C151.637 183.372 151.761 183.161 151.924 182.981C152.093 182.796 152.311 182.662 152.552 182.596C152.973 182.502 153.403 182.452 153.835 182.448L155.057 182.386L157.431 182.308C160.512 182.229 163.287 182.255 165.609 182.308L171.125 182.404L172.626 182.448C172.802 182.438 172.978 182.453 173.149 182.491C172.975 182.51 172.8 182.51 172.626 182.491L171.125 182.535L165.609 182.587C163.278 182.587 160.512 182.587 157.44 182.71L155.083 182.806L153.861 182.867C153.465 182.875 153.07 182.922 152.683 183.007C151.985 183.19 151.81 184.143 151.732 184.938C151.673 185.799 151.732 186.663 151.906 187.508C152.038 188.358 152.272 189.188 152.604 189.981C152.913 190.731 153.447 191.366 154.132 191.799C155.519 192.603 157.23 192.315 158.749 192.394C161.838 192.446 164.605 192.638 166.927 192.761C169.248 192.883 171.133 192.988 172.434 193.032L173.926 193.084C174.114 193.09 174.301 193.113 174.485 193.154Z" fill="#263238"/>
<path d="M84.1353 185.612C83.2189 185.078 80.4522 185.664 79.6754 186.923C79.0197 188.052 78.7157 189.351 78.8026 190.655C78.9095 191.207 79.132 191.729 79.4554 192.189C79.7789 192.648 80.1959 193.034 80.6791 193.32C81.4163 193.699 82.2087 193.959 83.0269 194.089L90.9604 195.776C93.1875 196.294 95.4392 196.7 97.7069 196.991C98.8173 197.164 99.9497 197.134 101.05 196.904C101.596 196.781 102.109 196.538 102.55 196.192C102.991 195.845 103.349 195.405 103.598 194.902C103.842 194.181 103.865 193.404 103.666 192.669C103.467 191.935 103.055 191.276 102.481 190.777C101.32 189.79 99.9454 189.087 98.4662 188.723C93.3867 187.097 89.4505 185.891 84.1178 185.612" fill="#455A64"/>
<path d="M94.3555 147.61C94.3708 147.808 94.3708 148.006 94.3555 148.204C94.3555 148.65 94.3555 149.218 94.3118 149.952C94.2595 151.499 94.1809 153.64 94.0849 156.271C93.8929 161.603 93.6572 168.97 93.5001 177.107C93.343 185.244 93.2994 192.621 93.2907 197.961C93.2907 200.583 93.2907 202.733 93.2907 204.28C93.2907 204.988 93.2907 205.556 93.2907 206.028C93.3009 206.227 93.2862 206.427 93.247 206.622C93.2183 206.425 93.2009 206.227 93.1947 206.028C93.1947 205.591 93.1947 205.014 93.1336 204.28C93.0812 202.794 93.0376 200.635 93.0027 197.961C92.9241 192.621 92.9154 185.244 93.0725 177.099C93.2296 168.953 93.5176 161.585 93.7882 156.254C93.9278 153.588 94.0587 151.429 94.1635 149.943C94.2158 149.236 94.2595 148.667 94.2944 148.195C94.2927 147.999 94.3132 147.802 94.3555 147.61Z" fill="#263238"/>
<path d="M123.262 130.488C123.642 129.961 124.062 129.465 124.519 129.002L128.01 125.209L128.21 124.982L128.324 125.27C128.751 126.354 129.197 127.525 129.694 128.766C129.947 129.387 130.183 130.06 130.453 130.68C130.593 130.969 130.794 131.231 131.038 131.257C131.283 131.284 131.562 131.109 131.832 130.881C135.044 128.259 137.942 125.856 140.106 124.152L142.646 122.15C142.946 121.892 143.271 121.664 143.615 121.469C143.354 121.773 143.061 122.048 142.742 122.29L140.29 124.396C138.212 126.144 135.315 128.583 132.103 131.231C131.953 131.385 131.774 131.506 131.576 131.587C131.378 131.668 131.165 131.708 130.951 131.703C130.74 131.651 130.546 131.549 130.384 131.404C130.223 131.259 130.1 131.077 130.026 130.873C129.738 130.191 129.52 129.562 129.275 128.924L127.949 125.428L128.271 125.489L124.667 129.168C124.23 129.641 123.761 130.082 123.262 130.488Z" fill="#263238"/>
<path d="M123.262 128.81C122.663 128.189 122.12 127.516 121.638 126.8C121.577 126.73 121.534 126.721 121.534 126.73C121.499 126.765 121.472 126.806 121.455 126.852L121.246 127.49C121.089 127.945 120.931 128.426 120.757 128.915C120.408 129.938 120.024 131.03 119.622 132.175L119.36 132.918L119.186 132.158L119.134 131.93C118.558 129.492 118.069 127.272 117.728 125.664C117.505 124.804 117.356 123.927 117.283 123.042C117.605 123.871 117.859 124.724 118.043 125.594C118.462 127.185 119.003 129.396 119.57 131.834L119.622 132.061H119.195L120.364 128.81C120.547 128.321 120.722 127.849 120.897 127.403C120.975 127.185 121.062 126.966 121.141 126.756C121.167 126.679 121.212 126.609 121.271 126.553C121.331 126.496 121.403 126.455 121.481 126.433C121.561 126.427 121.641 126.443 121.712 126.48C121.783 126.517 121.842 126.574 121.883 126.643C122.402 127.325 122.863 128.05 123.262 128.81Z" fill="#263238"/>
<path d="M115.625 232.615C115.077 231.393 114.625 230.131 114.272 228.839C113.326 225.307 112.83 221.668 112.797 218.011C112.786 212.598 113.159 207.192 113.914 201.833C114.647 195.767 115.45 189.116 116.297 182.124C118.043 168.14 119.587 155.52 120.731 146.334C121.315 141.78 121.787 138.083 122.118 135.496C122.293 134.238 122.424 133.259 122.52 132.551C122.572 132.236 122.607 131.983 122.642 131.791C122.648 131.701 122.666 131.613 122.694 131.528C122.708 131.615 122.708 131.704 122.694 131.791L122.625 132.56C122.546 133.268 122.441 134.255 122.302 135.514C122.005 138.136 121.577 141.815 121.054 146.378C119.954 155.563 118.435 168.228 116.76 182.212C115.887 189.204 115.084 195.855 114.342 201.912C113.569 207.252 113.164 212.64 113.129 218.037C113.132 221.675 113.577 225.3 114.455 228.831C114.796 230.072 115.075 231.033 115.328 231.662C115.433 231.968 115.511 232.204 115.573 232.397C115.597 232.468 115.615 232.541 115.625 232.615Z" fill="#263238"/>
<path d="M132.792 202.917C132.389 203.132 131.969 203.314 131.536 203.459L128.045 204.796C125.086 205.897 120.975 207.418 116.428 209.026C110.999 210.966 106.164 212.662 103.197 213.667L103.101 213.413L105.213 212.671L105.283 212.819C104.928 213.015 104.56 213.187 104.183 213.335C104.5 213.079 104.842 212.856 105.204 212.671L105.274 212.819L103.197 213.693L103.101 213.44C106.042 212.33 110.842 210.573 116.28 208.624C120.827 206.998 124.946 205.547 127.94 204.525L131.492 203.328C131.912 203.15 132.347 203.012 132.792 202.917Z" fill="#263238"/>
<path d="M211.735 129.841L185.281 118.086L180.743 131.965L186.931 134.648L210.469 150.415L210.513 151.211L218.516 136.038L211.735 129.841Z" fill="#E0E0E0"/>
<path d="M182.846 116.95C182.846 116.95 166.839 114.249 165.181 115.123C163.523 115.997 158.4 122.176 158.138 123.312C157.876 124.449 158.138 129.841 158.138 129.841L160.311 133.04C160.311 133.04 162.563 134.648 162.528 131.633C162.524 129.943 162.307 128.26 161.882 126.625L163.968 123.225L166.927 122.701L168.227 126.197L165.443 130.025L161.358 134.596C161.358 134.596 162.057 136.51 163.793 135.985C165.53 135.461 168.663 132.07 169.798 131.021C170.933 129.972 173.883 129.369 174.319 129.273C174.755 129.177 179.364 128.312 180.062 126.485L181.851 128.6L185.141 118.549L182.846 116.95Z" fill="#C17560"/>
<path d="M234.776 373.749L235.431 405.763L194.506 406.751C194.646 402.94 215.627 394.794 215.627 394.794L214.344 374.299L234.776 373.749Z" fill="#455A64"/>
<g opacity="0.6">
<path d="M228.265 392.758C228.655 392.859 228.994 393.103 229.215 393.44C229.436 393.778 229.524 394.186 229.461 394.585C229.359 394.98 229.112 395.321 228.768 395.54C228.425 395.759 228.011 395.839 227.611 395.765C227.201 395.65 226.847 395.39 226.616 395.032C226.385 394.675 226.291 394.245 226.354 393.824C226.502 393.423 226.798 393.094 227.182 392.906C227.565 392.717 228.006 392.683 228.414 392.81" fill="white"/>
</g>
<g opacity="0.6">
<path d="M235.457 405.763L235.265 402.538L196.095 404.662C196.095 404.662 194.297 405.475 194.532 406.716L235.457 405.763Z" fill="#263238"/>
</g>
<path d="M214.982 394.602C214.982 394.803 215.994 394.864 216.998 395.476C218.001 396.088 218.542 396.883 218.743 396.796C218.944 396.708 218.604 395.598 217.382 394.89C216.16 394.183 214.938 394.427 214.982 394.602Z" fill="#263238"/>
<path d="M210.731 396.438C210.731 396.63 211.604 396.936 212.267 397.74C212.931 398.544 213.184 399.418 213.384 399.4C213.585 399.383 213.681 398.282 212.791 397.294C211.901 396.306 210.731 396.254 210.731 396.438Z" fill="#263238"/>
<path d="M208.427 401.498C208.61 401.498 208.863 400.554 208.322 399.505C207.781 398.456 206.839 398.046 206.751 398.212C206.664 398.378 207.266 398.928 207.694 399.802C208.122 400.676 208.226 401.48 208.427 401.498Z" fill="#263238"/>
<path d="M215.226 389.9C215.313 390.075 216.221 389.787 217.355 389.839C218.49 389.891 219.372 390.206 219.476 390.04C219.581 389.874 218.708 389.166 217.373 389.166C216.038 389.166 215.121 389.752 215.226 389.9Z" fill="#263238"/>
<path d="M216.073 385.154C216.75 385.315 217.457 385.294 218.124 385.093C218.858 384.946 219.572 384.715 220.253 384.403C220.656 384.22 221.044 384.007 221.414 383.765C221.641 383.636 221.847 383.474 222.025 383.284C222.145 383.14 222.216 382.961 222.227 382.774C222.238 382.587 222.189 382.401 222.086 382.244C221.981 382.113 221.848 382.007 221.697 381.934C221.546 381.862 221.381 381.824 221.213 381.824C220.952 381.824 220.693 381.865 220.445 381.947C220.009 382.056 219.585 382.208 219.18 382.401C218.496 382.728 217.869 383.162 217.321 383.686C216.395 384.56 216.09 385.303 216.16 385.338C216.23 385.373 216.692 384.778 217.643 384.053C218.198 383.627 218.805 383.274 219.45 383.004C219.826 382.845 220.214 382.716 220.611 382.62C221.047 382.497 221.414 382.488 221.527 382.672C221.641 382.856 221.58 382.768 221.527 382.899C221.394 383.034 221.245 383.151 221.082 383.249C220.736 383.478 220.378 383.688 220.009 383.878C219.38 384.202 218.723 384.465 218.045 384.665C217.378 384.785 216.719 384.949 216.073 385.154Z" fill="#263238"/>
<path d="M216.343 385.434C216.719 384.861 216.891 384.177 216.832 383.494C216.851 382.754 216.738 382.018 216.5 381.317C216.355 380.902 216.171 380.501 215.95 380.12C215.83 379.857 215.643 379.63 215.409 379.46C215.176 379.29 214.902 379.183 214.615 379.15C214.429 379.15 214.247 379.205 214.092 379.307C213.937 379.41 213.816 379.556 213.742 379.727C213.646 379.962 213.581 380.209 213.55 380.461C213.484 380.907 213.484 381.361 213.55 381.807C213.683 382.554 214.004 383.255 214.484 383.843C215.304 384.857 216.142 385.067 216.16 384.997C216.177 384.927 215.523 384.542 214.886 383.564C214.518 383.006 214.279 382.373 214.187 381.711C214.131 381.328 214.131 380.94 214.187 380.557C214.24 380.129 214.397 379.788 214.554 379.823C214.711 379.858 215.112 380.129 215.287 380.461C215.5 380.799 215.681 381.156 215.828 381.527C216.07 382.164 216.22 382.832 216.273 383.511C216.448 384.665 216.238 385.434 216.343 385.434Z" fill="#263238"/>
<path d="M273.178 360.586L289.9 383.24L260.994 405.964C259.161 403.15 270.097 385.993 270.097 385.993L258.751 371.957L273.178 360.586Z" fill="#455A64"/>
<g opacity="0.6">
<path d="M278.083 377.769C278.411 377.629 278.78 377.62 279.114 377.743C279.448 377.867 279.722 378.114 279.881 378.433C280.005 378.777 279.999 379.155 279.864 379.495C279.729 379.835 279.474 380.113 279.148 380.277C278.801 380.427 278.41 380.436 278.056 380.302C277.703 380.168 277.415 379.902 277.254 379.561C277.157 379.189 277.203 378.794 277.383 378.455C277.562 378.115 277.862 377.855 278.223 377.725" fill="white"/>
</g>
<g opacity="0.6">
<path d="M289.857 383.24L288.111 381.029L261.055 403.665C261.055 403.665 260.182 405.221 260.977 405.99L289.857 383.24Z" fill="#263238"/>
</g>
<path d="M269.478 386.247C269.582 386.378 270.35 385.888 271.363 385.783C272.375 385.679 273.187 385.958 273.274 385.783C273.361 385.609 272.567 385.006 271.328 385.154C270.088 385.303 269.355 386.142 269.478 386.247Z" fill="#263238"/>
<path d="M267.357 389.847C267.426 390.005 268.229 389.76 269.102 389.961C269.975 390.162 270.612 390.669 270.752 390.555C270.891 390.442 270.394 389.594 269.259 389.358C268.125 389.122 267.261 389.716 267.357 389.847Z" fill="#263238"/>
<path d="M268.264 394.733C268.413 394.655 268.099 393.816 267.182 393.352C266.266 392.889 265.375 393.108 265.393 393.274C265.41 393.44 266.135 393.51 266.885 393.903C267.636 394.296 268.116 394.829 268.264 394.733Z" fill="#263238"/>
<path d="M267.261 382.742C267.418 382.821 267.924 382.121 268.762 381.545C269.6 380.968 270.403 380.723 270.385 380.548C270.368 380.373 269.408 380.356 268.43 381.046C267.453 381.737 267.112 382.681 267.261 382.742Z" fill="#263238"/>
<path d="M265.463 378.861C265.463 378.922 266.126 378.573 266.912 377.716C267.366 377.216 267.762 376.665 268.09 376.073C268.284 375.725 268.454 375.362 268.596 374.989C268.693 374.776 268.758 374.549 268.788 374.316C268.811 374.151 268.776 373.983 268.688 373.841C268.6 373.699 268.466 373.592 268.308 373.539C268.159 373.494 268.002 373.487 267.85 373.518C267.698 373.548 267.555 373.615 267.435 373.713C267.249 373.854 267.084 374.022 266.946 374.212C266.696 374.528 266.471 374.864 266.274 375.217C265.943 375.811 265.708 376.454 265.576 377.122C265.387 377.71 265.387 378.343 265.576 378.931C265.672 378.931 265.681 378.241 265.986 377.183C266.168 376.571 266.426 375.983 266.754 375.435C266.946 375.127 267.162 374.835 267.4 374.561C267.645 374.247 267.907 374.037 268.081 374.107C268.256 374.177 268.168 374.15 268.168 374.29C268.143 374.461 268.096 374.629 268.029 374.788C267.895 375.137 267.743 375.478 267.575 375.811C267.286 376.38 266.95 376.924 266.571 377.437C266.174 377.889 265.804 378.365 265.463 378.861Z" fill="#263238"/>
<path d="M265.794 378.914C265.864 378.914 265.794 378.188 265.166 377.262C264.805 376.722 264.35 376.251 263.822 375.872C263.505 375.652 263.165 375.464 262.81 375.313C262.59 375.183 262.34 375.115 262.085 375.115C261.83 375.115 261.58 375.183 261.361 375.313C261.232 375.414 261.134 375.55 261.078 375.705C261.022 375.859 261.012 376.027 261.047 376.187C261.092 376.408 261.172 376.62 261.282 376.816C261.464 377.171 261.703 377.493 261.989 377.769C262.463 378.232 263.05 378.564 263.691 378.73C263.98 378.839 264.288 378.889 264.597 378.877C264.906 378.865 265.209 378.791 265.489 378.66C264.933 378.582 264.382 378.468 263.839 378.32C263.291 378.116 262.798 377.787 262.399 377.358C262.164 377.113 261.967 376.833 261.815 376.528C261.64 376.187 261.57 375.864 261.71 375.802C261.85 375.744 262.002 375.719 262.153 375.73C262.305 375.74 262.452 375.786 262.583 375.864C262.906 375.992 263.216 376.153 263.508 376.344C264.008 376.667 264.456 377.065 264.834 377.524C265.471 378.328 265.707 378.958 265.794 378.914Z" fill="#263238"/>
<path d="M265.628 221.271L267.322 233.987C268.404 246.11 259.728 258.905 256.63 262.051C253.532 265.198 249.648 269.192 249.028 269.917L233.903 320.417L237.394 387.715L211.377 389.533C211.377 389.533 203.827 324.167 205.486 313.539C207.144 302.911 216.395 235.053 216.395 235.053L215.706 225.317L265.628 221.271Z" fill="#263238"/>
<path d="M246.585 271.762L249.22 321.335L283.835 369.772L262.138 385.014L215.444 328.886L214.982 263.948L246.585 271.762Z" fill="#263238"/>
<path d="M249.028 269.952L248.932 270.188L248.697 270.887L247.824 273.588L244.56 283.648C241.828 292.239 238.023 304.169 233.711 317.734V317.777V317.821C233.851 320.714 234.008 323.756 234.156 326.841C235.029 343.193 235.788 357.99 236.347 368.732C236.644 374.072 236.888 378.398 237.063 381.431C237.159 382.899 237.229 384.053 237.281 384.874C237.281 385.25 237.333 385.547 237.351 385.748C237.368 385.949 237.351 386.054 237.351 386.054C237.366 385.953 237.366 385.85 237.351 385.748C237.351 385.512 237.351 385.215 237.351 384.874C237.351 384.053 237.272 382.89 237.22 381.378C237.089 378.354 236.897 374.019 236.652 368.679C236.129 357.929 235.404 343.132 234.61 326.78C234.453 323.694 234.296 320.662 234.148 317.76V317.847L244.848 283.761L247.972 273.649C248.321 272.487 248.592 271.569 248.793 270.922C248.88 270.625 248.941 270.398 248.994 270.214C249.018 270.129 249.03 270.041 249.028 269.952Z" fill="#455A64"/>
<path d="M201.698 88.3438C200.675 88.5653 199.605 88.3991 198.697 87.8773C197.789 87.3555 197.106 86.5152 196.781 85.5186C196.455 84.5221 196.51 83.44 196.934 82.4816C197.359 81.5232 198.123 80.7563 199.08 80.3292C198.34 79.7468 197.808 78.9406 197.564 78.0308C197.319 77.121 197.374 76.1563 197.722 75.2807C198.069 74.4051 198.69 73.6653 199.491 73.1717C200.293 72.6782 201.232 72.4573 202.169 72.5419C202.108 71.6295 202.287 70.717 202.687 69.895C203.087 69.073 203.695 68.37 204.45 67.8558C205.205 67.3417 206.081 67.0342 206.992 66.9639C207.902 66.8937 208.815 67.063 209.64 67.4552C210.574 66.5213 211.793 65.9276 213.103 65.7692C214.413 65.6108 215.738 65.8967 216.867 66.5812C217.728 66.344 218.643 66.3876 219.478 66.7058C220.313 67.024 221.025 67.6002 221.512 68.351C221.998 69.1017 222.233 69.988 222.182 70.8814C222.132 71.7747 221.798 72.6288 221.231 73.3198" fill="#263238"/>
<path d="M201.148 88.9906C201.062 84.4844 202.672 80.1108 205.659 76.7393C208.646 73.3678 212.79 71.2453 217.268 70.7939L218.185 70.6978C228.204 70.2695 234.165 78.5638 234.313 88.5885L236.234 121.949L236.303 123.566L213.795 130.558L212.965 122.089C212.965 122.089 203.243 121.565 202.16 111.994C201.611 107.301 201.323 97.6956 201.148 88.9906Z" fill="#C17560"/>
<path d="M212.887 122.01C217.334 121.561 221.56 119.844 225.062 117.063C225.062 117.063 222.81 124.265 213.166 124.37L212.887 122.01Z" fill="#7C4236"/>
<path d="M204.988 98.2636C205.024 98.6191 205.195 98.947 205.467 99.1784C205.739 99.4099 206.09 99.5268 206.446 99.5047C206.621 99.5026 206.794 99.465 206.955 99.3942C207.115 99.3234 207.26 99.2208 207.38 99.0926C207.499 98.9644 207.592 98.8133 207.652 98.6483C207.712 98.4833 207.738 98.3079 207.729 98.1325C207.698 97.7762 207.529 97.4461 207.258 97.2127C206.987 96.9792 206.637 96.8608 206.28 96.8827C206.104 96.8872 205.931 96.9266 205.771 96.9987C205.61 97.0708 205.466 97.1741 205.346 97.3026C205.225 97.431 205.132 97.5822 205.071 97.7472C205.009 97.9121 204.981 98.0877 204.988 98.2636Z" fill="#263238"/>
<path d="M203.679 93.5179C203.862 93.6752 204.822 92.8012 206.297 92.6439C207.772 92.4866 208.916 93.1246 209.064 92.9323C209.212 92.74 208.924 92.539 208.418 92.2419C207.739 91.8615 206.958 91.7026 206.184 91.7874C205.423 91.8561 204.703 92.1617 204.124 92.6614C203.705 93.0634 203.583 93.4043 203.679 93.5179Z" fill="#263238"/>
<path d="M217.801 96.944C217.832 97.3019 218.002 97.6333 218.274 97.867C218.547 98.1007 218.9 98.218 219.258 98.1938C219.434 98.1893 219.606 98.1498 219.766 98.0777C219.926 98.0055 220.07 97.902 220.19 97.7734C220.309 97.6448 220.402 97.4936 220.462 97.3287C220.522 97.1637 220.549 96.9883 220.541 96.8129C220.508 96.4565 220.337 96.1273 220.064 95.8954C219.792 95.6636 219.44 95.5474 219.084 95.5718C218.908 95.5739 218.735 95.6115 218.575 95.6823C218.414 95.7531 218.27 95.8557 218.15 95.9839C218.03 96.1121 217.937 96.2632 217.877 96.4282C217.817 96.5932 217.791 96.7686 217.801 96.944Z" fill="#263238"/>
<path d="M218.193 92.2769C218.377 92.443 219.337 91.569 220.812 91.4029C222.287 91.2369 223.43 91.8836 223.57 91.6826C223.709 91.4816 223.439 91.2893 222.932 91.0009C222.253 90.6205 221.472 90.4616 220.698 90.5464C219.936 90.611 219.215 90.9172 218.638 91.4204C218.193 91.8749 218.071 92.207 218.193 92.2769Z" fill="#263238"/>
<path d="M213.934 103.744C213.133 103.584 212.315 103.522 211.499 103.56C211.115 103.56 210.757 103.56 210.67 103.272C210.596 102.886 210.641 102.486 210.801 102.127L211.674 99.1464C212.8 94.9162 213.576 91.4465 213.419 91.4028C213.262 91.3591 212.189 94.7589 211.063 98.9891L210.286 101.978C210.096 102.459 210.08 102.991 210.242 103.481C210.31 103.608 210.405 103.718 210.522 103.801C210.638 103.884 210.773 103.94 210.914 103.962C211.129 103.991 211.346 103.991 211.56 103.962C212.358 103.991 213.155 103.917 213.934 103.744Z" fill="#263238"/>
<path d="M217.321 88.9906C217.556 89.3489 218.769 88.8158 220.323 88.606C221.876 88.3962 223.203 88.5273 223.299 88.1166C223.343 87.933 223.037 87.6184 222.426 87.3824C221.671 87.0893 220.852 87.0019 220.052 87.1289C219.26 87.2201 218.507 87.5219 217.87 88.0029C217.434 88.4399 217.242 88.8245 217.321 88.9906Z" fill="#263238"/>
<path d="M202.99 87.3999C203.339 87.697 204.517 87.2338 205.975 87.0678C207.432 86.9017 208.689 87.0153 208.942 86.6395C209.047 86.456 208.82 86.1413 208.252 85.8791C207.465 85.56 206.607 85.4545 205.765 85.5732C204.931 85.6566 204.133 85.958 203.452 86.4472C202.972 86.893 202.841 87.26 202.99 87.3999Z" fill="#263238"/>
<path d="M201.61 84.4982C201.61 84.4982 203.531 78.2404 206.28 76.5536C209.605 74.4997 211.516 78.188 214.746 76.9207C217.975 75.6534 221.161 73.6869 224.826 75.9156C228.841 78.3628 227.296 80.5215 227.959 84.7517C230.639 101.908 234.278 106.462 234.348 98.2463C234.348 97.3723 236.748 96.3934 236.731 92.5915C236.731 87.6709 236.303 81.7364 234.872 78.3802C233.659 75.5572 231.791 73.7131 228.588 71.799C223.535 68.7662 217.076 69.3431 212.738 70.2346C208.401 71.126 200.467 77.0255 201.61 84.4982Z" fill="#263238"/>
<path d="M233.72 98.0539C233.696 97.701 233.744 97.3469 233.861 97.013C233.977 96.6791 234.16 96.3722 234.398 96.1109C234.636 95.8497 234.925 95.6393 235.246 95.4926C235.568 95.3458 235.915 95.2657 236.268 95.2571C238.075 95.2571 240.161 96.0612 240.423 99.7669C240.877 106.339 234.191 105.439 234.165 105.256C234.139 105.072 233.903 100.798 233.72 98.0539Z" fill="#C17560"/>
<path d="M235.422 102.677C235.422 102.677 235.544 102.756 235.745 102.826C235.883 102.884 236.031 102.914 236.181 102.914C236.331 102.914 236.479 102.884 236.618 102.826C237.019 102.526 237.334 102.126 237.533 101.666C237.732 101.206 237.808 100.702 237.752 100.204C237.728 99.6393 237.579 99.0871 237.316 98.5871C237.238 98.3864 237.113 98.2071 236.952 98.0643C236.792 97.9214 236.599 97.819 236.391 97.7655C236.257 97.7406 236.119 97.7638 236.001 97.8309C235.883 97.8981 235.792 98.005 235.745 98.1326C235.666 98.3161 235.745 98.4472 235.684 98.4647C235.623 98.4822 235.535 98.3598 235.57 98.0889C235.592 97.9234 235.672 97.7712 235.797 97.6606C235.967 97.5098 236.19 97.4314 236.417 97.4421C236.69 97.4779 236.949 97.5824 237.17 97.746C237.392 97.9096 237.568 98.1268 237.682 98.3773C238.001 98.9287 238.181 99.5498 238.206 100.187C238.258 101.515 237.665 102.809 236.731 103.141C236.559 103.207 236.374 103.232 236.191 103.214C236.007 103.196 235.831 103.135 235.675 103.036C235.448 102.835 235.396 102.695 235.422 102.677Z" fill="#7C4236"/>
<path d="M232.306 85.3634C231.579 86.0981 230.679 86.6364 229.688 86.9279C229.182 87.0656 228.643 87.0115 228.174 86.7761C227.706 86.5406 227.34 86.1403 227.148 85.6519C227.026 85.1974 227.078 84.6555 226.747 84.3409C226.415 84.0262 225.699 84.1486 225.158 84.2622C224.208 84.4352 223.228 84.2749 222.382 83.8085C221.536 83.342 220.877 82.5978 220.515 81.7014C220.256 82.0551 219.873 82.2983 219.443 82.3825C219.013 82.4667 218.567 82.3858 218.193 82.1559C217.46 81.6657 216.796 81.0776 216.221 80.4079C215.928 80.0828 215.56 79.8335 215.15 79.6813C214.739 79.5291 214.298 79.4786 213.864 79.5339C213.416 79.7337 212.948 79.886 212.468 79.9883C211.595 79.9883 211.08 79.0357 210.862 78.2403C210.644 77.445 210.443 76.4137 209.675 76.0204C208.896 75.8002 208.065 75.8621 207.327 76.1952C206.551 76.3875 205.503 76.3088 205.224 75.5572C205.168 75.3521 205.155 75.1377 205.185 74.9273C205.215 74.7168 205.287 74.5147 205.399 74.3336C205.851 73.4875 206.576 72.8187 207.454 72.435C208.333 72.0513 209.315 71.975 210.242 72.2185C210.45 71.0882 210.99 70.0455 211.792 69.2235C212.594 68.4014 213.622 67.8372 214.746 67.6028C215.87 67.3684 217.038 67.4744 218.101 67.9073C219.164 68.3402 220.074 69.0804 220.716 70.0335C221.347 69.3319 222.138 68.7933 223.021 68.4635C223.905 68.1337 224.855 68.0225 225.791 68.1392C226.726 68.2559 227.62 68.5971 228.396 69.1338C229.171 69.6706 229.806 70.387 230.246 71.2221C231.027 70.939 231.872 70.8907 232.68 71.0833C233.487 71.2759 234.22 71.7009 234.789 72.3059C235.358 72.9109 235.738 73.6694 235.881 74.4879C236.024 75.3064 235.926 76.149 235.596 76.9119C236.234 77.1531 236.801 77.552 237.244 78.0716C237.686 78.5912 237.99 79.2145 238.128 79.8835C238.285 81.2382 237.106 82.724 235.762 82.5055C236.077 83.0132 236.187 83.6216 236.071 84.2077C235.955 84.7938 235.622 85.314 235.138 85.6634C234.654 86.0128 234.055 86.1653 233.463 86.0901C232.871 86.015 232.33 85.7178 231.948 85.2586" fill="#263238"/>
<path d="M209.937 74.1851C209.933 74.2228 209.933 74.2609 209.937 74.2987C209.937 74.3773 209.937 74.4997 210.015 74.6483C210.144 75.0851 210.348 75.4962 210.618 75.8631C211.039 76.446 211.589 76.9244 212.224 77.2615C213.063 77.7267 214.032 77.9018 214.982 77.7597L214.851 77.6199C214.72 78.2382 214.833 78.883 215.165 79.4203C215.519 79.9774 215.951 80.4808 216.448 80.9149C216.695 81.1686 216.967 81.397 217.259 81.5966C217.589 81.7766 217.958 81.8727 218.333 81.8763C218.725 81.892 219.115 81.8119 219.469 81.6429C219.824 81.4738 220.132 81.221 220.367 80.9061H220.113C220.281 81.5714 220.585 82.1946 221.005 82.7362C221.426 83.2778 221.955 83.7261 222.557 84.0525C223.224 84.4504 224.003 84.6192 224.774 84.5332C225.499 84.4274 226.202 84.1999 226.851 83.8602L226.668 83.7991C227.084 84.5568 227.684 85.1971 228.413 85.6607C228.749 85.8969 229.134 86.0549 229.538 86.1229C229.943 86.191 230.358 86.1674 230.753 86.054C231.425 85.8378 232.019 85.4284 232.462 84.8768C232.904 84.3252 233.175 83.6556 233.24 82.9513L233.1 83.0299C233.828 83.3268 234.635 83.3638 235.387 83.1348C235.947 82.9665 236.458 82.6669 236.879 82.2608C237.147 82.0102 237.369 81.7143 237.534 81.3868C237.589 81.2749 237.633 81.1578 237.665 81.0372C237.445 81.4686 237.15 81.8565 236.792 82.1822C236.371 82.5542 235.869 82.8234 235.326 82.9688C234.614 83.1763 233.852 83.13 233.17 82.8377L233.039 82.7852V82.9251C232.967 83.5826 232.706 84.2052 232.288 84.7171C231.87 85.2291 231.312 85.6085 230.683 85.8093C230.322 85.9099 229.943 85.9276 229.574 85.861C229.205 85.7944 228.856 85.6453 228.553 85.4247C227.866 84.9894 227.299 84.3883 226.904 83.6767L226.843 83.5543L226.72 83.6155C226.1 83.94 225.431 84.1586 224.739 84.2623C224.024 84.338 223.304 84.1784 222.688 83.8078C222.117 83.4945 221.618 83.0652 221.223 82.5475C220.828 82.0297 220.545 81.4349 220.393 80.8012L220.323 80.4953L220.14 80.7575C219.936 81.0387 219.666 81.2654 219.354 81.4178C219.042 81.5702 218.697 81.6436 218.35 81.6315C218.018 81.6283 217.692 81.5444 217.399 81.3868C217.124 81.2048 216.87 80.9939 216.64 80.7575C216.154 80.3433 215.73 79.8605 215.383 79.3242C215.073 78.843 214.964 78.2596 215.078 77.6985V77.5412H214.912C214.015 77.6817 213.096 77.5284 212.293 77.1042C211.67 76.7918 211.127 76.3403 210.705 75.7845C210.357 75.3007 210.097 74.7593 209.937 74.1851Z" fill="#455A64"/>
<path d="M212.957 108.787C212.957 108.857 213.332 109.023 214.013 109.066C214.914 109.116 215.813 108.942 216.631 108.56C217.441 108.18 218.148 107.61 218.691 106.899C219.092 106.348 219.215 105.946 219.153 105.911C219.092 105.876 218.167 107.249 216.395 108.053C214.624 108.857 213 108.621 212.957 108.787Z" fill="#263238"/>
<path d="M160.311 133.04L167.991 244.222L173.106 243.461L165.312 133.04H160.311Z" fill="#F7A56D"/>
<path d="M170.077 199.997C169.546 200.157 168.999 200.256 168.445 200.294C167.898 200.389 167.342 200.428 166.787 200.408C167.865 200.149 168.969 200.011 170.077 199.997Z" fill="#263238"/>
<path d="M169.859 196.073C169.263 196.213 168.655 196.295 168.044 196.318C167.439 196.397 166.828 196.414 166.22 196.37C166.813 196.235 167.418 196.156 168.026 196.134C168.634 196.06 169.248 196.04 169.859 196.073Z" fill="#263238"/>
<path d="M169.493 192.734C168.295 192.95 167.079 193.05 165.862 193.032C167.06 192.816 168.276 192.717 169.493 192.734Z" fill="#263238"/>
<path d="M169.318 189.169C168.12 189.384 166.904 189.484 165.687 189.466C166.885 189.25 168.101 189.151 169.318 189.169Z" fill="#263238"/>
<path d="M168.995 185.367C168.402 185.503 167.797 185.582 167.188 185.603C166.583 185.676 165.973 185.697 165.364 185.664C166.561 185.437 167.778 185.337 168.995 185.367Z" fill="#263238"/>
<path d="M168.637 182.019C167.441 182.246 166.224 182.346 165.007 182.316C165.6 182.18 166.205 182.101 166.813 182.08C167.418 182.007 168.029 181.986 168.637 182.019Z" fill="#263238"/>
<path d="M168.445 178.453C167.249 178.68 166.032 178.78 164.815 178.75C165.408 178.614 166.013 178.535 166.621 178.514C167.226 178.441 167.837 178.42 168.445 178.453Z" fill="#263238"/>
<path d="M168.21 175.001C167.636 175.131 167.052 175.208 166.464 175.228C165.886 175.307 165.301 175.324 164.719 175.281C165.29 175.14 165.875 175.061 166.464 175.045C167.043 174.966 167.628 174.952 168.21 175.001Z" fill="#263238"/>
<path d="M167.991 171.645C166.793 171.86 165.578 171.96 164.361 171.942C165.557 171.715 166.774 171.615 167.991 171.645Z" fill="#263238"/>
<path d="M167.834 168.079C167.239 168.219 166.63 168.298 166.019 168.315C165.415 168.399 164.803 168.42 164.195 168.376C164.79 168.235 165.398 168.153 166.01 168.131C166.615 168.052 167.226 168.035 167.834 168.079Z" fill="#263238"/>
<path d="M167.503 164.312C166.906 164.447 166.298 164.526 165.687 164.548C165.082 164.622 164.472 164.642 163.863 164.609C164.459 164.469 165.067 164.387 165.679 164.364C166.283 164.285 166.894 164.268 167.503 164.312Z" fill="#263238"/>
<path d="M167.136 160.93C165.94 161.157 164.723 161.256 163.505 161.227C164.703 161.011 165.919 160.912 167.136 160.93Z" fill="#263238"/>
<path d="M166.979 157.364C166.383 157.504 165.775 157.586 165.164 157.608C164.559 157.687 163.948 157.705 163.34 157.661C164.54 157.445 165.759 157.345 166.979 157.364Z" fill="#263238"/>
<path d="M166.7 153.763C166.104 153.903 165.496 153.985 164.884 154.007C164.28 154.086 163.668 154.104 163.06 154.06C163.656 153.92 164.264 153.841 164.876 153.824C165.48 153.74 166.091 153.719 166.7 153.763Z" fill="#263238"/>
<path d="M166.351 150.424C165.755 150.564 165.147 150.643 164.535 150.66C163.931 150.744 163.32 150.765 162.711 150.721C163.304 150.58 163.909 150.498 164.518 150.476C165.125 150.398 165.739 150.38 166.351 150.424Z" fill="#263238"/>
<path d="M166.185 146.832C165.589 146.972 164.981 147.051 164.369 147.068C163.765 147.152 163.154 147.172 162.545 147.129C163.141 146.988 163.749 146.906 164.361 146.884C164.965 146.805 165.577 146.788 166.185 146.832Z" fill="#263238"/>
<path d="M165.827 143.056C165.255 143.202 164.67 143.295 164.081 143.336C163.476 143.41 162.866 143.43 162.257 143.397C162.853 143.257 163.461 143.175 164.073 143.152C164.653 143.063 165.24 143.031 165.827 143.056Z" fill="#263238"/>
<path d="M165.487 139.709C164.29 139.936 163.073 140.036 161.856 140.006C163.054 139.79 164.27 139.691 165.487 139.709Z" fill="#263238"/>
<path d="M165.329 136.143C164.734 136.283 164.126 136.365 163.514 136.388C162.909 136.466 162.298 136.484 161.69 136.44C162.286 136.3 162.894 136.221 163.505 136.204C164.11 136.12 164.721 136.099 165.329 136.143Z" fill="#263238"/>
<path d="M171.552 221.629C171.019 221.779 170.472 221.875 169.92 221.917C169.376 222.017 168.823 222.055 168.271 222.031C168.802 221.871 169.349 221.774 169.903 221.742C170.447 221.642 171 221.604 171.552 221.629Z" fill="#263238"/>
<path d="M170.976 217.731C169.899 217.943 168.801 218.034 167.703 218.002C168.235 217.867 168.779 217.79 169.327 217.775C169.873 217.701 170.426 217.686 170.976 217.731Z" fill="#263238"/>
<path d="M170.976 214.357C170.384 214.498 169.778 214.58 169.17 214.602C168.562 214.681 167.948 214.698 167.337 214.654C167.933 214.519 168.541 214.44 169.152 214.418C169.757 214.345 170.368 214.324 170.976 214.357Z" fill="#263238"/>
<path d="M170.81 210.791C169.614 211.018 168.397 211.118 167.18 211.088C167.773 210.952 168.378 210.873 168.986 210.852C169.591 210.779 170.202 210.758 170.81 210.791Z" fill="#263238"/>
<path d="M170.479 206.989C169.282 207.216 168.065 207.316 166.848 207.287C168.046 207.071 169.262 206.971 170.479 206.989Z" fill="#263238"/>
<path d="M170.121 203.642C169.525 203.782 168.917 203.861 168.306 203.878C167.701 203.962 167.09 203.982 166.482 203.939C167.077 203.798 167.685 203.716 168.297 203.694C168.902 203.615 169.513 203.598 170.121 203.642Z" fill="#263238"/>
<path d="M172.32 232.379C171.749 232.522 171.163 232.598 170.575 232.606C169.997 232.687 169.411 232.704 168.829 232.659C169.401 232.521 169.987 232.444 170.575 232.431C171.153 232.351 171.738 232.334 172.32 232.379Z" fill="#263238"/>
<path d="M172.05 228.568C171.478 228.71 170.893 228.789 170.304 228.804C169.726 228.883 169.141 228.9 168.559 228.857C169.13 228.716 169.716 228.637 170.304 228.621C170.883 228.542 171.468 228.525 172.05 228.568Z" fill="#263238"/>
<path d="M171.823 225.212C170.626 225.439 169.409 225.539 168.192 225.509C168.785 225.373 169.39 225.294 169.999 225.273C170.604 225.2 171.214 225.179 171.823 225.212Z" fill="#263238"/>
<path d="M164.125 137.218L164.291 139.027H164.029L163.889 137.436L163.479 137.48V137.253L164.125 137.218Z" fill="white"/>
<path d="M165.12 142.235V142.462L163.82 142.576V142.401L164.492 141.623C164.553 141.568 164.603 141.501 164.636 141.426C164.669 141.35 164.685 141.268 164.684 141.186C164.684 141.002 164.518 140.898 164.265 140.924C164.178 140.928 164.093 140.951 164.016 140.992C163.939 141.033 163.872 141.09 163.82 141.16L163.636 141.029C163.709 140.926 163.804 140.842 163.915 140.783C164.025 140.724 164.148 140.691 164.273 140.688C164.649 140.688 164.911 140.828 164.937 141.142C164.944 141.253 164.926 141.365 164.884 141.468C164.841 141.571 164.776 141.663 164.692 141.737L164.186 142.322L165.12 142.235Z" fill="white"/>
<path d="M165.338 145.53C165.338 145.836 165.164 146.098 164.701 146.141C164.46 146.172 164.216 146.116 164.012 145.984L164.116 145.766C164.283 145.879 164.483 145.932 164.684 145.914C164.954 145.914 165.094 145.748 165.076 145.556C165.059 145.364 164.91 145.25 164.605 145.276H164.457V145.093L164.858 144.49L163.985 144.568V144.35L165.181 144.236V144.411L164.762 145.04C164.832 145.033 164.903 145.04 164.971 145.061C165.038 145.082 165.1 145.116 165.154 145.162C165.208 145.208 165.252 145.264 165.284 145.327C165.315 145.39 165.334 145.459 165.338 145.53Z" fill="white"/>
<path d="M165.766 149.165H165.425V149.611H165.181L165.137 149.165L164.134 149.262V149.078L164.945 147.811H165.225L164.448 149.034L165.137 148.973V148.58H165.382V148.973H165.731L165.766 149.165Z" fill="white"/>
<path d="M165.827 152.53C165.827 152.845 165.652 153.116 165.19 153.16C164.951 153.189 164.71 153.133 164.509 153.002L164.605 152.784C164.771 152.897 164.972 152.95 165.172 152.932C165.443 152.932 165.591 152.766 165.565 152.565C165.539 152.364 165.408 152.251 164.989 152.286H164.579V151.333L165.6 151.237V151.464L164.797 151.543V152.076H164.998C165.521 152.006 165.757 152.216 165.827 152.53Z" fill="white"/>
<path d="M166.263 155.843C166.269 155.924 166.258 156.006 166.231 156.082C166.204 156.159 166.161 156.229 166.105 156.289C166.049 156.348 165.982 156.395 165.907 156.426C165.832 156.458 165.751 156.474 165.67 156.472C165.19 156.516 164.884 156.219 164.797 155.642C164.775 155.523 164.777 155.401 164.804 155.283C164.832 155.165 164.883 155.054 164.955 154.957C165.027 154.86 165.119 154.78 165.224 154.72C165.329 154.66 165.445 154.623 165.565 154.611C165.722 154.588 165.882 154.61 166.028 154.672L165.94 154.89C165.833 154.834 165.711 154.812 165.591 154.829C165.225 154.829 165.006 155.117 165.05 155.572C165.046 155.592 165.046 155.613 165.05 155.633C165.104 155.549 165.177 155.479 165.264 155.431C165.351 155.382 165.448 155.355 165.548 155.353C165.627 155.331 165.71 155.327 165.792 155.341C165.873 155.354 165.951 155.385 166.019 155.432C166.087 155.478 166.144 155.539 166.186 155.61C166.229 155.681 166.255 155.761 166.263 155.843ZM166.01 155.843C166.01 155.624 165.818 155.511 165.565 155.528C165.514 155.528 165.463 155.538 165.416 155.558C165.369 155.578 165.326 155.607 165.29 155.644C165.255 155.681 165.227 155.724 165.208 155.772C165.189 155.819 165.18 155.87 165.181 155.922C165.181 156.105 165.364 156.254 165.644 156.227C165.691 156.23 165.738 156.223 165.783 156.206C165.827 156.189 165.868 156.164 165.902 156.131C165.936 156.099 165.963 156.059 165.982 156.016C166.001 155.972 166.01 155.925 166.01 155.878V155.843Z" fill="white"/>
<path d="M166.394 158.395V158.579L165.809 160.283H165.539L166.106 158.631L165.233 158.71V159.033H164.989L164.937 158.482L166.394 158.395Z" fill="white"/>
<path d="M166.621 163.08C166.621 163.412 166.386 163.639 165.949 163.683C165.513 163.726 165.216 163.543 165.181 163.211C165.17 163.113 165.192 163.015 165.243 162.932C165.293 162.848 165.37 162.783 165.46 162.747C165.381 162.723 165.311 162.674 165.259 162.609C165.208 162.543 165.177 162.464 165.172 162.38C165.172 162.074 165.382 161.865 165.775 161.83C166.167 161.795 166.447 161.952 166.482 162.258C166.492 162.343 166.476 162.429 166.435 162.504C166.394 162.579 166.331 162.64 166.255 162.678C166.352 162.693 166.441 162.741 166.508 162.814C166.575 162.887 166.615 162.981 166.621 163.08ZM165.425 162.363C165.425 162.546 165.6 162.643 165.844 162.616C166.089 162.59 166.246 162.468 166.228 162.293C166.211 162.118 166.036 162.013 165.792 162.04C165.548 162.066 165.408 162.188 165.425 162.363ZM166.359 163.097C166.359 162.896 166.159 162.791 165.871 162.817C165.583 162.844 165.425 162.983 165.443 163.184C165.46 163.385 165.644 163.499 165.923 163.473C166.202 163.447 166.377 163.298 166.359 163.097Z" fill="white"/>
<path d="M166.77 166.34C166.792 166.458 166.789 166.581 166.762 166.698C166.735 166.816 166.684 166.927 166.611 167.024C166.539 167.121 166.448 167.202 166.343 167.262C166.238 167.321 166.122 167.359 166.001 167.371C165.847 167.391 165.691 167.37 165.548 167.31L165.626 167.1C165.738 167.15 165.862 167.169 165.984 167.152C166.351 167.152 166.56 166.864 166.516 166.41V166.348C166.464 166.434 166.391 166.504 166.304 166.553C166.217 166.602 166.119 166.628 166.019 166.628C165.943 166.644 165.864 166.644 165.788 166.628C165.712 166.612 165.64 166.579 165.577 166.533C165.514 166.487 165.462 166.428 165.424 166.36C165.386 166.292 165.363 166.216 165.356 166.139C165.35 166.058 165.36 165.977 165.387 165.901C165.414 165.825 165.456 165.755 165.511 165.696C165.566 165.637 165.632 165.59 165.706 165.558C165.78 165.526 165.86 165.509 165.94 165.509C166.412 165.466 166.7 165.763 166.77 166.34ZM166.42 166.025C166.42 165.841 166.237 165.693 165.958 165.719C165.908 165.718 165.858 165.727 165.812 165.746C165.766 165.765 165.724 165.794 165.689 165.83C165.655 165.866 165.628 165.909 165.611 165.956C165.594 166.004 165.588 166.054 165.591 166.104C165.591 166.322 165.783 166.445 166.036 166.418C166.134 166.419 166.228 166.382 166.299 166.315C166.37 166.249 166.414 166.157 166.42 166.06V166.025Z" fill="white"/>
<path d="M165.12 169.197L165.286 171.007H165.033L164.884 169.416H164.474V169.189L165.12 169.197Z" fill="white"/>
<path d="M165.6 170.063C165.548 169.477 165.827 169.11 166.255 169.067C166.682 169.023 167.023 169.337 167.075 169.941C167.127 170.544 166.848 170.893 166.42 170.937C165.993 170.981 165.652 170.657 165.6 170.063ZM166.822 169.958C166.822 169.486 166.56 169.276 166.272 169.302C165.984 169.329 165.818 169.582 165.862 170.045C165.905 170.509 166.124 170.718 166.403 170.692C166.682 170.666 166.865 170.43 166.822 169.958Z" fill="white"/>
<path d="M166.132 172.492L166.298 174.31H166.045L165.897 172.72H165.495V172.492H166.132Z" fill="white"/>
<path d="M167.092 172.405L167.258 174.223H167.005L166.857 172.632H166.447V172.405H167.092Z" fill="white"/>
<path d="M165.975 176.067L166.141 177.885H165.879L165.74 176.303H165.329V176.076L165.975 176.067Z" fill="white"/>
<path d="M167.791 177.501V177.728L166.49 177.85V177.675L167.162 176.889C167.337 176.688 167.363 176.574 167.354 176.461C167.346 176.347 167.188 176.172 166.935 176.19C166.847 176.194 166.762 176.218 166.684 176.26C166.607 176.303 166.541 176.362 166.49 176.434L166.307 176.295C166.384 176.197 166.48 176.117 166.59 176.06C166.7 176.003 166.82 175.969 166.944 175.962C167.319 175.962 167.581 176.093 167.607 176.408C167.616 176.519 167.598 176.631 167.555 176.734C167.513 176.837 167.447 176.929 167.363 177.002L166.857 177.588L167.791 177.501Z" fill="white"/>
<path d="M166.281 179.581L166.403 181.398H166.141L166.036 179.808H165.626V179.581H166.281Z" fill="white"/>
<path d="M168 180.752C168 181.058 167.817 181.329 167.354 181.355C167.113 181.381 166.871 181.319 166.673 181.18L166.778 180.97C166.941 181.085 167.138 181.141 167.337 181.128C167.607 181.128 167.756 180.97 167.747 180.778C167.738 180.586 167.59 180.472 167.275 180.49H167.127V180.306L167.546 179.721L166.673 179.773V179.546L167.869 179.467V179.651L167.433 180.262C167.79 180.28 167.982 180.472 168 180.752Z" fill="white"/>
<path d="M166.534 183.182L166.656 185H166.403L166.298 183.409H165.888V183.182H166.534Z" fill="white"/>
<path d="M168.602 184.414H168.262V184.86H168.009V184.414L166.996 184.484V184.3L167.869 183.051H168.149L167.337 184.257L168.035 184.204V183.811H168.279V184.213H168.62L168.602 184.414Z" fill="white"/>
<path d="M166.787 186.844L166.909 188.653H166.656L166.543 187.062H166.141V186.835L166.787 186.844Z" fill="white"/>
<path d="M168.541 187.997C168.541 188.312 168.358 188.583 167.895 188.609C167.655 188.634 167.413 188.572 167.215 188.434L167.319 188.224C167.48 188.345 167.679 188.401 167.878 188.382C168.149 188.382 168.297 188.224 168.279 188.023C168.262 187.822 168.131 187.7 167.712 187.735H167.302V186.774L168.332 186.712V186.931L167.573 187.036V187.534H167.773C168.288 187.464 168.524 187.674 168.541 187.997Z" fill="white"/>
<path d="M166.97 190.532L167.092 192.35H166.839L166.735 190.759H166.324V190.541L166.97 190.532Z" fill="white"/>
<path d="M168.855 191.642C168.859 191.723 168.846 191.804 168.817 191.879C168.788 191.955 168.745 192.024 168.688 192.082C168.632 192.14 168.564 192.186 168.489 192.217C168.414 192.248 168.334 192.264 168.253 192.262C167.764 192.262 167.468 191.983 167.433 191.388C167.413 191.269 167.418 191.146 167.448 191.029C167.478 190.912 167.533 190.802 167.607 190.706C167.682 190.611 167.776 190.532 167.882 190.475C167.989 190.418 168.106 190.384 168.227 190.375C168.382 190.363 168.538 190.39 168.681 190.453L168.602 190.663C168.491 190.611 168.367 190.59 168.244 190.602C167.878 190.602 167.66 190.873 167.686 191.327C167.686 191.327 167.686 191.327 167.686 191.388C167.743 191.306 167.818 191.239 167.906 191.192C167.994 191.145 168.092 191.119 168.192 191.117C168.271 191.102 168.352 191.104 168.43 191.123C168.508 191.142 168.581 191.178 168.644 191.228C168.706 191.277 168.758 191.34 168.795 191.412C168.831 191.483 168.852 191.562 168.855 191.642ZM168.611 191.642C168.611 191.432 168.428 191.301 168.166 191.318C168.115 191.316 168.064 191.325 168.017 191.344C167.97 191.363 167.927 191.392 167.892 191.428C167.857 191.465 167.83 191.509 167.813 191.557C167.796 191.605 167.789 191.656 167.794 191.707C167.798 191.758 167.813 191.807 167.838 191.852C167.863 191.896 167.897 191.935 167.938 191.965C167.979 191.995 168.026 192.016 168.076 192.027C168.126 192.038 168.177 192.037 168.227 192.026C168.325 192.029 168.42 191.993 168.492 191.926C168.564 191.859 168.607 191.766 168.611 191.668V191.642Z" fill="white"/>
<path d="M167.311 193.853L167.433 195.671H167.171L167.066 194.08H166.656V193.853H167.311Z" fill="white"/>
<path d="M169.03 193.74V193.914L168.41 195.61H168.131L168.742 193.967L167.913 194.028V194.351H167.66V193.801L169.03 193.74Z" fill="white"/>
<path d="M167.311 197.524L167.433 199.333H167.171L167.066 197.751H166.656V197.524H167.311Z" fill="white"/>
<path d="M169.222 198.669C169.222 198.992 168.978 199.219 168.533 199.246C168.087 199.272 167.808 199.097 167.782 198.765C167.772 198.667 167.795 198.568 167.847 198.484C167.899 198.4 167.978 198.336 168.07 198.302C167.991 198.275 167.922 198.225 167.872 198.158C167.822 198.09 167.793 198.01 167.791 197.926C167.791 197.629 168.018 197.419 168.41 197.393C168.803 197.367 169.082 197.533 169.1 197.839C169.11 197.922 169.093 198.007 169.052 198.081C169.012 198.154 168.949 198.213 168.873 198.249C168.969 198.272 169.054 198.325 169.117 198.401C169.18 198.476 169.217 198.571 169.222 198.669ZM168.96 198.669C168.96 198.468 168.768 198.354 168.48 198.372C168.192 198.389 168.026 198.529 168.044 198.73C168.061 198.931 168.236 199.053 168.524 199.027C168.812 199.001 168.978 198.879 168.96 198.678V198.669ZM168.087 197.908C168.087 198.092 168.253 198.197 168.498 198.179C168.742 198.162 168.899 198.04 168.882 197.856C168.864 197.673 168.707 197.576 168.463 197.594C168.218 197.611 168.035 197.742 168.053 197.917L168.087 197.908Z" fill="white"/>
<path d="M167.747 201.361L167.869 203.179H167.607L167.503 201.588H167.092V201.361H167.747Z" fill="white"/>
<path d="M169.554 202.13C169.572 202.249 169.566 202.37 169.535 202.487C169.504 202.603 169.45 202.712 169.376 202.806C169.301 202.9 169.208 202.978 169.102 203.035C168.996 203.092 168.879 203.126 168.759 203.135C168.602 203.154 168.442 203.13 168.297 203.065L168.384 202.855C168.495 202.909 168.619 202.93 168.742 202.917C169.109 202.917 169.327 202.646 169.292 202.191V202.121C169.237 202.205 169.162 202.275 169.073 202.324C168.985 202.372 168.886 202.399 168.786 202.401C168.708 202.414 168.629 202.412 168.553 202.393C168.477 202.375 168.405 202.341 168.343 202.293C168.281 202.245 168.229 202.185 168.191 202.117C168.153 202.048 168.13 201.972 168.122 201.894C168.119 201.813 168.132 201.732 168.161 201.656C168.189 201.581 168.233 201.512 168.29 201.453C168.346 201.395 168.414 201.349 168.489 201.318C168.563 201.287 168.644 201.272 168.725 201.273C169.213 201.238 169.51 201.553 169.554 202.13ZM169.205 201.807C169.205 201.614 169.03 201.466 168.751 201.483C168.471 201.501 168.358 201.649 168.375 201.859C168.393 202.069 168.559 202.2 168.812 202.182C169.065 202.165 169.222 202.008 169.205 201.807Z" fill="white"/>
<path d="M168.236 206.377V206.605L166.935 206.692V206.517L167.625 205.757C167.687 205.702 167.737 205.635 167.772 205.56C167.807 205.485 167.825 205.403 167.826 205.32C167.826 205.136 167.668 205.031 167.415 205.049C167.329 205.049 167.243 205.07 167.166 205.109C167.088 205.149 167.021 205.206 166.97 205.276L166.778 205.136C166.857 205.039 166.955 204.96 167.066 204.905C167.178 204.849 167.3 204.818 167.424 204.813C167.799 204.813 168.061 204.97 168.079 205.285C168.085 205.396 168.064 205.508 168.019 205.61C167.973 205.711 167.904 205.801 167.817 205.871L167.302 206.447L168.236 206.377Z" fill="white"/>
<path d="M168.393 205.687C168.349 205.093 168.646 204.734 169.074 204.708C169.501 204.682 169.833 204.996 169.868 205.582C169.903 206.168 169.615 206.535 169.196 206.561C168.777 206.587 168.445 206.264 168.393 205.687ZM169.615 205.6C169.615 205.136 169.37 204.918 169.082 204.935C168.794 204.953 168.62 205.206 168.646 205.669C168.672 206.133 168.89 206.351 169.178 206.334C169.466 206.316 169.641 206.063 169.615 205.6Z" fill="white"/>
<path d="M168.96 209.76V209.987L167.66 210.075V209.9L168.358 209.131C168.419 209.077 168.468 209.011 168.502 208.937C168.536 208.864 168.556 208.784 168.559 208.702C168.559 208.519 168.402 208.414 168.148 208.432C168.06 208.43 167.973 208.45 167.894 208.49C167.815 208.529 167.747 208.587 167.695 208.659L167.511 208.51C167.591 208.415 167.689 208.338 167.8 208.283C167.912 208.229 168.033 208.199 168.157 208.196C168.533 208.196 168.794 208.344 168.812 208.659C168.816 208.771 168.795 208.883 168.749 208.986C168.704 209.089 168.636 209.18 168.55 209.253L168.035 209.821L168.96 209.76Z" fill="white"/>
<path d="M169.632 208.082L169.754 209.9H169.501L169.388 208.309H168.978V208.082H169.632Z" fill="white"/>
<path d="M168.725 213.5V213.728L167.424 213.815V213.632L168.122 212.871C168.297 212.67 168.323 212.557 168.314 212.443C168.306 212.329 168.166 212.146 167.913 212.163C167.824 212.166 167.737 212.188 167.659 212.229C167.58 212.27 167.512 212.328 167.459 212.399L167.276 212.251C167.355 212.155 167.454 212.078 167.565 212.024C167.676 211.969 167.798 211.94 167.922 211.936C168.297 211.936 168.559 212.085 168.576 212.399C168.581 212.511 168.56 212.621 168.514 212.723C168.469 212.825 168.4 212.914 168.314 212.985L167.799 213.562L168.725 213.5Z" fill="white"/>
<path d="M170.191 213.396V213.623L168.882 213.71V213.536L169.571 212.775C169.635 212.722 169.687 212.656 169.722 212.58C169.756 212.504 169.774 212.422 169.772 212.338C169.772 212.155 169.615 212.05 169.362 212.067C169.275 212.069 169.19 212.091 169.113 212.13C169.036 212.169 168.969 212.226 168.917 212.295L168.725 212.155C168.803 212.058 168.901 211.979 169.013 211.923C169.124 211.867 169.246 211.836 169.37 211.831C169.754 211.831 170.008 211.989 170.025 212.295C170.032 212.407 170.013 212.519 169.969 212.622C169.925 212.725 169.858 212.817 169.772 212.889L169.248 213.466L170.191 213.396Z" fill="white"/>
<path d="M168.96 216.909V217.128L167.66 217.215V217.04L168.358 216.28C168.419 216.226 168.468 216.16 168.502 216.086C168.536 216.013 168.556 215.933 168.559 215.852C168.559 215.659 168.402 215.554 168.148 215.572C168.061 215.574 167.975 215.596 167.896 215.635C167.818 215.675 167.749 215.731 167.695 215.799L167.511 215.659C167.591 215.564 167.689 215.487 167.8 215.432C167.912 215.378 168.033 215.348 168.157 215.345C168.533 215.345 168.794 215.493 168.812 215.808C168.817 215.919 168.795 216.03 168.75 216.132C168.705 216.233 168.636 216.323 168.55 216.394L168.035 216.97L168.96 216.909Z" fill="white"/>
<path d="M170.4 216.498C170.4 216.804 170.208 217.066 169.746 217.101C169.506 217.121 169.266 217.06 169.065 216.927L169.17 216.717C169.335 216.834 169.535 216.889 169.737 216.874C170.008 216.874 170.147 216.717 170.138 216.516C170.13 216.315 169.981 216.21 169.667 216.236H169.528V216.053L169.946 215.458L169.074 215.52V215.292L170.269 215.214V215.388L169.833 216.009C169.902 216.003 169.972 216.011 170.039 216.033C170.105 216.054 170.167 216.089 170.219 216.134C170.272 216.18 170.316 216.235 170.347 216.298C170.378 216.361 170.396 216.429 170.4 216.498Z" fill="white"/>
<path d="M169.091 220.65V220.877L167.791 220.965V220.79L168.48 220.029C168.655 219.828 168.69 219.715 168.681 219.601C168.672 219.487 168.524 219.304 168.271 219.321C168.184 219.323 168.099 219.345 168.022 219.384C167.945 219.424 167.878 219.48 167.826 219.549L167.634 219.409C167.712 219.312 167.81 219.233 167.922 219.177C168.033 219.121 168.155 219.09 168.279 219.085C168.655 219.085 168.917 219.243 168.934 219.557C168.94 219.669 168.92 219.78 168.874 219.882C168.829 219.984 168.759 220.073 168.672 220.143L168.157 220.72L169.091 220.65Z" fill="white"/>
<path d="M170.811 220.318H170.47V220.763H170.226V220.309L169.222 220.379V220.195L170.095 218.946H170.374L169.562 220.152H170.252V219.758H170.496V220.152H170.845L170.811 220.318Z" fill="white"/>
<path d="M169.658 224.434V224.662L168.358 224.749V224.565L169.047 223.805C169.108 223.751 169.157 223.685 169.191 223.611C169.226 223.538 169.245 223.458 169.248 223.377C169.248 223.185 169.091 223.08 168.838 223.097C168.75 223.1 168.664 223.121 168.586 223.161C168.507 223.2 168.439 223.256 168.384 223.324L168.201 223.185C168.28 223.089 168.378 223.012 168.49 222.958C168.601 222.903 168.723 222.873 168.847 222.87C169.222 222.87 169.484 223.018 169.501 223.333C169.505 223.444 169.484 223.555 169.438 223.656C169.393 223.758 169.325 223.848 169.239 223.919L168.724 224.496L169.658 224.434Z" fill="white"/>
<path d="M171.116 224.015C171.116 224.329 170.933 224.592 170.47 224.627C170.23 224.647 169.99 224.585 169.789 224.452L169.894 224.233C170.055 224.352 170.254 224.408 170.453 224.391C170.723 224.391 170.872 224.242 170.863 224.041C170.854 223.84 170.706 223.718 170.287 223.744H169.877V222.791L170.898 222.721V222.948L170.086 223.001V223.499H170.296C170.872 223.482 171.064 223.691 171.116 224.015Z" fill="white"/>
<path d="M169.868 227.782V228.009L168.559 228.096V227.922L169.248 227.152C169.312 227.101 169.364 227.036 169.399 226.962C169.433 226.888 169.451 226.806 169.449 226.724C169.449 226.541 169.301 226.436 169.047 226.453C168.959 226.453 168.873 226.474 168.794 226.513C168.715 226.553 168.646 226.61 168.594 226.681L168.41 226.541C168.485 226.442 168.581 226.361 168.691 226.305C168.802 226.249 168.924 226.219 169.047 226.217C169.431 226.217 169.685 226.375 169.711 226.681C169.713 226.793 169.691 226.904 169.646 227.007C169.6 227.109 169.533 227.201 169.449 227.275L168.925 227.843L169.868 227.782Z" fill="white"/>
<path d="M171.456 227.345C171.46 227.426 171.447 227.507 171.418 227.582C171.389 227.658 171.345 227.727 171.289 227.785C171.233 227.843 171.165 227.889 171.09 227.92C171.015 227.951 170.935 227.967 170.854 227.965C170.365 227.965 170.069 227.686 170.025 227.091C170.007 226.972 170.013 226.851 170.044 226.735C170.074 226.618 170.129 226.51 170.203 226.415C170.278 226.321 170.371 226.243 170.477 226.186C170.583 226.13 170.699 226.096 170.819 226.086C170.977 226.067 171.137 226.091 171.282 226.156L171.195 226.366C171.086 226.313 170.965 226.292 170.845 226.305C170.47 226.305 170.252 226.576 170.287 227.03C170.282 227.05 170.282 227.071 170.287 227.091C170.342 227.009 170.416 226.942 170.502 226.895C170.589 226.848 170.686 226.822 170.784 226.82C170.864 226.805 170.945 226.807 171.023 226.826C171.102 226.845 171.175 226.881 171.239 226.93C171.302 226.98 171.355 227.043 171.392 227.114C171.43 227.186 171.452 227.264 171.456 227.345ZM171.203 227.345C171.203 227.135 171.02 227.013 170.767 227.03C170.514 227.048 170.357 227.205 170.374 227.406C170.392 227.607 170.549 227.747 170.828 227.729C170.876 227.732 170.925 227.724 170.97 227.707C171.016 227.69 171.057 227.664 171.092 227.631C171.127 227.597 171.155 227.557 171.174 227.512C171.194 227.468 171.203 227.42 171.203 227.371V227.345Z" fill="white"/>
<path d="M169.964 231.54V231.767L168.655 231.855V231.671L169.344 230.911C169.527 230.71 169.554 230.596 169.545 230.482C169.536 230.369 169.397 230.185 169.135 230.203C169.047 230.205 168.962 230.228 168.885 230.269C168.807 230.31 168.741 230.368 168.69 230.439L168.498 230.29C168.577 230.195 168.675 230.118 168.787 230.063C168.898 230.009 169.02 229.979 169.143 229.976C169.527 229.976 169.781 230.124 169.798 230.439C169.805 230.551 169.785 230.663 169.741 230.766C169.697 230.869 169.63 230.96 169.545 231.033L169.021 231.601L169.964 231.54Z" fill="white"/>
<path d="M171.378 229.862V230.037L170.749 231.732H170.479L171.09 230.089L170.217 230.142V230.474H169.973V229.923L171.378 229.862Z" fill="white"/>
<path d="M170.269 235.316V235.543L168.969 235.63V235.456L169.658 234.686C169.833 234.485 169.868 234.372 169.859 234.258C169.85 234.145 169.702 233.97 169.449 233.987C169.362 233.985 169.275 234.005 169.198 234.044C169.12 234.084 169.053 234.142 169.004 234.214L168.812 234.066C168.891 233.971 168.99 233.893 169.101 233.839C169.212 233.785 169.334 233.755 169.458 233.751C169.842 233.751 170.095 233.9 170.112 234.214C170.119 234.326 170.099 234.438 170.055 234.541C170.012 234.644 169.944 234.736 169.859 234.809L169.335 235.377L170.269 235.316Z" fill="white"/>
<path d="M171.936 234.914C171.936 235.246 171.692 235.473 171.247 235.499C170.802 235.525 170.514 235.342 170.496 235.01C170.487 234.913 170.51 234.815 170.562 234.733C170.614 234.65 170.693 234.588 170.784 234.555C170.705 234.529 170.636 234.478 170.586 234.411C170.536 234.344 170.508 234.263 170.505 234.179C170.505 233.874 170.732 233.664 171.125 233.646C171.517 233.629 171.797 233.786 171.814 234.092C171.819 234.175 171.801 234.258 171.76 234.331C171.72 234.403 171.66 234.463 171.587 234.503C171.682 234.525 171.766 234.577 171.829 234.651C171.892 234.725 171.93 234.817 171.936 234.914ZM171.675 234.914C171.675 234.721 171.474 234.608 171.186 234.625C170.898 234.643 170.741 234.783 170.749 234.984C170.758 235.185 170.941 235.298 171.229 235.281C171.517 235.263 171.648 235.106 171.631 234.922L171.675 234.914ZM170.758 234.162C170.758 234.346 170.924 234.442 171.177 234.424C171.43 234.407 171.57 234.284 171.561 234.11C171.552 233.935 171.378 233.83 171.133 233.847C170.889 233.865 170.706 233.987 170.714 234.171L170.758 234.162Z" fill="white"/>
<path d="M237.717 122.115C237.717 122.115 250.94 132.262 253.707 144.018C255.103 149.961 264.415 205.748 264.415 205.748L267.287 216.603C267.722 218.079 267.563 219.666 266.844 221.026C266.124 222.385 264.902 223.408 263.438 223.875L215.156 231.505C212.712 232.021 210.574 228.053 210.286 225.448L210.399 207.313L207.004 143.205L213.829 129.981L237.717 122.115Z" fill="#E0E0E0"/>
<path d="M213.419 135.47L216.91 208.327C216.91 208.327 211.674 215.913 211.674 216.035C211.674 216.158 208.052 207.794 208.052 207.794C208.052 207.794 207.93 157.101 209.099 146.736C210.269 136.37 211.665 134.648 211.665 134.648L213.419 135.47Z" fill="#F7A56D"/>
<path d="M238.18 122.858C237.717 122.115 237.307 118.357 237.307 118.357L213.428 126.459L212.494 133.451L238.18 122.858Z" fill="#E0E0E0"/>
<g opacity="0.3">
<path d="M236.591 123.61L214.161 137.847L214.013 128.312L215.758 133.617L236.591 123.61Z" fill="black"/>
</g>
<path d="M215.348 133.014L213.297 135.636H211.368L212.293 128.644C212.324 128.469 212.398 128.306 212.51 128.168C212.621 128.03 212.766 127.923 212.93 127.857L213.681 127.56L215.348 133.014Z" fill="#F7A56D"/>
<g opacity="0.3">
<path d="M212.651 230.535C212.651 230.535 238.712 209.131 242.326 202.226C245.939 195.321 247.423 190.864 248.356 185.935C250.268 175.849 248.356 146.211 248.356 146.211C248.356 146.211 235.064 156.332 233.79 156.56C232.516 156.787 226.031 188.635 226.031 188.635L219.223 212.583L209.501 225.361C209.501 225.361 211.15 229.6 212.651 230.535Z" fill="black"/>
</g>
<path d="M211.665 129.754C211.574 130.113 211.445 130.462 211.281 130.794C211.01 131.458 210.618 132.42 210.173 133.617C209.727 134.814 209.239 136.239 208.715 137.873C208.414 138.693 208.186 139.539 208.034 140.399C207.886 141.273 207.807 142.243 207.746 143.214C207.519 147.112 207.589 150.651 207.624 153.212C207.624 154.427 207.668 155.441 207.685 156.245C207.723 156.617 207.723 156.992 207.685 157.364C207.585 157.005 207.529 156.635 207.519 156.262C207.449 155.546 207.38 154.514 207.31 153.23C207.133 149.884 207.133 146.532 207.31 143.187C207.357 142.23 207.459 141.275 207.615 140.329C207.685 139.871 207.787 139.418 207.921 138.975C208.06 138.555 208.2 138.144 208.34 137.742C208.881 136.134 209.404 134.692 209.893 133.503C210.382 132.315 210.766 131.362 211.133 130.724C211.27 130.38 211.449 130.055 211.665 129.754Z" fill="#263238"/>
<path d="M213.524 135.837C213.428 135.924 213.035 135.645 212.503 135.487C211.97 135.33 211.499 135.295 211.473 135.173C211.447 135.05 211.988 134.832 212.642 135.05C213.297 135.269 213.62 135.758 213.524 135.837Z" fill="#263238"/>
<path d="M213.114 126.957C214.333 129.193 215.254 131.579 215.854 134.054C223.633 131.114 231.067 127.331 238.023 122.771" fill="#E0E0E0"/>
<path d="M238.023 122.771C237.701 123.055 237.357 123.313 236.993 123.54C236.312 124.003 235.317 124.659 234.06 125.436C230.785 127.447 227.399 129.271 223.919 130.899C221.03 132.262 218.263 133.372 215.924 134.238L215.723 134.316L215.671 134.107C215.245 132.31 214.661 130.555 213.925 128.863C213.402 127.639 213.053 126.966 213.096 126.94C213.218 127.077 213.321 127.23 213.402 127.394C213.585 127.7 213.838 128.163 214.126 128.766C214.942 130.443 215.579 132.201 216.029 134.01L215.776 133.879C218.089 133.005 220.829 131.843 223.709 130.488C227.776 128.592 231.337 126.634 233.877 125.157C235.09 124.449 236.094 123.846 236.879 123.409C237.239 123.16 237.622 122.946 238.023 122.771Z" fill="#263238"/>
<path d="M248.295 145.329C248.295 145.329 250.041 188.67 237.761 201.658C225.481 214.646 197.753 241.932 197.753 241.932L184.513 229.862L189.549 224.837L219.328 188.906C219.328 188.906 221.78 152.391 223.317 145.101C223.73 143.423 224.477 141.845 225.511 140.46C226.545 139.076 227.847 137.914 229.339 137.043" fill="#E0E0E0"/>
<path d="M229.339 137.061C229.277 137.117 229.21 137.167 229.138 137.209C229.007 137.305 228.798 137.436 228.536 137.637C227.766 138.202 227.05 138.837 226.397 139.534C225.338 140.662 224.498 141.978 223.919 143.415C223.574 144.331 223.337 145.284 223.212 146.255C223.037 147.286 222.906 148.405 222.758 149.576C221.676 158.98 220.637 172.527 219.52 188.906V188.967V189.02C210.792 199.508 200.694 211.744 189.758 224.967L184.722 229.993V229.67L193.921 238.034L197.971 241.722H197.657C209.073 230.482 219.852 219.758 229.513 209.926C231.922 207.461 234.27 205.066 236.495 202.698C237.635 201.582 238.661 200.355 239.559 199.036C240.004 198.398 240.379 197.707 240.763 197.043C241.147 196.379 241.479 195.68 241.776 194.972C242.949 192.276 243.895 189.487 244.603 186.634C245.31 183.898 245.843 181.224 246.253 178.672C247.126 173.55 247.536 168.883 247.824 164.784C248.112 160.685 248.225 157.145 248.295 154.252C248.365 151.359 248.348 149.122 248.339 147.601C248.339 146.849 248.339 146.281 248.339 145.853C248.339 145.425 248.339 145.267 248.339 145.267C248.339 145.267 248.339 145.468 248.383 145.853C248.426 146.238 248.383 146.832 248.444 147.601C248.444 149.122 248.513 151.359 248.444 154.252C248.374 157.145 248.313 160.685 248.042 164.801C247.772 168.918 247.353 173.541 246.541 178.724C246.131 181.285 245.616 183.968 244.909 186.721C244.205 189.598 243.262 192.41 242.09 195.129C241.793 195.837 241.409 196.519 241.069 197.218C240.728 197.917 240.301 198.59 239.856 199.254C238.942 200.59 237.902 201.834 236.748 202.969C234.505 205.337 232.166 207.75 229.766 210.214C220.113 220.073 209.343 230.797 197.928 242.045L197.779 242.203L197.622 242.054L193.572 238.366L184.373 230.002L184.155 229.862L184.321 229.696L189.366 224.67L219.18 188.784L219.136 188.889C220.305 172.484 221.396 158.945 222.54 149.559C222.697 148.388 222.836 147.269 223.02 146.229C223.346 143.674 224.502 141.297 226.31 139.464C226.979 138.772 227.713 138.146 228.501 137.594C229.042 137.218 229.339 137.061 229.339 137.061Z" fill="#263238"/>
<path d="M232.856 189.806C230.628 189.234 228.346 188.891 226.048 188.784C223.752 188.829 221.465 189.104 219.223 189.605C219.825 189.277 220.472 189.042 221.143 188.906C222.749 188.498 224.401 188.304 226.057 188.329C227.709 188.357 229.35 188.607 230.936 189.072C231.61 189.215 232.258 189.462 232.856 189.806Z" fill="#263238"/>
<path d="M185.098 232.921C185.098 232.921 177.138 232.921 176.466 232.921C175.794 232.921 167.38 238.759 166.962 239.79C166.543 240.822 165.399 242.937 167.607 244.056L167.991 244.213C167.991 244.213 167.738 246.581 168.768 247.77C169.37 248.476 170.175 248.98 171.072 249.212C171.184 250.225 171.502 251.203 172.006 252.088C172.607 252.786 173.448 253.232 174.363 253.337C174.363 253.337 174.782 255.418 175.681 255.959C175.978 256.129 176.308 256.236 176.649 256.274C176.989 256.311 177.334 256.279 177.662 256.178C177.732 256.117 179.687 254.71 180.184 254.369C180.682 254.028 182.907 252.621 183.213 252.402C185.467 250.906 187.348 248.912 188.711 246.573C190.366 243.957 192.398 241.601 194.742 239.581L186.503 231.863L185.098 232.921Z" fill="#C17560"/>
<path d="M171.064 241.416C171.151 241.512 170.522 242.194 169.667 242.946C169.174 243.457 168.58 243.859 167.922 244.126C167.834 244.029 168.463 243.348 169.318 242.596C170.173 241.844 170.95 241.32 171.064 241.416Z" fill="#7C4236"/>
<path d="M173.918 246.11C173.996 246.206 173.376 246.887 172.521 247.63C171.666 248.373 170.898 248.915 170.819 248.819C170.741 248.723 171.36 248.041 172.216 247.289C173.071 246.538 173.83 246.013 173.918 246.11Z" fill="#7C4236"/>
<path d="M176.737 251.345C176.824 251.432 176.361 252.018 175.698 252.656C175.035 253.294 174.432 253.74 174.345 253.643C174.258 253.547 174.72 252.97 175.384 252.332C176.047 251.694 176.649 251.249 176.737 251.345Z" fill="#7C4236"/>
</g>
<defs>
<clipPath id="clip0_32_365">
<rect width="343" height="437" fill="white"/>
</clipPath>
</defs>
</svg>
