<svg width="164" height="204" viewBox="0 0 164 204" fill="none" xmlns="http://www.w3.org/2000/svg">
<path d="M143.361 7.91974H63.1586C57.6215 7.91974 53.1328 12.4085 53.1328 17.9456V187.266C53.1328 192.803 57.6215 197.292 63.1586 197.292H143.361C148.898 197.292 153.386 192.803 153.386 187.266V17.9456C153.386 12.4085 148.898 7.91974 143.361 7.91974Z" fill="#263238"/>
<path d="M148.928 28.7145H57.5858V176.497H148.928V28.7145Z" fill="white" stroke="#263238" stroke-width="1.33739" stroke-miterlimit="10"/>
<path d="M117.259 88.5559C124.991 80.824 124.991 68.288 117.259 60.556C109.527 52.8241 96.9915 52.8241 89.2595 60.556C81.5276 68.288 81.5276 80.824 89.2595 88.5559C96.9915 96.2879 109.527 96.2879 117.259 88.5559Z" fill="#FF725E"/>
<path d="M129.253 167.204H77.2712C77.1542 167.204 77.0383 167.182 76.93 167.138C76.8217 167.093 76.7233 167.028 76.6403 166.946C76.5574 166.863 76.4915 166.765 76.4466 166.657C76.4017 166.549 76.3786 166.433 76.3786 166.316C76.3779 166.199 76.4005 166.082 76.4451 165.974C76.4897 165.865 76.5555 165.767 76.6385 165.684C76.7215 165.601 76.8202 165.535 76.9288 165.49C77.0374 165.446 77.1538 165.423 77.2712 165.424H129.253C129.37 165.424 129.486 165.447 129.594 165.492C129.702 165.537 129.8 165.602 129.882 165.685C129.965 165.768 130.03 165.867 130.075 165.975C130.119 166.083 130.141 166.199 130.141 166.316C130.141 166.552 130.047 166.777 129.881 166.944C129.714 167.11 129.488 167.204 129.253 167.204Z" fill="#FF725E"/>
<path d="M130.946 105.485H75.5736C74.4308 105.485 73.5044 106.411 73.5044 107.554V114.082C73.5044 115.224 74.4308 116.151 75.5736 116.151H130.946C132.088 116.151 133.015 115.224 133.015 114.082V107.554C133.015 106.411 132.088 105.485 130.946 105.485Z" fill="#FF725E"/>
<path d="M130.946 125.434H75.5736C74.4308 125.434 73.5044 126.36 73.5044 127.503V134.03C73.5044 135.173 74.4308 136.099 75.5736 136.099H130.946C132.088 136.099 133.015 135.173 133.015 134.03V127.503C133.015 126.36 132.088 125.434 130.946 125.434Z" fill="#FF725E"/>
<path d="M113.118 84.4322L107.292 81.0782V78.3073C108.136 77.2868 108.747 76.0947 109.083 74.814C109.283 74.8852 109.494 74.9218 109.707 74.9223C110.429 74.9223 110.889 72.6829 110.966 71.0833C111.807 69.3031 110.662 68.2608 110.662 68.2608C110.662 68.2608 111.136 67.7861 111.451 65.882C111.766 63.978 110.342 64.7726 109.232 63.0285C108.123 61.2845 107.328 59.3856 103.685 59.3856C102.681 59.3526 101.691 59.6223 100.842 60.1597C99.994 60.6971 99.3269 61.4774 98.9278 62.399C98.0209 62.4023 97.1174 62.5079 96.2342 62.7138C95.1197 63.0285 94.8049 66.6767 95.7544 68.106C96.1794 68.8871 96.4062 69.7606 96.4148 70.6499C96.162 70.3403 95.8988 70.2577 95.7544 70.9595C95.4396 72.5436 96.709 74.7624 96.709 74.7624L97.3643 74.5766C97.6944 75.9453 98.3314 77.221 99.227 78.3073V81.0782L93.4014 84.4322C92.7211 84.825 92.156 85.3898 91.7629 86.07C91.3699 86.7502 91.1626 87.5218 91.162 88.3074V90.2269C94.6267 92.9035 98.8814 94.3555 103.26 94.3555C107.638 94.3555 111.892 92.9035 115.357 90.2269V88.3074C115.358 87.5216 115.151 86.7496 114.758 86.0692C114.364 85.3889 113.799 84.8242 113.118 84.4322Z" fill="#263238"/>
<path d="M81.0432 133.447C80.9096 133.445 80.782 133.392 80.6872 133.297C80.6364 133.252 80.5959 133.196 80.5683 133.134C80.5407 133.072 80.5267 133.004 80.5272 132.936C80.5288 132.843 80.5555 132.752 80.6046 132.673L81.5334 131.187L79.7222 131.244C79.654 131.248 79.5856 131.238 79.5216 131.214C79.4576 131.19 79.3993 131.153 79.3507 131.104C79.2666 131.01 79.2201 130.888 79.2201 130.761C79.2201 130.635 79.2666 130.513 79.3507 130.418C79.3983 130.368 79.4562 130.329 79.5204 130.305C79.5846 130.28 79.6535 130.269 79.7222 130.274L81.5076 130.341L80.5891 128.86C80.5392 128.779 80.5124 128.686 80.5117 128.592C80.5112 128.523 80.5252 128.456 80.5528 128.394C80.5804 128.331 80.6209 128.276 80.6717 128.23C80.7665 128.136 80.8941 128.083 81.0277 128.081C81.1156 128.081 81.2016 128.107 81.2756 128.154C81.3496 128.202 81.4086 128.269 81.4457 128.349L82.328 129.943L83.2001 128.359C83.2415 128.275 83.3051 128.203 83.3843 128.152C83.4634 128.101 83.5549 128.073 83.649 128.07C83.7142 128.071 83.7786 128.085 83.8382 128.111C83.8977 128.138 83.951 128.177 83.9947 128.225C84.0894 128.323 84.1414 128.455 84.1392 128.592C84.1389 128.68 84.1158 128.767 84.0721 128.844L83.1382 130.341L84.9493 130.274C85.0181 130.269 85.087 130.28 85.1512 130.305C85.2154 130.329 85.2733 130.368 85.3208 130.418C85.4088 130.509 85.457 130.632 85.455 130.759C85.4547 130.887 85.4069 131.01 85.3208 131.104C85.2722 131.153 85.214 131.19 85.15 131.214C85.086 131.238 85.0176 131.248 84.9493 131.244L83.1278 131.187L84.036 132.658C84.0869 132.74 84.1137 132.834 84.1134 132.931C84.1134 133.068 84.059 133.199 83.9623 133.296C83.8655 133.393 83.7343 133.447 83.5974 133.447C83.5089 133.446 83.4227 133.419 83.3494 133.369C83.2761 133.32 83.2188 133.25 83.1846 133.168L82.3229 131.62L81.4663 133.168C81.4283 133.249 81.3687 133.318 81.294 133.367C81.2194 133.417 81.1326 133.444 81.0432 133.447Z" fill="#263238"/>
<path d="M89.4127 133.447C89.2791 133.445 89.1515 133.392 89.0567 133.297C89.0059 133.252 88.9654 133.196 88.9378 133.134C88.9102 133.072 88.8962 133.004 88.8967 132.936C88.8983 132.843 88.925 132.752 88.9741 132.673L89.9029 131.187L88.0969 131.244C88.028 131.247 87.9591 131.236 87.8944 131.212C87.8297 131.188 87.7705 131.152 87.7202 131.104C87.6517 131.034 87.6061 130.944 87.5892 130.847C87.5724 130.75 87.5851 130.65 87.6258 130.561C87.6664 130.471 87.7331 130.396 87.8171 130.345C87.9011 130.293 87.9986 130.269 88.0969 130.274L89.8771 130.341L88.9586 128.86C88.9086 128.779 88.8819 128.686 88.8812 128.592C88.8807 128.523 88.8947 128.456 88.9223 128.394C88.9499 128.331 88.9904 128.276 89.0412 128.23C89.136 128.136 89.2636 128.083 89.3972 128.081C89.4851 128.081 89.5711 128.107 89.6451 128.154C89.7191 128.202 89.7781 128.269 89.8152 128.349L90.6975 129.943L91.5696 128.359C91.611 128.275 91.6746 128.203 91.7538 128.152C91.8329 128.101 91.9244 128.073 92.0185 128.07C92.0838 128.07 92.1484 128.084 92.2081 128.11C92.2677 128.137 92.3209 128.176 92.3642 128.225C92.412 128.273 92.4499 128.331 92.4756 128.393C92.5012 128.456 92.5143 128.524 92.5139 128.592C92.512 128.681 92.4871 128.768 92.4416 128.844L91.5077 130.341L93.324 130.284C93.3919 130.279 93.4601 130.29 93.5234 130.315C93.5868 130.34 93.6438 130.379 93.6903 130.428C93.7783 130.52 93.8265 130.642 93.8245 130.769C93.8242 130.897 93.7764 131.02 93.6903 131.115C93.6427 131.163 93.5854 131.2 93.5222 131.224C93.459 131.248 93.3914 131.258 93.324 131.254L91.4973 131.197L92.4055 132.668C92.4564 132.75 92.4832 132.845 92.4829 132.941C92.4829 133.078 92.4285 133.209 92.3318 133.306C92.235 133.403 92.1038 133.457 91.9669 133.457C91.8784 133.456 91.7922 133.429 91.7189 133.38C91.6456 133.33 91.5883 133.26 91.5541 133.179L90.6924 131.631L89.8358 133.179C89.7964 133.258 89.7362 133.324 89.6616 133.372C89.587 133.419 89.501 133.445 89.4127 133.447Z" fill="#263238"/>
<path d="M97.7874 133.447C97.652 133.447 97.5223 133.393 97.4262 133.297C97.3754 133.252 97.3349 133.196 97.3073 133.134C97.2797 133.072 97.2657 133.004 97.2662 132.936C97.2678 132.843 97.2945 132.752 97.3436 132.673L98.2724 131.187L96.4664 131.244C96.3692 131.248 96.273 131.222 96.19 131.171C96.1071 131.12 96.0413 131.046 96.0009 130.957C95.9605 130.869 95.9474 130.77 95.9632 130.674C95.979 130.578 96.0231 130.489 96.0897 130.418C96.1385 130.368 96.1973 130.33 96.2623 130.305C96.3273 130.28 96.3969 130.269 96.4664 130.274L98.2466 130.341L97.3281 128.86C97.2782 128.779 97.2514 128.686 97.2507 128.592C97.2524 128.524 97.2673 128.457 97.2948 128.395C97.3222 128.333 97.3616 128.277 97.4107 128.23C97.5068 128.135 97.6365 128.081 97.7719 128.081C97.8589 128.082 97.9438 128.108 98.0168 128.156C98.0898 128.203 98.148 128.27 98.1847 128.349L99.0671 129.943L99.9391 128.359C99.9805 128.275 100.044 128.203 100.123 128.152C100.202 128.101 100.294 128.073 100.388 128.07C100.453 128.07 100.518 128.084 100.578 128.11C100.637 128.137 100.69 128.176 100.734 128.225C100.782 128.273 100.819 128.331 100.845 128.393C100.871 128.456 100.884 128.524 100.883 128.592C100.882 128.681 100.857 128.768 100.811 128.844L99.8772 130.341L101.693 130.274C101.76 130.267 101.828 130.275 101.891 130.296C101.955 130.318 102.013 130.353 102.062 130.399C102.111 130.445 102.149 130.501 102.175 130.563C102.2 130.625 102.212 130.692 102.209 130.759C102.211 130.886 102.165 131.009 102.08 131.104C102.032 131.153 101.974 131.19 101.91 131.214C101.846 131.238 101.777 131.248 101.709 131.244L99.8875 131.187L100.79 132.658C100.841 132.74 100.868 132.834 100.868 132.931C100.866 132.999 100.851 133.066 100.824 133.128C100.796 133.19 100.757 133.246 100.708 133.292C100.663 133.341 100.609 133.379 100.548 133.406C100.488 133.432 100.423 133.446 100.357 133.447C100.269 133.446 100.184 133.418 100.111 133.369C100.039 133.319 99.9827 133.25 99.9494 133.168L99.0825 131.62L98.226 133.168C98.1873 133.252 98.1254 133.323 98.0477 133.372C97.9699 133.422 97.8795 133.448 97.7874 133.447Z" fill="#263238"/>
<path d="M106.157 133.447C106.022 133.447 105.892 133.393 105.796 133.297C105.698 133.202 105.643 133.072 105.641 132.936C105.639 132.843 105.664 132.752 105.713 132.673L106.642 131.187L104.836 131.244C104.767 131.247 104.698 131.236 104.634 131.212C104.569 131.188 104.51 131.152 104.459 131.104C104.375 131.01 104.329 130.888 104.329 130.761C104.329 130.635 104.375 130.513 104.459 130.418C104.509 130.37 104.568 130.332 104.633 130.308C104.698 130.283 104.767 130.271 104.836 130.274L106.621 130.341L105.708 128.86C105.658 128.779 105.631 128.686 105.631 128.592C105.632 128.524 105.647 128.457 105.675 128.395C105.702 128.333 105.741 128.277 105.791 128.23C105.887 128.135 106.016 128.081 106.152 128.081C106.24 128.081 106.326 128.107 106.4 128.154C106.474 128.202 106.533 128.269 106.57 128.349L107.447 129.943L108.319 128.359C108.36 128.275 108.424 128.203 108.503 128.152C108.582 128.101 108.674 128.073 108.768 128.07C108.833 128.07 108.898 128.084 108.957 128.11C109.017 128.137 109.07 128.176 109.114 128.225C109.161 128.273 109.199 128.331 109.225 128.393C109.251 128.456 109.264 128.524 109.263 128.592C109.261 128.681 109.237 128.768 109.191 128.844L108.257 130.341L110.073 130.274C110.14 130.267 110.208 130.275 110.271 130.296C110.335 130.318 110.393 130.353 110.442 130.399C110.491 130.445 110.529 130.501 110.555 130.563C110.58 130.625 110.592 130.692 110.589 130.759C110.59 130.886 110.544 131.009 110.46 131.104C110.412 131.153 110.354 131.19 110.289 131.214C110.225 131.238 110.157 131.248 110.089 131.244L108.267 131.187L109.17 132.658C109.221 132.74 109.248 132.834 109.248 132.931C109.248 132.999 109.234 133.067 109.207 133.129C109.179 133.191 109.139 133.247 109.088 133.292C109.043 133.341 108.989 133.379 108.928 133.406C108.868 133.432 108.803 133.446 108.737 133.447C108.649 133.446 108.564 133.418 108.491 133.369C108.419 133.319 108.363 133.25 108.329 133.168L107.462 131.62L106.606 133.168C106.566 133.254 106.503 133.326 106.423 133.375C106.343 133.425 106.251 133.45 106.157 133.447Z" fill="#263238"/>
<path d="M114.526 133.447C114.391 133.447 114.261 133.393 114.165 133.297C114.085 133.216 114.034 133.111 114.02 132.998C114.006 132.885 114.03 132.771 114.088 132.673L115.011 131.187L113.205 131.244C113.137 131.247 113.068 131.236 113.003 131.212C112.938 131.188 112.879 131.152 112.829 131.104C112.745 131.01 112.698 130.888 112.698 130.761C112.698 130.635 112.745 130.513 112.829 130.418C112.879 130.37 112.938 130.332 113.002 130.308C113.067 130.283 113.136 130.271 113.205 130.274L114.991 130.341L114.072 128.86C114.022 128.779 113.996 128.686 113.995 128.592C113.997 128.455 114.053 128.326 114.15 128.23C114.246 128.135 114.376 128.081 114.511 128.081C114.599 128.081 114.685 128.107 114.759 128.154C114.833 128.202 114.892 128.269 114.929 128.349L115.806 129.943L116.678 128.359C116.72 128.275 116.783 128.203 116.862 128.152C116.941 128.101 117.033 128.073 117.127 128.07C117.193 128.07 117.259 128.084 117.319 128.11C117.38 128.137 117.434 128.176 117.478 128.225C117.573 128.323 117.625 128.455 117.622 128.592C117.621 128.681 117.596 128.768 117.55 128.844L116.616 130.341L118.433 130.274C118.499 130.267 118.567 130.275 118.63 130.296C118.694 130.318 118.752 130.353 118.801 130.399C118.85 130.445 118.888 130.501 118.914 130.563C118.939 130.625 118.951 130.692 118.949 130.759C118.95 130.886 118.904 131.009 118.82 131.104C118.771 131.153 118.713 131.19 118.649 131.214C118.585 131.238 118.516 131.248 118.448 131.244L116.627 131.187L117.53 132.658C117.58 132.74 117.607 132.834 117.607 132.931C117.607 132.999 117.593 133.067 117.566 133.129C117.538 133.191 117.498 133.247 117.447 133.292C117.402 133.341 117.348 133.379 117.288 133.406C117.227 133.432 117.162 133.446 117.096 133.447C117.008 133.446 116.923 133.418 116.851 133.369C116.778 133.319 116.722 133.25 116.688 133.168L115.822 131.62L114.965 133.168C114.926 133.252 114.865 133.323 114.787 133.372C114.709 133.422 114.619 133.448 114.526 133.447Z" fill="#263238"/>
<path d="M122.896 133.447C122.762 133.445 122.635 133.392 122.54 133.297C122.489 133.252 122.449 133.196 122.421 133.134C122.393 133.072 122.379 133.004 122.38 132.936C122.382 132.843 122.408 132.752 122.457 132.673L123.381 131.187L121.575 131.244C121.509 131.249 121.442 131.24 121.379 131.218C121.316 131.196 121.259 131.161 121.21 131.115C121.162 131.069 121.123 131.014 121.097 130.953C121.071 130.891 121.058 130.825 121.059 130.759C121.059 130.696 121.071 130.633 121.095 130.575C121.119 130.516 121.154 130.463 121.198 130.418C121.246 130.368 121.304 130.329 121.368 130.305C121.432 130.28 121.501 130.269 121.57 130.274L123.355 130.341L122.437 128.86C122.387 128.779 122.36 128.686 122.359 128.592C122.361 128.455 122.417 128.326 122.514 128.23C122.61 128.135 122.74 128.081 122.875 128.081C122.963 128.081 123.049 128.107 123.123 128.154C123.197 128.202 123.256 128.269 123.293 128.349L124.17 129.943L125.048 128.359C125.089 128.276 125.152 128.204 125.23 128.154C125.308 128.103 125.398 128.074 125.491 128.07C125.558 128.07 125.623 128.084 125.683 128.11C125.744 128.137 125.798 128.176 125.842 128.225C125.937 128.323 125.989 128.455 125.987 128.592C125.987 128.68 125.963 128.767 125.92 128.844L124.986 130.341L126.797 130.274C126.866 130.269 126.935 130.28 126.999 130.305C127.063 130.329 127.121 130.368 127.168 130.418C127.256 130.509 127.305 130.632 127.303 130.759C127.302 130.887 127.254 131.01 127.168 131.104C127.12 131.153 127.062 131.19 126.998 131.214C126.934 131.238 126.865 131.248 126.797 131.244L124.975 131.187L125.878 132.658C125.929 132.74 125.956 132.834 125.956 132.931C125.954 133.067 125.898 133.197 125.801 133.292C125.707 133.388 125.579 133.444 125.445 133.447C125.357 133.446 125.272 133.418 125.199 133.369C125.127 133.319 125.071 133.25 125.037 133.168L124.17 131.62L123.314 133.168C123.277 133.249 123.218 133.318 123.144 133.367C123.071 133.416 122.985 133.444 122.896 133.447Z" fill="#263238"/>
<g style="mix-blend-mode:multiply">
<path d="M148.928 28.9106H57.5858V34.6331H148.928V28.9106Z" fill="#FF725E"/>
</g>
<path d="M113.19 18.3688H93.324C92.9654 18.3688 92.6216 18.2263 92.368 17.9728C92.1145 17.7193 91.9721 17.3754 91.9721 17.0168C91.9721 16.6583 92.1145 16.3144 92.368 16.0609C92.6216 15.8074 92.9654 15.6649 93.324 15.6649H113.19C113.549 15.6649 113.892 15.8074 114.146 16.0609C114.399 16.3144 114.542 16.6583 114.542 17.0168C114.542 17.3754 114.399 17.7193 114.146 17.9728C113.892 18.2263 113.549 18.3688 113.19 18.3688Z" fill="#FF725E" stroke="#263238" stroke-width="1.33739" stroke-linecap="round" stroke-linejoin="round"/>
<path d="M108.675 184.846C108.676 183.774 108.359 182.726 107.764 181.834C107.169 180.942 106.323 180.247 105.333 179.836C104.343 179.425 103.253 179.318 102.201 179.527C101.15 179.735 100.184 180.252 99.4259 181.01C98.6679 181.768 98.1517 182.733 97.9428 183.785C97.734 184.836 97.8417 185.926 98.2524 186.916C98.6631 187.907 99.3583 188.753 100.25 189.348C101.142 189.943 102.19 190.26 103.262 190.259C104.697 190.257 106.073 189.687 107.088 188.672C108.103 187.657 108.674 186.281 108.675 184.846Z" fill="#FF725E"/>
<path d="M106.007 182.101H100.517V187.591H106.007V182.101Z" fill="#FF725E" stroke="#263238" stroke-width="1.33739" stroke-linecap="round" stroke-linejoin="round"/>
<path d="M33.3029 86.3363L16.311 80.7893L14.7991 76.7954L11.3471 76.6871L5.08284 75.5003L5.8362 76.7954L13.7207 82.5179L15.666 83.488L33.437 92.7708L33.3029 86.3363Z" fill="white" stroke="#263238" stroke-width="1.00396" stroke-miterlimit="10"/>
<path d="M14.7991 76.7954L13.1789 75.8253L9.94356 77.0121L10.4802 77.6571L14.7991 76.7954Z" fill="white" stroke="#263238" stroke-width="1.00396" stroke-linejoin="round"/>
<path d="M33.3029 86.3363L16.311 80.7893L14.7991 76.7954L11.3471 76.6871L5.08284 75.5003L5.8362 76.7954L13.7207 82.5179L15.666 83.488L33.437 92.7708L33.3029 86.3363Z" fill="white"/>
<mask id="mask0_32_696" style="mask-type:luminance" maskUnits="userSpaceOnUse" x="5" y="75" width="29" height="18">
<path d="M33.3029 86.3363L16.311 80.7893L14.7991 76.7954L11.3471 76.6871L5.08284 75.5003L5.8362 76.7954L13.7207 82.5179L15.666 83.488L33.437 92.7708L33.3029 86.3363Z" fill="white"/>
</mask>
<g mask="url(#mask0_32_696)">
<path opacity="0.5" d="M33.3029 86.3363L16.311 80.7893L14.7991 76.7954L11.3471 76.6871L5.08284 75.5003L5.8362 76.7954L13.7207 82.5179L15.666 83.488L33.437 92.7708L33.3029 86.3363Z" fill="#FF725E" stroke="#263238" stroke-width="1.00396" stroke-miterlimit="10"/>
</g>
<path d="M33.3029 86.3363L16.311 80.7893L14.7991 76.7954L11.3471 76.6871L5.08284 75.5003L5.8362 76.7954L13.7207 82.5179L15.666 83.488L33.437 92.7708L33.3029 86.3363Z" stroke="#263238" stroke-width="1.00396" stroke-miterlimit="10"/>
<path d="M14.7991 76.7954L13.1789 75.8253L9.94356 77.0121L10.4802 77.6571L14.7991 76.7954Z" fill="white"/>
<mask id="mask1_32_696" style="mask-type:luminance" maskUnits="userSpaceOnUse" x="9" y="75" width="6" height="3">
<path d="M14.7991 76.7954L13.1789 75.8253L9.94356 77.0121L10.4802 77.6571L14.7991 76.7954Z" fill="white"/>
</mask>
<g mask="url(#mask1_32_696)">
<path opacity="0.5" d="M14.7991 76.7954L13.1789 75.8253L9.94356 77.0121L10.4802 77.6571L14.7991 76.7954Z" fill="#FF725E" stroke="#263238" stroke-width="1.00396" stroke-linejoin="round"/>
</g>
<path d="M14.7991 76.7954L13.1789 75.8253L9.94356 77.0121L10.4802 77.6571L14.7991 76.7954Z" stroke="#263238" stroke-width="1.00396" stroke-linejoin="round"/>
<path d="M36.9097 50.335C36.9097 50.335 36.6466 52.657 37.3019 54.1482C37.9572 55.6394 41.595 60.6911 41.595 60.6911L34.8044 66.1349C34.8044 66.1349 31.9871 60.4589 31.4504 59.5404C30.9138 58.6219 30.2688 54.6694 32.0181 51.8365C33.7673 49.0037 36.2854 48.24 36.9097 50.335Z" fill="white"/>
<mask id="mask2_32_696" style="mask-type:luminance" maskUnits="userSpaceOnUse" x="30" y="49" width="12" height="18">
<path d="M36.9097 50.335C36.9097 50.335 36.6466 52.657 37.3019 54.1482C37.9572 55.6394 41.595 60.6911 41.595 60.6911L34.8044 66.1349C34.8044 66.1349 31.9871 60.4589 31.4504 59.5404C30.9138 58.6219 30.2688 54.6694 32.0181 51.8365C33.7673 49.0037 36.2854 48.24 36.9097 50.335Z" fill="white"/>
</mask>
<g mask="url(#mask2_32_696)">
<g style="mix-blend-mode:multiply" opacity="0.5">
<path d="M33.4216 57.7963L36.3679 63.9058L34.7993 66.14L31.8374 60.851L33.4216 57.7963Z" fill="#FF725E"/>
</g>
</g>
<path d="M36.9097 50.335C36.9097 50.335 36.6466 52.657 37.3019 54.1482C37.9572 55.6394 41.595 60.6911 41.595 60.6911L34.8044 66.1349C34.8044 66.1349 31.9871 60.4589 31.4504 59.5404C30.9138 58.6219 30.2688 54.6694 32.0181 51.8365C33.7673 49.0037 36.2854 48.24 36.9097 50.335Z" stroke="#263238" stroke-width="1.00396" stroke-miterlimit="10"/>
<path d="M39.015 46.0831C38.597 43.5031 35.6404 38.2554 30.9499 38.4566C27.9055 38.5908 26.4814 39.2048 25.1604 39.953C24.0836 40.5874 23.08 41.3384 22.1676 42.1925C19.8766 44.9428 19.0716 45.6961 19.5154 47.8014C19.4789 48.6411 19.6105 49.4797 19.9024 50.2679C20.6041 52.141 21.084 53.3639 21.6929 54.2566C21.5071 55.1286 21.0221 57.43 20.9963 57.9563C20.9705 58.4826 22.5443 58.1162 23.3389 57.915C24.8147 61.2174 27.5185 63.5084 28.3596 63.7716C29.825 64.2308 32.1419 61.8211 33.37 59.9532C34.598 58.0853 33.6692 55.9852 33.6744 55.1492C33.6796 54.3133 36.435 52.4764 37.4567 51.8933C38.4784 51.3102 39.4278 48.658 39.015 46.0831Z" fill="white"/>
<mask id="mask3_32_696" style="mask-type:luminance" maskUnits="userSpaceOnUse" x="19" y="38" width="21" height="26">
<path d="M39.015 46.0831C38.597 43.5031 35.6404 38.2554 30.9499 38.4566C27.9055 38.5908 26.4814 39.2048 25.1604 39.953C24.0836 40.5874 23.08 41.3384 22.1676 42.1925C19.8766 44.9428 19.0716 45.6961 19.5154 47.8014C19.4789 48.6411 19.6105 49.4797 19.9024 50.2679C20.6041 52.141 21.084 53.3639 21.6929 54.2566C21.5071 55.1286 21.0221 57.43 20.9963 57.9563C20.9705 58.4826 22.5443 58.1162 23.3389 57.915C24.8147 61.2174 27.5185 63.5084 28.3596 63.7716C29.825 64.2308 32.1419 61.8211 33.37 59.9532C34.598 58.0853 33.6692 55.9852 33.6744 55.1492C33.6796 54.3133 36.435 52.4764 37.4567 51.8933C38.4784 51.3102 39.4278 48.658 39.015 46.0831Z" fill="white"/>
</mask>
<g mask="url(#mask3_32_696)">
<g style="mix-blend-mode:multiply" opacity="0.5">
<path d="M19.536 47.8014C19.4996 48.6411 19.6312 49.4797 19.923 50.2679C20.6248 52.141 21.1046 53.3639 21.7135 54.2566C21.5278 55.1286 21.0427 57.43 21.0169 57.9563C20.9911 58.4826 22.5649 58.1162 23.3596 57.915C24.8353 61.2174 27.5392 63.5084 28.3802 63.7716C29.8457 64.2308 32.1625 61.8211 33.3906 59.9532C33.6974 59.4869 33.8966 58.9581 33.9737 58.4052C33.9066 58.1627 33.8602 58.013 33.8602 58.013C33.8602 58.013 33.1687 60.6704 31.7962 60.3247C30.4236 59.979 28.3235 57.2287 27.1522 56.2793C25.9808 55.3298 26.4607 54.0811 26.2285 52.6673C25.9963 51.2534 22.5288 50.0099 22.2966 49.1998C22.0644 48.3896 22.8745 45.0356 22.8745 45.0356C22.8745 45.0356 24.1903 43.2812 23.9065 44.0036C23.7059 44.63 23.6332 45.2903 23.6926 45.9453C23.7519 46.6004 23.9423 47.2368 24.2522 47.8169C24.4698 48.2746 24.8148 48.6598 25.2459 48.9262C25.6771 49.1925 26.1759 49.3287 26.6826 49.3184L27.9416 43.08L25.2842 40.8818L22.1882 42.1718C19.8766 44.9428 19.0871 45.6961 19.536 47.8014Z" fill="#FF725E"/>
</g>
</g>
<path d="M39.015 46.0831C38.597 43.5031 35.6404 38.2554 30.9499 38.4566C27.9055 38.5908 26.4814 39.2048 25.1604 39.953C24.0836 40.5874 23.08 41.3384 22.1676 42.1925C19.8766 44.9428 19.0716 45.6961 19.5154 47.8014C19.4789 48.6411 19.6105 49.4797 19.9024 50.2679C20.6041 52.141 21.084 53.3639 21.6929 54.2566C21.5071 55.1286 21.0221 57.43 20.9963 57.9563C20.9705 58.4826 22.5443 58.1162 23.3389 57.915C24.8147 61.2174 27.5185 63.5084 28.3596 63.7716C29.825 64.2308 32.1419 61.8211 33.37 59.9532C34.598 58.0853 33.6692 55.9852 33.6744 55.1492C33.6796 54.3133 36.435 52.4764 37.4567 51.8933C38.4784 51.3102 39.4278 48.658 39.015 46.0831Z" stroke="#263238" stroke-miterlimit="10"/>
<path d="M22.3327 52.6982L22.8487 54.174C22.8487 54.174 23.9581 54.5404 25.31 53.0646" stroke="#263238" stroke-miterlimit="10" stroke-linecap="round"/>
<path d="M26.146 59.592C26.146 59.592 27.374 59.4682 27.8694 57.7447" stroke="#263238" stroke-miterlimit="10" stroke-linecap="round"/>
<path d="M21.471 51.465C21.471 51.465 21.8374 50.3556 24.051 50.3556" stroke="#263238" stroke-miterlimit="10" stroke-linecap="round"/>
<path d="M32.8178 36.4029C31.2093 36.1716 29.5872 36.0475 27.9623 36.0314C27.9623 36.0314 23.1016 33.2295 18.4318 36.2172C13.762 39.2048 16.0066 44.4371 16.0066 45.7426C16.0066 47.048 14.5102 47.0532 15.4441 48.7354C16.3781 50.4175 19.536 49.4887 19.536 49.4887C19.5694 48.8543 19.737 48.2341 20.0279 47.6693C20.3188 47.1044 20.7262 46.6078 21.2233 46.2121C22.9055 44.9066 24.2471 44.6228 24.8044 44.9995C24.8044 44.9995 24.4328 47.8014 24.9901 48.9211C24.9901 48.9211 26.858 49.8551 27.4205 49.8551C27.9829 49.8551 27.0541 50.6446 28.9169 51.3463C29.2562 51.4682 29.6193 51.5097 29.9774 51.4676C30.3355 51.4256 30.679 51.301 30.9809 51.1038C31.2544 49.9686 31.8529 48.2606 32.9675 48.6579C34.6032 49.241 36.0944 53.2658 33.8808 54.6384C36.5434 55.1234 39.7684 50.4123 39.9593 46.1192C40.1502 41.8261 35.5836 36.888 32.8178 36.4029Z" fill="#263238"/>
<path d="M24.8869 43.1574C24.8869 43.1574 26.2595 42.4195 27.9416 43.9985C29.6238 45.5774 32.8952 47.6879 37.2296 46.5269" stroke="white" stroke-width="0.5" stroke-linecap="round" stroke-linejoin="round"/>
<path d="M24.696 41.8932C24.696 41.8932 25.6403 40.4174 27.2192 40.4174C28.7982 40.4174 32.4876 42.6311 35.434 42.6311" stroke="white" stroke-width="0.5" stroke-linecap="round" stroke-linejoin="round"/>
<path d="M23.6227 44.7363C23.6227 44.7363 21.8322 42.5279 20.15 44.3184C18.4679 46.1089 19.536 47.8014 19.536 47.8014" stroke="white" stroke-width="0.5" stroke-linecap="round" stroke-linejoin="round"/>
<path d="M16.4658 46.2121C17.4919 45.2868 18.1297 44.0074 18.2512 42.6311C18.4627 40.3142 21.6258 38.3121 23.6227 40.211" stroke="white" stroke-width="0.5" stroke-linecap="round" stroke-linejoin="round"/>
<path d="M19.7269 37.7858C19.7269 37.7858 22.89 34.7311 25.5216 38.6269" stroke="white" stroke-width="0.5" stroke-linecap="round" stroke-linejoin="round"/>
<path d="M45.4702 187.978C45.4702 187.978 47.4155 191.002 47.1988 192.947L46.9872 194.892C46.9872 194.892 39.8509 196.848 38.339 196.848C36.8272 196.848 28.824 196.089 28.824 196.089L28.4783 194.717C28.4541 194.616 28.4655 194.509 28.5106 194.415C28.5557 194.321 28.6317 194.245 28.726 194.201L35.8622 190.873L38.112 188.411L45.4702 187.978Z" fill="white" stroke="#263238" stroke-width="1.00396" stroke-miterlimit="10"/>
<path d="M39.4226 195.326C41.3576 195.475 45.0316 194.294 47.1626 193.54L47.013 194.892C47.013 194.892 39.8509 196.848 38.339 196.848C36.8272 196.848 28.824 196.089 28.824 196.089L28.5763 195.109C29.856 195.114 36.8633 195.13 39.4226 195.326Z" fill="#FF725E" stroke="#263238" stroke-width="1.00396" stroke-miterlimit="10"/>
<path d="M35.8726 190.873L25.4855 195.393C25.4855 195.393 24.598 197.617 25.4855 198.061C26.373 198.504 45.723 198.061 45.723 198.061C45.723 198.061 47.0595 194.547 44.949 192.189C42.8386 189.83 35.8726 190.873 35.8726 190.873Z" fill="white" stroke="#263238" stroke-width="1.00396" stroke-miterlimit="10"/>
<path d="M45.723 198.061C45.723 198.061 26.373 198.504 25.4855 198.061C25.0572 197.844 25.0417 197.219 25.1398 196.626H46.0636C45.9952 197.114 45.8812 197.594 45.723 198.061Z" fill="#FF725E" stroke="#263238" stroke-width="1.00396" stroke-miterlimit="10"/>
<path d="M30.9602 112.332C30.9602 112.332 28.2461 124.36 27.2192 131.884C26.1924 139.407 25.5887 154.479 25.8054 156.208C26.0221 157.936 36.8272 186.9 36.8272 186.9L37.9056 189.48L45.4702 187.968C45.4702 187.968 42.013 176.946 40.7178 170.893C39.4226 164.841 36.5898 154.897 36.5898 153.169C36.5898 151.44 43.2978 118.426 43.7777 116.259C44.2576 114.092 46.4351 110.764 46.4351 110.764L31.951 110.47L30.9602 112.332Z" fill="#FF725E" stroke="#263238" stroke-width="1.00396" stroke-miterlimit="10"/>
<path d="M30.9602 112.332C30.9602 112.332 29.371 123.318 30.0263 130.955C30.6816 138.592 32.0903 154.851 32.0903 157.271C32.0903 159.691 35.9964 174.144 36.2183 178.685C36.564 185.243 36.079 188.489 36.079 188.489L35.8468 190.868C35.8468 190.868 40.403 191.518 41.3989 191.802C42.5492 192.098 43.7362 192.226 44.9232 192.183C44.9232 192.183 46.5796 184.892 46.5796 178.68C46.5796 172.467 45.2018 159.681 44.5156 154.5C43.8293 149.319 45.9913 129.335 47.2194 125.604C48.4475 121.873 51.1307 113.973 49.3247 109.938C47.5187 105.903 30.9602 112.332 30.9602 112.332Z" fill="#FF725E" stroke="#263238" stroke-width="1.00396" stroke-miterlimit="10"/>
<path d="M51.3319 107.915L51.1668 112.828C51.1668 112.828 48.2256 113.411 44.2627 114.097C40.9913 114.665 32.7766 113.947 30.0108 113.679C29.7588 113.657 29.5257 113.536 29.3624 113.343C29.1991 113.149 29.1187 112.899 29.1388 112.647L29.4071 108.21L51.3319 107.915Z" fill="#263238"/>
<path d="M39.8354 58.947C39.8354 58.947 35.1914 63.9677 33.4422 67.0895C31.693 70.2113 31.0015 74.9946 30.3462 78.7614C29.6909 82.5282 31.4659 91.3724 30.9654 95.4334L29.3813 108.225C29.3813 108.225 29.0407 109.092 30.1811 110.041C31.3214 110.991 36.8891 111.336 41.9201 111.589C43.757 111.682 49.2421 110.501 50.14 110.444C51.2236 110.377 51.2597 108.999 51.3061 107.915C51.5228 102.822 52.4413 89.2465 53.045 83.3331C54.2886 71.2742 47.4826 59.6333 39.8354 58.947Z" fill="white" stroke="#263238" stroke-width="1.00396" stroke-miterlimit="10"/>
<g style="mix-blend-mode:multiply">
<path d="M52.4774 90.1908C52.6838 87.5128 52.8902 85.0824 53.0708 83.3332C53.1224 82.8172 53.1534 82.3012 53.1792 81.7852L40.8416 83.8492L30.243 80.2372C30.2442 82.4302 30.3682 84.6215 30.6145 86.8007L41.0119 89.7109L52.4774 90.1908Z" fill="#FF725E"/>
</g>
<g style="mix-blend-mode:multiply">
<path d="M39.3762 59.4527C38.6744 60.2318 37.2812 61.816 35.9551 63.4981L43.788 71.46L46.368 70.428L39.3762 59.4527Z" fill="#FF725E"/>
</g>
<path d="M39.8354 58.947C39.8354 58.947 35.1914 63.9677 33.4422 67.0895C32.9235 68.0382 32.5034 69.0376 32.1883 70.0719L41.5279 59.2824C40.9762 59.1152 40.4093 59.0029 39.8354 58.947Z" fill="#263238"/>
<g style="mix-blend-mode:multiply">
<path d="M30.7074 76.7283L40.8416 80.0617L53.1482 78.6479C52.9554 75.5821 52.2743 72.5669 51.1307 69.7159L41.208 73.6943L32.338 69.6746C31.6127 71.9801 31.0675 74.3384 30.7074 76.7283Z" fill="#FF725E"/>
</g>
<g style="mix-blend-mode:multiply">
<path d="M48.1534 102.822C43.0133 103.685 37.7393 103.255 32.8075 101.569L30.3359 100.722L29.567 106.914L32.3844 107.704C37.7403 109.201 43.3382 109.633 48.8603 108.973L51.1359 108.7C51.2543 108.449 51.321 108.177 51.3319 107.9C51.3938 106.522 51.5022 104.52 51.6415 102.224L48.1534 102.822Z" fill="#FF725E"/>
</g>
<g style="mix-blend-mode:multiply">
<path d="M49.5311 94.391C44.3908 95.2574 39.1155 94.8246 34.1852 93.132L31.0376 92.0536C31.1157 93.1778 31.1002 94.3065 30.9912 95.4282L30.6248 98.4055L33.7621 99.2827C39.116 100.782 44.7121 101.215 50.2329 100.557L51.7808 100.371C51.9099 98.3075 52.0595 96.1093 52.2194 93.937L49.5311 94.391Z" fill="#FF725E"/>
</g>
<path d="M1.1206 72.5704L11.0977 80.5922L11.5277 80.0573L1.55063 72.0356L1.1206 72.5704Z" fill="#263238"/>
<path d="M44.6394 64.5146C44.6394 64.5146 48.2978 67.0069 48.3804 72.8945C48.4165 75.4745 48.1482 77.8842 47.5548 82.1102C46.9614 86.3363 43.2772 100.098 40.4082 101.77C37.5392 103.442 33.0862 100.284 33.0862 100.284L11.5483 85.9854L6.34189 81.78L3.76189 76.9089L4.57201 75.3609L10.924 80.232L7.50289 77.0689L8.17369 76.2175L9.41209 77.0792L13.0241 78.4311L13.8136 83.5911L14.9281 84.3548L35.532 91.8833C35.532 91.8833 35.274 80.7944 35.4649 78.6737C35.6558 76.5529 35.919 71.2226 38.1894 67.3578" fill="white"/>
<mask id="mask4_32_696" style="mask-type:luminance" maskUnits="userSpaceOnUse" x="3" y="64" width="46" height="39">
<path d="M44.6394 64.5146C44.6394 64.5146 48.2978 67.0069 48.3804 72.8945C48.4165 75.4745 48.1482 77.8842 47.5548 82.1102C46.9614 86.3363 43.2772 100.098 40.4082 101.77C37.5392 103.442 33.0862 100.284 33.0862 100.284L11.5483 85.9854L6.34189 81.78L3.76189 76.9089L4.57201 75.3609L10.924 80.232L7.50289 77.0689L8.17369 76.2175L9.41209 77.0792L13.0241 78.4311L13.8136 83.5911L14.9281 84.3548L35.532 91.8833C35.532 91.8833 35.274 80.7944 35.4649 78.6737C35.6558 76.5529 35.919 71.2226 38.1894 67.3578" fill="white"/>
</mask>
<g mask="url(#mask4_32_696)">
<g style="mix-blend-mode:multiply" opacity="0.5">
<path d="M35.3875 83.5034C35.3875 87.3321 35.5165 91.8833 35.5165 91.8833L14.9333 84.3858L13.8187 83.6221L13.0292 78.4621L9.41724 77.1102L8.184 76.233L7.5132 77.0844L10.924 80.232L4.572 75.3609L3.80316 76.8831L6.38316 81.7542L11.5896 85.9854L12.9002 86.8574L41.3576 96.0267L35.3875 83.5034Z" fill="#FF725E"/>
</g>
</g>
<path d="M44.6394 64.5146C44.6394 64.5146 48.2978 67.0069 48.3804 72.8945C48.4165 75.4745 48.1482 77.8842 47.5548 82.1102C46.9614 86.3363 43.2772 100.098 40.4082 101.77C37.5392 103.442 33.0862 100.284 33.0862 100.284L11.5483 85.9854L6.34189 81.78L3.76189 76.9089L4.57201 75.3609L10.924 80.232L7.50289 77.0689L8.17369 76.2175L9.41209 77.0792L13.0241 78.4311L13.8136 83.5911L14.9281 84.3548L35.532 91.8833C35.532 91.8833 35.274 80.7944 35.4649 78.6737C35.6558 76.5529 35.919 71.2226 38.1894 67.3578" stroke="#263238" stroke-width="1.00396" stroke-miterlimit="10"/>
<path d="M35.532 91.8833L43.3958 97.5593L45.434 93.9473C45.434 93.9473 46.8427 92.8379 47.0491 92.002C47.2555 91.166 46.9924 89.809 47.2039 88.973C47.4155 88.1371 48.4681 87.3528 48.5662 85.3301C48.6642 83.3074 48.5662 81.62 48.5662 81.62C48.5662 81.62 50.269 74.6179 50.0832 71.5735C49.8974 68.5291 46.9614 63.1472 44.6084 63.0286C42.2555 62.9099 39.1956 63.2659 36.822 66.8573C34.4484 70.4486 34.9334 80.9338 34.5619 81.5891C34.1904 82.2444 34.7064 85.4797 34.7064 85.4797C34.5002 85.6335 34.3291 85.8295 34.2045 86.0546C34.08 86.2797 34.0048 86.5288 33.984 86.7852C33.9427 87.6263 34.8509 89.6954 34.8509 89.6954L35.532 91.8833Z" fill="white" stroke="#263238" stroke-width="1.00396" stroke-miterlimit="10"/>
<g style="mix-blend-mode:multiply">
<path d="M34.7683 78.8956C34.7845 79.796 34.7172 80.696 34.5671 81.5839C34.2368 82.1722 34.6135 84.8296 34.6961 85.3714C39.1191 86.7452 43.7961 87.098 48.3752 86.4034C48.4736 86.0445 48.5325 85.6759 48.5507 85.3043C48.6539 83.2867 48.5507 81.5942 48.5507 81.5942C48.5507 81.5942 48.7003 80.9699 48.9067 80.0204C44.1644 80.3219 39.4033 79.9431 34.7683 78.8956Z" fill="#FF725E"/>
</g>
<g style="mix-blend-mode:multiply">
<path d="M36.5021 67.43C35.7642 68.9109 35.3514 71.1349 35.114 73.3898C39.7983 75.1775 44.8488 75.7922 49.8252 75.1803C50.0238 73.987 50.1118 72.7779 50.0884 71.5683C49.999 70.6123 49.7731 69.6739 49.4176 68.7819C45.0724 68.8834 40.7321 68.429 36.5021 67.43Z" fill="#FF725E"/>
</g>
<path d="M34.8509 89.7522L35.5165 91.8833L43.3804 97.5593L45.4186 93.9473C45.4186 93.9473 46.8272 92.8379 47.0336 92.002C47.0705 91.8566 47.0929 91.708 47.1007 91.5582C42.9567 91.4866 38.8393 90.8796 34.8509 89.7522Z" fill="#263238"/>
<path d="M40.5424 191.734C40.5424 191.734 40.7178 187.266 41.5744 180.733C42.4309 174.201 40.3721 164.923 40.0264 163.375C39.6806 161.827 40.2018 158.391 39.8561 157.183C39.5104 155.976 37.8385 150.826 38.8241 144.851C39.8096 138.875 40.6094 123.081 40.6094 123.081C40.6094 123.081 38.1275 121.063 37.3999 118.437C36.6724 115.81 37.2296 114.985 37.2296 114.985" stroke="#263238" stroke-width="1.00396" stroke-miterlimit="10"/>
<path d="M41.693 115.227L40.7384 120.511" stroke="#263238" stroke-width="1.00396" stroke-miterlimit="10"/>
</svg>
