<svg width="348" height="389" viewBox="0 0 348 389" fill="none" xmlns="http://www.w3.org/2000/svg">
<path d="M298.922 80.6474L297.155 77.7455C282.296 53.254 255.424 38.4876 227.097 40.277C223.463 40.5085 219.851 41.0078 216.29 41.7708C190.531 47.279 168.116 66.7601 158.827 91.7106C153.381 106.376 151.825 123.274 141.47 134.913C127.979 150.068 105.067 150.551 84.9248 149.921C64.7824 149.29 41.8625 149.827 28.4343 165.045C20.0241 174.575 17.3478 188.12 18.0324 200.887C19.8218 234.676 43.3641 264.886 73.3093 279.901C103.255 294.916 138.506 296.239 171.275 289.657C217.177 280.399 260.831 254.989 287.073 215.747C313.315 176.505 319.912 123.01 298.922 80.6474Z" fill="#EBEBEB"/>
<path d="M297.11 285.504C299.321 276.04 293.441 266.575 283.977 264.364C274.512 262.153 265.048 268.032 262.836 277.497C260.625 286.961 266.505 296.426 275.97 298.637C285.434 300.849 294.899 294.969 297.11 285.504Z" fill="#EBEBEB"/>
<path d="M339.992 368.928H7.08557V377.058H339.992" fill="#F5F5F5"/>
<path d="M339.992 377.057H338.28H333.27H313.968L242.851 377.104L7.1167 377.151H6.7666V368.771H7.1167L242.851 368.818L313.952 368.865H333.247H338.257H339.968C339.968 368.865 339.393 368.865 338.257 368.865H333.247H313.952L242.851 368.912L7.1167 368.958L7.4668 368.803V376.933L7.1167 376.785L242.851 376.824L313.968 376.87H333.27H338.28C339.393 377.042 339.992 377.057 339.992 377.057Z" fill="#263238"/>
<path d="M72.5232 377.375C72.3261 374.612 72.3261 371.838 72.5232 369.074C72.7202 371.838 72.7202 374.612 72.5232 377.375Z" fill="#263238"/>
<path d="M107.082 377.375C106.885 374.612 106.885 371.838 107.082 369.074C107.279 371.838 107.279 374.612 107.082 377.375Z" fill="#263238"/>
<path d="M141.641 377.375C141.433 374.612 141.433 371.837 141.641 369.074C141.838 371.838 141.838 374.612 141.641 377.375Z" fill="#263238"/>
<path d="M176.192 377.375C175.995 374.612 175.995 371.838 176.192 369.074C176.389 371.838 176.389 374.612 176.192 377.375Z" fill="#263238"/>
<path d="M209.832 377.375C209.625 374.612 209.625 371.837 209.832 369.074C210.029 371.838 210.029 374.612 209.832 377.375Z" fill="#263238"/>
<path d="M243.465 377.375C243.268 374.612 243.268 371.838 243.465 369.074C243.662 371.838 243.662 374.612 243.465 377.375Z" fill="#263238"/>
<path d="M277.098 377.375C276.901 374.612 276.901 371.838 277.098 369.074C277.295 371.838 277.295 374.612 277.098 377.375Z" fill="#263238"/>
<path d="M312.365 377.579C312.168 374.815 312.168 372.041 312.365 369.277C312.562 372.041 312.562 374.815 312.365 377.579Z" fill="#263238"/>
<path d="M40.9908 377.375C40.7937 374.612 40.7937 371.838 40.9908 369.074C41.1879 371.838 41.1879 374.612 40.9908 377.375Z" fill="#263238"/>
<path d="M340.116 377.618C339.919 374.851 339.919 372.075 340.116 369.309C340.313 372.075 340.313 374.851 340.116 377.618Z" fill="#263238"/>
<path d="M205.351 341.449L205.04 358.985C205.04 358.985 222.763 365.209 223.02 368.438L188.998 369.06L188.36 341.714L205.351 341.449Z" fill="#FF725E"/>
<path d="M194.506 357.702C194.18 357.806 193.904 358.028 193.731 358.324C193.559 358.62 193.502 358.969 193.573 359.304C193.664 359.629 193.876 359.908 194.165 360.082C194.454 360.257 194.798 360.316 195.129 360.246C195.473 360.133 195.764 359.896 195.945 359.582C196.126 359.267 196.184 358.897 196.109 358.542C195.972 358.211 195.713 357.946 195.385 357.801C195.058 357.656 194.687 357.643 194.351 357.764" fill="#E0E0E0"/>
<path d="M188.998 369.061L189.045 366.299L221.651 366.735C221.651 366.735 223.207 367.365 223.02 368.438L188.998 369.061Z" fill="#263238"/>
<path d="M205.593 358.805C205.593 358.968 204.76 359.062 203.951 359.583C203.142 360.104 202.722 360.843 202.566 360.781C202.411 360.719 202.644 359.746 203.632 359.101C204.62 358.455 205.624 358.657 205.593 358.805Z" fill="#263238"/>
<path d="M209.187 360.214C209.226 360.377 208.51 360.673 207.966 361.381C207.421 362.089 207.258 362.844 207.094 362.836C206.931 362.828 206.806 361.895 207.506 361.023C208.207 360.152 209.179 360.059 209.187 360.214Z" fill="#263238"/>
<path d="M211.295 364.446C211.14 364.485 210.899 363.668 211.295 362.742C211.692 361.816 212.478 361.451 212.548 361.583C212.618 361.715 212.151 362.221 211.824 362.975C211.498 363.73 211.459 364.43 211.295 364.446Z" fill="#263238"/>
<path d="M205.219 354.768C205.149 354.924 204.387 354.706 203.445 354.768C202.504 354.83 201.78 355.157 201.695 355.017C201.609 354.877 202.294 354.239 203.406 354.192C204.519 354.146 205.297 354.667 205.219 354.768Z" fill="#263238"/>
<path d="M185.575 332.097L173.399 344.724C173.399 344.724 182.144 361.334 180.121 363.886L154.828 341.168L172.987 320.715L185.575 332.097Z" fill="#FF725E"/>
<path d="M166.553 336.603C166.242 336.457 165.888 336.431 165.559 336.53C165.23 336.629 164.949 336.846 164.771 337.14C164.617 337.445 164.586 337.798 164.682 338.126C164.779 338.454 164.997 338.733 165.292 338.906C165.622 339.057 165.995 339.08 166.341 338.973C166.687 338.865 166.982 338.633 167.167 338.322C167.295 337.983 167.285 337.608 167.14 337.277C166.994 336.945 166.725 336.684 166.389 336.548" fill="#E0E0E0"/>
<path d="M154.828 341.169L156.742 339.178L180.315 361.74C180.315 361.74 181 363.241 180.16 363.918L154.828 341.169Z" fill="#263238"/>
<path d="M173.928 344.965C173.811 345.082 173.15 344.584 172.178 344.436C171.205 344.288 170.419 344.514 170.349 344.366C170.279 344.218 171.127 343.666 172.271 343.868C173.415 344.071 174.053 344.872 173.928 344.965Z" fill="#263238"/>
<path d="M175.593 348.443C175.515 348.591 174.815 348.318 173.905 348.443C172.994 348.567 172.395 349.034 172.279 348.917C172.162 348.801 172.707 348.03 173.835 347.867C174.963 347.704 175.702 348.326 175.593 348.443Z" fill="#263238"/>
<path d="M174.278 352.979C174.138 352.901 174.519 352.131 175.445 351.742C176.371 351.353 177.196 351.594 177.157 351.742C177.118 351.89 176.433 351.929 175.679 352.263C174.924 352.598 174.387 353.08 174.278 352.979Z" fill="#263238"/>
<path d="M176.379 341.775C176.223 341.845 175.811 341.161 175.072 340.585C174.333 340.009 173.586 339.737 173.617 339.574C173.648 339.41 174.566 339.434 175.43 340.134C176.293 340.834 176.527 341.737 176.379 341.775Z" fill="#263238"/>
<path d="M252.669 151.368L237.708 161.249L237.926 165.139L241.816 173.378C241.816 173.378 243.621 175.089 248.919 169.721C254.218 164.353 260.916 153.687 260.916 153.687L252.669 151.368Z" fill="#BA7F72"/>
<path d="M277.853 130.782C277.767 130.588 277.632 130.42 277.462 130.293C277.291 130.167 277.091 130.086 276.881 130.059L269.552 129.079C269.234 129.041 268.912 129.069 268.605 129.162C268.299 129.254 268.015 129.409 267.77 129.615L246.764 147.642L247.714 148.567L255.587 150.458L277.986 131.109L277.853 130.782Z" fill="#263238"/>
<path d="M272.034 132.26C272.12 132.339 272.232 132.382 272.349 132.382C272.466 132.382 272.578 132.339 272.664 132.26C272.716 132.236 272.763 132.203 272.802 132.161C272.841 132.119 272.871 132.07 272.89 132.016C272.91 131.963 272.919 131.906 272.916 131.849C272.913 131.792 272.899 131.736 272.874 131.684C272.795 131.599 272.687 131.547 272.571 131.54C272.455 131.533 272.34 131.57 272.252 131.645C272.195 131.669 272.145 131.705 272.103 131.75C272.061 131.794 272.029 131.847 272.008 131.905C271.988 131.963 271.979 132.024 271.984 132.085C271.988 132.146 272.005 132.206 272.034 132.26Z" fill="white"/>
<path d="M278.001 131.109C277.519 131.113 277.038 131.077 276.562 131L272.672 130.541L269.98 130.206C269.756 130.165 269.525 130.174 269.305 130.232C269.084 130.289 268.879 130.395 268.704 130.541L267.506 131.576L262.145 136.197C258.325 139.464 254.856 142.421 252.335 144.514L249.324 147.003C248.967 147.318 248.587 147.607 248.188 147.867C248.5 147.508 248.844 147.177 249.215 146.879L252.125 144.288C254.599 142.117 258.038 139.138 261.85 135.87L267.241 131.28L268.455 130.245C268.671 130.072 268.922 129.947 269.19 129.879C269.458 129.81 269.738 129.8 270.011 129.848L272.703 130.245L276.593 130.836C277.068 130.896 277.538 130.987 278.001 131.109Z" fill="#455A64"/>
<path d="M270.377 134.874C270.377 134.874 269.715 134.555 268.821 136.368C267.926 138.181 265.102 143.37 265.102 143.37L261.99 140.382L257.213 139.69C257.213 139.69 255.945 140.336 256.544 141.044C257.143 141.752 259.905 143.098 259.905 143.098L261.188 146.785L255.851 142.117C255.851 142.117 253.642 142.078 253.899 143.502C254.155 144.926 257.205 150.022 257.205 150.022L254.179 148.917L251.129 145.657C251.129 145.657 249.985 145.393 250.141 146.474C250.297 147.556 253.136 152.091 253.136 152.091L257.143 155.639C257.143 155.639 259.726 156.152 260.177 155.476C260.496 154.931 260.756 154.355 260.955 153.756C260.955 153.756 262.402 153.756 262.838 153.196C263.136 152.688 263.327 152.124 263.398 151.539C263.398 151.539 265.405 152.496 265.997 151.399C266.593 149.987 266.95 148.486 267.055 146.956C267.055 145.992 270.563 137.901 270.548 137.62C270.532 137.34 271.855 134.695 270.377 134.874Z" fill="#BA7F72"/>
<path d="M260.286 155.483C259.858 155.609 259.406 155.622 258.971 155.522C257.911 155.384 256.887 155.046 255.953 154.526C255.017 154.014 254.189 153.324 253.517 152.496C253.004 151.85 252.802 151.391 252.848 151.36C252.895 151.329 254.085 152.916 256.194 154.098C258.302 155.281 260.302 155.335 260.286 155.483Z" fill="#8B5D54"/>
<path d="M259.656 153.516C259.547 153.601 258.878 152.94 258.178 151.96C257.477 150.979 257.12 150.108 257.236 150.046C257.353 149.983 257.913 150.73 258.582 151.679C259.251 152.629 259.757 153.43 259.656 153.516Z" fill="#8B5D54"/>
<path d="M263.211 150.201C263.11 150.286 262.433 149.641 261.803 148.645C261.173 147.649 260.932 146.746 261.025 146.692C261.118 146.638 261.609 147.47 262.192 148.388C262.776 149.306 263.32 150.107 263.211 150.201Z" fill="#8B5D54"/>
<path d="M266.681 147.696C266.541 147.696 266.316 146.715 265.849 145.564C265.382 144.412 264.853 143.533 264.97 143.448C265.086 143.362 265.818 144.156 266.308 145.377C266.675 146.091 266.805 146.903 266.681 147.696Z" fill="#8B5D54"/>
<path d="M211.373 70.752C208.16 72.2068 203.173 74.4319 200.287 76.4547C199.618 76.9215 198.871 77.715 199.26 78.4308C199.649 79.1466 201.01 79.4344 201.726 79.5667C204.192 80.0179 210.035 79.9324 213.871 78.0885L211.373 70.752Z" fill="#455A64"/>
<path d="M213.552 88.9644C212.368 85.4891 211.488 81.9176 210.922 78.2902C210.359 74.6465 210.71 70.9201 211.941 67.4449C212.143 66.9236 213.847 63.4538 214.4 63.5549C214.789 63.6016 213.73 66.8458 213.925 67.1959C215.792 70.4947 216.259 74.4469 215.901 78.2202C215.525 81.8899 214.742 85.5065 213.567 89.0033" fill="#263238"/>
<path d="M230.512 131.56C224.825 131.365 212.859 114.872 212.937 109.185L213.38 74.9526C213.209 65.7567 218.414 57.9845 227.618 58.07L228.466 58.1245C232.59 58.4018 236.458 60.2215 239.301 63.2215C242.144 66.2215 243.753 70.182 243.808 74.3147C243.917 82.2892 243.932 91.0961 243.59 95.3207C242.89 104.12 233.99 104.898 233.99 104.898C233.99 104.898 233.912 106.944 233.85 109.566C233.71 115.378 235.981 131.723 230.162 131.521L230.512 131.56Z" fill="#BA7F72"/>
<path d="M233.99 104.937C229.921 104.654 226.019 103.209 222.748 100.774C222.748 100.774 225.082 107.582 233.904 107.38L233.99 104.937Z" fill="#8B5D54"/>
<path d="M240.828 81.5422C240.81 81.871 240.664 82.1797 240.421 82.4022C240.178 82.6246 239.858 82.7432 239.529 82.7326C239.368 82.7336 239.209 82.7027 239.06 82.6417C238.912 82.5807 238.777 82.4907 238.663 82.3771C238.549 82.2635 238.459 82.1284 238.398 81.9798C238.337 81.8311 238.306 81.6718 238.308 81.5111C238.328 81.183 238.474 80.8755 238.717 80.6534C238.959 80.4313 239.278 80.3121 239.607 80.3208C239.768 80.3187 239.928 80.3488 240.077 80.4095C240.226 80.4701 240.361 80.56 240.475 80.6739C240.589 80.7877 240.679 80.9232 240.74 81.0723C240.8 81.2215 240.83 81.3812 240.828 81.5422Z" fill="#263238"/>
<path d="M241.676 78.0882C241.505 78.236 240.603 77.4736 239.249 77.3802C237.895 77.2869 236.86 77.9015 236.72 77.7303C236.58 77.5592 236.829 77.3647 237.288 77.0768C237.903 76.7126 238.615 76.5469 239.327 76.6022C240.031 76.6537 240.7 76.9259 241.241 77.3802C241.637 77.7148 241.754 78.0182 241.676 78.0882Z" fill="#263238"/>
<path d="M228.442 81.2698C228.426 81.5932 228.287 81.898 228.052 82.1211C227.817 82.3441 227.506 82.4683 227.182 82.4679C227.021 82.47 226.861 82.4399 226.712 82.3792C226.563 82.3186 226.428 82.2287 226.314 82.1148C226.2 82.001 226.11 81.8655 226.049 81.7164C225.989 81.5672 225.959 81.4075 225.961 81.2465C225.983 80.9198 226.13 80.6142 226.372 80.3938C226.615 80.1734 226.933 80.0552 227.26 80.0639C227.576 80.07 227.876 80.1998 228.098 80.4253C228.319 80.6508 228.443 80.954 228.442 81.2698Z" fill="#263238"/>
<path d="M228.388 77.505C228.217 77.6606 227.314 76.8903 225.961 76.8048C224.607 76.7192 223.564 77.326 223.432 77.1549C223.3 76.9837 223.541 76.7892 224 76.5013C224.611 76.1355 225.32 75.9671 226.031 76.019C226.738 76.0656 227.412 76.3383 227.952 76.797C228.341 77.1315 228.466 77.4427 228.388 77.505Z" fill="#263238"/>
<path d="M232.543 88.2331C233.271 88.0591 234.019 87.9754 234.768 87.9842C235.118 87.9842 235.444 87.9297 235.546 87.6963C235.596 87.3403 235.539 86.9774 235.382 86.6538C235.11 85.798 234.83 84.8955 234.534 83.9541C233.367 80.1108 232.55 76.9521 232.706 76.9521C232.862 76.9521 233.927 79.9863 235.102 83.8297C235.374 84.7788 235.647 85.6813 235.88 86.5449C236.067 86.9776 236.097 87.4616 235.966 87.9142C235.906 88.0324 235.82 88.1356 235.715 88.2164C235.61 88.2972 235.488 88.3534 235.359 88.381C235.162 88.4025 234.964 88.4025 234.768 88.381C234.023 88.4289 233.275 88.3793 232.543 88.2331Z" fill="#263238"/>
<path d="M228.606 72.4399C228.396 72.7744 227.104 72.3232 225.494 72.1832C223.883 72.0431 222.553 72.1832 222.382 71.8253C222.32 71.6541 222.615 71.3585 223.16 71.1173C223.941 70.8154 224.781 70.6996 225.614 70.7793C226.448 70.859 227.251 71.1319 227.96 71.5763C228.466 71.9342 228.738 72.2843 228.606 72.4399Z" fill="#263238"/>
<path d="M241.567 74.8985C241.272 75.1942 240.183 74.813 238.86 74.7274C237.537 74.6418 236.394 74.813 236.152 74.4706C236.051 74.315 236.246 74.0116 236.752 73.7471C237.445 73.4197 238.213 73.2854 238.977 73.3581C239.741 73.4012 240.479 73.6543 241.108 74.0894C241.56 74.4317 241.7 74.7585 241.567 74.8985Z" fill="#263238"/>
<path d="M213.66 81.535C213.513 81.4572 207.724 79.3332 207.514 85.3705C207.304 91.4078 213.404 90.373 213.419 90.2019C213.435 90.0307 213.66 81.535 213.66 81.535Z" fill="#BA7F72"/>
<path d="M211.661 87.8519C211.661 87.8519 211.552 87.922 211.373 87.992C211.124 88.0924 210.845 88.0924 210.595 87.992C209.965 87.7352 209.459 86.7005 209.467 85.6113C209.473 85.0938 209.593 84.584 209.817 84.1176C209.881 83.9318 209.988 83.764 210.13 83.6286C210.273 83.4932 210.445 83.394 210.634 83.3396C210.757 83.3126 210.885 83.3289 210.997 83.3856C211.109 83.4423 211.198 83.536 211.249 83.6507C211.326 83.8219 211.249 83.9386 211.311 83.9542C211.373 83.9697 211.443 83.853 211.404 83.6041C211.373 83.4533 211.294 83.3168 211.179 83.2151C211.015 83.0877 210.81 83.0266 210.603 83.0439C210.354 83.0845 210.12 83.188 209.923 83.3446C209.725 83.5012 209.571 83.7057 209.475 83.9386C209.2 84.4539 209.054 85.0275 209.047 85.6113C209.047 86.825 209.63 87.992 210.494 88.2721C210.654 88.3241 210.824 88.3398 210.99 88.3183C211.157 88.2968 211.317 88.2385 211.459 88.1476C211.622 87.992 211.677 87.8597 211.661 87.8519Z" fill="#8B5D54"/>
<path d="M240.167 64.2162C241.155 63.7027 238.308 60.4662 235.942 59.3148C232.356 57.572 226.84 56.4128 223.494 57.2686C219.433 58.3034 216.033 60.225 213.917 63.8349C211.871 67.5164 210.84 71.6753 210.93 75.8862C210.853 77.1705 211.121 78.452 211.708 79.5972C212.486 80.9509 214.112 81.8379 213.995 83.6739C213.961 84.0067 213.995 84.3428 214.094 84.6622C214.193 84.9817 214.355 85.278 214.571 85.5334C215.644 86.7393 217.021 85.6734 217.683 84.5764C219.068 82.2424 219.293 79.4338 219.48 76.7264C219.717 74.8104 219.641 72.8685 219.254 70.977C218.982 69.9656 218.531 69.0009 218.321 67.9739C218.184 67.4664 218.159 66.9354 218.246 66.4172C218.333 65.899 218.531 65.4056 218.826 64.9708C218.98 64.7952 219.149 64.6337 219.332 64.4885C220.193 63.775 221.229 63.3038 222.332 63.1233C223.436 62.9428 224.567 63.0596 225.611 63.4615C228.979 64.753 234.737 66.7058 236.277 65.5932C238.502 63.9905 239.054 62.9169 239.054 62.9169L240.167 64.2162Z" fill="#263238"/>
<path d="M228.793 88.8632C228.715 88.8632 228.653 89.2055 228.793 89.7267C228.941 90.4235 229.306 91.0554 229.835 91.5317C230.333 91.9841 230.911 92.3402 231.539 92.582C232.014 92.7765 232.317 92.831 232.371 92.7532C232.426 92.6754 232.161 92.4731 231.749 92.193C231.218 91.8536 230.713 91.4739 230.24 91.0571C229.158 90.108 228.995 88.8243 228.793 88.8632Z" fill="#263238"/>
<path d="M237.887 59.1282C235.621 57.0449 232.823 55.6296 229.802 55.0391C226.781 54.4486 223.655 54.706 220.771 55.7828C215.419 57.899 210.346 63.1427 209.794 68.8454L209.942 73.0622L210.72 72.6498C215.769 70.806 221.363 68.6509 224.63 67.9818C231.422 66.6515 242.999 68.8688 242.999 68.8688C242.391 65.1554 240.598 61.7384 237.887 59.1282Z" fill="#455A64"/>
<path d="M237.405 64.3794C237.019 63.8347 236.446 63.4523 235.795 63.3057C233.528 62.7121 231.155 62.6535 228.863 63.1346C228.276 63.1938 227.71 63.3825 227.205 63.687C226.95 63.8475 226.752 64.0838 226.637 64.3628C226.523 64.6417 226.498 64.9495 226.567 65.243C226.801 66.021 227.82 66.2699 228.637 66.1843C229.504 66.2122 230.37 66.0911 231.197 65.8265C232.823 65.6029 234.476 65.6608 236.082 65.9976C236.335 66.0728 236.6 66.0913 236.86 66.0521C237.018 65.9923 237.161 65.8979 237.277 65.7757C237.394 65.6536 237.481 65.5068 237.534 65.3463C237.586 65.1858 237.602 65.0155 237.579 64.8482C237.557 64.6809 237.497 64.5206 237.405 64.3794Z" fill="#263238"/>
<path d="M230.395 64.885C230.966 65.0152 231.495 65.2861 231.935 65.6731C232.374 66.0602 232.709 66.551 232.91 67.1009C233.112 67.6507 233.172 68.2422 233.086 68.8213C233 69.4004 232.77 69.9488 232.418 70.4166C232.856 70.2883 233.258 70.0628 233.597 69.757C233.935 69.4512 234.199 69.0729 234.371 68.6505C234.627 69.2869 234.627 69.998 234.371 70.6344C235.165 70.235 235.83 69.6168 236.285 68.8528C236.47 69.583 236.496 70.3443 236.363 71.0856C237.255 70.5493 237.901 69.6828 238.16 68.6738C238.404 67.6678 238.374 66.6148 238.074 65.6241C237.916 64.8641 237.474 64.1934 236.837 63.7491C236.186 63.459 235.466 63.3566 234.76 63.4534C233.235 63.4771 231.717 63.6623 230.232 64.0058" fill="#263238"/>
<path d="M243.147 67.1962C242.71 67.1612 242.276 67.0962 241.847 67.0017C241.435 66.9239 240.922 66.8305 240.291 66.7527C239.661 66.6749 239.023 66.5504 238.276 66.4882C236.523 66.2814 234.759 66.1645 232.994 66.1381C230.832 66.1111 228.671 66.2099 226.521 66.4337C224.375 66.6839 222.245 67.0553 220.141 67.5463C218.423 67.9527 216.727 68.4487 215.061 69.0323C214.337 69.2579 213.707 69.5224 213.147 69.7324C212.587 69.9425 212.104 70.137 211.723 70.3004C211.325 70.4867 210.914 70.6453 210.494 70.775C210.858 70.531 211.247 70.325 211.653 70.1603C212.034 69.9658 212.501 69.748 213.061 69.5224C213.622 69.2968 214.244 69.0089 214.96 68.7444C216.625 68.1296 218.324 67.6101 220.048 67.1884C224.283 66.1383 228.64 65.662 233.002 65.7724C234.777 65.8192 236.548 65.9646 238.308 66.2081C239.086 66.2937 239.739 66.4337 240.33 66.5426C240.922 66.6516 241.427 66.7527 241.84 66.8538C242.284 66.9301 242.722 67.0446 243.147 67.1962Z" fill="#263238"/>
<path d="M224.599 55.1297C224.638 55.192 223.922 55.6354 222.926 56.5301C220.306 58.8979 218.587 62.101 218.064 65.5938C217.869 66.9242 217.893 67.7722 217.823 67.7722C217.753 67.7722 217.768 67.5622 217.737 67.1809C217.706 66.6412 217.721 66.0997 217.784 65.5627C218.152 61.9487 219.933 58.6267 222.74 56.3201C223.151 55.9689 223.594 55.6563 224.062 55.3865C224.397 55.192 224.584 55.1064 224.599 55.1297Z" fill="#263238"/>
<path d="M233.453 63.438C233.261 62.9288 233.097 62.4093 232.963 61.882C232.547 60.6468 231.932 59.4878 231.142 58.451C230.349 57.4185 229.396 56.5202 228.318 55.7902C227.841 55.5243 227.381 55.2281 226.941 54.9033C227.497 55.0157 228.025 55.235 228.497 55.5491C230.84 56.9196 232.552 59.1542 233.266 61.7731C233.433 62.3113 233.496 62.8762 233.453 63.438Z" fill="#263238"/>
<g opacity="0.3">
<path d="M210.844 72.627C207.032 74.3308 202.932 75.9335 199.952 79.0221C200.461 79.263 201 79.4356 201.555 79.5356C203.134 79.8298 204.744 79.9291 206.347 79.8312C207.946 79.782 209.532 79.5204 211.062 79.0532L210.844 72.627Z" fill="black"/>
</g>
<path d="M184.991 193.792L181.101 218.081L183.956 238.154L184.081 242.511L186.967 263.929C186.967 263.929 185.894 284.103 185.357 288.49C184.82 292.878 186.718 354.543 186.718 354.543L206.347 353.679C206.347 353.679 213.762 262.171 213.738 261.167C213.715 260.164 223.946 192.703 223.946 192.703L184.991 193.792Z" fill="#263238"/>
<path d="M234.596 197.542C234.596 197.542 234.207 279.738 232.371 284.492C230.535 289.245 178.946 340.337 178.946 340.337L162.608 327.608L204.34 271.522L206.907 193.209L234.596 197.542Z" fill="#263238"/>
<path d="M220.911 219.03C221.02 219.03 218.577 239.803 215.465 265.384C212.353 290.964 209.724 311.706 209.615 311.69C209.506 311.675 211.949 290.925 215.061 265.337C218.173 239.748 220.803 219.015 220.911 219.03Z" fill="#455A64"/>
<path d="M186.944 263.929C186.954 263.996 186.954 264.064 186.944 264.131V264.722C186.905 265.275 186.851 266.037 186.781 267.002C186.617 268.978 186.438 271.849 186.22 275.389C185.824 282.468 185.489 292.271 185.582 303.093C185.676 313.915 185.979 323.718 186.166 330.813C186.252 334.338 186.314 337.201 186.36 339.216C186.36 340.188 186.36 340.951 186.36 341.503C186.36 341.744 186.36 341.939 186.36 342.094C186.372 342.164 186.372 342.235 186.36 342.304C186.351 342.237 186.351 342.169 186.36 342.102C186.36 341.939 186.36 341.744 186.322 341.503C186.322 340.951 186.267 340.188 186.22 339.224C186.143 337.209 186.034 334.346 185.894 330.821C185.637 323.734 185.256 313.931 185.186 303.093C185.116 292.256 185.481 282.453 185.964 275.373C186.22 271.825 186.446 268.962 186.656 266.986C186.757 266.029 186.835 265.267 186.897 264.714C186.897 264.473 186.952 264.279 186.967 264.123C186.948 264.06 186.94 263.994 186.944 263.929Z" fill="#455A64"/>
<path d="M206.783 217.295C206.837 217.396 203.259 219.279 198.808 221.496C194.358 223.714 190.694 225.441 190.647 225.34C190.601 225.239 194.164 223.356 198.622 221.139C203.08 218.921 206.736 217.194 206.783 217.295Z" fill="#455A64"/>
<path d="M246.313 153.71L256.163 162.602C256.163 162.602 240.743 179.446 235.974 183.173C231.204 186.899 237.856 157.934 237.856 157.934L246.313 153.71Z" fill="#FF725E"/>
<path d="M212.851 101.016L208.751 106.695L192.802 112.592L185.567 166.827L181 215.257C181 215.257 187.387 206.147 192.273 206.022C197.159 205.898 221.892 212.806 223.564 214.067L226.824 203.105L229.516 215.802C229.516 215.802 234.184 216.844 236.58 209.905L235.553 185.833C235.553 185.833 238.821 142.444 238.665 135.901C238.51 129.358 234.06 111.192 234.06 111.192L232.41 116.552L218.048 104.299L212.851 101.016Z" fill="#FF725E"/>
<path d="M197.408 110.943C197.408 110.943 186.928 110.943 183.544 130.316C180.16 149.688 175.282 170.554 177.795 178.341C180.308 186.129 190.142 208.567 190.142 208.567L203.648 203.697L198.108 168.469L204.519 133.988C204.519 133.988 205.305 112.359 197.408 110.943Z" fill="#FF725E"/>
<path d="M209.459 211.484C209.459 211.484 203.025 203.914 202.535 204.101L191.845 207.991C191.612 210.739 191.635 213.502 191.915 216.246C192.336 220.198 193.012 224.422 193.012 224.422L207.079 216.923C207.39 218.484 207.849 220.013 208.448 221.489C209.226 223.123 211.949 221.396 211.949 221.396L209.459 211.484Z" fill="#BA7F72"/>
<path d="M204.519 133.987C204.519 133.987 204.519 134.197 204.426 134.602C204.332 135.006 204.247 135.621 204.114 136.407L202.87 143.307C201.773 149.298 200.193 157.918 198.264 168.491V168.437C199.82 178.473 201.749 190.493 203.834 203.665V203.828L203.679 203.883L190.18 208.753L190.001 208.815L189.931 208.644C188.562 205.462 187.107 202.101 185.637 198.693C183.062 192.594 180.557 186.626 178.394 180.799C178.114 180.068 177.872 179.329 177.616 178.59C177.499 178.224 177.421 177.812 177.328 177.454C177.221 177.077 177.148 176.692 177.11 176.302C176.999 175.542 176.934 174.776 176.916 174.007C176.877 173.251 176.877 172.492 176.916 171.736C177.013 168.79 177.273 165.853 177.694 162.936C178.472 157.234 179.444 151.873 180.362 146.855C181.28 141.837 182.175 137.161 182.968 132.898C183.334 130.758 183.746 128.728 184.182 126.822L184.96 124.075C185.263 123.204 185.598 122.371 185.894 121.562C186.968 118.79 188.617 116.276 190.733 114.187C192.085 112.879 193.715 111.895 195.502 111.308C195.966 111.164 196.443 111.063 196.926 111.005H197.291H197.416L196.926 111.067C196.45 111.143 195.982 111.257 195.525 111.409C193.774 112.027 192.18 113.023 190.857 114.327C188.778 116.414 187.163 118.916 186.119 121.671C185.824 122.449 185.497 123.305 185.209 124.169C184.921 125.032 184.696 125.966 184.431 126.907C184.019 128.806 183.606 130.797 183.248 132.968C182.47 137.239 181.615 141.915 180.697 146.933C179.779 151.951 178.798 157.319 178.067 163.006C177.662 165.911 177.418 168.835 177.336 171.767C177.336 172.545 177.336 173.26 177.336 174.015C177.358 174.77 177.423 175.524 177.53 176.271C177.569 176.647 177.639 177.02 177.74 177.384C177.834 177.757 177.904 178.162 178.02 178.489C178.269 179.22 178.51 179.959 178.798 180.69C180.961 186.533 183.466 192.5 186.041 198.584L190.328 208.504L190.079 208.395L203.578 203.54L203.453 203.75C201.391 190.571 199.516 178.551 197.953 168.515V168.46L202.698 143.3C203.274 140.328 203.718 138.001 204.021 136.414C204.177 135.636 204.293 135.037 204.379 134.617C204.465 134.197 204.519 133.987 204.519 133.987Z" fill="#263238"/>
<path d="M232.34 116.552C232.257 116.799 232.153 117.039 232.029 117.268L231.072 119.228L227.524 126.036L227.384 126.3L227.182 126.036C225.93 124.316 224.49 122.457 222.903 120.59C220.248 117.405 217.417 114.371 214.423 111.503C213.271 110.406 212.322 109.534 211.669 108.928C211.312 108.633 210.977 108.313 210.665 107.971C211.056 108.22 211.426 108.501 211.77 108.811C212.455 109.379 213.443 110.219 214.617 111.301C217.686 114.112 220.558 117.129 223.214 120.333C224.809 122.239 226.241 124.114 227.486 125.849H227.167L230.823 119.104L231.897 117.19C232.018 116.96 232.167 116.746 232.34 116.552Z" fill="#263238"/>
<path d="M235.872 119.438C236.005 119.392 236.65 121.858 236.199 125.141L236.114 125.717L235.833 125.188C235.678 124.908 235.53 124.604 235.39 124.301C234.612 122.589 234.215 120.971 233.795 119.843C233.375 118.715 233.064 118.046 233.118 118.022C233.526 118.539 233.844 119.12 234.06 119.742C234.558 120.854 235.017 122.473 235.756 124.13C235.896 124.433 236.036 124.721 236.184 124.993L235.81 125.048C236.023 123.731 236.088 122.395 236.005 121.064C235.966 120.045 235.833 119.462 235.872 119.438Z" fill="#263238"/>
<path d="M233.025 119.346C233.036 119.418 233.036 119.491 233.025 119.564C233.025 119.735 233.025 119.937 233.025 120.202C233.025 120.762 233.025 121.586 233.025 122.652C233.025 124.776 232.908 127.849 232.698 131.646C232.294 139.247 231.368 149.703 230.419 161.264C229.469 172.825 228.536 183.258 227.89 190.828C227.548 194.586 227.268 197.644 227.073 199.791C226.972 200.826 226.894 201.635 226.832 202.226C226.801 202.485 226.778 202.695 226.762 202.856C226.755 202.93 226.742 203.003 226.723 203.074C226.715 203.002 226.715 202.929 226.723 202.856C226.723 202.685 226.723 202.475 226.762 202.218C226.762 201.627 226.855 200.81 226.925 199.775L227.61 190.797C228.232 183.196 229.08 172.748 230.022 161.194C230.963 149.641 231.943 139.185 232.418 131.63C232.667 127.841 232.799 124.768 232.877 122.644C232.916 121.61 232.947 120.793 232.963 120.202C232.963 119.937 232.963 119.727 232.963 119.564C232.973 119.488 232.994 119.415 233.025 119.346Z" fill="#263238"/>
<path d="M238.681 142.133C238.79 142.133 238.191 151.982 237.335 164.119C236.479 176.256 235.693 186.082 235.585 186.074C235.476 186.066 236.075 176.225 236.93 164.088C237.786 151.951 238.572 142.125 238.681 142.133Z" fill="#263238"/>
<path d="M207.133 125.258C207.063 125.258 207.063 124.285 206.682 122.799C206.19 120.854 205.221 119.063 203.862 117.586C202.504 116.11 200.799 114.995 198.902 114.343C197.447 113.829 196.482 113.751 196.49 113.673C196.717 113.635 196.948 113.635 197.175 113.673C197.792 113.742 198.402 113.869 198.995 114.055C200.976 114.65 202.76 115.768 204.16 117.29C205.56 118.812 206.525 120.683 206.954 122.706C207.087 123.312 207.162 123.93 207.18 124.55C207.212 124.787 207.196 125.027 207.133 125.258Z" fill="#263238"/>
<g opacity="0.3">
<path d="M236.137 182.831C239.087 174.794 239.628 166.072 237.693 157.732C237.174 166.166 236.656 174.597 236.137 183.025" fill="black"/>
</g>
<path d="M202.831 142.771C202.56 142.726 202.297 142.64 202.053 142.514L199.952 141.682C198.186 140.982 195.743 140.025 193.02 139.013C190.297 138.002 187.815 137.131 186.018 136.516L183.886 135.777C183.615 135.705 183.354 135.601 183.108 135.466C183.374 135.485 183.636 135.54 183.886 135.629C184.408 135.761 185.147 135.972 186.057 136.244C187.885 136.796 190.383 137.621 193.113 138.632C195.844 139.644 198.279 140.647 200.014 141.418C200.886 141.807 201.57 142.133 202.068 142.367C202.337 142.473 202.592 142.609 202.831 142.771Z" fill="white"/>
<path d="M205.639 119.922C204.859 119.767 204.092 119.553 203.344 119.284C201.944 118.864 200.007 118.296 197.844 117.728C195.681 117.16 193.705 116.732 192.273 116.428C191.484 116.298 190.704 116.113 189.939 115.876C190.724 115.886 191.506 115.975 192.273 116.14C193.72 116.382 195.72 116.778 197.89 117.331C200.061 117.883 201.998 118.513 203.383 119.004C204.165 119.232 204.921 119.539 205.639 119.922Z" fill="white"/>
<path d="M215.061 112.203C212.823 112.851 210.55 113.371 208.253 113.759C205.982 114.271 203.683 114.65 201.368 114.895C203.606 114.247 205.879 113.727 208.176 113.339C210.447 112.827 212.746 112.448 215.061 112.203Z" fill="white"/>
<path d="M216.975 104.291C216.46 105.301 215.828 106.246 215.092 107.107C214.461 108.044 213.722 108.903 212.89 109.667C213.408 108.662 214.04 107.72 214.773 106.858C215.403 105.919 216.142 105.057 216.975 104.291Z" fill="white"/>
<path d="M228.03 113.643C227.415 114.878 226.678 116.048 225.828 117.136C225.086 118.301 224.237 119.395 223.292 120.403C223.909 119.169 224.646 117.999 225.494 116.91C226.237 115.745 227.086 114.651 228.03 113.643Z" fill="white"/>
<path d="M232.037 137.893C231.672 137.901 231.308 137.878 230.948 137.823C230.247 137.753 229.244 137.636 228.007 137.473C225.525 137.154 222.11 136.648 218.344 135.979C214.579 135.31 211.202 134.625 208.759 134.081C207.538 133.809 206.557 133.575 205.88 133.396C205.522 133.325 205.171 133.224 204.83 133.093C205.195 133.103 205.558 133.155 205.912 133.248L208.821 133.801C211.272 134.275 214.664 134.921 218.414 135.582C222.164 136.244 225.579 136.796 228.046 137.193L230.971 137.667C231.333 137.706 231.69 137.781 232.037 137.893Z" fill="white"/>
<path d="M238.767 136.82C236.654 136.546 234.585 136.01 232.605 135.225C233.663 135.291 234.709 135.492 235.717 135.824C236.771 136.027 237.795 136.362 238.767 136.82Z" fill="white"/>
<path d="M229.983 165.816C229.983 165.924 223.183 164.835 214.843 163.38C206.503 161.926 199.75 160.657 199.773 160.541C199.797 160.424 206.573 161.521 214.913 162.976C223.253 164.431 229.998 165.714 229.983 165.816Z" fill="white"/>
<path d="M236.946 165.178C235.808 165.074 234.68 164.887 233.569 164.617C232.436 164.474 231.315 164.245 230.216 163.933C232.52 163.897 234.808 164.32 236.946 165.178Z" fill="white"/>
<path d="M247.535 171.347C246.026 169.128 244.629 166.836 243.349 164.477C241.139 160.626 239.459 157.475 239.513 157.397C241.026 159.617 242.423 161.912 243.699 164.275C245.098 166.565 246.378 168.926 247.535 171.347Z" fill="white"/>
<path d="M198.178 165.769C198.178 165.886 193.65 165.217 188.111 164.283C182.572 163.35 178.09 162.502 178.106 162.393C178.121 162.284 182.634 162.945 188.22 163.879C193.806 164.812 198.202 165.66 198.178 165.769Z" fill="white"/>
<path d="M227.828 189.654C227.471 189.684 227.111 189.684 226.754 189.654C226.07 189.654 225.082 189.599 223.852 189.529C221.402 189.389 218.017 189.086 214.306 188.557C210.595 188.028 207.265 187.366 204.877 186.814C203.679 186.534 202.714 186.293 202.053 186.114C201.703 186.04 201.361 185.93 201.034 185.787C201.39 185.814 201.744 185.871 202.092 185.958L204.931 186.534C207.335 187.009 210.665 187.623 214.368 188.152C218.072 188.681 221.433 189.031 223.876 189.241L226.77 189.498C227.127 189.511 227.482 189.563 227.828 189.654Z" fill="white"/>
<path d="M235.585 189.957C233.037 189.878 230.505 189.531 228.03 188.922C229.306 188.894 230.581 188.999 231.835 189.234C233.107 189.338 234.364 189.581 235.585 189.957Z" fill="white"/>
<path d="M202.208 193.761C201.508 194.197 200.768 194.567 199.999 194.866C198.614 195.488 196.669 196.289 194.483 197.075C192.297 197.861 190.282 198.468 188.819 198.864C188.037 199.124 187.232 199.306 186.415 199.409C187.172 199.08 187.952 198.807 188.749 198.592C190.196 198.125 192.18 197.472 194.366 196.694C196.552 195.916 198.497 195.138 199.905 194.601C200.651 194.263 201.421 193.982 202.208 193.761Z" fill="white"/>
<g opacity="0.3">
<path d="M203.959 136.99C200.497 154.954 197.688 172 198.085 169.666L203.648 203.719L206.931 208.59C204.068 185.709 201.71 159.755 203.959 136.99Z" fill="black"/>
</g>
</svg>
