<svg width="48" height="82" viewBox="0 0 48 82" fill="none" xmlns="http://www.w3.org/2000/svg">
<path d="M68.7707 81.5113C67.6793 81.3148 67.1283 80.6323 66.5352 80.092C64.5856 78.3094 62.6484 76.4988 60.755 74.6337C58.9511 72.8547 56.9349 71.2704 55.4942 69.1351C54.8589 68.2017 54.0359 67.4069 53.327 66.5349C52.0723 65.0296 50.8387 63.5066 49.5858 61.982C47.5467 59.4712 45.4672 56.9763 43.4703 54.4305C41.726 52.2093 40.0975 49.8915 38.3129 47.6861C36.6353 45.5877 34.8542 43.5577 33.0818 41.5383C30.9919 39.1591 28.837 36.852 26.7365 34.4816C25.1748 32.7148 23.6463 30.9024 22.0951 29.1268C20.8966 27.7531 19.7279 26.3723 18.4873 25.0336C17.0887 23.5054 15.627 22.0299 14.1968 20.528C12.9 19.1648 11.605 17.7822 10.3188 16.4102C10.2749 16.3576 10.1889 16.34 10.0871 16.2821C9.65902 16.3892 9.20106 16.5033 8.74136 16.6367C7.45173 17.0158 6.27962 16.7439 5.04081 16.2422C2.61056 15.2527 1.25408 13.3684 0.373078 11.0699C0.0747286 10.2838 0.00271641 9.36263 0.00264925 8.50637C0.0217407 5.83231 1.43934 3.93719 3.66235 2.60174C4.66069 2.00158 5.70992 1.48388 6.77495 1.00654C7.18025 0.829287 7.69612 0.827492 8.1611 0.850266C9.75957 0.927345 11.1405 1.47117 12.4601 2.47647C13.6796 3.40458 14.4798 4.55731 15.1221 5.84165C15.4117 6.40311 15.5153 7.0839 15.6118 7.73486C15.8102 9.08592 15.8138 10.4387 14.9857 11.6284C14.6717 12.0864 14.7559 12.4444 15.063 12.8128C15.9755 13.9076 16.8582 15.0095 17.8233 16.0604C19.5079 17.8676 21.3188 19.5694 22.9297 21.438C24.2756 23.01 25.4005 24.7663 26.6604 26.4279C27.7818 27.9017 28.9557 29.3316 30.1069 30.7984C31.065 32.0336 31.96 33.3214 32.9497 34.5303C34.4307 36.3286 35.9767 38.0551 37.4683 39.8447C39.8724 42.7291 42.2361 45.6294 44.6191 48.5313C44.9701 48.9524 45.3315 49.3647 45.6737 49.7753C47.1425 51.4947 48.6007 53.2229 50.0818 54.9143C51.9787 57.0618 53.9177 59.1742 55.7515 61.3744C56.7956 62.6271 57.6607 64.029 58.6522 65.3256C59.4173 66.3292 60.1807 67.3521 61.0949 68.2135C61.8389 68.9136 62.2794 69.7417 62.6848 70.6348C62.7567 70.8067 62.7989 70.9857 62.9024 71.1313C63.5253 71.8788 64.1693 72.6086 64.7923 73.356C64.9502 73.5455 65.0345 73.7964 65.1819 73.9947C65.6188 74.6474 66.0751 75.3018 66.512 75.9545C66.6752 76.1931 66.849 76.423 67.0122 76.6616C67.2789 77.0459 67.5141 77.4564 67.8247 77.7863C68.3844 78.3723 68.9161 78.946 68.7162 79.8619C68.6758 80.0918 68.8373 80.3497 68.8531 80.6041C68.8671 80.8778 68.804 81.1446 68.7707 81.5113ZM11.3118 15.8679C11.9523 16.5294 12.5314 17.1171 13.0982 17.733C14.1879 18.912 15.2478 20.098 16.3375 21.2771C16.7095 21.6806 17.1254 22.0297 17.4869 22.4421C18.6328 23.7527 19.6927 25.1528 20.9017 26.4108C22.5109 28.0846 23.8358 29.9953 25.4975 31.6252C26.1591 32.2691 26.6487 33.092 27.3067 33.7745C29.0071 35.5149 30.6531 37.3186 32.2675 39.1485C33.9889 41.0855 35.6472 43.0751 37.3178 45.0367C38.3812 46.2911 39.4657 47.5281 40.4782 48.8071C42.0751 50.8301 43.6175 52.9162 45.2039 54.948C46.7025 56.8744 48.2432 58.7658 49.7629 60.6747C50.8982 62.1012 51.9704 63.5802 53.1286 64.9698C54.4272 66.5278 55.8082 68.035 57.1594 69.5491C57.4506 69.8772 57.8367 70.1263 58.0578 70.4772C58.8685 71.7282 59.9828 72.637 61.1585 73.5125C62.0236 74.1652 62.822 74.9091 63.6204 75.653C63.9345 75.9442 64.1609 76.3442 64.4206 76.6987C64.5171 76.6004 64.5592 76.5653 64.5609 76.546C64.4539 76.3319 64.3258 76.1354 64.2187 75.9214C63.1184 73.5738 61.6479 71.4455 60.1317 69.391C58.3383 66.9609 56.336 64.6871 54.3847 62.3887C52.4843 60.1727 50.4873 58.055 48.6185 55.8127C47.1532 54.0547 45.8371 52.1546 44.4245 50.3527C42.9855 48.5192 41.2799 46.9436 39.8638 45.0733C37.7352 42.2626 35.3978 39.608 33.1552 36.8744C31.3863 34.7094 29.6385 32.5267 27.9013 30.3353C26.6887 28.7949 25.5603 27.1842 24.3179 25.6507C23.1019 24.1489 21.8437 22.6821 20.5627 21.2522C18.3113 18.7222 16.0266 16.2378 13.7541 13.7253C13.719 13.6832 13.619 13.7131 13.533 13.6955C12.8663 14.3939 12.154 15.059 11.3118 15.8679ZM11.5712 11.1918C11.7115 11.1462 11.7993 11.1444 11.8414 11.1093C11.9291 11.0005 12.0273 10.883 12.087 10.7619C12.6958 9.6301 12.5728 8.41239 12.378 7.2368C11.9813 4.96283 10.3406 3.63645 8.36305 3.01898C6.87859 2.54359 5.26612 3.04905 3.90635 3.98613C3.67826 4.14056 3.46422 4.35464 3.27824 4.581C2.47295 5.62682 1.92033 6.78317 1.65723 8.07285C1.38712 9.3327 1.64164 10.6013 2.19619 11.6733C2.65071 12.5611 3.54036 13.2647 4.33527 13.9401C5.41093 14.8454 7.58316 14.8189 8.55691 13.8468C9.27274 13.1431 9.82889 12.2693 10.3921 11.4253C10.9693 10.5339 10.9516 9.54952 10.6217 8.57572C10.4444 8.06339 10.1391 7.5686 10.0601 7.04573C9.93194 6.20702 9.48622 5.65084 8.8703 5.14731C8.67026 4.99292 8.48075 4.82975 8.29299 4.64728C8.14208 4.48762 8.01222 4.31042 7.87184 4.14198C8.96849 4.28051 9.64233 5.00337 10.1495 5.74027C11.2691 7.34041 11.8517 9.17396 11.5712 11.1918Z" fill="#47352F" fill-opacity="0.4"/>
</svg>
