<svg width="337" height="401" viewBox="0 0 337 401" fill="none" xmlns="http://www.w3.org/2000/svg">
<path d="M311.058 376.298C311.058 376.411 242.182 376.507 157.234 376.507C72.2865 376.507 3.38672 376.411 3.38672 376.298C3.38672 376.186 72.2545 376.09 157.234 376.09C242.214 376.09 311.058 376.186 311.058 376.298Z" fill="#263238"/>
<path d="M246.73 347.266L266.579 376.13L273.677 376.298L260.669 346.616L246.73 347.266Z" fill="#263238"/>
<path d="M37.2714 348.734L26.8133 376.002H32.0424L50.3039 348.854L37.2714 348.734Z" fill="#263238"/>
<path d="M32.7642 249.663L33.5662 284.951C33.6173 287.352 34.5933 289.64 36.2907 291.339C37.9881 293.038 40.2759 294.016 42.6769 294.069L240.121 298.464C241.364 298.492 242.599 298.271 243.755 297.815C244.911 297.359 245.964 296.676 246.852 295.807C247.74 294.938 248.446 293.901 248.928 292.755C249.409 291.61 249.657 290.38 249.657 289.137V246.631C249.655 240.572 247.462 234.718 243.482 230.148C239.502 225.579 234.005 222.603 228.003 221.769C191.857 216.797 117.327 209.154 57.0568 220.013C50.1388 221.25 43.89 224.916 39.4362 230.352C34.9823 235.789 32.6162 242.636 32.7642 249.663Z" fill="#FF725E"/>
<path d="M31.898 261.989C31.898 261.989 15.6335 254.459 12.3052 261.989C8.97686 269.52 12.7142 278.759 16.3713 283.908C20.0284 289.057 20.0124 352.672 20.0124 352.672L266.692 350.033L269.611 288.864C269.611 288.864 281.44 274.292 280.702 268.012C279.965 261.733 269.98 252.59 258.519 261.965C247.059 271.341 244.083 290.934 244.083 290.934L47.4087 292.417C47.4087 292.417 48.0824 264.901 31.898 261.989Z" fill="#FF725E"/>
<path d="M241.589 303.156C241.589 303.268 197.888 303.365 143.994 303.365C90.0992 303.365 46.3982 303.292 46.3982 303.156C46.3982 303.02 90.0831 302.948 143.994 302.948C197.904 302.948 241.589 303.06 241.589 303.156Z" fill="#263238"/>
<path d="M46.3979 330.103C46.3876 330.039 46.3876 329.974 46.3979 329.911C46.3979 329.758 46.3979 329.566 46.3979 329.341C46.3979 328.839 46.3819 328.109 46.3498 327.152C46.3498 325.219 46.3498 322.484 46.3498 319.132C46.3498 312.347 46.3979 302.972 46.0852 292.666C46.024 287.813 45.649 282.97 44.9624 278.166C44.818 277.636 44.6736 277.107 44.5373 276.562C44.401 276.016 44.1363 275.559 43.9278 275.07C43.5027 274.1 43.0696 273.169 42.5965 272.295C41.7421 270.668 40.738 269.124 39.597 267.684C38.6443 266.504 37.5689 265.428 36.389 264.476C35.4927 263.762 34.5283 263.139 33.5098 262.615C32.6224 262.206 31.715 261.842 30.791 261.524H30.9755L31.5289 261.677C32.2367 261.879 32.924 262.148 33.582 262.479C34.6295 262.975 35.6192 263.586 36.5333 264.299C37.7382 265.245 38.8355 266.321 39.8055 267.507C40.978 268.95 42.0093 270.503 42.8852 272.143C43.3744 273.025 43.8155 273.955 44.2486 274.934C44.4651 275.423 44.6656 275.928 44.8661 276.433L45.3233 278.037C46.0387 282.863 46.4273 287.732 46.4862 292.61C46.7989 302.955 46.6947 312.331 46.6305 319.116C46.5824 322.476 46.5423 325.211 46.5182 327.136C46.5182 328.058 46.5182 328.788 46.5182 329.325V329.887C46.3979 330.031 46.3979 330.103 46.3979 330.103Z" fill="#263238"/>
<path d="M29.9812 276.185C30.1728 276.054 30.3991 275.984 30.6309 275.984C31.2756 275.935 31.9171 276.114 32.4434 276.49C32.8134 276.748 33.1159 277.092 33.3256 277.492C33.5653 277.962 33.6469 278.496 33.5582 279.016C33.4708 279.614 33.2041 280.172 32.7932 280.616C32.3823 281.06 31.8465 281.369 31.2564 281.502C30.6619 281.587 30.0555 281.495 29.5133 281.237C28.9711 280.978 28.5173 280.566 28.2088 280.05C27.9386 279.601 27.8023 279.083 27.8158 278.559C27.8447 278.007 28.0215 277.473 28.3277 277.013C28.6339 276.553 29.0582 276.184 29.5562 275.944C29.7607 275.834 29.9894 275.776 30.2218 275.776C30.2218 275.816 29.9893 275.872 29.6284 276.089C29.124 276.401 28.7202 276.852 28.4655 277.388C28.2749 277.764 28.1837 278.182 28.2006 278.603C28.2174 279.024 28.3417 279.434 28.5617 279.794C28.8364 280.234 29.2323 280.585 29.7017 280.806C30.1712 281.026 30.6943 281.106 31.2083 281.037C31.711 280.919 32.1682 280.657 32.5231 280.282C32.8781 279.907 33.1153 279.436 33.2053 278.928C33.276 278.509 33.2278 278.079 33.0662 277.686C32.9045 277.293 32.636 276.954 32.291 276.706C31.8339 276.342 31.271 276.137 30.687 276.121C30.2218 276.145 29.9893 276.225 29.9812 276.185Z" fill="#263238"/>
<path d="M31.096 292.016C30.6284 291.669 30.2469 291.219 29.9812 290.701C29.2491 289.495 28.8539 288.115 28.837 286.704C28.8201 285.293 29.182 283.904 29.885 282.681C30.1407 282.157 30.5107 281.696 30.9677 281.334C31.0238 281.382 30.6068 281.887 30.1657 282.817C29.5639 284.022 29.2561 285.352 29.2674 286.699C29.2895 288.047 29.6274 289.371 30.2539 290.565C30.7191 291.479 31.1602 291.976 31.096 292.016Z" fill="#263238"/>
<path d="M28.5136 268.205C28.4699 268.612 28.3894 269.015 28.273 269.408C27.9211 271.327 28.342 273.307 29.4439 274.918C29.7038 275.233 29.9422 275.565 30.1577 275.912C30.1577 275.912 29.7085 275.687 29.2033 275.11C28.5526 274.315 28.0998 273.377 27.8823 272.374C27.6648 271.37 27.6887 270.328 27.9522 269.336C28.0419 268.918 28.2349 268.529 28.5136 268.205Z" fill="#263238"/>
<path d="M23.7096 277.075C23.8058 276.995 24.5517 277.749 25.6905 278.334C26.8294 278.92 27.864 279.136 27.8479 279.232C27.0268 279.338 26.1947 279.15 25.4981 278.703C24.7313 278.384 24.0992 277.808 23.7096 277.075Z" fill="#263238"/>
<path d="M267.638 330.103C267.638 330.215 212.003 330.312 143.376 330.312C74.7489 330.312 19.1302 330.215 19.1302 330.103C19.1302 329.991 74.7569 329.895 143.44 329.895C212.123 329.895 267.638 329.983 267.638 330.103Z" fill="#263238"/>
<path d="M240.731 291.166C240.851 291.166 240.939 299.876 240.939 310.615C240.939 321.353 240.851 330.079 240.731 330.079C240.61 330.079 240.522 321.369 240.522 310.615C240.522 299.86 240.619 291.166 240.731 291.166Z" fill="#263238"/>
<path d="M158.357 223.87H157.972L156.85 223.91L152.543 224.031L136.679 224.4L84.3568 225.45C79.2481 225.571 74.2516 225.555 69.4557 225.875C64.8374 226.074 60.2685 226.908 55.8778 228.354C51.9171 229.683 48.3727 232.025 45.5962 235.146C44.3367 236.557 43.259 238.12 42.3882 239.798C41.594 241.342 40.9365 242.952 40.4233 244.61C39.599 247.491 39.0617 250.446 38.8193 253.432C38.5707 256.079 38.5466 258.364 38.5306 260.241C38.5145 262.118 38.5306 263.561 38.5867 264.548C38.5867 265.029 38.5867 265.398 38.5867 265.671C38.5867 265.943 38.5867 266.056 38.5867 266.056C38.5867 266.056 38.5867 265.927 38.5867 265.671C38.5867 265.414 38.5867 265.029 38.5225 264.548C38.4744 263.569 38.4103 262.142 38.3942 260.241C38.3782 258.34 38.3942 256.071 38.6108 253.408C38.8469 250.392 39.3842 247.407 40.2148 244.498C40.7225 242.81 41.3774 241.171 42.1716 239.598C43.0349 237.885 44.1129 236.29 45.3796 234.85C48.1938 231.68 51.7881 229.303 55.8056 227.953C60.2111 226.482 64.7998 225.632 69.4396 225.426C74.2516 225.105 79.2561 225.113 84.3649 224.993L136.695 224.063L152.551 223.83L156.866 223.782H157.988L158.357 223.87Z" fill="#263238"/>
<path d="M95.2079 251.347C95.2079 251.347 94.9432 251.475 94.5342 251.788C93.956 252.232 93.5233 252.837 93.2911 253.528C93.1041 254.021 93.0465 254.553 93.1237 255.073C93.2009 255.594 93.4104 256.087 93.7322 256.504C94.0948 257.052 94.6173 257.476 95.2289 257.718C95.8405 257.96 96.5117 258.008 97.1515 257.856C97.7913 257.703 98.3688 257.358 98.8059 256.867C99.2429 256.375 99.5183 255.761 99.5948 255.108C99.6927 254.59 99.6572 254.055 99.4916 253.554C99.3261 253.053 99.036 252.603 98.6485 252.245C98.1285 251.737 97.4701 251.394 96.7558 251.259C96.2505 251.17 95.9538 251.202 95.9538 251.17C96.21 251.076 96.4867 251.051 96.7558 251.098C97.4097 251.173 98.0322 251.42 98.5603 251.813C99.0884 252.206 99.5034 252.731 99.7633 253.336C99.9995 253.92 100.064 254.56 99.9477 255.18C99.8441 255.898 99.5272 256.568 99.038 257.104C98.5488 257.639 97.9099 258.015 97.2044 258.183C96.4988 258.35 95.7592 258.302 95.0813 258.044C94.4035 257.786 93.8189 257.331 93.4034 256.736C93.0228 256.236 92.7919 255.638 92.7377 255.012C92.7016 254.465 92.7865 253.918 92.9864 253.408C93.2601 252.679 93.7605 252.058 94.4139 251.636C94.648 251.47 94.9222 251.37 95.2079 251.347Z" fill="#263238"/>
<path d="M91.8315 272.127C91.5262 271.354 91.3213 270.545 91.222 269.721C90.8307 267.762 90.8745 265.742 91.3503 263.802C91.8644 261.837 93.0981 260.136 94.8069 259.038C95.3234 258.718 95.8901 258.488 96.4831 258.356C96.6955 258.289 96.9194 258.268 97.1407 258.292C96.3772 258.537 95.645 258.871 94.9593 259.287C93.379 260.404 92.2432 262.042 91.7513 263.914C91.299 265.8 91.2172 267.756 91.5107 269.672C91.7032 271.196 91.8956 272.111 91.8315 272.127Z" fill="#263238"/>
<path d="M94.7508 238.996C94.3249 239.561 93.9313 240.151 93.5718 240.76C92.7573 242.261 92.5172 244.007 92.8965 245.672C93.2759 247.337 94.2487 248.807 95.633 249.807C96.2225 250.205 96.8358 250.567 97.4695 250.89C97.2709 250.889 97.0745 250.848 96.8921 250.769C96.3872 250.591 95.9074 250.349 95.4645 250.048C93.9512 249.059 92.8806 247.522 92.4782 245.759C92.0757 243.997 92.3729 242.147 93.3072 240.6C93.5763 240.137 93.9053 239.71 94.2856 239.333C94.5583 239.052 94.7347 238.94 94.7508 238.996Z" fill="#263238"/>
<path d="M94.0129 255.036C92.547 255.282 91.0959 255.608 89.6661 256.014C88.2814 256.556 86.9268 257.172 85.608 257.859C87.9255 255.843 90.948 254.827 94.0129 255.036Z" fill="#263238"/>
<g opacity="0.3">
<path d="M68.1003 303.91C75.8865 309.877 85.5815 312.8 95.3683 312.13C93.3366 321.557 91.3102 330.985 89.2891 340.417C88.7518 342.927 88.2465 345.726 89.5618 347.94C91.4064 351.043 95.6971 351.348 99.3061 351.3C103.316 351.244 107.503 351.148 111.063 349.287C116.108 346.657 118.819 341.075 120.776 335.733C122.733 330.392 124.425 324.666 128.451 320.648C133.072 325.913 139.328 329.475 146.215 330.761C148.22 331.13 150.498 331.242 152.102 329.959C153.706 328.676 154.163 326.414 153.754 324.425C153.22 322.465 152.331 320.619 151.131 318.98L139.39 300.774C137.786 298.312 136.07 295.713 133.383 294.543C131.274 293.62 128.884 293.741 126.59 293.845C107.421 294.961 88.3953 297.837 69.7524 302.434" fill="black"/>
</g>
<g opacity="0.3">
<path d="M130.833 213.653C126.085 226.196 108.377 229.075 102.129 240.921C95.9778 252.662 103.605 268.189 97.269 279.866C94.9192 284.181 90.853 287.397 88.5914 291.744C87.0516 294.663 86.2576 298.16 83.7794 300.317C80.8762 302.843 76.3769 302.795 72.8882 301.159C69.3995 299.523 66.7209 296.588 64.2347 293.644C59.5831 288.127 55.2122 282.16 53.0067 275.27C49.2693 263.425 52.7019 250.024 60.2247 240.127C67.7474 230.23 78.8872 223.55 90.6525 219.548C102.418 215.546 114.865 214.038 127.24 212.875" fill="black"/>
</g>
<path d="M73.8105 180.667C75.6079 177.865 78.0929 175.571 81.0285 174.002C83.9851 172.429 87.4414 172.08 90.6525 173.031C92.2304 173.532 93.6512 174.434 94.7759 175.649C95.9006 176.863 96.6905 178.349 97.0685 179.961C97.5738 182.535 96.8841 185.406 98.2154 187.668C99.7392 190.266 103.42 191.085 104.72 193.811C105.061 194.656 105.203 195.567 105.135 196.476C105.067 197.384 104.79 198.264 104.327 199.048C103.392 200.609 102.201 202.003 100.806 203.171C101.646 203.697 102.39 204.364 103.003 205.144C103.308 205.536 103.51 205.998 103.591 206.488C103.672 206.978 103.63 207.481 103.469 207.951C102.945 208.879 102.083 209.569 101.062 209.875C96.5819 211.764 91.6288 212.229 86.8751 211.207C85.608 210.934 84.1563 210.589 83.1137 211.359" fill="#263238"/>
<path d="M105.915 190.186L103.34 198.038L120.872 207.991L103.228 208.56L104.543 222.86L138.508 214.519C138.508 214.519 140.545 200.668 105.915 190.186L103.509 189.609C103.075 189.507 102.672 189.301 102.335 189.009C101.999 188.717 101.738 188.348 101.576 187.933C101.301 187.257 100.787 186.706 100.132 186.385L97.237 184.877V187.171L98.841 189.039L98.5843 193.475C98.517 194.424 98.7899 195.367 99.3541 196.134C99.9184 196.901 100.737 197.442 101.664 197.661L103.268 198.038" fill="#B78876"/>
<path d="M67.5068 218.577C66.8091 218.577 60.3369 220.181 56.6317 224.865C52.9265 229.548 47.5691 247.273 47.5691 247.273L61.2031 249.63L67.0898 264.411C67.0898 264.411 101.937 259.848 100.084 257.995C98.2933 256.348 96.4195 254.792 94.4701 253.336L102.49 226.621L112.114 221.424L108.866 208.079L89.4816 210.701L67.5068 218.577Z" fill="#FAFAFA"/>
<path d="M100.822 232.797C100.822 232.909 89.9548 233.005 76.5614 233.005C63.168 233.005 52.2929 232.909 52.2929 232.797C52.2929 232.684 63.16 232.588 76.5614 232.588C89.9628 232.588 100.822 232.684 100.822 232.797Z" fill="#FF725E"/>
<path d="M98.6485 240.648C98.6485 240.76 87.7814 240.857 74.388 240.857C60.9946 240.857 50.1195 240.76 50.1195 240.648C50.1195 240.536 60.9785 240.44 74.388 240.44C87.7974 240.44 98.6485 240.536 98.6485 240.648Z" fill="#FF725E"/>
<path d="M98.6485 249.125C98.6485 249.246 90.42 249.342 80.2666 249.342C70.1133 249.342 61.8928 249.246 61.8928 249.125C61.8928 249.005 70.1213 248.917 80.2666 248.917C90.4119 248.917 98.6485 249.013 98.6485 249.125Z" fill="#FF725E"/>
<path d="M101.463 257.298C101.463 257.41 93.235 257.506 83.0897 257.506C72.9444 257.506 64.7159 257.41 64.7159 257.298C64.7159 257.185 72.9364 257.089 83.0897 257.089C93.243 257.089 101.463 257.177 101.463 257.298Z" fill="#FF725E"/>
<path d="M110.165 222.234C110.165 222.354 104.728 222.443 98.031 222.443C91.3343 222.443 85.8887 222.354 85.8887 222.234C85.8887 222.114 91.3182 222.026 98.031 222.026C104.744 222.026 110.165 222.154 110.165 222.234Z" fill="#FF725E"/>
<path d="M111.047 213.909C111.047 214.03 105.634 214.246 98.9612 214.399C92.2886 214.551 86.8591 214.591 86.8591 214.479C86.8591 214.367 92.2646 214.142 98.9452 213.982C105.626 213.821 111.047 213.797 111.047 213.909Z" fill="#FF725E"/>
<path d="M64.0422 236.871C63.744 239.083 63.3074 241.274 62.7349 243.431C62.2986 245.621 61.7281 247.783 61.0267 249.903C61.3251 247.692 61.759 245.501 62.3259 243.343C62.758 241.151 63.3313 238.989 64.0422 236.871Z" fill="#263238"/>
<path d="M101.977 337.008L91.8235 369.032L104.062 370.267L115.563 342.438L101.977 337.008Z" fill="#B78876"/>
<path d="M110.935 357.804L105.105 372.24C105.105 372.24 117.84 383.027 117.022 385.802L88.5834 375.528L96.7397 352.623L110.935 357.804Z" fill="#455A64"/>
<path d="M96.7557 367.845C96.452 367.83 96.1531 367.926 95.9163 368.117C95.6795 368.308 95.5215 368.58 95.4725 368.88C95.4447 369.183 95.534 369.484 95.722 369.723C95.91 369.962 96.1824 370.119 96.4831 370.163C96.8046 370.179 97.1208 370.076 97.3709 369.873C97.621 369.67 97.7875 369.382 97.8384 369.064C97.8384 368.455 97.2369 367.757 96.6354 367.845" fill="#E0E0E0"/>
<path d="M88.5834 375.528L89.4977 373.251L116.429 383.981C116.429 383.981 117.495 384.984 117.022 385.826L88.5834 375.528Z" fill="#E0E0E0"/>
<path d="M105.618 372.288C105.562 372.425 104.816 372.24 104.014 372.433C103.212 372.625 102.594 373.09 102.49 372.986C102.386 372.882 102.875 372.184 103.902 371.936C104.928 371.687 105.69 372.168 105.618 372.288Z" fill="#263238"/>
<path d="M108.152 374.598C108.152 374.751 107.446 374.767 106.765 375.184C106.083 375.601 105.746 376.138 105.586 376.138C105.425 376.138 105.642 375.264 106.5 374.767C107.358 374.269 108.2 374.47 108.152 374.598Z" fill="#263238"/>
<path d="M108.553 378.785C108.417 378.785 108.473 377.983 109.107 377.373C109.74 376.764 110.502 376.675 110.518 376.812C110.534 376.948 109.981 377.213 109.475 377.734C108.97 378.255 108.698 378.825 108.553 378.785Z" fill="#263238"/>
<path d="M106.548 368.848C106.444 368.952 105.875 368.527 105.073 368.294C104.271 368.062 103.565 368.094 103.533 367.95C103.501 367.805 104.279 367.516 105.217 367.805C106.155 368.094 106.685 368.76 106.548 368.848Z" fill="#263238"/>
<path d="M107.703 365.904C107.192 365.86 106.702 365.68 106.284 365.383C105.801 365.107 105.356 364.77 104.96 364.381C104.718 364.157 104.495 363.912 104.295 363.651C104.168 363.505 104.065 363.34 103.99 363.162C103.934 363.03 103.923 362.884 103.959 362.746C103.996 362.608 104.077 362.486 104.19 362.4C104.294 362.328 104.414 362.282 104.54 362.265C104.665 362.248 104.793 362.261 104.912 362.303C105.093 362.37 105.266 362.459 105.425 362.568C105.711 362.752 105.98 362.961 106.227 363.194C106.629 363.585 106.968 364.037 107.23 364.533C107.517 364.965 107.662 365.475 107.647 365.993C107.567 365.993 107.406 365.463 106.917 364.718C106.633 364.285 106.293 363.891 105.907 363.547C105.682 363.339 105.437 363.154 105.177 362.993C104.904 362.809 104.647 362.713 104.527 362.817C104.407 362.921 104.471 362.881 104.527 362.985C104.59 363.114 104.668 363.236 104.76 363.346C104.945 363.591 105.143 363.827 105.353 364.052C105.719 364.428 106.116 364.771 106.54 365.078C106.947 365.326 107.335 365.602 107.703 365.904Z" fill="#263238"/>
<path d="M107.446 366.041C107.324 365.535 107.369 365.003 107.575 364.525C107.839 363.666 108.336 362.897 109.01 362.303C109.155 362.144 109.337 362.024 109.541 361.956C109.744 361.887 109.962 361.871 110.173 361.91C110.299 361.961 110.409 362.045 110.49 362.154C110.57 362.263 110.619 362.393 110.63 362.528C110.644 362.722 110.628 362.917 110.582 363.105C110.517 363.439 110.401 363.761 110.237 364.06C109.968 364.566 109.577 364.996 109.099 365.311C108.297 365.848 107.631 365.808 107.639 365.752C108.068 365.534 108.483 365.291 108.882 365.022C109.277 364.703 109.597 364.3 109.82 363.843C109.945 363.589 110.037 363.319 110.093 363.041C110.157 362.729 110.133 362.44 110.005 362.432C109.876 362.424 109.54 362.52 109.339 362.72C109.108 362.914 108.896 363.129 108.706 363.362C108.38 363.765 108.11 364.21 107.904 364.685C107.575 365.471 107.535 366.049 107.446 366.041Z" fill="#263238"/>
<path d="M140.513 306.861L155.671 333.207L168.07 325.251L152.848 298.504L140.513 306.861Z" fill="#B78876"/>
<path d="M163.787 317.72L171.622 331.226C171.622 331.226 187.951 327.793 189.643 330.143L164.044 346.264L150.979 325.74L163.787 317.72Z" fill="#455A64"/>
<path d="M163.001 335.084C162.798 335.309 162.685 335.602 162.685 335.906C162.685 336.209 162.798 336.502 163.001 336.728C163.22 336.928 163.506 337.04 163.803 337.04C164.1 337.04 164.386 336.928 164.605 336.728C164.815 336.483 164.928 336.169 164.92 335.846C164.913 335.523 164.786 335.214 164.565 334.979C164.31 334.789 163.991 334.703 163.675 334.74C163.358 334.778 163.068 334.935 162.865 335.18" fill="#E0E0E0"/>
<path d="M164.044 346.247L162.808 344.13L187.815 329.47C187.815 329.47 189.266 329.245 189.643 330.127L164.044 346.247Z" fill="#E0E0E0"/>
<path d="M171.951 330.817C172.023 330.945 171.438 331.394 171.077 332.18C170.716 332.966 170.716 333.704 170.572 333.728C170.427 333.752 170.155 332.926 170.572 331.964C170.989 331.001 171.903 330.681 171.951 330.817Z" fill="#263238"/>
<path d="M175.336 330.232C175.44 330.336 175.031 330.889 174.943 331.691C174.855 332.493 175.079 333.119 174.943 333.191C174.806 333.263 174.293 332.613 174.421 331.587C174.55 330.56 175.256 330.119 175.336 330.232Z" fill="#263238"/>
<path d="M178.889 332.485C178.784 332.589 178.223 332.076 178.087 331.186C177.95 330.296 178.391 329.662 178.512 329.726C178.632 329.79 178.512 330.392 178.6 331.122C178.688 331.852 179.001 332.397 178.889 332.485Z" fill="#263238"/>
<path d="M169.826 327.938C169.826 328.09 169.16 328.275 168.487 328.74C167.813 329.205 167.404 329.798 167.268 329.734C167.131 329.67 167.388 328.884 168.19 328.315C168.992 327.745 169.826 327.801 169.826 327.938Z" fill="#263238"/>
<path d="M168.198 325.251C168.198 325.299 167.789 325.692 166.915 326.053C166.398 326.257 165.86 326.402 165.311 326.486C164.983 326.527 164.654 326.551 164.324 326.558C164.13 326.565 163.935 326.544 163.747 326.494C163.61 326.457 163.489 326.375 163.403 326.262C163.318 326.149 163.272 326.011 163.274 325.869C163.28 325.741 163.317 325.617 163.381 325.507C163.446 325.397 163.535 325.304 163.643 325.235C163.806 325.136 163.981 325.057 164.164 325.002C165.012 324.712 165.92 324.643 166.802 324.802C167.749 324.978 168.246 325.323 168.214 325.371C168.182 325.42 167.653 325.235 166.762 325.163C166.242 325.125 165.72 325.151 165.206 325.243C164.909 325.296 164.617 325.374 164.332 325.476C164.011 325.58 163.779 325.724 163.787 325.885C163.795 326.045 163.787 325.965 163.907 326.013C164.046 326.045 164.189 326.059 164.332 326.053C165.163 326.064 165.991 325.948 166.786 325.708C167.245 325.521 167.717 325.369 168.198 325.251Z" fill="#263238"/>
<path d="M168.15 325.532C168.15 325.58 167.588 325.283 167.027 324.505C166.705 324.045 166.466 323.532 166.321 322.989C166.234 322.669 166.178 322.342 166.153 322.011C166.116 321.798 166.136 321.579 166.209 321.375C166.282 321.171 166.406 320.99 166.57 320.848C166.682 320.777 166.813 320.739 166.947 320.739C167.08 320.739 167.211 320.777 167.323 320.848C167.485 320.956 167.631 321.085 167.757 321.233C167.977 321.495 168.161 321.787 168.302 322.099C168.53 322.624 168.626 323.197 168.583 323.767C168.502 324.746 168.077 325.227 168.037 325.187C168.126 324.715 168.188 324.238 168.222 323.759C168.211 323.253 168.091 322.755 167.869 322.3C167.742 322.034 167.577 321.788 167.38 321.57C167.171 321.329 166.931 321.169 166.842 321.265C166.762 321.361 166.704 321.473 166.672 321.593C166.64 321.714 166.636 321.84 166.658 321.963C166.672 322.265 166.712 322.566 166.778 322.861C166.896 323.364 167.085 323.847 167.34 324.297C167.773 325.083 168.206 325.468 168.15 325.532Z" fill="#263238"/>
<path d="M95.3924 303.156L125.163 282.914L143.937 319.461L161.004 310.214C161.004 310.214 141.347 262.254 134.289 260.73C130.336 259.864 84.9904 268.518 84.9904 268.518L79.9218 265.975L67.0898 264.411L66.2878 266.489C64.0478 272.161 63.0177 278.238 63.2635 284.332C63.5094 290.425 65.0257 296.4 67.7153 301.873L68.3409 303.148L95.3924 303.156Z" fill="#263238"/>
<path d="M84.9423 277.829C85.1668 278.831 109.804 301.889 109.804 301.889L95.6089 349.6L116.798 353.65L138.075 296.179L99.1858 258.027L81.3894 265.462L84.9423 277.829Z" fill="#263238"/>
<path d="M125.163 282.905C125.227 283.002 118.61 287.605 110.398 293.195C102.185 298.785 95.4645 303.236 95.3924 303.156C95.3202 303.076 101.937 298.448 110.157 292.858C118.378 287.268 125.09 282.809 125.163 282.905Z" fill="#455A64"/>
<path d="M140.441 312.644C140.166 312.301 139.925 311.933 139.719 311.545C139.278 310.823 138.668 309.756 137.922 308.441C136.439 305.803 134.466 302.113 132.381 298.015C130.295 293.917 128.451 290.14 127.16 287.405C126.51 286.033 125.997 284.919 125.652 284.149C125.449 283.759 125.285 283.351 125.163 282.93C125.405 283.295 125.619 283.679 125.804 284.076L127.408 287.284C128.804 290.051 130.672 293.749 132.733 297.847C134.795 301.945 136.743 305.666 138.163 308.337C138.845 309.628 139.414 310.695 139.847 311.505C140.074 311.869 140.273 312.249 140.441 312.644Z" fill="#455A64"/>
<path d="M114.223 293.356C113.59 295.115 112.829 296.825 111.946 298.472C111.183 300.177 110.295 301.822 109.291 303.397C110.684 299.932 112.332 296.576 114.223 293.356Z" fill="#455A64"/>
<path d="M47.5691 247.273L42.7571 265.045C42.136 267.344 42.4232 269.793 43.5591 271.886C44.5283 273.685 46.0621 275.116 47.9243 275.958C49.7864 276.8 51.8737 277.006 53.8648 276.546L91.9999 267.154L87.9899 259.231L57.947 261.837L61.155 249.631L47.5691 247.273Z" fill="#B78876"/>
<path d="M64.4833 274.244L64.9805 271.661L85.6481 267.948L91.655 236.085L130.039 231.513L123.591 265.526L64.4833 274.244Z" fill="#455A64"/>
<path d="M108.89 253.248C108.449 253.228 108.024 253.074 107.673 252.807C107.321 252.539 107.06 252.17 106.924 251.75C106.788 251.33 106.784 250.878 106.913 250.455C107.041 250.033 107.295 249.66 107.642 249.386C107.988 249.112 108.41 248.95 108.851 248.923C109.292 248.896 109.731 249.004 110.108 249.233C110.486 249.462 110.784 249.801 110.964 250.205C111.143 250.609 111.195 251.057 111.112 251.491C111.047 252.017 110.778 252.497 110.362 252.826C109.946 253.155 109.417 253.306 108.89 253.248Z" fill="#EBEBEB"/>
<path d="M70.0973 182.856L70.1695 185.158L71.0356 219.644C71.1399 223.654 74.6607 226.749 78.9433 226.605C83.2741 226.469 86.7548 223.076 86.7227 219.026C86.6826 214.784 86.7227 210.308 86.7227 210.308C86.7227 210.308 92.1843 209.338 93.235 202.184C93.7563 198.631 93.5077 192.809 93.1548 188.053C93.0795 187.039 92.7997 186.05 92.3323 185.147C91.8649 184.243 91.2195 183.444 90.435 182.796C89.6505 182.149 88.7431 181.667 87.7674 181.38C86.7918 181.092 85.768 181.005 84.7578 181.124L70.0973 182.856Z" fill="#B78876"/>
<path d="M90.3879 192.055C90.3924 192.294 90.3037 192.526 90.1406 192.701C89.9774 192.876 89.7527 192.981 89.5137 192.993C89.3988 193.003 89.2831 192.99 89.1733 192.955C89.0634 192.92 88.9616 192.864 88.8736 192.789C88.7857 192.715 88.7133 192.624 88.6607 192.521C88.6082 192.418 88.5764 192.306 88.5673 192.191C88.5628 191.953 88.6503 191.723 88.8118 191.548C88.9732 191.373 89.196 191.267 89.4335 191.253C89.6664 191.233 89.8977 191.306 90.0766 191.457C90.2555 191.607 90.3675 191.822 90.3879 192.055Z" fill="#263238"/>
<path d="M91.9277 191.125C91.8154 191.245 91.1257 190.74 90.1312 190.748C89.1368 190.756 88.431 191.269 88.3187 191.149C88.2064 191.028 88.3829 190.876 88.6957 190.643C89.1179 190.344 89.6218 190.182 90.1393 190.178C90.6519 190.173 91.1535 190.327 91.5748 190.619C91.8796 190.876 91.9839 191.068 91.9277 191.125Z" fill="#263238"/>
<path d="M80.6676 192.408C80.6742 192.648 80.5862 192.88 80.4226 193.056C80.2591 193.232 80.0331 193.336 79.7935 193.346C79.5606 193.366 79.3293 193.293 79.1504 193.143C78.9714 192.992 78.8595 192.777 78.8391 192.544C78.8347 192.306 78.9236 192.075 79.0869 191.901C79.2502 191.727 79.475 191.624 79.7132 191.614C79.8281 191.603 79.9441 191.615 80.0544 191.649C80.1647 191.683 80.2671 191.738 80.3559 191.812C80.4446 191.886 80.5178 191.976 80.5713 192.079C80.6248 192.181 80.6576 192.293 80.6676 192.408Z" fill="#263238"/>
<path d="M82.2476 191.421C82.1353 191.542 81.4456 191.036 80.4511 191.044C79.4566 191.052 78.7508 191.566 78.6386 191.445C78.5263 191.325 78.6947 191.173 79.0075 190.94C79.4326 190.641 79.9391 190.478 80.4591 190.475C80.9692 190.47 81.4682 190.624 81.8867 190.916C82.1914 191.149 82.3037 191.365 82.2476 191.421Z" fill="#263238"/>
<path d="M85.9047 198.679C86.4247 198.512 86.9635 198.41 87.5087 198.375C87.7653 198.375 87.9979 198.295 88.038 198.118C88.057 197.86 87.9953 197.602 87.8616 197.38L87.0997 195.471C86.3892 193.858 85.8099 192.19 85.3674 190.483C86.2097 192.025 86.9206 193.634 87.4927 195.295L88.2305 197.212C88.3897 197.515 88.4406 197.863 88.3749 198.198C88.3388 198.287 88.2835 198.368 88.2127 198.433C88.142 198.498 88.0577 198.547 87.9658 198.575C87.8246 198.614 87.6792 198.635 87.5328 198.639C86.9941 198.723 86.4468 198.737 85.9047 198.679Z" fill="#263238"/>
<path d="M86.7227 210.333C83.3535 210.44 80.0209 209.607 77.0987 207.927C77.0987 207.927 79.5047 212.803 86.6104 212.049L86.7227 210.333Z" fill="#AA6550"/>
<path d="M82.6405 189.793C82.5363 190.058 81.5578 189.89 80.3949 189.97C79.232 190.05 78.2857 190.331 78.1413 190.082C78.0772 189.962 78.2536 189.721 78.6386 189.481C79.1537 189.178 79.7342 189.005 80.3308 188.975C80.9249 188.931 81.5212 189.027 82.0711 189.256C82.4882 189.448 82.6887 189.673 82.6405 189.793Z" fill="#263238"/>
<path d="M91.5187 187.668C91.3422 187.893 90.6605 187.668 89.8505 187.668C89.0405 187.668 88.3428 187.836 88.1824 187.604C88.022 187.371 88.1824 187.267 88.5112 187.05C88.9146 186.79 89.3869 186.656 89.8672 186.666C90.3474 186.676 90.8137 186.829 91.2059 187.107C91.4946 187.363 91.5909 187.596 91.5187 187.668Z" fill="#263238"/>
<path d="M85.8004 202.248C85.5116 202.295 85.2157 202.264 84.9423 202.16L84.1403 201.936C83.9157 201.863 83.6671 201.759 83.3864 201.655C83.1049 201.578 82.8498 201.425 82.6486 201.214C82.4802 200.997 82.5122 200.612 82.8972 200.267C83.1645 200.073 83.4743 199.945 83.8011 199.894C84.1278 199.843 84.4619 199.871 84.7757 199.975C85.0895 200.08 85.3738 200.257 85.605 200.494C85.8363 200.73 86.0077 201.018 86.1052 201.334C86.2736 201.839 86.0651 202.176 85.8004 202.248Z" fill="#AA6550"/>
<path d="M85.9368 202.16C85.8405 202.232 85.3593 201.246 84.2045 200.949C83.4983 200.848 82.7779 200.928 82.1112 201.182C82.1112 201.182 82.2396 200.925 82.6325 200.725C83.1517 200.466 83.747 200.403 84.3087 200.548C84.8723 200.691 85.3651 201.033 85.6962 201.511C85.9448 201.871 85.9849 202.144 85.9368 202.16Z" fill="#263238"/>
<path d="M78.3579 178.22C79.4595 179.957 79.9322 182.019 79.6972 184.063C79.4622 186.106 78.5337 188.007 77.0667 189.448C75.3584 191.052 72.8161 192.28 72.6476 194.605C72.4552 197.18 75.4386 199.105 75.4386 201.687C75.4386 204.269 72.383 206.034 71.7815 208.624C71.3003 210.709 72.5835 212.795 73.995 214.375C75.4065 215.955 77.203 217.35 78.005 219.307C78.4308 220.41 78.6289 221.587 78.5876 222.768C78.5462 223.949 78.2662 225.11 77.7644 226.18C76.7493 228.307 75.395 230.255 73.7544 231.946C71.6216 231.183 69.4015 230.69 67.1459 230.479C67.2823 229.629 67.4266 228.771 67.571 227.92C67.5498 228.417 67.3714 228.895 67.0615 229.284C66.7516 229.673 66.3263 229.954 65.8467 230.086C64.8798 230.332 63.8685 230.345 62.8953 230.126C59.8893 229.651 56.9354 228.891 54.0733 227.856C55.3532 226.703 56.4367 225.348 57.2813 223.846C57.6975 223.086 57.923 222.237 57.9384 221.371C57.9538 220.505 57.7586 219.648 57.3695 218.874C56.6638 217.671 55.3645 216.901 54.7149 215.666C53.7445 213.821 54.5465 211.479 55.9259 209.915C57.3054 208.352 59.1821 207.333 60.8262 206.05C62.4703 204.767 63.978 203.034 64.1063 200.949C64.2828 198.254 62.0933 195.792 62.366 193.106C62.6708 190.042 65.9108 188.165 67.178 185.358C68.1003 183.329 67.98 180.827 69.3915 179.103C69.9452 178.487 70.6335 178.008 71.4027 177.702C72.172 177.396 73.0014 177.271 73.8266 177.338C75.4756 177.481 77.0632 178.033 78.4461 178.942" fill="#263238"/>
<path d="M87.3002 211.102C86.017 211.808 86.0892 213.773 86.8751 215.016C87.6611 216.259 88.9202 217.149 89.6982 218.401C90.3557 219.543 90.5852 220.882 90.3457 222.178C90.1062 223.474 89.4133 224.642 88.3909 225.474L91.4706 226.637L92.1443 226.26L94.037 225.186L93.1468 227.375H95.1197C96.1677 227.397 97.2009 227.124 98.1022 226.589C99.0034 226.054 99.7368 225.277 100.219 224.346C100.702 223.415 100.914 222.368 100.832 221.323C100.75 220.278 100.377 219.277 99.7552 218.433C98.9532 217.31 97.6861 216.42 97.4054 215.064C97.0766 213.42 98.3197 211.936 98.9212 210.381C99.3998 209.066 99.4497 207.634 99.0635 206.29C98.6773 204.945 97.875 203.758 96.7718 202.898" fill="#263238"/>
<path d="M323.256 37.7903H157.683V289.129H323.256V37.7903Z" fill="white"/>
<path d="M322.968 50.5902H157.347V158.756H322.968V50.5902Z" fill="#F5F5F5"/>
<path d="M197.807 174.034V176.44H201.344V177.306H197.807V180.161H196.797V173.104H201.785V174.034H197.807Z" fill="#263238"/>
<path d="M202.395 177.515C202.385 176.962 202.54 176.42 202.84 175.956C203.14 175.492 203.571 175.128 204.079 174.909C204.587 174.691 205.148 174.629 205.691 174.731C206.234 174.833 206.734 175.094 207.128 175.482C207.522 175.869 207.792 176.365 207.903 176.906C208.015 177.447 207.962 178.009 207.753 178.52C207.544 179.031 207.187 179.469 206.729 179.777C206.27 180.085 205.73 180.249 205.178 180.249C204.812 180.266 204.447 180.207 204.105 180.076C203.763 179.945 203.451 179.745 203.19 179.489C202.929 179.232 202.724 178.924 202.587 178.585C202.45 178.245 202.385 177.881 202.395 177.515ZM206.974 177.515C206.959 177.161 206.839 176.82 206.631 176.534C206.423 176.248 206.136 176.029 205.805 175.905C205.473 175.781 205.113 175.757 204.768 175.836C204.423 175.915 204.109 176.094 203.865 176.35C203.621 176.606 203.458 176.928 203.395 177.276C203.333 177.624 203.374 177.983 203.514 178.308C203.654 178.633 203.886 178.91 204.182 179.104C204.478 179.298 204.824 179.401 205.178 179.399C205.423 179.406 205.667 179.36 205.894 179.267C206.12 179.173 206.325 179.033 206.494 178.855C206.663 178.678 206.793 178.467 206.876 178.236C206.959 178.005 206.992 177.759 206.974 177.515Z" fill="#263238"/>
<path d="M212.171 174.788V175.726H211.947C211.711 175.713 211.476 175.751 211.257 175.838C211.039 175.926 210.842 176.061 210.681 176.233C210.52 176.405 210.399 176.611 210.327 176.835C210.255 177.06 210.233 177.297 210.262 177.531V180.193H209.292V174.836H210.222V175.726C210.428 175.405 210.72 175.147 211.064 174.981C211.408 174.815 211.791 174.748 212.171 174.788Z" fill="#263238"/>
<path d="M218.419 174.836V179.448C218.419 181.34 217.464 182.19 215.652 182.19C214.734 182.231 213.831 181.947 213.102 181.388L213.559 180.642C214.146 181.103 214.873 181.35 215.62 181.34C216.879 181.34 217.456 180.755 217.456 179.544V179.119C217.214 179.385 216.916 179.596 216.583 179.734C216.251 179.873 215.892 179.937 215.532 179.921C215.18 179.94 214.828 179.888 214.497 179.767C214.166 179.646 213.863 179.458 213.607 179.216C213.352 178.974 213.148 178.682 213.008 178.359C212.869 178.035 212.797 177.687 212.797 177.334C212.797 176.982 212.869 176.633 213.008 176.31C213.148 175.986 213.352 175.694 213.607 175.452C213.863 175.21 214.166 175.023 214.497 174.902C214.828 174.781 215.18 174.728 215.532 174.748C215.906 174.731 216.28 174.802 216.623 174.955C216.965 175.108 217.267 175.339 217.505 175.63V174.828L218.419 174.836ZM217.472 177.362C217.442 176.895 217.234 176.457 216.892 176.137C216.551 175.817 216.1 175.639 215.632 175.639C215.164 175.639 214.713 175.817 214.371 176.137C214.029 176.457 213.822 176.895 213.791 177.362C213.822 177.829 214.029 178.267 214.371 178.587C214.713 178.907 215.164 179.085 215.632 179.085C216.1 179.085 216.551 178.907 216.892 178.587C217.234 178.267 217.442 177.829 217.472 177.362Z" fill="#263238"/>
<path d="M219.774 177.515C219.765 176.962 219.92 176.42 220.22 175.956C220.52 175.492 220.951 175.128 221.458 174.909C221.966 174.691 222.527 174.629 223.07 174.731C223.613 174.833 224.113 175.094 224.507 175.482C224.901 175.869 225.171 176.365 225.283 176.906C225.394 177.447 225.342 178.009 225.133 178.52C224.923 179.031 224.567 179.469 224.108 179.777C223.65 180.085 223.11 180.249 222.557 180.249C222.191 180.266 221.826 180.207 221.484 180.076C221.142 179.945 220.831 179.745 220.57 179.489C220.308 179.232 220.103 178.924 219.966 178.585C219.829 178.245 219.764 177.881 219.774 177.515ZM224.354 177.515C224.338 177.161 224.219 176.82 224.011 176.534C223.803 176.248 223.515 176.029 223.184 175.905C222.853 175.781 222.492 175.757 222.148 175.836C221.803 175.915 221.489 176.094 221.245 176.35C221.001 176.606 220.837 176.928 220.775 177.276C220.712 177.624 220.754 177.983 220.893 178.308C221.033 178.633 221.265 178.91 221.561 179.104C221.857 179.298 222.203 179.401 222.557 179.399C222.802 179.406 223.046 179.36 223.273 179.267C223.5 179.173 223.704 179.033 223.873 178.855C224.043 178.678 224.173 178.467 224.255 178.236C224.338 178.005 224.372 177.759 224.354 177.515Z" fill="#263238"/>
<path d="M229.679 179.873C229.343 180.127 228.93 180.26 228.508 180.249C228.281 180.276 228.05 180.251 227.834 180.177C227.618 180.102 227.421 179.98 227.259 179.819C227.096 179.658 226.972 179.462 226.895 179.246C226.818 179.031 226.791 178.801 226.816 178.573V175.638H225.901V174.836H226.848V173.665H227.81V174.836H229.342V175.638H227.81V178.533C227.797 178.646 227.807 178.761 227.841 178.87C227.875 178.978 227.932 179.079 228.008 179.164C228.084 179.249 228.177 179.316 228.281 179.363C228.385 179.409 228.498 179.432 228.612 179.431C228.885 179.433 229.151 179.342 229.366 179.175L229.679 179.873Z" fill="#263238"/>
<path d="M239.094 177.515C239.114 177.876 239.057 178.238 238.929 178.576C238.8 178.914 238.602 179.222 238.348 179.48C238.093 179.737 237.788 179.939 237.451 180.071C237.114 180.204 236.753 180.265 236.392 180.249C236.035 180.26 235.68 180.187 235.357 180.035C235.033 179.883 234.75 179.657 234.531 179.375V182.142H233.561V174.836H234.491V175.678C234.712 175.386 235 175.152 235.331 174.996C235.662 174.839 236.026 174.765 236.392 174.78C236.753 174.765 237.114 174.825 237.451 174.958C237.788 175.091 238.093 175.292 238.348 175.55C238.602 175.807 238.8 176.115 238.929 176.453C239.057 176.792 239.114 177.153 239.094 177.515ZM238.116 177.515C238.1 177.162 237.981 176.821 237.774 176.535C237.566 176.249 237.279 176.03 236.948 175.906C236.617 175.781 236.257 175.757 235.913 175.835C235.568 175.914 235.254 176.092 235.01 176.347C234.765 176.602 234.601 176.924 234.538 177.271C234.475 177.619 234.515 177.978 234.653 178.303C234.792 178.628 235.023 178.905 235.318 179.1C235.612 179.295 235.958 179.399 236.311 179.399C236.557 179.406 236.801 179.36 237.028 179.267C237.255 179.173 237.46 179.033 237.63 178.856C237.8 178.678 237.931 178.467 238.015 178.236C238.098 178.006 238.133 177.76 238.116 177.515Z" fill="#263238"/>
<path d="M244.62 176.961V180.169H243.69V179.464C243.489 179.735 243.222 179.951 242.915 180.091C242.608 180.231 242.27 180.291 241.933 180.266C240.722 180.266 239.961 179.616 239.961 178.662C239.961 177.707 240.514 177.098 242.102 177.098H243.69V176.913C243.69 176.111 243.209 175.622 242.254 175.622C241.642 175.613 241.045 175.814 240.562 176.191L240.161 175.47C240.797 174.998 241.575 174.754 242.367 174.78C243.794 174.788 244.62 175.494 244.62 176.961ZM243.658 178.565V177.819H242.166C241.204 177.819 240.931 178.196 240.931 178.621C240.931 179.047 241.372 179.488 242.11 179.488C242.439 179.519 242.769 179.445 243.053 179.277C243.337 179.108 243.56 178.853 243.69 178.549L243.658 178.565Z" fill="#263238"/>
<path d="M245.743 179.648L246.144 178.846C246.703 179.207 247.355 179.399 248.021 179.399C248.919 179.399 249.288 179.127 249.288 178.678C249.288 177.475 245.911 178.517 245.911 176.384C245.911 175.429 246.77 174.78 248.141 174.78C248.822 174.769 249.495 174.937 250.09 175.269L249.673 176.031C249.212 175.742 248.677 175.594 248.133 175.606C247.283 175.606 246.874 175.919 246.874 176.344C246.874 177.603 250.258 176.576 250.258 178.653C250.258 179.624 249.376 180.257 247.948 180.257C247.169 180.282 246.4 180.07 245.743 179.648Z" fill="#263238"/>
<path d="M250.796 179.648L251.197 178.846C251.756 179.207 252.407 179.399 253.073 179.399C253.971 179.399 254.34 179.127 254.34 178.678C254.34 177.475 250.964 178.517 250.964 176.384C250.964 175.429 251.822 174.78 253.194 174.78C253.875 174.769 254.547 174.937 255.142 175.269L254.725 176.031C254.265 175.742 253.729 175.594 253.186 175.606C252.335 175.606 251.926 175.919 251.926 176.344C251.926 177.603 255.311 176.576 255.311 178.653C255.311 179.624 254.429 180.257 253.001 180.257C252.221 180.282 251.452 180.07 250.796 179.648Z" fill="#263238"/>
<path d="M264.542 174.836L262.545 180.177H261.615L260.075 176.167L258.511 180.177H257.58L255.567 174.836H256.522L258.078 179.087L259.682 174.836H260.484L262.088 179.111L263.692 174.836H264.542Z" fill="#263238"/>
<path d="M264.847 177.515C264.839 176.965 264.994 176.425 265.294 175.963C265.594 175.502 266.024 175.14 266.53 174.923C267.036 174.707 267.594 174.646 268.135 174.748C268.676 174.85 269.174 175.11 269.566 175.495C269.959 175.881 270.228 176.375 270.339 176.913C270.45 177.452 270.399 178.012 270.191 178.522C269.984 179.031 269.629 179.467 269.173 179.775C268.717 180.083 268.18 180.248 267.63 180.25C267.264 180.266 266.898 180.207 266.556 180.076C266.214 179.945 265.903 179.745 265.642 179.489C265.381 179.232 265.175 178.924 265.038 178.585C264.902 178.245 264.836 177.881 264.847 177.515ZM269.418 177.515C269.401 177.163 269.281 176.825 269.073 176.541C268.865 176.257 268.578 176.041 268.248 175.919C267.918 175.796 267.56 175.773 267.217 175.853C266.874 175.933 266.563 176.111 266.321 176.366C266.078 176.622 265.916 176.942 265.855 177.289C265.793 177.635 265.835 177.992 265.974 178.315C266.114 178.638 266.345 178.913 266.639 179.106C266.933 179.298 267.278 179.401 267.63 179.399C267.874 179.406 268.118 179.361 268.344 179.267C268.571 179.173 268.775 179.033 268.943 178.855C269.112 178.677 269.241 178.466 269.323 178.235C269.405 178.004 269.437 177.759 269.418 177.515Z" fill="#263238"/>
<path d="M274.615 174.788V175.726H274.39C274.155 175.713 273.92 175.751 273.701 175.838C273.482 175.926 273.285 176.061 273.125 176.233C272.964 176.405 272.843 176.611 272.771 176.835C272.698 177.059 272.676 177.297 272.706 177.531V180.193H271.76V174.836H272.682V175.726C272.887 175.407 273.176 175.151 273.517 174.985C273.858 174.82 274.238 174.751 274.615 174.788Z" fill="#263238"/>
<path d="M280.798 172.703V180.185H279.868V179.335C279.649 179.632 279.36 179.871 279.028 180.03C278.695 180.19 278.328 180.265 277.959 180.249C277.261 180.212 276.603 179.907 276.122 179.399C275.641 178.891 275.373 178.218 275.373 177.519C275.373 176.819 275.641 176.146 276.122 175.638C276.603 175.13 277.261 174.826 277.959 174.788C278.316 174.775 278.671 174.846 278.996 174.995C279.32 175.144 279.605 175.367 279.828 175.646V172.703H280.798ZM279.836 177.515C279.82 177.161 279.701 176.82 279.493 176.534C279.285 176.248 278.998 176.029 278.666 175.905C278.335 175.781 277.975 175.757 277.63 175.836C277.285 175.915 276.971 176.094 276.727 176.35C276.483 176.606 276.32 176.928 276.257 177.276C276.195 177.624 276.236 177.983 276.376 178.308C276.516 178.633 276.748 178.91 277.044 179.104C277.339 179.298 277.686 179.401 278.039 179.399C278.285 179.406 278.528 179.36 278.755 179.267C278.982 179.173 279.186 179.033 279.356 178.855C279.525 178.678 279.655 178.467 279.738 178.236C279.821 178.005 279.854 177.759 279.836 177.515Z" fill="#263238"/>
<path d="M285.787 174.988C285.787 174.347 285.257 173.906 284.343 173.906C284 173.887 283.658 173.95 283.344 174.089C283.03 174.228 282.754 174.441 282.539 174.708L281.809 174.186C282.122 173.805 282.522 173.503 282.976 173.306C283.429 173.11 283.922 173.024 284.415 173.056C285.867 173.056 286.821 173.729 286.821 174.852C286.821 176.536 285.041 176.641 285.041 177.964H284.03C284.014 176.376 285.787 176.151 285.787 174.988ZM283.87 179.6C283.888 179.439 283.964 179.29 284.085 179.182C284.206 179.074 284.362 179.015 284.524 179.015C284.686 179.015 284.842 179.074 284.962 179.182C285.083 179.29 285.159 179.439 285.177 179.6C285.159 179.761 285.083 179.909 284.962 180.017C284.842 180.125 284.686 180.185 284.524 180.185C284.362 180.185 284.206 180.125 284.085 180.017C283.964 179.909 283.888 179.761 283.87 179.6Z" fill="#263238"/>
<path d="M305.933 194.669C305.933 194.79 277.558 194.878 242.575 194.878C207.592 194.878 179.217 194.79 179.217 194.669C179.217 194.549 207.584 194.461 242.575 194.461C277.566 194.461 305.933 194.557 305.933 194.669Z" fill="black"/>
<path d="M278.882 201.446C278.882 201.559 262.625 201.655 242.567 201.655C222.509 201.655 206.244 201.559 206.244 201.446C206.244 201.334 222.509 201.238 242.567 201.238C262.625 201.238 278.882 201.302 278.882 201.446Z" fill="black"/>
<path d="M267.429 115.56C270.082 113.086 271.984 109.914 272.918 106.409C273.851 102.904 273.779 99.2065 272.709 95.7405C271.638 92.2744 269.614 89.1799 266.866 86.8113C264.119 84.4426 260.76 82.8957 257.174 82.3477C253.588 81.7996 249.92 82.2726 246.591 83.7124C243.261 85.1523 240.405 87.5007 238.348 90.4889C236.291 93.477 235.118 96.984 234.962 100.608C234.806 104.232 235.674 107.827 237.466 110.981L233.537 114.646L234.483 121.166L228.38 119.498L223.463 124.085L224.442 130.566L218.347 128.857L214.12 132.795L214.698 136.805L210.976 135.763L208.522 138.056L208.153 144.095L217.16 146.365L246.393 119.097C249.859 120.638 253.702 121.124 257.443 120.495C261.184 119.866 264.657 118.15 267.429 115.56ZM264.542 91.813C265.29 92.6143 265.784 93.6196 265.961 94.7016C266.138 95.7836 265.99 96.8937 265.535 97.8916C265.081 98.8894 264.341 99.7301 263.409 100.307C262.477 100.884 261.394 101.172 260.299 101.134C259.203 101.096 258.143 100.733 257.253 100.093C256.364 99.4522 255.684 98.5621 255.3 97.535C254.917 96.508 254.846 95.3902 255.098 94.3231C255.349 93.2561 255.912 92.2876 256.714 91.5403C257.789 90.5394 259.217 90.0059 260.684 90.057C262.152 90.1081 263.54 90.7397 264.542 91.813Z" fill="#263238"/>
<path d="M264.542 91.813C264.542 91.813 264.181 91.4761 263.443 91.011C262.394 90.3841 261.169 90.1166 259.954 90.2491C258.97 90.3553 258.034 90.7337 257.252 91.3417C256.471 91.9497 255.874 92.7634 255.528 93.6916C255.183 94.6198 255.103 95.6259 255.297 96.5971C255.491 97.5682 255.952 98.4662 256.627 99.1902C257.303 99.9143 258.167 100.436 259.122 100.697C260.078 100.957 261.087 100.947 262.037 100.667C262.987 100.386 263.84 99.8467 264.5 99.1088C265.161 98.3709 265.603 97.4636 265.777 96.4886C266 95.2871 265.816 94.0456 265.256 92.9598C264.855 92.1578 264.502 91.837 264.542 91.805C264.582 91.7729 264.646 91.8771 264.806 92.0456C265.042 92.2884 265.249 92.5575 265.424 92.8476C266.076 93.9537 266.32 95.2534 266.114 96.5207C265.994 97.2747 265.724 97.997 265.32 98.6447C264.916 99.2924 264.386 99.8524 263.761 100.291C263.137 100.73 262.431 101.04 261.684 101.201C260.938 101.362 260.167 101.371 259.417 101.228C258.209 101.007 257.104 100.402 256.266 99.5037C255.428 98.6052 254.902 97.4609 254.765 96.24C254.676 95.4824 254.739 94.7145 254.951 93.9817C255.163 93.2489 255.52 92.5661 256.001 91.9738C256.482 91.3816 257.077 90.8918 257.75 90.5335C258.424 90.1753 259.162 89.9558 259.922 89.8882C261.204 89.7698 262.487 90.1047 263.547 90.8345C263.841 91.0229 264.11 91.2465 264.349 91.5002C264.542 91.7087 264.59 91.805 264.542 91.813Z" fill="#263238"/>
<path d="M267.429 115.56C267.429 115.56 267.341 115.656 267.148 115.825L266.298 116.627C265.146 117.565 263.892 118.372 262.561 119.033C260.027 120.247 257.26 120.896 254.45 120.936C251.641 120.976 248.856 120.406 246.288 119.265H246.449L217.264 146.582L217.184 146.67H217.063L208.057 144.408L207.873 144.368V144.176C207.985 142.291 208.105 140.23 208.233 138.137V137.944L208.298 137.88L210.808 135.538L210.896 135.45H211.024L214.746 136.492L214.449 136.749C214.264 135.506 214.072 134.143 213.871 132.739V132.619L213.96 132.539L218.186 128.593L218.282 128.496H218.411L224.506 130.205L224.209 130.469C223.913 128.4 223.592 126.187 223.271 123.949V123.821L223.367 123.741L224.666 122.522L228.283 119.153L228.38 119.057H228.508L234.611 120.765L234.306 121.03C233.991 118.832 233.678 116.659 233.368 114.51V114.389L233.456 114.301L237.386 110.636L237.346 110.925C235.825 108.223 234.965 105.2 234.836 102.103C234.761 100.606 234.869 99.106 235.157 97.6355C235.419 96.1895 235.85 94.7791 236.44 93.433C237.927 90.0285 240.357 87.1201 243.443 85.0506C246.529 82.9812 250.141 81.8369 253.856 81.7526C257.57 81.6683 261.231 82.6475 264.408 84.5749C267.584 86.5023 270.143 89.2974 271.784 92.631C273.322 95.7761 273.979 99.2795 273.685 102.768C273.481 105.369 272.744 107.9 271.519 110.203C271.399 110.443 271.279 110.668 271.158 110.893L270.765 111.502C270.501 111.895 270.284 112.304 270.028 112.601C269.506 113.226 269.105 113.788 268.712 114.205L267.75 115.271L267.437 115.56C267.437 115.56 267.525 115.448 267.718 115.239L268.584 114.317C268.961 113.916 269.386 113.347 269.859 112.713C270.1 112.384 270.308 111.999 270.565 111.614C270.693 111.414 270.821 111.213 270.95 110.997L271.303 110.315C272.487 108.036 273.201 105.541 273.402 102.98C273.602 100.419 273.285 97.8441 272.47 95.4081C271.654 92.9722 270.356 90.7254 268.654 88.8014C266.952 86.8774 264.88 85.3157 262.562 84.2093C260.243 83.1029 257.726 82.4744 255.16 82.3612C252.593 82.2481 250.03 82.6526 247.624 83.5507C245.217 84.4487 243.015 85.822 241.151 87.5887C239.286 89.3554 237.795 91.4793 236.769 93.834C236.197 95.1507 235.777 96.5284 235.517 97.9403C235.243 99.3773 235.141 100.842 235.213 102.303C235.35 105.317 236.193 108.257 237.675 110.885L237.763 111.045L237.627 111.173L233.705 114.838L233.777 114.63C234.087 116.769 234.4 118.945 234.715 121.158L234.772 121.519L234.411 121.423L228.315 119.715L228.548 119.658L224.931 123.027L223.64 124.222L223.712 124.005C224.033 126.243 224.354 128.464 224.65 130.526L224.706 130.894L224.346 130.798L218.25 129.082L218.475 129.026C217.023 130.389 215.58 131.729 214.248 132.972L214.329 132.763C214.521 134.135 214.714 135.498 214.898 136.773L214.946 137.126L214.601 137.03L210.888 135.987L211.105 135.931L208.642 138.225L208.715 138.072C208.586 140.166 208.458 142.227 208.346 144.111L208.177 143.879L217.184 146.148L216.983 146.205L246.256 118.985L246.328 118.921H246.417C248.949 120.06 251.697 120.64 254.473 120.62C257.249 120.601 259.989 119.983 262.505 118.808C263.832 118.176 265.09 117.407 266.258 116.515L267.132 115.785L267.429 115.56Z" fill="#263238"/>
<path d="M266.779 113.371C269.431 110.898 271.332 107.728 272.266 104.225C273.199 100.722 273.128 97.0261 272.059 93.5617C270.99 90.0973 268.967 87.004 266.221 84.636C263.476 82.2679 260.119 80.7209 256.535 80.1721C252.951 79.6232 249.285 80.0947 245.957 81.5326C242.629 82.9705 239.773 85.3166 237.716 88.3023C235.659 91.2879 234.484 94.7925 234.327 98.4147C234.169 102.037 235.035 105.63 236.825 108.783L232.903 112.44L233.841 118.969L227.746 117.252L222.838 121.848L223.776 128.368L217.681 126.66L213.454 130.606L214.024 134.616L210.311 133.581L207.848 135.875L207.48 141.914L216.486 144.176L245.719 116.908C249.188 118.457 253.037 118.947 256.783 118.318C260.53 117.689 264.007 115.968 266.779 113.371ZM263.924 89.6235C264.673 90.4248 265.166 91.43 265.343 92.512C265.52 93.594 265.372 94.7042 264.918 95.702C264.464 96.6999 263.724 97.5406 262.791 98.1177C261.859 98.6949 260.777 98.9826 259.681 98.9444C258.585 98.9062 257.526 98.5439 256.636 97.9033C255.746 97.2627 255.066 96.3725 254.683 95.3455C254.299 94.3185 254.229 93.2007 254.48 92.1336C254.732 91.0665 255.295 90.0981 256.097 89.3508C256.628 88.8542 257.253 88.4673 257.934 88.2122C258.615 87.9571 259.34 87.8388 260.067 87.8642C260.794 87.8895 261.509 88.0579 262.171 88.3598C262.833 88.6617 263.429 89.0911 263.924 89.6235Z" fill="#FF725E"/>
<path d="M263.924 89.6235C263.924 89.6235 263.563 89.2867 262.826 88.8215C261.787 88.174 260.562 87.8917 259.345 88.0195C258.363 88.1275 257.43 88.5066 256.651 89.1143C255.872 89.722 255.278 90.5345 254.934 91.4608C254.59 92.3871 254.511 93.3907 254.705 94.3594C254.9 95.3282 255.359 96.2238 256.033 96.9461C256.707 97.6684 257.569 98.189 258.522 98.4496C259.475 98.7102 260.482 98.7006 261.43 98.4217C262.378 98.1429 263.229 97.6059 263.889 96.8708C264.549 96.1356 264.992 95.2314 265.167 94.2591C265.389 93.0567 265.202 91.8149 264.638 90.7303C264.237 89.9283 263.892 89.6075 263.924 89.5754C263.956 89.5433 264.029 89.6476 264.197 89.816C264.43 90.0594 264.634 90.3284 264.806 90.618C265.461 91.7262 265.705 93.0292 265.496 94.2992C265.375 95.0519 265.105 95.7728 264.701 96.4193C264.297 97.0659 263.768 97.625 263.145 98.0638C262.521 98.5025 261.816 98.812 261.072 98.974C260.327 99.136 259.557 99.1472 258.808 99.0069C257.6 98.7974 256.491 98.2046 255.646 97.3163C254.801 96.4281 254.265 95.2915 254.116 94.0746C254.028 93.3174 254.093 92.5503 254.306 91.8184C254.519 91.0865 254.876 90.4046 255.357 89.8129C255.837 89.2211 256.431 88.7313 257.104 88.3724C257.776 88.0134 258.514 87.7926 259.273 87.7228C260.556 87.6061 261.839 87.9439 262.898 88.6772C263.193 88.8632 263.463 89.087 263.7 89.3428C263.868 89.5193 263.94 89.6155 263.924 89.6235Z" fill="#263238"/>
<path d="M266.779 113.371C266.779 113.371 266.691 113.467 266.507 113.635L265.657 114.389C264.502 115.325 263.249 116.132 261.919 116.795C259.384 118.009 256.615 118.658 253.805 118.698C250.994 118.738 248.208 118.168 245.639 117.028H245.799L216.622 144.344L216.534 144.424H216.422L207.407 142.162L207.231 142.114V141.93C207.343 140.045 207.472 137.984 207.592 135.891V135.795L207.656 135.738L210.118 133.437L210.214 133.349H210.343L214.056 134.383L213.759 134.648C213.583 133.405 213.382 132.041 213.182 130.638V130.517L213.278 130.429L217.497 126.491L217.593 126.395L217.729 126.435L223.824 128.144L223.52 128.408L222.581 121.904V121.776L222.669 121.687L223.977 120.476L227.586 117.108L227.682 117.012L227.818 117.052L233.913 118.76L233.609 119.025C233.293 116.827 232.98 114.654 232.67 112.505V112.376L232.767 112.296L236.696 108.631L236.648 108.92C235.128 106.218 234.267 103.195 234.138 100.098C234.067 98.6011 234.175 97.1015 234.459 95.6305C234.723 94.1848 235.154 92.7746 235.742 91.428C237.567 87.1856 240.842 83.731 244.981 81.6824C249.12 79.6338 253.853 79.1249 258.332 80.2468C262.812 81.3687 266.747 84.0482 269.432 87.8057C272.117 91.5632 273.377 96.1535 272.987 100.755C272.782 103.356 272.045 105.886 270.821 108.19L270.461 108.879L270.068 109.489C269.803 109.882 269.586 110.291 269.338 110.588C268.817 111.213 268.415 111.775 268.023 112.192L267.092 113.082C266.892 113.282 266.779 113.379 266.779 113.379C266.779 113.379 266.876 113.258 267.068 113.05L267.926 112.136C268.303 111.735 268.728 111.165 269.201 110.532C269.442 110.211 269.659 109.826 269.915 109.433L270.3 108.823L270.645 108.134C271.83 105.843 272.537 103.336 272.722 100.763C273.063 96.2592 271.8 91.7798 269.155 88.1177C266.511 84.4556 262.657 81.8469 258.274 80.7532C253.892 79.6595 249.264 80.1513 245.209 82.1416C241.154 84.132 237.934 87.4925 236.119 91.6285C235.55 92.9454 235.133 94.3231 234.876 95.7347C234.597 97.1712 234.495 98.6363 234.571 100.098C234.705 103.111 235.546 106.05 237.025 108.679L237.121 108.839L236.985 108.968L233.055 112.633L233.127 112.424C233.443 114.563 233.756 116.736 234.066 118.945L234.122 119.314L233.769 119.209L227.65 117.493L227.874 117.437L224.265 120.813L222.958 122.024L223.03 121.816C223.359 124.053 223.672 126.267 223.969 128.336L224.025 128.705L223.672 128.601L217.569 126.892L217.801 126.836L213.575 130.774L213.647 130.574C213.839 131.945 214.04 133.3 214.216 134.543L214.264 134.904L213.92 134.808L210.206 133.766L210.423 133.709L207.969 136.003L208.041 135.843C207.913 137.936 207.784 140.005 207.664 141.882L207.496 141.649L216.502 143.927L216.302 143.983L245.575 116.763L245.647 116.699L245.735 116.739C248.268 117.873 251.016 118.449 253.791 118.43C256.567 118.411 259.306 117.796 261.823 116.627C263.152 115.993 264.412 115.224 265.584 114.333L266.451 113.603L266.779 113.371Z" fill="#263238"/>
<path d="M265.007 111.863C265.959 110.844 266.828 109.749 267.605 108.591C268.485 107.218 269.153 105.72 269.586 104.148C270.179 102.064 270.367 99.8861 270.14 97.7318C269.876 95.1284 269.006 92.6231 267.597 90.4175C265.976 87.8925 263.711 85.8443 261.037 84.4827C259.605 83.7369 258.065 83.2175 256.474 82.9429C255.655 82.79 254.827 82.6935 253.996 82.6542C253.146 82.6411 252.297 82.684 251.453 82.7825C247.91 83.1889 244.59 84.7207 241.982 87.153C239.373 89.5853 237.614 92.7899 236.961 96.2962C236.804 97.1306 236.702 97.9746 236.656 98.8225C236.64 99.6557 236.68 100.489 236.777 101.317C236.938 102.924 237.349 104.496 237.996 105.976C239.167 108.74 241.055 111.141 243.465 112.93C245.563 114.492 248.001 115.536 250.579 115.977C252.705 116.354 254.883 116.319 256.995 115.873C258.594 115.545 260.135 114.98 261.566 114.197C262.776 113.506 263.926 112.717 265.007 111.839C265.007 111.839 264.951 111.911 264.814 112.031L264.213 112.577C263.891 112.872 263.545 113.14 263.178 113.379C262.696 113.744 262.187 114.071 261.655 114.357C260.219 115.179 258.667 115.777 257.051 116.13C253.151 117.001 249.07 116.479 245.514 114.655C241.959 112.831 239.154 109.82 237.587 106.145C236.917 104.616 236.49 102.993 236.319 101.333C236.09 99.6384 236.141 97.9177 236.472 96.24C237.138 92.6322 238.946 89.3338 241.629 86.8314C244.311 84.329 247.728 82.7549 251.373 82.3414C253.09 82.1204 254.832 82.18 256.53 82.5178C258.164 82.8113 259.743 83.3522 261.214 84.1218C263.952 85.527 266.264 87.6399 267.91 90.2411C269.209 92.3065 270.054 94.6247 270.389 97.0417C270.724 99.4588 270.54 101.919 269.851 104.26C269.389 105.851 268.683 107.361 267.758 108.735C267.44 109.245 267.081 109.728 266.683 110.179C266.416 110.528 266.121 110.856 265.801 111.157L265.215 111.719C265.087 111.807 265.015 111.871 265.007 111.863Z" fill="#263238"/>
<path d="M264.229 98.1568C264.189 98.1568 264.63 97.7397 265.167 96.8816C265.923 95.6567 266.245 94.2133 266.082 92.7834C265.971 91.7358 265.597 90.7331 264.996 89.8682C264.394 89.0033 263.584 88.304 262.641 87.835C261.539 87.271 260.293 87.0503 259.064 87.2015C258.099 87.3178 257.174 87.6566 256.363 88.191C255.551 88.7255 254.874 89.4411 254.386 90.2815C253.898 91.1219 253.611 92.0642 253.549 93.0341C253.487 94.0041 253.651 94.9752 254.028 95.8711C254.469 96.9019 255.171 97.8001 256.065 98.4776C256.852 99.0637 257.763 99.4616 258.727 99.6405C260.144 99.9016 261.607 99.6785 262.882 99.0069C263.78 98.5337 264.189 98.1167 264.229 98.1568C264.269 98.1969 264.141 98.2771 263.94 98.4615C263.648 98.7392 263.322 98.979 262.97 99.1753C261.872 99.8113 260.612 100.114 259.345 100.047C258.078 99.9805 256.857 99.5465 255.832 98.7984C254.807 98.0565 254.013 97.0382 253.545 95.8624C253.076 94.6866 252.951 93.4017 253.186 92.1578C253.444 90.7482 254.15 89.4596 255.199 88.483C256.248 87.5064 257.584 86.8938 259.008 86.7363C260.33 86.5767 261.669 86.8198 262.85 87.434C263.915 87.9896 264.812 88.8204 265.448 89.84C266.118 90.9163 266.463 92.1631 266.442 93.4307C266.42 94.6983 266.034 95.9328 265.328 96.9859C265.098 97.3218 264.829 97.6288 264.526 97.9001C264.349 98.0846 264.237 98.1728 264.229 98.1568Z" fill="#263238"/>
<path d="M214.112 143.069C214.024 142.973 220.6 136.653 228.813 129.026C237.025 121.399 243.754 115.239 243.842 115.336C243.93 115.432 237.354 121.752 229.142 129.379C220.929 137.006 214.2 143.165 214.112 143.069Z" fill="#263238"/>
<path d="M217.737 104.797L218.01 104.204L218.363 104.749C218.651 105.185 219.057 105.53 219.534 105.744L220.135 106.008L219.59 106.369C219.15 106.655 218.802 107.062 218.587 107.54L218.323 108.134L217.962 107.588C217.675 107.151 217.268 106.806 216.791 106.594L216.197 106.329L216.743 105.968C217.182 105.684 217.528 105.277 217.737 104.797Z" fill="#FF725E"/>
<path d="M199.844 100.338L199.997 99.9934L200.205 100.306C200.371 100.562 200.608 100.763 200.887 100.884L201.232 101.044L200.911 101.253C200.659 101.418 200.459 101.652 200.334 101.926L200.181 102.279L199.973 101.958C199.808 101.703 199.57 101.502 199.291 101.381L198.946 101.22L199.259 101.02C199.513 100.851 199.716 100.615 199.844 100.338Z" fill="#FF725E"/>
<path d="M256.201 130.838L256.353 130.493L256.562 130.814C256.734 131.064 256.969 131.263 257.244 131.392L257.588 131.544L257.276 131.753C257.02 131.918 256.819 132.155 256.698 132.434L256.538 132.779L256.329 132.466C256.165 132.211 255.931 132.008 255.656 131.881L255.303 131.728L255.624 131.52C255.879 131.355 256.08 131.118 256.201 130.838Z" fill="#FF725E"/>
<path d="M283.79 115.199L284.054 114.606L284.415 115.151C284.702 115.588 285.109 115.934 285.586 116.146L286.18 116.41L285.634 116.771C285.197 117.057 284.852 117.464 284.64 117.942L284.367 118.536L284.014 117.99C283.724 117.557 283.318 117.212 282.843 116.996L282.242 116.731L282.787 116.37C283.227 116.084 283.575 115.678 283.79 115.199Z" fill="#FF725E"/>
<path d="M280.205 93.2886L280.654 92.2861L281.256 93.2084C281.739 93.9417 282.42 94.5229 283.22 94.8846L284.223 95.3257L283.301 95.9272C282.569 96.4153 281.988 97.0988 281.624 97.9001L281.175 98.9026L280.574 97.9803C280.091 97.247 279.409 96.6658 278.609 96.3042L277.606 95.855L278.529 95.2535C279.262 94.7702 279.843 94.0889 280.205 93.2886Z" fill="#FF725E"/>
<path d="M212.179 86.5358L212.628 85.5333L213.23 86.4476C213.711 87.183 214.393 87.7648 215.195 88.1238L216.197 88.5729L215.283 89.1744C214.545 89.6529 213.963 90.3356 213.607 91.1393L213.158 92.1418L212.556 91.2275C212.074 90.4901 211.389 89.9079 210.583 89.5513L209.589 89.1022L210.503 88.5007C211.238 88.0198 211.82 87.3378 212.179 86.5358Z" fill="#FF725E"/>
<path d="M297.328 239.245C297.328 239.245 297.584 239.245 298.081 239.18C298.394 239.175 298.706 239.141 299.012 239.076L299.597 238.98L300.263 238.804C301.428 238.503 302.534 238.01 303.535 237.344C305.736 235.903 307.378 233.752 308.187 231.249C308.511 230.225 308.689 229.162 308.716 228.089C308.716 227.527 308.716 226.942 308.716 226.364L308.668 225.482C308.668 225.186 308.58 224.889 308.532 224.592C308.299 223.352 307.869 222.158 307.256 221.055C305.869 218.601 303.62 216.749 300.945 215.858C299.492 215.395 297.968 215.194 296.445 215.265H291.585L187.814 215.329C185.319 215.331 182.895 216.157 180.917 217.679C179.952 218.433 179.108 219.331 178.415 220.341C177.741 221.355 177.235 222.471 176.915 223.646C176.757 224.23 176.642 224.825 176.57 225.426C176.57 226.028 176.49 226.629 176.506 227.247C176.472 228.449 176.618 229.649 176.939 230.808C177.27 231.945 177.77 233.027 178.423 234.016C179.096 234.986 179.907 235.853 180.829 236.59C181.747 237.319 182.776 237.895 183.877 238.298C184.418 238.5 184.973 238.664 185.537 238.787C186.106 238.894 186.682 238.961 187.261 238.988C189.579 239.044 191.921 238.988 194.214 238.988H207.696L254.348 239.028L285.803 239.1L294.352 239.14H296.582H297.336C297.336 239.14 297.079 239.14 296.582 239.14H294.352L285.803 239.18L254.348 239.245L207.696 239.293H194.206C191.905 239.293 189.595 239.293 187.229 239.293C186.632 239.266 186.037 239.199 185.449 239.092C184.863 238.961 184.286 238.79 183.724 238.579C182.585 238.165 181.521 237.569 180.572 236.815C178.627 235.293 177.222 233.187 176.562 230.808C176.233 229.612 176.082 228.374 176.113 227.134C176.113 226.525 176.113 225.891 176.177 225.274C176.254 224.651 176.374 224.035 176.538 223.429C176.872 222.21 177.397 221.051 178.094 219.997C178.81 218.946 179.687 218.015 180.693 217.238C182.745 215.67 185.257 214.824 187.839 214.832L291.609 214.888H296.469C298.023 214.827 299.575 215.035 301.057 215.505C303.78 216.432 306.065 218.331 307.473 220.839C308.097 221.966 308.533 223.188 308.764 224.456L308.9 225.362C308.9 225.667 308.9 225.963 308.9 226.26C308.9 226.854 308.9 227.423 308.9 228.001C308.865 229.09 308.679 230.17 308.347 231.209C308.033 232.145 307.605 233.039 307.072 233.871C306.179 235.271 304.991 236.459 303.591 237.352C302.571 238.012 301.45 238.5 300.271 238.795L299.597 238.956L299.004 239.044C298.697 239.1 298.385 239.129 298.073 239.132L297.328 239.245Z" fill="#263238"/>
<path d="M297.328 244.401H187.806C181.45 244.401 176.298 249.554 176.298 255.91V257.009C176.298 263.365 181.45 268.518 187.806 268.518H297.328C303.684 268.518 308.836 263.365 308.836 257.009V255.91C308.836 249.554 303.684 244.401 297.328 244.401Z" fill="#FF725E"/>
<path d="M202.908 231.994C202.892 231.757 202.892 231.518 202.908 231.281C202.908 230.783 202.908 230.134 202.868 229.332C202.868 227.616 202.82 225.242 202.78 222.379L202.948 222.539L188.616 222.587L188.825 222.379V224.897C188.825 225.699 188.825 226.549 188.825 227.351C188.825 228.955 188.825 230.511 188.825 231.978L188.633 231.786L198.906 231.882L201.874 231.93H202.676H202.964C202.629 231.969 202.291 231.985 201.954 231.978L199.026 232.027L188.6 232.123H188.352V231.93C188.352 230.463 188.352 228.915 188.352 227.303C188.352 226.501 188.352 225.699 188.352 224.849V222.395C188.167 222.579 188.608 222.138 188.56 222.178L202.892 222.226H203.06V222.395C203.02 225.306 202.988 227.712 202.972 229.452C202.972 230.254 202.972 230.88 202.924 231.369C202.933 231.578 202.928 231.787 202.908 231.994Z" fill="#263238"/>
<path d="M202.908 222.379C202.288 223.068 201.618 223.712 200.903 224.303C199.636 225.458 197.856 227.022 195.883 228.738H195.57L195.522 228.698L195.425 228.618L195.241 228.458L194.88 228.145L194.174 227.527L192.835 226.348L190.589 224.343C189.875 223.752 189.205 223.108 188.584 222.419C189.351 222.915 190.078 223.47 190.758 224.079L193.06 226.02L194.415 227.175L195.129 227.784L195.498 228.105L195.674 228.265L195.77 228.337L195.818 228.378H195.57C197.551 226.669 199.355 225.17 200.679 224.039C201.377 223.427 202.122 222.872 202.908 222.379Z" fill="#263238"/>
<path d="M193.749 226.854C193.057 227.851 192.249 228.764 191.343 229.573C190.525 230.475 189.608 231.282 188.608 231.979C189.306 230.985 190.113 230.073 191.014 229.26C191.835 228.359 192.752 227.553 193.749 226.854Z" fill="#263238"/>
<path d="M202.908 231.995C201.953 231.237 201.089 230.37 200.334 229.412C199.476 228.547 198.718 227.59 198.072 226.557C199.025 227.318 199.889 228.184 200.646 229.139C201.507 230.002 202.266 230.96 202.908 231.995Z" fill="#263238"/>
<path d="M211.562 229.107V229.428H208.233V224.616H211.441V224.937H208.57V226.838H211.137V227.15H208.57V229.123L211.562 229.107Z" fill="#263238"/>
<path d="M218.643 227.327V229.428H218.299V227.351C218.299 226.549 217.873 226.108 217.176 226.108C216.993 226.1 216.811 226.131 216.642 226.2C216.473 226.269 216.32 226.374 216.195 226.507C216.071 226.641 215.976 226.799 215.918 226.973C215.86 227.146 215.841 227.33 215.86 227.511V229.428H215.516V227.351C215.516 226.549 215.091 226.108 214.393 226.108C214.21 226.1 214.028 226.131 213.859 226.2C213.69 226.269 213.538 226.374 213.413 226.507C213.288 226.641 213.193 226.799 213.135 226.973C213.077 227.146 213.058 227.33 213.077 227.511V229.428H212.733V225.827H213.061V226.629C213.185 226.373 213.383 226.16 213.629 226.017C213.874 225.875 214.157 225.808 214.441 225.827C214.725 225.803 215.01 225.876 215.248 226.033C215.487 226.19 215.666 226.423 215.756 226.693C215.885 226.421 216.091 226.193 216.35 226.039C216.609 225.885 216.907 225.811 217.208 225.827C217.406 225.813 217.604 225.842 217.789 225.914C217.974 225.985 218.141 226.096 218.278 226.239C218.416 226.383 218.519 226.554 218.582 226.742C218.645 226.93 218.666 227.13 218.643 227.327Z" fill="#263238"/>
<path d="M222.653 227.142V229.428H222.325V228.787C222.19 229.006 221.997 229.184 221.768 229.302C221.539 229.419 221.282 229.471 221.025 229.452C220.223 229.452 219.734 229.043 219.734 228.426C219.734 227.808 220.079 227.423 221.073 227.423H222.309V227.134C222.323 226.992 222.306 226.849 222.257 226.715C222.208 226.581 222.129 226.46 222.026 226.361C221.923 226.262 221.799 226.187 221.663 226.144C221.527 226.1 221.383 226.088 221.242 226.108C220.787 226.103 220.346 226.263 219.999 226.557L219.83 226.308C220.233 225.974 220.742 225.795 221.266 225.803C221.45 225.776 221.638 225.792 221.815 225.849C221.993 225.906 222.154 226.003 222.288 226.132C222.422 226.262 222.525 226.42 222.588 226.595C222.651 226.77 222.674 226.957 222.653 227.142ZM222.309 228.362V227.688H221.081C220.336 227.688 220.079 228.001 220.079 228.41C220.079 228.819 220.44 229.172 221.073 229.172C221.339 229.188 221.603 229.117 221.825 228.972C222.048 228.826 222.217 228.612 222.309 228.362Z" fill="#263238"/>
<path d="M223.961 224.68C223.961 224.643 223.968 224.607 223.982 224.573C223.996 224.539 224.017 224.508 224.043 224.482C224.069 224.456 224.1 224.435 224.134 224.421C224.168 224.407 224.204 224.4 224.241 224.4C224.297 224.4 224.351 224.416 224.397 224.447C224.443 224.478 224.479 224.522 224.501 224.573C224.522 224.624 224.527 224.681 224.517 224.735C224.506 224.789 224.479 224.839 224.44 224.879C224.401 224.918 224.351 224.945 224.296 224.956C224.242 224.966 224.185 224.961 224.134 224.94C224.083 224.918 224.039 224.882 224.008 224.836C223.977 224.79 223.961 224.736 223.961 224.68ZM224.065 225.827H224.442V229.428H224.097L224.065 225.827Z" fill="#263238"/>
<path d="M225.861 224.311H226.206V229.428H225.861V224.311Z" fill="#263238"/>
<path d="M216.157 259.696L214.858 257.875C214.682 257.887 214.505 257.887 214.329 257.875H212.773V259.656H212.412V254.234H214.361C215.724 254.234 216.55 254.916 216.55 256.071C216.568 256.458 216.451 256.84 216.218 257.15C215.986 257.46 215.652 257.68 215.275 257.771L216.638 259.672L216.157 259.696ZM214.329 257.57C215.492 257.57 216.117 257.025 216.117 256.095C216.117 255.164 215.492 254.611 214.329 254.611H212.773V257.57H214.329Z" fill="white"/>
<path d="M221.274 257.763H217.785C217.785 257.983 217.83 258.201 217.917 258.404C218.005 258.606 218.133 258.788 218.294 258.939C218.455 259.089 218.645 259.205 218.853 259.279C219.061 259.352 219.282 259.382 219.502 259.367C219.746 259.375 219.99 259.329 220.214 259.232C220.439 259.135 220.639 258.989 220.801 258.805L221.025 259.062C220.835 259.279 220.599 259.451 220.334 259.565C220.069 259.678 219.782 259.731 219.493 259.72C219.218 259.733 218.943 259.689 218.685 259.591C218.428 259.492 218.194 259.341 217.998 259.148C217.802 258.954 217.648 258.721 217.546 258.465C217.445 258.209 217.398 257.934 217.408 257.659C217.391 257.394 217.429 257.128 217.518 256.878C217.608 256.629 217.748 256.4 217.929 256.206C218.111 256.013 218.33 255.858 218.574 255.753C218.817 255.647 219.08 255.593 219.345 255.593C219.61 255.593 219.873 255.647 220.117 255.753C220.36 255.858 220.579 256.013 220.761 256.206C220.942 256.4 221.082 256.629 221.172 256.878C221.262 257.128 221.299 257.394 221.282 257.659C221.282 257.659 221.274 257.723 221.274 257.763ZM217.793 257.458H220.905C220.905 257.045 220.741 256.65 220.449 256.358C220.158 256.066 219.762 255.902 219.349 255.902C218.936 255.902 218.541 256.066 218.249 256.358C217.957 256.65 217.793 257.045 217.793 257.458Z" fill="white"/>
<path d="M221.891 259.206L222.068 258.894C222.488 259.212 223.001 259.384 223.528 259.383C224.386 259.383 224.731 259.086 224.731 258.621C224.731 257.442 222.036 258.316 222.036 256.72C222.036 256.111 222.549 255.613 223.576 255.613C224.069 255.604 224.555 255.741 224.971 256.006L224.787 256.319C224.429 256.072 224.003 255.943 223.568 255.95C222.766 255.95 222.429 256.279 222.429 256.712C222.429 257.931 225.116 257.073 225.116 258.621C225.116 259.279 224.546 259.728 223.512 259.728C222.928 259.746 222.355 259.562 221.891 259.206Z" fill="white"/>
<path d="M229.631 257.763H226.142C226.142 257.983 226.186 258.201 226.274 258.404C226.361 258.606 226.49 258.788 226.651 258.939C226.812 259.089 227.002 259.205 227.21 259.279C227.418 259.352 227.638 259.382 227.858 259.367C228.103 259.375 228.346 259.329 228.571 259.232C228.796 259.135 228.996 258.989 229.158 258.805L229.382 259.062C229.191 259.278 228.955 259.449 228.69 259.563C228.425 259.677 228.138 259.73 227.85 259.72C227.575 259.733 227.299 259.689 227.041 259.591C226.783 259.493 226.549 259.342 226.352 259.148C226.155 258.954 226.001 258.722 225.898 258.466C225.796 258.209 225.748 257.934 225.757 257.659C225.742 257.394 225.781 257.129 225.872 256.879C225.963 256.63 226.104 256.402 226.287 256.21C226.47 256.018 226.69 255.865 226.934 255.761C227.178 255.657 227.441 255.604 227.706 255.605C227.969 255.603 228.231 255.654 228.473 255.757C228.716 255.86 228.935 256.012 229.116 256.203C229.298 256.394 229.438 256.621 229.528 256.868C229.617 257.116 229.655 257.38 229.639 257.643C229.639 257.643 229.631 257.723 229.631 257.763ZM226.15 257.458H229.254C229.226 257.066 229.05 256.699 228.762 256.431C228.474 256.163 228.095 256.014 227.702 256.014C227.309 256.014 226.93 256.163 226.642 256.431C226.354 256.699 226.178 257.066 226.15 257.458Z" fill="white"/>
<path d="M232.855 259.439C232.63 259.627 232.346 259.729 232.053 259.728C231.904 259.743 231.754 259.725 231.613 259.674C231.472 259.624 231.344 259.543 231.239 259.437C231.134 259.331 231.054 259.202 231.004 259.061C230.955 258.92 230.938 258.77 230.954 258.621V255.974H230.208V255.637H230.954V254.755H231.339V255.637H232.63V255.974H231.339V258.589C231.339 259.11 231.596 259.391 232.093 259.391C232.325 259.398 232.551 259.317 232.726 259.166L232.855 259.439Z" fill="white"/>
<path d="M240.201 256.095C240.201 257.233 239.399 257.915 238.012 257.915H236.472V259.696H236.071V254.234H238.028C239.375 254.234 240.201 254.94 240.201 256.095ZM239.8 256.095C239.8 255.148 239.175 254.611 238.012 254.611H236.472V257.562H238.028C239.175 257.562 239.8 257.025 239.8 256.095Z" fill="white"/>
<path d="M244.307 257.121V259.696H243.93V258.974C243.782 259.223 243.566 259.426 243.308 259.559C243.05 259.692 242.76 259.751 242.471 259.728C241.565 259.728 241.011 259.263 241.011 258.573C241.011 257.883 241.396 257.434 242.527 257.434H243.914V257.113C243.932 256.953 243.913 256.79 243.858 256.638C243.803 256.487 243.714 256.349 243.598 256.237C243.482 256.125 243.341 256.041 243.188 255.991C243.034 255.941 242.871 255.927 242.711 255.95C242.197 255.944 241.697 256.127 241.308 256.464L241.115 256.183C241.567 255.812 242.135 255.611 242.719 255.613C242.929 255.58 243.142 255.596 243.345 255.658C243.547 255.721 243.732 255.83 243.885 255.976C244.039 256.121 244.157 256.3 244.23 256.499C244.303 256.698 244.33 256.911 244.307 257.121ZM243.914 258.501V257.739H242.535C241.693 257.739 241.396 258.092 241.396 258.541C241.396 258.99 241.805 259.391 242.527 259.391C242.823 259.412 243.118 259.336 243.368 259.176C243.618 259.015 243.81 258.779 243.914 258.501Z" fill="white"/>
<path d="M245.294 259.206L245.47 258.894C245.888 259.216 246.402 259.388 246.93 259.383C247.788 259.383 248.125 259.086 248.125 258.621C248.125 257.442 245.438 258.316 245.438 256.72C245.438 256.111 245.951 255.613 246.978 255.613C247.469 255.603 247.953 255.74 248.365 256.006L248.189 256.319C247.831 256.073 247.405 255.944 246.97 255.95C246.168 255.95 245.823 256.279 245.823 256.712C245.823 257.931 248.518 257.073 248.518 258.621C248.518 259.279 247.948 259.728 246.914 259.728C246.33 259.747 245.757 259.563 245.294 259.206Z" fill="white"/>
<path d="M249.023 259.206L249.2 258.894C249.619 259.212 250.132 259.384 250.659 259.383C251.517 259.383 251.862 259.086 251.862 258.621C251.862 257.442 249.167 258.316 249.167 256.72C249.167 256.111 249.681 255.613 250.707 255.613C251.201 255.604 251.686 255.741 252.103 256.006L251.918 256.319C251.56 256.072 251.134 255.943 250.699 255.95C249.897 255.95 249.56 256.279 249.56 256.712C249.56 257.931 252.247 257.073 252.247 258.621C252.247 259.279 251.678 259.728 250.643 259.728C250.059 259.746 249.487 259.562 249.023 259.206Z" fill="white"/>
<path d="M259.056 255.637L257.516 259.696H257.147L255.784 256.175L254.405 259.696H254.052L252.512 255.637H252.881L254.236 259.262L255.624 255.637H255.952L257.332 259.254L258.695 255.637H259.056Z" fill="white"/>
<path d="M259.401 257.667C259.407 257.266 259.532 256.877 259.759 256.547C259.986 256.218 260.306 255.963 260.677 255.814C261.049 255.666 261.457 255.631 261.848 255.713C262.24 255.796 262.598 255.992 262.879 256.278C263.159 256.564 263.348 256.926 263.423 257.319C263.498 257.713 263.455 258.119 263.299 258.488C263.143 258.857 262.882 259.171 262.548 259.392C262.214 259.612 261.822 259.729 261.422 259.728C261.151 259.736 260.881 259.688 260.63 259.586C260.378 259.485 260.15 259.333 259.961 259.139C259.771 258.946 259.623 258.715 259.527 258.461C259.43 258.208 259.388 257.937 259.401 257.667ZM263.058 257.667C263.038 257.355 262.927 257.055 262.739 256.806C262.55 256.556 262.293 256.367 261.999 256.261C261.705 256.155 261.386 256.138 261.082 256.211C260.778 256.284 260.502 256.445 260.288 256.673C260.074 256.901 259.931 257.186 259.878 257.494C259.824 257.802 259.861 258.119 259.985 258.406C260.109 258.693 260.314 258.938 260.575 259.11C260.836 259.282 261.141 259.374 261.454 259.375C261.674 259.375 261.891 259.331 262.093 259.244C262.295 259.156 262.476 259.029 262.627 258.869C262.777 258.709 262.893 258.519 262.967 258.312C263.041 258.106 263.072 257.886 263.058 257.667Z" fill="white"/>
<path d="M266.579 255.613V255.99H266.483C265.584 255.99 265.047 256.592 265.047 257.594V259.704H264.662V255.646H265.031V256.536C265.16 256.239 265.378 255.99 265.656 255.825C265.934 255.659 266.257 255.585 266.579 255.613Z" fill="white"/>
<path d="M271.214 253.929V259.696H270.838V258.741C270.683 259.046 270.444 259.301 270.151 259.475C269.857 259.65 269.519 259.737 269.177 259.728C268.654 259.695 268.163 259.464 267.804 259.082C267.445 258.7 267.245 258.195 267.245 257.671C267.245 257.146 267.445 256.641 267.804 256.259C268.163 255.877 268.654 255.646 269.177 255.613C269.516 255.605 269.85 255.691 270.142 255.862C270.434 256.034 270.672 256.284 270.83 256.584V253.929H271.214ZM270.83 257.667C270.809 257.355 270.698 257.055 270.51 256.806C270.322 256.556 270.065 256.367 269.771 256.261C269.476 256.155 269.158 256.138 268.854 256.211C268.55 256.284 268.274 256.445 268.06 256.673C267.846 256.901 267.703 257.186 267.649 257.494C267.595 257.802 267.632 258.119 267.756 258.406C267.88 258.693 268.085 258.938 268.346 259.11C268.607 259.282 268.913 259.374 269.226 259.375C269.445 259.375 269.663 259.331 269.864 259.244C270.066 259.156 270.248 259.029 270.398 258.869C270.549 258.709 270.664 258.519 270.739 258.312C270.813 258.106 270.844 257.886 270.83 257.667Z" fill="white"/>
<path d="M322.96 50.5901C322.96 50.7024 285.883 50.7986 240.153 50.7986C194.423 50.7986 157.347 50.7024 157.347 50.5901C157.347 50.4778 194.415 50.3816 240.153 50.3816C285.891 50.3816 322.96 50.4778 322.96 50.5901Z" fill="#263238"/>
<path d="M166.698 44.0137C166.696 44.4115 166.577 44.7999 166.355 45.1299C166.133 45.4599 165.818 45.7166 165.45 45.8678C165.082 46.0189 164.677 46.0576 164.287 45.9791C163.897 45.9005 163.539 45.7081 163.259 45.4263C162.978 45.1444 162.787 44.7857 162.71 44.3955C162.633 44.0052 162.673 43.6009 162.826 43.2335C162.978 42.8661 163.236 42.5522 163.567 42.3314C163.898 42.1105 164.287 41.9927 164.685 41.9927C164.95 41.9927 165.212 42.045 165.457 42.1467C165.702 42.2483 165.924 42.3973 166.111 42.5851C166.298 42.7729 166.446 42.9957 166.547 43.2409C166.648 43.4861 166.699 43.7487 166.698 44.0137Z" fill="#263238"/>
<path d="M172.52 44.0137C172.519 44.4115 172.399 44.7999 172.177 45.1299C171.955 45.4599 171.64 45.7166 171.272 45.8678C170.904 46.0189 170.5 46.0576 170.11 45.9791C169.72 45.9005 169.362 45.7081 169.081 45.4263C168.8 45.1444 168.609 44.7857 168.532 44.3955C168.455 44.0052 168.496 43.6009 168.648 43.2335C168.801 42.8661 169.059 42.5522 169.39 42.3314C169.721 42.1105 170.11 41.9927 170.507 41.9927C170.772 41.9927 171.035 42.045 171.28 42.1467C171.524 42.2483 171.747 42.3973 171.934 42.5851C172.121 42.7729 172.269 42.9957 172.369 43.2409C172.47 43.4861 172.521 43.7487 172.52 44.0137Z" fill="#263238"/>
<path d="M178.311 44.0137C178.309 44.4125 178.189 44.8019 177.966 45.1324C177.743 45.4629 177.426 45.7196 177.057 45.87C176.688 46.0204 176.282 46.0577 175.891 45.9771C175.501 45.8966 175.143 45.7018 174.863 45.4176C174.583 45.1333 174.394 44.7724 174.32 44.3805C174.246 43.9887 174.289 43.5836 174.446 43.2167C174.602 42.8498 174.864 42.5376 175.198 42.3197C175.532 42.1017 175.923 41.9879 176.322 41.9927C176.853 41.999 177.36 42.215 177.733 42.5936C178.105 42.9721 178.313 43.4826 178.311 44.0137Z" fill="#263238"/>
<path d="M323.256 289.121C323.256 287.405 323.176 185.711 323.064 37.7902L323.256 37.9827H157.411L157.619 37.7742C157.619 132.619 157.619 220.061 157.571 289.105L157.411 288.945L323.272 289.105L157.411 289.273H157.242V289.105C157.242 220.061 157.242 132.619 157.202 37.7742V37.5657H157.427H323.272H323.465V37.7582C323.336 185.711 323.256 287.413 323.256 289.121Z" fill="#263238"/>
</svg>
