<svg width="25" height="24" viewBox="0 0 25 24" fill="none" xmlns="http://www.w3.org/2000/svg">
<path d="M6.52184 10.6385L5.42587 13.9264L8.71359 12.8304L19.1254 2.4186C19.4276 2.11637 19.4276 1.62486 19.1254 1.32264L18.0294 0.226675C17.7272 -0.0755584 17.2357 -0.0755584 16.9334 0.226675L6.52184 10.6385Z" fill="#666666"/>
<path d="M23.2517 7.74902H15.9862L9.80924 13.9264C9.63866 14.0954 9.43106 14.224 9.2032 14.2999L5.91531 15.3974C5.75424 15.4516 5.58989 15.4765 5.42552 15.4765C5.02087 15.4765 4.62416 15.3168 4.32956 15.0223C3.91418 14.6083 3.77006 13.993 3.95449 13.4364L5.05045 10.1487C5.12795 9.92086 5.25494 9.71308 5.42552 9.54265L7.21903 7.74915H1.5501C0.695994 7.74915 0 8.44514 0 9.29925V21.7C0 22.5557 0.695994 23.2501 1.5501 23.2501H23.2515C24.1071 23.2501 24.8016 22.5557 24.8016 21.7V9.29925C24.8016 8.44514 24.1071 7.74915 23.2515 7.74915L23.2517 7.74902ZM19.3764 18.5997H6.97566C6.54783 18.5997 6.20061 18.2525 6.20061 17.8247C6.20061 17.3968 6.54783 17.0496 6.97566 17.0496H19.3764C19.8043 17.0496 20.1515 17.3968 20.1515 17.8247C20.1515 18.2525 19.8043 18.5997 19.3764 18.5997ZM19.3764 13.9494H14.7262C14.2983 13.9494 13.9511 13.6022 13.9511 13.1744C13.9511 12.7465 14.2983 12.3993 14.7262 12.3993H19.3764C19.8043 12.3993 20.1515 12.745 20.1515 13.1744C20.1515 13.6038 19.8043 13.9494 19.3764 13.9494Z" fill="#666666"/>
</svg>
