<svg width="25" height="17" viewBox="0 0 25 17" fill="none" xmlns="http://www.w3.org/2000/svg">
<path d="M2.27888 1.22571e-05C1.02215 1.22571e-05 0 0.839256 0 1.87086V1.94858H12.2482V0L2.27888 1.22571e-05Z" fill="#A74A45"/>
<path d="M24.8205 1.87084C24.8205 0.838997 23.7984 0 22.5417 0H12.5729V1.94858H24.8211L24.8205 1.87084Z" fill="#A74A45"/>
<path d="M0 14.175C0 15.208 0.840177 16.048 1.87317 16.048H22.9623C23.9953 16.048 24.8355 15.2078 24.8355 14.175V2.7168H0.000123651L0 14.175ZM13.7365 6.31208H21.8327C22.0454 6.31208 22.2177 6.48412 22.2177 6.69701C22.2177 6.90965 22.0454 7.08194 21.8327 7.08194L13.7365 7.0817C13.5239 7.0817 13.3516 6.90966 13.3516 6.69677C13.3516 6.48413 13.5239 6.31208 13.7365 6.31208ZM13.7365 8.87999H21.8327C22.0454 8.87999 22.2177 9.05204 22.2177 9.26493C22.2177 9.47782 22.0454 9.64986 21.8327 9.64986H13.7365C13.5239 9.64986 13.3516 9.47782 13.3516 9.26493C13.3516 9.05204 13.5239 8.87999 13.7365 8.87999ZM13.7365 11.4482H21.8327C22.0454 11.4482 22.2177 11.6204 22.2177 11.8331C22.2177 12.046 22.0454 12.218 21.8327 12.218L13.7365 12.2178C13.5239 12.2178 13.3516 12.0457 13.3516 11.8328C13.3516 11.6202 13.5239 11.4482 13.7365 11.4482ZM2.93957 5.72781C2.93957 5.2124 3.35881 4.79342 3.8742 4.79342H10.9478C11.4633 4.79342 11.8825 5.21242 11.8825 5.72781V12.8015C11.8825 13.3169 11.4632 13.7363 10.9478 13.7363H3.8742C3.35879 13.7363 2.93957 13.3169 2.93957 12.8015V5.72781Z" fill="#A74A45"/>
</svg>
