<svg width="19" height="23" viewBox="0 0 19 23" fill="none" xmlns="http://www.w3.org/2000/svg">
<path d="M11.1648 8.58679C11.1648 9.74253 10.228 10.6794 9.07211 10.6794C7.91638 10.6794 6.97946 9.74248 6.97946 8.58679C6.97946 7.4311 7.91642 6.49414 9.07211 6.49414C10.228 6.49414 11.1648 7.4311 11.1648 8.58679Z" fill="#666666"/>
<path d="M10.648 8.58869C10.6378 9.23979 10.2451 9.83918 9.62495 10.0664C8.99456 10.2989 8.27641 10.1027 7.84749 9.58078C6.94315 8.47496 7.95599 6.77501 9.35626 7.03849C10.1107 7.17816 10.6378 7.83428 10.648 8.58869C10.6583 9.25529 11.6919 9.25534 11.6814 8.58873C11.6607 7.48817 10.9942 6.52704 9.96068 6.13941C8.96337 5.76744 7.77502 6.08264 7.09291 6.89381C6.38501 7.73615 6.26104 8.95025 6.81898 9.90631C7.38215 10.8726 8.50868 11.3479 9.59378 11.1414C10.8081 10.9139 11.6555 9.79785 11.6762 8.58878C11.6919 7.92217 10.6585 7.92217 10.6481 8.58878L10.648 8.58869Z" fill="#666666"/>
<path d="M4.70068 8.58679C4.70068 9.74253 3.76372 10.6794 2.60803 10.6794C1.45211 10.6794 0.515198 9.74248 0.515198 8.58679C0.515198 7.4311 1.45216 6.49414 2.60803 6.49414C3.76377 6.49414 4.70068 7.4311 4.70068 8.58679Z" fill="#666666"/>
<path d="M4.17841 8.58869C4.16814 9.23979 3.77545 9.83918 3.15531 10.0664C2.52492 10.2989 1.80678 10.1027 1.37786 9.58078C0.473515 8.47496 1.48635 6.77501 2.88662 7.03849C3.64103 7.17816 4.16812 7.83428 4.17841 8.58869C4.18868 9.25529 5.22222 9.25534 5.21175 8.58873C5.19102 7.48817 4.52456 6.52704 3.49104 6.13941C2.49373 5.76744 1.30538 6.08264 0.62327 6.89381C-0.0846296 7.73615 -0.208595 8.95025 0.349342 9.90631C0.912516 10.8726 2.03905 11.3479 3.12415 11.1414C4.33843 10.9139 5.18584 9.79785 5.20656 8.58878C5.22728 7.92217 4.19393 7.92217 4.17843 8.58878L4.17841 8.58869Z" fill="#666666"/>
<path d="M17.6337 8.58679C17.6337 9.74253 16.6968 10.6794 15.5411 10.6794C14.3852 10.6794 13.4484 9.74248 13.4484 8.58679C13.4484 7.4311 14.3852 6.49414 15.5411 6.49414C16.6968 6.49414 17.6337 7.4311 17.6337 8.58679Z" fill="#666666"/>
<path d="M17.117 8.58869C17.1068 9.23979 16.7141 9.83918 16.0939 10.0664C15.4635 10.2989 14.7454 10.1027 14.3165 9.58078C13.4121 8.47496 14.425 6.77501 15.8253 7.03849C16.5744 7.17816 17.1015 7.83428 17.117 8.58869C17.1273 9.25529 18.1609 9.25534 18.1504 8.58873C18.1297 7.48817 17.4632 6.52704 16.4297 6.13941C15.4324 5.76744 14.244 6.08264 13.5619 6.89381C12.854 7.73615 12.73 8.95025 13.288 9.90631C13.8511 10.8726 14.9777 11.3479 16.0628 11.1414C17.2771 10.9139 18.1245 9.79785 18.1452 8.58878C18.1607 7.92217 17.1273 7.92217 17.1171 8.58878L17.117 8.58869Z" fill="#666666"/>
<path d="M11.1648 2.60437C11.1648 3.7601 10.228 4.69702 9.07211 4.69702C7.91638 4.69702 6.97946 3.76006 6.97946 2.60437C6.97946 1.44868 7.91642 0.511719 9.07211 0.511719C10.228 0.511719 11.1648 1.44868 11.1648 2.60437Z" fill="#666666"/>
<path d="M10.648 2.60431C10.6378 3.25542 10.2451 3.85481 9.62495 4.08207C8.99456 4.31455 8.27641 4.11829 7.84749 3.5964C6.94315 2.49059 7.95599 0.790639 9.35626 1.05412C10.1107 1.19883 10.6378 1.84991 10.648 2.60431C10.6583 3.27092 11.6919 3.27096 11.6814 2.60436C11.6607 1.5038 10.9942 0.542662 9.96068 0.155033C8.96337 -0.216933 7.77502 0.0982636 7.09291 0.909437C6.38501 1.75178 6.26104 2.96587 6.81898 3.92193C7.38215 4.88824 8.50868 5.36348 9.59378 5.15697C10.8081 4.92954 11.6555 3.81347 11.6762 2.6044C11.6919 1.94301 10.6585 1.94301 10.6481 2.6044L10.648 2.60431Z" fill="#666666"/>
<path d="M4.70068 2.60437C4.70068 3.7601 3.76372 4.69702 2.60803 4.69702C1.45211 4.69702 0.515198 3.76006 0.515198 2.60437C0.515198 1.44868 1.45216 0.511719 2.60803 0.511719C3.76377 0.511719 4.70068 1.44868 4.70068 2.60437Z" fill="#666666"/>
<path d="M4.17841 2.60431C4.16814 3.25542 3.77545 3.85481 3.15531 4.08207C2.52492 4.31455 1.80678 4.11829 1.37786 3.5964C0.473515 2.49059 1.48635 0.790639 2.88662 1.05412C3.64103 1.19883 4.16812 1.84991 4.17841 2.60431C4.18868 3.27092 5.22222 3.27096 5.21175 2.60436C5.19102 1.5038 4.52456 0.542662 3.49104 0.155033C2.49373 -0.216933 1.30538 0.0982636 0.62327 0.909437C-0.0846296 1.75178 -0.208595 2.96587 0.349342 3.92193C0.912516 4.88824 2.03905 5.36348 3.12415 5.15697C4.33843 4.92954 5.18584 3.81347 5.20656 2.6044C5.22728 1.94301 4.19393 1.94301 4.17843 2.6044L4.17841 2.60431Z" fill="#666666"/>
<path d="M17.6337 2.60437C17.6337 3.7601 16.6968 4.69702 15.5411 4.69702C14.3852 4.69702 13.4484 3.76006 13.4484 2.60437C13.4484 1.44868 14.3852 0.511719 15.5411 0.511719C16.6968 0.511719 17.6337 1.44868 17.6337 2.60437Z" fill="#666666"/>
<path d="M17.117 2.60431C17.1068 3.25542 16.7141 3.85481 16.0939 4.08207C15.4635 4.31455 14.7454 4.11829 14.3165 3.5964C13.4121 2.49059 14.425 0.790639 15.8253 1.05412C16.5744 1.19883 17.1015 1.84991 17.117 2.60431C17.1273 3.27092 18.1609 3.27096 18.1504 2.60436C18.1297 1.5038 17.4632 0.542662 16.4297 0.155033C15.4324 -0.216933 14.244 0.0982636 13.5619 0.909437C12.854 1.75178 12.73 2.96587 13.288 3.92193C13.8511 4.88824 14.9777 5.36348 16.0628 5.15697C17.2771 4.92954 18.1245 3.81347 18.1452 2.6044C18.1607 1.94301 17.1273 1.94301 17.1171 2.6044L17.117 2.60431Z" fill="#666666"/>
<path d="M11.1648 14.5712C11.1648 15.7269 10.228 16.6638 9.07211 16.6638C7.91638 16.6638 6.97946 15.7269 6.97946 14.5712C6.97946 13.4154 7.91642 12.4785 9.07211 12.4785C10.228 12.4785 11.1648 13.4155 11.1648 14.5712Z" fill="#666666"/>
<path d="M10.648 14.5711C10.6378 15.2222 10.2451 15.8216 9.62495 16.0489C8.99456 16.2813 8.27641 16.0851 7.84749 15.5632C6.94315 14.4574 7.95599 12.7574 9.35626 13.0209C10.1107 13.1606 10.6378 13.8115 10.648 14.5712C10.6583 15.2378 11.6919 15.2378 11.6814 14.5712C11.6607 13.4706 10.9942 12.5095 9.96068 12.1218C8.96337 11.7499 7.77502 12.0651 7.09291 12.8762C6.38501 13.7186 6.26104 14.9327 6.81898 15.8887C7.38215 16.855 8.50868 17.3303 9.59378 17.1238C10.8081 16.8963 11.6555 15.7803 11.6762 14.5712C11.6919 13.9046 10.6585 13.9046 10.6481 14.5712L10.648 14.5711Z" fill="#666666"/>
<path d="M4.70068 14.5712C4.70068 15.7269 3.76372 16.6638 2.60803 16.6638C1.45211 16.6638 0.515198 15.7269 0.515198 14.5712C0.515198 13.4154 1.45216 12.4785 2.60803 12.4785C3.76377 12.4785 4.70068 13.4155 4.70068 14.5712Z" fill="#666666"/>
<path d="M4.17841 14.5711C4.16814 15.2222 3.77545 15.8216 3.15531 16.0489C2.52492 16.2813 1.80678 16.0851 1.37786 15.5632C0.473515 14.4574 1.48635 12.7574 2.88662 13.0209C3.64103 13.1606 4.16812 13.8115 4.17841 14.5712C4.18868 15.2378 5.22222 15.2378 5.21175 14.5712C5.19102 13.4706 4.52456 12.5095 3.49104 12.1218C2.49373 11.7499 1.30538 12.0651 0.62327 12.8762C-0.0846296 13.7186 -0.208595 14.9327 0.349342 15.8887C0.912516 16.855 2.03905 17.3303 3.12415 17.1238C4.33843 16.8963 5.18584 15.7803 5.20656 14.5712C5.22728 13.9046 4.19393 13.9046 4.17843 14.5712L4.17841 14.5711Z" fill="#666666"/>
<path d="M17.6337 14.5712C17.6337 15.7269 16.6968 16.6638 15.5411 16.6638C14.3852 16.6638 13.4484 15.7269 13.4484 14.5712C13.4484 13.4154 14.3852 12.4785 15.5411 12.4785C16.6968 12.4785 17.6337 13.4155 17.6337 14.5712Z" fill="#666666"/>
<path d="M17.117 14.5711C17.1068 15.2222 16.7141 15.8216 16.0939 16.0489C15.4635 16.2813 14.7454 16.0851 14.3165 15.5632C13.4121 14.4574 14.425 12.7574 15.8253 13.0209C16.5744 13.1606 17.1015 13.8115 17.117 14.5712C17.1273 15.2378 18.1609 15.2378 18.1504 14.5712C18.1297 13.4706 17.4632 12.5095 16.4297 12.1218C15.4324 11.7499 14.244 12.0651 13.5619 12.8762C12.854 13.7186 12.73 14.9327 13.288 15.8887C13.8511 16.855 14.9777 17.3303 16.0628 17.1238C17.2771 16.8963 18.1245 15.7803 18.1452 14.5712C18.1607 13.9046 17.1273 13.9046 17.1171 14.5712L17.117 14.5711Z" fill="#666666"/>
<path d="M11.1648 20.3993C11.1648 21.555 10.228 22.4919 9.07211 22.4919C7.91638 22.4919 6.97946 21.555 6.97946 20.3993C6.97946 19.2436 7.91642 18.3066 9.07211 18.3066C10.228 18.3066 11.1648 19.2436 11.1648 20.3993Z" fill="#666666"/>
<path d="M10.648 20.3992C10.6378 21.0503 10.2451 21.6497 9.62495 21.877C8.99456 22.1095 8.27641 21.9132 7.84749 21.3913C6.94315 20.2855 7.95599 18.5856 9.35626 18.849C10.1107 18.9938 10.6378 19.6449 10.648 20.3993C10.6583 21.0659 11.6919 21.0659 11.6814 20.3993C11.6607 19.2987 10.9942 18.3376 9.96068 17.95C8.96337 17.578 7.77502 17.8932 7.09291 18.7044C6.38501 19.5467 6.26104 20.7608 6.81898 21.7169C7.38215 22.6832 8.50868 23.1584 9.59378 22.9519C10.8081 22.7245 11.6555 21.6084 11.6762 20.3993C11.6919 19.7379 10.6585 19.7379 10.6481 20.3993L10.648 20.3992Z" fill="#666666"/>
</svg>
