<svg width="363" height="267" viewBox="0 0 363 267" fill="none" xmlns="http://www.w3.org/2000/svg">
<path d="M359.748 250.387C359.748 250.462 283.158 250.526 188.709 250.526C94.2596 250.526 17.6482 250.446 17.6482 250.387C17.6482 250.329 94.222 250.248 188.709 250.248C283.196 250.248 359.748 250.312 359.748 250.387Z" fill="#263238"/>
<path d="M353.848 67.7646H231.879V223.34H353.848V67.7646Z" fill="white"/>
<path d="M353.848 223.335C353.848 222.24 353.794 160.099 353.719 67.7646L353.848 67.8874H231.885L232.024 67.7486C232.024 125.458 232.024 179.04 232.024 223.319L231.906 223.207L353.87 223.319L231.906 223.436H231.793V223.319C231.793 179.04 231.793 125.458 231.766 67.7486V67.6097H231.922H353.886H354.009V67.7379C353.896 160.099 353.848 222.24 353.848 223.335Z" fill="#263238"/>
<path d="M341.26 127.119H244.844C244.414 127.119 244.065 127.465 244.065 127.893V143.165C244.065 143.593 244.414 143.94 244.844 143.94H341.26C341.69 143.94 342.039 143.593 342.039 143.165V127.893C342.039 127.465 341.69 127.119 341.26 127.119Z" fill="#EBEBEB"/>
<path d="M341.356 150.219H244.941C244.51 150.219 244.161 150.566 244.161 150.994V166.266C244.161 166.694 244.51 167.04 244.941 167.04H341.356C341.787 167.04 342.135 166.694 342.135 166.266V150.994C342.135 150.566 341.787 150.219 341.356 150.219Z" fill="#EBEBEB"/>
<path d="M254.784 134.568C254.784 135.412 254.166 135.924 253.172 135.924H252.205V137.099H251.667V133.212H253.193C254.15 133.201 254.784 133.714 254.784 134.568ZM254.246 134.568C254.246 134.034 253.87 133.692 253.172 133.692H252.221V135.438H253.172C253.833 135.428 254.209 135.102 254.209 134.568H254.246Z" fill="#263238"/>
<path d="M257.83 135.31V137.088H257.32V136.704C257.207 136.851 257.059 136.967 256.889 137.042C256.719 137.117 256.532 137.147 256.347 137.131C255.676 137.131 255.273 136.773 255.273 136.261C255.273 135.748 255.579 135.401 256.465 135.401H257.314V135.294C257.314 134.846 257.051 134.584 256.519 134.584C256.179 134.581 255.848 134.692 255.579 134.899L255.359 134.499C255.713 134.244 256.141 134.113 256.578 134.125C257.368 134.119 257.83 134.504 257.83 135.31ZM257.293 136.191V135.78H256.465C255.928 135.78 255.783 135.983 255.783 136.234C255.783 136.485 256.03 136.709 256.438 136.709C256.62 136.72 256.8 136.674 256.953 136.577C257.107 136.48 257.225 136.338 257.293 136.17V136.191Z" fill="#263238"/>
<path d="M258.448 136.779L258.668 136.357C258.979 136.556 259.341 136.661 259.711 136.661C260.21 136.661 260.414 136.512 260.414 136.261C260.414 135.599 258.545 136.175 258.545 135.001C258.545 134.467 259.017 134.119 259.78 134.119C260.156 134.112 260.527 134.204 260.855 134.386L260.629 134.808C260.373 134.646 260.073 134.565 259.77 134.573C259.302 134.573 259.071 134.744 259.071 134.979C259.071 135.673 260.952 135.107 260.952 136.25C260.952 136.784 260.463 137.126 259.673 137.126C259.239 137.136 258.812 137.015 258.448 136.779Z" fill="#263238"/>
<path d="M261.231 136.779L261.457 136.357C261.765 136.556 262.126 136.662 262.494 136.661C262.993 136.661 263.197 136.512 263.197 136.261C263.197 135.599 261.328 136.175 261.328 135C261.328 134.466 261.801 134.119 262.563 134.119C262.939 134.114 263.309 134.206 263.638 134.386L263.407 134.808C263.152 134.647 262.855 134.565 262.553 134.573C262.08 134.573 261.849 134.744 261.849 134.979C261.849 135.673 263.729 135.107 263.729 136.25C263.729 136.784 263.24 137.126 262.451 137.126C262.018 137.135 261.593 137.014 261.231 136.779Z" fill="#263238"/>
<path d="M268.85 134.146L267.743 137.088H267.206L266.351 134.856L265.529 137.088H264.992L263.917 134.146H264.428L265.288 136.49L266.179 134.146H266.604L267.48 136.501L268.361 134.146H268.85Z" fill="#263238"/>
<path d="M269.032 135.636C269.027 135.332 269.113 135.033 269.279 134.777C269.445 134.522 269.684 134.321 269.965 134.201C270.247 134.081 270.558 134.047 270.858 134.103C271.159 134.159 271.437 134.303 271.655 134.516C271.873 134.729 272.023 135.002 272.084 135.3C272.146 135.598 272.117 135.908 272.001 136.189C271.886 136.471 271.688 136.712 271.434 136.882C271.18 137.051 270.881 137.142 270.574 137.142C270.372 137.151 270.169 137.119 269.979 137.047C269.79 136.976 269.617 136.865 269.472 136.724C269.327 136.583 269.213 136.413 269.138 136.226C269.062 136.038 269.026 135.838 269.032 135.636ZM271.568 135.636C271.56 135.441 271.494 135.253 271.379 135.096C271.264 134.938 271.105 134.817 270.921 134.749C270.738 134.68 270.538 134.667 270.347 134.71C270.156 134.754 269.982 134.852 269.847 134.993C269.711 135.134 269.621 135.312 269.586 135.503C269.552 135.695 269.575 135.893 269.652 136.072C269.73 136.251 269.858 136.403 270.022 136.51C270.186 136.616 270.378 136.673 270.574 136.672C270.71 136.675 270.845 136.65 270.97 136.599C271.095 136.547 271.209 136.47 271.302 136.373C271.396 136.275 271.468 136.159 271.514 136.032C271.56 135.905 271.578 135.77 271.568 135.636Z" fill="#263238"/>
<path d="M274.448 134.119V134.653H274.325C274.194 134.645 274.063 134.666 273.941 134.714C273.819 134.762 273.709 134.837 273.619 134.933C273.53 135.028 273.463 135.142 273.423 135.267C273.384 135.391 273.372 135.523 273.39 135.652V137.115H272.853V134.173H273.39V134.664C273.498 134.485 273.654 134.339 273.841 134.242C274.028 134.146 274.239 134.104 274.448 134.119Z" fill="#263238"/>
<path d="M277.887 132.966V137.089H277.35V136.624C277.225 136.788 277.062 136.92 276.875 137.008C276.688 137.095 276.482 137.136 276.275 137.126C275.889 137.103 275.527 136.935 275.262 136.655C274.998 136.376 274.85 136.007 274.85 135.623C274.85 135.239 274.998 134.869 275.262 134.59C275.527 134.311 275.889 134.142 276.275 134.12C276.477 134.103 276.68 134.136 276.867 134.214C277.054 134.292 277.22 134.413 277.35 134.568V132.966H277.887ZM277.35 135.636C277.341 135.442 277.275 135.254 277.161 135.096C277.046 134.939 276.887 134.818 276.704 134.749C276.521 134.681 276.321 134.667 276.13 134.71C275.939 134.753 275.765 134.851 275.63 134.991C275.494 135.132 275.403 135.309 275.368 135.5C275.333 135.692 275.355 135.889 275.432 136.068C275.508 136.247 275.636 136.4 275.8 136.507C275.963 136.615 276.154 136.672 276.35 136.672C276.486 136.675 276.621 136.65 276.747 136.599C276.872 136.547 276.986 136.471 277.08 136.373C277.174 136.276 277.246 136.16 277.293 136.033C277.339 135.906 277.359 135.771 277.35 135.636Z" fill="#263238"/>
<path d="M251.291 159.335C251.287 159.066 251.339 158.8 251.442 158.552C251.546 158.304 251.7 158.079 251.894 157.893C252.089 157.706 252.319 157.561 252.572 157.466C252.825 157.372 253.095 157.33 253.365 157.343C253.642 157.332 253.918 157.381 254.174 157.486C254.429 157.592 254.66 157.75 254.848 157.952L254.488 158.299C254.348 158.149 254.177 158.031 253.987 157.952C253.797 157.873 253.592 157.834 253.387 157.84C252.988 157.84 252.605 157.997 252.323 158.278C252.041 158.558 251.882 158.938 251.882 159.335C251.882 159.731 252.041 160.112 252.323 160.392C252.605 160.673 252.988 160.83 253.387 160.83C253.593 160.835 253.799 160.795 253.989 160.714C254.179 160.633 254.349 160.512 254.488 160.36L254.848 160.713C254.659 160.915 254.428 161.074 254.171 161.179C253.914 161.284 253.637 161.332 253.36 161.321C253.091 161.334 252.822 161.291 252.57 161.197C252.318 161.102 252.088 160.958 251.894 160.772C251.701 160.586 251.547 160.362 251.444 160.115C251.34 159.868 251.288 159.603 251.291 159.335Z" fill="#263238"/>
<path d="M255.17 159.805C255.165 159.501 255.251 159.202 255.417 158.947C255.583 158.691 255.821 158.491 256.102 158.371C256.383 158.25 256.694 158.216 256.995 158.272C257.295 158.327 257.572 158.47 257.791 158.683C258.01 158.896 258.16 159.168 258.222 159.466C258.284 159.764 258.256 160.073 258.141 160.355C258.026 160.636 257.829 160.878 257.576 161.048C257.322 161.218 257.024 161.31 256.718 161.311C256.515 161.32 256.312 161.288 256.122 161.216C255.932 161.145 255.759 161.035 255.614 160.893C255.469 160.752 255.354 160.582 255.278 160.395C255.202 160.208 255.165 160.007 255.17 159.805ZM257.712 159.805C257.712 159.541 257.607 159.289 257.419 159.103C257.232 158.916 256.977 158.812 256.712 158.812C256.447 158.812 256.193 158.916 256.006 159.103C255.818 159.289 255.713 159.541 255.713 159.805C255.713 160.068 255.818 160.321 256.006 160.507C256.193 160.693 256.447 160.798 256.712 160.798C256.977 160.798 257.232 160.693 257.419 160.507C257.607 160.321 257.712 160.068 257.712 159.805Z" fill="#263238"/>
<path d="M261.806 159.586V161.268H261.269V159.666C261.269 159.089 260.978 158.806 260.473 158.806C260.344 158.796 260.213 158.814 260.091 158.86C259.969 158.906 259.859 158.979 259.769 159.072C259.679 159.166 259.611 159.278 259.57 159.401C259.529 159.524 259.517 159.655 259.533 159.783V161.268H258.996V158.326H259.533V158.769C259.66 158.609 259.825 158.483 260.012 158.4C260.199 158.317 260.403 158.281 260.608 158.294C260.776 158.285 260.945 158.313 261.101 158.377C261.257 158.44 261.397 158.537 261.512 158.66C261.626 158.784 261.712 158.931 261.763 159.091C261.813 159.25 261.828 159.42 261.806 159.586Z" fill="#263238"/>
<path d="M263.858 157.124C264.072 157.114 264.284 157.174 264.46 157.295L264.299 157.701C264.18 157.611 264.035 157.562 263.885 157.562C263.568 157.562 263.407 157.738 263.407 158.096V158.352H264.267V158.79H263.418V161.268H262.88V158.763H262.375V158.326H262.88V158.064C262.871 157.935 262.89 157.806 262.937 157.686C262.983 157.565 263.055 157.457 263.148 157.367C263.242 157.277 263.354 157.209 263.476 157.167C263.599 157.125 263.729 157.11 263.858 157.124ZM265.126 157.423C265.126 157.376 265.136 157.329 265.154 157.286C265.173 157.242 265.2 157.203 265.234 157.17C265.268 157.137 265.308 157.111 265.353 157.094C265.397 157.077 265.444 157.069 265.492 157.071C265.56 157.074 265.625 157.097 265.681 157.136C265.736 157.176 265.778 157.231 265.802 157.294C265.826 157.358 265.831 157.427 265.816 157.493C265.802 157.559 265.768 157.619 265.719 157.667C265.67 157.714 265.608 157.746 265.541 157.758C265.474 157.771 265.405 157.764 265.342 157.738C265.279 157.712 265.225 157.669 265.187 157.613C265.148 157.557 265.127 157.491 265.126 157.423ZM265.223 158.336H265.76V161.268H265.223V158.336Z" fill="#263238"/>
<path d="M268.372 158.304V158.838H268.248C268.118 158.83 267.987 158.851 267.866 158.899C267.744 158.946 267.635 159.021 267.546 159.116C267.457 159.211 267.391 159.324 267.351 159.448C267.312 159.572 267.301 159.703 267.318 159.832V161.268H266.781V158.326H267.292V158.817C267.406 158.64 267.568 158.499 267.758 158.408C267.949 158.318 268.161 158.282 268.372 158.304Z" fill="#263238"/>
<path d="M273.954 159.586V161.268H273.417V159.666C273.417 159.089 273.137 158.806 272.648 158.806C272.159 158.806 271.762 159.143 271.762 159.783V161.268H271.225V159.666C271.225 159.089 270.945 158.806 270.456 158.806C269.967 158.806 269.57 159.143 269.57 159.783V161.268H269.032V158.326H269.57V158.764C269.687 158.607 269.842 158.483 270.021 158.401C270.199 158.319 270.395 158.282 270.591 158.294C270.795 158.276 271 158.317 271.182 158.411C271.364 158.506 271.515 158.65 271.617 158.828C271.749 158.652 271.923 158.512 272.122 158.419C272.322 158.326 272.541 158.283 272.761 158.294C272.93 158.284 273.098 158.312 273.255 158.375C273.411 158.438 273.552 158.535 273.666 158.659C273.78 158.782 273.865 158.93 273.915 159.09C273.965 159.25 273.978 159.42 273.954 159.586Z" fill="#263238"/>
<path d="M279.681 158.748C279.681 159.591 279.064 160.099 278.07 160.099H277.102V161.268H276.565V157.38H278.091C279.064 157.391 279.681 157.898 279.681 158.748ZM279.117 158.748C279.117 158.214 278.746 157.872 278.043 157.872H277.081V159.618H278.032C278.747 159.618 279.117 159.303 279.117 158.748Z" fill="#263238"/>
<path d="M282.722 159.5V161.268H282.217V160.878C282.104 161.024 281.955 161.139 281.785 161.212C281.615 161.286 281.43 161.316 281.245 161.3C280.573 161.3 280.17 160.948 280.17 160.435C280.17 159.922 280.477 159.575 281.358 159.575H282.185V159.468C282.185 159.02 281.927 158.758 281.395 158.758C281.055 158.755 280.724 158.866 280.455 159.073L280.229 158.673C280.584 158.415 281.015 158.282 281.454 158.294C282.282 158.304 282.722 158.694 282.722 159.5ZM282.185 160.376V159.965H281.358C280.82 159.965 280.681 160.173 280.681 160.424C280.681 160.675 280.922 160.9 281.331 160.9C281.511 160.914 281.69 160.871 281.844 160.777C281.998 160.683 282.117 160.542 282.185 160.376Z" fill="#263238"/>
<path d="M283.362 160.969L283.582 160.547C283.893 160.746 284.255 160.852 284.624 160.852C285.119 160.852 285.328 160.702 285.328 160.451C285.328 159.789 283.453 160.36 283.453 159.191C283.453 158.657 283.931 158.304 284.689 158.304C285.064 158.298 285.435 158.391 285.763 158.571L285.532 158.993C285.276 158.836 284.979 158.756 284.678 158.764C284.211 158.764 283.98 158.934 283.98 159.169C283.98 159.864 285.86 159.298 285.86 160.44C285.86 160.974 285.366 161.311 284.576 161.311C284.146 161.32 283.723 161.201 283.362 160.969Z" fill="#263238"/>
<path d="M286.161 160.969L286.381 160.547C286.692 160.746 287.054 160.852 287.424 160.852C287.918 160.852 288.127 160.702 288.127 160.451C288.127 159.789 286.252 160.36 286.252 159.191C286.252 158.657 286.731 158.304 287.488 158.304C287.864 158.298 288.234 158.391 288.563 158.571L288.332 158.993C288.075 158.836 287.779 158.756 287.477 158.764C287.01 158.764 286.779 158.934 286.779 159.169C286.779 159.864 288.659 159.298 288.659 160.44C288.659 160.974 288.165 161.311 287.375 161.311C286.945 161.32 286.522 161.201 286.161 160.969Z" fill="#263238"/>
<path d="M293.764 158.336L292.657 161.268H292.12L291.265 159.036L290.416 161.268H289.879L288.804 158.326H289.31L290.175 160.67L291.066 158.326H291.518L292.399 160.681L293.28 158.326L293.764 158.336Z" fill="#263238"/>
<path d="M293.946 159.805C293.941 159.501 294.027 159.202 294.193 158.946C294.359 158.691 294.598 158.49 294.879 158.37C295.161 158.25 295.471 158.216 295.772 158.272C296.073 158.328 296.35 158.472 296.569 158.685C296.787 158.898 296.937 159.171 296.998 159.469C297.06 159.767 297.031 160.077 296.915 160.358C296.799 160.64 296.602 160.881 296.348 161.051C296.094 161.22 295.794 161.311 295.488 161.311C295.285 161.32 295.083 161.288 294.893 161.216C294.703 161.144 294.531 161.034 294.386 160.893C294.241 160.752 294.127 160.582 294.052 160.395C293.976 160.207 293.94 160.007 293.946 159.805ZM296.482 159.805C296.482 159.541 296.377 159.289 296.19 159.103C296.002 158.916 295.748 158.812 295.483 158.812C295.218 158.812 294.964 158.916 294.776 159.103C294.589 159.289 294.484 159.541 294.484 159.805C294.484 160.068 294.589 160.321 294.776 160.507C294.964 160.693 295.218 160.798 295.483 160.798C295.748 160.798 296.002 160.693 296.19 160.507C296.377 160.321 296.482 160.068 296.482 159.805Z" fill="#263238"/>
<path d="M299.378 158.304V158.838H299.255C299.124 158.829 298.993 158.849 298.871 158.897C298.749 158.944 298.639 159.018 298.549 159.114C298.46 159.209 298.393 159.323 298.353 159.447C298.313 159.571 298.302 159.702 298.32 159.831V161.268H297.783V158.326H298.32V158.817C298.432 158.643 298.59 158.504 298.777 158.413C298.963 158.323 299.171 158.285 299.378 158.304Z" fill="#263238"/>
<path d="M302.785 157.156V161.268H302.247V160.803C302.124 160.968 301.961 161.1 301.773 161.187C301.586 161.274 301.379 161.312 301.173 161.3C300.787 161.277 300.425 161.109 300.16 160.83C299.895 160.55 299.748 160.181 299.748 159.797C299.748 159.413 299.895 159.044 300.16 158.764C300.425 158.485 300.787 158.317 301.173 158.294C301.37 158.285 301.567 158.324 301.747 158.407C301.926 158.49 302.083 158.614 302.204 158.769V157.167L302.785 157.156ZM302.247 159.826C302.238 159.632 302.171 159.445 302.055 159.288C301.94 159.131 301.78 159.011 301.597 158.943C301.413 158.875 301.214 158.863 301.023 158.907C300.832 158.951 300.659 159.05 300.524 159.191C300.389 159.332 300.299 159.509 300.265 159.701C300.231 159.892 300.254 160.09 300.332 160.268C300.409 160.447 300.538 160.599 300.702 160.706C300.866 160.812 301.058 160.868 301.253 160.868C301.392 160.872 301.53 160.847 301.658 160.794C301.786 160.742 301.901 160.662 301.996 160.562C302.09 160.461 302.162 160.341 302.206 160.211C302.251 160.08 302.267 159.942 302.253 159.805L302.247 159.826Z" fill="#263238"/>
<path d="M340.781 176.268H244.371C243.941 176.268 243.592 176.615 243.592 177.042V192.315C243.592 192.742 243.941 193.089 244.371 193.089H340.781C341.212 193.089 341.56 192.742 341.56 192.315V177.042C341.56 176.615 341.212 176.268 340.781 176.268Z" fill="#FF725E"/>
<path d="M280.46 184.807C280.458 184.531 280.514 184.258 280.622 184.004C280.731 183.751 280.891 183.522 281.093 183.333C281.295 183.143 281.533 182.997 281.794 182.903C282.055 182.81 282.333 182.771 282.61 182.788C282.928 182.773 283.245 182.831 283.537 182.958C283.829 183.085 284.087 183.277 284.291 183.52L283.587 184.155C283.48 184.012 283.341 183.896 283.18 183.817C283.02 183.737 282.843 183.696 282.663 183.696C282.38 183.716 282.114 183.841 281.92 184.048C281.726 184.255 281.618 184.527 281.618 184.809C281.618 185.092 281.726 185.364 281.92 185.571C282.114 185.777 282.38 185.903 282.663 185.923C282.843 185.922 283.019 185.88 283.179 185.8C283.34 185.721 283.479 185.605 283.587 185.464L284.291 186.099C284.086 186.341 283.828 186.532 283.536 186.659C283.245 186.786 282.928 186.845 282.61 186.831C282.332 186.848 282.054 186.809 281.793 186.715C281.532 186.621 281.293 186.474 281.091 186.284C280.889 186.094 280.729 185.865 280.621 185.611C280.512 185.357 280.458 185.083 280.46 184.807Z" fill="white"/>
<path d="M287.961 185.031V186.756H286.886V185.202C286.886 184.769 286.693 184.588 286.387 184.588C286.08 184.588 285.785 184.796 285.785 185.298V186.756H284.71V182.628H285.785V184.022C286.033 183.799 286.359 183.68 286.693 183.691C286.87 183.677 287.048 183.703 287.214 183.767C287.379 183.83 287.528 183.93 287.65 184.059C287.772 184.188 287.863 184.342 287.917 184.51C287.97 184.678 287.986 184.856 287.961 185.031Z" fill="white"/>
<path d="M291.469 185.079V186.756H290.481V186.366C290.389 186.517 290.256 186.638 290.097 186.716C289.938 186.794 289.76 186.824 289.584 186.804C288.858 186.804 288.455 186.398 288.455 185.875C288.455 185.351 288.864 184.978 289.804 184.978H290.406C290.406 184.668 290.18 184.497 289.761 184.497C289.466 184.498 289.179 184.589 288.939 184.759L288.584 184.043C288.988 183.804 289.452 183.682 289.922 183.691C290.905 183.696 291.469 184.123 291.469 185.079ZM290.395 185.789V185.528H289.938C289.594 185.528 289.471 185.645 289.471 185.832C289.471 186.019 289.621 186.136 289.868 186.136C289.983 186.144 290.098 186.114 290.195 186.051C290.291 185.989 290.365 185.897 290.406 185.789H290.395Z" fill="white"/>
<path d="M295.365 185.031V186.756H294.29V185.202C294.29 184.769 294.102 184.588 293.796 184.588C293.49 184.588 293.189 184.796 293.189 185.298V186.756H292.114V183.744H293.124V184.07C293.25 183.945 293.4 183.846 293.566 183.781C293.731 183.716 293.908 183.685 294.086 183.691C294.264 183.675 294.443 183.7 294.61 183.763C294.777 183.826 294.928 183.925 295.051 184.054C295.173 184.183 295.266 184.338 295.32 184.507C295.374 184.676 295.39 184.855 295.365 185.031Z" fill="white"/>
<path d="M299.335 183.744V186.206C299.335 187.343 298.685 187.883 297.557 187.883C297.027 187.901 296.504 187.764 296.052 187.487L296.439 186.751C296.738 186.959 297.095 187.071 297.46 187.071C298.03 187.071 298.271 186.815 298.271 186.345V186.243C298.158 186.365 298.018 186.459 297.863 186.52C297.708 186.581 297.541 186.607 297.374 186.596C296.987 186.596 296.615 186.443 296.341 186.17C296.067 185.898 295.913 185.528 295.913 185.143C295.913 184.758 296.067 184.389 296.341 184.116C296.615 183.844 296.987 183.691 297.374 183.691C297.555 183.677 297.736 183.709 297.902 183.781C298.068 183.854 298.213 183.966 298.325 184.107V183.744H299.335ZM298.261 185.143C298.269 185.012 298.238 184.881 298.171 184.767C298.104 184.654 298.004 184.563 297.884 184.507C297.764 184.45 297.63 184.431 297.499 184.452C297.368 184.472 297.247 184.531 297.15 184.621C297.053 184.711 296.986 184.827 296.957 184.956C296.927 185.084 296.938 185.218 296.986 185.341C297.035 185.463 297.119 185.569 297.229 185.643C297.338 185.717 297.467 185.757 297.6 185.757C297.688 185.771 297.778 185.764 297.864 185.74C297.949 185.715 298.028 185.671 298.095 185.613C298.162 185.554 298.216 185.482 298.252 185.401C298.288 185.32 298.305 185.232 298.304 185.143H298.261Z" fill="white"/>
<path d="M303.096 185.517H300.893C300.943 185.67 301.045 185.802 301.181 185.889C301.317 185.977 301.479 186.015 301.64 185.998C301.899 186.005 302.149 185.911 302.339 185.736L302.876 186.313C302.71 186.485 302.508 186.619 302.284 186.704C302.06 186.789 301.82 186.823 301.581 186.804C300.506 186.804 299.803 186.142 299.803 185.239C299.804 185.027 299.848 184.816 299.934 184.622C300.02 184.427 300.145 184.251 300.302 184.106C300.458 183.961 300.643 183.849 300.844 183.778C301.046 183.707 301.26 183.677 301.474 183.691C301.686 183.677 301.898 183.708 302.097 183.781C302.297 183.854 302.478 183.969 302.63 184.116C302.782 184.264 302.901 184.441 302.98 184.638C303.058 184.834 303.094 185.044 303.085 185.255C303.139 185.33 303.102 185.432 303.096 185.517ZM300.877 184.956H302.118C302.095 184.81 302.019 184.676 301.905 184.58C301.792 184.484 301.647 184.431 301.498 184.431C301.348 184.431 301.204 184.484 301.09 184.58C300.977 184.676 300.901 184.81 300.877 184.956Z" fill="white"/>
<path d="M283.464 103.265H282.567V104.797H280.923V99.0249H283.577C285.162 99.0249 286.161 99.8419 286.161 101.161C286.175 101.543 286.075 101.92 285.872 102.244C285.669 102.569 285.373 102.826 285.022 102.982L286.274 104.797H284.517L283.464 103.265ZM283.464 100.312H282.55V101.994H283.464C284.141 101.994 284.485 101.684 284.485 101.156C284.485 100.627 284.157 100.312 283.48 100.312H283.464Z" fill="#263238"/>
<path d="M291.561 102.961H288.294C288.364 103.184 288.509 103.376 288.704 103.506C288.9 103.637 289.134 103.696 289.369 103.676C289.559 103.683 289.749 103.652 289.927 103.585C290.105 103.518 290.268 103.417 290.406 103.286L291.233 104.146C290.987 104.399 290.688 104.595 290.358 104.72C290.027 104.846 289.673 104.898 289.32 104.872C287.708 104.872 286.682 103.89 286.682 102.555C286.682 102.239 286.747 101.927 286.874 101.638C287 101.348 287.185 101.087 287.416 100.872C287.648 100.656 287.922 100.49 288.22 100.383C288.519 100.277 288.837 100.233 289.154 100.253C289.469 100.232 289.785 100.277 290.082 100.385C290.378 100.493 290.649 100.662 290.876 100.88C291.103 101.098 291.281 101.362 291.399 101.653C291.517 101.944 291.572 102.257 291.561 102.571C291.588 102.688 291.571 102.832 291.561 102.961ZM288.267 102.133H290.11C290.073 101.917 289.96 101.721 289.791 101.579C289.623 101.438 289.409 101.361 289.189 101.361C288.968 101.361 288.755 101.438 288.586 101.579C288.417 101.721 288.304 101.917 288.267 102.133Z" fill="#263238"/>
<path d="M291.958 104.408L292.431 103.34C292.91 103.607 293.45 103.749 294 103.751C294.537 103.751 294.704 103.633 294.704 103.446C294.704 102.843 292.05 103.527 292.05 101.738C292.05 100.899 292.829 100.253 294.242 100.253C294.854 100.242 295.461 100.371 296.015 100.632L295.542 101.7C295.146 101.483 294.7 101.371 294.247 101.375C293.71 101.375 293.527 101.519 293.527 101.684C293.527 102.304 296.176 101.636 296.176 103.409C296.176 104.231 295.413 104.878 293.952 104.878C293.258 104.89 292.573 104.728 291.958 104.408Z" fill="#263238"/>
<path d="M301.425 102.961H298.159C298.23 103.183 298.375 103.375 298.57 103.505C298.765 103.635 298.999 103.695 299.233 103.676C299.423 103.683 299.613 103.652 299.791 103.585C299.969 103.518 300.132 103.417 300.27 103.286L301.103 104.146C300.856 104.399 300.556 104.594 300.225 104.72C299.893 104.845 299.538 104.897 299.185 104.872C297.573 104.872 296.547 103.89 296.547 102.555C296.547 102.239 296.612 101.927 296.738 101.638C296.864 101.348 297.049 101.087 297.281 100.872C297.512 100.656 297.786 100.49 298.085 100.383C298.384 100.277 298.701 100.233 299.018 100.253C299.333 100.232 299.65 100.277 299.946 100.385C300.243 100.493 300.513 100.662 300.74 100.88C300.967 101.098 301.145 101.362 301.263 101.653C301.381 101.944 301.437 102.257 301.425 102.571C301.452 102.688 301.436 102.832 301.425 102.961ZM298.132 102.133H299.975C299.946 101.914 299.836 101.714 299.666 101.572C299.495 101.43 299.278 101.358 299.056 101.369C298.834 101.36 298.617 101.433 298.446 101.575C298.275 101.716 298.163 101.914 298.132 102.133Z" fill="#263238"/>
<path d="M305.288 104.616C304.959 104.794 304.588 104.883 304.214 104.872C303.059 104.872 302.387 104.338 302.387 103.163V101.663H301.732V100.493H302.387V99.324H303.961V100.488H304.993V101.658H303.961V103.142C303.949 103.209 303.952 103.279 303.971 103.344C303.989 103.41 304.022 103.471 304.068 103.523C304.113 103.574 304.17 103.614 304.233 103.641C304.297 103.668 304.365 103.68 304.434 103.676C304.606 103.678 304.774 103.63 304.918 103.537L305.288 104.616Z" fill="#263238"/>
<path d="M263.864 111.985V114.057H262.22V111.958L260.006 108.285H261.736L263.117 110.575L264.492 108.285H266.104L263.864 111.985Z" fill="#263238"/>
<path d="M265.647 111.814C265.647 110.469 266.722 109.513 268.183 109.513C269.645 109.513 270.725 110.469 270.725 111.814C270.725 113.16 269.65 114.132 268.183 114.132C266.717 114.132 265.647 113.165 265.647 111.814ZM269.129 111.814C269.143 111.682 269.129 111.549 269.088 111.423C269.047 111.297 268.98 111.181 268.891 111.082C268.802 110.983 268.692 110.905 268.571 110.851C268.449 110.797 268.317 110.769 268.183 110.769C268.05 110.769 267.918 110.797 267.796 110.851C267.674 110.905 267.565 110.983 267.476 111.082C267.387 111.181 267.32 111.297 267.279 111.423C267.238 111.549 267.224 111.682 267.238 111.814C267.224 111.946 267.238 112.079 267.279 112.206C267.32 112.332 267.387 112.448 267.476 112.546C267.565 112.645 267.674 112.724 267.796 112.778C267.918 112.832 268.05 112.86 268.183 112.86C268.317 112.86 268.449 112.832 268.571 112.778C268.692 112.724 268.802 112.645 268.891 112.546C268.98 112.448 269.047 112.332 269.088 112.206C269.129 112.079 269.143 111.946 269.129 111.814Z" fill="#263238"/>
<path d="M276.184 109.588V114.057H274.663V113.577C274.49 113.754 274.282 113.893 274.051 113.985C273.821 114.077 273.573 114.12 273.325 114.111C272.251 114.111 271.418 113.48 271.418 112.065V109.566H272.992V111.809C272.992 112.503 273.266 112.77 273.739 112.77C274.212 112.77 274.588 112.466 274.588 111.702V109.566L276.184 109.588Z" fill="#263238"/>
<path d="M280.208 109.513V110.922C280.09 110.907 279.972 110.898 279.853 110.896C279.705 110.881 279.555 110.899 279.416 110.95C279.276 111.001 279.149 111.082 279.046 111.189C278.942 111.295 278.864 111.424 278.818 111.564C278.772 111.705 278.758 111.854 278.779 112.001V114.057H277.204V109.587H278.704V110.121C278.891 109.912 279.123 109.748 279.384 109.643C279.645 109.537 279.927 109.493 280.208 109.513Z" fill="#263238"/>
<path d="M288.6 110.421C288.6 111.729 287.601 112.557 286.016 112.557H285.006V114.068H283.362V108.285H286.016C287.601 108.285 288.6 109.102 288.6 110.421ZM286.94 110.421C286.94 109.887 286.596 109.571 285.919 109.571H285.006V111.259H285.946C286.596 111.259 286.94 110.949 286.94 110.421Z" fill="#263238"/>
<path d="M293.495 111.574V114.057H292.028V113.48C291.892 113.704 291.694 113.885 291.458 114C291.222 114.116 290.957 114.161 290.696 114.132C289.621 114.132 289.019 113.528 289.019 112.754C289.019 111.98 289.627 111.419 291.023 111.419H291.915C291.915 110.965 291.588 110.709 290.964 110.709C290.528 110.709 290.101 110.843 289.745 111.093L289.207 110.025C289.806 109.67 290.492 109.485 291.19 109.491C292.657 109.513 293.495 110.154 293.495 111.574ZM291.915 112.642V112.252H291.238C290.733 112.252 290.551 112.434 290.551 112.706C290.551 112.978 290.766 113.16 291.136 113.16C291.308 113.169 291.478 113.121 291.619 113.023C291.76 112.925 291.864 112.784 291.915 112.621V112.642Z" fill="#263238"/>
<path d="M294.134 113.667L294.607 112.599C295.084 112.872 295.625 113.016 296.176 113.016C296.713 113.016 296.88 112.898 296.88 112.711C296.88 112.108 294.226 112.791 294.226 111.003C294.226 110.159 295.005 109.518 296.412 109.518C297.027 109.506 297.636 109.636 298.191 109.897L297.718 110.965C297.322 110.747 296.876 110.633 296.423 110.634C295.886 110.634 295.703 110.784 295.703 110.949C295.703 111.569 298.347 110.901 298.347 112.674C298.347 113.496 297.584 114.142 296.122 114.142C295.43 114.153 294.746 113.99 294.134 113.667Z" fill="#263238"/>
<path d="M298.674 113.667L299.147 112.599C299.623 112.871 300.162 113.015 300.711 113.016C301.248 113.016 301.42 112.898 301.42 112.711C301.42 112.108 298.766 112.791 298.766 111.003C298.766 110.159 299.545 109.518 300.952 109.518C301.567 109.506 302.175 109.636 302.731 109.897L302.258 110.965C301.861 110.748 301.416 110.634 300.963 110.634C300.426 110.634 300.238 110.784 300.238 110.949C300.238 111.569 302.887 110.901 302.887 112.674C302.887 113.496 302.124 114.143 300.662 114.143C299.97 114.154 299.286 113.99 298.674 113.667Z" fill="#263238"/>
<path d="M310.935 109.587L309.323 114.057H307.797L306.959 111.606L306.084 114.041H304.558L302.946 109.571H304.439L305.358 112.273L306.309 109.571H307.658L308.587 112.3L309.538 109.571L310.935 109.587Z" fill="#263238"/>
<path d="M311.01 111.814C311.01 110.469 312.085 109.513 313.552 109.513C315.019 109.513 316.088 110.469 316.088 111.814C316.088 113.16 315.013 114.132 313.552 114.132C312.09 114.132 311.01 113.165 311.01 111.814ZM314.497 111.814C314.474 111.634 314.398 111.465 314.28 111.326C314.162 111.188 314.006 111.086 313.832 111.033C313.657 110.98 313.47 110.978 313.295 111.028C313.119 111.077 312.961 111.176 312.841 111.313C312.72 111.449 312.641 111.617 312.614 111.797C312.587 111.976 312.612 112.16 312.687 112.325C312.762 112.491 312.884 112.631 313.037 112.73C313.19 112.829 313.369 112.882 313.552 112.882C313.688 112.883 313.822 112.856 313.946 112.801C314.07 112.746 314.181 112.665 314.271 112.563C314.36 112.462 314.427 112.343 314.466 112.213C314.505 112.084 314.516 111.948 314.497 111.814Z" fill="#263238"/>
<path d="M319.833 109.513V110.922C319.713 110.906 319.593 110.897 319.473 110.896C319.324 110.88 319.174 110.897 319.034 110.948C318.893 110.998 318.766 111.08 318.663 111.186C318.559 111.293 318.481 111.422 318.435 111.563C318.389 111.705 318.377 111.854 318.398 112.001V114.057H316.818V109.587H318.323V110.121C318.51 109.911 318.744 109.746 319.006 109.641C319.268 109.535 319.551 109.491 319.833 109.513Z" fill="#263238"/>
<path d="M325.216 107.937V114.057H323.717V113.608C323.553 113.792 323.348 113.936 323.119 114.029C322.89 114.121 322.642 114.16 322.395 114.142C321.799 114.114 321.235 113.858 320.823 113.428C320.411 112.998 320.181 112.427 320.181 111.833C320.181 111.239 320.411 110.668 320.823 110.238C321.235 109.808 321.799 109.552 322.395 109.523C322.624 109.51 322.852 109.545 323.067 109.624C323.281 109.703 323.477 109.825 323.642 109.983V107.948L325.216 107.937ZM323.663 111.814C323.64 111.634 323.564 111.464 323.445 111.325C323.327 111.186 323.17 111.085 322.995 111.032C322.82 110.98 322.633 110.978 322.457 111.029C322.281 111.079 322.123 111.179 322.003 111.317C321.883 111.454 321.805 111.623 321.779 111.803C321.753 111.983 321.78 112.167 321.857 112.332C321.933 112.498 322.056 112.638 322.211 112.735C322.366 112.833 322.545 112.884 322.729 112.882C322.864 112.883 322.997 112.854 323.121 112.799C323.244 112.744 323.353 112.662 323.442 112.561C323.531 112.46 323.597 112.341 323.635 112.212C323.673 112.083 323.683 111.947 323.663 111.814Z" fill="#263238"/>
<path d="M309.141 73.6012L304.896 72.7254L310.269 47.0347C310.469 45.6877 310.171 44.3142 309.431 43.1685C302.667 33.8609 291.663 37.6416 289.976 45.6837L285.14 68.6457L280.896 67.7646L286.317 41.9083C286.596 40.5707 287.172 39.3117 288.002 38.2227C288.832 37.1337 289.895 36.242 291.115 35.6124C304.783 28.6117 316.254 39.4946 313.917 50.6499L309.141 73.6012Z" fill="#E0E0E0"/>
<path d="M309.141 73.6012C309.141 73.6012 309.168 73.441 309.232 73.1419C309.297 72.8429 309.383 72.389 309.501 71.8069L310.575 66.6966C311.037 64.4805 311.596 61.7731 312.246 58.6278L313.321 53.5976C313.654 51.814 314.207 49.945 314.229 47.9265C314.261 45.8133 313.809 43.7206 312.907 41.8068C312.789 41.5612 312.676 41.3049 312.553 41.0592L312.123 40.3383C311.83 39.8553 311.509 39.3899 311.161 38.9446C310.989 38.7096 310.785 38.5067 310.597 38.2878C310.409 38.0688 310.226 37.8446 310.006 37.6523C309.588 37.2385 309.143 36.8532 308.673 36.4989C307.72 35.7575 306.677 35.1385 305.568 34.6566L304.703 34.3362L304.214 34.176L303.763 34.0585L302.855 33.8235C302.543 33.7541 302.231 33.7221 301.92 33.6687C299.328 33.2851 296.68 33.6215 294.269 34.6406C292.354 35.449 290.641 36.6637 289.249 38.1996C287.857 39.7354 286.819 41.5553 286.21 43.5317C285.817 44.8933 285.565 46.3191 285.259 47.7396C284.066 53.4374 282.825 59.3381 281.562 65.3616C281.39 66.1679 281.224 66.9636 281.057 67.7699L280.976 67.6471L285.221 68.5282L285.103 68.6083C286.059 64.0426 286.999 59.573 287.907 55.2583C288.362 53.0903 288.812 50.9543 289.256 48.8503L289.911 45.7211C290.142 44.6874 290.518 43.6914 291.029 42.7627C292.065 40.9703 293.623 39.5327 295.499 38.6402C295.73 38.5388 295.951 38.4159 296.192 38.3358L296.902 38.0902C297.377 37.9481 297.862 37.8393 298.352 37.7645C298.84 37.6909 299.331 37.6516 299.824 37.647C300.066 37.647 300.313 37.647 300.555 37.679H300.915L301.275 37.7378C302.221 37.8658 303.143 38.1265 304.015 38.5121C304.858 38.8977 305.647 39.3894 306.363 39.9752C307.733 41.1245 308.776 42.6102 309.388 44.2846C309.979 45.8516 310.152 47.5444 309.888 49.1974L309.791 49.7901C309.753 49.9824 309.71 50.1746 309.673 50.3668L309.431 51.5096C309.27 52.2626 309.114 52.9995 308.964 53.7257C308.351 56.62 307.787 59.2847 307.282 61.6823C306.261 66.4883 305.466 70.2263 304.939 72.7308L304.912 72.6934L308.136 73.3716L308.921 73.5424L309.178 73.6012L308.926 73.5531L308.147 73.4036L304.923 72.7521V72.7201L307.212 61.6663C307.712 59.2633 308.287 56.5986 308.872 53.699C309.023 52.9781 309.178 52.2359 309.334 51.4829C309.409 51.1091 309.49 50.7246 309.571 50.3455C309.614 50.1532 309.651 49.961 309.694 49.7634C309.737 49.5659 309.753 49.3736 309.786 49.1814C310.043 47.5529 309.871 45.8859 309.286 44.3433C308.68 42.6965 307.65 41.2364 306.299 40.1087C305.59 39.5329 304.81 39.0501 303.978 38.6723C303.122 38.2973 302.218 38.0422 301.291 37.914L300.937 37.8606H300.577C300.34 37.8606 300.104 37.8285 299.862 37.8606C298.89 37.8715 297.924 38.0189 296.993 38.2985L296.294 38.5441C296.063 38.6306 295.837 38.7304 295.617 38.8431C293.775 39.7188 292.245 41.1329 291.233 42.8962C290.736 43.8061 290.374 44.7828 290.159 45.7958C289.944 46.8318 289.725 47.8749 289.503 48.9251C289.063 51.029 288.615 53.165 288.16 55.3331L285.361 68.683V68.7845H285.259L281.014 67.9034H280.917V67.802C281.084 67.0063 281.25 66.1999 281.422 65.3936C282.69 59.3541 283.926 53.4534 285.124 47.7716C285.43 46.3458 285.662 44.9307 286.081 43.5423C286.517 42.1852 287.141 40.8948 287.934 39.7082C289.506 37.4134 291.711 35.6185 294.285 34.5391C296.728 33.5099 299.409 33.1717 302.033 33.5619C302.35 33.6153 302.667 33.6527 302.978 33.7167L304.053 33.9944L304.628 34.176L305.487 34.4964L305.885 34.6619C306.936 35.1354 307.926 35.7324 308.835 36.4401C309.306 36.8028 309.754 37.1933 310.178 37.6096C310.347 37.7929 310.509 37.9836 310.661 38.181C310.849 38.4053 311.059 38.6082 311.225 38.8431C311.579 39.2952 311.906 39.7677 312.203 40.2582L312.633 40.9845C312.762 41.2355 312.87 41.5185 312.993 41.7428C313.899 43.6796 314.349 45.7962 314.31 47.9318C314.31 49.9717 313.724 51.846 313.385 53.6349C313.047 55.4238 312.649 57.1059 312.311 58.6812C311.645 61.8265 311.064 64.5552 310.597 66.75C310.129 68.9447 309.759 70.6749 309.522 71.839L309.238 73.158C309.178 73.457 309.141 73.6012 309.141 73.6012Z" fill="#263238"/>
<path d="M279.064 51.77L316.983 59.6226C317.504 59.7306 317.962 60.0402 318.254 60.4833C318.546 60.9264 318.649 61.4666 318.54 61.9851L312.549 90.5599C312.451 91.0313 312.167 91.4444 311.762 91.7082C311.357 91.9721 310.863 92.0652 310.388 91.9669L272.291 84.0773L279.064 51.77Z" fill="#455A64"/>
<g opacity="0.3">
<path d="M279.084 51.8003L316.803 59.6115C317.377 59.7305 317.881 60.0716 318.203 60.5596C318.524 61.0477 318.638 61.6428 318.518 62.2141L312.611 90.3915C312.501 90.9156 312.186 91.3748 311.736 91.6682C311.285 91.9616 310.736 92.065 310.208 91.9558L272.311 84.1076L279.084 51.8003Z" fill="black"/>
</g>
<path d="M279.387 51.838L312.093 58.6111C312.66 58.7284 313.156 59.0645 313.473 59.5455C313.79 60.0265 313.902 60.6129 313.784 61.1758L308 88.7625C307.855 89.4558 307.439 90.0632 306.843 90.4513C306.247 90.8393 305.52 90.9762 304.822 90.8317L272.706 84.1806C272.416 84.1206 272.14 84.0043 271.895 83.8384C271.65 83.6726 271.441 83.4604 271.278 83.2141C271.116 82.9677 271.004 82.692 270.949 82.4026C270.894 82.1132 270.896 81.8158 270.957 81.5275L276.828 53.5226C276.945 52.9633 277.28 52.4726 277.759 52.1571C278.238 51.8417 278.823 51.727 279.387 51.838Z" fill="#455A64"/>
<g opacity="0.3">
<path d="M298.094 69.6123C298.221 69.0084 298.225 68.3854 298.105 67.7802C297.985 67.175 297.744 66.5999 297.396 66.0889C297.048 65.578 296.601 65.1416 296.08 64.8057C295.56 64.4698 294.977 64.2412 294.366 64.1334C293.186 63.9403 291.978 64.2012 290.985 64.863C289.993 65.5247 289.292 66.5376 289.025 67.6952C288.813 68.6797 288.932 69.7061 289.364 70.6167C289.796 71.5274 290.517 72.272 291.416 72.7362L287.144 78.3485L294.94 80.1107L293.866 73.2488C294.874 73.1852 295.833 72.7951 296.596 72.1384C297.36 71.4817 297.886 70.5944 298.094 69.6123Z" fill="black"/>
</g>
<path d="M308.131 88.3503C308.077 88.3503 309.238 82.7112 310.72 75.7799C312.203 68.8486 313.455 63.2309 313.509 63.2416C313.563 63.2523 312.402 68.886 310.919 75.828C309.436 82.77 308.184 88.3609 308.131 88.3503Z" fill="#263238"/>
<path d="M305.487 58.2808C305.487 58.3342 300.474 57.4104 294.317 56.2196C288.16 55.0287 283.168 54.0195 283.179 53.9661C283.19 53.9127 288.192 54.8312 294.355 56.022C300.517 57.2128 305.498 58.206 305.487 58.2808Z" fill="white"/>
<path d="M288.364 70.1303C288.364 70.1303 288.3 70.0235 288.235 69.8099C288.143 69.5094 288.085 69.1995 288.063 68.886C287.978 67.8396 288.212 66.792 288.735 65.8796C289.266 64.9729 290.058 64.2442 291.007 63.7863C291.293 63.6503 291.592 63.543 291.899 63.4659C292.011 63.4315 292.127 63.4153 292.243 63.4179C292.243 63.4553 291.765 63.5514 291.072 63.9145C290.17 64.3864 289.423 65.1034 288.916 65.9818C288.408 66.8601 288.163 67.8637 288.208 68.8754C288.235 69.655 288.402 70.1196 288.364 70.1303Z" fill="white"/>
<path d="M289.707 72.624C289.67 72.6668 289.423 72.5012 289.17 72.2556C288.917 72.0099 288.724 71.7803 288.762 71.7216C288.799 71.6628 289.046 71.8497 289.299 72.09C289.551 72.3303 289.745 72.624 289.707 72.624Z" fill="white"/>
<path d="M301.178 34.5712C301.178 34.5712 300.899 34.5712 300.394 34.5178C299.678 34.4733 298.959 34.4858 298.245 34.5552C295.894 34.7664 293.651 35.6369 291.778 37.0653C289.905 38.4937 288.479 40.4213 287.666 42.6239C287.416 43.2873 287.22 43.9695 287.08 44.6638C286.983 45.1551 286.94 45.4327 286.924 45.4327C286.916 45.3653 286.916 45.2972 286.924 45.2298C286.924 45.0963 286.924 44.8987 286.994 44.6478C287.109 43.9422 287.288 43.2486 287.531 42.5758C288.321 40.3248 289.756 38.3524 291.66 36.9017C293.564 35.451 295.852 34.5852 298.245 34.411C298.961 34.3537 299.68 34.3644 300.394 34.443C300.646 34.443 300.84 34.5071 300.974 34.5231C301.044 34.5294 301.113 34.5455 301.178 34.5712Z" fill="white"/>
<path d="M286.027 48.8823C286.013 48.4775 286.068 48.0732 286.188 47.6862C286.241 47.2866 286.361 46.8986 286.543 46.5381C286.559 46.9409 286.507 47.3437 286.387 47.7289C286.334 48.1309 286.212 48.521 286.027 48.8823Z" fill="white"/>
<path d="M19.1415 220.862L9.4865 233.892L25.7447 245.918C26.8193 244.316 20.7104 234.981 20.7104 234.981L27.2437 226.886L19.1415 220.862Z" fill="#455A64"/>
<path d="M16.2295 230.571C16.0383 230.501 15.8281 230.505 15.6395 230.581C15.4509 230.657 15.2974 230.8 15.2086 230.982C15.1331 231.17 15.1328 231.38 15.2076 231.568C15.2825 231.757 15.427 231.91 15.6116 231.996C15.8142 232.067 16.036 232.061 16.2343 231.979C16.4327 231.898 16.5936 231.746 16.6862 231.553C16.7455 231.348 16.7227 231.129 16.6225 230.941C16.5223 230.752 16.3525 230.61 16.1489 230.544" fill="white"/>
<path d="M9.46506 233.924L10.4913 232.525L25.6803 244.679C25.6803 244.679 26.1639 245.533 25.6803 245.976L9.46506 233.924Z" fill="#263238"/>
<path d="M21.065 235.099C21.0059 235.179 20.5815 234.923 19.9905 234.885C19.3995 234.848 18.9535 235.029 18.9159 234.944C18.8783 234.859 19.3296 234.49 20.0281 234.543C20.7265 234.597 21.108 235.04 21.065 235.099Z" fill="#263238"/>
<path d="M22.2202 237.064C22.1772 237.155 21.7366 237.032 21.2155 237.165C20.6943 237.299 20.3558 237.598 20.2752 237.534C20.1946 237.47 20.4848 237 21.1349 236.834C21.785 236.669 22.2739 236.989 22.2202 237.064Z" fill="#263238"/>
<path d="M21.6668 239.809C21.5808 239.771 21.7689 239.275 22.2954 239.013C22.822 238.751 23.3216 238.837 23.3055 238.928C23.2894 239.018 22.8864 239.077 22.462 239.317C22.0375 239.558 21.7528 239.857 21.6668 239.809Z" fill="#263238"/>
<path d="M22.3223 233.091C22.2309 233.139 21.9515 232.76 21.4787 232.461C21.0059 232.162 20.5546 232.039 20.56 231.927C20.5654 231.815 21.0973 231.793 21.6668 232.157C22.2363 232.52 22.4082 233.059 22.3223 233.091Z" fill="#263238"/>
<path d="M58.4493 166.32C58.7394 167.954 59.2015 181.854 59.497 189.186C59.7925 196.517 59.0564 200.122 58.2129 201.767C57.3693 203.411 25.5567 226.71 23.1336 232.29L15.0743 225.834C15.0743 225.834 26.8946 204.746 31.9343 200.912C36.974 197.078 46.672 193.559 46.672 193.559L43.9157 153.408L57.1276 152.692L58.4493 166.32Z" fill="#263238"/>
<path d="M28.8825 233.748L28.7428 249.912L49.0038 250.19C48.9125 248.267 38.4838 244.257 38.4838 244.257L39.0211 233.892L28.8825 233.748Z" fill="#455A64"/>
<path d="M32.2298 243.322C32.0343 243.379 31.8665 243.504 31.7584 243.676C31.6504 243.847 31.6097 244.052 31.6442 244.252C31.694 244.448 31.8174 244.618 31.9891 244.727C32.1608 244.836 32.368 244.876 32.5683 244.839C32.7747 244.778 32.9513 244.644 33.0643 244.461C33.1773 244.279 33.2188 244.062 33.1808 243.851C33.1088 243.651 32.9614 243.487 32.7699 243.394C32.5784 243.3 32.3577 243.284 32.1546 243.349" fill="white"/>
<path d="M28.7374 249.971V248.235L48.214 249.239C48.214 249.239 49.1059 249.65 48.9931 250.28L28.7374 249.971Z" fill="#263238"/>
<path d="M38.7954 244.182C38.7954 244.284 38.2957 244.321 37.8068 244.631C37.3179 244.94 37.0492 245.346 36.9579 245.309C36.8666 245.272 37.0224 244.7 37.6241 244.337C38.2259 243.974 38.8384 244.091 38.7954 244.182Z" fill="#263238"/>
<path d="M40.9446 245.106C40.9446 245.202 40.5308 245.362 40.1924 245.773C39.8539 246.185 39.7464 246.628 39.6551 246.617C39.5637 246.607 39.4993 246.057 39.9345 245.549C40.3697 245.042 40.9446 244.994 40.9446 245.106Z" fill="#263238"/>
<path d="M42.0997 247.632C42.0084 247.632 41.8794 247.157 42.1373 246.623C42.3952 246.089 42.868 245.88 42.9056 245.96C42.9432 246.041 42.6585 246.329 42.4489 246.772C42.2394 247.215 42.1964 247.621 42.0997 247.632Z" fill="#263238"/>
<path d="M38.6665 241.806C38.6235 241.897 38.1722 241.752 37.5919 241.806C37.0116 241.859 36.5925 242.003 36.5173 241.918C36.4421 241.833 36.8881 241.491 37.5489 241.464C38.2098 241.437 38.7148 241.731 38.6665 241.806Z" fill="#263238"/>
<path d="M59.9107 151.031C59.9107 151.976 61.4527 175.905 53.5815 193.217C53.5815 193.217 50.8574 198.632 50.3578 200.998C49.8581 203.363 39.6766 242.602 39.6766 242.602L27.91 242.174C27.91 242.174 26.0295 222.518 27.91 211.138C29.7905 199.759 33.2829 201.094 33.2829 193.746C33.2829 186.398 31.526 171.163 31.526 171.163C31.526 171.163 28.9577 167.003 28.082 158.935C27.3674 152.382 30.4729 145.36 30.4729 145.36L33.5408 139.961L59.497 138.61L59.9107 151.031Z" fill="#263238"/>
<path d="M59.9107 151.031C59.9107 151.031 59.9107 150.754 59.9107 150.214C59.9107 149.675 59.8784 148.874 59.857 147.822C59.8086 145.713 59.728 142.605 59.6313 138.589V138.53H59.5668L33.6106 139.844H33.5569L33.5247 139.892C32.5737 141.569 31.526 143.4 30.4514 145.291C29.6522 147.207 29.0282 149.191 28.587 151.218C28.0996 153.353 27.8812 155.539 27.9369 157.728C28.1004 160.013 28.4599 162.28 29.0115 164.504C29.5435 166.839 30.3798 169.096 31.4991 171.216V171.163C31.945 175.147 32.3587 179.274 32.708 183.525C32.8799 185.661 33.0303 187.797 33.1378 189.992C33.1915 191.06 33.2345 192.181 33.2399 193.287C33.2399 193.821 33.2399 194.392 33.2077 194.942C33.1694 195.494 33.1013 196.043 33.0035 196.587C32.7836 197.683 32.3939 198.739 31.8483 199.716C31.311 200.715 30.7738 201.702 30.2365 202.744C29.2634 204.857 28.5543 207.081 28.1249 209.365C27.1901 213.958 27.002 218.732 26.9483 223.543C26.9483 229.892 27.2492 236.129 27.7757 242.158V242.286H27.8993L39.6658 242.714H39.7786L39.8055 242.602C43.2173 229.46 46.398 217.178 49.2026 206.135L50.2181 202.05C50.3954 201.371 50.5082 200.699 50.7178 200.058C50.9273 199.417 51.1637 198.781 51.4108 198.162C51.9159 196.923 52.4854 195.722 53.0227 194.552L53.4418 193.682C53.5906 193.397 53.7234 193.105 53.8394 192.806C54.0812 192.213 54.3229 191.631 54.5647 191.049C56.2356 186.742 57.4791 182.284 58.2773 177.737C59.428 171.259 60.0212 164.695 60.0504 158.117C60.0826 153.514 59.8946 151.015 59.8946 151.015C59.8946 151.015 59.8946 151.17 59.8946 151.474C59.8946 151.779 59.8946 152.243 59.9268 152.841C59.959 154.043 59.9805 155.816 59.9268 158.117C59.8771 164.69 59.2787 171.247 58.1376 177.721C57.3209 182.253 56.0613 186.696 54.3767 190.985L53.6567 192.731C53.5385 193.03 53.4042 193.313 53.2591 193.602C53.114 193.89 52.9743 194.184 52.8347 194.477C52.2974 195.647 51.7278 196.848 51.2228 198.093C50.9703 198.717 50.7285 199.353 50.519 200.004C50.3094 200.656 50.1858 201.345 50.0139 202.007C49.6754 203.353 49.3369 204.709 48.9877 206.092C46.1347 217.124 42.9594 229.406 39.5584 242.548L39.698 242.447L27.9315 242.014L28.0712 242.142C27.5339 236.124 27.2223 229.892 27.2438 223.554C27.2975 218.748 27.4856 213.995 28.4151 209.435C28.8431 207.171 29.5449 204.968 30.5051 202.872C30.9887 201.841 31.5797 200.864 32.117 199.849C32.6589 198.845 33.043 197.765 33.256 196.645C33.3579 196.089 33.4278 195.528 33.4655 194.963C33.4655 194.429 33.5193 193.842 33.4978 193.292C33.4978 192.181 33.4494 191.076 33.3957 189.981C33.2882 187.792 33.1324 185.634 32.9551 183.509C32.5969 179.237 32.1904 175.113 31.7355 171.136V171.104C30.6158 169.011 29.7759 166.781 29.2371 164.472C28.6887 162.263 28.3292 160.012 28.1626 157.744C28.1047 155.576 28.3177 153.409 28.7965 151.293C29.2295 149.286 29.8389 147.32 30.6179 145.419L33.6805 140.015L33.5945 140.068L59.5507 138.674L59.4809 138.616C59.6098 142.626 59.7065 145.734 59.771 147.843C59.8086 148.911 59.8355 149.691 59.857 150.236C59.8784 150.78 59.9107 151.031 59.9107 151.031Z" fill="#455A64"/>
<path d="M51.47 102.031C51.47 102.031 44.4853 100.803 45.1354 109.737C45.5437 115.077 47.1233 124.241 47.9991 130.088C48.3 132.112 48.9662 135.732 51.658 137.858L70.9465 151.122L77.0339 143.886L59.8086 127.583L57.1222 111.457L51.47 102.031Z" fill="#455A64"/>
<path d="M52.292 69.8312C53.3991 70.7172 54.275 71.8554 54.8456 73.1494C55.4161 74.4433 55.6644 75.8549 55.5694 77.2645C55.462 78.6315 55.0805 80.1854 55.9778 81.2267C56.875 82.268 58.5943 82.2307 59.4432 83.288C60.4372 84.5375 59.6044 86.3959 59.9805 87.9498C60.1722 88.6756 60.6175 89.31 61.2366 89.7395C61.8558 90.169 62.6085 90.3655 63.3601 90.2941C61.5968 91.7281 59.4702 92.6519 57.2135 92.9641L55.4512 90.78C56.1067 91.549 55.9294 92.7718 55.3008 93.5568C54.6179 94.2874 53.7373 94.8066 52.7648 95.052C50.4502 95.7597 48.0024 95.927 45.6121 95.5408C43.2217 95.1546 40.9533 94.2253 38.9835 92.8252" fill="#263238"/>
<path d="M26.4862 81.8836C26.8301 80.8156 27.4104 79.8704 27.6414 78.7971C28.1357 76.4848 27.002 73.8789 28.1303 71.7963C28.9362 70.3171 30.6448 69.5909 32.2674 69.0943C33.89 68.5977 35.6201 68.1811 36.829 67.001C37.7101 66.1359 38.2151 64.9398 39.0963 64.0747C40.3535 62.8358 42.2125 62.4139 43.9748 62.3071C45.7946 62.1324 47.6289 62.4285 49.2993 63.1669C50.1288 63.543 50.8577 64.1078 51.427 64.8156C51.9964 65.5233 52.3902 66.3543 52.5768 67.2413C52.7165 68.1064 52.609 69.0195 52.8884 69.8579C53.1893 70.7764 53.9146 71.4919 54.3659 72.3517C54.8179 73.275 54.9487 74.3213 54.7377 75.3265C54.5267 76.3316 53.9858 77.2387 53.2 77.9053L40.7458 93.8932C38.1292 94.8758 31.7892 93.6903 29.769 91.7572C27.7488 89.8242 25.6212 84.5269 26.4862 81.8836Z" fill="#263238"/>
<path d="M52.8723 75.876C52.335 72.2449 49.5787 67.9568 45.952 68.619L34.755 72.357C33.6805 72.5599 34.4434 74.3488 34.5509 75.4542L36.9848 100.552C36.9848 100.552 35.4696 101.62 34.9323 101.417C34.9017 101.407 34.8686 101.406 34.8374 101.415C34.8063 101.424 34.7788 101.442 34.7587 101.467C34.7386 101.493 34.7269 101.524 34.7253 101.556C34.7237 101.588 34.7322 101.62 34.7497 101.647C36.109 103.596 42.4436 112.071 49.0038 109.47C50.4652 108.888 48.848 104.312 49.0038 102.619L48.8104 98.288C48.6653 96.0773 48.5955 95.1695 48.5955 95.1908C48.5955 95.2122 53.2269 94.0588 53.7265 87.9017C53.9791 84.8526 53.4418 79.9078 52.8723 75.876Z" fill="#FFBF9D"/>
<path d="M52.0932 81.4618C52.1099 81.665 52.0463 81.8667 51.9159 82.0242C51.7855 82.1817 51.5986 82.2826 51.3947 82.3055C51.2954 82.3213 51.1939 82.3172 51.0962 82.2934C50.9985 82.2696 50.9066 82.2265 50.826 82.1668C50.7453 82.107 50.6776 82.0318 50.6267 81.9456C50.5758 81.8593 50.5428 81.7638 50.5297 81.6647C50.5131 81.4614 50.5766 81.2597 50.707 81.1022C50.8374 80.9448 51.0243 80.8439 51.2282 80.821C51.3275 80.8051 51.429 80.8092 51.5267 80.8331C51.6244 80.8569 51.7163 80.9 51.7969 80.9597C51.8776 81.0194 51.9454 81.0947 51.9962 81.1809C52.0471 81.2671 52.0801 81.3627 52.0932 81.4618Z" fill="#263238"/>
<path d="M44.4638 81.937C44.4819 82.1397 44.4195 82.3414 44.29 82.4991C44.1605 82.6567 43.9741 82.7578 43.7707 82.7807C43.6714 82.7958 43.5702 82.7911 43.4728 82.767C43.3754 82.7429 43.2838 82.6997 43.2033 82.6401C43.1228 82.5805 43.055 82.5056 43.0039 82.4197C42.9528 82.3338 42.9194 82.2387 42.9056 82.1399C42.889 81.9366 42.9526 81.7349 43.0829 81.5774C43.2133 81.4199 43.4002 81.3191 43.6041 81.2962C43.7031 81.2803 43.8043 81.2845 43.9017 81.3084C43.999 81.3323 44.0906 81.3754 44.1708 81.4352C44.251 81.495 44.3183 81.5702 44.3686 81.6564C44.419 81.7427 44.4513 81.8381 44.4638 81.937Z" fill="#263238"/>
<path d="M52.3726 78.8878C52.2866 79.032 51.5559 78.5728 50.6425 78.7063C49.7292 78.8398 49.1435 79.4592 49.0307 79.3471C48.9179 79.2349 49.0307 79.048 49.294 78.765C49.6245 78.3962 50.0765 78.1565 50.5689 78.089C51.0612 78.0214 51.5616 78.1305 51.9804 78.3966C52.2813 78.6048 52.4156 78.8238 52.3726 78.8878Z" fill="#263238"/>
<path d="M44.1683 79.566C44.0608 79.6995 43.3462 79.1815 42.363 79.2243C41.3798 79.267 40.6813 79.817 40.5685 79.6942C40.4556 79.5714 40.6168 79.4058 40.9231 79.1602C41.3251 78.8304 41.8259 78.6425 42.3469 78.6262C42.8654 78.6059 43.3759 78.7581 43.7975 79.0587C44.1038 79.2777 44.2166 79.5019 44.1683 79.566Z" fill="#263238"/>
<path d="M47.2469 85.3173C47.6807 85.1413 48.1359 85.0228 48.6009 84.9648C48.8104 84.9274 49.0146 84.8687 49.0361 84.7192C49.0389 84.4959 48.9712 84.2774 48.8426 84.0944C48.6009 83.5924 48.3483 83.0638 48.0797 82.4924C47.0051 80.2336 46.2261 78.3753 46.3174 78.3325C46.4087 78.2898 47.349 80.0841 48.4128 82.3375C48.6707 82.8982 48.9178 83.4055 49.1489 83.9395C49.306 84.1873 49.3689 84.4828 49.3262 84.7726C49.3016 84.8507 49.2592 84.9222 49.2024 84.9814C49.1456 85.0407 49.0758 85.0861 48.9984 85.1143C48.882 85.1539 48.7611 85.1791 48.6385 85.1891C48.1813 85.2864 47.7142 85.3294 47.2469 85.3173Z" fill="#263238"/>
<path d="M48.5955 95.2016C45.7183 95.4641 42.8242 94.928 40.2353 93.653C40.2353 93.653 42.6263 97.7648 48.7029 96.7288L48.5955 95.2016Z" fill="#FF9A6C"/>
<path d="M44.6733 87.763C44.7691 87.5519 44.917 87.3682 45.1031 87.229C45.3309 87.1213 45.5896 87.0967 45.8338 87.1596C46.1967 87.2122 46.5324 87.3809 46.7902 87.6402C46.9167 87.771 47.0058 87.933 47.0483 88.1095C47.0908 88.2859 47.0852 88.4705 47.032 88.6441C46.9353 88.9965 46.4087 89.1781 46.0487 89.2528C45.6758 89.307 45.2956 89.2295 44.9742 89.0339C44.8344 88.9706 44.7123 88.8742 44.6186 88.7532C44.525 88.6322 44.4626 88.4902 44.4369 88.3397C44.4607 88.1295 44.5425 87.9299 44.6733 87.763Z" fill="#FF9A6C"/>
<path d="M44.8452 86.5828C44.9796 86.5828 45.0548 87.4745 45.8876 88.0619C46.7204 88.6493 47.6875 88.4731 47.7036 88.5959C47.7197 88.7188 47.5048 88.7882 47.0911 88.8309C46.5543 88.8798 46.0174 88.7379 45.5759 88.4304C45.15 88.1383 44.8567 87.6914 44.7593 87.1862C44.7055 86.8177 44.7808 86.5828 44.8452 86.5828Z" fill="#263238"/>
<path d="M44.093 76.2819C44.0232 76.5116 43.1743 76.4688 42.1911 76.6664C41.2078 76.864 40.4288 77.2004 40.2837 76.9921C40.2192 76.9014 40.3374 76.6771 40.6437 76.4315C41.0539 76.1277 41.5288 75.9215 42.0318 75.829C42.5349 75.7364 43.0525 75.7598 43.545 75.8975C43.9211 76.0043 44.1199 76.1698 44.093 76.2819Z" fill="#263238"/>
<path d="M51.8514 75.828C51.6956 76.0309 51.0186 75.8867 50.2396 75.9401C49.4605 75.9935 48.7728 76.1804 48.6008 75.9935C48.5256 75.9028 48.6008 75.6998 48.8963 75.4969C49.2849 75.2424 49.7369 75.1001 50.2019 75.0857C50.6641 75.0527 51.1262 75.1508 51.5344 75.3688C51.8138 75.529 51.9213 75.7212 51.8514 75.828Z" fill="#263238"/>
<path d="M32.2781 73.2328C32.8154 72.3678 33.8578 71.9245 34.8249 71.5561C39.0016 69.9532 43.3557 68.8507 47.7949 68.272C48.3322 69.1744 47.8379 70.408 47.0051 71.0648C46.1723 71.7216 45.0978 71.9833 44.1038 72.3517C43.1098 72.7202 42.0836 73.2969 41.6699 74.2741C41.2562 75.2514 41.6054 76.5383 41.2186 77.5956C40.5577 79.4219 37.9949 80.0093 37.3555 81.8302C36.8612 83.2133 37.6671 84.6818 37.8928 86.1343C37.996 86.8714 37.9397 87.622 37.7279 88.3359C37.5161 89.0497 37.1534 89.7104 36.6643 90.274C36.1751 90.8375 35.5706 91.2908 34.8911 91.6037C34.2117 91.9166 33.4729 92.0818 32.7241 92.0884C32.4232 86.8587 32.1205 81.6327 31.8161 76.4101C31.7247 75.3208 31.6818 74.146 32.2781 73.2328Z" fill="#263238"/>
<path d="M21.6829 86.4387C22.5157 85.6964 23.558 85.0556 23.8858 83.9983C24.3693 82.455 23.1228 80.6448 23.9287 79.2403C24.6595 77.9587 26.814 78.0282 27.4963 76.7199C28.0336 75.6946 27.4157 74.7921 27.6145 73.895C27.8133 72.9979 29.1028 72.2129 30.0162 72.3197L37.1836 82.6633C37.8498 86.1343 38.5214 88.0033 37.7746 90.0111C37.2806 91.0922 36.9077 92.224 36.6624 93.386C36.5012 94.5608 36.8075 95.8905 37.7692 96.59C33.4709 96.9264 29.452 94.6943 25.734 92.5316L21.8172 90.2461C21.3885 90.0422 21.0187 89.7335 20.7427 89.349C20.157 88.3985 20.8555 87.1756 21.6829 86.4387Z" fill="#263238"/>
<path d="M25.6427 91.4795C25.7927 91.5274 25.9477 91.5579 26.1047 91.5703C26.553 91.6129 27.0052 91.5804 27.4426 91.4742C28.1408 91.308 28.7834 90.9638 29.307 90.4756C29.9986 89.814 30.4325 88.9307 30.532 87.9818C30.5966 87.4316 30.5491 86.874 30.3923 86.3424C30.1996 85.7759 29.9322 85.2372 29.5971 84.7404C29.2418 84.2362 28.9646 83.6818 28.7751 83.0957C28.6744 82.7961 28.6428 82.4778 28.6828 82.1644C28.7228 81.851 28.8333 81.5506 29.0061 81.2855C29.3929 80.7515 30.1183 80.6393 30.7952 80.3723C31.1609 80.2417 31.4789 80.0056 31.7086 79.6941C31.9201 79.3611 32.0233 78.9714 32.0041 78.5781C31.9112 77.8241 31.7475 77.0803 31.5152 76.3566C31.4327 76.0054 31.4327 75.6399 31.5152 75.2886C31.6098 74.9344 31.829 74.6256 32.1331 74.4182C32.7868 74.0436 33.5276 73.8448 34.2822 73.8415C35.0632 73.8158 35.8249 73.5935 36.4958 73.1954C37.1487 72.7998 37.6787 72.2324 38.0271 71.556C38.3131 70.9065 38.4944 70.2163 38.5644 69.5108C38.6389 68.8576 38.7793 68.2136 38.9835 67.5884C39.2097 67.0198 39.5539 66.5049 39.9936 66.0771C40.8045 65.3123 41.8514 64.842 42.9647 64.7421C43.893 64.6632 44.8248 64.8485 45.6512 65.2761C46.2727 65.5922 46.833 66.0153 47.306 66.5257C47.7013 66.9712 48.0438 67.4603 48.3268 67.9835C48.3268 67.9835 48.3268 67.9461 48.2892 67.8714C48.2451 67.7653 48.1949 67.6619 48.1388 67.5617C47.9336 67.174 47.6829 66.8119 47.392 66.483C46.9193 65.952 46.3553 65.509 45.7264 65.1747C44.8913 64.7185 43.9424 64.5091 42.9916 64.5713C41.8248 64.6562 40.7228 65.1369 39.87 65.933C39.4001 66.384 39.0336 66.9304 38.7954 67.535C38.5824 68.1718 38.4348 68.8284 38.3548 69.4947C38.2803 70.1771 38.099 70.8437 37.8176 71.4705C37.4899 72.1008 36.9959 72.6306 36.3884 73.0031C35.7482 73.3763 35.024 73.5838 34.2822 73.6065C33.4737 73.6048 32.6796 73.8187 31.9826 74.226C31.634 74.4617 31.3822 74.8143 31.2734 75.2192C31.1793 75.6142 31.1793 76.0257 31.2734 76.4207C31.501 77.1308 31.6628 77.8601 31.757 78.5994C31.7791 78.9428 31.6927 79.2845 31.5098 79.5767C31.3023 79.8476 31.0206 80.0533 30.6985 80.1694C30.3815 80.3029 30.0377 80.3937 29.7046 80.5325C29.3577 80.6627 29.0518 80.8819 28.818 81.168C28.6283 81.4628 28.5067 81.7959 28.4621 82.1431C28.4175 82.4903 28.451 82.843 28.5601 83.1758C28.7613 83.7807 29.051 84.3529 29.4198 84.8739C29.7471 85.3461 30.0091 85.8597 30.1989 86.4012C30.3511 86.9062 30.4022 87.4359 30.3493 87.9605C30.2612 88.8737 29.8545 89.7276 29.1995 90.3741C28.6982 90.8566 28.0801 91.2024 27.405 91.378C26.8301 91.5273 26.2311 91.5617 25.6427 91.4795Z" fill="#455A64"/>
<path d="M19.9152 84.1263C19.8449 84.2312 19.7974 84.3494 19.7755 84.4734C19.7041 84.8397 19.769 85.2192 19.9582 85.5414C20.0893 85.7715 20.2735 85.9673 20.4955 86.1128C20.7723 86.2792 21.0908 86.3644 21.4143 86.3585C21.8073 86.3499 22.1905 86.2344 22.522 86.0244C22.8536 85.8144 23.1209 85.5181 23.2948 85.1676C23.4991 84.7654 23.6041 84.3206 23.601 83.87C23.588 83.3858 23.4861 82.908 23.3001 82.4603C22.9616 81.5364 22.3384 80.634 22.3276 79.5553C22.3073 79.2897 22.3411 79.0228 22.427 78.7705C22.5128 78.5181 22.649 78.2856 22.8273 78.0868C23.2629 77.7293 23.8227 77.5566 24.3854 77.6062C25.0117 77.6517 25.641 77.5866 26.2444 77.414C26.5606 77.286 26.8278 77.0617 27.0074 76.7732C27.1803 76.4864 27.2885 76.1657 27.3244 75.8333C27.3553 75.1956 27.303 74.5566 27.1686 73.9323C27.0724 73.3463 27.1072 72.7465 27.2707 72.1754C27.5752 71.0853 28.2886 70.1527 29.264 69.5695C30.1899 69.1008 31.2177 68.866 32.2567 68.886C33.18 68.8881 34.0977 68.7439 34.9753 68.4588C35.6889 68.1985 36.3428 67.7991 36.8988 67.284C37.3245 66.8931 37.687 66.4392 37.9734 65.9383C38.2254 65.5229 38.3984 65.0649 38.4838 64.5873C38.3238 65.0381 38.1243 65.4741 37.8874 65.8902C37.2105 67.013 36.1679 67.8722 34.9323 68.3253C34.0621 68.5899 33.1559 68.7196 32.2459 68.7098C31.1768 68.6798 30.1169 68.9147 29.1619 69.3933C28.1362 69.9911 27.3789 70.9557 27.045 72.09C26.8731 72.6923 26.8346 73.3245 26.9322 73.943C27.0579 74.5469 27.1102 75.1636 27.088 75.7799C27.0753 76.0729 26.9819 76.3569 26.818 76.6007C26.6541 76.8446 26.4259 77.0391 26.1585 77.163C25.5843 77.325 24.9859 77.3846 24.3908 77.3392C23.7677 77.285 23.1481 77.4769 22.6661 77.8732C22.4693 78.0959 22.3202 78.3561 22.2278 78.638C22.1355 78.9198 22.1018 79.2174 22.1288 79.5126C22.1526 80.067 22.2858 80.6113 22.5211 81.1146C22.7306 81.5952 22.9616 82.0437 23.1389 82.4923C23.3192 82.9175 23.4212 83.3716 23.4398 83.8326C23.4472 84.2538 23.3552 84.6707 23.1712 85.0502C23.0153 85.3775 22.7721 85.6561 22.468 85.8557C22.1639 86.0553 21.8106 86.1682 21.4465 86.1822C21.1478 86.1929 20.852 86.1208 20.5922 85.974C20.3698 85.845 20.1847 85.661 20.0549 85.44C19.8666 85.1428 19.7887 84.7896 19.8346 84.4414C19.8615 84.2492 19.9314 84.1317 19.9152 84.1263Z" fill="#263238"/>
<path d="M65.1707 86.6736C65.2985 87.0347 65.2985 87.4284 65.1707 87.7896C65.0998 87.997 64.9828 88.1858 64.8284 88.342C64.674 88.4983 64.4861 88.6179 64.2788 88.6921C64.0024 88.7731 63.7087 88.7761 63.4307 88.7006C63.1526 88.6252 62.9012 88.4743 62.7046 88.2649C62.4789 88.0183 62.3477 87.7008 62.3338 87.3678C62.3235 87.0047 62.3799 86.6427 62.5004 86.2998C62.726 85.5789 63.1935 84.7939 63.1236 83.8487C63.0897 83.3695 62.9556 82.9026 62.7299 82.4778C62.5041 82.053 62.1917 81.6797 61.8127 81.3816C61.4157 81.0658 60.9616 80.8283 60.4748 80.6821C59.9776 80.5451 59.4648 80.4716 58.9489 80.4631C58.449 80.459 57.9506 80.4072 57.4607 80.3083C57.0033 80.2146 56.5941 79.963 56.3055 79.5981C56.0499 79.2236 55.9065 78.7847 55.8918 78.3325C55.8679 77.8918 55.904 77.4499 55.9993 77.0188C56.2351 76.2057 56.3651 75.3658 56.3861 74.5197C56.3428 73.7686 56.0753 73.0472 55.6178 72.4478C55.2309 71.9721 54.7569 71.5735 54.2208 71.273C53.8292 71.0426 53.454 70.7857 53.0979 70.504C52.8059 70.2555 52.5682 69.9502 52.3994 69.6069C52.3994 69.6069 52.3994 69.6069 52.3994 69.6817C52.4206 69.7539 52.4495 69.8237 52.4854 69.89C52.6194 70.1495 52.8017 70.3814 53.0227 70.5735C53.371 70.8748 53.7429 71.148 54.1349 71.3905C54.6475 71.6935 55.0992 72.0882 55.4673 72.5546C55.8932 73.1292 56.1365 73.8173 56.1658 74.5304C56.1339 75.3573 55.9986 76.1771 55.7628 76.9708C55.6589 77.4223 55.6173 77.8858 55.6393 78.3485C55.6593 78.8469 55.8194 79.3297 56.1013 79.7423C56.4216 80.1542 56.8785 80.4399 57.3908 80.5486C57.8949 80.6514 58.4076 80.7069 58.9221 80.7141C59.4194 80.7206 59.9139 80.7888 60.3942 80.917C60.8501 81.0579 61.2762 81.2805 61.6515 81.5739C62.0046 81.8506 62.2963 82.197 62.508 82.5913C62.7198 82.9855 62.8471 83.4191 62.8819 83.8647C62.9571 84.7245 62.5273 85.4667 62.2908 86.241C62.1667 86.6125 62.112 87.0034 62.1297 87.3945C62.153 87.7676 62.307 88.1209 62.5649 88.393C62.7856 88.6228 63.0669 88.7862 63.3766 88.8646C63.6863 88.943 64.012 88.9332 64.3164 88.8363C64.5388 88.7506 64.7385 88.6156 64.9005 88.4416C65.0625 88.2677 65.1825 88.0593 65.2513 87.8323C65.3487 87.554 65.3636 87.2538 65.2943 86.9673C65.2709 86.8629 65.2291 86.7634 65.1707 86.6736Z" fill="#263238"/>
<path d="M60.0343 128.502V122.596C60.7005 119.28 60.3835 115.349 58.8307 112.322C57.7043 110.37 56.459 108.489 55.102 106.688L49.1919 99.0571C45.9359 101.412 40.8371 99.7086 36.4636 98.1279C36.4636 98.1279 32.1653 100.504 30.1344 102.736C28.0228 105.086 35.244 134.483 35.244 134.483C31.9719 140.987 27.7488 146.765 27.1095 152.692L61.2808 154L59.8301 138.429L60.0343 128.502Z" fill="#455A64"/>
<path d="M59.5614 138.594C59.5275 138.374 59.5185 138.15 59.5346 137.927C59.5346 137.441 59.5346 136.859 59.5346 136.117C59.5614 134.515 59.5937 132.448 59.6313 130.147C59.6689 127.845 59.7387 125.704 59.814 124.176C59.8516 123.413 59.8892 122.793 59.9214 122.366C59.9252 122.145 59.954 121.924 60.0074 121.709C60.0291 121.93 60.0291 122.151 60.0074 122.372C60.0074 122.857 60.0074 123.44 60.0074 124.182C59.9805 125.784 59.9429 127.85 59.9053 130.152C59.8677 132.453 59.8032 134.595 59.728 136.122C59.6904 136.886 59.6528 137.505 59.6152 137.932C59.6236 138.154 59.6055 138.377 59.5614 138.594Z" fill="#263238"/>
<path d="M75.1696 143.966C75.1696 143.966 78.5007 144.148 80.5424 145.43C82.5841 146.711 85.9152 148.708 87.2853 151.181C87.9139 152.318 86.1248 152.558 85.2383 151.902C84.3518 151.245 83.0032 149.995 82.3316 149.846L81.66 149.691C82.2731 151.07 82.9563 152.418 83.707 153.728C84.4001 154.796 85.0019 156.569 82.9172 156.649C82.9172 156.649 81.5149 158.465 80.0965 157.119C80.0965 157.119 78.9897 158.769 77.2059 156.483C77.2059 156.483 76.1635 157.792 75.7337 157.29C75.3039 156.788 73.8801 155.997 73.4664 154.363C72.8456 152.461 72.1283 150.592 71.3172 148.762L75.1696 143.966Z" fill="#FFBF9D"/>
<path d="M149.75 98.0744C150.121 98.0744 165.374 96.4724 165.374 96.4724C165.374 96.4724 166.669 90.3101 166.599 88.7081C166.529 87.1061 165.444 76.5062 165.444 76.5062L171.155 73.8362C171.155 73.8362 178.79 99.4255 177.125 101.551C175.459 103.676 172.327 105.582 172.058 105.593C171.789 105.604 157.277 112.001 147.182 108.674C137.086 105.348 149.75 98.0744 149.75 98.0744Z" fill="#FFBF9D"/>
<path d="M136.382 111.889C138.628 114.105 142.497 115.947 148.955 114.345C161.721 111.174 171.29 108.471 175.094 106.442C178.898 104.413 177.415 95.3458 177.737 94.9346C178.699 93.6957 177.64 91.0364 176.27 90.6198C172.364 89.445 165.568 89.9096 165.224 90.2621C163.22 92.3554 165.047 94.8972 165.047 94.8972L148.213 97.0919C146.144 96.9955 144.07 97.1262 142.029 97.4818" fill="#455A64"/>
<path d="M142.029 97.4817L142.432 97.3963C142.701 97.3482 143.098 97.2788 143.625 97.2147C145.148 97.0241 146.685 96.9598 148.219 97.0225L165.047 94.7797L164.966 94.9666C164.413 94.1583 164.141 93.1925 164.192 92.2165C164.238 91.7116 164.404 91.2248 164.676 90.796C164.812 90.5806 164.967 90.377 165.138 90.1873C165.205 90.1378 165.279 90.0982 165.358 90.0698L165.552 90.0217C165.681 89.9897 165.804 89.979 165.928 89.9523C168.013 89.7134 170.115 89.6705 172.209 89.8241C173.307 89.8907 174.399 90.0406 175.475 90.2727C175.744 90.3314 176.012 90.4115 176.292 90.481C176.578 90.5718 176.841 90.725 177.06 90.9295C177.487 91.333 177.813 91.8305 178.011 92.382C178.224 92.9344 178.3 93.5298 178.231 94.1175C178.182 94.4233 178.067 94.7149 177.893 94.9719C177.845 95.0253 177.85 95.1695 177.845 95.3083V95.7355C177.882 96.8836 177.936 98.0531 177.904 99.2279C177.912 100.896 177.638 102.553 177.092 104.13C176.812 104.92 176.331 105.625 175.695 106.175C175.366 106.431 175.005 106.643 174.621 106.805C174.266 106.992 173.89 107.136 173.546 107.307C172.074 107.932 170.597 108.445 169.141 108.909C167.685 109.374 166.255 109.822 164.842 110.234C159.222 111.836 154.097 113.133 149.831 114.196C148.811 114.464 147.778 114.676 146.736 114.831C145.802 114.961 144.858 115.011 143.915 114.981C142.4 114.949 140.906 114.626 139.515 114.03C138.642 113.648 137.828 113.144 137.097 112.535C136.839 112.328 136.599 112.102 136.377 111.857C136.377 111.857 136.624 112.092 137.135 112.492C137.875 113.079 138.692 113.564 139.563 113.934C140.946 114.502 142.424 114.804 143.92 114.826C144.853 114.848 145.786 114.791 146.709 114.655C147.744 114.493 148.77 114.275 149.782 114.004C154.081 112.936 159.163 111.622 164.767 109.988C166.169 109.577 167.599 109.139 169.065 108.658C170.532 108.178 171.988 107.67 173.444 107.056C173.799 106.891 174.17 106.747 174.519 106.56C174.878 106.403 175.215 106.202 175.524 105.962C176.123 105.444 176.577 104.779 176.84 104.034C177.369 102.478 177.633 100.844 177.619 99.2012C177.651 98.0317 177.619 96.8729 177.56 95.7195V95.2816C177.56 95.2069 177.56 95.1321 177.56 95.052C177.556 95.0094 177.556 94.9664 177.56 94.9238C177.572 94.8908 177.586 94.8587 177.603 94.8277L177.63 94.785C177.781 94.5661 177.88 94.3159 177.92 94.0534C177.983 93.5104 177.911 92.9604 177.71 92.4514C177.53 91.9414 177.232 91.4806 176.84 91.1057C176.65 90.9284 176.422 90.7952 176.174 90.7159C175.905 90.6465 175.636 90.5717 175.373 90.5077C174.311 90.2789 173.234 90.1307 172.149 90.0644C170.078 89.9071 167.997 89.9464 165.933 90.1819C165.809 90.1819 165.686 90.214 165.568 90.246L165.396 90.2834C165.358 90.2979 165.322 90.3158 165.288 90.3368C165.126 90.5121 164.981 90.7016 164.853 90.9028C164.597 91.2957 164.442 91.7449 164.402 92.2111C164.355 93.1289 164.608 94.0371 165.122 94.801L165.229 94.9666H165.041L148.203 97.1026C146.678 97.0256 145.149 97.0685 143.63 97.2307C143.093 97.2841 142.701 97.3429 142.432 97.3802C142.164 97.4176 142.029 97.4817 142.029 97.4817Z" fill="#263238"/>
<path d="M96.453 114.873L89.5965 102.63L219.281 30.8892C220.775 30.0627 222.539 29.8599 224.183 30.3255C225.828 30.7911 227.219 31.8869 228.05 33.3719L228.638 34.4217C229.47 35.9067 229.674 37.6592 229.206 39.2937C228.737 40.9282 227.635 42.3108 226.14 43.1373L96.4557 114.878L96.453 114.873Z" fill="#FF725E"/>
<path d="M205.2 50.1226L189.321 21.7676C189.244 21.6304 189.195 21.4794 189.177 21.3234C189.159 21.1673 189.172 21.0092 189.215 20.8582C189.258 20.7071 189.331 20.566 189.429 20.4429C189.527 20.3198 189.649 20.2171 189.787 20.1407L197.073 16.1101C197.211 16.0337 197.363 15.9851 197.52 15.967C197.677 15.949 197.836 15.9618 197.988 16.0049C198.14 16.0479 198.282 16.1203 198.406 16.2179C198.53 16.3154 198.633 16.4363 198.71 16.5735L214.589 44.9285L205.2 50.1226Z" fill="#FF725E"/>
<path d="M173.962 36.919L185.535 57.5844C186.002 58.4193 187.062 58.7195 187.902 58.2548L194.249 54.7436C195.09 54.2789 195.391 53.2253 194.924 52.3904L183.351 31.7249C182.883 30.89 181.823 30.5898 180.983 31.0546L174.636 34.5657C173.796 35.0305 173.494 36.084 173.962 36.919Z" fill="#FF725E"/>
<path d="M184.18 35.7121L191.344 48.5061L205.926 40.4397L198.761 27.6457L184.18 35.7121Z" fill="#FF725E"/>
<path d="M217.383 31.9652C217.421 32.0293 191.97 46.1803 160.549 63.5673C129.129 80.9544 103.597 94.9986 103.597 94.9292C103.597 94.8597 129.005 80.7141 160.437 63.3217C191.868 45.9293 217.346 31.8958 217.383 31.9652Z" fill="#263238"/>
<path d="M43.9318 138.525C53.4955 155.613 73.6598 162.555 88.9724 154.091C104.285 145.627 108.959 124.908 99.3957 107.841C89.832 90.7747 69.6731 83.8114 54.3552 92.2753C39.0372 100.739 34.3736 121.458 43.9318 138.525ZM91.1 112.434C97.8 124.395 94.5279 138.904 83.793 144.837C73.058 150.77 58.9328 145.905 52.2329 133.933C45.533 121.96 48.805 107.462 59.5346 101.524C70.2642 95.5861 84.4001 100.472 91.1 112.434Z" fill="#FF725E"/>
<path d="M111.427 90.4057L118.503 103.041C119.444 104.721 121.577 105.325 123.267 104.39L123.84 104.073C125.53 103.138 126.138 101.018 125.197 99.3377L118.121 86.7023C117.18 85.0222 115.047 84.4182 113.357 85.3534L112.784 85.6702C111.093 86.6054 110.486 88.7255 111.427 90.4057Z" fill="#FF725E"/>
<path d="M125.016 82.8876L132.092 95.523C133.033 97.2031 135.166 97.8071 136.857 96.8719L137.43 96.5551C139.12 95.6199 139.728 93.4998 138.787 91.8196L131.711 79.1842C130.77 77.5041 128.637 76.9001 126.946 77.8353L126.373 78.1521C124.683 79.0873 124.075 81.2075 125.016 82.8876Z" fill="#FF725E"/>
<path d="M117.97 86.5081C118.039 86.4707 119.678 89.3383 121.639 92.9161C123.6 96.4939 125.132 99.4095 125.062 99.4469C124.992 99.4842 123.353 96.622 121.392 93.0389C119.431 89.4557 117.9 86.5081 117.97 86.5081Z" fill="#263238"/>
<path d="M111.732 90.9136C111.802 90.8762 113.403 93.6156 115.315 97.0225C117.228 100.429 118.716 103.233 118.652 103.27C118.588 103.308 116.981 100.568 115.09 97.1881C113.199 93.8079 111.667 90.951 111.732 90.9136Z" fill="#263238"/>
<path d="M131.644 79.0695C131.713 79.0321 133.384 81.8836 135.378 85.4401C137.371 88.9965 138.929 91.9175 138.859 91.9549C138.789 91.9923 137.124 89.1353 135.131 85.5789C133.137 82.0225 131.579 79.1068 131.644 79.0695Z" fill="#263238"/>
<path d="M125.083 83.005C125.148 82.9676 126.786 85.8032 128.731 89.3382C130.676 92.8733 132.208 95.7462 132.138 95.805C132.068 95.8637 130.44 93.0068 128.49 89.4717C126.539 85.9367 125.013 83.0424 125.083 83.005Z" fill="#263238"/>
<path d="M164.053 63.7436C164.678 63.8169 165.309 63.656 165.822 63.2925C166.334 62.929 166.693 62.3887 166.827 61.777C166.961 61.1653 166.861 60.5258 166.547 59.9832C166.233 59.4406 165.727 59.0336 165.127 58.8415C165.515 58.4471 165.768 57.9416 165.85 57.3964C165.932 56.8513 165.84 56.2942 165.587 55.804C165.333 55.3138 164.93 54.9153 164.436 54.665C163.942 54.4147 163.381 54.3253 162.833 54.4093C162.81 53.8671 162.647 53.34 162.359 52.8791C162.071 52.4182 161.667 52.0392 161.188 51.7791C160.709 51.5189 160.17 51.3864 159.624 51.3944C159.078 51.4024 158.544 51.5507 158.073 51.8248C157.458 51.3255 156.693 51.0448 155.9 51.0274C155.106 51.0099 154.33 51.2568 153.694 51.7286C153.159 51.6273 152.606 51.6997 152.117 51.9353C151.627 52.1709 151.227 52.5571 150.975 53.0366C150.724 53.5161 150.634 54.0634 150.72 54.5973C150.807 55.1312 151.064 55.6233 151.453 56.0006" fill="#263238"/>
<path d="M153.151 54.217H153.688C156.397 54.2193 159.006 55.2354 160.995 57.0631C162.985 58.8908 164.209 61.396 164.423 64.08C164.826 69.2545 165.202 74.9736 165.159 77.7504C165.057 83.5176 159.287 84.372 159.287 84.372L159.754 91.282L145.715 90.8281L144.549 65.7835C144.055 59.808 147.133 54.5481 153.151 54.217Z" fill="#FFBF9D"/>
<path d="M159.335 84.372C156.649 84.3648 154.022 83.5919 151.765 82.1453C151.765 82.1453 153.624 86.4974 159.394 85.9954L159.335 84.372Z" fill="#FF9A6C"/>
<path d="M161.248 69.5001C161.249 69.714 161.166 69.92 161.017 70.0738C160.867 70.2276 160.663 70.3169 160.447 70.3225C160.342 70.3297 160.237 70.3162 160.138 70.2827C160.038 70.2492 159.946 70.1964 159.867 70.1274C159.788 70.0584 159.724 69.9745 159.678 69.8805C159.631 69.7866 159.605 69.6845 159.598 69.5802C159.598 69.3661 159.682 69.1603 159.831 69.006C159.98 68.8516 160.184 68.7608 160.399 68.7525C160.504 68.7453 160.61 68.7589 160.71 68.7928C160.81 68.8266 160.902 68.8798 160.981 68.9494C161.06 69.019 161.124 69.1035 161.17 69.1981C161.216 69.2926 161.242 69.3953 161.248 69.5001Z" fill="#263238"/>
<path d="M163.171 66.9049C163.069 67.0117 162.441 66.5525 161.56 66.5525C160.678 66.5525 160.018 66.9904 159.921 66.8836C159.824 66.7768 159.98 66.6433 160.265 66.435C160.65 66.1718 161.108 66.0337 161.576 66.0399C162.038 66.0379 162.488 66.184 162.86 66.4564C163.128 66.6646 163.22 66.8622 163.171 66.9049Z" fill="#263238"/>
<path d="M153.237 69.1156C153.241 69.3328 153.159 69.5429 153.008 69.7C152.857 69.8571 152.65 69.9484 152.431 69.954C152.326 69.9613 152.221 69.9477 152.121 69.9143C152.022 69.8808 151.93 69.828 151.851 69.759C151.772 69.6899 151.707 69.606 151.661 69.5121C151.615 69.4182 151.588 69.3161 151.582 69.2118C151.581 68.9973 151.663 68.7907 151.813 68.6361C151.963 68.4815 152.167 68.391 152.383 68.3841C152.487 68.376 152.592 68.3886 152.692 68.4211C152.791 68.4536 152.883 68.5053 152.963 68.5733C153.042 68.6413 153.107 68.7242 153.154 68.8173C153.201 68.9104 153.229 69.0117 153.237 69.1156Z" fill="#263238"/>
<path d="M154.435 67.0437C154.333 67.1505 153.704 66.6913 152.823 66.6913C151.942 66.6913 151.281 67.1292 151.185 67.0224C151.088 66.9156 151.244 66.7821 151.528 66.5738C151.914 66.3106 152.372 66.1725 152.839 66.1787C153.301 66.1767 153.752 66.3228 154.124 66.5952C154.392 66.8034 154.484 66.9957 154.435 67.0437Z" fill="#263238"/>
<path d="M157.637 73.6066C158.106 73.4601 158.592 73.374 159.083 73.3503C159.308 73.3503 159.523 73.2862 159.566 73.1313C159.585 72.8988 159.533 72.6661 159.416 72.4638L158.75 70.7443C157.825 68.2933 157.138 66.2801 157.256 66.2481C157.374 66.216 158.185 68.1651 159.11 70.6108C159.33 71.2143 159.545 71.791 159.749 72.341C159.888 72.6147 159.928 72.9279 159.862 73.2275C159.828 73.3066 159.777 73.377 159.711 73.4334C159.646 73.4899 159.569 73.5308 159.486 73.5532C159.362 73.5897 159.233 73.6077 159.104 73.6066C158.617 73.6671 158.124 73.6671 157.637 73.6066Z" fill="#263238"/>
<path d="M155.214 63.6475C155.096 63.8718 154.338 63.6475 153.398 63.5941C152.458 63.5407 151.674 63.717 151.588 63.482C151.55 63.3699 151.717 63.1723 152.055 62.9907C152.492 62.7763 152.976 62.677 153.463 62.7024C153.945 62.7193 154.414 62.8631 154.822 63.1189C155.128 63.3271 155.268 63.5461 155.214 63.6475Z" fill="#263238"/>
<path d="M163.225 63.2683C163.037 63.4659 162.301 63.2683 161.42 63.2683C160.539 63.2683 159.808 63.4018 159.62 63.1882C159.545 63.0868 159.663 62.8838 159.991 62.6969C160.442 62.4617 160.948 62.3493 161.457 62.3712C161.964 62.378 162.46 62.52 162.892 62.7824C163.204 62.9639 163.306 63.1669 163.225 63.2683Z" fill="#263238"/>
<path d="M163.875 61.4634C163.875 61.4634 162.36 57.8589 160.614 57.0152C158.502 55.9899 157.589 58.2914 155.574 57.7254C153.559 57.1594 151.545 56.1821 149.481 57.7254C147.225 59.4128 148.278 60.6036 148.127 63.1562C147.536 73.4944 145.624 76.4101 145.103 71.54C145.043 71.006 143.555 70.5788 143.34 68.336C143.061 65.415 142.959 61.8639 143.625 59.792C144.162 58.0458 145.189 56.839 146.988 55.52C149.836 53.4267 153.737 53.384 156.386 53.667C159.034 53.95 164.128 56.9564 163.875 61.4634Z" fill="#263238"/>
<path d="M145.468 71.3798C145.462 71.1689 145.413 70.9613 145.324 70.7697C145.235 70.5781 145.108 70.4064 144.95 70.2651C144.792 70.1239 144.607 70.0159 144.406 69.9477C144.205 69.8795 143.993 69.8526 143.781 69.8686C142.706 69.9701 141.497 70.5735 141.562 72.7896C141.675 76.7198 145.624 75.796 145.629 75.6785C145.634 75.5611 145.532 73.0246 145.468 71.3798Z" fill="#FFBF9D"/>
<path d="M144.721 74.226C144.721 74.226 144.657 74.2794 144.538 74.3328C144.378 74.406 144.195 74.4155 144.028 74.3595C143.767 74.2061 143.552 73.986 143.406 73.7221C143.259 73.4582 143.187 73.1602 143.195 72.859C143.175 72.5236 143.23 72.1879 143.356 71.8764C143.39 71.7533 143.454 71.6403 143.542 71.5472C143.63 71.4542 143.74 71.3839 143.861 71.3424C143.94 71.3186 144.025 71.3232 144.101 71.3554C144.176 71.3877 144.238 71.4455 144.275 71.5186C144.329 71.6254 144.307 71.7055 144.329 71.7108C144.35 71.7162 144.409 71.6414 144.372 71.4812C144.351 71.3838 144.293 71.298 144.211 71.2409C144.156 71.2013 144.095 71.1728 144.029 71.1572C143.964 71.1416 143.896 71.1392 143.829 71.1502C143.667 71.1864 143.518 71.2633 143.394 71.3737C143.271 71.4841 143.178 71.6241 143.125 71.7803C142.966 72.1243 142.894 72.5021 142.916 72.8803C142.964 73.6706 143.394 74.4022 143.99 74.5517C144.097 74.5796 144.208 74.583 144.316 74.5618C144.424 74.5405 144.526 74.4951 144.614 74.4289C144.721 74.3221 144.737 74.226 144.721 74.226Z" fill="#FF9A6C"/>
<path d="M145.57 63.7649C146.054 64.1568 146.628 64.4229 147.241 64.5392C147.549 64.5872 147.864 64.5227 148.127 64.3578C148.391 64.1929 148.586 63.9386 148.675 63.6421C148.724 63.3698 148.675 63.0494 148.837 62.8411C148.998 62.6328 149.454 62.6702 149.782 62.7076C150.932 62.8304 152.281 61.5702 152.576 60.4595C152.725 60.6725 152.951 60.8209 153.206 60.8745C153.462 60.928 153.728 60.8827 153.952 60.7478C154.317 60.5259 154.641 60.2422 154.908 59.9094C155.064 59.6976 155.269 59.5263 155.505 59.41C155.742 59.2938 156.003 59.2362 156.267 59.2419C156.545 59.3375 156.834 59.4002 157.127 59.4288C157.664 59.3861 157.901 58.7827 157.981 58.2701C158.062 57.7574 158.126 57.1647 158.567 56.887C159.019 56.7109 159.519 56.6977 159.98 56.8496C160.458 56.9244 161.054 56.8122 161.2 56.3477C161.219 56.2235 161.214 56.0967 161.183 55.9747C161.153 55.8527 161.098 55.738 161.022 55.6374C160.703 55.1611 160.231 54.806 159.683 54.6296C159.134 54.4532 158.543 54.4659 158.003 54.6656C157.813 54.0084 157.43 53.4223 156.903 52.982C156.377 52.5417 155.731 52.2671 155.047 52.1933C154.363 52.1194 153.672 52.2495 153.063 52.5671C152.453 52.8847 151.953 53.3754 151.625 53.9767C151.207 53.5958 150.702 53.3211 150.153 53.1761C149.605 53.031 149.029 53.0199 148.476 53.1437C147.922 53.2675 147.407 53.5225 146.974 53.887C146.541 54.2515 146.203 54.7146 145.989 55.2369C145.505 55.1087 144.994 55.1247 144.52 55.2829C144.045 55.4411 143.628 55.7345 143.32 56.1267C143.012 56.5188 142.826 56.9924 142.787 57.4884C142.748 57.9844 142.856 58.4809 143.098 58.9162C142.73 59.0969 142.414 59.3676 142.18 59.703C141.946 60.0383 141.802 60.4272 141.761 60.8333C141.761 61.6449 142.54 62.4353 143.329 62.243C143.166 62.5629 143.131 62.9329 143.233 63.2771C143.335 63.6214 143.566 63.9137 143.878 64.0941C144.191 64.2745 144.56 64.3293 144.912 64.2472C145.263 64.1652 145.57 63.9525 145.769 63.6528" fill="#263238"/>
<path d="M158.293 55.8191C158.293 55.8191 158.293 55.8191 158.293 55.8939C158.293 55.9686 158.293 56.0113 158.266 56.1021C158.21 56.3686 158.113 56.6246 157.976 56.8604C157.758 57.2299 157.458 57.5457 157.1 57.7842C156.627 58.1052 156.061 58.2645 155.488 58.2381L155.553 58.1527C155.669 58.5053 155.64 58.8892 155.472 59.2207C155.295 59.572 155.066 59.8958 154.795 60.1819C154.663 60.3487 154.514 60.5009 154.349 60.6358C154.057 60.8269 153.706 60.9087 153.358 60.8666C153.011 60.8246 152.69 60.6614 152.453 60.4062L152.598 60.3634C152.542 60.7715 152.401 61.1634 152.184 61.5139C151.966 61.8643 151.677 62.1655 151.335 62.398C150.959 62.6756 150.503 62.8237 150.035 62.8198C149.596 62.796 149.164 62.7004 148.756 62.5368L148.863 62.4888C148.656 62.9643 148.333 63.3809 147.923 63.7009C147.736 63.8603 147.515 63.976 147.277 64.0398C147.039 64.1035 146.79 64.1137 146.548 64.0694C146.132 63.9796 145.752 63.771 145.454 63.4693C145.157 63.1676 144.954 62.7859 144.871 62.3713L144.963 62.414C144.545 62.6292 144.065 62.697 143.603 62.6062C143.259 62.541 142.936 62.3965 142.658 62.1844C142.485 62.0497 142.336 61.8872 142.217 61.7038C142.174 61.6401 142.141 61.5697 142.121 61.4955C142.271 61.7411 142.466 61.9566 142.695 62.131C142.969 62.3278 143.286 62.4577 143.62 62.5101C144.058 62.5927 144.512 62.5209 144.904 62.3072L144.979 62.2645V62.3499C145.06 62.7358 145.253 63.0898 145.534 63.3687C145.814 63.6475 146.17 63.839 146.559 63.9199C146.78 63.9583 147.007 63.9471 147.224 63.8871C147.441 63.827 147.641 63.7196 147.81 63.5728C148.195 63.2686 148.498 62.8741 148.692 62.4247L148.724 62.3553H148.799C149.188 62.5107 149.6 62.6009 150.019 62.6223C150.452 62.6257 150.874 62.4889 151.222 62.2324C151.544 62.0128 151.816 61.7289 152.022 61.3988C152.227 61.0687 152.361 60.6997 152.415 60.3154V60.1285L152.539 60.2727C152.678 60.4261 152.854 60.5432 153.049 60.6139C153.245 60.6847 153.455 60.7068 153.661 60.6785C153.854 60.653 154.038 60.5835 154.199 60.4756C154.354 60.3513 154.495 60.2098 154.618 60.0537C154.884 59.7813 155.108 59.4719 155.284 59.1352C155.363 58.9853 155.412 58.8212 155.426 58.6525C155.441 58.4839 155.422 58.3139 155.37 58.1527L155.338 58.0566H155.44C155.989 58.0904 156.534 57.9461 156.993 57.6454C157.345 57.4198 157.643 57.1187 157.863 56.7643C158.061 56.4769 158.207 56.1569 158.293 55.8191Z" fill="#455A64"/>
<path d="M157.627 76.5383C157.594 76.3941 156.633 76.6291 155.741 75.9776C154.849 75.3261 154.704 74.2795 154.569 74.3062C154.435 74.3329 154.435 74.5838 154.532 75.0164C154.664 75.5807 154.994 76.0802 155.461 76.4261C155.908 76.7571 156.467 76.9026 157.019 76.832C157.433 76.7679 157.648 76.6024 157.627 76.5383Z" fill="#263238"/>
<path d="M187.424 225.946L191.239 238.864C191.239 238.864 205.746 239.344 206.675 241.667L181.713 249.912L174.933 230.021L187.424 225.946Z" fill="#455A64"/>
<path d="M183.169 240.343C182.954 240.495 182.802 240.721 182.744 240.977C182.685 241.233 182.724 241.502 182.852 241.731C182.997 241.951 183.22 242.107 183.477 242.168C183.734 242.228 184.005 242.189 184.233 242.057C184.461 241.895 184.621 241.655 184.682 241.383C184.742 241.11 184.699 240.826 184.561 240.583C184.386 240.369 184.134 240.231 183.859 240.197C183.583 240.163 183.305 240.236 183.083 240.402" fill="#E0E0E0"/>
<path d="M205.268 240.733C205.268 240.733 206.541 240.845 206.675 241.667L181.713 249.912L181.111 247.878L205.246 240.722" fill="#263238"/>
<path d="M191.599 238.602C191.637 238.725 191.062 238.981 190.578 239.569C190.095 240.156 189.96 240.77 189.831 240.759C189.702 240.749 189.654 239.99 190.234 239.291C190.815 238.591 191.588 238.484 191.599 238.602Z" fill="white"/>
<path d="M194.576 238.81C194.645 238.922 194.189 239.301 193.942 239.948C193.695 240.594 193.764 241.181 193.641 241.213C193.517 241.245 193.211 240.588 193.528 239.787C193.845 238.986 194.538 238.698 194.576 238.81Z" fill="white"/>
<path d="M197.106 241.432C197.004 241.496 196.633 240.946 196.725 240.183C196.816 239.419 197.294 238.96 197.38 239.045C197.466 239.131 197.23 239.579 197.165 240.231C197.101 240.882 197.224 241.368 197.106 241.432Z" fill="white"/>
<path d="M190.401 235.756C190.401 235.884 189.772 235.9 189.101 236.172C188.429 236.445 187.962 236.84 187.865 236.76C187.768 236.68 188.139 236.076 188.94 235.761C189.74 235.446 190.433 235.638 190.401 235.756Z" fill="white"/>
<path d="M129.215 226.058L123.783 238.394C123.783 238.394 134.577 248.006 133.798 250.398L109.352 240.786L117.019 221.22L129.215 226.058Z" fill="#455A64"/>
<path d="M116.643 234.373C116.38 234.352 116.118 234.428 115.908 234.587C115.698 234.745 115.554 234.975 115.504 235.232C115.473 235.493 115.545 235.755 115.702 235.966C115.86 236.176 116.093 236.319 116.352 236.364C116.632 236.385 116.908 236.303 117.13 236.133C117.352 235.964 117.504 235.719 117.556 235.446C117.556 234.912 117.067 234.303 116.54 234.378" fill="#E0E0E0"/>
<path d="M133.32 248.785C133.32 248.785 134.222 249.688 133.798 250.387L109.352 240.775L110.206 238.837L133.309 248.769" fill="#263238"/>
<path d="M124.224 238.426C124.175 238.543 123.557 238.362 122.816 238.511C122.074 238.661 121.564 239.045 121.473 238.949C121.381 238.853 121.833 238.244 122.73 238.079C123.627 237.913 124.299 238.324 124.224 238.426Z" fill="white"/>
<path d="M126.373 240.487C126.373 240.61 125.76 240.61 125.153 240.952C124.546 241.293 124.224 241.779 124.079 241.731C123.933 241.683 124.154 240.978 124.911 240.567C125.669 240.156 126.416 240.375 126.373 240.487Z" fill="white"/>
<path d="M126.62 244.107C126.502 244.107 126.572 243.435 127.157 242.906C127.743 242.377 128.382 242.335 128.393 242.452C128.404 242.57 127.92 242.783 127.463 243.226C127.007 243.67 126.743 244.145 126.62 244.107Z" fill="white"/>
<path d="M125.153 235.494C125.062 235.579 124.578 235.206 123.885 234.96C123.192 234.714 122.585 234.746 122.563 234.624C122.542 234.501 123.214 234.271 124.025 234.538C124.836 234.805 125.25 235.409 125.153 235.494Z" fill="white"/>
<path d="M138.365 158.294L129.801 192.822C129.801 192.822 114.354 218.668 111.737 231.601L125.868 237.123C125.868 237.123 136.146 212.212 139.16 207.641C140.516 205.592 142.075 203.683 143.813 201.943C144.943 200.829 145.754 199.435 146.161 197.906L152.646 173.272L138.365 158.294Z" fill="#263238"/>
<path d="M134.717 152.772C134.717 152.772 135.91 162.021 144.866 166.122L163.736 196.667C163.736 196.667 165.213 206.599 168.034 214.967C170.855 223.335 176.555 239.462 176.555 239.462L192.077 233.695L182.186 200.085L180.574 188.427L165.175 149.445L151.948 141.563L134.717 152.772Z" fill="#263238"/>
<path d="M134.717 152.772L135.002 152.58L135.856 152.014L139.209 149.814L151.921 141.51L151.964 141.483L152.007 141.51L165.245 149.376V149.408L180.676 188.353V188.379C181.187 192.064 181.751 196.01 182.288 200.036C184.974 209.114 187.822 218.828 190.766 228.835C191.243 230.448 191.716 232.05 192.185 233.641L192.222 233.764L192.099 233.807L176.577 239.574L176.442 239.622L176.399 239.488C173.713 231.74 171.112 224.28 168.657 217.205C168.039 215.437 167.432 213.686 166.927 211.934C166.422 210.182 165.965 208.442 165.552 206.722C164.735 203.283 164.079 199.924 163.564 196.667V196.71L144.802 166.154L144.834 166.181C142.565 165.126 140.549 163.6 138.924 161.706C137.732 160.315 136.755 158.757 136.022 157.082C135.569 156.047 135.21 154.975 134.948 153.878C134.856 153.514 134.803 153.231 134.771 153.039C134.738 152.847 134.733 152.751 134.733 152.751C134.733 152.751 134.733 152.847 134.792 153.034C134.851 153.221 134.883 153.504 134.985 153.872C135.263 154.955 135.633 156.013 136.092 157.033C136.834 158.692 137.815 160.233 139.004 161.61C140.636 163.484 142.651 164.992 144.914 166.031L163.822 196.555V196.582C164.359 199.828 165.004 203.182 165.82 206.615C166.234 208.33 166.685 210.065 167.196 211.811C167.706 213.557 168.308 215.298 168.926 217.066C171.392 224.141 173.987 231.601 176.684 239.344L176.507 239.264L192.029 233.497L191.943 233.662C191.477 232.071 191.005 230.469 190.525 228.856L182.057 200.053C181.52 196.026 180.95 192.08 180.445 188.395V188.427L165.073 149.445L165.116 149.493L151.899 141.596H151.98L139.268 149.862L135.883 152.03L135.012 152.591L134.717 152.772Z" fill="#455A64"/>
<path d="M143.029 86.7857C143.029 86.7857 138.505 90.246 136.307 94.1122C133.674 98.742 133.39 105.604 133.309 116.263C133.229 126.12 134.711 128.86 134.142 132.576C133.019 139.833 132.186 164.189 132.186 164.189C132.186 164.189 146.693 158.651 149.508 156.179L152.34 153.733L170.495 159.698L166.83 137.526L164.316 109.892L161.092 95.2336L160.555 89.4824L144.963 83.256L143.029 86.7857Z" fill="#455A64"/>
<path d="M159.969 89.178C160.157 89.2154 159.523 90.481 158.406 92.3393L158.357 92.4141L158.271 92.382C156.697 91.7733 154.612 91.0096 152.334 90.1819C149.766 89.2528 147.445 88.3877 145.785 87.7149C144.952 87.3784 144.286 87.0954 143.829 86.8872C143.587 86.7939 143.353 86.6796 143.131 86.5454C143.386 86.6019 143.634 86.6842 143.872 86.791L145.855 87.5333L152.431 89.9203C154.709 90.748 156.788 91.5223 158.341 92.1844L158.212 92.2272C159.384 90.4062 160.077 89.2047 159.969 89.178Z" fill="#263238"/>
<path d="M178.731 77.665C178.731 77.665 177.581 75.8868 176.496 74.2474C175.411 72.608 173.767 71.8017 173.503 70.9473C173.24 70.0929 171.795 66.2855 171.564 65.3403C171.363 64.4249 171.269 63.4896 171.284 62.5528C171.284 62.5528 172.472 62.0508 173.041 63.7383C173.385 64.7529 174.481 68.1972 174.718 68.3681C174.954 68.5389 175.255 68.288 175.255 68.288C174.767 66.9983 174.345 65.6848 173.992 64.3524C173.939 63.7276 174.159 59.5838 174.159 59.5838C174.453 59.5247 174.76 59.5725 175.022 59.7185C175.284 59.8645 175.485 60.0989 175.588 60.3794C176.152 61.4474 176.174 64.1174 176.174 64.1174L177.028 67.0971L176.727 64.1495L177.157 58.7294C177.574 58.7885 177.963 58.974 178.271 59.2607C178.579 59.5473 178.79 59.9211 178.876 60.3314C179.236 61.7945 178.758 63.8344 179 64.2669C179.242 64.6995 179.505 67.3161 179.505 67.3161C179.505 67.3161 179.8 60.9615 180.483 60.7799C181.165 60.5984 181.724 61.2712 181.627 62.5528C181.53 63.8344 181.504 66.5471 181.858 67.7433C182.213 68.9394 185.85 73.6173 185.555 75.6678C185.374 76.9068 185.261 78.1547 185.216 79.4058H178.984L178.731 77.665Z" fill="#FFBF9D"/>
<path d="M156.869 93.669C157.218 93.8025 172.106 97.4657 172.106 97.4657C172.106 97.4657 175.432 92.1257 175.921 90.5771C176.41 89.0285 179.027 78.7117 179.027 78.7117L185.318 78.1243C185.318 78.1243 183.706 104.766 181.428 106.202C179.15 107.638 175.518 108.365 175.282 108.285C175.045 108.204 159.19 109.299 150.835 102.758C142.481 96.2162 156.869 93.669 156.869 93.669Z" fill="#FFBF9D"/>
<g opacity="0.3">
<path d="M146.199 107.772C147.796 109.57 149.928 110.815 152.286 111.328C156.235 112.193 164.644 113.726 164.644 113.726L164.235 109.625L145.968 107.681" fill="black"/>
</g>
<path d="M139.568 102.133C140.922 104.974 143.931 108.007 150.545 108.696C163.639 110.041 173.552 110.757 177.834 110.116C182.116 109.475 183.819 100.467 184.281 100.189C185.614 99.356 185.528 96.4938 184.378 95.6394C181.111 93.2097 174.562 91.3674 174.121 91.565C171.515 92.8519 172.364 95.8637 172.364 95.8637L155.762 92.2218C153.85 91.4313 151.855 90.8546 149.814 90.5023" fill="#455A64"/>
<path d="M149.814 90.5023C149.814 90.5023 149.954 90.5023 150.223 90.5557C150.491 90.6091 150.894 90.6732 151.41 90.7854C152.908 91.1229 154.374 91.5838 155.794 92.1631L172.386 95.7516L172.246 95.9011C172 94.9547 172.076 93.9542 172.461 93.0549C172.673 92.5944 172.994 92.1914 173.396 91.8801C173.6 91.7222 173.817 91.5828 174.046 91.4635C174.125 91.4403 174.206 91.4277 174.288 91.4262H174.487C174.621 91.4262 174.739 91.4689 174.868 91.4902C176.91 91.9701 178.901 92.6406 180.816 93.4927C181.825 93.9296 182.8 94.4401 183.733 95.02C183.964 95.1695 184.195 95.335 184.426 95.4952C184.665 95.6757 184.86 95.9075 184.996 96.1734C185.258 96.6978 185.394 97.2754 185.393 97.8609C185.407 98.4533 185.274 99.0401 185.007 99.5697C184.858 99.8428 184.649 100.079 184.394 100.259C184.33 100.291 184.287 100.429 184.233 100.558L184.093 100.958C183.739 102.026 183.384 103.169 182.954 104.269C182.391 105.846 181.567 107.319 180.515 108.626C180.134 109.123 179.647 109.531 179.09 109.82C178.533 110.11 177.919 110.275 177.291 110.303C176.888 110.362 176.485 110.372 176.088 110.405C174.476 110.501 172.928 110.479 171.397 110.437C169.866 110.394 168.367 110.314 166.911 110.223C161.071 109.849 155.832 109.321 151.437 108.867C150.387 108.775 149.343 108.625 148.31 108.418C147.393 108.223 146.495 107.952 145.624 107.606C144.212 107.062 142.919 106.253 141.814 105.225C141.124 104.569 140.531 103.819 140.052 102.998C139.88 102.716 139.731 102.422 139.606 102.117C139.606 102.117 139.757 102.421 140.1 102.971C140.597 103.772 141.199 104.502 141.89 105.145C142.994 106.151 144.281 106.937 145.683 107.462C146.555 107.797 147.454 108.059 148.369 108.247C149.4 108.443 150.44 108.584 151.485 108.669C155.88 109.102 161.119 109.609 166.948 109.972C168.41 110.057 169.904 110.132 171.429 110.17C172.955 110.207 174.519 110.228 176.098 110.138C176.491 110.1 176.894 110.089 177.286 110.031C177.677 110.01 178.064 109.937 178.436 109.812C179.178 109.527 179.833 109.056 180.338 108.445C181.367 107.163 182.173 105.719 182.723 104.173C183.153 103.105 183.502 101.978 183.857 100.878L184.007 100.461C184.007 100.397 184.061 100.328 184.093 100.253C184.113 100.212 184.136 100.173 184.163 100.136C184.184 100.11 184.207 100.087 184.233 100.066L184.271 100.034C184.494 99.8808 184.677 99.6779 184.808 99.4415C185.059 98.9454 185.181 98.3946 185.162 97.8395C185.164 97.2992 185.041 96.7658 184.802 96.2802C184.685 96.0509 184.518 95.8503 184.314 95.6928C184.082 95.538 183.862 95.3724 183.631 95.2282C182.711 94.6526 181.748 94.1474 180.751 93.717C178.858 92.8687 176.888 92.2 174.868 91.7199C174.744 91.7199 174.621 91.6665 174.503 91.6558H174.325H174.207C173.996 91.7681 173.794 91.8985 173.605 92.0456C173.231 92.3262 172.931 92.6926 172.73 93.1136C172.374 93.9583 172.3 94.8943 172.52 95.7836L172.568 95.9705L172.38 95.9278L155.816 92.2432C154.408 91.6547 152.957 91.1762 151.475 90.8121C150.937 90.6892 150.567 90.6038 150.298 90.5504C150.029 90.497 149.814 90.5023 149.814 90.5023Z" fill="#263238"/>
<path d="M177.834 101.017C177.452 100.923 177.089 100.766 176.759 100.552C175.935 100.095 175.177 99.5315 174.503 98.8754C173.825 98.2218 173.233 97.4862 172.74 96.686C172.516 96.3582 172.344 95.9979 172.23 95.618C172.966 96.6967 173.791 97.7129 174.696 98.6565C175.669 99.5349 176.719 100.325 177.834 101.017Z" fill="#263238"/>
<path d="M60.9423 144.997C60.9423 144.997 64.2734 145.173 66.3151 146.46C68.3568 147.747 71.688 149.734 73.058 152.211C73.6867 153.349 71.8975 153.589 71.0164 152.927C70.1352 152.265 68.7759 151.026 68.1043 150.871L67.4327 150.722C68.045 152.099 68.7283 153.445 69.4797 154.753C70.1728 155.821 70.7746 157.594 68.6953 157.68C68.6953 157.68 67.2876 159.495 65.8692 158.149C65.8692 158.149 64.7624 159.794 62.9786 157.514C62.9786 157.514 61.9416 158.817 61.5064 158.32C61.0712 157.824 59.6528 157.028 59.2391 155.394C58.6218 153.491 57.9044 151.621 57.09 149.792L60.9423 144.997Z" fill="#FFBF9D"/>
<path d="M32.5952 101.46C30.8876 102.007 29.4139 103.107 28.4097 104.584C27.131 106.538 26.7388 109.924 27.1041 112.444C27.8778 117.758 30.3278 126.724 31.7086 132.48C32.1814 134.467 33.1539 138.023 36.0069 139.908L56.3646 152.041L61.8073 144.031L43.2495 128.998L39.5798 108.397L32.5952 101.46Z" fill="#455A64"/>
<path d="M29.0759 121.709C29.1039 121.777 29.1254 121.846 29.1404 121.918L29.3123 122.542C29.4574 123.108 29.6616 123.92 29.9302 124.961C30.4675 127.097 31.2305 130.13 32.1814 133.906C32.7336 135.962 33.9031 137.803 35.5341 139.182C36.4658 139.923 37.4619 140.581 38.5107 141.147L41.7827 143.112L56.4452 151.912L56.2572 151.955L58.2182 149.066L61.6999 143.924L61.7267 144.111L43.3355 129.057H43.3032V129.02C42.089 123.941 41.2078 119.782 40.649 116.887C40.375 115.44 40.1816 114.313 40.058 113.544C40.0043 113.171 39.9613 112.877 39.9291 112.669C39.8968 112.46 39.8915 112.37 39.8915 112.37C39.9207 112.466 39.944 112.564 39.9613 112.663C39.9989 112.872 40.0527 113.16 40.1171 113.534C40.2622 114.297 40.4717 115.424 40.7726 116.866C41.3583 119.75 42.2716 123.899 43.5128 128.972L43.4752 128.913L61.8986 143.897L61.9954 143.977L61.9255 144.079L58.4439 149.221L56.4828 152.11L56.413 152.217L56.2948 152.153L41.6538 143.326L38.3871 141.355C37.3314 140.783 36.3282 140.12 35.389 139.374C33.7298 137.962 32.5465 136.077 31.9988 133.975C31.08 130.189 30.3439 127.129 29.8496 125.009C29.6079 123.941 29.4144 123.146 29.2801 122.58L29.1243 121.923C29.1032 121.853 29.087 121.782 29.0759 121.709Z" fill="#263238"/>
<path d="M29.4091 104.306C29.5354 104.224 29.6755 104.164 29.8228 104.13C30.2128 104.01 30.6116 103.921 31.0155 103.863C32.3632 103.657 33.7421 103.842 34.9861 104.397C36.1883 105.02 37.2095 105.939 37.9519 107.067C38.177 107.408 38.3575 107.776 38.4892 108.162C38.5469 108.299 38.5796 108.446 38.5859 108.594C38.3537 108.104 38.0861 107.631 37.7853 107.179C37.0205 106.127 36.0199 105.266 34.8625 104.664C33.6621 104.135 32.342 103.933 31.037 104.077C30.0323 104.157 29.4252 104.354 29.4091 104.306Z" fill="#263238"/>
</svg>
