<svg width="68" height="69" viewBox="0 0 68 69" fill="none" xmlns="http://www.w3.org/2000/svg">
<path d="M33.8845 39.5397L40.3487 43.5985C43.0451 45.2857 40.7486 43.761 45.324 46.9158C47.1843 48.1984 49.5729 49.7739 50.946 50.9211C51.7635 51.6035 68.3596 63.6209 67.4581 66.6132C66.5547 69.6229 64.3707 69.3211 55.8256 64.8735C53.9784 63.9126 55.3967 64.7341 51.5693 62.6603C51.0898 62.3992 50.6006 62.1458 50.1233 61.8814C49.5916 61.5863 49.0675 61.2727 48.5401 60.9711C48.1375 60.7414 47.7264 60.5249 47.326 60.2919C46.7726 59.9733 46.2202 59.646 45.6732 59.3176C45.2011 59.0379 44.7366 58.7539 44.2688 58.4677C42.8958 57.6336 41.2509 56.697 41.2509 56.697C41.2509 56.697 41.3782 56.8221 38.4537 55.1217C35.7723 53.561 37.528 54.7193 33.6108 52.3205C33.3817 52.1806 28.2892 49.0859 27.8573 48.8231C27.7704 48.7712 27.6826 48.7279 27.6034 48.6857C27.5158 48.8201 27.455 48.9348 27.3714 49.0345C26.6183 49.955 23.992 48.5377 19.7331 46.5706C14.2589 44.0402 13.9456 44.051 8.40242 42.9152C2.64389 41.7325 -0.345368 42.1536 -3.12869 42.209C-3.16004 42.2072 -3.19027 42.2109 -3.22264 42.2178C-5.53104 42.7977 -9.78968 42.6672 -10.1062 42.6759C-12.7695 42.7534 -16.2578 41.6903 -19.1871 38.7156C-20.464 37.4208 -22.0196 32.8084 -22.1838 31.7574C-22.2892 31.0718 -22.3288 30.3777 -22.4126 29.6875C-22.8053 26.4593 -22.2244 25.4967 -21.6419 24.2827C-21.4535 23.8867 -21.2292 23.5142 -20.9442 23.1765C-19.7794 21.8093 -20.1019 21.286 -16.883 21.0892C-16.5741 21.0709 -16.2627 21.0916 -15.9558 21.0907C-15.1777 21.0931 -14.4018 21.0987 -13.627 21.099C-12.8922 21.0965 -12.1563 21.0854 -11.4215 21.083C-11.1849 21.083 -10.9459 21.1079 -10.7092 21.1079C-9.95923 21.1107 -9.22972 21.273 -8.49929 21.4126C-4.80602 22.1185 -4.71416 22.8748 -2.1179 25.5202C-1.16429 26.4922 -0.230825 27.0679 1.5499 28.2518C1.92884 28.5035 2.33558 28.7125 2.69416 28.9883C3.40593 29.5409 4.17543 30.0051 4.96091 30.4375C6.02192 31.0169 7.09678 31.5679 8.16848 32.1308C8.7911 32.4572 9.41372 32.7835 10.0321 33.1164C10.3684 33.2982 10.6801 33.5248 11.0217 33.6913C12.2124 34.2711 13.4041 34.8421 14.6022 35.4033C15.2203 35.694 15.8489 35.9541 16.4765 36.223C16.8375 36.3741 17.208 36.5034 17.5689 36.6545C18.9714 37.2368 19.3108 37.3925 19.7659 37.7266C19.9289 37.8468 20.0867 37.9964 20.1873 38.1695C20.4838 38.6758 20.6809 38.5799 22.2984 38.7041C22.1024 38.3427 21.8869 37.9826 21.7016 37.6048C21.6007 37.4035 21.4529 37.2885 21.2496 37.2729C20.4712 37.2142 19.9411 36.6817 18.5637 35.3774C18.0001 34.8466 17.4483 34.3047 16.8859 33.7792C16.1766 33.116 15.4694 32.4494 14.6936 31.8597C14.3252 31.5776 13.99 31.2516 13.6378 30.9519C13.3377 30.7003 13.0301 30.4531 12.7215 30.2146C12.1912 29.8035 11.6513 29.4002 11.121 28.9892C10.6385 28.6186 10.1549 28.2427 9.67888 27.8624C8.38663 26.8332 7.59395 26.1483 4.14395 23.9512C3.2744 23.3985 2.41982 22.8229 1.47545 22.385C0.655767 22.005 -0.167989 21.6597 -1.03847 21.4289C-1.38709 21.3372 -1.73276 21.2054 -2.0431 21.0265C-2.53035 20.7416 -2.98665 20.4022 -3.45251 20.0845C-3.63929 19.9581 -3.81334 19.7979 -4.01609 19.7032C-4.53114 19.461 -4.89806 19.077 -5.1868 18.5944C-5.32898 18.3568 -5.52604 18.1536 -5.69296 17.9327C-6.28654 17.1345 -6.82739 16.3054 -7.22085 15.3853C-7.62642 14.434 -8.03525 13.4806 -8.45161 12.5316C-8.72955 11.8971 -9.03335 11.2738 -9.31669 10.6405C-9.45948 10.3185 -9.57855 9.98849 -9.70302 9.65968C-9.80663 9.37719 -9.8973 9.0891 -9.98472 8.80313C-10.6309 6.6902 -8.1585 3.51607 -5.99655 2.55572C-1.75346 0.666455 0.172791 0.744191 2.11422 0.677596C2.45562 0.666434 2.79264 0.647742 3.13628 0.647385C4.99169 0.641564 4.66485 0.573421 7.17927 1.59997C7.67131 1.79915 8.12059 2.06392 8.57842 2.31557C8.74657 2.40647 8.88275 2.56066 9.02312 2.6942C10.6331 4.1828 10.6718 4.00239 12.3264 6.44073C12.6552 6.92605 13.48 8.47305 14.4716 11.5869C14.6728 12.2181 14.8708 12.8471 15.1215 13.4592C15.2073 13.6693 15.2639 13.8744 15.3173 14.0915C15.3863 14.3702 15.5222 14.6316 15.6311 14.8989C15.7499 15.1866 15.8729 15.4677 15.9863 15.7566C16.2703 16.4885 16.5328 17.2251 16.8298 17.9514C17.0057 18.3792 17.2195 18.7989 17.4375 19.212C17.8471 19.979 18.2514 20.7472 18.7008 21.4888C19.2575 22.4077 19.8367 23.3133 20.4428 24.199C20.9538 24.9387 21.5207 25.6353 22.0544 26.3616C22.6764 27.2157 21.6426 25.897 23.9587 28.958C24.3514 29.4804 24.843 29.9082 25.299 30.369C25.8085 30.8833 26.3404 31.3702 26.8723 31.8571C27.6653 32.5842 28.4614 33.2994 29.263 34.0134C29.8187 34.5064 30.3927 34.9786 30.9399 35.4848C30.9399 35.4848 30.8018 35.3762 33.2579 37.7526C34.4144 38.8476 34.0465 39.234 33.8845 39.5397ZM-20.8923 24.0936C-23.1462 27.1531 -21.5705 35.4659 -18.4345 38.636C-16.2748 40.8193 -12.7192 41.9216 -10.7795 42.0642C-10.3903 42.0935 -9.99607 42.0654 -9.60479 42.0774C-9.30431 42.0863 -9.00801 42.1158 -8.7117 42.1454C-5.69907 42.4218 4.89066 40.3928 15.3493 44.3537C21.1486 46.5491 29.3651 51.5863 26.6269 47.5352C18.9509 36.186 19.0835 37.6416 15.8988 36.2764C15.0912 35.9276 14.2762 35.5974 13.4846 35.217C12.4425 34.7155 11.4186 34.179 10.3903 33.649C9.6929 33.2879 9.00401 32.9137 8.30546 32.5472C7.53748 32.1449 6.76412 31.7436 6.00042 31.3347C5.6457 31.1456 5.30594 30.9335 4.95437 30.7324C4.76556 30.6233 4.58001 30.5164 4.38906 30.4107C3.80756 30.0924 3.24428 29.7534 2.72691 29.3367C2.4063 29.081 2.04282 28.8769 1.69543 28.6551C1.35456 28.4376 1.01266 28.2288 0.673919 28.0081C-5.02633 24.2509 -3.37028 21.9093 -11.2567 21.4708C-11.7842 21.4401 -12.3045 21.3768 -12.8333 21.4761C-13.0448 21.5158 -13.2675 21.5015 -13.4847 21.5001C-13.8986 21.5015 -14.3126 21.4887 -14.7264 21.49C-14.8615 21.4908 -14.9943 21.5023 -15.1283 21.5085C-15.3433 21.5179 -15.5571 21.5328 -15.7722 21.5281C-19.0448 21.4655 -19.0607 21.8103 -20.8923 24.0936ZM-9.54801 8.21851C-9.48707 8.73023 -9.4077 9.24929 -9.24538 9.73363C-9.09182 10.2029 -8.82831 10.6317 -8.61112 11.0817C-8.54313 11.2195 -8.46649 11.3582 -8.41144 11.5016C-8.32442 11.7312 -8.26326 11.972 -8.16759 12.2026C-7.94878 12.7284 -7.68579 13.2363 -7.49609 13.7712C-7.3417 14.2036 -7.19281 14.6231 -6.95547 15.0208C-6.56505 15.6679 -6.23275 16.3471 -5.83805 16.9875C-5.50239 17.5334 -5.13873 18.0649 -4.75685 18.5755C-4.15563 19.3832 -3.41291 20.0309 -2.49236 20.4626C-2.28309 20.5616 -2.09296 20.7042 -1.88155 20.7999C-1.34382 21.0429 -0.78389 21.2162 -0.213267 21.3732C0.596652 21.5973 1.33337 22.012 2.08914 22.369C2.30492 22.4723 2.52712 22.5657 2.71511 22.7116C3.14322 23.0373 3.6322 23.2625 4.07415 23.5599C8.73008 26.6551 6.27007 24.7761 11.579 28.9699C12.2126 29.4716 12.8612 29.9504 13.4894 30.4533C13.8372 30.7314 14.155 31.0413 14.4931 31.3271C16.2282 32.7804 14.8268 31.4558 18.5867 34.9718C19.8726 36.1745 20.1746 36.5442 20.6308 36.72L24.9114 37.7994C25.3607 37.9146 25.8069 38.0559 26.2582 38.1538C27.1046 38.3362 27.9594 38.4914 28.8089 38.6619C31.5143 39.196 34.2698 39.931 33.6492 38.676C33.4748 38.324 33.1995 38.0558 32.9275 37.7897C32.3822 37.252 31.8284 36.7275 31.2735 36.1976C30.8241 35.7692 30.3726 35.3441 29.9147 34.9288C29.72 34.7505 26.7047 32.1498 25.5622 31.0546C24.8626 30.3837 24.2036 29.6645 23.5598 28.9364C22.9344 28.2297 22.1447 26.9066 21.845 26.5476C21.0645 25.609 20.3668 24.6075 19.6745 23.6049C19.3808 23.1797 19.1193 22.7336 18.8524 22.2886C18.6075 21.8813 18.3776 21.465 18.1509 21.0509C17.7031 20.2357 17.2273 19.4349 16.8225 18.5962C16.5165 17.9621 16.3063 17.2877 16.0466 16.6324C15.9002 16.266 15.7388 15.9084 15.5925 15.542C15.2732 14.7217 14.9647 13.8991 14.6433 13.0821C14.465 12.6294 14.2587 12.1912 14.0729 11.7429C14.0267 11.6287 14.0063 11.5033 13.9731 11.3835C13.4352 9.46735 12.6182 8.55633 12.3654 7.81208C12.276 7.54347 12.1661 7.2849 12.0045 7.0628C9.92334 4.21091 9.87347 4.18775 7.92308 2.70163C6.09657 1.31025 3.87828 1.19641 2.10737 1.07971C-4.10274 0.668188 -9.87326 5.50628 -9.54801 8.21851ZM21.2221 39.3159C23.0811 42.0744 24.328 43.102 25.262 44.3603C28.3151 48.4766 27.1676 47.8876 31.8773 50.7935C32.9497 51.455 35.1046 52.6772 36.1983 53.2919C37.2854 53.9023 38.573 54.7321 38.6869 54.7923C38.918 54.9149 41.3993 56.4479 41.8961 56.5614C42.0358 56.5964 42.1503 56.5916 42.2807 56.541C42.6665 56.3905 43.0533 56.2314 43.4479 56.1101C43.7897 56.0057 44.1303 55.8818 44.5008 55.8616C45.606 55.8108 46.6933 55.9866 47.7801 56.1062C48.4983 56.1863 49.1967 56.3892 49.8899 56.6073C50.7369 56.8742 51.6008 57.1008 52.4341 57.4102C53.2153 57.6997 53.9711 58.0708 54.7322 58.4126C54.9718 58.522 56.919 59.4079 57.0133 59.4553C57.7779 59.8415 58.5159 60.2757 59.2752 60.6771C59.6299 60.8663 60.007 61.0139 60.367 61.1878L62.2758 62.1468C62.6339 62.3521 62.9696 62.5989 63.3266 62.7989C64.3139 63.3489 65.1996 64.0476 66.1335 64.6797C66.2421 64.7551 66.3431 64.835 66.4887 64.9392C66.4437 64.6949 66.6304 64.9568 65.3098 63.4371C61.6792 59.267 55.325 54.4341 51.296 51.5091C50.755 51.1144 50.2836 50.6202 48.1681 49.1667C43.9034 46.233 35.8712 41.4187 33.8479 40.1654C33.4539 39.9226 33.0434 39.7906 32.5543 39.8504C31.8308 39.935 31.1011 39.8941 30.3993 39.675C29.8989 39.5171 29.4176 39.3016 28.9235 39.1197C28.722 39.0445 28.5109 38.991 28.3019 38.9343C27.0125 38.5986 27.0942 38.6939 26.316 38.5279C25.6883 38.3945 25.0669 38.2372 24.4434 38.0973C22.4346 37.6479 22.8587 37.7234 22.5832 37.7261C22.8171 38.2571 23.0357 38.7548 23.2752 39.2987C22.5773 39.3158 21.9289 39.3138 21.2221 39.3159ZM42.3789 56.9742C43.1905 57.4378 44.5814 57.9097 45.0081 58.0382C45.8496 58.2922 46.6582 58.6323 47.488 58.9254C48.6744 59.3481 50.6904 60.0358 51.8617 60.4814C52.1402 60.5882 52.4208 60.6916 52.694 60.8136C56.8042 62.7026 56.713 62.6432 56.713 62.6432C57.2454 62.8873 57.765 63.1652 58.2856 63.4344C58.9006 63.7511 59.5028 64.0875 60.1444 64.3561C61.1535 64.7801 63.7787 66.178 64.6683 66.6643C67.2232 68.063 67.351 65.9872 66.5781 65.5069C66.3991 65.4042 66.2521 65.2524 66.0977 65.119C65.8715 64.9249 65.671 64.6914 65.4171 64.5399C64.8147 64.1753 64.4463 63.7296 62.5107 62.655C61.8543 62.288 61.1787 61.9504 60.5116 61.5998C60.2675 61.4687 60.0244 61.329 59.7761 61.2045C57.2727 59.9188 57.0814 59.7567 56.3787 59.5745C55.5603 59.3636 54.6473 58.9274 53.8967 58.541C53.1526 58.1589 52.3959 57.8106 51.5975 57.5473C51.0354 57.3632 49.6668 56.9993 49.2337 57.0302C49.9833 57.5748 52.9102 58.4028 53.2116 58.5385C53.6549 58.734 54.0909 58.948 54.546 59.1184C55.8494 59.6034 57.682 60.6295 58.9053 61.3941C59.3808 61.69 59.8508 61.987 60.3156 62.2992C60.4828 62.4129 60.6319 62.5615 60.7863 62.6948C60.807 62.713 60.817 62.7475 60.8236 62.7658C60.6773 62.8621 60.601 62.7656 60.5228 62.7147C60.0506 62.421 59.5816 62.1153 59.1073 61.8248C58.7817 61.6266 58.4475 61.4416 58.1176 61.2499C57.5447 60.9186 56.992 60.549 56.3956 60.2678C55.5672 59.8728 54.7143 59.5366 53.8625 59.1917C53.4257 59.0145 52.9666 58.8929 52.5192 58.7321C52.3155 58.6602 52.1213 58.5523 51.9166 58.489C51.2873 58.2938 50.6421 58.1303 50.0182 57.92C49.2133 57.6525 48.4012 57.4176 47.5691 57.2631C47.0421 57.1674 46.5049 57.1444 45.9749 57.0747C45.6363 57.0316 45.2861 57.0136 44.9751 56.8998C44.7162 56.8058 44.4751 56.7982 44.2225 56.8298C43.9061 56.8667 43.592 56.9143 43.3037 56.9508C43.2612 56.895 43.2217 56.8132 43.1969 56.8157C42.9411 56.8593 42.6662 56.811 42.3789 56.9742ZM66.2649 67.789C65.4238 67.5913 64.2933 66.8124 63.9321 66.6191C61.8644 65.5051 61.8669 65.5582 60.9671 65.1587C60.7124 65.0441 60.4609 64.9316 60.2082 64.8136C59.7594 64.6052 59.3083 64.4001 58.8637 64.1851C58.2413 63.8869 57.6242 63.5735 56.9985 63.2732C56.6916 63.1246 56.3773 62.9945 56.0704 62.8459C54.3549 62.0176 55.1589 62.3219 52.2337 61.1211C51.6148 60.8673 48.5248 59.7414 47.0307 59.3424C46.8964 59.3063 46.7601 59.2876 46.6248 59.2601C46.9209 59.5606 47.2361 59.8034 47.5587 60.0417C47.8053 60.2258 51.1585 62.0233 51.3895 62.1458C52.6663 62.8284 54.6173 63.8009 54.6921 63.8356C55.7992 64.3515 57.4098 65.0274 58.336 65.4861C63.701 68.1556 65.1599 68.9148 66.2649 67.789Z" fill="#47352F" fill-opacity="0.6"/>
</svg>
