<svg width="275" height="275" viewBox="0 0 275 275" fill="none" xmlns="http://www.w3.org/2000/svg">
<path d="M246.95 75.4432L246.4 74.4807C241.488 66.3847 232.601 61.5062 223.24 62.0947C222.034 62.1717 220.835 62.3371 219.653 62.5897C215.373 63.5634 211.4 65.579 208.086 68.4574C204.772 71.3358 202.22 74.988 200.656 79.0897C198.852 83.9407 198.346 89.5397 194.92 93.3897C190.459 98.3947 182.886 98.5542 176.22 98.3397C169.554 98.1252 161.986 98.3122 157.548 103.339C154.765 106.491 153.885 110.973 154.105 115.192C154.699 126.357 162.481 136.345 172.381 141.311C182.281 146.278 193.935 146.718 204.765 144.534C219.939 141.476 234.371 133.072 243.045 120.098C251.718 107.123 253.913 89.4462 246.95 75.4432Z" fill="#EBEBEB"/>
<path d="M54.8626 125.449L55.7096 125.548C59.2022 125.97 62.7439 125.431 65.9524 123.988C69.1608 122.544 71.914 120.252 73.9146 117.358C74.4293 116.597 74.8871 115.799 75.2841 114.971C76.6873 111.944 77.3211 108.616 77.1292 105.285C76.9373 101.954 75.9257 98.7213 74.1841 95.875C72.1051 92.5365 68.9756 89.6435 68.2551 85.7935C67.3091 80.783 70.7301 76.152 73.9476 72.2415C77.1651 68.331 80.5751 63.689 79.6071 58.6785C79.0021 55.5435 76.7196 52.931 74.0741 51.1105C67.0781 46.2815 57.4531 46.331 49.8741 49.983C42.2951 53.635 36.6136 60.433 32.8956 67.9735C27.6926 78.5225 26.0481 91.1065 29.8266 102.354C33.6051 113.602 43.2136 123.128 54.8626 125.449Z" fill="#EBEBEB"/>
<path d="M153.412 55.4726C162.558 55.4726 169.972 48.0582 169.972 38.9121C169.972 29.766 162.558 22.3516 153.412 22.3516C144.265 22.3516 136.851 29.766 136.851 38.9121C136.851 48.0582 144.265 55.4726 153.412 55.4726Z" fill="#EBEBEB"/>
<path d="M254.65 260.502C254.65 260.585 202.191 260.645 137.5 260.645C72.809 260.645 20.35 260.585 20.35 260.502C20.35 260.42 72.798 260.359 137.5 260.359C202.202 260.359 254.65 260.425 254.65 260.502Z" fill="#263238"/>
<path d="M133.265 236.94L131.775 256.707L123.178 256.531L122.001 235.961L133.265 236.94Z" fill="#FFBE9D"/>
<path d="M132.044 254.099V254.649C132.044 254.649 141.702 258.637 141.79 260.474L122.54 260.199L122.898 253.797C124.311 254.501 125.86 254.892 127.438 254.944C129.016 254.997 130.587 254.708 132.044 254.099Z" fill="#FF725E"/>
<path d="M135.075 257.713C135.003 257.713 134.893 257.312 135.113 256.861C135.333 256.41 135.724 256.239 135.757 256.311C135.79 256.382 135.548 256.619 135.372 256.993C135.196 257.367 135.157 257.708 135.075 257.713Z" fill="#263238"/>
<path d="M124.812 255.899C124.628 255.956 124.471 256.078 124.37 256.242C124.269 256.405 124.23 256.6 124.262 256.79C124.312 256.975 124.431 257.135 124.594 257.237C124.757 257.339 124.953 257.376 125.142 257.34C125.338 257.281 125.506 257.152 125.613 256.978C125.72 256.803 125.76 256.596 125.725 256.394C125.657 256.203 125.518 256.045 125.336 255.955C125.154 255.864 124.944 255.848 124.751 255.91" fill="white"/>
<path d="M132.105 254.733C132.105 254.827 131.631 254.865 131.164 255.162C130.696 255.459 130.444 255.844 130.361 255.806C130.279 255.767 130.421 255.228 130.993 254.882C131.565 254.535 132.127 254.651 132.105 254.733Z" fill="#263238"/>
<path d="M134.112 255.596C134.112 255.69 133.727 255.844 133.403 256.234C133.078 256.625 132.979 257.048 132.886 257.043C132.792 257.037 132.737 256.493 133.15 256.025C133.562 255.558 134.112 255.508 134.112 255.596Z" fill="#263238"/>
<path d="M122.54 260.239L122.623 258.781L141.191 259.601C141.49 259.832 141.698 260.161 141.779 260.53L122.54 260.239Z" fill="#263238"/>
<path d="M178.327 65.1811C178.327 65.1811 181.929 61.6226 182.886 61.0231C183.843 60.4236 185.02 59.0761 185.763 58.7681C186.614 58.3275 187.435 57.8314 188.221 57.2831L189.684 55.4736C189.684 55.4736 190.784 55.3581 190.542 56.5736L193.265 56.0236C193.265 56.0236 193.996 56.6561 192.836 57.4041C192.272 57.8365 191.562 58.0336 190.856 57.9541L189.712 59.2301L189.91 59.9012L196.51 60.7647C196.477 61.0652 196.336 61.3433 196.111 61.5462C195.887 61.749 195.596 61.8623 195.294 61.8647C194.194 61.8647 190.212 61.6941 190.212 61.6941L196.35 64.0096C196.35 64.0096 196.675 64.9501 194.755 64.6751C193.072 64.3666 191.408 63.9607 189.772 63.4596L189.222 63.9437L190.9 64.9226L192.467 66.9466C192.132 67.0966 191.758 67.1342 191.4 67.0539C191.043 66.9736 190.72 66.7797 190.482 66.5012L189.47 65.5111H188.001C188.001 65.5111 184.008 68.2996 182.672 67.6506L181.539 68.7891L178.327 65.1811Z" fill="#FFBE9D"/>
<path d="M190.025 60.3457C190.058 60.3457 190.174 60.5932 190.251 61.0332C190.348 61.6202 190.303 62.2219 190.119 62.7877C189.931 63.3621 189.56 63.8588 189.063 64.2012C188.694 64.4652 188.425 64.5477 188.408 64.5147C188.392 64.4817 188.617 64.3332 188.958 64.0417C189.378 63.686 189.692 63.2217 189.866 62.6997C190.251 61.4512 189.921 60.3567 190.025 60.3457Z" fill="#EB996E"/>
<path d="M184.404 65.054C185 64.9824 185.567 64.761 186.054 64.4105C186.582 64.0061 187.014 63.4895 187.319 62.898C187.7 62.133 188.002 61.3314 188.221 60.5055V60.4725L188.254 60.4395C189.041 59.7584 189.662 58.9061 190.069 57.948C190.268 57.4627 190.398 56.9516 190.454 56.43C190.475 56.208 190.408 55.9867 190.267 55.814C190.117 55.6778 189.92 55.6049 189.717 55.6105L189.816 55.55C188.96 56.8644 187.863 58.0047 186.582 58.9105C186.215 59.1688 185.829 59.3986 185.427 59.598C185.285 59.6783 185.134 59.7393 184.976 59.7795C184.976 59.741 185.576 59.4605 186.483 58.773C187.709 57.8403 188.761 56.699 189.591 55.4015L189.629 55.341H189.695C189.839 55.3298 189.983 55.349 190.118 55.3973C190.254 55.4457 190.378 55.522 190.482 55.6215C190.579 55.7329 190.654 55.8629 190.7 56.0037C190.746 56.1445 190.764 56.2933 190.751 56.441C190.699 56.997 190.564 57.5421 190.35 58.058C189.923 59.0608 189.267 59.9498 188.436 60.654L188.485 60.588C188.25 61.4262 187.927 62.2373 187.523 63.008C187.194 63.6225 186.725 64.1503 186.153 64.548C185.783 64.8117 185.355 64.9833 184.905 65.0485C184.74 65.0871 184.569 65.0889 184.404 65.054Z" fill="#EB996E"/>
<path d="M129.547 91.5529L155.81 80.4264L178.475 64.0254L183.062 68.8984C183.062 68.8984 167.178 85.4424 163.042 88.8194C158.906 92.1964 136.559 106.419 136.559 106.419L129.547 91.5529Z" fill="#FF725E"/>
<path d="M144.65 94.9144C143.979 94.76 143.277 94.8137 142.637 95.0684C142.428 95.1729 142.214 95.4039 142.329 95.6184C142.401 95.7449 142.571 95.7779 142.714 95.8054C145.321 96.2069 147.664 96.9879 150.266 97.3949L150.706 97.2079C148.829 96.1106 146.782 95.3354 144.65 94.9144Z" fill="#FAFAFA"/>
<path d="M149.364 93.3241C149.79 94.6183 150.342 95.8674 151.014 97.0531L151.272 96.9046C151.325 95.5857 151.247 94.2649 151.041 92.9611C150.886 91.6962 150.348 90.5086 149.501 89.5566C149.055 90.7658 149.007 92.0857 149.364 93.3241Z" fill="#FAFAFA"/>
<path d="M153.648 91.8493C153.098 93.3838 152.576 94.8578 151.998 96.3923L153.098 95.2648C154.122 93.9807 154.938 92.5443 155.518 91.0078C155.586 90.8327 155.618 90.6456 155.612 90.4578C155.605 90.3613 155.573 90.2683 155.519 90.1882C155.465 90.108 155.39 90.0436 155.304 90.0013C155.2 89.9745 155.091 89.9736 154.986 89.9985C154.882 90.0234 154.785 90.0734 154.704 90.1443C154.193 90.5971 153.826 91.1899 153.648 91.8493Z" fill="#FAFAFA"/>
<path d="M172.15 73.5787C172.761 73.5745 173.357 73.3825 173.855 73.0287C174.015 72.8967 174.152 72.6437 174.009 72.4787C173.957 72.438 173.896 72.4095 173.831 72.3952C173.767 72.381 173.7 72.3813 173.635 72.3962C171.298 72.6052 169.109 72.4292 166.771 72.6382L166.43 72.8912C168.284 73.4416 170.218 73.6741 172.15 73.5787Z" fill="#FAFAFA"/>
<path d="M168.382 75.9722C167.746 74.9429 167.009 73.9793 166.182 73.0957L165.99 73.2827C166.228 74.4325 166.578 75.5562 167.035 76.6377C167.438 77.6994 168.158 78.6114 169.098 79.2502C169.215 78.1092 168.965 76.9606 168.382 75.9722Z" fill="#FAFAFA"/>
<path d="M165 78.1606C165.149 76.7196 165.286 75.3336 165.435 73.8926L164.747 75.0916C164.14 76.4228 163.742 77.8404 163.57 79.2936C163.547 79.4649 163.56 79.6392 163.609 79.8051C163.634 79.8884 163.682 79.9632 163.747 80.0214C163.812 80.0795 163.891 80.1189 163.977 80.1351C164.072 80.1356 164.166 80.1129 164.251 80.0688C164.335 80.0247 164.407 79.9606 164.461 79.8821C164.808 79.3745 164.995 78.7752 165 78.1606Z" fill="#FAFAFA"/>
<path d="M77.088 206.964L57.1945 213.493L53.8945 205.034L73.4965 195.568L77.088 206.964Z" fill="#FFBE9D"/>
<path d="M59.8455 212.707L59.2955 212.933C59.2955 212.933 59.2955 223.971 57.5465 224.796L50.05 205.898L56.4411 203.654C56.3266 205.319 56.5714 206.989 57.1588 208.551C57.7462 210.113 58.6625 211.53 59.8455 212.707Z" fill="#FF725E"/>
<path d="M55.1705 206.37C55.0431 206.208 54.8599 206.099 54.6566 206.064C54.4533 206.03 54.2444 206.072 54.0705 206.183C53.902 206.306 53.7877 206.489 53.7518 206.694C53.7158 206.9 53.7611 207.111 53.878 207.283C54.0144 207.452 54.2083 207.564 54.4225 207.599C54.6367 207.633 54.8561 207.588 55.0385 207.47C55.1963 207.325 55.2923 207.125 55.3067 206.911C55.321 206.697 55.2526 206.486 55.1155 206.321" fill="white"/>
<path d="M50.05 205.898L51.5901 205.348L58.1901 223.657C58.1901 223.657 58.19 224.647 57.53 224.785L50.05 205.898Z" fill="#263238"/>
<path d="M59.2571 213.02C59.1636 213.053 58.9381 212.608 58.4596 212.272C57.9811 211.937 57.5026 211.849 57.5026 211.75C57.5026 211.651 58.0911 211.574 58.6631 211.992C59.2351 212.41 59.3506 213.004 59.2571 213.02Z" fill="#263238"/>
<path d="M59.224 215.331C59.1415 215.386 58.828 215.05 58.311 214.891C57.794 214.731 57.3485 214.803 57.3155 214.709C57.2825 214.616 57.783 214.352 58.4155 214.561C59.048 214.77 59.312 215.292 59.224 215.331Z" fill="#263238"/>
<path d="M57.2991 217.398C57.2441 217.321 57.6566 217.008 58.2561 217.046C58.8556 217.085 59.2296 217.431 59.1636 217.503C59.0976 217.574 58.7291 217.415 58.2341 217.387C57.7391 217.36 57.3431 217.486 57.2991 217.398Z" fill="#263238"/>
<path d="M130.686 161.7C130.686 161.7 116.1 191.4 112.184 193.683C108.268 195.965 63.1785 212.014 63.1785 212.014L59.708 201.3L100.513 179.751C100.513 179.751 105.842 165.22 107.828 154.182C109.043 147.417 111.832 143.451 115.841 138.182C117.068 136.571 119.141 134.266 120.203 133.557L138.534 137.027L130.686 161.7Z" fill="#263238"/>
<path d="M143.578 137.95L123.893 134.65L119.9 157.794L123.899 206.398C123.899 206.398 121.149 223.294 121.616 234.409C122.04 244.892 122.447 248.847 122.447 248.847C122.447 248.847 130.911 248.885 132.836 248.885C133.645 248.885 140.877 196.278 140.877 196.278L143.578 137.95Z" fill="#263238"/>
<path d="M134.563 150.645C134.527 150.761 134.483 150.875 134.431 150.986C134.327 151.233 134.189 151.536 134.013 151.954L132.457 155.49C131.148 158.51 129.36 162.64 127.391 167.194C125.422 171.748 123.42 175.824 121.891 178.711C121.127 180.152 120.494 181.313 120.032 182.105L119.482 183.012C119.427 183.121 119.36 183.224 119.284 183.32C119.321 183.203 119.371 183.091 119.433 182.985C119.559 182.748 119.719 182.435 119.917 182.05L121.688 178.618C123.162 175.708 125.103 171.638 127.1 167.068C129.096 162.497 130.9 158.4 132.27 155.408C132.952 153.923 133.513 152.724 133.92 151.904L134.387 150.964C134.433 150.85 134.492 150.743 134.563 150.645Z" fill="#455A64"/>
<path d="M61.8641 203.5C61.8971 203.571 61.6441 203.758 61.3141 203.923C60.9841 204.088 60.6706 204.165 60.6321 204.094C60.5936 204.022 60.8521 203.83 61.1821 203.665C61.5121 203.5 61.8256 203.439 61.8641 203.5Z" fill="#455A64"/>
<path d="M66.7865 201.129C66.825 201.2 66.297 201.525 65.6205 201.855C65.2262 202.097 64.7863 202.257 64.328 202.322C64.2895 202.251 64.8175 201.926 65.494 201.596C65.8884 201.354 66.3283 201.195 66.7865 201.129Z" fill="#455A64"/>
<path d="M71.709 198.732C71.7475 198.804 71.2195 199.128 70.543 199.464C70.1482 199.707 69.7087 199.867 69.2505 199.937C69.212 199.865 69.74 199.535 70.4165 199.205C70.8113 198.963 71.2509 198.802 71.709 198.732Z" fill="#455A64"/>
<path d="M76.6151 196.35C75.8888 196.916 75.0539 197.328 74.1621 197.56C74.8832 196.985 75.7199 196.572 76.6151 196.35Z" fill="#455A64"/>
<path d="M81.51 193.887C81.5485 193.958 81.026 194.288 80.3495 194.629C79.9578 194.875 79.5198 195.038 79.0625 195.108C79.024 195.036 79.5465 194.706 80.223 194.371C80.6152 194.125 81.0529 193.96 81.51 193.887Z" fill="#455A64"/>
<path d="M86.3995 191.428C86.438 191.499 85.9155 191.829 85.2445 192.17C84.8538 192.42 84.4156 192.587 83.9575 192.66C84.289 192.338 84.6818 192.085 85.1125 191.917C85.5037 191.668 85.9417 191.502 86.3995 191.428Z" fill="#455A64"/>
<path d="M91.3 188.926C90.585 189.512 89.7549 189.941 88.8635 190.185C89.1907 189.856 89.5819 189.598 90.013 189.426C90.4046 189.176 90.8421 189.006 91.3 188.926Z" fill="#455A64"/>
<path d="M96.107 186.367C96.1455 186.439 95.634 186.78 94.9685 187.137C94.5855 187.396 94.1528 187.572 93.698 187.654C94.0225 187.324 94.4095 187.063 94.8365 186.884C95.2195 186.625 95.6522 186.449 96.107 186.367Z" fill="#455A64"/>
<path d="M100.875 183.699C100.914 183.765 100.419 184.128 99.7755 184.508C99.3989 184.777 98.9698 184.965 98.516 185.058C98.8262 184.719 99.1999 184.444 99.616 184.249C99.9917 183.978 100.421 183.791 100.875 183.699Z" fill="#455A64"/>
<path d="M103.851 179.607C103.901 180.064 103.87 180.526 103.757 180.971C103.73 181.141 103.712 181.312 103.703 181.483C103.7 181.52 103.7 181.556 103.703 181.593C103.707 181.653 103.691 181.713 103.659 181.763C103.617 181.83 103.567 181.891 103.51 181.945C103.312 182.121 103.169 182.176 103.142 182.148C103.114 182.121 103.219 182 103.356 181.807C103.392 181.763 103.422 181.712 103.444 181.659C103.447 181.644 103.447 181.629 103.444 181.615C103.437 181.573 103.437 181.53 103.444 181.488C103.428 181.305 103.428 181.121 103.444 180.938C103.475 180.469 103.614 180.014 103.851 179.607Z" fill="#455A64"/>
<path d="M105.122 174.283C105.151 174.746 105.085 175.21 104.929 175.647C104.862 176.106 104.701 176.546 104.456 176.94C104.428 176.477 104.493 176.013 104.649 175.576C104.719 175.118 104.879 174.678 105.122 174.283Z" fill="#455A64"/>
<path d="M106.524 168.998C106.47 169.917 106.229 170.816 105.815 171.638C105.79 171.175 105.863 170.712 106.029 170.28C106.105 169.823 106.273 169.387 106.524 168.998Z" fill="#455A64"/>
<path d="M107.993 163.725C107.935 164.646 107.682 165.544 107.25 166.359C107.233 165.897 107.312 165.436 107.481 165.006C107.563 164.549 107.737 164.113 107.993 163.725Z" fill="#455A64"/>
<path d="M109.511 158.467C109.523 158.93 109.439 159.391 109.263 159.82C109.179 160.276 109.003 160.71 108.746 161.096C108.81 160.175 109.071 159.278 109.511 158.467Z" fill="#455A64"/>
<path d="M111.1 153.225C111.017 154.144 110.744 155.035 110.297 155.843C110.292 155.378 110.382 154.918 110.561 154.49C110.651 154.035 110.835 153.604 111.1 153.225Z" fill="#455A64"/>
<path d="M112.926 148.07C112.852 148.524 112.718 148.966 112.53 149.385C112.418 149.833 112.213 150.252 111.931 150.617C111.952 150.152 112.066 149.696 112.266 149.275C112.369 148.819 112.598 148.402 112.926 148.07Z" fill="#455A64"/>
<path d="M115.874 143.462C115.744 143.907 115.523 144.321 115.225 144.677C114.802 145.299 114.4 145.777 114.334 145.728C114.466 145.282 114.689 144.868 114.989 144.512C115.412 143.891 115.814 143.418 115.874 143.462Z" fill="#455A64"/>
<path d="M119.097 139.041C119.163 139.09 118.849 139.591 118.398 140.223C117.947 140.856 117.535 141.285 117.469 141.241C117.619 140.801 117.856 140.397 118.167 140.053C118.618 139.448 119.036 138.991 119.097 139.041Z" fill="#455A64"/>
<path d="M121.6 135.767C121.66 135.817 121.523 136.097 121.292 136.4C121.061 136.702 120.824 136.9 120.742 136.856C120.659 136.812 120.819 136.526 121.05 136.224C121.281 135.921 121.55 135.718 121.6 135.767Z" fill="#455A64"/>
<path d="M123.926 176.456C123.849 176.456 123.761 176.164 123.734 175.785C123.706 175.405 123.734 175.092 123.822 175.086C123.91 175.081 123.987 175.383 124.014 175.763C124.042 176.142 124.009 176.45 123.926 176.456Z" fill="#455A64"/>
<path d="M124.355 182.139C124.183 181.69 124.099 181.212 124.108 180.731C124.022 180.257 124.035 179.77 124.146 179.301C124.318 179.75 124.402 180.228 124.394 180.709C124.476 181.183 124.463 181.669 124.355 182.139Z" fill="#455A64"/>
<path d="M124.735 187.826C124.562 187.375 124.481 186.895 124.498 186.412C124.423 185.937 124.441 185.451 124.553 184.982C124.721 185.434 124.799 185.914 124.784 186.396C124.859 186.871 124.842 187.357 124.735 187.826Z" fill="#455A64"/>
<path d="M125.01 193.506C124.847 193.053 124.778 192.572 124.806 192.092C124.735 191.615 124.763 191.128 124.889 190.662C125.119 191.592 125.16 192.559 125.01 193.506Z" fill="#455A64"/>
<path d="M125.142 199.199C124.994 198.739 124.938 198.255 124.977 197.774C124.922 197.296 124.963 196.812 125.098 196.35C125.303 197.287 125.318 198.256 125.142 199.199Z" fill="#455A64"/>
<path d="M125.103 204.892C124.972 204.427 124.931 203.942 124.982 203.462C124.941 202.983 124.997 202.5 125.147 202.043C125.279 202.506 125.32 202.989 125.268 203.467C125.309 203.949 125.253 204.433 125.103 204.892Z" fill="#455A64"/>
<path d="M124.878 210.583C124.759 210.116 124.735 209.63 124.806 209.153C124.782 208.671 124.853 208.189 125.015 207.734C125.134 208.201 125.16 208.687 125.092 209.164C125.113 209.647 125.04 210.129 124.878 210.583Z" fill="#455A64"/>
<path d="M124.476 216.265C124.36 215.313 124.433 214.346 124.691 213.422C124.801 213.891 124.814 214.378 124.729 214.852C124.737 215.335 124.651 215.815 124.476 216.265Z" fill="#455A64"/>
<path d="M123.998 221.936C123.901 221.464 123.901 220.978 123.998 220.506C123.992 220.026 124.082 219.549 124.262 219.104C124.354 219.576 124.354 220.061 124.262 220.534C124.267 221.014 124.177 221.491 123.998 221.936Z" fill="#455A64"/>
<path d="M123.547 227.617C123.443 227.147 123.432 226.661 123.514 226.187C123.502 225.704 123.586 225.224 123.761 224.773C123.865 225.245 123.878 225.732 123.8 226.209C123.811 226.69 123.725 227.169 123.547 227.617Z" fill="#455A64"/>
<path d="M123.239 233.304C123.123 232.837 123.096 232.352 123.162 231.874C123.139 231.394 123.21 230.914 123.371 230.461C123.49 230.926 123.516 231.41 123.448 231.885C123.475 232.368 123.404 232.851 123.239 233.304Z" fill="#455A64"/>
<path d="M123.2 239.003C123.054 238.543 123.003 238.058 123.052 237.578C123.003 237.098 123.048 236.612 123.184 236.148C123.329 236.608 123.381 237.093 123.338 237.573C123.382 238.054 123.335 238.539 123.2 239.003Z" fill="#455A64"/>
<path d="M123.502 244.684C123.328 244.235 123.244 243.757 123.255 243.276C123.169 242.801 123.182 242.315 123.293 241.846C123.553 242.768 123.624 243.733 123.502 244.684Z" fill="#455A64"/>
<path d="M124.041 248.886C123.964 248.886 123.854 248.606 123.799 248.226C123.744 247.847 123.755 247.539 123.838 247.528C123.92 247.517 124.025 247.814 124.08 248.188C124.135 248.562 124.118 248.875 124.041 248.886Z" fill="#455A64"/>
<path d="M130.048 138.051C129.975 138.247 129.875 138.432 129.751 138.601C129.45 139.086 129.124 139.554 128.772 140.003C127.628 141.524 126.161 142.771 124.476 143.655C122.759 144.522 120.798 144.78 118.916 144.387C118.352 144.263 117.81 144.059 117.304 143.782C117.115 143.692 116.94 143.573 116.787 143.43C117.48 143.764 118.209 144.018 118.96 144.189C120.795 144.513 122.685 144.235 124.35 143.397C125.996 142.527 127.446 141.329 128.612 139.877C129.531 138.788 130.009 138.051 130.048 138.051Z" fill="#455A64"/>
<path d="M139.871 138.402C139.852 138.934 139.771 139.462 139.629 139.975C139.34 141.229 138.946 142.456 138.452 143.644C137.955 144.832 137.357 145.974 136.664 147.059C136.398 147.522 136.079 147.952 135.713 148.341C135.94 147.862 136.199 147.399 136.488 146.955C137.768 144.749 138.757 142.386 139.431 139.926C139.545 139.409 139.692 138.9 139.871 138.402Z" fill="#455A64"/>
<path d="M137.5 138.863C137.5 138.907 137.236 138.929 137.055 139.254C137.008 139.337 136.979 139.429 136.97 139.523C136.96 139.618 136.971 139.713 137 139.804C137.052 139.904 137.131 139.988 137.228 140.046C137.325 140.105 137.436 140.136 137.55 140.136C137.663 140.136 137.774 140.105 137.871 140.046C137.968 139.988 138.047 139.904 138.1 139.804C138.127 139.713 138.136 139.617 138.126 139.523C138.115 139.428 138.086 139.337 138.039 139.254C137.858 138.935 137.583 138.913 137.594 138.869C137.605 138.825 137.66 138.83 137.781 138.869C137.953 138.913 138.105 139.016 138.21 139.16C138.291 139.269 138.346 139.395 138.371 139.529C138.396 139.662 138.389 139.8 138.353 139.93C138.286 140.089 138.174 140.224 138.03 140.319C137.887 140.414 137.719 140.465 137.547 140.465C137.375 140.465 137.207 140.414 137.063 140.319C136.92 140.224 136.808 140.089 136.741 139.93C136.703 139.8 136.696 139.662 136.721 139.528C136.746 139.395 136.802 139.269 136.884 139.16C136.986 139.014 137.136 138.909 137.308 138.863C137.451 138.825 137.5 138.847 137.5 138.863Z" fill="#455A64"/>
<path d="M110.264 67.2096C108.474 66.3284 106.408 66.1919 104.518 66.8299C102.628 67.4679 101.067 68.8285 100.177 70.6141C99.3026 72.3796 99.0771 74.5136 97.7736 75.9766C96.5911 77.2801 94.7816 77.7586 93.1151 78.3251C91.4486 78.8916 89.6776 79.7606 89.0231 81.3996C88.4731 82.7966 88.8416 84.5126 87.9891 85.7501C87.1366 86.9876 85.3656 87.2241 83.8366 87.3231C83.9207 87.6658 84.1124 87.9725 84.3836 88.1982C84.6549 88.4239 84.9913 88.5567 85.3436 88.5771C84.2253 89.2226 82.9322 89.4997 81.6476 89.3691C82.0546 91.2281 83.6936 92.6306 85.4976 93.2191C87.3016 93.8076 89.2486 93.8021 91.1461 93.6811C93.2966 93.5491 95.5956 93.2466 97.1961 91.8111C99.1266 90.0841 99.7371 86.9601 102.108 85.9041C103.318 85.3541 104.753 85.5081 105.958 84.9471C107.608 84.1771 108.433 82.2521 108.614 80.4316C108.796 78.6111 108.499 76.7741 108.614 74.9316C108.73 73.0891 109.456 71.1641 111.045 70.2621L110.264 67.2096Z" fill="#263238"/>
<path d="M110.682 66.6711C110.842 66.3191 110.435 65.9176 110.044 65.9341C109.657 66.0009 109.31 66.211 109.071 66.5226C108.088 67.5333 107.451 68.829 107.25 70.2241C107.156 70.9219 107.224 71.632 107.448 72.2995C107.672 72.967 108.047 73.5742 108.543 74.0741C108.754 74.3134 109.049 74.463 109.368 74.4921C109.534 74.4812 109.694 74.4292 109.836 74.3409C109.977 74.2526 110.094 74.1307 110.176 73.9861C110.338 73.6962 110.446 73.3795 110.495 73.0511C110.924 70.9292 111.083 68.7614 110.968 66.5996L110.682 66.6711Z" fill="#FF725E"/>
<path d="M109.01 74.0348C109.01 70.1023 109.643 65.9278 112.178 62.9303C114.439 60.2628 118.261 58.5303 121.715 57.9803C123.542 57.7909 125.389 58.0088 127.122 58.6183C129.371 59.3443 130.697 61.4783 132.105 63.3813C134.921 67.1873 135.845 72.9348 134.855 74.7883L119.185 87.6913C115.737 86.7123 111.892 85.2053 110.385 81.9603C109.329 79.7493 109.021 76.4493 109.01 74.0348Z" fill="#263238"/>
<path d="M114.268 66.3416L124.663 60.7921C128.117 59.5381 131.56 63.3276 132.666 66.8421C133.898 70.7361 135.245 75.5431 135.509 78.6176C136.059 84.7886 131.659 86.6696 131.659 86.6696L133.782 93.6436L136.219 101.399L120.439 92.0486L112.91 68.9211C112.772 68.3991 112.835 67.8445 113.087 67.3669C113.338 66.8893 113.76 66.5234 114.268 66.3416Z" fill="#FFBE9D"/>
<path d="M132.501 70.8669C132.553 71.066 132.524 71.2776 132.421 71.4558C132.318 71.6339 132.149 71.7642 131.951 71.8184C131.856 71.8506 131.755 71.8633 131.655 71.8557C131.555 71.848 131.458 71.8203 131.369 71.774C131.28 71.7278 131.202 71.664 131.138 71.5866C131.074 71.5091 131.027 71.4196 130.999 71.3234C130.948 71.1244 130.978 70.9134 131.08 70.7356C131.183 70.5578 131.351 70.4273 131.549 70.3719C131.644 70.3405 131.744 70.3284 131.844 70.3364C131.944 70.3444 132.041 70.3723 132.129 70.4184C132.218 70.4646 132.297 70.528 132.36 70.6051C132.424 70.6821 132.472 70.7711 132.501 70.8669Z" fill="#263238"/>
<path d="M132.11 68.9372C132.055 69.0692 131.346 68.8657 130.554 69.1627C129.762 69.4597 129.327 70.0702 129.206 70.0042C129.085 69.9382 129.206 69.7677 129.36 69.4872C129.617 69.1249 129.977 68.8488 130.394 68.6952C130.806 68.5396 131.257 68.5203 131.681 68.6402C132 68.7502 132.138 68.8822 132.11 68.9372Z" fill="#263238"/>
<path d="M125.021 73.0511C125.071 73.2501 125.042 73.4611 124.939 73.6389C124.837 73.8167 124.668 73.9472 124.471 74.0026C124.375 74.0341 124.275 74.0463 124.175 74.0383C124.075 74.0304 123.977 74.0026 123.888 73.9565C123.799 73.9104 123.72 73.8469 123.655 73.7698C123.591 73.6928 123.543 73.6036 123.514 73.5076C123.463 73.3086 123.492 73.0977 123.595 72.9199C123.698 72.7421 123.866 72.6115 124.064 72.5561C124.159 72.5254 124.259 72.5138 124.359 72.5221C124.459 72.5304 124.556 72.5584 124.645 72.6044C124.734 72.6504 124.813 72.7136 124.878 72.7902C124.942 72.8669 124.991 72.9556 125.021 73.0511Z" fill="#263238"/>
<path d="M124.262 71.3461C124.196 71.4671 123.508 71.1866 122.694 71.3901C121.88 71.5936 121.374 72.1546 121.259 72.0721C121.143 71.9896 121.259 71.8356 121.473 71.5826C121.762 71.2507 122.146 71.0163 122.573 70.9116C122.999 70.8026 123.448 70.8335 123.855 70.9996C124.168 71.1316 124.3 71.2911 124.262 71.3461Z" fill="#263238"/>
<path d="M128.7 77.105C129.099 76.8703 129.526 76.6856 129.971 76.555C130.18 76.478 130.367 76.39 130.367 76.236C130.331 76.0153 130.227 75.8114 130.07 75.653C129.751 75.191 129.41 74.7125 129.058 74.212C127.639 72.155 126.555 70.439 126.638 70.362C126.72 70.285 127.941 71.9295 129.36 73.9865L130.35 75.4385C130.544 75.66 130.655 75.9419 130.664 76.236C130.651 76.3171 130.62 76.3942 130.573 76.4618C130.526 76.5293 130.465 76.5856 130.394 76.6265C130.287 76.6864 130.172 76.7326 130.053 76.764C129.618 76.9346 129.164 77.0492 128.7 77.105Z" fill="#263238"/>
<path d="M131.67 86.6641C128.887 87.3981 125.955 87.3467 123.2 86.5156C123.2 86.5156 126.313 90.1401 132.121 88.1106L131.67 86.6641Z" fill="#EB996E"/>
<path d="M126.373 79.3054C126.447 79.0935 126.572 78.9032 126.737 78.7515C126.902 78.5998 127.102 78.4915 127.319 78.4364C127.619 78.3401 127.94 78.3255 128.247 78.3941C128.554 78.4628 128.838 78.6122 129.068 78.8269C129.246 79.0347 129.341 79.3014 129.332 79.5749C129.305 79.7234 129.332 79.6464 129.255 79.7619C129.002 80.196 128.645 80.5606 128.216 80.8234C127.981 80.9479 127.715 80.9988 127.451 80.9694C127.187 80.9399 126.938 80.8316 126.736 80.6584C126.557 80.4882 126.428 80.2718 126.364 80.033C126.3 79.7943 126.304 79.5425 126.373 79.3054Z" fill="#EB996E"/>
<path d="M126.429 78.2711C126.561 78.2271 126.781 79.1181 127.699 79.5636C128.618 80.0091 129.542 79.6736 129.58 79.7946C129.619 79.9156 129.41 80.0201 129.03 80.1301C128.51 80.2662 127.96 80.2155 127.474 79.9871C127.009 79.7642 126.648 79.37 126.467 78.8871C126.324 78.5241 126.368 78.2821 126.429 78.2711Z" fill="#263238"/>
<path d="M124.014 69.2991C124.014 69.5466 123.145 69.6401 122.21 69.9976C121.275 70.3551 120.56 70.8061 120.39 70.6356C120.307 70.5531 120.39 70.3111 120.654 70.0196C121.001 69.646 121.433 69.3612 121.913 69.1891C122.392 69.0101 122.906 68.9461 123.415 69.0021C123.8 69.0736 124.025 69.2056 124.014 69.2991Z" fill="#263238"/>
<path d="M131.241 66.8573C131.142 67.0773 130.532 67.0223 129.85 67.1818C129.168 67.3413 128.629 67.6163 128.447 67.4568C128.365 67.3743 128.409 67.1653 128.618 66.9068C128.898 66.6075 129.266 66.4036 129.668 66.3238C130.068 66.229 130.488 66.2637 130.867 66.4228C131.159 66.5768 131.285 66.7473 131.241 66.8573Z" fill="#263238"/>
<path d="M116.265 75.7787C116.171 75.7787 112.695 75.5092 113.515 78.8257C114.334 82.1422 117.497 80.6242 117.48 80.5307C117.464 80.4372 116.265 75.7787 116.265 75.7787Z" fill="#FFBE9D"/>
<path d="M116.166 79.5253C116.166 79.5253 116.116 79.5803 116.028 79.6518C115.906 79.7449 115.752 79.7863 115.599 79.7673C115.22 79.7288 114.785 79.2448 114.62 78.6673C114.541 78.3846 114.526 78.0876 114.576 77.7983C114.581 77.6871 114.613 77.5788 114.67 77.483C114.727 77.3871 114.806 77.3065 114.901 77.2483C114.963 77.2151 115.034 77.2042 115.103 77.2172C115.172 77.2302 115.234 77.2664 115.28 77.3198C115.346 77.4023 115.341 77.4738 115.363 77.4738C115.385 77.4738 115.418 77.4023 115.363 77.2703C115.322 77.1952 115.259 77.1353 115.181 77.0998C115.127 77.0765 115.069 77.0645 115.011 77.0645C114.952 77.0645 114.894 77.0765 114.84 77.0998C114.71 77.1601 114.598 77.2532 114.515 77.3699C114.433 77.4866 114.381 77.6229 114.367 77.7653C114.288 78.085 114.288 78.4191 114.367 78.7388C114.426 79.0372 114.571 79.3119 114.784 79.5288C114.997 79.7458 115.269 79.8957 115.566 79.9598C115.661 79.9622 115.756 79.9437 115.843 79.9057C115.931 79.8677 116.009 79.8111 116.072 79.7398C116.177 79.6078 116.177 79.5308 116.166 79.5253Z" fill="#EB996E"/>
<path d="M115.33 80.8944C115.33 80.8944 115.22 81.0703 115.33 81.3618C115.354 81.4517 115.397 81.5352 115.457 81.6065C115.517 81.6777 115.592 81.735 115.676 81.7743C115.785 81.8093 115.901 81.8176 116.014 81.7985C116.127 81.7793 116.234 81.7333 116.325 81.6643C116.421 81.6068 116.501 81.5265 116.559 81.4306C116.616 81.3347 116.649 81.2261 116.655 81.1143C116.649 80.9296 116.573 80.7542 116.441 80.6248C116.215 80.4103 116.001 80.4378 116.006 80.4543C116.012 80.4708 116.182 80.5039 116.353 80.7074C116.445 80.8227 116.496 80.9663 116.496 81.1143C116.487 81.2013 116.459 81.285 116.412 81.3586C116.365 81.4323 116.301 81.4937 116.226 81.5379C116.157 81.5913 116.076 81.6285 115.99 81.6466C115.905 81.6647 115.816 81.6632 115.731 81.6424C115.599 81.5816 115.496 81.4708 115.445 81.3344C115.389 81.1927 115.351 81.045 115.33 80.8944Z" fill="#FAFAFA"/>
<path d="M132.968 66.8967C132.241 66.0793 131.281 65.5036 130.218 65.2467C129.173 64.9442 128.079 64.8012 127.034 64.4877C124.608 63.754 122.541 62.1471 121.231 59.9777C121.968 59.3796 122.832 58.9598 123.758 58.7509C124.683 58.5419 125.644 58.5496 126.566 58.7732C128.416 59.2409 130.049 60.3302 131.192 61.8587C132.326 63.3827 133.114 65.1358 133.502 66.9957" fill="#263238"/>
<path d="M113.328 65.3512C115.22 62.4307 119.548 60.0272 123.013 60.3517C123.211 63.2612 121.858 66.9077 120.516 69.4982C119.174 72.0887 118.949 76.1532 114.576 75.8452C114.274 75.8452 114.026 76.1587 113.724 76.0707C113.484 75.9673 113.289 75.7821 113.174 75.5482C112.26 73.9983 111.792 72.2268 111.819 70.4281C111.846 68.6294 112.368 66.8729 113.328 65.3512Z" fill="#263238"/>
<path d="M122.947 60.5723C122.961 60.8279 122.946 61.0843 122.903 61.3368C122.848 61.8263 122.771 62.5303 122.65 63.4048C122.365 65.6877 121.87 67.9394 121.171 70.1313C120.769 71.3371 120.255 72.5027 119.636 73.6128C119.202 74.5786 118.487 75.3912 117.585 75.9448C117.265 76.1162 116.908 76.2058 116.545 76.2058C116.182 76.2058 115.825 76.1162 115.506 75.9448C115.336 75.8496 115.188 75.7204 115.071 75.5653C114.994 75.4553 114.967 75.3893 114.978 75.3838C115.28 75.7393 115.7 75.9748 116.161 76.0474C116.622 76.1201 117.094 76.0251 117.491 75.7798C118.337 75.2203 119.001 74.4274 119.405 73.4973C120.002 72.3931 120.503 71.2393 120.901 70.0488C121.589 67.8701 122.108 65.6414 122.452 63.3828C122.584 62.5578 122.7 61.8703 122.793 61.3313C122.822 61.0742 122.873 60.8202 122.947 60.5723Z" fill="#263238"/>
<path d="M86.6581 84.3145C86.616 84.2052 86.59 84.0903 86.5811 83.9735C86.546 83.6409 86.5646 83.3048 86.6361 82.978C86.7526 82.4557 86.9795 81.9644 87.3016 81.537C87.7258 80.9624 88.3089 80.5246 88.9791 80.2775C89.8083 80.0324 90.6908 80.0324 91.5201 80.2775C92.4149 80.5602 93.3752 80.5602 94.2701 80.2775C95.2255 79.8517 96.0032 79.1071 96.4701 78.171C96.9823 77.1645 97.3119 76.0752 97.4436 74.9535C97.5872 73.8124 97.8077 72.6824 98.1036 71.571C98.416 70.5313 98.9362 69.5659 99.6326 68.733C100.615 67.5475 101.922 66.6735 103.392 66.2174C104.863 65.7614 106.435 65.743 107.916 66.1645C108.235 66.257 108.547 66.3709 108.851 66.5055C108.959 66.5499 109.062 66.6051 109.159 66.6705C109.159 66.698 108.719 66.478 107.883 66.2745C106.712 65.981 105.49 65.9547 104.308 66.1975C102.55 66.5567 100.97 67.5127 99.8361 68.9035C99.168 69.713 98.6687 70.648 98.3676 71.6535C98.083 72.7551 97.8698 73.8739 97.7296 75.003C97.5909 76.1544 97.2482 77.2719 96.7176 78.303C96.2168 79.285 95.3906 80.0626 94.3801 80.503C93.8964 80.687 93.3777 80.7603 92.8621 80.7175C92.3913 80.6727 91.9244 80.5937 91.4651 80.481C90.678 80.2311 89.8352 80.2158 89.0396 80.437C88.3993 80.6615 87.8377 81.0664 87.4226 81.603C87.1045 82.0064 86.8724 82.4706 86.7406 82.967C86.6355 83.4081 86.6076 83.864 86.6581 84.3145Z" fill="#263238"/>
<path d="M109.874 65.9007C109.935 65.7214 110.02 65.5511 110.127 65.3947C110.4 64.9516 110.731 64.5466 111.111 64.1902C112.382 63.0187 113.956 62.2262 115.654 61.9022C117.336 61.5959 119.053 61.5311 120.753 61.7097C121.402 61.7702 121.924 61.8307 122.287 61.8857C122.475 61.8959 122.66 61.933 122.837 61.9957C122.134 62.0059 121.431 61.9783 120.731 61.9132C119.05 61.7956 117.362 61.8862 115.704 62.1827C114.054 62.5003 112.517 63.2436 111.243 64.3387C110.743 64.8197 110.285 65.3423 109.874 65.9007Z" fill="#455A64"/>
<path d="M114.444 60.7466C114.85 60.524 115.288 60.3645 115.742 60.2736C116.82 59.9934 117.928 59.8474 119.042 59.8391C119.657 59.8297 120.272 59.8758 120.879 59.9766C121.398 60.0563 121.874 60.3082 122.232 60.6916C122.474 60.953 122.612 61.2929 122.623 61.6486C122.623 61.8961 122.546 62.0226 122.535 62.0171C122.524 62.0116 122.535 61.8796 122.535 61.6541C122.483 61.3405 122.333 61.0515 122.106 60.8291C121.763 60.501 121.323 60.2926 120.852 60.2351C120.26 60.1506 119.662 60.1156 119.064 60.1306C117.972 60.1376 116.883 60.2518 115.814 60.4716C115.362 60.587 114.905 60.6788 114.444 60.7466Z" fill="#455A64"/>
<path d="M108.51 79.2002C108.465 79.1315 108.433 79.055 108.416 78.9747C108.337 78.7584 108.285 78.5329 108.262 78.3037C108.179 77.4468 108.343 76.5841 108.735 75.8177C109.301 74.6795 110.154 73.7088 111.21 73.0017C112.497 72.175 113.828 71.4185 115.198 70.7357C117.616 69.403 119.661 67.4833 121.143 65.1532C121.595 64.4514 121.992 63.7159 122.331 62.9532C122.441 62.6657 122.572 62.3863 122.722 62.1172C122.711 62.1965 122.691 62.2741 122.661 62.3482C122.612 62.4967 122.551 62.7222 122.436 62.9972C122.135 63.7846 121.767 64.5446 121.336 65.2687C119.876 67.6677 117.813 69.6419 115.352 70.9942C113.991 71.6598 112.666 72.3941 111.381 73.1942C110.35 73.8693 109.508 74.7946 108.933 75.8837C108.539 76.6155 108.349 77.4401 108.383 78.2707C108.416 78.8977 108.543 79.2002 108.51 79.2002Z" fill="#455A64"/>
<path d="M121.55 101.393C121.506 101.393 121.512 100.843 121.358 99.9411C121.161 98.7807 120.763 97.6638 120.181 96.6411C119.658 95.5952 118.819 94.7407 117.783 94.1991C117.334 94.0269 116.854 93.9501 116.375 93.9736C116.494 93.9077 116.628 93.8719 116.765 93.8691C117.139 93.8317 117.516 93.8845 117.865 94.0231C118.979 94.5302 119.885 95.4064 120.428 96.5036C121.028 97.5481 121.413 98.7018 121.561 99.8971C121.647 100.392 121.643 100.899 121.55 101.393Z" fill="#263238"/>
<path d="M123.464 91.7942L136.483 101.749L132.748 90.1992L135.905 91.8162C135.905 91.8162 141.537 102.233 143.33 107.475C144.027 109.51 144.546 111.603 144.881 113.728C145.299 117.496 143.198 121.709 143.198 121.709L144.997 135.299C145.25 136.762 144.298 138.176 143.655 138.176L123.266 135.426C120.61 134.903 119.521 133.512 119.68 131.972L119.988 129.123L111.276 99.9727C110.765 101.7 110.231 95.7817 114.12 94.3572C115.764 93.7357 120.962 91.2992 123.464 91.7942Z" fill="#FF725E"/>
<path d="M138.05 97.4648C138.05 97.4648 138.116 97.5308 138.215 97.6738L138.639 98.2953C139.002 98.8453 139.519 99.6263 140.129 100.622C141.783 103.185 143.113 105.943 144.089 108.833C145.057 111.752 145.267 114.869 144.7 117.892C144.517 118.801 144.231 119.687 143.847 120.532C143.721 120.834 143.583 121.049 143.506 121.203C143.47 121.282 143.423 121.356 143.369 121.423C143.369 121.423 143.506 121.087 143.748 120.488C144.089 119.637 144.345 118.754 144.513 117.853C145.014 114.857 144.78 111.785 143.831 108.899C142.86 106.031 141.568 103.282 139.981 100.704L138.567 98.3338L138.182 97.6848C138.13 97.6169 138.085 97.5431 138.05 97.4648Z" fill="#263238"/>
<path d="M140.113 133.309C139.738 133.896 139.546 134.581 139.563 135.278C139.59 135.514 139.739 135.828 139.975 135.767C140.124 135.767 140.217 135.597 140.289 135.465C141.592 133.122 142.824 131.125 144.139 128.782L144.078 128.32C142.476 129.739 141.134 131.428 140.113 133.309Z" fill="#FAFAFA"/>
<path d="M139.771 127.727C141.167 127.808 142.568 127.749 143.951 127.551L143.918 127.314C142.661 126.76 141.353 126.325 140.013 126.016C138.754 125.72 137.433 125.816 136.229 126.291C137.228 127.134 138.468 127.637 139.771 127.727Z" fill="#FAFAFA"/>
<path d="M139.876 123.123L143.798 126.423L142.934 124.85C142.067 123.424 140.984 122.141 139.722 121.049C139.575 120.916 139.4 120.816 139.211 120.758C139.116 120.728 139.014 120.724 138.917 120.748C138.82 120.771 138.732 120.82 138.661 120.89C138.599 120.981 138.56 121.085 138.547 121.194C138.535 121.304 138.549 121.414 138.589 121.517C138.85 122.167 139.298 122.726 139.876 123.123Z" fill="#FAFAFA"/>
<path d="M128.386 119.041C129.486 119.762 130.587 119.993 131.769 120.466H132C131.227 119.439 130.352 118.494 129.388 117.644C128.412 116.792 127.199 116.259 125.911 116.115C126.4 117.332 127.268 118.358 128.386 119.041Z" fill="#FAFAFA"/>
<path d="M131.274 115.753C131.896 117.287 132.501 118.75 133.122 120.29L133.172 118.706C133.069 117.042 132.711 115.404 132.11 113.85C132.038 113.666 131.932 113.498 131.797 113.355C131.725 113.285 131.637 113.236 131.54 113.212C131.443 113.189 131.342 113.193 131.247 113.223C131.15 113.272 131.068 113.345 131.007 113.434C130.945 113.524 130.907 113.626 130.895 113.734C130.82 114.43 130.952 115.132 131.274 115.753Z" fill="#FAFAFA"/>
<path d="M138.985 114.252C138.971 114.404 138.933 114.552 138.875 114.692C138.828 114.86 138.768 115.024 138.694 115.182C138.607 115.397 138.51 115.609 138.402 115.814C138.117 116.352 137.78 116.86 137.396 117.332C136.448 118.487 135.245 119.406 133.881 120.016C133.325 120.257 132.747 120.441 132.154 120.566C131.757 120.659 131.352 120.714 130.944 120.731C130.796 120.754 130.646 120.754 130.499 120.731C130.499 120.676 131.131 120.649 132.11 120.39C132.677 120.236 133.229 120.031 133.76 119.78C134.411 119.472 135.032 119.104 135.614 118.68C136.185 118.234 136.712 117.733 137.187 117.184C137.57 116.732 137.915 116.248 138.215 115.737C138.738 114.841 138.936 114.236 138.985 114.252Z" fill="#263238"/>
<g opacity="0.3">
<path d="M129.25 120.934C130.145 121.568 131.21 121.917 132.306 121.934C133.403 121.952 134.479 121.638 135.393 121.033C137.351 119.807 138.303 117.689 138.556 115.533C137.59 117.148 136.229 118.491 134.601 119.436C132.973 120.381 131.132 120.896 129.25 120.934Z" fill="black"/>
</g>
<g opacity="0.3">
<path d="M117.183 107.932L114.708 111.452C115.225 113.404 115.907 115.241 116.424 117.188C117.551 114.237 117.814 111.027 117.183 107.932Z" fill="black"/>
</g>
<path d="M81.3615 149.292L77.8031 154.946L69.9215 157.3C69.8937 157.036 69.9193 156.77 69.9968 156.517C70.0743 156.263 70.2021 156.028 70.3725 155.826C70.9225 155.32 68.7225 156.035 68.7225 156.035L67.0725 159.467C67.0725 159.467 65.9725 159.39 66.033 158.427C66.0935 157.465 67.342 154.44 67.342 154.44L67.9305 154.341C67.8399 154.078 67.813 153.797 67.8522 153.521C67.8914 153.246 67.9956 152.984 68.156 152.757C68.2162 151.81 68.5234 150.896 69.047 150.106C69.4873 149.39 70.0324 148.745 70.664 148.192L77.55 145.354L81.3615 149.292Z" fill="#FFBE9D"/>
<path d="M75.8451 153.67C75.0538 154.208 74.1911 154.634 73.2821 154.935C72.4054 155.314 71.4796 155.567 70.5321 155.688C70.5321 155.617 71.7366 155.254 73.1996 154.698C74.6626 154.143 75.8121 153.604 75.8451 153.67Z" fill="#EB996E"/>
<path d="M71.5 152.967C70.8633 153.341 70.1861 153.642 69.4815 153.863C68.8089 154.163 68.1039 154.385 67.3805 154.523C68.0142 154.147 68.6898 153.846 69.3935 153.627C70.0682 153.327 70.7749 153.106 71.5 152.967Z" fill="#EB996E"/>
<path d="M71.368 151.25C70.8444 151.531 70.3044 151.781 69.751 151.998C69.2356 152.295 68.703 152.561 68.156 152.795C69.0361 151.953 70.1607 151.412 71.368 151.25Z" fill="#EB996E"/>
<path d="M71.4011 149.523C70.9996 149.778 70.5694 149.985 70.1196 150.139C69.7032 150.371 69.2623 150.556 68.8051 150.689C69.1415 150.339 69.5561 150.073 70.0151 149.914C70.4391 149.675 70.9145 149.541 71.4011 149.523Z" fill="#EB996E"/>
<path d="M118.157 94.8809C118.534 95.1785 118.861 95.5351 119.125 95.9369C119.804 96.8828 120.309 97.9426 120.615 99.0664C120.919 100.189 121.018 101.357 120.907 102.515C120.883 102.996 120.781 103.47 120.604 103.917C120.555 103.917 120.665 103.367 120.703 102.498C120.808 100.221 120.198 97.967 118.96 96.0524C118.481 95.3209 118.118 94.9139 118.157 94.8809Z" fill="#263238"/>
<path d="M115.753 94.1602C117.568 94.1602 119.24 95.8377 119.394 97.6472C119.581 99.7922 119.603 102.971 118.542 105.463C116.765 109.621 98.7415 130.999 98.7415 130.999L81.367 149.292L76.89 144.81C76.89 144.81 86.1245 129.718 87.3785 127.897C89.9855 124.097 96.547 117.403 99.1485 112.959C101.75 108.515 107.564 100.364 109.318 98.5877C111.073 96.8112 112.547 94.1657 115.753 94.1602Z" fill="#FF725E"/>
<path d="M105.006 114.988C104.293 115.028 103.608 115.283 103.043 115.72C102.867 115.885 102.718 116.182 102.894 116.352C102.956 116.397 103.027 116.428 103.102 116.441C103.178 116.455 103.255 116.451 103.329 116.429C106.051 116.077 108.57 115.879 111.293 115.522L111.502 115.203C109.365 114.755 107.167 114.683 105.006 114.988Z" fill="#FAFAFA"/>
<path d="M109.401 111.315C110.141 112.46 110.998 113.526 111.958 114.494L112.107 114.241C111.853 112.948 111.466 111.686 110.952 110.473C110.433 109.255 109.552 108.225 108.427 107.525C108.339 108.86 108.681 110.188 109.401 111.315Z" fill="#FAFAFA"/>
<path d="M113.256 108.394C113.146 110.082 113.053 111.694 112.943 113.393L113.685 111.963C114.335 110.385 114.734 108.715 114.868 107.013C114.887 106.811 114.865 106.607 114.801 106.414C114.768 106.318 114.709 106.234 114.63 106.169C114.551 106.105 114.457 106.064 114.356 106.051C114.245 106.055 114.137 106.087 114.042 106.142C113.946 106.198 113.865 106.276 113.806 106.37C113.427 106.975 113.236 107.68 113.256 108.394Z" fill="#FAFAFA"/>
<path d="M117.15 107.58C117.12 107.665 117.077 107.744 117.024 107.817C116.914 107.987 116.782 108.202 116.617 108.455C116.254 109.005 115.709 109.791 115.022 110.743C113.636 112.651 111.656 115.236 109.423 118.052C107.19 120.868 105.116 123.376 103.593 125.202C102.834 126.099 102.207 126.819 101.772 127.314L101.261 127.864C101.14 127.991 101.074 128.057 101.068 128.046C101.063 128.035 101.112 127.969 101.217 127.826L101.69 127.232L103.439 125.065L109.203 117.915C111.436 115.104 113.438 112.541 114.862 110.666C115.544 109.747 116.105 109.016 116.512 108.433C116.688 108.191 116.837 107.987 116.963 107.822C117.014 107.733 117.077 107.652 117.15 107.58Z" fill="#263238"/>
<path d="M88.5885 126.258C90.6787 126.883 92.8617 127.14 95.04 127.017C95.7531 127.043 96.4571 126.851 97.0585 126.467C97.251 126.318 97.4215 126.038 97.262 125.851C97.2035 125.801 97.1345 125.765 97.0602 125.746C96.9858 125.727 96.9082 125.725 96.833 125.741C94.083 125.856 91.564 125.856 88.825 125.972" fill="#FAFAFA"/>
<path d="M90.354 130.306C89.7141 129.103 88.951 127.969 88.077 126.924L87.901 127.166C88.0483 128.474 88.3284 129.764 88.737 131.016C89.1496 132.276 89.9409 133.379 91.003 134.173C91.2036 132.848 90.9762 131.493 90.354 130.306Z" fill="#FAFAFA"/>
<path d="M86.2785 133.391C86.5315 131.714 86.7626 130.091 87.0156 128.441L86.152 129.8C85.3724 131.321 84.8325 132.954 84.5515 134.64C84.5103 134.838 84.5103 135.042 84.5515 135.239C84.5761 135.337 84.627 135.426 84.6988 135.497C84.7706 135.568 84.8604 135.618 84.9586 135.641C85.0704 135.647 85.1821 135.626 85.2838 135.579C85.3854 135.532 85.474 135.461 85.5415 135.371C85.9802 134.8 86.237 134.11 86.2785 133.391Z" fill="#FAFAFA"/>
<path d="M219.175 34.551L221.722 37.84L222.602 43.252L224.527 41.899L226.452 44.7645L243.513 28.6055L219.175 34.551Z" fill="#FF725E"/>
<path opacity="0.3" d="M224.499 41.9306L223.63 42.5246L223.014 39.4941L224.499 41.9306Z" fill="black"/>
<path opacity="0.3" d="M221.722 37.84L243.513 28.6055L223.146 39.1875L222.602 43.252L221.722 37.84Z" fill="black"/>
<path d="M243.513 28.5996C243.435 28.6643 243.35 28.7196 243.26 28.7646L242.512 29.1881L239.723 30.6951L230.45 35.5736L223.031 39.4236L223.08 39.2641C224.015 40.9636 224.862 42.3276 225.467 43.2681C225.759 43.7191 225.99 44.0821 226.177 44.3681C226.269 44.4905 226.346 44.6234 226.408 44.7641C226.298 44.6553 226.201 44.5355 226.116 44.4066C225.935 44.1701 225.676 43.8126 225.357 43.3506C224.714 42.4266 223.834 41.0791 222.871 39.3851L222.811 39.2806L222.921 39.2201L230.318 35.3316L239.602 30.5301L242.435 29.1056L243.21 28.7261C243.303 28.6678 243.406 28.6251 243.513 28.5996Z" fill="#263238"/>
<path d="M243.513 28.5992C243.546 28.6707 238.662 30.7992 232.606 33.4007C226.551 36.0022 221.606 38.0097 221.606 37.9382C221.606 37.8667 226.457 35.7382 232.513 33.1367C238.568 30.5352 243.485 28.5332 243.513 28.5992Z" fill="#263238"/>
<path d="M222.602 43.2505C222.526 42.5894 222.544 41.9209 222.656 41.265C222.678 40.6014 222.793 39.9442 222.998 39.3125C223.073 39.9718 223.055 40.6385 222.943 41.2925C222.924 41.9582 222.809 42.6178 222.602 43.2505Z" fill="#263238"/>
<path d="M201.685 56.6491C201.685 56.7261 201.405 56.8306 201.02 56.8856C200.635 56.9406 200.327 56.8856 200.321 56.8361C200.316 56.7866 200.613 56.6491 200.981 56.5996C201.35 56.5501 201.669 56.5611 201.685 56.6491Z" fill="#263238"/>
<path d="M206.586 54.4492C206.63 54.5097 206.179 54.9332 205.53 55.3182C205.154 55.5918 204.715 55.7642 204.254 55.8187C204.221 55.7417 204.749 55.4447 205.381 55.0707C205.747 54.8008 206.154 54.591 206.586 54.4492Z" fill="#263238"/>
<path d="M210.133 50.4122C210.04 50.8662 209.832 51.2886 209.528 51.6387C209.094 52.2602 208.632 52.6672 208.571 52.6177C208.754 52.2022 208.999 51.8166 209.297 51.4737C209.721 50.8742 210.062 50.3737 210.133 50.4122Z" fill="#263238"/>
<path d="M211.426 45.2305C211.601 45.6629 211.643 46.1379 211.547 46.5945C211.542 47.0613 211.405 47.5172 211.151 47.909C211.127 47.4587 211.164 47.0074 211.261 46.567C211.263 46.1166 211.319 45.668 211.426 45.2305Z" fill="#263238"/>
<path d="M208.153 41.5141C208.621 41.4185 209.107 41.5072 209.511 41.7616C210.226 42.1191 210.545 42.7076 210.49 42.7351C210.435 42.7626 210.023 42.3336 209.39 42.0146C208.758 41.6956 208.142 41.6021 208.153 41.5141Z" fill="#263238"/>
<path d="M203.863 44.1374C203.885 43.6627 204.081 43.2126 204.413 42.8724C204.675 42.4743 205.081 42.1926 205.546 42.0859C205.59 42.1574 205.09 42.4929 204.639 43.0539C204.188 43.6149 203.94 44.1649 203.863 44.1374Z" fill="#263238"/>
<path d="M204.749 49.2307C204.352 48.9684 204.054 48.5813 203.902 48.1307C203.666 47.7235 203.573 47.2492 203.638 46.7832C203.855 47.178 204.039 47.5901 204.188 48.0152C204.463 48.6917 204.82 49.1702 204.749 49.2307Z" fill="#263238"/>
<path d="M209.457 51.6053C209.002 51.7052 208.527 51.6689 208.093 51.5008C207.632 51.4225 207.204 51.2079 206.866 50.8848C207.312 50.9489 207.749 51.0633 208.17 51.2258C208.613 51.2995 209.045 51.427 209.457 51.6053Z" fill="#263238"/>
<path d="M214.687 50.5059C214.352 50.8202 213.94 51.0419 213.494 51.1494C213.075 51.3505 212.609 51.4341 212.146 51.3914C212.536 51.1632 212.956 50.991 213.394 50.8799C213.805 50.6926 214.24 50.5666 214.687 50.5059Z" fill="#263238"/>
<path d="M219.076 47.377C219.131 47.432 218.702 47.8665 218.119 48.3395C217.797 48.6646 217.411 48.9193 216.986 49.0875C216.937 49.0215 217.366 48.587 217.943 48.1195C218.266 47.7972 218.652 47.5446 219.076 47.377Z" fill="#263238"/>
<path d="M221.76 44.3176C221.832 44.3506 221.76 44.6641 221.513 44.9831C221.265 45.3021 221.04 45.4946 220.963 45.4451C220.886 45.3956 221.051 45.1206 221.265 44.8181C221.48 44.5156 221.689 44.2846 221.76 44.3176Z" fill="#263238"/>
</svg>
