<svg width="87" height="80" viewBox="0 0 87 80" fill="none" xmlns="http://www.w3.org/2000/svg">
<path d="M83.416 9.56931C85.1643 9.88863 86.0983 11.4773 86.1701 13.1138C86.2021 13.8642 86.1222 14.6146 86.0983 15.365C86.0903 15.5326 86.0664 15.7003 86.0743 15.8679C86.1063 17.3927 86.1621 18.9254 86.1621 20.4502C86.1621 21.448 86.0664 22.4459 86.0424 23.4438C86.0025 25.1362 85.9626 26.8206 85.9785 28.513C85.9945 30.1016 86.0983 31.6823 86.1222 33.2709C86.1382 34.1251 85.9466 35.0032 86.0664 35.8414C86.1941 36.7195 85.9067 37.2704 85.3479 37.893C84.1185 39.2581 82.7853 40.4157 81.0051 40.9984C79.7917 41.3976 78.5943 41.8287 77.3808 42.2358C76.0397 42.6829 74.7145 43.2017 73.3494 43.545C71.7049 43.9601 70.0365 44.2475 68.368 44.5349C67.418 44.6946 66.4521 44.7744 65.4861 44.8303C63.7698 44.9261 62.0534 44.958 60.3371 45.0378C59.2115 45.0937 58.0859 45.2135 56.9523 45.2773C56.4095 45.3093 55.8586 45.2933 55.3078 45.2773C53.7192 45.2374 52.1385 45.1975 50.5499 45.1496C49.6638 45.1257 48.7697 45.0458 47.8836 45.0778C45.5286 45.1496 43.1816 44.8622 40.8266 44.8303C40.0044 44.8223 39.1821 44.6307 38.3519 44.5349C38.0326 44.495 37.7053 44.503 37.3859 44.487C37.362 44.5429 37.3301 44.5988 37.3061 44.6626C37.7372 45.0698 38.1443 45.5088 38.6073 45.8681C39.6691 46.6744 40.7149 47.5046 41.9363 48.0794C42.3594 48.2789 42.7026 48.6302 43.0938 48.8936C44.5547 49.8516 46.0236 50.8096 47.5004 51.7356C47.8676 51.9671 48.3306 52.0549 48.7058 52.2864C49.8315 52.9889 50.8932 53.7952 52.0587 54.4338C53.2482 55.0885 54.278 55.9586 55.4275 56.6611C56.4733 57.3077 56.8725 58.3695 57.3594 59.3913C57.3914 59.4631 57.3914 59.5589 57.3674 59.6388C57.08 60.6446 57.0321 61.7223 56.3616 62.6164C55.8666 63.279 55.2998 63.9177 55.1481 64.7798C55.1242 64.9076 55.0204 65.0273 54.9486 65.147C53.6713 67.2626 52.41 69.386 51.1087 71.4856C50.4062 72.6192 49.6319 73.7128 48.8974 74.8305C48.4983 75.4372 48.147 76.0758 47.7239 76.6506C47.0534 77.5686 46.3668 78.4947 45.2732 78.9657C44.9778 79.0934 44.6345 79.1652 44.3232 79.1572C43.3652 79.1253 42.4791 78.8619 41.6648 78.319C39.6691 77.0018 37.6494 75.7245 35.6536 74.3994C34.7595 73.8006 34.0331 72.9864 33.586 72.0284C33.0512 70.8948 32.0772 70.2721 31.1592 69.5856C29.7542 68.5398 28.2693 67.6058 26.8244 66.6159C25.0761 65.4265 23.3199 64.253 21.5876 63.0395C19.6317 61.6744 17.612 60.4051 15.8717 58.7287C14.6503 57.5552 13.3092 56.5094 11.9999 55.4317C11.8163 55.28 11.5369 55.2561 11.2655 55.1603C11.1218 54.8889 10.9941 54.5296 10.7706 54.2263C9.9563 53.1246 9.03027 52.1347 7.98449 51.2406C7.60929 50.9213 7.33787 50.4902 7.02653 50.0991C6.14042 48.9894 5.19044 47.9277 4.40012 46.7542C3.69762 45.7244 3.13082 44.5988 2.57201 43.4812C2.09303 42.5152 1.66993 41.5093 1.31069 40.4875C1.03927 39.7132 0.903561 38.8829 0.735917 38.0767C0.58424 37.2943 0.50441 36.512 0.137191 35.7696C-0.15818 35.1708 0.0813102 34.5003 0.312818 33.9015C0.951459 32.2411 1.64598 30.6046 2.28462 28.9441C2.50016 28.3773 2.57999 27.7546 2.80352 27.1878C3.21863 26.0942 3.68963 25.0244 4.13668 23.9467C4.20055 23.795 4.28038 23.6434 4.33626 23.4917C5.27027 21.0249 6.17235 18.5422 7.15426 16.0994C7.60929 14.9738 8.15214 13.8881 8.82271 12.8503C9.45337 11.8764 9.90042 10.7827 10.4512 9.7609C10.7386 9.22604 11.034 8.67521 11.4172 8.20422C12.0957 7.35003 13.1256 7.19037 14.1953 6.78324C14.1953 7.16642 14.2671 7.42986 14.1793 7.62944C13.9877 8.09245 13.7802 8.56345 13.4688 8.94664C13.0856 9.40965 12.902 9.88065 13.0298 10.5432C13.2772 10.2479 13.4928 9.98443 13.7722 9.64914C13.86 9.82477 13.9239 9.91258 13.9398 10.0084C14.0516 10.5991 14.0995 11.2138 14.2591 11.7886C14.4188 12.3474 14.7301 12.8184 15.1852 13.2415C16.4625 14.423 17.9872 15.1015 19.6237 15.5965C20.4779 15.8519 21.3081 16.1792 22.1543 16.4427C23.3997 16.8339 24.653 17.2011 25.9064 17.5603C27.1118 17.9036 28.3172 18.2548 29.5306 18.5183C31.1033 18.8615 32.6919 19.133 34.2805 19.4283C35.3982 19.6359 36.5238 19.8435 37.6494 20.0191C38.6073 20.1628 39.5813 20.2666 40.5472 20.3863C41.3774 20.4821 42.2077 20.5859 43.0379 20.6497C44.1954 20.7455 45.345 20.9531 46.5105 20.6497C46.9496 20.53 47.4445 20.6018 47.9155 20.5939C49.113 20.5779 50.3104 20.6018 51.5079 20.53C52.6495 20.4661 53.7751 20.2745 54.9166 20.1867C55.6591 20.1308 56.4095 20.1388 57.1599 20.1388C58.9241 20.1468 60.6644 19.9472 62.3967 19.6678C65.087 19.2367 67.7852 18.8615 70.4755 18.3985C71.5931 18.2069 72.6868 17.8397 73.7805 17.5443C73.8923 17.5124 73.9721 17.3687 74.0759 17.2889C74.2435 17.1612 74.4032 16.9855 74.5948 16.9296C75.7044 16.5624 76.838 16.283 77.9237 15.8599C78.5384 15.6284 79.0732 15.1894 79.64 14.8461C79.8556 14.7184 80.0711 14.5906 80.2867 14.4629C80.9093 14.0717 80.9333 13.9839 80.7018 13.0818C80.4463 13.2016 80.1909 13.2974 79.9673 13.4331C78.9136 14.0957 77.7321 14.415 76.5506 14.7503C75.3771 15.0856 74.2036 15.4129 73.0301 15.7402C71.8566 16.0595 70.6831 16.3868 69.4936 16.6662C68.7432 16.8418 67.9609 16.8977 67.2025 17.0733C65.7416 17.4246 64.3126 17.8956 62.8438 18.175C61.814 18.3666 60.7442 18.3586 59.6905 18.3826C57.583 18.4145 55.4675 18.4225 53.3599 18.4145C50.494 18.4065 47.6281 18.4305 44.7702 18.3267C43.1098 18.2708 41.4573 17.9435 39.7968 17.8237C37.4418 17.6561 35.0788 17.5843 32.7239 17.4246C32.0932 17.3847 31.4785 17.1931 30.8558 17.0654C29.4987 16.786 28.1416 16.4986 26.7765 16.2351C26.1379 16.1074 25.4753 16.0914 24.8446 15.9238C23.5594 15.5805 22.2901 15.1654 21.1166 14.5108C20.3422 14.0797 19.5918 13.6327 18.6737 13.489C17.7557 13.3453 16.9414 12.8982 16.2389 12.2676C16.0154 12.06 15.7839 11.8604 15.5364 11.6768C14.7621 11.118 14.3709 10.4075 14.3709 9.41763C14.3709 8.15632 14.6184 7.11853 15.8717 6.51182C16.3906 6.24838 16.7898 5.7694 17.2847 5.48999C17.8515 5.17067 18.4263 4.91521 19.1048 4.78749C20.0149 4.61186 20.8771 4.14086 21.7472 3.78163C21.827 3.74969 21.8829 3.63793 21.8989 3.42239C21.2842 3.52617 20.6615 3.59003 20.0628 3.74969C19.4721 3.90935 18.9053 4.15683 18.3385 4.38833C17.7477 4.62782 17.1729 4.93118 16.5742 5.14672C16.0394 5.33831 15.6163 5.81729 15.0335 5.87318C15.0016 5.81729 14.9616 5.76141 14.9297 5.70553C15.0415 5.56982 15.1293 5.38621 15.273 5.31436C16.0633 4.90723 16.8856 4.55598 17.6519 4.11691C18.7376 3.50222 19.9271 3.24676 21.1086 2.96736C23.272 2.45645 25.4114 1.83377 27.5908 1.4426C30.0495 1.00354 32.5562 0.795978 35.0629 0.708165C36.8112 0.644301 38.5515 0.436743 40.2997 0.332964C42.3514 0.213218 44.411 0.117422 46.4706 0.0535581C48.0033 0.00566003 49.5361 -0.026272 51.0608 0.0296091C52.6894 0.0615411 54.3019 0.181286 55.9065 0.340947C58.7644 0.612369 61.6144 0.907741 64.4563 1.25101C65.7815 1.41067 67.0987 1.66613 68.4079 1.92957C70.2121 2.2888 72.0083 2.664 73.7965 3.09509C74.7943 3.33458 75.7683 3.69381 76.7342 4.03708C77.7001 4.38035 78.6661 4.74757 79.6001 5.17067C80.4064 5.53789 81.2047 5.94502 81.9471 6.43997C82.5059 6.80719 82.9051 7.366 83.0568 8.05254C83.1685 8.55547 83.2962 9.06638 83.416 9.56931ZM50.2306 54.8889C50.494 55.1683 50.7016 55.5275 51.1407 55.5754C50.9331 55.2082 50.7016 54.8889 50.2146 54.9049C50.039 54.2502 49.3764 54.2023 48.9453 53.8671C49.3205 54.2822 49.6558 54.7372 50.2306 54.8889ZM15.5205 20.6657C15.5763 20.538 15.6801 20.4182 15.6881 20.2905C15.736 19.1888 15.7759 18.0792 15.7919 16.9775C15.7919 16.8578 15.6083 16.746 15.4566 16.5465C15.4566 17.8876 15.4566 19.0691 15.4566 20.2506C15.4566 20.3863 15.5045 20.522 15.5284 20.6577C15.4805 21.1527 15.4007 21.6476 15.4007 22.1426C15.4007 22.398 15.4885 22.6934 15.6322 22.9169C16.1831 23.7471 16.7419 24.5774 17.3486 25.3677C17.8994 26.0862 18.5141 26.7488 19.0968 27.4353C19.1687 27.4113 19.2405 27.3874 19.3124 27.3634C19.496 25.8626 19.4321 24.3539 19.4002 22.8451C19.3683 21.3203 19.3922 19.7956 19.3922 18.1191C18.8973 19.1649 18.9372 20.1308 18.9771 21.1207C18.7935 20.8653 18.6658 20.5939 18.6259 20.3144C18.5301 19.596 18.4901 18.8695 18.4103 18.1511C18.3943 17.9914 18.2826 17.8397 18.1708 17.6082C17.6759 18.1191 17.636 18.7099 17.5481 19.2128C17.4603 19.7397 17.62 20.3065 17.6759 20.8573C17.4444 20.7216 17.2288 20.538 17.1889 20.3304C17.0931 19.8435 17.0532 19.3405 17.0532 18.8456C17.0532 18.4305 17.1729 18.0233 17.2129 17.6082C17.2528 17.1931 17.0372 17.0733 16.6301 17.1691C16.5662 17.7679 16.4864 18.3426 16.4465 18.9254C16.3986 19.5561 16.1671 20.1867 16.4545 20.8174C16.4944 20.8972 16.4066 21.1048 16.3188 21.1606C16.2309 21.2165 16.0314 21.2085 15.9356 21.1367C15.7919 21.017 15.6642 20.8333 15.5205 20.6657ZM10.3076 17.2889C9.86849 17.5683 9.59706 17.9674 9.54916 18.4943C9.50925 18.8775 9.22186 19.0372 8.91851 19.0292C8.56725 19.0132 8.63112 18.6939 8.65507 18.4464C8.65507 18.4065 8.60717 18.3586 8.67103 18.4624C8.30381 18.2947 8.01643 18.2468 7.85677 18.0792C7.60131 17.8078 7.92063 17.5922 8.02441 17.3448C8.43953 16.3469 8.84666 15.341 9.23783 14.3352C9.34161 14.0717 9.38152 13.7843 9.45337 13.5049C8.79876 14.0637 8.45549 14.7902 8.15214 15.5167C7.55341 16.9456 7.02653 18.4065 6.46772 19.8594C5.71732 21.8073 4.95893 23.7471 4.21651 25.695C3.67367 27.116 3.16275 28.5529 2.65982 29.918C3.25057 30.6285 3.25057 30.6205 2.81948 31.2751C2.57201 31.6503 2.31655 32.0175 2.13294 32.4167C1.94135 32.8478 1.61405 33.2469 1.64598 33.9175C1.80564 33.686 1.88547 33.5822 1.94934 33.4625C2.31655 32.8398 2.68377 32.2171 3.05897 31.6024C3.25855 31.2831 3.50602 31.0676 4.02492 31.2911C3.45014 31.7621 2.9552 32.2091 2.82747 32.9356C3.03503 33.0074 3.2346 33.0793 3.47409 33.1671C2.81948 33.9335 2.22076 34.6599 2.109 35.7696C2.49218 35.3225 2.77957 34.9553 3.10687 34.62C3.32241 34.4045 3.58585 34.2209 3.85728 34.5881C2.45227 36.1527 1.61405 37.6615 1.6859 38.5636C2.2926 37.446 2.61991 36.1288 4.09677 35.9292C4.93498 34.5561 5.31817 33.0474 5.74127 31.5465C5.80513 31.3071 5.87698 31.0596 5.96479 30.8361C6.39587 29.7823 6.84292 28.7285 7.27401 27.6828C7.71307 26.629 8.15214 25.5753 8.58322 24.5215C8.99834 23.4917 9.37354 22.4459 9.8126 21.4321C10.3155 20.2586 10.8344 19.101 11.3932 17.9515C11.5609 17.6162 11.6886 17.3288 11.521 16.8339C11.3054 17.1372 11.1218 17.3368 11.0021 17.5763C10.4512 18.63 9.93235 19.6998 9.3895 20.7615C9.31766 20.9052 9.18993 21.0249 8.97439 21.2964C8.91052 20.4901 9.18195 19.9792 9.40547 19.4523C9.70883 18.7418 10.0042 18.0233 10.2916 17.3049C10.6109 16.8977 10.9382 16.5065 11.2336 16.0755C11.3054 15.9717 11.2416 15.7721 11.2416 15.4528C10.9222 15.8839 10.6907 16.1313 10.555 16.4187C10.4193 16.6662 10.108 16.9137 10.3076 17.2889ZM55.9544 2.72787C55.9704 2.82366 55.9864 2.91148 56.0103 3.00727C55.699 3.05517 55.3876 3.11904 55.0763 3.135C54.4935 3.16693 53.9108 3.17492 53.328 3.19088C52.9368 3.20685 52.5537 3.24676 52.1625 3.26273C50.4541 3.32659 48.7458 2.87954 47.0374 3.28668C46.9576 3.30264 46.8698 3.30264 46.7899 3.30264C45.0177 3.34256 43.2375 3.29466 41.4732 3.56608C40.3157 3.74171 39.1422 3.74171 37.9767 3.84549C36.4599 3.9812 34.9352 4.11691 33.4184 4.27657C31.7898 4.4522 30.1613 4.61984 28.5328 4.85135C27.6227 4.97908 26.7446 5.2984 25.8345 5.37025C23.711 5.53789 21.9388 6.60761 20.0708 7.44583C19.8473 7.54961 19.6237 7.70129 19.4561 7.87691C18.9611 8.40379 18.4742 8.95462 18.5859 9.76889C18.7775 11.142 19.6157 11.9722 20.9888 12.6428C20.7733 11.9722 20.6615 11.4613 20.454 10.9903C20.2225 10.4714 20.3023 10.0643 20.5577 9.57729C21.0766 8.60337 21.9069 8.02859 22.8648 7.63742C23.9186 7.20634 25.0043 6.87105 26.074 6.46392C28.6685 5.47402 31.3747 5.28243 34.1209 5.3463C35.1507 5.37024 36.1805 5.31436 37.2103 5.27445C37.9607 5.24252 38.7191 5.05092 39.4535 5.13075C40.3237 5.23453 41.1779 5.21857 42.0241 5.09882C43.4051 4.89126 44.7862 4.80345 46.1832 4.89126C46.7899 4.93118 47.4046 4.90723 48.0113 4.89925C48.7937 4.89126 49.568 4.85135 50.3503 4.86732C51.6835 4.89925 53.0167 4.97109 54.3498 5.03496C54.4696 5.04294 54.5893 5.08286 54.8687 5.13874C54.5973 5.2984 54.4696 5.42613 54.3339 5.43411C53.807 5.45806 53.2881 5.45008 52.7612 5.44209C51.4041 5.42613 50.039 5.40218 48.6819 5.38621C47.7958 5.37025 46.9017 5.36226 46.0156 5.3463C45.0177 5.33033 44.0278 5.30638 43.0379 5.52192C42.1757 5.71351 41.2737 5.74545 40.3796 5.78536C39.7729 5.80931 39.1661 5.65763 38.5674 5.70553C36.9868 5.84923 35.4221 5.96897 33.8335 5.94502C32.6201 5.92906 31.3987 6.10468 30.1853 6.24838C28.2613 6.4719 26.4572 7.10256 24.7089 7.90884C23.6392 8.40379 22.785 9.12226 22.322 10.2399C21.8031 11.4932 22.2741 12.9701 23.4715 13.6087C24.198 13.9999 24.9803 14.3192 25.7547 14.6066C27.5269 15.2692 29.363 15.7402 31.239 16.0196C32.2289 16.1713 33.2028 16.4267 34.1927 16.5465C36.428 16.8099 38.6712 17.0254 40.9144 17.249C44.1555 17.5763 47.4046 17.712 50.6537 17.688C50.8772 17.688 51.1007 17.6162 51.3323 17.5763C51.1886 17.0574 50.8533 17.1212 50.5499 17.0973C49.7436 17.0414 48.9374 17.0015 48.1311 16.9296C47.7639 16.8977 47.4126 16.786 46.9336 16.4507C47.3328 16.3788 47.5323 16.3229 47.7399 16.315C48.0193 16.307 48.2987 16.3549 48.5701 16.3389C49.8394 16.291 51.1167 16.2351 52.386 16.1633C53.2482 16.1154 54.1103 16.0914 54.9645 15.9797C55.5553 15.9078 56.1301 15.7083 56.7128 15.5725C56.0662 15.4129 55.4435 15.3969 54.8129 15.4209C54.3179 15.4368 53.823 15.5246 53.328 15.5566C52.6335 15.6045 51.9469 15.6364 51.2524 15.6524C50.1667 15.6763 49.0811 15.6923 47.9954 15.7003C46.75 15.7082 45.4967 15.6284 44.2593 15.7003C42.8224 15.7801 41.4333 15.5725 40.0602 15.1814C39.3577 14.9818 38.8388 14.5188 38.4317 13.936C38.0405 13.3692 38.1204 12.8503 38.7111 12.515C39.3577 12.1478 40.0363 11.7966 40.7308 11.5411C42.3833 10.9184 44.0837 10.5113 45.8639 10.5273C46.1114 10.5273 46.3668 10.4874 46.6143 10.4554C48.163 10.2718 49.7117 10.0962 51.2764 10.2319C52.41 10.3277 53.5515 10.3676 54.6931 10.4315C56.4494 10.5273 58.2535 10.192 59.922 11.0462C60.0896 11.134 60.3131 11.0941 60.4968 11.1579C61.2871 11.4054 62.0455 11.7008 62.8517 12.1478C62.6602 12.4033 62.5244 12.5789 62.3808 12.7705C62.0854 12.5629 61.8698 12.3713 61.6303 12.2516C60.5686 11.7327 59.443 11.4693 58.2695 11.3495C56.0742 11.118 53.8868 11.0701 51.6915 11.3495C50.51 11.5012 49.3126 11.5012 48.1311 11.6289C47.0853 11.7407 46.0315 11.9004 45.0017 12.0999C44.2673 12.2436 43.5408 12.4512 42.8383 12.7226C42.511 12.8503 42.04 13.018 42.064 13.497C42.0879 14.0398 42.5988 14.1516 42.99 14.3352C43.0858 14.3831 43.2056 14.3911 43.3173 14.399C43.924 14.4389 44.5387 14.4948 45.1454 14.5108C46.0076 14.5347 46.8777 14.4868 47.7319 14.5427C49.5041 14.6545 51.2764 14.9179 53.0566 14.6385C53.1045 14.6305 53.1604 14.6625 53.2162 14.6705C53.7112 14.7104 54.2061 14.7902 54.7011 14.7663C56.0901 14.7104 57.4792 14.6146 58.8682 14.5427C59.1077 14.5268 59.3871 14.4629 59.4989 14.8461C58.996 15.5566 58.0699 15.1175 57.2636 15.6125C57.9262 15.7003 58.4212 15.8519 58.8922 15.82C60.2653 15.7082 61.5266 15.2133 62.716 14.5108C63.4984 14.0478 63.8017 13.3453 63.682 12.3314C64.0173 12.4113 64.4404 12.3953 64.5282 12.5629C64.9273 13.2894 65.2706 14.0637 64.9672 14.9419C64.6639 15.804 63.9534 16.2112 63.1631 16.4028C62.1971 16.6343 61.1913 16.7221 60.1934 16.8339C59.459 16.9137 58.7724 17.1053 58.1178 17.4326C59.419 17.72 60.7203 17.5922 62.0055 17.5364C62.6282 17.5044 63.2669 17.3128 63.8656 17.0973C64.8794 16.7221 65.8534 16.2511 66.8672 15.8519C67.6416 15.5486 68.0567 14.9578 68.2562 14.1995C68.4079 13.6406 68.3041 13.3612 67.7932 13.0978C67.3222 12.8583 66.8353 12.6667 66.3403 12.4831C65.4782 12.1638 64.608 11.8604 63.7379 11.5491C64.0891 11.3655 64.4643 11.2298 64.7677 11.3176C65.9332 11.6768 67.1546 11.9004 68.2243 12.523C69.1104 13.0419 69.2781 13.5209 68.9109 14.4709C68.7751 14.8142 68.6235 15.1574 68.4079 15.6683C69.4537 15.2213 70.0125 14.5587 70.3717 13.7285C70.6911 12.994 70.7469 12.2676 70.1163 11.6369C70.0684 11.589 70.0844 11.4932 70.0684 11.4214C70.6272 11.2378 70.9226 11.3415 71.1221 11.8365C71.4495 12.6508 71.2738 13.4251 70.8667 14.1595C70.6512 14.5507 70.3877 14.9259 70.1482 15.3011C70.6911 15.1654 71.178 15.0057 71.5612 14.7024C72.3595 14.0717 72.9024 13.2175 72.7746 12.1798C72.583 10.6789 71.6331 9.35377 69.9087 9.15419C69.5655 9.11428 69.2382 8.98655 68.9029 8.90672C68.9188 8.83487 68.9348 8.77101 68.9508 8.69916C70.0365 8.47564 71.0902 8.69916 71.9684 9.34579C73.3494 10.3596 73.9242 11.7726 73.4452 13.6327C74.507 13.1138 74.954 12.2676 75.425 11.3575C75.8162 11.8525 75.6805 12.2037 75.3931 12.555C75.1216 12.8823 74.8662 13.2096 74.6027 13.5449C74.6427 13.5848 74.6906 13.6247 74.7305 13.6646C74.962 13.5209 75.2174 13.4091 75.409 13.2255C75.88 12.7785 76.375 12.2676 76.3271 11.605C76.2632 10.7348 75.9279 9.92056 75.0498 9.49746C74.3792 9.17016 73.7007 8.83487 73.0141 8.54748C72.2957 8.24413 71.5772 7.93279 70.8268 7.73322C70.4436 7.62944 69.9407 7.90884 69.5974 7.75717C69.1903 7.58154 68.839 7.35802 68.368 7.33407C68.0088 7.3181 67.6575 7.2223 67.3143 7.12651C67.2025 7.09458 67.1306 6.91895 66.947 6.69543C67.7054 6.75929 68.3041 6.87105 68.8949 6.8471C70.0365 6.79921 71.0902 7.09458 72.12 7.51768C73.2217 7.97271 74.3154 8.46765 75.441 8.85882C76.1435 9.1063 76.5745 9.52141 76.8061 10.2C76.9098 10.4874 77.0695 10.7588 77.2052 11.0382C77.2771 11.0222 77.3489 10.9983 77.4128 10.9823C77.4287 10.4235 77.5644 9.84073 77.4207 9.32982C77.2771 8.81092 76.846 8.37186 76.5107 7.85296C77.2691 7.86095 77.7401 8.37186 78.3548 9.59326C79.0732 11.0142 78.4745 12.1798 77.7002 13.3213C77.7481 13.3213 77.8039 13.3373 77.8438 13.3293C79.2968 12.8184 80.4623 11.9403 81.4282 10.7189C82.0589 9.91258 82.2265 9.13024 81.8194 8.25211C81.5559 7.67734 81.1488 7.16642 80.7816 6.64753C80.7018 6.53577 80.4942 6.51182 80.3505 6.44795C79.8636 6.26434 79.3606 6.10468 78.8896 5.88914C77.9875 5.46604 77.1094 5.01101 76.2153 4.57194C76.1435 4.54001 76.0477 4.56396 75.9678 4.54001C75.6166 4.4522 75.2653 4.38035 74.9221 4.27657C74.2914 4.077 73.6767 3.78961 73.0301 3.6539C71.0982 3.24676 69.1583 2.88753 67.2185 2.52031C66.2365 2.3367 65.2626 2.15309 64.2727 2.0094C63.0354 1.83377 61.79 1.71403 60.5447 1.55436C59.6905 1.4426 58.8523 1.25899 57.9981 1.18715C56.0582 1.02749 54.1103 0.907741 52.1705 0.803961C50.6218 0.724131 49.0651 0.620352 47.5164 0.660267C45.9118 0.700182 44.3152 0.891775 42.6946 0.843877C41.7287 0.811944 40.7548 0.923707 39.7888 1.01152C38.8229 1.09933 37.8569 1.22706 36.891 1.33084C36.396 1.38672 35.9011 1.43462 35.4061 1.45059C34.9112 1.46655 34.4083 1.41067 33.9133 1.4426C33.0831 1.49848 32.2449 1.54638 31.4306 1.69806C30.3289 1.90562 29.1395 1.82579 28.1735 2.56821C28.0538 2.65602 27.8542 2.64804 27.6866 2.64804C26.9601 2.64005 26.3374 2.93543 25.7068 3.23878C25.5072 3.33458 25.3076 3.43037 25.1001 3.50222C23.3438 4.11691 21.5796 4.72362 19.8233 5.33831C19.2725 5.52991 18.7057 5.71351 18.2028 5.99292C17.2448 6.53577 16.2469 7.06264 16.1112 8.37186C16.0154 9.34579 16.2709 10.1521 17.133 10.9184C17.2049 10.3277 17.2767 9.87267 17.3166 9.40965C17.3805 8.77899 17.5721 8.18825 18.0351 7.75717C18.8095 7.03869 19.6716 6.41602 20.6615 6.02485C22.1623 5.42613 23.719 5.05891 25.2837 4.67572C28.7403 3.82952 32.2608 3.61398 35.7893 3.36651C37.9847 3.21483 40.172 2.99131 42.3594 2.79972C42.5509 2.78375 42.7505 2.7598 42.9421 2.75182C44.6824 2.68795 46.4307 2.95139 48.171 2.61611C48.65 2.52829 49.1689 2.60812 49.6638 2.67199C51.0449 2.86358 52.4179 2.95139 53.815 2.74383C54.5175 2.64005 55.2439 2.72787 55.9544 2.72787ZM52.6255 44.3433C52.6814 44.1916 52.7772 44.0479 52.7931 43.8963C52.9209 42.8505 53.0326 41.7967 53.1524 40.751C53.1843 40.4476 53.1843 40.1363 53.2562 39.8409C53.2881 39.7212 53.4717 39.6333 53.5835 39.5375C53.6553 39.6892 53.7351 39.8409 53.807 40.0006C53.815 40.0165 53.791 40.0564 53.783 40.0804C53.6713 41.0144 53.5356 41.9484 53.4557 42.8904C53.4158 43.3854 53.4398 43.8883 53.7511 44.3433C54.0465 44.3433 54.3339 44.3433 54.6133 44.3433C54.8927 42.5392 54.1902 23.5556 53.807 22.1426C53.3679 22.0867 52.9289 21.8073 52.3461 22.1505C52.3461 22.5257 52.3461 22.9648 52.3461 23.4039C52.3541 24.4576 52.3701 25.5194 52.378 26.5731C52.378 26.8446 52.3222 27.0601 51.947 27.0441C51.8911 25.3916 51.8432 23.7631 51.7873 22.1346C51.0528 21.943 50.8852 21.959 50.8373 22.3501C50.6856 23.6434 50.4781 24.9446 50.7734 26.2458C50.8613 26.613 50.9411 26.9403 50.4222 27.3076C50.3823 27.2038 50.3264 27.1 50.3024 26.9962C49.8953 25.4635 50.047 23.9148 50.2546 22.382C49.2966 22.1186 49.121 22.1745 48.9773 23.0127C48.8336 23.8829 48.8096 24.777 48.7138 25.6551C48.6659 26.1181 48.6021 26.5891 48.5063 27.0441C48.4823 27.1479 48.2987 27.2198 48.0832 27.3874C47.9554 25.6471 48.1949 24.0665 48.3147 22.4619C48.147 22.422 48.0433 22.39 47.9315 22.382C47.221 22.3421 47.221 22.3741 47.0773 23.0686C46.9097 23.8669 46.8698 24.6572 46.9815 25.4715C47.0454 25.9026 47.0214 26.3656 46.9576 26.7967C46.9017 27.1719 46.75 27.5391 46.6063 27.8903C46.5744 27.9622 46.3668 28.0101 46.2471 27.9941C46.1752 27.9861 46.0874 27.8424 46.0715 27.7546C46.0475 27.6189 46.0635 27.4752 46.0874 27.3395C46.3109 26.2059 46.263 25.0643 46.2311 23.9308C46.2151 23.4119 46.2311 22.893 46.2311 22.3102C45.1454 21.9829 43.948 22.0867 42.7665 22.1026C42.3753 22.1106 42.2795 22.3501 42.1837 22.6774C41.7926 24.0106 41.7926 25.3597 41.9762 26.7168C42.032 27.1 41.9682 27.4273 41.4493 27.5311C41.2577 25.7269 41.4413 23.9707 41.593 22.1825C40.627 21.8073 39.685 21.6716 38.7271 21.6316C38.304 22.4938 38.3998 23.3719 38.3678 24.2261C38.3519 24.769 38.3678 25.3278 38.4477 25.8706C38.5435 26.4454 38.5036 26.5492 37.7372 26.6929C37.6893 26.3975 37.5935 26.0941 37.6174 25.8068C37.6973 24.5614 37.817 23.3161 37.9208 22.0707C37.9607 21.5758 37.9048 21.5119 37.4019 21.4321C36.7712 21.3283 36.5876 21.4001 36.5158 21.8632C36.3242 23.1404 36.436 24.4177 36.6595 25.679C36.7792 26.3576 36.6675 26.6689 35.8372 27.0441C35.8372 26.158 35.8372 25.3118 35.8372 24.4736C35.7813 24.4736 35.7175 24.4816 35.6616 24.4816C35.5419 25.9425 35.478 27.4034 35.5419 28.8802C35.6456 31.2432 35.7494 33.5982 35.8133 35.9612C35.8372 36.7914 35.7255 37.6216 35.7015 38.4519C35.6776 39.4497 35.6776 40.4476 35.7015 41.4455C35.7095 41.7967 35.8053 42.148 35.8692 42.4913C35.925 42.4833 35.9889 42.4753 36.0448 42.4673C36.0927 41.8047 36.1645 41.1421 36.1885 40.4795C36.2044 40.1043 36.2843 39.8409 36.8032 39.793C36.8511 41.0224 36.6196 42.1959 36.5158 43.4492C36.9469 43.5131 37.3141 43.569 37.7292 43.6248C37.8489 42.7068 37.9447 41.8845 38.0645 41.0623C38.1044 40.7909 38.1683 40.5115 38.272 40.256C38.312 40.1682 38.5036 40.0724 38.6073 40.0964C38.7031 40.1123 38.8149 40.264 38.8468 40.3758C38.8788 40.5035 38.8548 40.6552 38.8149 40.7829C38.4876 41.7409 38.4876 42.7308 38.5275 43.7286C38.767 43.8164 38.9267 43.8085 38.9666 43.529C39.0464 42.9543 39.1422 42.3795 39.222 41.7967C39.2859 41.3018 39.3019 40.7989 39.3977 40.3039C39.4296 40.1522 39.6212 40.0245 39.7409 39.8888C39.8846 40.0325 40.1081 40.1602 40.1481 40.3358C40.2039 40.5594 40.1321 40.8308 40.0762 41.0703C39.8527 41.9963 39.7489 42.9223 39.9804 43.9202C40.4035 43.9202 40.8027 43.9202 41.2258 43.9202C41.2258 43.1618 41.2417 42.4753 41.2178 41.7808C41.2018 41.3098 41.13 40.8388 41.122 40.3678C41.122 40.2401 41.2976 39.9926 41.3615 40.0006C41.5211 40.0245 41.7606 40.1363 41.8005 40.264C41.8884 40.5514 41.8963 40.8627 41.8963 41.1661C41.8963 41.8287 41.8085 42.4913 42.1278 43.1299C42.2636 43.4093 42.2236 43.7526 41.7606 43.7845C41.6888 43.7925 41.6169 43.8803 41.4972 43.9761C42.7984 44.2316 42.9261 44.1278 42.982 42.9862C43.0619 41.3497 43.1736 39.7132 43.2854 38.0767C43.3013 37.8611 43.3572 37.6296 43.445 37.43C43.4929 37.3262 43.6526 37.1905 43.7484 37.2065C43.8921 37.2225 44.0438 37.3342 44.1475 37.446C44.2114 37.5099 44.1954 37.6615 44.1954 37.7653C44.2513 38.9308 44.3551 40.0964 44.3551 41.2699C44.3551 41.9883 44.1954 42.6988 44.1316 43.4173C44.0837 43.9681 44.2194 44.0958 44.9299 44.1038C44.9299 43.7206 44.9139 43.3295 44.9299 42.9463C44.9698 42.1959 45.0097 41.4455 45.0975 40.6951C45.1135 40.5354 45.329 40.2879 45.4727 40.272C45.7521 40.2401 45.792 40.5035 45.7841 40.751C45.7601 41.693 45.7282 42.6429 45.7122 43.5849C45.7122 43.7685 45.7521 43.9601 45.7841 44.1837C46.0954 44.1837 46.3588 44.1837 46.6542 44.1837C46.7021 43.9841 46.774 43.8005 46.7899 43.6089C46.8458 42.7228 46.8857 41.8367 46.9256 40.9505C46.9416 40.5753 46.9177 40.1922 47.5403 40.2959C47.676 40.9346 47.5244 41.5572 47.4605 42.1879C47.3966 42.8345 47.3487 43.4891 47.2849 44.1837C47.6281 44.1837 47.8676 44.1837 48.1391 44.1837C48.4903 43.0261 48.7378 41.8686 48.626 40.6552C48.6101 40.5195 48.7937 40.3598 48.8815 40.2161C49.0092 40.3358 49.2247 40.4476 49.2487 40.5833C49.2966 40.9585 49.2966 41.3577 49.2647 41.7329C49.1928 42.5551 49.097 43.3694 49.0012 44.2475C49.568 44.2954 50.047 44.3353 50.6537 44.3832C50.6537 43.1459 50.6537 42.0123 50.6537 40.8787C50.6537 40.272 50.8134 40.1762 51.452 40.3598C51.4201 41.7009 51.3802 43.0341 51.3402 44.4072C51.7154 44.3433 52.1545 44.3433 52.6255 44.3433ZM21.0926 51.4402C21.0367 51.56 21.0128 51.6717 20.9489 51.7516C20.1905 52.7255 19.6397 53.8032 19.1687 54.9448C18.9292 55.5195 18.4981 56.0145 18.2267 56.5813C17.8914 57.2758 17.628 58.0102 17.3406 58.7207C17.3087 58.7926 17.3246 58.8804 17.3087 59.0001C17.4683 59.1279 17.636 59.2636 17.8914 59.4632C18.2107 59.0241 18.5221 58.6409 18.7775 58.2258C19.1128 57.6829 19.3842 57.0922 19.7275 56.5573C20.0867 56.0065 20.4859 55.4796 21.2523 55.296C21.3081 56.0863 20.5817 56.2939 20.2863 56.7809C19.967 57.2998 19.5918 57.7947 19.3124 58.3296C19.041 58.8644 18.8574 59.4392 18.6179 60.0539C18.9532 60.2774 19.2405 60.477 19.5678 60.7005C19.6796 60.5089 19.7435 60.3892 19.8073 60.2774C20.3262 59.3274 20.8371 58.3695 21.372 57.4355C21.4918 57.2279 21.7073 57.0682 21.9069 56.9245C22.0985 56.7809 22.322 56.717 22.4976 56.9565C22.6493 57.172 22.6094 57.3636 22.3938 57.5313C21.4518 58.2657 21.0607 59.3594 20.6216 60.4051C20.3821 60.9799 20.5977 61.403 21.1644 61.6665C21.2602 61.5467 21.38 61.427 21.4518 61.2833C21.851 60.485 22.2102 59.6707 22.6493 58.8964C22.8728 58.4972 23.1921 58.138 23.5194 57.8107C23.5993 57.7308 23.9026 57.8745 24.0942 57.9144C24.0304 58.0821 24.0224 58.3056 23.9026 58.4014C22.8808 59.2556 22.4018 60.453 21.9149 61.6265C21.6833 62.1854 21.7791 62.2891 22.4497 62.6005C22.5615 62.361 22.6732 62.1135 22.801 61.874C23.2321 61.0917 23.6631 60.3173 24.1022 59.551C24.2938 59.2157 24.4934 58.8804 24.7169 58.5611C24.8606 58.3615 25.0522 58.2657 25.3316 58.569C24.5253 59.9741 23.9425 61.5387 22.777 62.816C23.3199 63.2471 23.8068 63.6862 24.5093 63.8698C24.9165 63.1752 25.3236 62.5206 25.6828 61.8341C26.6568 59.99 27.6147 58.138 28.5807 56.2939C29.3151 54.8889 30.0256 53.4759 30.8159 52.0948C31.7659 50.4344 32.7797 48.8058 33.7696 47.1613C34.1847 46.4748 34.6318 45.7962 35.0549 45.1097C35.3982 44.5589 35.3662 44.4072 34.8314 44.008C34.7276 43.9282 34.5999 43.8723 34.4083 43.7685C33.6978 45.0698 33.3226 46.5865 31.8058 47.4168C31.7898 47.1533 31.734 46.9937 31.7898 46.9059C32.0054 46.5546 32.2209 46.1794 32.5163 45.892C33.1869 45.2215 33.5301 44.3673 33.9133 43.537C33.9453 43.4732 33.8654 43.3534 33.8175 43.1778C33.61 43.3534 33.4343 43.4492 33.3385 43.5929C32.6999 44.5668 32.0852 45.5488 31.4546 46.5307C31.4067 46.6025 31.3987 46.7063 31.3348 46.7462C31.2151 46.834 31.0714 46.8899 30.9357 46.9538C30.8718 46.8181 30.7201 46.6584 30.7521 46.5466C30.8399 46.2273 30.9596 45.9 31.1432 45.6286C31.6302 44.8862 32.1571 44.1677 32.676 43.4412C33.2507 42.635 33.139 42.2917 32.173 41.9324C31.4226 42.9942 30.6722 44.0639 29.9058 45.1177C29.7941 45.2693 29.6105 45.3572 29.4508 45.4769C29.3949 45.437 29.3311 45.4051 29.2752 45.3651C29.3071 45.1416 29.2752 44.8862 29.371 44.6946C29.5386 44.3752 29.7861 44.1038 29.9937 43.8085C30.5764 43.0102 31.1672 42.2039 31.8377 41.2938C31.4865 40.9346 31.2071 40.6392 30.9197 40.3438C30.2172 40.8947 29.8021 41.4455 29.4588 42.0522C29.2113 42.4833 28.9639 42.9223 28.7084 43.3534C28.5567 43.6089 28.3651 43.8005 28.0378 43.6089C28.0298 42.9303 29.1954 41.0064 30.2731 39.9447C30.0016 39.7212 29.7302 39.4976 29.379 39.2023C28.7723 40.1283 28.0538 40.9026 27.5988 41.8606C27.4471 42.1879 27.2954 42.5232 26.7286 42.4194C26.9202 40.7989 28.2134 39.8569 28.9718 38.6035C28.7643 38.3481 28.5727 38.1166 28.3651 37.8611C28.1496 38.0926 28.0059 38.1964 27.9261 38.3321C27.3194 39.33 26.7126 40.3279 26.1299 41.3337C25.587 42.2598 25.2118 43.2656 24.677 44.1916C24.5014 44.495 24.3816 44.8702 23.8467 44.7584C23.8627 44.5908 23.8388 44.4152 23.8946 44.2795C24.1102 43.7047 24.3816 43.1539 24.5732 42.5791C24.7408 42.0602 25.3076 41.6051 24.8606 40.9665C24.8207 40.9106 24.8845 40.751 24.9324 40.6631C25.116 40.2879 25.2837 39.9048 25.4992 39.5535C25.9383 38.843 26.4173 38.1565 26.8484 37.446C27.016 37.1746 27.3433 36.8473 26.7605 36.48C26.5211 36.7834 26.2496 37.0548 26.0501 37.3741C25.7547 37.8451 25.5152 38.3481 25.2278 38.8271C25.0282 39.1623 24.8207 39.4896 24.5732 39.793C24.5093 39.8728 24.2379 39.8968 24.1501 39.8249C24.0543 39.7531 24.0304 39.5375 24.0543 39.4018C24.0783 39.2821 24.214 39.1783 24.2938 39.0665C24.8766 38.2203 25.4593 37.3662 26.0501 36.5279C26.2656 36.2246 26.2416 35.9532 25.9862 35.7137C25.8265 35.57 25.619 35.4742 25.4114 35.3385C25.2677 35.5221 25.132 35.6578 25.0362 35.8254C24.5173 36.7195 24.0064 37.6057 23.5035 38.5077C23.3997 38.6993 23.3518 38.9867 23.0644 38.8829C22.7531 38.7632 22.8169 38.4998 22.9367 38.2523C23.1043 37.901 23.24 37.5338 23.4396 37.2065C23.8867 36.4401 24.3656 35.6897 24.8766 34.8435C24.5572 34.604 24.2539 34.3646 23.8707 34.0692C23.1921 35.2666 22.5695 36.3364 21.9628 37.422C21.7951 37.7254 21.6115 37.901 21.2443 37.7414C21.2283 37.6376 21.1804 37.5418 21.2044 37.4779C21.6833 36.0649 22.6493 34.9393 23.5753 33.702C23.272 33.4625 23.0085 33.2549 22.7211 33.0314C22.5695 33.215 22.4657 33.3108 22.4018 33.4305C21.859 34.4045 21.3081 35.3704 20.7972 36.3523C20.6136 36.7036 20.4619 36.983 19.9031 36.7515C20.7174 35.3305 21.5077 33.9415 22.322 32.5205C22.0506 32.2171 21.8191 31.9537 21.4997 31.5865C21.3161 31.8978 21.1565 32.1054 21.0447 32.3448C20.1027 34.4763 19.2246 36.6397 18.2187 38.7472C17.3805 40.5035 16.5822 42.2677 15.8637 44.0799C15.2171 45.7324 14.1394 47.1933 13.7083 48.9415C13.6445 49.197 13.5327 49.4445 13.381 49.8676C13.6844 49.668 13.836 49.5722 13.9877 49.4764C14.1314 49.3886 14.2831 49.3008 14.4268 49.213C13.397 50.8415 12.5428 52.502 11.976 54.3141C12.1357 54.2742 12.2315 54.1864 12.2953 54.0906C12.8781 53.0448 13.4529 51.999 14.0436 50.9533C14.2033 50.6659 14.4188 50.4024 14.6423 50.1629C14.81 49.9793 15.0255 49.9474 15.265 50.2348C14.9936 50.586 14.6583 50.9213 14.4348 51.3205C13.9159 52.2385 13.4369 53.1885 12.9499 54.1305C12.8462 54.3301 12.7583 54.5376 12.6945 54.7452C12.5987 55.0326 12.7264 55.2322 12.9819 55.3519C13.2293 55.4716 13.405 55.3679 13.5327 55.1364C13.6764 54.8649 13.844 54.6095 13.9877 54.3381C14.347 53.6515 14.6743 52.941 15.0734 52.2705C15.3528 51.8074 15.736 51.4003 16.0713 50.9772C16.6301 51.3843 16.678 51.528 16.3507 51.9352C16.1272 52.2146 15.8398 52.4541 15.6083 52.7255C14.8419 53.6276 14.4907 54.7612 13.9957 55.8069C13.9398 55.9187 14.0835 56.1262 14.1394 56.2939C14.9138 56.0065 15.1373 55.3599 15.4885 54.8091C15.9515 54.0826 16.4305 53.3641 16.9654 52.6856C17.2687 52.2944 17.3645 52.3343 17.8196 52.7255C17.2448 53.4679 16.662 54.2103 16.1032 54.9687C15.9036 55.2321 15.728 55.5275 15.6163 55.8309C15.4646 56.254 15.3927 56.701 15.265 57.2119C15.5923 57.4754 15.9675 57.7867 16.4545 58.1779C17.2767 56.6451 18.0511 55.2082 18.8334 53.7713C19.1687 53.1645 19.48 52.5339 19.8712 51.9671C20.1346 51.5919 20.4859 51.2247 21.0926 51.4402ZM62.3009 29.5668C62.3009 26.8286 62.3009 24.0585 62.3009 21.3203C61.8619 21.2006 61.7261 21.3682 61.7102 21.6716C61.6942 22.0627 61.6782 22.4539 61.6862 22.8371C61.7182 23.8669 61.7501 24.8967 61.798 25.9265C61.814 26.3257 61.7661 26.637 61.1913 26.6849C61.1913 24.9127 61.1913 23.1883 61.1913 21.472C60.4808 21.2485 60.3291 21.2724 60.2812 21.7035C60.2014 22.5018 60.1455 23.3081 60.1535 24.1064C60.1535 24.8807 60.2573 25.6551 60.2732 26.4294C60.2812 26.5811 60.1136 26.7328 60.0337 26.8845C59.914 26.7567 59.7783 26.637 59.6665 26.5013C59.6186 26.4454 59.6266 26.3416 59.6186 26.2538C59.6027 25.0324 59.5787 23.811 59.5627 22.5896C59.5548 22.2384 59.5627 21.8871 59.5627 21.3762C59.2833 21.5438 59.0039 21.6077 58.956 21.7594C58.7884 22.2224 58.6208 22.7094 58.5968 23.1883C58.5569 24.266 58.6128 25.3517 58.6287 26.4374C58.6287 26.6849 58.6846 26.9403 58.3254 27.116C58.2296 26.9723 58.0619 26.8366 58.038 26.6849C57.9661 26.3017 57.9342 25.9105 57.9342 25.5274C57.9502 24.4656 57.9981 23.4119 58.014 22.3501C58.022 21.7434 57.8624 21.6316 57.2397 21.7674C57.1599 21.7833 57.088 21.8312 57.0242 21.8632C56.7048 22.4858 56.7527 23.1325 56.7687 23.7711C56.8006 24.6572 56.8246 25.5513 56.8805 26.4374C56.9124 26.9563 56.7128 27.3155 56.3216 27.6189C55.9464 27.4513 56.0023 27.1719 56.0103 26.8925C56.0502 25.4715 56.0822 24.0505 56.1141 22.6295C56.1141 22.4459 56.0502 22.2623 56.0183 22.0867C55.2759 22.0547 55.0843 22.2064 55.0923 22.9169C55.1082 23.7791 55.236 24.6412 55.22 25.5034C55.1801 27.2277 55.3477 28.9441 55.4515 30.6604C55.5792 32.6243 55.683 34.5881 55.6271 36.5599C55.6112 37.1426 55.667 37.7254 55.683 38.3082C55.7149 39.33 55.7469 40.3518 55.7548 41.3816C55.7628 41.9883 55.683 42.603 55.7229 43.2097C55.7469 43.6488 55.9065 44.0799 56.0023 44.511C56.2099 44.3353 56.2897 44.1677 56.2977 43.9921C56.3695 42.8026 56.4254 41.6051 56.4893 40.4157C56.5053 40.0964 56.4813 39.7212 57.08 39.6972C57.08 39.9926 57.104 40.248 57.072 40.5035C56.9762 41.3018 56.8485 42.1001 56.7607 42.8984C56.7048 43.4173 56.6569 43.9522 57.0641 44.3753C57.4951 44.4311 57.6229 44.2076 57.6468 43.8484C57.7027 42.9623 57.7746 42.0682 57.8384 41.182C57.8544 40.9346 57.8703 40.6791 57.9422 40.4396C58.046 40.0804 58.2695 40.0325 58.5888 40.272C58.5649 40.4875 58.5409 40.7031 58.509 40.9266C58.4132 41.7568 58.3094 42.5871 58.2216 43.4173C58.1897 43.7446 58.1737 44.0799 58.6766 44.2874C58.7245 44.032 58.7804 43.8324 58.8044 43.6328C58.9321 42.4992 59.0438 41.3657 59.1875 40.2321C59.2195 39.9766 59.2833 39.5854 59.6585 39.6733C60.0178 39.7531 59.922 40.1043 59.8422 40.3758C59.8342 40.3997 59.8182 40.4237 59.8102 40.4556C59.6585 41.3577 59.4989 42.2598 59.3552 43.1698C59.3233 43.3854 59.3392 43.6248 59.3951 43.8324C59.4749 44.1358 59.6905 44.2874 60.0178 44.2635C60.3451 44.2395 60.4329 44.032 60.4409 43.7526C60.4648 43.1139 60.5047 42.4753 60.5127 41.8367C60.5287 40.9505 60.5047 40.0564 60.5367 39.1703C60.5447 39.0266 60.7362 38.7871 60.864 38.7792C61.1194 38.7552 61.2312 38.9548 61.2152 39.2262C61.1354 40.4476 61.0636 41.669 61.0077 42.8904C60.9917 43.3135 61.0476 43.7446 61.0795 44.2475C61.4308 44.1916 61.6623 44.1597 61.9417 44.1198C61.9976 42.7946 62.0534 41.5253 62.0934 40.248C62.1173 39.4098 62.0774 38.5716 62.1253 37.7414C62.1492 37.3741 62.3169 37.0069 62.4606 36.6637C62.5404 36.4641 62.8278 36.48 62.9236 36.6796C62.9795 36.7994 63.0034 36.9431 63.0034 37.0788C62.9954 38.0767 62.9715 39.0825 62.9635 40.0804C62.9475 41.2778 62.9555 42.4753 62.9396 43.6727C62.9316 44.1358 63.1471 44.2635 63.5862 44.1358C63.6181 43.9681 63.666 43.8085 63.666 43.6488C63.7059 42.3476 63.7458 41.0463 63.7778 39.7371C63.7778 39.6254 63.7698 39.4497 63.8257 39.4178C63.9694 39.338 64.2009 39.2342 64.2967 39.2901C64.4324 39.3699 64.5521 39.6014 64.5441 39.7691C64.5362 40.1283 64.4404 40.4795 64.3845 40.8308C64.2488 41.7009 64.0652 42.5711 64.0013 43.4492C63.9694 43.9442 64.0891 43.9681 64.6639 43.8164C64.7517 42.4513 64.8395 41.0863 64.9273 39.7291C64.9353 39.5615 64.9273 39.3859 64.9832 39.2342C65.0231 39.1224 65.1509 38.9867 65.2546 38.9787C65.3584 38.9707 65.55 39.0905 65.566 39.1783C65.6139 39.4098 65.6139 39.6653 65.5899 39.8968C65.4462 41.0863 65.2866 42.2677 65.1349 43.3933C65.8294 44.0559 65.8294 44.0559 66.5798 43.7526C66.5399 42.6908 66.484 41.6131 66.476 40.5274C66.468 40.0325 66.5399 39.5375 66.5878 39.0426C66.6117 38.8031 66.7475 38.5636 67.0109 38.6594C67.1466 38.7073 67.2185 38.9867 67.2823 39.1703C67.3143 39.2661 67.2424 39.3859 67.2185 39.4976C66.9311 40.6951 66.9151 41.9245 66.939 43.1459C66.947 43.7526 67.0827 43.8643 67.7214 43.8085C68.3041 43.7606 68.8789 43.6568 69.4617 43.569C69.765 43.5211 70.0764 43.5051 70.3638 43.4173C70.7469 43.3055 70.8188 42.9543 70.4675 42.7707C70.1562 42.603 70.1083 42.3795 70.0844 42.1001C70.0604 41.7967 70.0205 41.4934 70.0285 41.182C70.0604 40.0964 70.1482 39.0107 70.1323 37.933C70.1163 36.017 70.0285 34.0931 69.9886 32.1772C69.9167 28.2575 69.8608 24.3379 69.797 20.4182C69.797 20.2107 69.7411 20.0031 69.7012 19.7237C69.1823 19.8435 68.7352 19.9392 68.3041 20.035C68.376 22.1186 68.4478 24.0904 68.5197 26.0702C67.7693 24.1702 67.9289 22.1346 67.6815 20.0989C66.979 20.2187 66.3563 20.3304 65.8454 20.4182C65.8454 20.9212 65.9092 21.3602 65.8294 21.7753C65.6618 22.6934 65.6937 23.5955 65.8454 24.5135C65.8933 24.8249 65.8134 25.1681 65.7336 25.4795C65.7017 25.5912 65.4861 25.6471 65.3584 25.7269C65.2706 25.5753 65.103 25.4316 65.103 25.2799C65.103 24.9526 65.2147 24.6253 65.2227 24.29C65.2387 23.2362 65.2307 22.1825 65.2387 21.1287C65.2387 20.9451 65.2387 20.7535 65.2387 20.4581C64.4005 20.6418 63.6101 20.6497 62.9156 21.017C62.9954 21.4241 63.0992 21.7514 63.1072 22.0707C63.1311 23.3799 63.1471 24.6891 63.1152 25.9904C63.0912 27.0441 63.0034 28.1059 62.9475 29.1596C62.9715 29.5588 62.8039 29.7424 62.3009 29.5668ZM38.0166 73.4813C38.0725 73.4175 38.1363 73.3536 38.1922 73.2817C38.8309 73.6569 39.4615 74.0242 40.0922 74.3994C40.3556 74.559 40.5871 74.8384 40.8585 74.8863C41.3455 74.9662 41.6409 75.2535 41.9682 75.5649C42.2236 75.8124 42.535 76.004 42.8463 76.1796C43.1976 76.3792 43.5728 76.3153 43.8602 76.0598C44.2354 75.7325 44.6185 75.3893 44.9139 74.9901C45.4408 74.2796 45.9038 73.5212 46.3908 72.7868C46.4946 72.6271 46.6063 72.4595 46.758 72.3397C46.8458 72.2679 47.0454 72.22 47.1172 72.2679C47.237 72.3477 47.3487 72.5234 47.3408 72.6591C47.3408 72.8028 47.213 72.9544 47.1172 73.0902C46.6702 73.7527 46.2151 74.4153 45.7601 75.0859C45.1295 76.0199 44.4988 76.9539 43.2375 77.2493C43.924 77.6245 44.4988 77.5527 44.9698 76.922C45.7761 75.8283 46.5265 74.6868 47.245 73.5372C47.7878 72.6671 48.163 71.6772 48.7857 70.8789C49.3844 70.1045 49.9033 69.2982 50.3264 68.4281C51.1167 66.7995 52.0108 65.2349 53.0726 63.774C53.9667 62.5366 54.8528 61.2992 55.4275 59.8783C55.5872 59.4791 55.6191 59.0321 55.699 58.601C55.7069 58.5451 55.6191 58.4653 55.5712 58.3934C55.4196 58.4733 55.2839 58.5531 55.1402 58.6329C54.8288 58.3216 54.7171 57.8027 54.1024 57.8186C54.1503 57.9544 54.1503 58.0741 54.2141 58.146C54.7889 58.7846 54.6692 59.4951 54.3419 60.1577C53.9108 61.0198 53.3919 61.8421 52.8889 62.6723C52.8171 62.7921 52.5696 62.9198 52.4499 62.8879C52.1944 62.808 52.1705 62.5606 52.2982 62.337C52.6095 61.8102 52.9528 61.3072 53.2562 60.7724C53.4877 60.3652 53.7032 59.9421 53.8469 59.5031C53.9108 59.2955 53.8629 58.9522 53.7272 58.8085C53.1205 58.1619 52.5217 57.4674 51.8033 56.9724C50.4142 56.0304 49.121 55.0006 47.9395 53.7553C47.9874 53.5797 48.0512 53.3801 48.0991 53.2045C47.3647 52.6616 46.4786 52.486 45.4488 52.6217C43.5967 52.8612 42.7106 54.2981 43.1337 55.9506C43.1976 56.1901 43.2375 56.4376 43.2934 56.6851C43.461 57.4275 43.1417 57.8346 42.4072 57.9065C41.1539 58.0262 39.9405 58.3375 38.8468 58.9842C37.1624 59.982 36.436 61.9778 37.0347 63.8857C37.1065 64.1252 37.2742 64.4525 37.1864 64.5962C36.9229 65.0034 37.0107 65.4185 37.0427 65.7937C36.5477 65.8416 36.1007 65.8336 35.6935 65.9454C35.1267 66.105 34.5919 66.3525 34.4562 67.039C34.4242 67.1907 34.3364 67.3583 34.2247 67.4701C33.618 68.1008 33.7297 68.915 33.7058 69.6734C33.6978 69.9688 33.8894 70.336 34.1049 70.5595C35.3503 71.8209 36.6196 73.0742 37.9128 74.2876C38.3838 74.7267 38.9187 75.1178 39.6531 75.1817C39.1103 74.6069 38.5594 74.0481 38.0166 73.4813ZM10.8584 53.0448C10.9462 52.9091 11.026 52.8213 11.0659 52.7255C12.0159 50.4423 12.926 48.1432 13.9239 45.884C14.8419 43.8005 15.8637 41.7568 16.8137 39.6892C17.5881 37.9968 18.3464 36.3044 19.0809 34.5961C19.3044 34.0692 19.4242 33.4944 19.6317 32.7919C19.009 33.3747 19.009 34.2129 18.1469 34.628C18.2028 34.2927 18.1868 34.0772 18.2746 33.9175C18.8414 32.8717 19.4321 31.8339 20.0149 30.7961C20.0708 30.7003 20.1825 30.6046 20.1825 30.5167C20.1825 30.373 20.1027 30.2293 20.0628 30.0857C19.9191 30.1336 19.7594 30.1495 19.6397 30.2293C19.5599 30.2852 19.52 30.413 19.4641 30.5088C18.8813 31.5146 18.2985 32.5285 17.6998 33.5343C17.62 33.67 17.4444 33.7578 17.3087 33.8696C17.2528 33.8377 17.1889 33.8057 17.133 33.7738C17.1889 33.5343 17.1889 33.2549 17.3087 33.0553C17.9154 32.0575 18.5301 31.0676 19.1767 30.0936C19.5758 29.4789 19.5998 29.4949 18.9771 28.9601C18.8813 29.0399 18.7456 29.1037 18.6737 29.2155C18.1229 30.0457 17.5721 30.876 17.0452 31.7222C16.8696 32.0016 16.7658 32.3369 16.5662 32.6003C16.4784 32.7201 16.2469 32.728 16.0793 32.7839C16.0713 32.6083 15.9915 32.3927 16.0553 32.257C16.3906 31.6184 16.7658 31.0037 17.141 30.389C17.5082 29.7983 17.9154 29.2315 18.2666 28.6327C18.5859 28.1059 18.562 28.0899 17.9313 27.587C17.4204 28.4252 16.9095 29.2474 16.4225 30.0857C16.1831 30.4928 15.9915 30.9239 15.736 31.331C15.5923 31.5625 15.3688 31.6503 15.1213 31.355C15.8238 30.0777 16.5263 28.8164 17.2129 27.555C17.6439 26.7647 17.5721 26.5572 16.67 26.0063C16.191 26.9723 15.6881 27.9223 15.2411 28.8962C14.6423 30.1815 14.0436 31.4587 13.3092 32.6722C13.1256 32.9835 12.902 33.1751 12.4151 33.0873C12.5109 32.7839 12.5588 32.5205 12.6705 32.281C13.1415 31.2751 13.6604 30.2852 14.0995 29.2634C14.5625 28.1937 14.9537 27.092 15.3608 25.9904C15.4167 25.8387 15.3927 25.6631 15.4007 25.5034C14.4507 26.613 13.7083 27.7865 13.3171 29.1995C12.8461 28.9361 12.9419 28.6487 13.0777 28.3693C13.4529 27.595 13.852 26.8286 14.2192 26.0542C14.5306 25.3916 14.9058 24.7849 15.5843 24.4417C15.6163 24.4257 15.6242 24.3459 15.6402 24.29C15.273 23.7232 15.2331 23.7072 14.81 24.0904C14.6264 24.2501 14.4667 24.4496 14.331 24.6572C14.0995 25.0085 13.868 25.3597 13.7003 25.7349C13.3171 26.5651 12.9499 27.3954 12.6226 28.2416C12.447 28.6886 12.3672 28.7764 11.7205 28.7126C12.5588 26.7009 13.5327 24.7929 14.8499 23.0207C14.6902 22.8131 14.5465 22.6215 14.315 22.3182C13.8041 22.9249 13.3092 23.4438 12.894 24.0266C12.1995 25.0005 11.5848 26.0223 11.2256 27.1798C11.1298 27.4912 10.6907 27.7147 10.4991 27.579C10.1399 27.3395 10.4033 27.0761 10.5311 26.8605C11.5848 25.1282 12.6466 23.4039 13.7642 21.5837C13.6844 21.4161 13.5487 21.1207 13.365 20.7056C13.1016 20.993 12.8701 21.1686 12.7504 21.3922C12.1357 22.5098 11.5609 23.6513 10.9462 24.769C10.8185 25.0085 10.5949 25.2001 10.4193 25.4236C10.0122 25.0963 10.092 24.8249 10.2676 24.5375C10.4832 24.1862 10.7067 23.827 10.8983 23.4598C11.505 22.3342 11.96 21.1287 12.7983 20.1388C13.0936 19.7956 13.0218 19.6439 12.4789 19.2288C12.2714 19.6199 12.0878 20.0191 11.8642 20.3943C11.6567 20.7535 11.3932 21.0808 11.1937 21.448C10.8664 22.0547 10.555 22.6854 10.2597 23.3081C9.84454 24.1862 9.42942 25.0643 9.03825 25.9505C8.71893 26.6609 8.42356 27.3794 8.12819 28.1059C7.49753 29.6466 6.85091 31.1873 6.25218 32.744C5.74127 34.0213 5.31018 35.3784 4.79927 36.7036C4.46398 37.5817 4.05685 38.4359 3.7056 39.306C3.58585 39.6094 3.51401 39.9287 3.42619 40.248C3.48207 40.264 3.52997 40.28 3.58585 40.2959C3.84929 39.809 4.11273 39.322 4.37617 38.835C4.67154 38.2922 4.83919 38.1804 5.39001 38.2124C4.67953 39.1943 4.07282 40.2001 3.83333 41.3896C4.15265 41.0543 4.36819 40.6312 4.68751 40.3119C4.99885 40.0006 5.15052 39.4018 5.8211 39.5056C5.78917 39.6333 5.78917 39.7291 5.74127 39.777C4.78331 40.711 4.25643 41.9245 3.68165 43.09C3.5619 43.3295 3.54594 43.6967 3.64173 43.9522C3.82534 44.4311 4.12072 44.8702 4.40012 45.3811C4.86314 45.0458 5.16649 44.6706 5.41396 44.2316C5.73328 43.6488 6.08454 43.074 6.41982 42.4992C6.76309 41.9085 7.15426 41.4215 7.99248 41.8047C8.19205 41.3976 8.37566 41.0304 8.56725 40.6631C8.71893 40.3678 8.86263 40.0644 9.05422 39.793C9.22984 39.5375 9.49328 39.4417 9.78067 39.6493C10.0521 39.8409 9.97226 40.1363 9.84454 40.3279C9.18195 41.2459 8.88657 42.3156 8.43154 43.3215C7.80887 44.6866 7.10636 46.0118 6.44377 47.3609C6.37192 47.4966 6.37193 47.6722 6.33999 47.8239C6.53159 47.7361 6.59545 47.6164 6.65931 47.5046C7.21812 46.5466 7.76097 45.5807 8.34373 44.6467C8.57524 44.2715 8.90254 43.9681 9.45337 44.0799C9.21388 44.3513 8.94246 44.5668 8.79876 44.8462C8.25592 45.8681 7.35384 46.6983 7.20216 47.9277C7.18619 48.0474 7.05048 48.1592 6.96267 48.263C6.69125 48.5743 6.85091 48.742 7.25006 48.9415C7.83282 48.0794 8.40759 47.2412 8.97439 46.387C9.158 46.1076 9.27774 45.7882 9.47732 45.5248C9.78866 45.1177 10.0361 45.1336 10.4832 45.5727C9.76471 45.9479 9.45337 46.6265 9.1101 47.2891C8.95842 47.5844 8.76683 47.8558 8.58322 48.1432C8.25592 48.6541 7.92861 49.1571 7.55341 49.7478C7.81685 49.9075 8.03239 50.0432 8.31978 50.2188C8.61515 49.7079 8.85464 49.2768 9.1101 48.8537C9.54916 48.1113 9.96428 47.3609 10.4433 46.6504C10.7307 46.2273 10.9222 46.2353 11.4012 46.5386C11.3374 46.6265 11.2974 46.7462 11.2096 46.8021C10.5311 47.2571 10.1479 47.9197 9.83655 48.6541C9.74076 48.8857 9.5811 49.0852 9.49328 49.3167C9.28572 49.8276 9.08615 50.3386 8.93447 50.8654C8.89456 51.0012 9.0143 51.2566 9.14203 51.3285C9.26976 51.4083 9.51723 51.3684 9.66891 51.2965C9.80462 51.2327 9.90042 51.065 9.98025 50.9213C10.4592 50.0113 10.9143 49.0932 11.4012 48.1911C11.5848 47.8479 11.8004 47.5285 12.0319 47.2172C12.1836 47.0176 12.3991 46.9937 12.6146 47.2252C12.3512 47.6084 12.0478 47.9756 11.8403 48.3827C11.3374 49.4045 10.8823 50.4423 10.4033 51.4721C10.0601 52.1347 10.1718 52.5658 10.8584 53.0448ZM34.7755 42.7627C34.8074 42.4593 34.8394 42.3236 34.8394 42.1879C34.8154 41.1022 34.7755 40.0245 34.7675 38.9388C34.7515 37.4061 34.7515 35.8813 34.7595 34.3486C34.7595 33.5742 34.8074 32.7919 34.8154 32.0175C34.8154 30.1815 34.7994 28.3454 34.7915 26.5093C34.7915 25.8946 34.7915 25.2879 34.7675 24.6732C34.7356 23.6753 34.6877 22.6774 34.6398 21.6795C34.6318 21.4959 34.6158 21.3123 34.5999 21.1367C32.9314 20.7854 33.1949 21.1287 33.0911 22.1186C33.0831 22.1984 33.0591 22.2863 33.0591 22.3661C33.0991 23.2203 32.7718 24.0744 33.0671 24.9366C33.0831 24.9845 33.0512 25.0404 33.0272 25.1841C32.8835 25.2639 32.6919 25.3677 32.3327 25.5593C32.4125 23.9148 32.4844 22.4619 32.5562 21.009C32.2129 20.8094 31.8856 20.6577 31.7898 21.1207C31.5583 22.2543 31.263 23.3959 31.4705 24.5774C31.5743 25.1442 31.4625 25.2879 30.7042 25.4076C30.7042 25.0484 30.6722 24.6971 30.7121 24.3539C30.8319 23.2761 30.9836 22.2064 31.1033 21.1287C31.1592 20.6577 31.0315 20.538 30.5764 20.4502C30.1773 20.3703 29.9138 20.4981 29.842 20.9052C29.7302 21.5917 29.6025 22.2783 29.5466 22.9728C29.4907 23.7471 29.5227 24.5215 29.4828 25.2958C29.4748 25.4475 29.2991 25.671 29.1634 25.703C29.0437 25.7269 28.8601 25.5433 28.7483 25.4156C28.6844 25.3517 28.6924 25.2001 28.7004 25.0963C28.7882 23.9866 28.876 22.877 28.9798 21.7753C29.0277 21.2884 29.0996 20.8094 29.1714 20.2586C28.7962 20.2586 28.5408 20.2586 28.2534 20.2586C27.9899 21.6157 27.9101 22.9329 27.9899 24.266C28.0219 24.8488 27.8622 25.0005 27.2156 24.9685C27.2076 24.8089 27.1757 24.6492 27.1916 24.4896C27.2555 23.4358 27.3353 22.382 27.3992 21.3363C27.4151 20.977 27.4072 20.6098 27.3673 20.2586C27.3513 20.1388 27.2076 20.043 27.0719 19.8834C27.008 20.059 26.9681 20.1229 26.9601 20.2027C26.8084 22.1426 26.6488 24.0824 26.529 26.0223C26.4971 26.5013 26.3055 26.7727 25.8585 27.0042C25.8026 26.8286 25.7307 26.7088 25.7307 26.5891C25.7706 25.7828 25.7467 24.9606 25.8984 24.1782C26.1458 22.9089 26.0261 21.6316 26.09 20.3544C26.1219 19.7556 26.0501 19.7397 25.2757 19.6998C25.124 20.1149 24.9244 20.546 24.8207 21.001C24.7169 21.448 24.6929 21.919 24.6371 22.382C24.0783 21.4321 24.3816 20.4741 24.5892 19.4922C24.3257 19.4363 24.1182 19.3884 23.8068 19.3166C23.7031 19.8195 23.5913 20.2666 23.5115 20.7216C23.4396 21.1606 23.4316 21.6157 23.3278 22.0468C23.2241 22.4858 23.6152 22.9488 23.272 23.4039C23.1682 23.332 23.0644 23.3081 23.0405 23.2522C22.9686 23.1085 22.8808 22.9409 22.8728 22.7812C22.8568 21.6237 22.8648 20.4581 22.8648 19.1968C22.7052 19.1409 22.4737 19.0531 22.2022 18.9573C22.1623 19.9712 22.1064 20.8733 22.1064 21.7753C22.1064 22.398 21.8909 22.8371 21.1884 23.0846C21.1325 21.5758 21.2523 20.1149 21.2523 18.63C21.1006 18.7418 20.9888 18.8615 20.9729 18.9973C20.925 19.3565 20.9489 19.7237 20.901 20.0829C20.5098 22.8451 20.4619 25.6232 20.4699 28.4092C20.4699 29.3991 20.4859 29.4071 21.4598 29.8142C21.5876 30.6285 22.0825 31.2592 22.6812 31.818C23.1522 32.2491 23.5753 32.744 24.0862 33.1192C24.661 33.5343 25.0362 34.3406 26.1299 34.1171C25.7547 34.8595 26.2736 35.0192 26.6647 35.2826C26.9122 35.4582 27.1278 35.6817 27.3673 35.8733C28.2773 36.5918 28.884 37.6376 29.9458 38.1804C30.0096 38.2124 30.0495 38.3082 30.0735 38.388C30.2651 39.0985 30.8638 39.4098 31.3907 39.8409C31.5344 39.5375 31.6541 39.2821 31.7819 39.0107C32.2449 39.322 32.2449 39.322 32.189 39.8808C32.1171 40.5674 32.197 40.6791 32.9633 40.9505C32.9953 40.5833 33.0272 40.2321 33.0591 39.8808C33.123 39.1943 33.123 39.1943 33.61 39.0985C33.61 40.0644 33.61 41.0224 33.61 41.9803C33.9852 42.2358 34.3284 42.4593 34.7755 42.7627ZM72.1999 19.4283C71.8007 19.4603 71.4734 19.4603 71.1461 19.5082C70.8427 19.5481 70.6591 19.7317 70.6112 20.059C70.4675 21.0808 70.4356 22.1026 70.6432 23.1245C70.6432 23.1404 70.723 23.1404 70.8028 23.1644C70.8028 22.5657 70.8108 21.9829 70.8028 21.4001C70.7869 20.546 70.8827 20.1388 71.2419 19.8035C71.2898 19.9552 71.3537 20.075 71.3537 20.2027C71.3457 21.1207 71.3217 22.0388 71.3137 22.9488C71.3137 23.2761 71.3058 23.6194 71.3616 23.9387C71.5532 24.9127 71.5612 24.9047 70.707 25.3916C70.6991 25.5673 70.6751 25.7589 70.6751 25.9505C70.6751 26.0862 70.715 26.2219 70.739 26.3656C71.0902 28.5928 71.4255 30.8121 71.3137 33.0793C71.2898 33.6301 71.3537 34.1889 71.3776 34.7477C71.4095 35.4662 71.4495 36.1847 71.4814 36.9111C71.5213 37.909 71.5612 38.9069 71.5852 39.9127C71.5931 40.3279 71.5532 40.743 71.5373 41.1581C71.5213 41.5493 71.4734 41.9324 71.4894 42.3236C71.4974 42.611 71.5612 42.9144 71.9604 43.2017C71.9923 42.8585 72.0322 42.635 72.0402 42.4114C72.0881 41.19 72.12 39.9606 72.1679 38.7392C72.1759 38.5716 72.1679 38.388 72.2398 38.2523C72.2877 38.1565 72.4473 38.0687 72.5591 38.0527C72.623 38.0447 72.7666 38.1804 72.7746 38.2603C72.8066 38.5077 72.8066 38.7552 72.7826 39.0027C72.6868 39.8888 72.5591 40.7669 72.4872 41.653C72.4553 42.0522 72.5192 42.4673 72.5431 42.9862C72.9582 42.8665 73.2536 42.7866 73.525 42.7068C73.4612 42.3635 73.3813 42.124 73.3813 41.8846C73.3813 40.7749 73.3973 39.6653 73.4213 38.5556C73.4292 38.2762 73.4452 37.9968 73.5171 37.7334C73.549 37.6057 73.7166 37.5099 73.8204 37.4061C73.9322 37.5178 74.0998 37.6136 74.1318 37.7414C74.1796 37.917 74.1158 38.1245 74.0998 38.3161C73.996 39.6972 73.7805 41.0783 74.0599 42.5152C74.7464 42.2677 75.401 42.0522 76.0397 41.7888C76.1515 41.7409 76.2712 41.5253 76.2712 41.3896C76.2792 40.3598 76.2951 39.338 76.2472 38.3082C76.1993 37.2544 76.0716 36.2086 75.9998 35.1549C75.9918 34.9872 76.0956 34.8116 76.1515 34.644C76.343 34.7158 76.6225 34.7318 76.7023 34.8675C76.8939 35.1868 77.0615 35.562 77.1094 35.9292C77.1733 36.504 77.1254 37.0947 77.1254 37.6775C77.1254 38.859 77.1254 40.0405 77.1254 41.3337C77.9476 41.4136 78.73 41.0224 79.5362 40.735C79.5362 38.9388 79.201 37.2065 79.4325 35.2586C79.6959 35.5141 79.8795 35.6099 79.9194 35.7456C79.9913 35.9771 79.9993 36.2406 79.9993 36.488C79.9913 37.43 79.9753 38.38 79.9593 39.322C79.9434 39.9926 79.9594 40.0245 80.7097 40.256C80.6618 39.785 80.598 39.3619 80.59 38.9308C80.5661 37.6296 80.5341 36.3204 80.5501 35.0192C80.574 33.4625 80.6219 31.9058 80.6858 30.3491C80.7098 29.7424 80.8534 29.1357 80.8455 28.529C80.8135 26.0542 80.7417 23.5795 80.6858 21.1048C80.6778 20.6338 80.6619 20.1548 80.4064 19.5401C80.4064 20.8174 80.4064 21.9111 80.4064 23.0287C80.0072 22.9488 80.0472 22.6455 80.0392 22.382C79.9993 21.1048 79.9753 19.8275 79.9354 18.5502C79.9274 18.3267 79.8875 18.1111 79.8556 17.8876C79.7837 17.8876 79.7119 17.8956 79.64 17.8956C79.5442 18.7737 79.4325 19.6519 79.3606 20.538C79.3447 20.7695 79.4325 21.0249 79.5283 21.2485C79.7678 21.8153 79.5203 22.3581 78.7459 22.6934C78.9535 21.0888 78.5384 19.5161 79.2728 17.9994C78.2669 18.159 78.2111 18.191 78.1951 19.0851C78.1791 20.1388 78.235 21.2006 78.251 22.2543C78.251 22.4938 78.235 22.7572 78.1312 22.9728C78.0674 23.1005 77.8279 23.2362 77.6842 23.2203C77.5405 23.2043 77.3649 23.0207 77.309 22.877C77.2371 22.6774 77.2371 22.4379 77.2451 22.2144C77.2691 21.5758 77.3649 20.9371 77.325 20.3065C77.285 19.6998 77.3409 19.0691 77.0775 18.4305C76.6544 18.7019 76.6225 19.0451 76.6464 19.4204C76.6783 19.8594 76.7103 20.2985 76.7182 20.7375C76.7342 21.3203 76.7182 21.9031 76.7342 22.4938C76.7661 23.6035 76.822 24.7131 76.854 25.8227C76.8699 26.1979 76.7422 26.4693 76.2313 26.4933C76.1355 26.2219 75.9519 25.9505 75.9439 25.6631C75.896 24.5215 75.912 23.3879 75.888 22.2463C75.872 21.3682 75.8321 20.4901 75.8002 19.6119C75.6405 19.8115 75.5447 20.0191 75.5288 20.2346C75.4809 20.985 75.4649 21.7354 75.417 22.4778C75.409 22.6136 75.3372 22.7413 75.2414 23.0446C74.7305 21.5837 75.2573 20.2586 75.0817 18.9414C74.2994 19.0691 73.6288 19.1809 72.9183 19.3006C72.6868 20.7615 72.599 22.1665 72.7108 23.5875C72.7267 23.7791 72.8864 23.9627 72.9902 24.1702C72.8305 24.4177 72.7427 24.777 72.1999 24.6891C72.0641 22.9648 72.2318 21.2485 72.1999 19.4283ZM40.5951 48.271C40.2439 48.718 39.9405 49.0772 39.6611 49.4524C39.1502 50.147 38.6712 50.8575 38.1523 51.544C37.9607 51.7994 37.6973 52.2305 37.37 51.9671C36.9548 51.6318 37.4418 51.3444 37.6494 51.089C38.4636 50.0751 39.3418 49.1012 39.9804 47.8319C39.6292 47.6243 39.2939 47.4168 38.9027 47.1773C38.2242 48.2231 37.6015 49.181 36.9788 50.123C36.7952 50.4104 36.6834 50.8016 36.2284 50.7856C36.0687 50.3066 36.0927 50.147 36.428 49.652C36.9708 48.8457 37.5216 48.0395 38.0645 47.2332C38.4796 46.6265 38.4157 46.4907 37.5216 46.2034C36.9708 46.9538 36.396 47.7281 35.8133 48.5025C35.5658 48.8378 35.3343 49.181 35.0549 49.4844C34.9511 49.5961 34.7515 49.6121 34.4322 49.7319C34.6637 48.7899 35.2066 48.2231 35.6137 47.5924C36.0448 46.9298 36.5956 46.3311 37.1544 45.6286C36.8511 45.413 36.5557 45.2055 36.2364 44.974C36.0927 45.1656 36.0049 45.2693 35.941 45.3811C34.9591 47.0575 33.7457 48.5903 32.8516 50.3386C31.8138 52.3662 30.5764 54.2981 29.4907 56.3019C28.2055 58.6728 27.1597 61.1715 25.7068 63.4547C25.5152 63.75 25.5152 64.1731 25.4194 64.5324C25.6589 64.5164 25.7706 64.4366 25.8425 64.3408C26.2975 63.7101 26.7286 63.0635 27.1996 62.4408C27.5988 61.9059 28.0219 61.395 28.4609 60.8921C28.6126 60.7165 28.8521 60.6207 29.0357 60.8602C29.1954 61.0757 29.1315 61.2833 28.892 61.419C28.8681 61.435 28.8441 61.4429 28.8202 61.4669C28.2853 61.882 27.8143 62.345 27.6067 63.0156C27.5668 63.1433 27.479 63.2631 27.3912 63.3748C27.008 63.9097 26.6168 64.4366 26.2337 64.9555C26.4811 65.3865 26.7047 65.7138 27.1916 65.8017C27.3034 65.658 27.4072 65.5302 27.495 65.3945C28.1576 64.3727 28.8202 63.3429 29.4828 62.3131C29.5706 62.1694 29.6504 61.9938 29.7861 61.9219C29.9298 61.8421 30.1294 61.8581 30.305 61.8261C30.313 61.9938 30.3848 62.2173 30.313 62.337C29.7781 63.1513 29.2592 63.9735 28.6366 64.724C28.1735 65.2828 28.0458 65.8735 28.0538 66.584C28.3013 66.6878 28.5248 66.7756 28.8122 66.8953C29.0597 66.4243 29.2752 65.9773 29.5147 65.5462C29.826 64.9874 30.1374 64.4286 30.4886 63.9017C30.6403 63.6782 30.8798 63.5026 31.1193 63.3748C31.247 63.311 31.4546 63.3908 31.6302 63.4068C31.5903 63.5504 31.5743 63.7261 31.4945 63.8378C31.3667 64.0135 31.1432 64.1172 31.0235 64.3008C30.5126 65.0912 30.0096 65.8975 29.5306 66.7117C29.3391 67.031 29.379 67.3663 29.6983 67.6058C29.9537 67.7974 30.2332 67.9651 30.5525 68.1806C30.792 67.7575 30.9915 67.4302 31.1751 67.0869C31.8457 65.8735 32.5083 64.6521 33.1869 63.4387C33.5301 62.816 33.8016 62.6963 34.536 62.832C33.3944 64.7798 32.2848 66.7117 31.3109 68.7793C31.726 69.0188 32.0692 69.2104 32.4444 69.4259C32.8276 67.4142 33.7696 65.9214 35.6297 65.0513C35.3343 63.8618 35.3662 62.6883 35.8532 61.5467C35.8931 61.4509 35.8771 61.3232 35.9091 61.2194C36.1725 60.2614 36.5797 59.3674 37.362 58.7367C38.5275 57.8027 39.8766 57.2279 41.3774 57.0523C41.7766 57.0044 42.1757 56.8846 42.6228 56.7888C41.7367 53.9788 42.7904 52.2864 45.6563 51.52C44.8979 51.0171 44.3072 50.61 43.7005 50.2268C43.4291 50.0512 43.1656 50.0911 42.9581 50.3465C42.503 50.9054 41.9921 51.4322 41.601 52.031C40.9703 52.9809 40.4115 53.9708 39.8367 54.9607C39.6691 55.2481 39.5014 55.4637 39.1502 55.4317C38.9346 54.9448 38.9426 54.9448 39.1342 54.6095C39.4296 54.0906 39.725 53.5717 40.0203 53.0608C39.5733 53.2284 39.4855 53.883 38.759 53.6595C39.0384 52.7335 39.8128 52.1587 40.2199 51.3524C40.627 50.5461 41.1858 49.8117 41.6968 49.0214C41.3295 48.7739 40.9943 48.5424 40.5951 48.271ZM84.1025 37.5418C84.6374 37.2544 84.5735 36.8632 84.5655 36.4721C84.5496 35.6977 84.5017 34.9313 85.0685 34.2608C85.2601 34.0372 85.3159 33.6381 85.308 33.3188C85.292 32.0096 85.2441 30.7003 85.1723 29.3991C85.0765 27.563 85.0605 25.7269 85.284 23.8908C85.4118 22.877 85.3958 21.8392 85.4437 20.8174C85.1643 20.7136 84.9647 20.6418 84.7492 20.5619C84.7013 19.9073 84.6534 19.2767 84.6055 18.654C84.3899 19.3166 84.3181 19.9792 84.2782 20.6338C84.2382 21.2964 84.2223 21.9669 84.1983 22.6375C84.1744 23.2602 84.374 23.8908 84.1504 24.5135C84.0387 24.3938 83.9908 24.274 83.9828 24.1463C83.9349 23.3719 83.9109 22.5896 83.863 21.8073C83.8471 21.5598 83.879 21.2644 83.7513 21.0808C83.432 20.6178 83.5198 20.1229 83.5198 19.6279C83.5198 18.5821 83.5198 17.5284 83.5198 16.4666C83.2643 16.4507 83.1286 16.6023 83.1126 16.8578C83.0248 17.7918 82.921 18.7338 82.8811 19.6678C82.8652 20.0829 82.9689 20.4981 83.0328 21.0249C83.0408 21.017 82.937 21.1127 82.8332 21.1926C82.2185 21.6955 81.6118 22.1825 81.8433 23.1404C81.9391 23.5396 81.9232 23.9707 81.8912 24.3858C81.7795 25.9345 81.6198 27.4832 81.508 29.0319C81.4362 29.9978 81.3963 30.9718 81.3723 31.9457C81.3324 33.3587 81.3165 34.7797 81.2925 36.1927C81.2925 36.4162 81.2845 36.6317 81.3005 36.8553C81.3723 37.8691 81.4442 38.875 81.516 39.8648C81.9232 39.6733 81.9391 39.6733 81.9312 39.2821C81.9232 38.5556 81.9072 37.8372 81.8753 37.1107C81.8513 36.4002 81.8034 35.6897 81.7715 34.9792C82.0908 34.8914 82.2904 34.9713 82.3383 35.2347C82.3942 35.554 82.4101 35.8893 82.4101 36.2166C82.4101 37.0548 82.3862 37.8851 82.3942 38.7233C82.3942 38.9069 82.5059 39.0905 82.5618 39.2741C82.6337 39.2661 82.7055 39.2581 82.7694 39.2422C82.9131 37.7573 82.953 36.2565 83.0248 34.7717C83.3362 34.7956 83.5517 34.8595 83.7433 34.8196C84.2941 34.7078 84.3261 34.6998 84.358 35.1948C84.374 35.4902 84.3181 35.8015 84.2782 36.0969C84.2382 36.5838 84.1664 37.0548 84.1025 37.5418ZM83.4559 10.4155C83.3841 11.5411 83.0408 12.555 83.3681 13.5768C83.0009 14.0957 82.6017 14.4789 81.987 14.5986C81.8034 14.6385 81.6438 14.7742 81.4681 14.862C80.1908 15.4767 78.9216 16.0835 77.6443 16.6981C77.5086 16.762 77.3728 16.8498 77.2371 16.9296C77.3968 17.0095 77.5245 17.0015 77.6443 16.9616C78.1951 16.778 78.7379 16.5544 79.2968 16.3868C81.2207 15.812 82.8731 14.7982 84.2223 13.3054C85.1802 12.2596 84.9088 10.9743 83.4559 10.4155ZM7.59333 42.1081C6.36394 43.2816 5.83706 44.7984 4.93498 46.1235C5.07868 46.3151 5.23834 46.5307 5.39001 46.7382C6.16437 46.2113 7.57736 43.2816 7.59333 42.1081ZM10.5071 13.0339C9.84454 14.7343 9.1101 16.2351 8.76683 17.9355C8.91851 17.8876 8.99834 17.8876 9.0143 17.8557C9.56513 16.8339 10.108 15.804 10.6428 14.7742C10.9222 14.2394 10.7945 13.7205 10.5071 13.0339ZM3.74551 36.496C2.65184 37.3662 2.25269 38.5796 2.05311 39.8968C2.91528 38.9069 3.32241 37.7015 3.74551 36.496ZM56.154 17.2969C56.154 17.3767 56.154 17.4645 56.162 17.5443C56.5053 17.5044 56.8485 17.4565 57.1918 17.4166C57.1838 17.3767 57.1838 17.3368 57.1758 17.2969C56.8326 17.2969 56.4973 17.2969 56.154 17.2969ZM55.5233 17.5284C55.5154 17.4645 55.5154 17.3927 55.5074 17.3288C55.196 17.3208 54.8607 17.1532 54.4696 17.6481C54.9246 17.5922 55.228 17.5603 55.5233 17.5284ZM84.6294 15.9956C84.3101 16.0914 84.1424 16.1393 83.9349 16.2032C84.0706 16.4028 84.1824 16.5544 84.3181 16.746C84.4139 16.5145 84.4857 16.3389 84.6294 15.9956ZM82.3702 18.3746C82.2904 18.5342 82.2425 18.5981 82.2585 18.622C82.2984 18.6939 82.3622 18.7418 82.4181 18.8057C82.4021 18.6939 82.3942 18.5901 82.3702 18.3746ZM35.7255 22.1346C35.7414 22.1346 35.7654 22.1346 35.7813 22.1346C35.7813 21.9669 35.7813 21.7913 35.7813 21.6237C35.7494 21.6237 35.7255 21.6237 35.6935 21.6237C35.7015 21.7913 35.7175 21.959 35.7255 22.1346ZM83.3681 38.364C83.408 38.364 83.4559 38.372 83.4958 38.372C83.4958 38.1804 83.4958 37.9888 83.4958 37.7893C83.4639 37.7893 83.432 37.7893 83.4 37.7893C83.392 37.9729 83.3761 38.1725 83.3681 38.364Z" fill="#47352F" fill-opacity="0.4"/>
</svg>
