<svg width="19" height="16" viewBox="0 0 19 16" fill="none" xmlns="http://www.w3.org/2000/svg">
<path d="M9.50053 5.10293C9.33807 5.2632 9.11562 5.35554 8.88197 5.3593C8.64831 5.36305 8.42251 5.27803 8.25454 5.12301L5.76039 2.82265V13.0573C5.76039 13.3577 5.59242 13.6353 5.31981 13.7854C5.04721 13.9356 4.71127 13.9356 4.43867 13.7854C4.16607 13.6353 3.99809 13.3577 3.99809 13.0573V2.82265L1.50394 5.12301C1.33676 5.28235 1.10959 5.37112 0.873395 5.36905C0.637177 5.36718 0.411578 5.27465 0.247327 5.1125C0.0830963 4.95035 -0.00580335 4.73208 0.000294188 4.5067C0.00619485 4.2813 0.106897 4.06772 0.279587 3.91382L4.2668 0.236285C4.28155 0.222585 4.29847 0.213201 4.31401 0.200626L4.32876 0.18899C4.34784 0.174351 4.36554 0.157085 4.3858 0.144136C4.38914 0.142071 4.39288 0.14057 4.39622 0.138505C4.42002 0.123491 4.44539 0.112418 4.47037 0.0998438C4.49614 0.0868942 4.52112 0.0728181 4.54767 0.0624961V0.0626838C4.57501 0.0529248 4.60294 0.0444791 4.63106 0.0373477C4.65408 0.0309668 4.6765 0.0219582 4.69991 0.017454L4.71131 0.0159525C4.73944 0.0106978 4.76756 0.00957165 4.79608 0.00694405C4.82185 0.00469197 4.84742 0.000563211 4.87338 0.000375354L4.87928 0L4.88479 0.000563031C4.91056 0.000750696 4.93593 0.00469189 4.96169 0.00713173C4.99002 0.00957152 5.01834 0.0108854 5.04646 0.0159525L5.05886 0.017454C5.08167 0.0219582 5.1037 0.0307787 5.12612 0.0371601H5.12592C5.15444 0.0442919 5.18276 0.0527375 5.2103 0.0624964C5.21423 0.0639979 5.21876 0.0645609 5.22269 0.06625C5.24472 0.0750706 5.26478 0.0883958 5.28602 0.0990931V0.0989054C5.31199 0.110729 5.33716 0.123867 5.36175 0.138318C5.36548 0.14057 5.36961 0.142259 5.37315 0.144699C5.39086 0.155959 5.4058 0.170973 5.42252 0.183547C5.43039 0.189365 5.43806 0.195559 5.44553 0.201752C5.46048 0.213952 5.4772 0.223147 5.49136 0.236473L9.47893 3.91381C9.64709 4.06884 9.74387 4.2811 9.7478 4.50405C9.75193 4.72701 9.66299 4.94246 9.50053 5.10293ZM18.7526 10.8972C18.5901 10.7369 18.3677 10.6448 18.134 10.6408C17.9003 10.6371 17.6746 10.7221 17.5066 10.8771L15.0124 13.1775V2.94287C15.0124 2.6424 14.8445 2.36483 14.5719 2.21469C14.2993 2.06455 13.9633 2.06455 13.6907 2.21469C13.4181 2.36483 13.2501 2.6424 13.2501 2.94287V13.1775L10.756 10.8771C10.589 10.7174 10.3616 10.6286 10.1252 10.6305C9.88882 10.6322 9.66303 10.7247 9.49882 10.8871C9.33459 11.0492 9.24549 11.2677 9.25158 11.4932C9.25788 11.7188 9.35878 11.9324 9.53166 12.0863L13.5189 15.7639C13.5346 15.7783 13.5525 15.7886 13.569 15.8018C13.5812 15.8115 13.593 15.8217 13.6058 15.8309C13.6198 15.8408 13.6328 15.8521 13.6473 15.8613V15.8611C13.6731 15.8759 13.6994 15.8896 13.7266 15.902C13.748 15.9127 13.7679 15.9256 13.7903 15.9346L13.7997 15.9378C13.8308 15.9487 13.8625 15.9579 13.8945 15.9654C13.9154 15.9711 13.9353 15.9791 13.9567 15.9832L13.9628 15.9844C14.0741 16.0052 14.1884 16.0052 14.2995 15.9844L14.3056 15.9832C14.3271 15.9791 14.3469 15.9711 14.3678 15.9654C14.4 15.9579 14.4317 15.9487 14.4628 15.9378L14.4722 15.9346C14.4946 15.9256 14.5145 15.9127 14.5359 15.902H14.5357C14.5629 15.8896 14.5894 15.8759 14.6152 15.8611C14.6296 15.8521 14.6427 15.8406 14.6567 15.8307C14.6695 15.8215 14.6813 15.8113 14.6935 15.8016C14.71 15.7884 14.7279 15.7781 14.7436 15.7637L18.731 12.0863C18.8992 11.9313 18.9959 11.719 18.9999 11.4961C19.004 11.2731 18.9151 11.0577 18.7526 10.8972L18.7526 10.8972Z" fill="black"/>
</svg>
