<svg width="20" height="24" viewBox="0 0 20 24" fill="none" xmlns="http://www.w3.org/2000/svg">
<path d="M9.18335 14.246V19.2335C9.18335 19.4814 9.26769 19.6892 9.43637 19.8569C9.60507 20.0246 9.8141 20.1085 10.0635 20.1085C10.3128 20.1085 10.5202 20.0246 10.6854 19.8569C10.8507 19.6892 10.9334 19.4814 10.9334 19.2335V14.246L12.7125 16.0252C12.7709 16.0835 12.9167 16.0641 13.15 15.9668C13.3834 15.8696 13.6021 15.7821 13.8063 15.7043C14.0104 15.6266 14.1514 15.5925 14.2292 15.6022C14.307 15.612 14.2097 15.7529 13.9375 16.0252C14.1125 15.8502 14.1952 15.646 14.1854 15.4127C14.1757 15.1793 14.0834 14.9752 13.9084 14.8002L10.6125 11.5918C10.5153 11.4946 10.4168 11.4266 10.317 11.3877C10.2171 11.3488 10.1102 11.3293 9.99614 11.3293C9.88206 11.3293 9.77641 11.3488 9.67919 11.3877C9.58196 11.4266 9.48474 11.4946 9.38752 11.5918L6.12085 14.8585C5.94585 15.0335 5.85835 15.2377 5.85835 15.471C5.85835 15.7043 5.94585 15.9123 6.12085 16.0949C6.29585 16.2623 6.50002 16.346 6.73335 16.346C6.96669 16.346 7.17085 16.2585 7.34585 16.0835L9.18335 14.246ZM2.41669 23.6668C1.95002 23.6668 1.54169 23.4918 1.19169 23.1418C0.841687 22.7918 0.666687 22.3835 0.666687 21.9168V2.0835C0.666687 1.61683 0.841687 1.2085 1.19169 0.858496C1.54169 0.508496 1.95002 0.333496 2.41669 0.333496H12.2167C12.4587 0.333496 12.6893 0.382107 12.9086 0.479329C13.1279 0.576552 13.3153 0.702941 13.4709 0.858496L18.8084 6.196C18.9639 6.35155 19.0903 6.53898 19.1875 6.75827C19.2847 6.97757 19.3334 7.2082 19.3334 7.45016V21.9168C19.3334 22.3835 19.1584 22.7918 18.8084 23.1418C18.4584 23.4918 18.05 23.6668 17.5834 23.6668H2.41669ZM12.0709 6.6335V2.0835H2.41669V21.9168H17.5834V7.5085H12.9459C12.6979 7.5085 12.4901 7.42464 12.3224 7.25693C12.1547 7.08923 12.0709 6.88141 12.0709 6.6335Z" fill="#A74A45"/>
</svg>
