<svg width="24" height="17" viewBox="0 0 24 17" fill="none" xmlns="http://www.w3.org/2000/svg">
<path d="M5.1599 11.0527C3.65151 11.0527 2.4292 12.2756 2.4292 13.784C2.4292 15.2924 3.65206 16.5152 5.1599 16.5152C6.66828 16.5152 7.89151 15.2924 7.89151 13.784C7.89151 12.2756 6.66865 11.0527 5.1599 11.0527ZM5.1599 15.3475C4.29704 15.3475 3.59702 14.6476 3.59702 13.7843C3.59702 12.9211 4.29699 12.222 5.1599 12.222C6.02312 12.222 6.72278 12.9213 6.72278 13.7843C6.7226 14.6476 6.02348 15.3475 5.1599 15.3475Z" fill="#666666"/>
<path d="M18.6766 11.0527C17.1682 11.0527 15.9453 12.2756 15.9453 13.784C15.9453 15.2924 17.1682 16.5152 18.6766 16.5152C20.1849 16.5152 21.4082 15.2924 21.4082 13.784C21.4082 12.2756 20.1853 11.0527 18.6766 11.0527ZM18.6769 15.3475C17.8137 15.3475 17.114 14.6476 17.114 13.7843C17.114 12.9211 17.8137 12.222 18.6769 12.222C19.5398 12.222 20.2398 12.9213 20.2398 13.7843C20.2398 14.6476 19.5401 15.3475 18.6769 15.3475Z" fill="#666666"/>
<path d="M22.0013 6.92928L20.2409 2.91963H14.6862V0H0V13.4496H1.88768C2.05572 11.7903 3.45641 10.4957 5.16 10.4957C6.86391 10.4957 8.26519 11.7901 8.43287 13.4496H15.4043C15.572 11.7903 16.973 10.4957 18.6766 10.4957C20.3805 10.4957 21.7814 11.7901 21.9495 13.4496H24V8.42194L22.0013 6.92928ZM15.5469 7.70446V3.91643H19.614L21.1476 7.70446H15.5469Z" fill="#666666"/>
</svg>
