<svg width="263" height="342" viewBox="0 0 263 342" fill="none" xmlns="http://www.w3.org/2000/svg">
<g clip-path="url(#clip0_32_589)">
<path d="M133.144 279.013L41.8755 278.954C39.2659 278.953 36.6822 278.438 34.2717 277.439C31.8612 276.44 29.6711 274.976 27.8266 273.13C25.9821 271.285 24.5192 269.094 23.5214 266.684C22.5237 264.273 22.0107 261.69 22.0116 259.081L22.0555 30.3355C22.0564 27.7248 22.5717 25.1397 23.572 22.7281C24.5722 20.3164 26.0378 18.1253 27.885 16.2799C29.7323 14.4344 31.925 12.9708 34.338 11.9726C36.751 10.9744 39.3371 10.4611 41.9485 10.4621L133.21 10.5205C138.48 10.5244 143.533 12.6197 147.259 16.346C150.985 20.0724 153.079 25.1251 153.081 30.394L153.029 259.139C153.029 261.75 152.515 264.335 151.516 266.746C150.516 269.158 149.051 271.349 147.205 273.194C145.358 275.04 143.166 276.504 140.753 277.502C138.341 278.5 135.755 279.014 133.144 279.013Z" fill="#263238"/>
<path d="M132.91 18.6788H115.216C114.638 18.6901 114.069 18.8155 113.54 19.0477C113.011 19.2799 112.533 19.6143 112.134 20.0318C111.735 20.4492 111.422 20.9414 111.214 21.48C111.005 22.0187 110.906 22.5932 110.92 23.1706V26.3769C110.934 26.9542 110.833 27.5285 110.624 28.0668C110.415 28.6051 110.101 29.0968 109.701 29.5135C109.301 29.9303 108.823 30.2639 108.294 30.4952C107.765 30.7265 107.195 30.851 106.617 30.8614H72.1278C71.5502 30.85 70.9806 30.7246 70.4517 30.4924C69.9228 30.2602 69.445 29.9258 69.0458 29.5084C68.6466 29.091 68.3338 28.5988 68.1256 28.0601C67.9173 27.5214 67.8175 26.9469 67.8321 26.3696V23.156C67.8506 22.578 67.7545 22.0021 67.5493 21.4615C67.3442 20.9208 67.034 20.4261 66.6367 20.0059C66.2395 19.5856 65.7629 19.2481 65.2346 19.0128C64.7062 18.7775 64.1366 18.6491 63.5583 18.6349H57.334H41.8535C40.0237 18.6311 38.2111 18.9879 36.5193 19.6848C34.8275 20.3818 33.2897 21.4053 31.9938 22.6968C30.6979 23.9883 29.6693 25.5225 28.9668 27.2117C28.2644 28.9009 27.9018 30.7119 27.8999 32.5412L27.8561 255.816C27.8503 257.642 28.2051 259.451 28.9001 261.14C29.5951 262.829 30.6166 264.364 31.9061 265.657C33.1956 266.95 34.7277 267.976 36.4146 268.676C38.1016 269.377 39.9101 269.737 41.7366 269.737L132.822 269.788C134.651 269.789 136.462 269.43 138.151 268.731C139.841 268.033 141.377 267.008 142.67 265.716C143.964 264.424 144.991 262.89 145.691 261.201C146.392 259.513 146.753 257.703 146.754 255.874L146.842 32.5997C146.842 30.7709 146.481 28.9601 145.781 27.2707C145.081 25.5812 144.054 24.0463 142.761 22.7535C141.467 21.4608 139.931 20.4355 138.241 19.7363C136.551 19.0372 134.739 18.6778 132.91 18.6788Z" fill="white"/>
<path d="M147.843 54.153C147.843 54.2552 120.951 54.3429 87.7909 54.3429C54.6309 54.3429 27.7611 54.2333 27.7611 54.153C27.7611 54.0726 54.6456 53.9631 87.8274 53.9631C121.009 53.9631 147.843 54.0434 147.843 54.153Z" fill="#263238"/>
<path d="M40.2901 45.8779C40.2018 45.8787 40.1162 45.8476 40.0491 45.7902L36.5789 42.7446C36.5379 42.7113 36.5052 42.6689 36.4836 42.6206C36.462 42.5724 36.4521 42.5198 36.4547 42.467C36.4541 42.4138 36.4657 42.3612 36.4885 42.3131C36.5112 42.265 36.5447 42.2227 36.5862 42.1895L40.0564 39.268C40.1312 39.2074 40.2268 39.1789 40.3226 39.1884C40.4183 39.198 40.5064 39.245 40.5677 39.3191C40.5987 39.3557 40.6219 39.3982 40.6361 39.444C40.6503 39.4897 40.6552 39.5379 40.6504 39.5856C40.6456 39.6332 40.6313 39.6795 40.6083 39.7215C40.5854 39.7636 40.5542 39.8006 40.5166 39.8304L37.3825 42.4451L40.5239 45.2059C40.5604 45.2367 40.5904 45.2746 40.612 45.3171C40.6337 45.3597 40.6466 45.4062 40.65 45.4538C40.6534 45.5015 40.6473 45.5493 40.6319 45.5946C40.6165 45.6398 40.5922 45.6815 40.5604 45.7172C40.531 45.7631 40.4912 45.8016 40.4443 45.8295C40.3974 45.8574 40.3446 45.874 40.2901 45.8779Z" fill="#263238"/>
<path d="M116.012 42.2698C116.012 42.3794 104.711 42.4597 90.7642 42.4597C76.8179 42.4597 65.5162 42.3794 65.5162 42.2698C65.5162 42.1603 76.8179 42.0799 90.7642 42.0799C104.711 42.0799 116.012 42.1676 116.012 42.2698Z" fill="#263238"/>
<path d="M130.638 42.2479C130.638 42.5079 130.561 42.7621 130.416 42.9783C130.272 43.1945 130.066 43.363 129.826 43.4625C129.586 43.562 129.321 43.588 129.066 43.5373C128.811 43.4866 128.577 43.3614 128.393 43.1775C128.209 42.9936 128.084 42.7594 128.033 42.5044C127.982 42.2494 128.009 41.985 128.108 41.7448C128.208 41.5046 128.376 41.2992 128.592 41.1548C128.809 41.0103 129.063 40.9332 129.323 40.9332C129.672 40.9332 130.006 41.0717 130.253 41.3183C130.499 41.5648 130.638 41.8992 130.638 42.2479Z" fill="#263238"/>
<path d="M134.422 42.2479C134.422 42.5082 134.345 42.7627 134.2 42.979C134.055 43.1954 133.849 43.3639 133.609 43.4632C133.368 43.5625 133.103 43.5881 132.848 43.5367C132.593 43.4854 132.358 43.3595 132.175 43.1749C131.991 42.9903 131.866 42.7554 131.817 42.4999C131.767 42.2444 131.794 41.9798 131.894 41.7397C131.995 41.4996 132.165 41.2948 132.382 41.1512C132.599 41.0076 132.854 40.9318 133.115 40.9332C133.287 40.9332 133.457 40.9673 133.617 41.0334C133.776 41.0996 133.92 41.1965 134.042 41.3187C134.163 41.4409 134.259 41.5859 134.325 41.7453C134.39 41.9048 134.423 42.0756 134.422 42.2479Z" fill="#263238"/>
<path d="M138.214 42.2479C138.214 42.5079 138.137 42.7621 137.992 42.9783C137.848 43.1945 137.642 43.363 137.402 43.4625C137.162 43.562 136.897 43.588 136.642 43.5373C136.387 43.4866 136.153 43.3614 135.969 43.1775C135.785 42.9936 135.66 42.7594 135.609 42.5044C135.558 42.2494 135.584 41.985 135.684 41.7448C135.783 41.5046 135.952 41.2992 136.168 41.1548C136.384 41.0103 136.639 40.9332 136.899 40.9332C137.248 40.9332 137.582 41.0717 137.829 41.3183C138.075 41.5648 138.214 41.8992 138.214 42.2479Z" fill="#263238"/>
<path d="M76.3942 103.205C76.3942 104.052 76.0435 104.563 75.4591 104.563C75.3213 104.577 75.1833 104.541 75.0695 104.462C74.9558 104.383 74.8738 104.266 74.8381 104.132C74.7403 104.274 74.6076 104.388 74.4527 104.464C74.2979 104.539 74.1261 104.574 73.9541 104.563C73.6403 104.539 73.347 104.398 73.1331 104.167C72.9192 103.936 72.8004 103.633 72.8004 103.318C72.8004 103.003 72.9192 102.7 73.1331 102.469C73.347 102.238 73.6403 102.097 73.9541 102.073C74.1083 102.065 74.2622 102.092 74.4041 102.153C74.5459 102.214 74.6719 102.306 74.7724 102.423V102.102H75.313V103.767C75.313 104.015 75.4299 104.103 75.5687 104.103C75.8317 104.103 75.9778 103.789 75.9778 103.212C75.9818 102.97 75.935 102.731 75.8402 102.508C75.7455 102.286 75.6051 102.086 75.428 101.921C75.251 101.756 75.0413 101.631 74.8125 101.553C74.5838 101.474 74.3411 101.445 74.1003 101.466C73.8467 101.444 73.5912 101.474 73.35 101.556C73.1088 101.637 72.8872 101.768 72.6993 101.94C72.5114 102.111 72.3614 102.32 72.2587 102.553C72.1561 102.786 72.103 103.038 72.103 103.292C72.103 103.547 72.1561 103.799 72.2587 104.032C72.3614 104.264 72.5114 104.473 72.6993 104.645C72.8872 104.817 73.1088 104.948 73.35 105.029C73.5912 105.111 73.8467 105.141 74.1003 105.118C74.4295 105.12 74.7546 105.045 75.05 104.899L75.1815 105.294C74.8426 105.449 74.4731 105.526 74.1003 105.52C73.7964 105.537 73.4922 105.493 73.2063 105.388C72.9204 105.284 72.6589 105.123 72.4376 104.914C72.2164 104.705 72.0401 104.453 71.9196 104.173C71.7992 103.894 71.737 103.593 71.737 103.289C71.737 102.984 71.7992 102.683 71.9196 102.404C72.0401 102.125 72.2164 101.873 72.4376 101.664C72.6589 101.455 72.9204 101.293 73.2063 101.189C73.4922 101.085 73.7964 101.04 74.1003 101.057C74.3948 101.035 74.6908 101.074 74.9695 101.172C75.2482 101.271 75.5034 101.425 75.7191 101.627C75.9347 101.829 76.1061 102.074 76.2223 102.345C76.3385 102.617 76.3971 102.909 76.3942 103.205ZM74.7797 103.314C74.7711 103.172 74.7211 103.035 74.6358 102.921C74.5505 102.807 74.4337 102.72 74.2996 102.672C74.1656 102.623 74.0203 102.615 73.8816 102.648C73.7429 102.68 73.6169 102.753 73.519 102.857C73.4212 102.961 73.3559 103.091 73.331 103.231C73.3062 103.371 73.323 103.516 73.3794 103.647C73.4357 103.778 73.5292 103.889 73.6482 103.968C73.7672 104.046 73.9066 104.088 74.0491 104.089C74.1489 104.089 74.2476 104.068 74.3392 104.029C74.4308 103.99 74.5134 103.932 74.5818 103.859C74.6503 103.787 74.7031 103.701 74.7372 103.607C74.7712 103.514 74.7857 103.414 74.7797 103.314Z" fill="#263238"/>
<path d="M104.002 104.534C104.002 104.636 98.7127 104.724 92.1961 104.724C85.6796 104.724 80.3976 104.636 80.3976 104.534C80.3976 104.432 85.6796 104.337 92.1961 104.337C98.7127 104.337 104.002 104.424 104.002 104.534Z" fill="#263238"/>
<path d="M57.3267 137.912C56.2504 138.165 55.1301 138.165 54.0538 137.912C55.1301 137.659 56.2504 137.659 57.3267 137.912Z" fill="#263238"/>
<path d="M65.0195 145.829C65.0195 145.932 61.0744 146.019 56.2016 146.019C51.3288 146.019 47.3911 145.932 47.3911 145.829C47.3911 145.727 51.3361 145.639 56.2016 145.639C61.0671 145.639 65.0195 145.727 65.0195 145.829Z" fill="#263238"/>
<path d="M92.7806 137.912C91.1174 138.104 89.4419 138.168 87.769 138.102C86.096 138.168 84.4205 138.104 82.7573 137.912C84.4208 137.724 86.096 137.661 87.769 137.722C89.4419 137.661 91.1171 137.724 92.7806 137.912Z" fill="#263238"/>
<path d="M95.7466 145.406C95.7466 145.508 91.7066 145.596 86.7242 145.596C81.7419 145.596 77.6946 145.508 77.6946 145.406C77.6946 145.303 81.7346 145.216 86.7242 145.216C91.7139 145.216 95.7466 145.303 95.7466 145.406Z" fill="#263238"/>
<path d="M125.509 138.022C123.262 138.21 121.006 138.273 118.752 138.212C116.497 138.273 114.241 138.21 111.994 138.022C114.241 137.829 116.497 137.766 118.752 137.832C121.006 137.766 123.262 137.829 125.509 138.022Z" fill="#263238"/>
<path d="M128.037 145.72C128.037 145.829 124.143 145.91 119.336 145.91C114.529 145.91 110.628 145.829 110.628 145.72C110.628 145.61 114.522 145.53 119.336 145.53C124.151 145.53 128.037 145.617 128.037 145.72Z" fill="#263238"/>
<path d="M102.796 153.213H53.2794C52.2506 153.213 51.4165 154.047 51.4165 155.076V166.652C51.4165 167.681 52.2506 168.515 53.2794 168.515H102.796C103.825 168.515 104.659 167.681 104.659 166.652V155.076C104.659 154.047 103.825 153.213 102.796 153.213Z" fill="#FF725E"/>
<path d="M94.5923 161.123C94.5923 161.226 87.7397 161.313 79.2872 161.313C70.8347 161.313 63.9455 161.226 63.9455 161.123C63.9455 161.021 70.7981 160.933 79.2872 160.933C87.7762 160.933 94.5923 161.014 94.5923 161.123Z" fill="white"/>
<path d="M122.543 152.929H110.796C109.84 152.929 109.065 153.704 109.065 154.66V166.879C109.065 167.835 109.84 168.61 110.796 168.61H122.543C123.5 168.61 124.275 167.835 124.275 166.879V154.66C124.275 153.704 123.5 152.929 122.543 152.929Z" fill="#EBEBEB"/>
<path d="M115.026 159.969H118.306L116.809 162.27L115.026 159.969Z" fill="#263238"/>
<path d="M104.659 179.894C104.659 180.003 96.1922 180.084 85.7526 180.084C75.313 180.084 66.8458 180.003 66.8458 179.894C66.8458 179.784 75.313 179.704 85.7526 179.704C96.1922 179.704 104.659 179.792 104.659 179.894Z" fill="#E0E0E0"/>
<path d="M115.662 187.015C115.662 187.117 103.242 187.205 87.9005 187.205C72.5588 187.205 60.1393 187.117 60.1393 187.015C60.1393 186.913 72.5588 186.825 87.9005 186.825C103.242 186.825 115.662 186.913 115.662 187.015Z" fill="#E0E0E0"/>
<path d="M147.572 199.358C147.572 199.468 120.943 199.555 88.0904 199.555C55.2373 199.555 28.6086 199.468 28.6086 199.358C28.6086 199.249 55.2373 199.168 88.0904 199.168C120.943 199.168 147.572 199.256 147.572 199.358Z" fill="#263238"/>
<path d="M89.2739 213.213C89.0858 210.974 89.0223 208.726 89.0839 206.479C89.0223 204.235 89.0857 201.99 89.2739 199.753C89.4664 201.989 89.5298 204.235 89.4638 206.479C89.5298 208.726 89.4663 210.974 89.2739 213.213Z" fill="#263238"/>
<path d="M81.888 114.504L78.469 122.348H77.0079L73.5816 114.504H75.1596L77.7676 120.551L80.4049 114.504H81.888Z" fill="#FF725E"/>
<path d="M87.7397 119.806H83.0422C83.1289 120.246 83.3752 120.639 83.7339 120.909C84.0927 121.178 84.5384 121.306 84.9855 121.267C85.2864 121.279 85.5865 121.228 85.8661 121.115C86.1456 121.003 86.3982 120.834 86.6074 120.617L87.3379 121.479C87.0326 121.808 86.6581 122.066 86.2413 122.234C85.8245 122.402 85.3757 122.476 84.9271 122.45C82.9254 122.45 81.625 121.165 81.625 119.383C81.6102 118.971 81.6812 118.562 81.8334 118.179C81.9857 117.797 82.2158 117.451 82.5092 117.162C82.8026 116.874 83.1529 116.649 83.5377 116.503C83.9225 116.358 84.3335 116.293 84.7444 116.315C85.1513 116.3 85.5567 116.37 85.9348 116.521C86.3129 116.672 86.6553 116.9 86.9401 117.191C87.2248 117.482 87.4457 117.829 87.5884 118.21C87.7311 118.591 87.7926 118.998 87.7689 119.404C87.7616 119.499 87.747 119.667 87.7397 119.806ZM83.0349 118.871H86.4247C86.384 118.458 86.1863 118.076 85.8723 117.804C85.5583 117.533 85.152 117.392 84.7371 117.411C84.3215 117.395 83.9154 117.537 83.5998 117.807C83.2842 118.078 83.0825 118.458 83.0349 118.871Z" fill="#FF725E"/>
<path d="M92.5687 116.315V117.644C92.4629 117.622 92.3553 117.61 92.2473 117.608C92.0046 117.589 91.7607 117.625 91.5338 117.713C91.3068 117.801 91.1024 117.938 90.9356 118.116C90.7688 118.293 90.6439 118.505 90.57 118.737C90.4961 118.969 90.4751 119.214 90.5085 119.456V122.377H89.1278V116.395H90.4647V117.264C90.7047 116.939 91.0242 116.681 91.3926 116.515C91.761 116.349 92.166 116.28 92.5687 116.315Z" fill="#FF725E"/>
<path d="M93.5695 114.54C93.5703 114.425 93.5946 114.311 93.6407 114.206C93.6869 114.101 93.7541 114.006 93.8382 113.927C93.9223 113.848 94.0215 113.788 94.1298 113.749C94.2381 113.71 94.3532 113.693 94.4681 113.7C94.5801 113.691 94.6928 113.705 94.7992 113.741C94.9056 113.777 95.0035 113.835 95.0869 113.91C95.1703 113.985 95.2376 114.077 95.2844 114.179C95.3313 114.281 95.3568 114.391 95.3594 114.504C95.3392 114.727 95.2362 114.935 95.0706 115.086C94.905 115.237 94.6888 115.321 94.4645 115.321C94.2402 115.321 94.024 115.237 93.8584 115.086C93.6928 114.935 93.5898 114.727 93.5695 114.504V114.54ZM93.7595 116.366H95.1622V122.348H93.7595V116.366Z" fill="#FF725E"/>
<path d="M99.3556 113.956C99.8026 113.936 100.245 114.051 100.627 114.285L100.232 115.336C100.005 115.177 99.7351 115.091 99.4578 115.088C98.8734 115.088 98.5739 115.409 98.5739 116.052V116.41H100.225V117.527H98.625V122.348H97.1639V117.527H96.185V116.41H97.1639V116.03C97.1405 115.742 97.1821 115.451 97.2857 115.181C97.3893 114.911 97.5523 114.667 97.7626 114.468C97.9729 114.269 98.2252 114.12 98.5009 114.031C98.7766 113.942 99.0686 113.917 99.3556 113.956ZM101.869 114.54C101.869 114.425 101.894 114.311 101.94 114.206C101.986 114.101 102.053 114.006 102.137 113.927C102.221 113.848 102.321 113.788 102.429 113.749C102.537 113.71 102.652 113.693 102.767 113.7C102.879 113.691 102.992 113.705 103.098 113.741C103.205 113.777 103.303 113.835 103.386 113.91C103.469 113.985 103.537 114.077 103.584 114.179C103.63 114.281 103.656 114.391 103.659 114.504C103.638 114.727 103.535 114.935 103.37 115.086C103.204 115.237 102.988 115.321 102.764 115.321C102.539 115.321 102.323 115.237 102.158 115.086C101.992 114.935 101.889 114.727 101.869 114.504V114.54ZM102.059 116.366H103.461V122.348H102.059V116.366Z" fill="#FF725E"/>
<path d="M110.869 119.806H106.179C106.264 120.246 106.509 120.638 106.866 120.908C107.224 121.178 107.669 121.306 108.115 121.267C108.417 121.277 108.717 121.224 108.997 121.112C109.278 121 109.532 120.832 109.744 120.617L110.475 121.479C110.17 121.809 109.796 122.068 109.379 122.236C108.962 122.404 108.513 122.477 108.064 122.45C106.062 122.45 104.762 121.165 104.762 119.383C104.75 118.975 104.823 118.57 104.975 118.192C105.126 117.814 105.354 117.472 105.644 117.185C105.934 116.899 106.279 116.675 106.659 116.528C107.039 116.381 107.445 116.313 107.852 116.33C108.259 116.315 108.664 116.385 109.042 116.536C109.42 116.687 109.763 116.915 110.048 117.206C110.332 117.496 110.553 117.844 110.696 118.225C110.839 118.606 110.9 119.013 110.876 119.419C110.891 119.499 110.884 119.667 110.869 119.806ZM106.164 118.871H109.583C109.541 118.457 109.342 118.076 109.026 117.804C108.711 117.532 108.304 117.392 107.888 117.411C107.47 117.391 107.059 117.531 106.739 117.802C106.419 118.073 106.214 118.455 106.164 118.871Z" fill="#FF725E"/>
<path d="M118.102 114.036V122.348H116.757V121.574C116.512 121.855 116.207 122.077 115.864 122.224C115.522 122.37 115.15 122.438 114.778 122.421C113.966 122.421 113.187 122.098 112.613 121.525C112.039 120.951 111.717 120.172 111.717 119.361C111.717 118.549 112.039 117.771 112.613 117.197C113.187 116.623 113.966 116.3 114.778 116.3C115.137 116.284 115.496 116.348 115.828 116.487C116.16 116.626 116.458 116.836 116.699 117.104V114.036H118.102ZM116.721 119.353C116.704 119.005 116.585 118.67 116.379 118.388C116.173 118.107 115.889 117.892 115.562 117.771C115.235 117.649 114.88 117.626 114.54 117.704C114.2 117.783 113.891 117.959 113.65 118.211C113.41 118.464 113.248 118.781 113.186 119.124C113.124 119.467 113.164 119.821 113.301 120.142C113.439 120.462 113.667 120.736 113.958 120.928C114.249 121.12 114.59 121.223 114.938 121.223C115.181 121.228 115.422 121.182 115.647 121.088C115.871 120.995 116.073 120.856 116.241 120.68C116.408 120.504 116.537 120.295 116.62 120.067C116.703 119.839 116.737 119.596 116.721 119.353Z" fill="#FF725E"/>
<path d="M62.5429 124.313C65.9361 124.313 68.6868 121.562 68.6868 118.17C68.6868 114.778 65.9361 112.028 62.5429 112.028C59.1496 112.028 56.3989 114.778 56.3989 118.17C56.3989 121.562 59.1496 124.313 62.5429 124.313Z" fill="#FF725E"/>
<path d="M59.7668 118.287L60.5558 117.498L62.0826 118.849L65.0706 115.972L65.8011 116.76L61.9657 120.369L59.7668 118.287Z" fill="white"/>
<path d="M88.9524 269.759H40.7358C37.2869 269.747 33.9835 268.368 31.5509 265.924C29.1183 263.479 27.7553 260.17 27.7611 256.722V213.213H88.989L88.9524 269.759Z" fill="#EBEBEB"/>
<path d="M133.421 269.876L88.3972 269.759V213.213H146.973V256.357C146.898 259.924 145.446 263.323 142.919 265.843C140.393 268.364 136.989 269.809 133.421 269.876Z" fill="#455A64"/>
<path d="M147.572 213.213C147.572 213.316 120.943 213.403 88.0977 213.403C55.2519 213.403 28.6159 213.316 28.6159 213.213C28.6159 213.111 55.2373 213.024 88.0977 213.024C120.958 213.024 147.572 213.111 147.572 213.213Z" fill="#263238"/>
<path d="M87.2064 246.321C87.2064 246.321 87.1407 246.321 87.0384 246.219L86.5781 245.883L84.8394 244.583L78.4836 239.733C77.1467 238.718 75.6709 237.542 74.1002 236.395C73.6809 236.152 73.2014 236.032 72.7168 236.049C72.2322 236.066 71.7622 236.219 71.3607 236.49C70.9558 236.826 70.5749 237.19 70.221 237.579L69.0594 238.755L58.8316 249.082L58.2034 249.717L58.0865 249.834L57.955 249.739L52.0521 245.357L49.2468 243.261C48.8637 242.898 48.381 242.657 47.8604 242.57C47.3398 242.483 46.805 242.553 46.3245 242.772C45.8737 243.033 45.4649 243.36 45.1118 243.743L43.9575 244.817L41.7659 246.862L37.8209 250.514L32.1006 255.787L30.5299 257.204L30.1208 257.569C30.0283 257.652 29.9771 257.688 29.9674 257.678C30.0027 257.627 30.0444 257.58 30.0916 257.54L30.4788 257.153L31.9983 255.692L37.6382 250.331L41.554 246.635L43.7457 244.583L44.8926 243.502L45.4771 242.954C45.6955 242.756 45.9416 242.592 46.2076 242.465C46.7406 242.207 47.3403 242.12 47.9244 242.217C48.2202 242.262 48.5064 242.356 48.7719 242.494C49.0312 242.632 49.2759 242.796 49.5024 242.983L52.3151 245.065L58.2253 249.447H57.9769L58.6052 248.804L68.8329 238.499L70.0018 237.33C70.3701 236.926 70.7682 236.55 71.1926 236.206C71.648 235.904 72.179 235.735 72.7252 235.72C73.2715 235.704 73.8111 235.842 74.2829 236.118C75.9047 237.323 77.322 238.477 78.6662 239.514L84.949 244.459L86.6512 245.817L87.0822 246.182C87.1294 246.223 87.1711 246.27 87.2064 246.321Z" fill="#263238"/>
<path d="M63.3099 227.332C63.2661 227.332 63.3099 226.864 63.0689 226.053C62.7542 224.919 62.0704 223.922 61.1256 223.22C60.4795 222.737 59.7286 222.414 58.9339 222.277C58.0304 222.117 57.1005 222.197 56.2382 222.511C55.2833 222.86 54.4541 223.486 53.8566 224.308C53.2115 225.185 52.8636 226.246 52.8636 227.335C52.8636 228.424 53.2115 229.485 53.8566 230.363C54.4297 231.14 55.2088 231.742 56.1059 232.101C57.0029 232.46 57.9824 232.561 58.9339 232.393C59.7298 232.256 60.4812 231.93 61.1256 231.444C62.0704 230.741 62.7542 229.744 63.0689 228.61C63.288 227.806 63.2661 227.332 63.3099 227.332C63.3211 227.446 63.3211 227.561 63.3099 227.675C63.3107 228.002 63.2739 228.328 63.2004 228.646C62.9287 229.842 62.2495 230.906 61.279 231.655C60.6102 232.179 59.8265 232.537 58.9924 232.7C57.9788 232.896 56.9303 232.801 55.9683 232.426C55.0064 232.052 54.1703 231.412 53.557 230.582C52.8602 229.643 52.4839 228.504 52.4839 227.335C52.4839 226.166 52.8602 225.028 53.557 224.089C54.2001 223.213 55.0906 222.549 56.114 222.182C57.037 221.856 58.0304 221.78 58.9924 221.963C59.8255 222.129 60.6085 222.486 61.279 223.008C62.2481 223.759 62.927 224.822 63.2004 226.017C63.274 226.338 63.3108 226.666 63.3099 226.996C63.3209 227.107 63.3209 227.22 63.3099 227.332Z" fill="#263238"/>
<path d="M145.161 244.51C145.161 244.51 145.103 244.51 145.001 244.408L144.562 244.079L142.882 242.772L136.753 237.915C135.467 236.899 134.05 235.724 132.537 234.577C132.133 234.334 131.665 234.217 131.194 234.242C130.723 234.267 130.27 234.432 129.893 234.716C129.508 235.056 129.145 235.42 128.804 235.804L127.694 236.98L117.912 247.271L117.298 247.906L117.181 248.03L117.042 247.928L111.351 243.546L108.648 241.45C108.284 241.084 107.814 240.844 107.305 240.762C106.795 240.681 106.273 240.763 105.814 240.997C105.385 241.271 104.995 241.6 104.652 241.975L103.549 243.049L101.438 245.087L97.6461 248.739L92.1596 253.997L90.6546 255.414L90.2528 255.772C90.1652 255.853 90.114 255.896 90.1067 255.889C90.142 255.838 90.1838 255.791 90.2309 255.75C90.3259 255.641 90.4501 255.517 90.5962 255.363L92.0573 253.902L97.4634 248.556L101.218 244.868C101.898 244.21 102.592 243.524 103.315 242.815L104.411 241.742L104.974 241.194C105.173 240.998 105.4 240.831 105.646 240.697C106.161 240.425 106.75 240.325 107.326 240.413C107.617 240.455 107.898 240.546 108.159 240.683C108.417 240.823 108.661 240.987 108.889 241.172L111.592 243.261L117.291 247.643H117.035L117.649 247L127.453 236.731L128.57 235.563C128.926 235.164 129.307 234.789 129.71 234.438C130.142 234.12 130.658 233.937 131.194 233.912C131.73 233.887 132.261 234.022 132.72 234.299C134.291 235.504 135.642 236.658 136.943 237.696L142.992 242.647L144.621 244.013L145.037 244.371L145.161 244.51Z" fill="#263238"/>
<path d="M120.323 225.703C120.286 225.703 120.323 225.235 120.089 224.432C119.778 223.296 119.093 222.298 118.145 221.598C117.599 221.19 116.977 220.894 116.316 220.728C115.655 220.561 114.967 220.527 114.293 220.628C113.619 220.728 112.971 220.961 112.387 221.313C111.803 221.665 111.295 222.13 110.891 222.679C110.246 223.557 109.898 224.617 109.898 225.706C109.898 226.796 110.246 227.856 110.891 228.734C111.488 229.555 112.317 230.179 113.273 230.523C114.081 230.822 114.951 230.911 115.803 230.783C116.655 230.656 117.46 230.315 118.145 229.793C119.092 229.092 119.776 228.094 120.089 226.959C120.189 226.537 120.267 226.111 120.323 225.681C120.341 225.795 120.341 225.911 120.323 226.024C120.323 226.351 120.286 226.677 120.213 226.996C119.962 228.193 119.303 229.267 118.35 230.034C117.679 230.553 116.896 230.908 116.063 231.071C115.102 231.262 114.107 231.186 113.185 230.852C112.162 230.488 111.272 229.827 110.628 228.953C109.931 228.014 109.555 226.876 109.555 225.706C109.555 224.537 109.931 223.399 110.628 222.46C111.241 221.63 112.077 220.99 113.039 220.615C114.001 220.24 115.05 220.146 116.063 220.342C116.896 220.505 117.679 220.86 118.35 221.379C119.321 222.131 120 223.198 120.271 224.395C120.345 224.714 120.382 225.04 120.381 225.367C120.381 225.481 120.362 225.595 120.323 225.703Z" fill="#263238"/>
<path d="M89.2958 98.4135C98.6403 98.4135 106.215 90.8402 106.215 81.4981C106.215 72.156 98.6403 64.5827 89.2958 64.5827C79.9513 64.5827 72.3761 72.156 72.3761 81.4981C72.3761 90.8402 79.9513 98.4135 89.2958 98.4135Z" fill="#F5F5F5"/>
<path d="M100.232 94.3307C99.9435 91.6475 98.6566 89.1708 96.6267 87.3918C94.5969 85.6128 91.9725 84.6614 89.2739 84.7264C83.2687 84.7264 79.1557 89.2693 78.3156 94.3673C78.3156 94.3673 82.0268 98.472 89.2739 98.4135C96.521 98.3551 100.232 94.3307 100.232 94.3307Z" fill="#E0E0E0"/>
<path d="M96.1801 79.845C96.7663 76.219 94.3013 72.8045 90.6744 72.2185C87.0475 71.6325 83.6321 74.0969 83.0459 77.7229C82.4597 81.3489 84.9247 84.7634 88.5517 85.3494C92.1786 85.9354 95.594 83.471 96.1801 79.845Z" fill="#E0E0E0"/>
<path d="M100.152 93.7537C99.9448 92.6717 99.5985 91.621 99.1218 90.6278C98.5065 89.5169 97.6946 88.5271 96.7255 87.7063C95.4529 86.6319 93.9878 85.809 92.408 85.2814L92.0573 85.1719L92.3787 85.0039C93.494 84.3979 94.4099 83.4822 95.016 82.3672C95.5436 81.3847 95.8073 80.2822 95.7814 79.1673C95.7555 78.0525 95.4409 76.9634 94.8683 76.0064C94.2957 75.0494 93.4847 74.2572 92.5144 73.7071C91.5441 73.157 90.4478 72.8679 89.3323 72.8679C88.2169 72.8679 87.1205 73.157 86.1503 73.7071C85.18 74.2572 84.369 75.0494 83.7964 76.0064C83.2238 76.9634 82.9092 78.0525 82.8833 79.1673C82.8574 80.2822 83.1211 81.3847 83.6486 82.3672C83.9557 82.9369 84.3446 83.4586 84.8029 83.9156C85.2471 84.3431 85.7371 84.7203 86.264 85.0404L86.5562 85.223L86.2202 85.3179C84.6029 85.7437 83.1168 86.5643 81.8953 87.7063C80.9682 88.5842 80.2018 89.6174 79.6305 90.7592C79.2622 91.4915 78.9637 92.2569 78.7393 93.0453C78.6589 93.3155 78.6078 93.5273 78.5712 93.6661C78.5616 93.7391 78.542 93.8103 78.5128 93.8779C78.4998 93.8054 78.4998 93.7313 78.5128 93.6588C78.5128 93.5127 78.5712 93.2936 78.637 93.0234C78.8285 92.2173 79.1052 91.4338 79.4625 90.6862C80.0165 89.5055 80.7788 88.4342 81.7126 87.5237C82.9431 86.3378 84.4495 85.4768 86.096 85.0185L86.0521 85.296C85.5006 84.9706 84.9862 84.5861 84.518 84.1494C84.0317 83.6718 83.6182 83.1255 83.2906 82.5279C82.568 81.1803 82.3192 79.629 82.5842 78.123C82.8491 76.6171 83.6125 75.2438 84.7517 74.2236C85.9996 73.0996 87.6198 72.4775 89.2994 72.4775C90.9791 72.4775 92.5993 73.0996 93.8472 74.2236C94.6621 74.9557 95.2878 75.874 95.671 76.9001C96.0542 77.9263 96.1835 79.0298 96.0479 80.1167C95.9123 81.2036 95.5157 82.2416 94.8921 83.1422C94.2685 84.0428 93.4363 84.7792 92.4664 85.2887V85.0039C94.0787 85.5551 95.5678 86.416 96.8497 87.5383C97.8309 88.3939 98.6414 89.4273 99.2387 90.5839C99.4474 91.0122 99.6209 91.4568 99.7574 91.9132C99.8709 92.2438 99.9565 92.5834 100.013 92.9284C100.05 93.1841 100.079 93.3959 100.101 93.5712C100.123 93.7464 100.166 93.7537 100.152 93.7537Z" fill="#263238"/>
<path d="M106.215 81.4981C106.193 81.4073 106.18 81.3142 106.179 81.2205C106.179 81.0233 106.179 80.7604 106.121 80.4244L106.084 79.8328C106.084 79.6137 106.011 79.38 105.967 79.1025C105.891 78.5125 105.772 77.9291 105.609 77.3569C105.212 75.7807 104.579 74.2737 103.732 72.887C101.725 69.5389 98.6148 66.9938 94.9353 65.689C91.2558 64.3842 87.2367 64.401 83.5683 65.7367C82.8165 66.0074 82.0842 66.3296 81.3766 66.7007C80.6618 67.0922 79.9758 67.5339 79.3237 68.0227C78.6556 68.5182 78.021 69.0574 77.4243 69.6368C76.8341 70.2474 76.2849 70.8965 75.7805 71.5796C74.7424 72.978 73.9358 74.534 73.3916 76.1883C72.2422 79.6174 72.2422 83.3277 73.3916 86.7568C73.9358 88.4133 74.7423 89.9718 75.7805 91.3727C76.2868 92.0544 76.8358 92.7033 77.4243 93.3155C78.021 93.8949 78.6556 94.4342 79.3237 94.9296C79.9775 95.4159 80.6634 95.8576 81.3766 96.2516C84.7378 98.0232 88.5945 98.6221 92.3349 97.9534C94.6835 97.5215 96.914 96.5972 98.8796 95.2414C100.845 93.8856 102.501 92.129 103.739 90.0873C104.588 88.6986 105.221 87.1889 105.616 85.6101C105.779 85.0404 105.898 84.4593 105.974 83.8718C106.018 83.6162 106.062 83.3825 106.091 83.1414L106.128 82.5498C106.128 82.2139 106.172 81.9509 106.186 81.7464C106.188 81.6552 106.2 81.5645 106.223 81.4762C106.232 81.5684 106.232 81.6615 106.223 81.7537C106.223 81.9509 106.223 82.2212 106.223 82.5571C106.223 82.7397 106.223 82.9369 106.223 83.1487C106.223 83.3605 106.157 83.6089 106.128 83.8791C106.063 84.4732 105.953 85.0616 105.799 85.6393C105.42 87.2406 104.799 88.7749 103.958 90.1895C102.727 92.273 101.067 94.0712 99.0885 95.465C97.1099 96.8589 94.8577 97.8166 92.481 98.2747C89.4742 98.8374 86.3716 98.5852 83.4952 97.5444C82.729 97.2685 81.9821 96.9415 81.2597 96.5657C80.528 96.1671 79.825 95.718 79.1557 95.2218C78.4712 94.7163 77.8219 94.1648 77.2124 93.5711C76.608 92.9503 76.0466 92.289 75.5321 91.5918C74.4652 90.1615 73.6363 88.5682 73.0775 86.8736C72.5173 85.1281 72.2194 83.3092 72.1935 81.4762C72.2171 79.64 72.5175 77.818 73.0848 76.0714C73.6396 74.3788 74.4662 72.7877 75.5321 71.3605C76.0465 70.661 76.6079 69.9973 77.2124 69.3739C77.8254 68.7863 78.4745 68.2375 79.1557 67.7306C79.825 67.2343 80.528 66.7853 81.2597 66.3867C81.9821 66.0108 82.729 65.6839 83.4952 65.408C86.3691 64.3674 89.4693 64.1153 92.4737 64.6776C94.8519 65.1344 97.1057 66.0915 99.0857 67.4854C101.066 68.8793 102.727 70.6783 103.958 72.7628C104.799 74.1749 105.42 75.7068 105.799 77.3058C105.953 77.8859 106.063 78.4767 106.128 79.0733C106.128 79.3289 106.201 79.5699 106.223 79.8036C106.245 80.0373 106.223 80.2199 106.223 80.4025C106.223 80.7385 106.223 81.0087 106.223 81.2059C106.231 81.3033 106.229 81.4013 106.215 81.4981Z" fill="#263238"/>
<path d="M228.569 197.89C228.569 197.89 236.021 210.255 237.131 222.029C238.241 233.803 230.373 328.941 230.373 328.941H137.666C137.666 328.941 162.505 211.461 170.629 203.923L171.184 196.108L228.569 197.89Z" fill="#263238"/>
<path d="M232.529 207.319C232.549 207.872 232.537 208.426 232.492 208.977C232.385 210.563 232.088 212.13 231.608 213.644C230.857 216.054 229.685 218.312 228.145 220.313C227.186 221.565 226.082 222.7 224.858 223.694C223.475 224.781 222.01 225.758 220.474 226.616C218.874 227.551 217.165 228.456 215.455 229.537C213.664 230.595 212.033 231.904 210.612 233.423C209.16 235.109 208.04 237.054 207.31 239.156C206.58 241.409 206.074 243.728 205.798 246.08C205.469 248.49 205.257 250.981 204.928 253.523C204.633 256.127 204.044 258.69 203.175 261.162C202.232 263.733 200.692 266.044 198.682 267.904C196.578 269.756 194.197 271.267 191.625 272.381C186.511 274.725 181.134 276.223 176.597 278.954C174.373 280.271 172.425 282.008 170.862 284.067C169.434 286.099 168.337 288.345 167.611 290.721C166.15 295.351 165.493 299.974 164.28 304.159C164.119 304.678 163.959 305.197 163.805 305.708C163.652 306.219 163.447 306.708 163.272 307.205C162.897 308.168 162.473 309.112 162.001 310.032C161.57 310.945 161.022 311.777 160.54 312.61C160.269 313.012 159.992 313.406 159.721 313.793L159.32 314.37L158.881 314.918C156.822 317.545 154.356 319.826 151.576 321.674C149.482 323.073 147.224 324.211 144.855 325.063C143.357 325.588 141.82 325.996 140.259 326.282L139.039 326.465L138.616 326.516L139.032 326.428L140.245 326.209C141.794 325.894 143.318 325.464 144.803 324.924C150.285 322.886 155.091 319.363 158.684 314.75L159.115 314.209L159.517 313.632L160.32 312.456C160.803 311.631 161.343 310.806 161.782 309.893C162.247 308.983 162.665 308.05 163.031 307.095C163.206 306.606 163.374 306.109 163.549 305.635C163.725 305.16 163.864 304.612 164.017 304.094C165.215 299.938 165.829 295.329 167.319 290.633C168.055 288.221 169.167 285.941 170.614 283.877C172.201 281.766 174.187 279.987 176.458 278.64C181.054 275.857 186.416 274.36 191.515 272.023C194.052 270.937 196.401 269.458 198.477 267.641C200.436 265.826 201.938 263.573 202.861 261.067C203.711 258.6 204.279 256.045 204.556 253.45C204.884 250.923 205.103 248.432 205.44 246.014C205.725 243.641 206.238 241.3 206.974 239.025C207.727 236.883 208.874 234.902 210.356 233.182C211.806 231.648 213.466 230.327 215.287 229.26C217.012 228.208 218.728 227.302 220.321 226.389C221.855 225.529 223.32 224.552 224.704 223.468C225.917 222.492 227.013 221.379 227.97 220.152C229.504 218.179 230.683 215.955 231.455 213.579C231.953 212.078 232.274 210.524 232.412 208.948C232.47 208.408 232.47 207.999 232.492 207.714C232.514 207.429 232.529 207.319 232.529 207.319Z" fill="#455A64"/>
<path d="M235.129 215.967C235.183 216.088 235.229 216.213 235.268 216.339C235.4 216.701 235.505 217.072 235.582 217.45C235.865 218.917 235.838 220.427 235.502 221.883C234.978 224.189 233.941 226.348 232.47 228.201C230.48 230.595 228.223 232.754 225.742 234.635C223.09 236.826 220.073 239.171 217.757 242.487C216.557 244.189 215.717 246.117 215.287 248.154C214.884 250.325 214.64 252.522 214.557 254.728C214.47 257.073 214.145 259.402 213.585 261.681C212.972 264.056 212.077 266.348 210.919 268.51C208.48 273.075 204.946 276.962 200.632 279.823C196.169 282.745 191.135 284.147 186.715 286.346C184.525 287.375 182.509 288.741 180.739 290.392C179.097 292.027 177.77 293.951 176.824 296.067C174.946 300.201 174.172 304.503 173.127 308.417C172.643 310.32 172.047 312.193 171.345 314.027C170.675 315.713 169.82 317.32 168.795 318.818C167.845 320.164 166.737 321.39 165.493 322.47C164.923 323.003 164.302 323.441 163.725 323.894C163.148 324.347 162.534 324.719 161.92 325.041C159.879 326.238 157.659 327.101 155.345 327.597C153.891 327.9 152.411 328.054 150.925 328.057L149.771 327.999H150.925C152.4 327.959 153.868 327.781 155.309 327.466C157.589 326.944 159.773 326.07 161.782 324.873C162.381 324.551 162.943 324.142 163.549 323.726C164.156 323.31 164.733 322.835 165.296 322.302C166.519 321.218 167.607 319.992 168.539 318.65C169.543 317.164 170.381 315.572 171.038 313.903C171.726 312.077 172.309 310.214 172.784 308.323C173.821 304.422 174.574 300.099 176.436 295.906C177.395 293.748 178.742 291.785 180.411 290.114C182.207 288.435 184.255 287.047 186.482 286.002C190.938 283.775 195.979 282.35 200.362 279.495C206.69 275.299 211.251 268.922 213.176 261.579C213.73 259.321 214.055 257.014 214.148 254.691C214.221 252.463 214.465 250.243 214.878 248.052C215.32 245.975 216.18 244.009 217.406 242.275C219.773 238.923 222.827 236.571 225.486 234.402C227.997 232.555 230.289 230.428 232.317 228.062C233.784 226.242 234.83 224.119 235.378 221.846C235.716 220.41 235.766 218.92 235.524 217.464C235.312 216.471 235.1 215.974 235.129 215.967Z" fill="#455A64"/>
<path d="M141.034 149.81C141.034 149.81 147.046 191.266 156.295 195.29C160.956 197.328 164.704 195.575 167.253 190.908C169.803 186.241 176.312 152.33 176.312 152.33L158.319 151.906L157.647 158.647L150.706 145.742L141.034 149.81Z" fill="#936760"/>
<path d="M167.56 176.877C167.525 176.761 167.473 176.65 167.407 176.549L166.917 175.643L165.106 172.32C163.557 169.515 161.453 165.63 159.108 161.328C156.763 157.026 154.724 153.148 153.212 150.277L151.43 146.925L150.94 146.019C150.823 145.815 150.757 145.705 150.743 145.712C150.776 145.828 150.82 145.941 150.874 146.048L151.313 146.983C151.7 147.794 152.27 148.955 152.993 150.394C154.454 153.257 156.478 157.187 158.837 161.488C161.197 165.79 163.323 169.661 164.923 172.444C165.727 173.832 166.384 174.942 166.859 175.709L167.407 176.585C167.448 176.687 167.5 176.785 167.56 176.877Z" fill="#6F4C47"/>
<path d="M230.264 159.502L225.128 182.472L227.561 197.89H171.118L174.807 125.927L188.878 124.729L223.258 130.535L230.264 159.502Z" fill="#FF725E"/>
<path d="M215.908 130.119C215.908 130.119 230.607 128.768 237.613 138.767C241.902 144.887 247.914 158.947 247.914 158.947L228.342 162.328L215.908 130.119Z" fill="#FF725E"/>
<g opacity="0.3">
<path d="M224.821 159.772C223.827 157.74 222.276 156.033 220.349 154.848C218.422 153.664 216.198 153.051 213.936 153.082C212.957 153.082 211.854 153.345 211.335 154.17C210.816 154.995 211.101 156.179 211.481 157.135C211.971 158.384 212.621 159.706 213.819 160.305C214.696 160.743 215.726 160.722 216.668 161.036C217.793 161.467 218.821 162.118 219.693 162.949C220.475 163.532 221.15 164.246 221.687 165.06C222.048 165.75 222.309 166.488 222.461 167.251C223.419 171.005 224.178 178.754 225.128 182.509L226.18 179.273C226.209 176.186 226.236 173.099 226.26 170.012C226.29 166.506 226.29 162.913 224.821 159.772Z" fill="black"/>
</g>
<path d="M207.273 178.922C207.273 178.864 208.004 178.996 209.275 179.09C210.879 179.217 212.493 179.178 214.089 178.974C215.686 178.76 217.258 178.385 218.779 177.856C219.948 177.447 220.65 177.126 220.672 177.177C220.532 177.293 220.377 177.389 220.211 177.462C219.775 177.693 219.326 177.901 218.867 178.083C215.817 179.294 212.512 179.726 209.253 179.339C208.761 179.282 208.274 179.197 207.792 179.083C207.611 179.06 207.436 179.006 207.273 178.922Z" fill="#263238"/>
<path d="M182.639 179.93C182.639 179.843 190.675 182.121 200.472 185.043C210.269 187.964 218.246 190.36 218.217 190.455C218.188 190.55 210.181 188.264 200.377 185.342C190.573 182.421 182.639 180.025 182.639 179.93Z" fill="#263238"/>
<g opacity="0.3">
<path d="M207.675 179.017C208.395 180.084 209.393 180.935 210.56 181.476C211.728 182.018 213.021 182.231 214.301 182.092C215.523 181.955 216.679 181.469 217.632 180.692C218.584 179.915 219.292 178.879 219.671 177.71C215.854 179.183 211.719 179.633 207.675 179.017Z" fill="black"/>
</g>
<g opacity="0.3">
<path d="M216.076 189.725L215.872 189.805C210.831 190.703 206.104 189.805 201.261 188.081C196.417 186.358 191.932 183.889 187.468 181.384L216.076 189.725Z" fill="black"/>
</g>
<path d="M174.807 125.927C174.807 125.927 165.5 127.066 161.891 135.012C159.411 140.68 157.312 146.507 155.608 152.454L174.603 156.726C174.603 156.726 177.591 140.658 177.817 135.012C178.073 128.812 178.321 125.744 174.807 125.927Z" fill="#FF725E"/>
<path d="M173.017 159.268C172.849 157.499 172.795 155.72 172.857 153.944C172.804 152.169 172.865 150.393 173.039 148.627C173.208 150.394 173.262 152.17 173.2 153.944C173.253 155.721 173.192 157.499 173.017 159.268Z" fill="#263238"/>
<path d="M183.326 75.0124C188.345 68.8772 195.095 65.3422 203.051 65.2108C207.522 65.1377 209.377 66.0653 212.599 66.9345C215.819 67.713 218.663 69.5975 220.635 72.2589C222.922 75.5017 224.843 79.1317 225.274 83.0684C225.712 87.1219 226.158 91.1974 225.851 95.2583C225.544 99.3192 224.449 103.402 222.052 106.703L211.715 108.5C206.002 108.69 200.216 108.88 194.657 107.58C189.097 106.28 183.698 103.285 180.718 98.4135C176.583 91.643 178.299 81.1548 183.326 75.0124Z" fill="#263238"/>
<path d="M218.918 112.517C218.918 112.517 219.086 112.773 219.539 113.057C220.184 113.458 220.911 113.707 221.665 113.788C222.804 113.914 223.953 113.681 224.953 113.123C226.167 112.388 227.051 111.214 227.421 109.844C227.791 108.474 227.619 107.014 226.94 105.768C226.359 104.784 225.485 104.006 224.441 103.541C223.753 103.23 223.005 103.075 222.25 103.088C221.973 103.069 221.696 103.121 221.446 103.241C222.424 103.28 223.385 103.503 224.281 103.899C225.201 104.377 225.962 105.113 226.472 106.017C227.035 107.14 227.164 108.431 226.835 109.643C226.506 110.856 225.743 111.905 224.69 112.59C223.807 113.111 222.792 113.365 221.767 113.32C220.775 113.24 219.807 112.967 218.918 112.517Z" fill="#E0E0E0"/>
<path d="M173.302 105.009C173.401 103.832 173.768 102.694 174.374 101.682C174.981 100.669 175.811 99.8082 176.802 99.1658C177.808 98.5561 178.983 98.2821 180.155 98.3831C181.328 98.4842 182.438 98.9552 183.326 99.7282L184.955 101.664C186.213 102.248 187.259 103.21 187.946 104.415C188.633 105.62 188.928 107.01 188.79 108.39C188.601 109.766 188.024 111.06 187.126 112.119C186.228 113.179 185.047 113.96 183.72 114.372C182.385 114.747 180.975 114.773 179.627 114.447C178.278 114.121 177.036 113.454 176.02 112.51C175.026 111.548 174.265 110.373 173.794 109.073C173.323 107.774 173.155 106.383 173.302 105.009Z" fill="#263238"/>
<path d="M175.333 111.977C174.936 111.365 174.742 110.645 174.778 109.917C174.866 108.595 175.823 106.864 177.138 105.279C178.294 103.917 179.7 102.789 181.28 101.956C182.493 101.306 183.326 101.072 183.296 100.984C182.529 101.048 181.783 101.269 181.105 101.634C179.413 102.397 177.915 103.53 176.721 104.95C176.059 105.724 175.497 106.578 175.048 107.492C174.644 108.236 174.417 109.063 174.384 109.91C174.368 110.489 174.529 111.059 174.844 111.546C175.136 111.882 175.333 111.998 175.333 111.977Z" fill="#455A64"/>
<path d="M180.352 115.029C180.52 115.029 179.819 111.896 180.813 108.2C181.806 104.505 183.895 102.124 183.735 102.029C183.188 102.451 182.725 102.971 182.369 103.563C181.421 104.935 180.721 106.462 180.301 108.076C179.88 109.689 179.742 111.361 179.892 113.021C179.922 113.713 180.078 114.393 180.352 115.029Z" fill="#455A64"/>
<path d="M211.715 125.262C211.649 121.61 211.562 118.689 211.562 118.689C211.562 118.689 219.992 117.761 222.315 106.966C223.477 101.598 223.689 92.6947 223.63 85.4129C223.579 78.8395 217.99 69.929 209.896 69.8998L206.294 69.4762L192.516 74.954C191.554 74.9992 190.645 75.4044 189.968 76.089C189.291 76.7737 188.897 77.6877 188.863 78.6496L188.483 124.765L201.801 157.092L211.357 144.142L211.715 125.262Z" fill="#936760"/>
<path d="M206.119 104.432C206.199 103.879 206.48 103.374 206.908 103.015C207.3 102.678 207.792 102.479 208.308 102.449C208.824 102.418 209.336 102.558 209.764 102.847C210.209 103.189 210.554 103.643 210.763 104.164C210.973 104.684 211.039 105.25 210.955 105.805C210.719 106.137 210.414 106.415 210.061 106.619C209.708 106.823 209.316 106.949 208.91 106.988C208.781 106.996 208.651 106.996 208.522 106.988C207.88 106.985 207.261 106.74 206.791 106.302C206.545 106.061 206.357 105.768 206.24 105.444C206.124 105.12 206.083 104.774 206.119 104.432Z" fill="#6F4C47"/>
<path d="M218.275 92.8627C218.26 93.2275 218.102 93.5719 217.836 93.8218C217.57 94.0717 217.216 94.2072 216.851 94.1992C216.672 94.2041 216.494 94.1732 216.328 94.1082C216.162 94.0432 216.01 93.9455 215.882 93.8209C215.754 93.6963 215.652 93.5473 215.583 93.3827C215.513 93.2181 215.477 93.0413 215.477 92.8627C215.494 92.4984 215.653 92.1552 215.919 91.9056C216.185 91.6561 216.537 91.52 216.902 91.5261C217.081 91.5212 217.258 91.5522 217.425 91.6171C217.591 91.6821 217.743 91.7798 217.871 91.9044C217.999 92.029 218.101 92.178 218.17 92.3426C218.24 92.5072 218.275 92.684 218.275 92.8627Z" fill="#263238"/>
<path d="M220.949 89.4518C220.767 89.6198 219.751 88.7799 218.246 88.7215C216.741 88.663 215.602 89.335 215.448 89.1451C215.295 88.9552 215.565 88.7361 216.062 88.4147C216.74 88.0021 217.527 87.8059 218.319 87.8523C219.102 87.8945 219.851 88.1834 220.46 88.6777C220.898 89.0355 221.037 89.3715 220.949 89.4518Z" fill="#263238"/>
<path d="M211.503 100.838C212.307 100.631 213.135 100.528 213.965 100.532C214.352 100.532 214.696 100.459 214.798 100.196C214.856 99.8029 214.789 99.4021 214.608 99.0489C214.294 98.0994 213.972 97.0988 213.629 96.0617C212.285 91.8109 211.328 88.3271 211.503 88.2759C211.678 88.2248 212.906 91.621 214.25 95.8718C214.571 96.9162 214.886 97.9168 215.178 98.8736C215.396 99.3476 215.437 99.8837 215.295 100.386C215.233 100.519 215.141 100.637 215.025 100.728C214.91 100.819 214.774 100.882 214.63 100.911C214.415 100.961 214.193 100.981 213.972 100.97C213.147 101.033 212.317 100.989 211.503 100.838Z" fill="#263238"/>
<path d="M211.562 118.681C206.427 118.479 201.45 116.855 197.184 113.992C197.184 113.992 200.654 121.756 211.62 121.333L211.562 118.681Z" fill="#6F4C47"/>
<path d="M207.018 101.634C207.266 101.634 207.178 103.263 208.479 104.497C209.779 105.732 211.562 105.651 211.562 105.878C211.562 105.98 211.16 106.177 210.422 106.155C209.465 106.115 208.552 105.74 207.843 105.096C207.167 104.475 206.756 103.617 206.696 102.701C206.703 102.014 206.908 101.62 207.018 101.634Z" fill="#263238"/>
<path d="M220.628 83.7841C220.357 84.1347 219.218 83.828 217.866 83.8645C216.515 83.901 215.382 84.1932 215.105 83.8645C214.981 83.6965 215.149 83.3459 215.631 83.0026C216.294 82.5723 217.069 82.3463 217.859 82.3526C218.645 82.3258 219.421 82.5343 220.087 82.9515C220.628 83.2656 220.767 83.6089 220.628 83.7841Z" fill="#263238"/>
<path d="M200.779 92.4683C200.761 92.8372 200.89 93.1981 201.138 93.4719C201.386 93.7457 201.732 93.9101 202.101 93.929C202.278 93.945 202.457 93.9257 202.626 93.8721C202.796 93.8186 202.953 93.7319 203.089 93.6171C203.225 93.5023 203.337 93.3616 203.418 93.2033C203.499 93.0449 203.548 92.8721 203.562 92.6947C203.58 92.3258 203.451 91.9649 203.203 91.6911C202.955 91.4172 202.609 91.2529 202.24 91.234C202.062 91.2169 201.883 91.2356 201.713 91.2887C201.543 91.3419 201.385 91.4285 201.249 91.5435C201.113 91.6585 201.001 91.7996 200.92 91.9584C200.84 92.1172 200.791 92.2906 200.779 92.4683Z" fill="#263238"/>
<path d="M200.348 88.9113C200.516 89.0939 201.59 88.3271 203.094 88.3563C204.599 88.3855 205.688 89.1597 205.856 88.9771C206.024 88.7945 205.768 88.5681 205.293 88.2467C204.655 87.7847 203.89 87.5298 203.102 87.5163C202.319 87.4973 201.55 87.7303 200.91 88.181C200.421 88.5023 200.26 88.8237 200.348 88.9113Z" fill="#263238"/>
<path d="M199.478 85.6758C199.77 86.0264 200.939 85.6758 202.335 85.6758C203.73 85.6758 204.914 85.9534 205.191 85.5955C205.308 85.4275 205.133 85.0842 204.621 84.7482C203.92 84.3378 203.118 84.1305 202.305 84.1493C201.498 84.1433 200.705 84.3661 200.019 84.7921C199.522 85.1573 199.354 85.5078 199.478 85.6758Z" fill="#263238"/>
<path d="M190.748 96.9528C190.792 96.1347 189.959 94.1773 189.163 94.0313C187.044 93.5857 183.172 93.5419 182.843 98.9759C182.383 106.396 189.93 105.323 189.959 105.111C189.988 104.899 190.602 99.7501 190.748 96.9528Z" fill="#936760"/>
<path d="M188.082 102.248C188.045 102.248 187.943 102.328 187.716 102.416C187.402 102.527 187.057 102.514 186.752 102.379C185.985 102.043 185.4 100.751 185.444 99.4141C185.465 98.7754 185.627 98.1492 185.919 97.5809C186.001 97.3522 186.139 97.1476 186.32 96.9857C186.501 96.8237 186.72 96.7095 186.956 96.6533C187.106 96.624 187.261 96.6482 187.395 96.7217C187.528 96.7951 187.632 96.9131 187.687 97.055C187.775 97.2668 187.724 97.4129 187.76 97.4275C187.797 97.4421 187.928 97.3106 187.884 97.0039C187.856 96.8173 187.763 96.6466 187.621 96.5218C187.523 96.4338 187.407 96.3676 187.281 96.3273C187.155 96.287 187.022 96.2737 186.891 96.2881C186.582 96.3283 186.288 96.4476 186.038 96.6344C185.789 96.8212 185.592 97.0692 185.466 97.3544C185.113 97.9774 184.915 98.6764 184.889 99.3922C184.845 100.897 185.525 102.314 186.584 102.715C186.779 102.785 186.987 102.811 187.193 102.789C187.4 102.768 187.598 102.7 187.775 102.591C188.052 102.438 188.103 102.263 188.082 102.248Z" fill="#6F4C47"/>
<path d="M188.856 94.024L190.748 95.9814C198.894 88.1883 214.82 68.6654 213.929 69.8267C210.216 68.4408 206.215 68.0064 202.291 68.5632C196.227 69.593 184.758 72.6241 184.918 79.7744C185.079 86.9247 188.856 94.024 188.856 94.024Z" fill="#263238"/>
<path d="M189.031 112.517C189.031 112.517 188.863 112.773 188.418 113.057C187.771 113.459 187.041 113.709 186.284 113.788C185.148 113.914 184.001 113.681 183.004 113.123C181.79 112.388 180.906 111.214 180.534 109.845C180.163 108.475 180.333 107.016 181.01 105.768C181.594 104.784 182.469 104.005 183.516 103.541C184.203 103.228 184.952 103.074 185.707 103.088C185.986 103.071 186.265 103.124 186.518 103.241C185.543 103.291 184.587 103.524 183.698 103.928C182.778 104.407 182.017 105.143 181.507 106.046C180.944 107.169 180.815 108.46 181.144 109.672C181.472 110.885 182.236 111.934 183.289 112.619C184.185 113.147 185.216 113.401 186.255 113.35C187.225 113.253 188.168 112.97 189.031 112.517Z" fill="#E0E0E0"/>
<path d="M178.066 92.3879C178.091 92.241 178.131 92.0968 178.183 91.957C178.317 91.5539 178.486 91.163 178.687 90.7884C179.455 89.4125 180.514 88.221 181.791 87.2972C183.686 85.945 185.799 84.9273 188.038 84.2881C190.522 83.4847 193.327 82.8274 196.074 81.6734C198.659 80.5916 201.111 79.2142 203.379 77.5687C205.239 76.2187 206.973 74.703 208.559 73.0404C209.624 71.9145 210.624 70.7294 211.554 69.4908L212.285 68.4609C212.375 68.3342 212.478 68.2167 212.592 68.1104C212.54 68.2488 212.468 68.3791 212.38 68.4974C212.219 68.7458 212 69.111 211.649 69.5638C210.763 70.8491 209.787 72.0694 208.727 73.2157C207.157 74.9182 205.427 76.4663 203.562 77.8389C201.271 79.5218 198.786 80.9244 196.161 82.0166C193.531 83.0245 190.848 83.8924 188.125 84.6168C185.915 85.2287 183.821 86.2036 181.93 87.5017C180.666 88.3922 179.6 89.5334 178.796 90.8541C178.256 91.8109 178.109 92.4025 178.066 92.3879Z" fill="#455A64"/>
<path d="M180.228 93.5565C180.209 93.0014 180.309 92.4487 180.52 91.9351C181.078 90.5152 182.051 89.2962 183.311 88.4366C184.86 87.2826 187.073 86.5669 189.506 86.0118C192.155 85.4834 194.738 84.6628 197.206 83.565C199.661 82.4411 201.968 81.0183 204.073 79.3289C205.789 77.945 207.365 76.3966 208.778 74.7056C209.727 73.5591 210.603 72.354 211.401 71.0976L212.029 70.0604C212.097 69.9356 212.178 69.8182 212.27 69.7099C212.232 69.8473 212.173 69.9779 212.095 70.097C211.949 70.3818 211.759 70.7397 211.525 71.1779C210.771 72.4713 209.921 73.7067 208.983 74.8736C205.865 78.7481 201.888 81.8438 197.367 83.9156C194.876 85.0285 192.265 85.8519 189.586 86.3697C187.154 86.9101 184.991 87.5821 183.464 88.6776C182.228 89.4945 181.254 90.651 180.659 92.0081C180.468 92.5098 180.323 93.0281 180.228 93.5565Z" fill="#455A64"/>
<path d="M141.786 153.856C141.37 153.703 140.822 147.794 140.822 147.794C140.822 147.794 134.912 143.068 134.108 141.148C133.304 139.227 133.421 134.647 133.421 134.647L143.101 128.074C143.101 128.074 148.821 133.187 150.319 135.202C151.159 136.327 151.78 139.431 152.219 141.944C152.569 144.08 152.65 146.251 152.46 148.407L152.321 150.073C152.321 150.073 148.427 156.325 141.786 153.856Z" fill="#936760"/>
<path d="M134.554 142.309C133.858 141.691 133.197 141.035 132.574 140.344C131.317 138.986 129.922 137.715 131.113 136.276C131.292 136.038 131.519 135.841 131.78 135.697C132.04 135.554 132.328 135.467 132.625 135.443C132.625 135.443 131.895 134.18 132.53 133.384C132.709 133.149 132.942 132.96 133.209 132.833C133.475 132.706 133.769 132.644 134.064 132.653C134.064 132.653 133.122 130.842 133.991 129.622C134.322 129.177 134.772 128.833 135.288 128.629C135.804 128.425 136.367 128.37 136.913 128.468C136.913 128.468 132.99 120.478 132.757 120.069C131.88 118.557 131.96 116.907 133.714 116.724C134.356 116.658 134.912 117.162 136.577 119.645C138.243 122.129 141.034 126.328 141.034 126.328C141.034 126.328 144.08 128.907 145.607 130.353C147.134 131.799 150.326 135.188 150.86 136.196C152.226 138.818 151.934 143.039 151.934 143.039L140.829 147.794C140.829 147.794 135.27 142.944 134.554 142.309Z" fill="#936760"/>
<path d="M132.961 135.721C133.421 135.992 133.861 136.297 134.276 136.634L135.671 137.671C135.954 137.874 136.218 138.101 136.46 138.35C136.745 138.626 136.929 138.988 136.986 139.38C137.023 139.583 137.004 139.791 136.932 139.984C136.86 140.177 136.738 140.347 136.577 140.476C136.266 140.691 135.884 140.777 135.511 140.717C135.198 140.684 134.89 140.62 134.59 140.527C134.305 140.446 134.05 140.366 133.809 140.286C133.341 140.132 132.961 139.994 132.705 139.884C132.45 139.774 132.318 139.709 132.326 139.687C132.333 139.665 132.917 139.855 133.86 140.118C134.407 140.286 134.966 140.411 135.533 140.49C135.845 140.528 136.16 140.455 136.424 140.286C136.548 140.179 136.642 140.043 136.697 139.889C136.752 139.735 136.766 139.57 136.738 139.409C136.683 139.071 136.522 138.759 136.278 138.518C136.054 138.276 135.809 138.054 135.547 137.854L134.181 136.765C133.745 136.453 133.337 136.104 132.961 135.721Z" fill="#6F4C47"/>
<path d="M142.626 133.355C142.311 132.796 142.134 132.17 142.108 131.529C141.997 130.898 142.034 130.25 142.217 129.637C142.298 129.637 142.217 130.484 142.356 131.507C142.495 132.529 142.699 133.333 142.626 133.355Z" fill="#6F4C47"/>
<path d="M148.003 134.165C146.59 133.533 145.025 133.323 143.496 133.559C141.972 133.794 140.494 134.262 139.112 134.947C138.002 135.473 136.789 136.247 136.636 137.467C136.482 138.686 137.629 139.855 138.871 140.096C140.135 140.236 141.411 139.981 142.524 139.365C143.628 138.735 144.806 138.245 146.031 137.905" fill="#936760"/>
<path d="M146.045 137.941C146.045 137.941 145.717 138.022 145.139 138.241C144.339 138.568 143.557 138.936 142.794 139.344C142.258 139.62 141.698 139.85 141.121 140.03C140.451 140.25 139.741 140.323 139.039 140.242C138.245 140.139 137.521 139.73 137.023 139.103C136.752 138.774 136.575 138.377 136.512 137.956C136.465 137.515 136.552 137.07 136.76 136.678C137.213 135.963 137.866 135.396 138.638 135.049C139.321 134.706 140.023 134.404 140.742 134.143C141.96 133.687 143.247 133.44 144.548 133.413C145.423 133.392 146.296 133.523 147.127 133.8C147.354 133.875 147.576 133.966 147.791 134.07C147.866 134.104 147.937 134.146 148.003 134.194C148.003 134.194 147.689 134.063 147.097 133.895C146.268 133.663 145.408 133.562 144.548 133.596C143.27 133.654 142.012 133.923 140.822 134.392C140.115 134.651 139.425 134.954 138.754 135.297C138.028 135.625 137.414 136.159 136.986 136.831C136.797 137.171 136.72 137.562 136.767 137.949C136.82 138.326 136.974 138.682 137.213 138.978C137.674 139.556 138.337 139.937 139.069 140.045C139.739 140.123 140.418 140.06 141.063 139.862C141.633 139.691 142.187 139.474 142.721 139.212C143.496 138.818 144.294 138.472 145.11 138.175C145.335 138.101 145.564 138.043 145.797 138C145.877 137.969 145.96 137.949 146.045 137.941Z" fill="#6F4C47"/>
<path d="M133.1 135.823C134.948 137.204 136.753 138.818 138.418 140.373C138.874 140.873 139.454 141.243 140.099 141.447C140.617 141.557 141.516 140.717 141.932 140.351L135.964 134.085" fill="#936760"/>
<path d="M135.964 134.085C136.146 134.214 136.312 134.364 136.46 134.53L137.746 135.83C138.835 136.941 140.34 138.496 142.027 140.264L142.115 140.359L142.013 140.446C141.694 140.732 141.36 141.001 141.012 141.25C140.862 141.349 140.703 141.435 140.537 141.505C140.448 141.542 140.355 141.564 140.259 141.571C140.163 141.591 140.064 141.591 139.967 141.571C139.636 141.474 139.327 141.315 139.054 141.104C138.521 140.695 138.097 140.249 137.651 139.855C136.775 139.051 135.986 138.336 135.314 137.744C134.641 137.152 134.079 136.685 133.692 136.364C133.484 136.206 133.286 136.035 133.1 135.852C133.332 135.975 133.55 136.122 133.75 136.291C134.159 136.583 134.736 137.021 135.423 137.605C136.11 138.19 136.928 138.883 137.805 139.687C138.25 140.074 138.696 140.527 139.2 140.907C139.449 141.099 139.731 141.243 140.033 141.33C140.182 141.348 140.334 141.333 140.477 141.288C140.621 141.243 140.753 141.167 140.866 141.067C141.208 140.825 141.538 140.564 141.852 140.286V140.417C140.164 138.642 138.689 137.065 137.629 135.925L136.395 134.574C136.241 134.42 136.098 134.256 135.964 134.085Z" fill="#6F4C47"/>
<path d="M134.283 132.186L140.303 138.964C140.702 139.47 141.183 139.905 141.728 140.249C142.001 140.42 142.312 140.52 142.634 140.54C142.955 140.56 143.276 140.501 143.569 140.366C143.933 140.114 144.202 139.749 144.334 139.327C144.467 138.905 144.454 138.45 144.299 138.036C143.974 137.21 143.476 136.463 142.838 135.845C141.022 133.785 139.368 131.588 137.892 129.272" fill="#936760"/>
<path d="M137.907 129.25C137.907 129.25 137.973 129.316 138.075 129.462L138.513 130.097C138.901 130.645 139.456 131.434 140.172 132.39C140.888 133.347 141.786 134.45 142.824 135.641C143.411 136.237 143.903 136.919 144.285 137.664C144.475 138.084 144.549 138.549 144.497 139.008C144.459 139.493 144.24 139.947 143.883 140.278C143.696 140.437 143.477 140.552 143.241 140.616C143.005 140.681 142.758 140.692 142.517 140.651C142.06 140.583 141.629 140.397 141.268 140.11C140.642 139.557 140.063 138.954 139.536 138.306L136.767 135.144C136 134.26 135.379 133.53 134.919 132.997L134.422 132.383C134.36 132.317 134.306 132.243 134.262 132.164C134.262 132.164 134.335 132.222 134.459 132.347L134.992 132.909L136.899 135.005L139.711 138.131C140.234 138.762 140.805 139.351 141.421 139.891C141.749 140.151 142.14 140.319 142.553 140.381C142.759 140.415 142.97 140.405 143.172 140.35C143.373 140.296 143.561 140.199 143.722 140.067C144.03 139.775 144.218 139.379 144.248 138.956C144.296 138.543 144.23 138.124 144.058 137.744C143.674 137.017 143.181 136.352 142.597 135.772C141.56 134.574 140.683 133.442 139.982 132.471C139.28 131.499 138.74 130.696 138.382 130.126C138.207 129.841 138.068 129.622 137.98 129.469C137.948 129.399 137.923 129.325 137.907 129.25Z" fill="#6F4C47"/>
<path d="M147.09 144.799C146.866 144.918 146.613 144.971 146.36 144.953C145.766 144.985 145.174 144.88 144.628 144.646C144.071 144.422 143.571 144.075 143.167 143.631C142.99 143.458 142.858 143.245 142.78 143.01C143.304 143.621 143.965 144.102 144.708 144.412C145.451 144.723 146.257 144.856 147.061 144.799H147.09Z" fill="#6F4C47"/>
<path d="M223.645 125.693L221.541 152.235C221.505 152.689 221.292 153.111 220.948 153.409C220.603 153.707 220.155 153.857 219.7 153.827L204.906 152.834C204.675 152.82 204.449 152.76 204.241 152.657C204.034 152.554 203.849 152.41 203.699 152.234C203.548 152.058 203.434 151.854 203.364 151.633C203.294 151.412 203.27 151.18 203.292 150.949L205.71 124.429C205.749 123.979 205.963 123.562 206.305 123.267C206.648 122.972 207.092 122.823 207.544 122.852L222.03 123.794C222.262 123.809 222.489 123.871 222.696 123.976C222.904 124.08 223.088 124.225 223.239 124.403C223.389 124.58 223.503 124.785 223.573 125.007C223.642 125.228 223.667 125.462 223.645 125.693Z" fill="#455A64"/>
<path d="M244.824 159.48C244.824 159.48 249.244 189.338 249.068 193.347C248.893 197.357 244.356 206.26 238.249 207.129C232.141 207.999 226.385 202.419 226.209 195.093C226.034 187.767 225.128 164.6 225.128 164.6L229.687 162.087L244.824 159.48Z" fill="#936760"/>
<path d="M219.656 134.808C219.656 134.808 224.229 137.62 225.581 138.358C226.932 139.095 226.757 144.544 226.757 144.544L234.457 162.438L225.179 165.761C225.179 165.761 221.87 159.502 220.92 158.713C220.27 158.202 219.525 157.825 218.728 157.603C218.728 157.603 218.253 159.341 216.829 158.552C215.699 157.807 214.684 156.899 213.819 155.857C213.819 155.857 212.548 156.653 212.073 155.704C211.598 154.754 210.809 152.695 210.809 152.695C210.809 152.695 213.498 149.211 214.608 149.211C215.718 149.211 221.417 149.525 221.417 149.525C221.417 149.525 221.103 149.05 219.517 148.422C217.932 147.794 208.508 145.011 208.062 144.843C207.397 144.588 206.652 142.857 208.712 142.696C210.773 142.535 222.367 144.61 222.367 144.61C222.367 144.61 223.002 141.615 222.527 140.958C222.052 140.3 217.91 137.656 219.656 134.808Z" fill="#936760"/>
<path d="M213.782 155.755C213.702 155.324 213.714 154.881 213.819 154.455C213.918 153.959 214.175 153.509 214.55 153.17C215.043 152.812 215.643 152.632 216.252 152.658C217.293 152.591 218.338 152.628 219.371 152.768C219.803 152.796 220.228 152.894 220.628 153.06C220.628 153.169 218.67 152.841 216.244 153.002C215.708 152.975 215.176 153.118 214.725 153.411C214.398 153.703 214.166 154.087 214.06 154.513C213.99 154.932 213.897 155.346 213.782 155.755Z" fill="#6F4C47"/>
<path d="M215.623 156.288C216.23 156.536 216.822 156.817 217.399 157.128C218.022 157.333 218.632 157.577 219.225 157.859C218.543 157.904 217.862 157.757 217.26 157.435C216.614 157.222 216.044 156.823 215.623 156.288Z" fill="#6F4C47"/>
<path d="M221.819 144.544C222.435 144.637 223.007 144.92 223.455 145.353C223.902 145.786 224.204 146.349 224.317 146.961C224.222 146.961 223.908 146.231 223.214 145.603C222.52 144.975 221.782 144.639 221.819 144.544Z" fill="#6F4C47"/>
<path d="M142.765 304.327C142.663 304.327 146.652 287.529 151.678 266.874C156.704 246.219 160.854 229.523 160.956 229.523C161.058 229.523 157.069 246.321 152.043 266.983C147.017 287.646 142.867 304.349 142.765 304.327Z" fill="#455A64"/>
<path d="M252.093 328.707C252.093 328.809 182.398 328.897 96.4406 328.897C10.4835 328.897 -59.2335 328.809 -59.2335 328.707C-59.2335 328.605 10.4542 328.517 96.4406 328.517C182.427 328.517 252.093 328.598 252.093 328.707Z" fill="#263238"/>
</g>
<defs>
<clipPath id="clip0_32_589">
<rect width="263" height="342" fill="white"/>
</clipPath>
</defs>
</svg>
