<svg width="24" height="25" viewBox="0 0 24 25" fill="none" xmlns="http://www.w3.org/2000/svg">
<path d="M23.1429 3.26798C18.3601 3.0623 14.6825 1.44233 12.4373 0.122116C12.1629 -0.0407052 11.8372 -0.0407052 11.5629 0.122116C8.39138 1.99062 4.57727 3.10493 0.82292 3.27636C0.360094 3.29358 0 3.69652 0 4.15076C0 12.2683 4.32003 19.6398 11.5628 23.8825C11.7 23.9596 11.8542 24.0025 12 24.0025C12.1458 24.0025 12.3 23.9596 12.4372 23.8825C19.6804 19.6396 24 12.2683 24 4.15076V4.13373C24 3.67071 23.5971 3.29365 23.1429 3.26798ZM14.1428 12.4739V14.4796C14.1428 15.6623 13.1826 16.6224 11.9999 16.6224C10.8171 16.6224 9.85697 15.6623 9.85697 14.4796V12.4652C9.11115 11.7024 8.81976 10.5967 9.11977 9.53366C9.39413 8.54793 10.2168 7.74225 11.2026 7.4851C12.1368 7.24517 13.0883 7.43363 13.8341 8.00801C14.5713 8.57379 14.9999 9.43957 14.9999 10.3824C14.9999 11.1709 14.6913 11.9167 14.1428 12.4739Z" fill="#A74A45"/>
<path d="M12.7885 9.36146C12.557 9.18142 12.2829 9.0957 11.9998 9.0957C11.8799 9.0957 11.7599 9.11292 11.6398 9.13856C11.2284 9.24991 10.8856 9.59278 10.7654 9.99572C10.5855 10.6386 10.8855 11.1443 11.2284 11.4014C11.4427 11.5642 11.5712 11.8128 11.5712 12.0871V14.4786C11.5712 14.7185 11.7599 14.9071 11.9998 14.9071C12.2398 14.9071 12.4284 14.7185 12.4284 14.4786V12.0871C12.4284 11.8128 12.557 11.5642 12.7713 11.4014C13.0969 11.1529 13.2856 10.7758 13.2856 10.3814C13.2856 9.9785 13.1055 9.60999 12.7885 9.36146Z" fill="#A74A45"/>
</svg>
