<svg width="24" height="24" viewBox="0 0 24 24" fill="none" xmlns="http://www.w3.org/2000/svg">
<path d="M11.3846 21.0006V19.5006H18.6923C18.782 19.5006 18.8557 19.4717 18.9134 19.4141C18.9711 19.3564 19 19.2826 19 19.1929V11.9775C19 11.0108 18.8166 10.1025 18.45 9.25249C18.0833 8.40249 17.5833 7.66082 16.95 7.02749C16.3166 6.39415 15.575 5.89415 14.725 5.52749C13.875 5.16082 12.9666 4.97749 12 4.97749C11.0333 4.97749 10.125 5.16082 9.27498 5.52749C8.42498 5.89415 7.68331 6.39415 7.04998 7.02749C6.41664 7.66082 5.91664 8.40249 5.54998 9.25249C5.18331 10.1025 4.99998 11.0108 4.99998 11.9775V18.039H4.25C3.7641 18.039 3.35096 17.8688 3.01058 17.5285C2.67019 17.1881 2.5 16.7749 2.5 16.289V14.289C2.5 13.957 2.59167 13.6564 2.775 13.3871C2.95833 13.1179 3.2 12.8916 3.5 12.7083L3.54618 11.3929C3.63848 10.2403 3.92821 9.18201 4.41538 8.21791C4.90256 7.25381 5.52948 6.42689 6.29615 5.73714C7.0628 5.0474 7.93588 4.50862 8.91538 4.12079C9.89486 3.73297 10.9231 3.53906 12 3.53906C13.0872 3.53906 14.1205 3.73137 15.1 4.11599C16.0795 4.5006 16.95 5.04035 17.7115 5.73521C18.473 6.4301 19.0974 7.25702 19.5846 8.21599C20.0717 9.17495 20.3615 10.2288 20.4538 11.3775L20.5 12.6679C20.8 12.8179 21.0416 13.0243 21.225 13.2871C21.4083 13.55 21.5 13.8339 21.5 14.139V16.439C21.5 16.7544 21.4083 17.041 21.225 17.2987C21.0416 17.5563 20.8 17.7602 20.5 17.9102V19.1929C20.5 19.6916 20.3233 20.1176 19.9701 20.4708C19.6169 20.824 19.191 21.0006 18.6923 21.0006H11.3846ZM9.1923 14.0775C8.94743 14.0775 8.73878 13.9913 8.56635 13.8188C8.39392 13.6464 8.3077 13.4378 8.3077 13.1929C8.3077 12.948 8.39392 12.7394 8.56635 12.5669C8.73878 12.3945 8.94743 12.3083 9.1923 12.3083C9.43717 12.3083 9.64582 12.3945 9.81825 12.5669C9.99068 12.7394 10.0769 12.948 10.0769 13.1929C10.0769 13.4378 9.99068 13.6464 9.81825 13.8188C9.64582 13.9913 9.43717 14.0775 9.1923 14.0775ZM14.8077 14.0775C14.5628 14.0775 14.3541 13.9913 14.1817 13.8188C14.0093 13.6464 13.923 13.4378 13.923 13.1929C13.923 12.948 14.0093 12.7394 14.1817 12.5669C14.3541 12.3945 14.5628 12.3083 14.8077 12.3083C15.0525 12.3083 15.2612 12.3945 15.4336 12.5669C15.606 12.7394 15.6923 12.948 15.6923 13.1929C15.6923 13.4378 15.606 13.6464 15.4336 13.8188C15.2612 13.9913 15.0525 14.0775 14.8077 14.0775ZM6.37115 12.4602C6.3109 11.5345 6.44039 10.6942 6.75962 9.93904C7.07884 9.1839 7.50993 8.5432 8.05288 8.01694C8.59583 7.49065 9.21986 7.08552 9.92498 6.80154C10.6301 6.51757 11.3384 6.37559 12.05 6.37559C13.4769 6.37559 14.7125 6.82751 15.7567 7.73136C16.8009 8.6352 17.4333 9.76211 17.6538 11.1121C16.1769 11.0954 14.842 10.6987 13.649 9.92174C12.4561 9.1448 11.5538 8.13647 10.9423 6.89674C10.6885 8.1698 10.1564 9.29672 9.34615 10.2775C8.53588 11.2583 7.54422 11.9858 6.37115 12.4602Z" fill="black"/>
</svg>
