<svg width="10" height="12" viewBox="0 0 10 12" fill="none" xmlns="http://www.w3.org/2000/svg">
<path d="M4.99996 6.33333C4.47254 6.33333 3.95697 6.17694 3.51844 5.88392C3.07991 5.5909 2.73811 5.17443 2.53628 4.68716C2.33445 4.19989 2.28164 3.66371 2.38453 3.14643C2.48743 2.62914 2.7414 2.15399 3.11434 1.78105C3.48728 1.40811 3.96244 1.15413 4.47972 1.05124C4.997 0.948347 5.53318 1.00116 6.02045 1.20299C6.50772 1.40482 6.92419 1.74662 7.21721 2.18515C7.51023 2.62368 7.66663 3.13925 7.66663 3.66667C7.66592 4.3737 7.38474 5.05156 6.8848 5.55151C6.38485 6.05145 5.70699 6.33263 4.99996 6.33333ZM4.99996 1.88889C4.64835 1.88889 4.30463 1.99316 4.01228 2.1885C3.71992 2.38384 3.49206 2.6615 3.35751 2.98634C3.22295 3.31119 3.18774 3.66864 3.25634 4.0135C3.32494 4.35835 3.49425 4.67512 3.74288 4.92375C3.99151 5.17237 4.30828 5.34169 4.65313 5.41029C4.99799 5.47888 5.35544 5.44368 5.68029 5.30912C6.00513 5.17457 6.28278 4.9467 6.47813 4.65435C6.67347 4.36199 6.77774 4.01828 6.77774 3.66667C6.77774 3.19517 6.59044 2.74299 6.25704 2.40959C5.92364 2.07619 5.47146 1.88889 4.99996 1.88889Z" fill="#333333" stroke="#333333" stroke-width="0.3"/>
<path d="M5 7.22168C6.0605 7.22286 7.07724 7.64466 7.82713 8.39455C8.57702 9.14444 8.99882 10.1612 9 11.2217C9 11.3396 8.95317 11.4526 8.86983 11.5359C8.78648 11.6193 8.67343 11.6661 8.55556 11.6661C8.43768 11.6661 8.32464 11.6193 8.24129 11.5359C8.15794 11.4526 8.11111 11.3396 8.11111 11.2217C8.11111 10.3966 7.78333 9.60524 7.19989 9.02179C6.61644 8.43835 5.82512 8.11057 5 8.11057C4.17488 8.11057 3.38356 8.43835 2.80011 9.02179C2.21667 9.60524 1.88889 10.3966 1.88889 11.2217C1.88889 11.3396 1.84206 11.4526 1.75871 11.5359C1.67536 11.6193 1.56232 11.6661 1.44444 11.6661C1.32657 11.6661 1.21352 11.6193 1.13017 11.5359C1.04682 11.4526 1 11.3396 1 11.2217C1.00118 10.1612 1.42298 9.14444 2.17287 8.39455C2.92276 7.64466 3.9395 7.22286 5 7.22168Z" fill="#333333" stroke="#333333" stroke-width="0.3"/>
</svg>
