<svg width="19" height="31" viewBox="0 0 19 31" fill="none" xmlns="http://www.w3.org/2000/svg">
<path d="M9.50104 24.2135C10.1504 24.2135 10.7406 24.4687 11.1662 24.8809C11.5922 25.2931 11.8559 25.863 11.8559 26.4924C11.8559 27.1218 11.5922 27.692 11.1662 28.1039L11.1148 28.1494C10.6922 28.5354 10.1234 28.7713 9.50101 28.7713C8.85394 28.7713 8.26615 28.516 7.83679 28.1006C7.40879 27.6851 7.14605 27.1175 7.14605 26.4924C7.14605 25.8662 7.41086 25.2961 7.83779 24.8829C8.26241 24.4687 8.85061 24.2135 9.50104 24.2135ZM10.1125 25.9007C9.95606 25.7493 9.73934 25.6552 9.50104 25.6552C9.26196 25.6552 9.04627 25.7493 8.88957 25.9007C8.73209 26.0501 8.63594 26.2598 8.63594 26.4924C8.63594 26.725 8.73209 26.9348 8.88619 27.0842C9.04367 27.2365 9.26066 27.3296 9.50078 27.3296C9.7266 27.3296 9.93112 27.2474 10.0977 27.0992C10.2687 26.9328 10.3659 26.724 10.3659 26.4924C10.3659 26.2621 10.2689 26.0523 10.1125 25.9007ZM7.91402 2.81305C7.50395 2.81305 7.17186 2.4919 7.17186 2.09483C7.17186 1.69799 7.50371 1.37662 7.91402 1.37662L11.087 1.37561C11.4971 1.37561 11.8291 1.69676 11.8291 2.09383C11.8291 2.49067 11.4973 2.81204 11.087 2.81204L7.91402 2.81305ZM16.7646 0H2.23536C1.62077 0 1.06078 0.24343 0.656166 0.63499C0.252592 1.02654 0 1.56849 0 2.16322V28.8368C0 29.4315 0.251548 29.9735 0.656166 30.365C1.06078 30.7556 1.62079 31 2.23536 31H16.7646C17.3792 31 17.9392 30.7566 18.3438 30.365C18.7474 29.9735 19 29.4315 19 28.8368V2.16322C19 1.56847 18.7485 1.02654 18.3438 0.63499C17.9392 0.244441 17.3792 0 16.7646 0Z" fill="#A74A45"/>
</svg>
