<svg width="20" height="31" viewBox="0 0 20 31" fill="none" xmlns="http://www.w3.org/2000/svg">
<path d="M2.03152 5.56836C0.910559 5.56836 0 6.47898 0 7.56498V28.7559C0 29.8768 0.910621 30.7874 2.03152 30.7874H17.9685C19.0894 30.7874 20 29.8768 20 28.7559V7.56498C20 6.44402 19.0894 5.56836 17.9685 5.56836H15.0613V6.68932C15.0613 7.81029 14.1507 8.72085 13.0298 8.72085H6.93533C5.81436 8.72085 4.9038 7.81023 4.9038 6.68932V5.56836H2.03152Z" fill="#A74A45"/>
<path d="M5.60419 3.8879V6.69006C5.60419 7.42574 6.1996 8.02112 6.93525 8.02112H13.0648C13.8005 8.02112 14.3959 7.42571 14.3959 6.69006V3.8879C14.3959 3.15222 13.8005 2.55684 13.0648 2.55684H12.4342V2.45178C12.4342 1.08575 11.3485 0 9.98247 0C8.61645 0 7.53069 1.08575 7.53069 2.45178V2.55684H6.90035C6.19963 2.59177 5.60419 3.18718 5.60419 3.8879ZM9.98247 1.43587C10.5779 1.43587 11.0333 1.89129 11.0333 2.52162V2.59174H8.93162V2.48668C8.93162 1.92621 9.38704 1.43587 9.98247 1.43587Z" fill="#A74A45"/>
</svg>
