<svg width="24" height="24" viewBox="0 0 24 24" fill="none" xmlns="http://www.w3.org/2000/svg">
<path d="M12.3994 21.8085C12.027 21.6448 11.6547 21.4811 11.2824 21.3174C10.3899 20.9239 9.49738 20.5305 8.60224 20.137C7.52753 19.6617 6.45022 19.1891 5.37551 18.7138C4.44078 18.3019 3.50865 17.89 2.57392 17.4806C2.12239 17.2826 1.67352 17.0661 1.2167 16.8812C1.20878 16.8786 1.2035 16.876 1.19822 16.8733C1.33025 17.1004 1.45963 17.3301 1.59166 17.5572V16.3268V13.3746V9.81781V6.74158C1.59166 6.23986 1.60486 5.73819 1.59166 5.23913V5.218C1.19558 5.44509 0.796853 5.67481 0.400779 5.9019C0.773092 6.06561 1.14542 6.22932 1.51773 6.39305C2.41022 6.78648 3.30275 7.17993 4.19789 7.57335C5.2726 8.04865 6.34991 8.52131 7.42462 8.99662C8.35935 9.40854 9.29148 9.82044 10.2262 10.2297C10.6777 10.4278 11.1266 10.6443 11.5834 10.8291C11.5913 10.8318 11.5966 10.8344 11.6019 10.8371C11.4699 10.61 11.3405 10.3803 11.2085 10.1532V11.3836V14.3358V17.8926V20.9688C11.2085 21.4705 11.1979 21.9722 11.2085 22.4713V22.4924C11.2085 22.907 11.5729 23.303 12.0006 23.2845C12.431 23.2661 12.7928 22.936 12.7928 22.4924V21.2619V18.3098V14.753V11.6768C12.7928 11.175 12.8033 10.6734 12.7928 10.1743V10.1532C12.7928 9.89968 12.6475 9.57753 12.3993 9.46928C12.027 9.30556 11.6547 9.14185 11.2824 8.97813C10.3899 8.58469 9.49736 8.19124 8.60222 7.79783C7.52751 7.32253 6.4502 6.84986 5.37549 6.37456C4.44076 5.96263 3.50863 5.55073 2.5739 5.14143C2.12237 4.94075 1.66819 4.74271 1.21668 4.54203C1.2114 4.53939 1.20348 4.53675 1.1982 4.53411C0.931508 4.41529 0.664806 4.37831 0.398132 4.53411C0.157842 4.67405 0.00469429 4.93811 0.00469429 5.218V6.44848V9.40061V12.9574V16.0336C0.00469429 16.5354 -0.00586786 17.037 0.00469429 17.5361V17.5572C0.00469429 17.8107 0.149923 18.1329 0.398132 18.2411C0.770446 18.4048 1.14277 18.5685 1.51509 18.7323C2.40757 19.1257 3.3001 19.5192 4.19524 19.9126C5.26995 20.3879 6.34727 20.8605 7.42197 21.3358C8.35671 21.7478 9.28883 22.1597 10.2236 22.569C10.6751 22.7696 11.1293 22.9677 11.5808 23.1684C11.5861 23.171 11.594 23.1736 11.5993 23.1763C11.7999 23.2661 11.9874 23.3162 12.2092 23.2555C12.3941 23.2053 12.5921 23.0627 12.6819 22.8911C12.7796 22.7063 12.8271 22.4845 12.7611 22.2811C12.7057 22.0989 12.5842 21.8877 12.3994 21.8085Z" fill="#A74A45"/>
<path d="M22.8031 16.8704C22.4308 17.0341 22.0585 17.1978 21.6862 17.3615C20.7937 17.755 19.9012 18.1484 19.006 18.5419C17.9313 19.0171 16.854 19.4898 15.7793 19.9651C14.8446 20.377 13.9124 20.7889 12.9777 21.1982C12.5262 21.3963 12.0667 21.5864 11.6205 21.7976C11.6152 21.8003 11.6073 21.8029 11.602 21.8056C11.9981 22.0327 12.3968 22.2624 12.7929 22.4895V21.259V18.3069V14.7501V11.6738C12.7929 11.1721 12.8061 10.6704 12.7929 10.1714V10.1502C12.6609 10.3773 12.5315 10.6071 12.3995 10.8341C12.7718 10.6704 13.1441 10.5067 13.5164 10.343C14.4089 9.94956 15.3014 9.55611 16.1966 9.16269C17.2713 8.68739 18.3486 8.21473 19.4233 7.73942C20.358 7.3275 21.2901 6.9156 22.2249 6.50629C22.6764 6.30825 23.1359 6.11813 23.5821 5.90689C23.5874 5.90425 23.5953 5.90161 23.6006 5.89897C23.2045 5.67189 22.8058 5.44216 22.4097 5.21507V6.44555V9.39769V12.9545V16.0307C22.4097 16.5324 22.3991 17.0341 22.4097 17.5332V17.5543C22.4097 17.9689 22.7741 18.3649 23.2019 18.3464C23.6323 18.328 23.994 17.9979 23.994 17.5543V16.3238V13.3717V9.81488V6.73866C23.994 6.23694 24.0046 5.73526 23.994 5.2362V5.21507C23.994 4.93518 23.8435 4.67111 23.6006 4.53118C23.3339 4.37538 23.0672 4.41236 22.8005 4.53118C22.4282 4.69489 22.0559 4.8586 21.6835 5.02232C20.7911 5.41576 19.8985 5.80921 19.0034 6.20263C17.9287 6.67793 16.8514 7.15059 15.7767 7.6259C14.8419 8.03782 13.9098 8.44972 12.9751 8.85903C12.5235 9.05707 12.0614 9.24191 11.6178 9.45843C11.6126 9.46107 11.6046 9.46371 11.5994 9.46635C11.3512 9.57461 11.2059 9.89676 11.2059 10.1502V11.3807V14.3329V17.8897V20.9659C11.2059 21.4676 11.1954 21.9693 11.2059 22.4683V22.4895C11.2059 22.7694 11.3564 23.0334 11.5994 23.1734C11.8661 23.3292 12.1328 23.2922 12.3994 23.1734C12.7717 23.0096 13.1441 22.8459 13.5164 22.6822C14.4089 22.2888 15.3014 21.8953 16.1965 21.5019C17.2713 21.0266 18.3486 20.5539 19.4233 20.0786C20.358 19.6667 21.2901 19.2548 22.2249 18.8455C22.6764 18.6475 23.1385 18.4626 23.5821 18.2461C23.5874 18.2435 23.5953 18.2408 23.6006 18.2382C23.7696 18.1643 23.9174 17.9345 23.965 17.7655C24.0178 17.5754 23.994 17.3246 23.8857 17.1556C23.7775 16.9866 23.6138 16.8387 23.4131 16.7912C23.1913 16.741 23.0091 16.7806 22.8031 16.8704Z" fill="#A74A45"/>
<path d="M22.8031 4.53357C22.4308 4.69729 22.0585 4.861 21.6862 5.02472C20.7937 5.41816 19.9012 5.81161 19.006 6.20502C17.9313 6.68032 16.854 7.15299 15.7793 7.62829C14.8446 8.04022 13.9124 8.45212 12.9777 8.86142C12.5262 9.05946 12.0667 9.24958 11.6205 9.46082C11.6152 9.46346 11.6073 9.4661 11.602 9.46874H12.4021C12.0298 9.30503 11.6574 9.14132 11.2851 8.9776C10.3926 8.58416 9.5001 8.19071 8.60496 7.79729C7.53025 7.32199 6.45294 6.84933 5.37823 6.37402C4.4435 5.9621 3.51137 5.5502 2.57664 5.14089C2.12511 4.94285 1.67624 4.72897 1.21942 4.5415C1.2115 4.53885 1.20622 4.53621 1.20094 4.53357C1.13757 5.0168 1.07419 5.50003 1.01082 5.9806C1.38313 5.83273 1.75546 5.6875 2.12778 5.53963C3.01765 5.18844 3.91014 4.83724 4.80001 4.48342C5.87733 4.05829 6.95469 3.63318 8.03205 3.20804C8.96679 2.83837 9.90157 2.46871 10.8363 2.10166C11.2878 1.92474 11.7499 1.76103 12.1935 1.56561C12.1988 1.56297 12.2067 1.56033 12.212 1.55769H11.7895C12.1618 1.70556 12.5342 1.85079 12.9065 1.99866C13.7963 2.34984 14.6888 2.70104 15.5787 3.05487C16.656 3.48 17.7334 3.9051 18.8107 4.33025C19.7455 4.69992 20.6803 5.06957 21.615 5.43663C22.0665 5.61355 22.5154 5.81158 22.9722 5.97268C22.9775 5.97532 22.9854 5.97796 22.9907 5.9806C23.1703 6.0519 23.4422 5.9938 23.6007 5.90139C23.7644 5.80632 23.9228 5.61621 23.9651 5.42873C24.0099 5.22541 24.002 4.99832 23.8858 4.81875C23.767 4.63392 23.6139 4.53358 23.4132 4.45436C23.0409 4.30649 22.6686 4.16126 22.2962 4.01339C21.4011 3.65956 20.506 3.30574 19.6135 2.95452C18.5335 2.52675 17.4509 2.10163 16.3709 1.67388C15.4388 1.30684 14.5067 0.937161 13.5746 0.570154C13.1283 0.393236 12.6847 0.19784 12.2305 0.0394149C11.9903 -0.0450823 11.8265 0.0209313 11.6232 0.100147C11.3909 0.192567 11.1585 0.284983 10.9261 0.374763C10.0838 0.707469 9.23881 1.04017 8.39644 1.37289C7.32174 1.79802 6.24442 2.22313 5.16972 2.64827C4.198 3.03115 3.22894 3.41401 2.25722 3.79955C1.72648 4.00816 1.19574 4.2194 0.667608 4.42802C0.643843 4.43858 0.620079 4.4465 0.593676 4.45707C0.292653 4.57589 0.0708554 4.77657 0.0259512 5.11455C-0.0110166 5.39709 0.118372 5.77735 0.403548 5.90409C0.778503 6.0678 1.15345 6.23416 1.52577 6.39789L4.2191 7.58612C5.29907 8.06142 6.37904 8.53673 7.45906 9.01465C8.38853 9.42393 9.318 9.83321 10.2501 10.2451C10.6964 10.4405 11.1426 10.6412 11.5889 10.8339C11.7605 10.9079 11.9137 10.9607 12.1091 10.9343C12.22 10.9184 12.3177 10.8788 12.4206 10.8339C12.4682 10.8128 12.5183 10.7917 12.5659 10.7706C12.7982 10.6676 13.028 10.5673 13.2603 10.4643C14.1027 10.092 14.9476 9.72229 15.79 9.34997C16.8647 8.87731 17.9394 8.40201 19.0141 7.92935C19.9884 7.49894 20.9628 7.0712 21.9371 6.64075C22.4705 6.40574 23.0013 6.17073 23.5347 5.93836C23.5584 5.9278 23.5822 5.91723 23.6086 5.90667C23.7776 5.83274 23.9255 5.60301 23.973 5.43401C24.0258 5.2439 24.002 4.99305 23.8938 4.82404C23.7855 4.65504 23.6218 4.50718 23.4211 4.45965C23.1914 4.40156 23.0092 4.44116 22.8032 4.53358L22.8031 4.53357Z" fill="#A74A45"/>
<path d="M17.0757 7.54082V10.5563V10.9814C17.0757 11.396 17.4401 11.7921 17.8678 11.7736C18.2982 11.7551 18.66 11.425 18.66 10.9814V7.96595V7.54082C18.66 7.12626 18.2956 6.73018 17.8678 6.74867C17.4401 6.76715 17.0757 7.09458 17.0757 7.54082Z" fill="#A74A45"/>
<path d="M6.45559 3.69694C6.82791 3.85009 7.19757 4.00324 7.56989 4.15639C8.46238 4.52343 9.35225 4.89045 10.2447 5.25751C11.3247 5.70112 12.4021 6.14473 13.482 6.58832C14.4142 6.9712 15.3462 7.35671 16.281 7.7396C16.7326 7.92444 17.1814 8.1304 17.6409 8.29941C17.6462 8.30205 17.6541 8.30469 17.6594 8.30733C17.8363 8.38126 18.1135 8.32053 18.2694 8.22812C18.4331 8.13305 18.5915 7.94294 18.6337 7.75546C18.6786 7.55214 18.6707 7.32505 18.5545 7.14548C18.4357 6.96065 18.2826 6.86559 18.0819 6.78109C17.7096 6.62794 17.3399 6.47478 16.9676 6.32164C16.0751 5.9546 15.1852 5.58757 14.2927 5.22052C13.2128 4.77691 12.1354 4.3333 11.0554 3.88971C10.1233 3.50683 9.19122 3.12132 8.25644 2.73843C7.80491 2.55359 7.35604 2.34762 6.89657 2.17862C6.89129 2.17598 6.88337 2.17334 6.87809 2.1707C6.70117 2.09677 6.42392 2.1575 6.26811 2.24991C6.1044 2.34497 5.94597 2.53509 5.90372 2.72257C5.85883 2.92589 5.86675 3.15298 5.98293 3.33254C6.10176 3.51738 6.25491 3.61244 6.45559 3.69694Z" fill="#A74A45"/>
</svg>
