<svg width="24" height="24" viewBox="0 0 24 24" fill="none" xmlns="http://www.w3.org/2000/svg">
<path d="M16.7374 12.5556C14.7015 12.5556 12.6657 12.5587 10.6267 12.5493C10.4134 12.5493 10.3193 12.6122 10.2377 12.8104C9.67305 14.1694 8.64415 14.9245 7.18548 15.0471C5.75819 15.1635 4.30894 14.2166 3.78508 12.8733C3.64705 12.5241 3.73489 12.5556 3.32395 12.5525C2.58991 12.5493 1.85588 12.5587 1.12498 12.5493C0.538376 12.543 0.168221 12.2725 0.033334 11.7786C-0.120374 11.2092 0.274876 10.5894 0.861478 10.5422C1.35711 10.5013 1.85901 10.5202 2.35778 10.5139C2.69343 10.5108 3.02908 10.5013 3.36473 10.5171C3.58118 10.5265 3.68783 10.4636 3.77566 10.2465C4.20856 9.14859 5.01161 8.44077 6.14089 8.12618C7.59642 7.7235 9.20565 8.39358 9.97106 9.70227C10.0808 9.89102 10.1875 10.0861 10.2565 10.2906C10.3193 10.4762 10.4196 10.5265 10.5984 10.5171C10.84 10.5045 11.0815 10.5139 11.3231 10.5139C15.1062 10.5139 18.8924 10.5139 22.6755 10.5139C22.823 10.5139 22.9735 10.5202 23.1178 10.5359C23.6197 10.5926 23.993 11.0204 23.9962 11.53C23.9962 12.0397 23.6229 12.4738 23.1272 12.5304C22.9892 12.5462 22.8481 12.5525 22.7069 12.5525C20.715 12.5556 18.7262 12.5556 16.7374 12.5556ZM8.48103 11.5552C8.49044 10.731 7.83169 10.0546 7.01295 10.042C6.20991 10.0357 5.54174 10.6964 5.5292 11.5143C5.51665 12.3354 6.17226 13.0149 6.99413 13.0243C7.79091 13.0369 8.47162 12.3637 8.48103 11.5552Z" fill="#A74A45"/>
<path d="M20.3604 20.5618C20.2412 20.8135 20.1439 21.0589 20.0122 21.2885C19.4632 22.248 18.6382 22.8426 17.5529 23.0188C16.3075 23.2201 15.2472 22.8143 14.394 21.8831C14.096 21.5559 13.8639 21.1847 13.7321 20.7632C13.6725 20.5744 13.5627 20.5618 13.3996 20.5618C9.63844 20.565 5.87728 20.565 2.11613 20.565C1.75852 20.565 1.39778 20.5681 1.04017 20.565C0.48494 20.5587 0.0457728 20.1686 0.00812992 19.6464C-0.0357868 19.0864 0.331231 18.6334 0.902149 18.5485C1.01821 18.5327 1.13428 18.5327 1.25348 18.5327C5.28755 18.5327 9.32161 18.5296 13.3557 18.539C13.5909 18.539 13.6913 18.4667 13.7729 18.2527C14.4159 16.576 16.2604 15.6605 17.9701 16.1827C19.0492 16.5099 19.8114 17.2114 20.2255 18.2653C20.3071 18.4729 20.4074 18.5453 20.627 18.539C21.3924 18.5233 22.1578 18.5296 22.9201 18.5359C23.5538 18.5422 23.9992 18.9763 23.9961 19.5614C23.9929 20.112 23.56 20.5587 22.9985 20.5618C22.1955 20.5713 21.3924 20.565 20.5862 20.565C20.511 20.5618 20.4325 20.5618 20.3604 20.5618ZM18.4688 19.5488C18.472 18.7309 17.8195 18.0703 17.007 18.0671C16.182 18.064 15.517 18.7215 15.517 19.5488C15.517 20.3668 16.1632 21.0211 16.9819 21.0274C17.8101 21.0369 18.4657 20.3825 18.4688 19.5488Z" fill="#A74A45"/>
<path d="M20.3635 2.50769C21.2292 2.50769 22.1044 2.50455 22.9765 2.50769C23.4314 2.51084 23.8015 2.77824 23.9427 3.19035C24.1717 3.86357 23.6886 4.52421 22.942 4.5368C22.2236 4.54938 21.5053 4.53994 20.7869 4.53994C20.3415 4.53994 20.3509 4.54309 20.1752 4.94262C19.4192 6.66342 17.4116 7.50967 15.6801 6.77038C14.7578 6.374 14.1085 5.71336 13.7477 4.77588C13.6787 4.59342 13.5909 4.53365 13.3964 4.53365C9.33723 4.53994 5.28121 4.53994 1.22205 4.5368C1.08402 4.5368 0.939726 4.5305 0.804839 4.50219C0.293523 4.39838 -0.0358523 3.94537 0.00492754 3.42C0.0425704 2.9261 0.466053 2.52657 0.971095 2.50455C1.0652 2.5014 1.15931 2.5014 1.25342 2.5014C5.28121 2.5014 9.30586 2.5014 13.3336 2.5014C13.7226 2.5014 13.6285 2.55803 13.7634 2.21512C14.4284 0.516341 16.32 -0.402261 18.0516 0.170292C19.0742 0.510049 19.8051 1.19271 20.216 2.20254C20.2474 2.28119 20.2788 2.36298 20.3133 2.44163C20.3227 2.46365 20.3415 2.47938 20.3635 2.50769ZM16.9913 2.0421C16.1725 2.04525 15.5201 2.69645 15.5169 3.51123C15.5138 4.3386 16.1725 5.00239 16.9976 5.00239C17.8226 5.00239 18.4782 4.33546 18.4688 3.50494C18.4594 2.68386 17.81 2.03895 16.9913 2.0421Z" fill="#A74A45"/>
</svg>
