<svg width="24" height="12" viewBox="0 0 24 12" fill="none" xmlns="http://www.w3.org/2000/svg">
<path d="M16.5896 9.42676C16.5896 9.42676 13.7212 8.69341 13.3167 7.89554C13.1327 7.53032 13.3146 7.06266 13.4986 6.74078C13.5828 6.6284 13.665 6.50913 13.7443 6.38263V6.38118C14.2234 5.62137 14.5886 4.61846 14.6258 3.37962C14.682 1.51708 13.2316 0.00431525 11.5109 0H11.5068H11.5032C9.7826 0.00417387 8.33231 1.51708 8.38849 3.37962C8.42573 4.61863 8.79096 5.62137 9.26921 6.38118L9.27001 6.38263C9.34932 6.50913 9.43151 6.62841 9.51579 6.74078C9.69977 7.0625 9.88246 7.53031 9.69704 7.89554C9.29393 8.69341 6.42416 9.42676 6.42416 9.42676C5.87221 9.60945 5.47394 10.129 5.47394 10.7401V12H17.5398V10.7401C17.5398 10.129 17.1423 9.60927 16.5896 9.42676Z" fill="#666666"/>
<path d="M22.3226 10.129V10.1277C22.291 10.1177 20.2347 9.59536 19.9404 9.01519C19.807 8.74966 19.9383 8.40966 20.0732 8.17672C20.1342 8.09388 20.1941 8.00671 20.2516 7.91536C20.5993 7.36054 20.8655 6.63299 20.8929 5.73254C20.9335 4.37714 19.8786 3.27729 18.6256 3.27441H18.6235H18.62C17.3678 3.2773 16.3116 4.37698 16.3537 5.73254C16.3803 6.63283 16.6465 7.36054 16.9942 7.91536C17.0525 8.00671 17.1122 8.09388 17.174 8.17672C17.1832 8.19213 17.1923 8.20898 17.2015 8.22584C18.217 8.64581 18.887 9.63183 18.887 10.7404V12.0002H23.0136V11.0844C23.0134 10.639 22.7248 10.2626 22.3225 10.129L22.3226 10.129Z" fill="#666666"/>
<path d="M5.8405 8.17671C5.9015 8.09388 5.96202 8.00687 6.0203 7.91536C6.36786 7.36054 6.63405 6.63299 6.66085 5.73254C6.70307 4.37714 5.64656 3.27729 4.39452 3.27441H4.39099H4.3889C3.13592 3.2773 2.08103 4.37698 2.12179 5.73254C2.14925 6.63283 2.41461 7.36054 2.763 7.91536C2.82047 8.00671 2.88019 8.09388 2.942 8.17671C3.07621 8.40982 3.20753 8.74982 3.07332 9.01519C2.77905 9.59536 0.723359 10.1178 0.691755 10.1277V10.129C0.289286 10.2626 0 10.639 0 11.0842V12H4.12743V10.7401C4.12743 9.63195 4.79753 8.64577 5.81309 8.22563C5.82208 8.20893 5.83123 8.19208 5.84038 8.17667L5.8405 8.17671Z" fill="#666666"/>
</svg>
