<svg width="24" height="24" viewBox="0 0 24 24" fill="none" xmlns="http://www.w3.org/2000/svg">
<path d="M1.89471 12.9959V15.4008C1.89471 15.498 1.93519 15.587 2.01616 15.668C2.09715 15.749 2.18624 15.7895 2.28342 15.7895H21.7166C21.8138 15.7895 21.9028 15.749 21.9838 15.668C22.0648 15.587 22.1053 15.498 22.1053 15.4008V12.9959H1.89471ZM2.28342 0H21.7166C22.3465 0 22.8846 0.223085 23.3307 0.669254C23.7769 1.1154 24 1.65346 24 2.28342V15.4008C24 16.0307 23.7769 16.5688 23.3307 17.0149C22.8846 17.4611 22.3465 17.6842 21.7166 17.6842H16.3724V23.5384L12 21.3522L7.62757 23.5384V17.6842H2.28342C1.65346 17.6842 1.1154 17.4611 0.669254 17.0149C0.223085 16.5688 0 16.0307 0 15.4008V2.28342C0 1.65346 0.223085 1.1154 0.669254 0.669254C1.1154 0.223085 1.65346 0 2.28342 0ZM1.89471 9.7409H22.1053V2.28342C22.1053 2.18624 22.0648 2.09715 21.9838 2.01616C21.9028 1.93519 21.8138 1.89471 21.7166 1.89471H2.28342C2.18624 1.89471 2.09715 1.93519 2.01616 2.01616C1.93519 2.09715 1.89471 2.18624 1.89471 2.28342V9.7409ZM1.89471 15.4008V1.89471H2.28342C2.18624 1.89471 2.09715 1.93519 2.01616 2.01616C1.93519 2.09715 1.89471 2.18624 1.89471 2.28342V15.4008C1.89471 15.498 1.93519 15.587 2.01616 15.668C2.09715 15.749 2.18624 15.7895 2.28342 15.7895H1.89471V15.4008Z" fill="#A74A45"/>
</svg>
