<svg width="24" height="23" viewBox="0 0 24 23" fill="none" xmlns="http://www.w3.org/2000/svg">
<path d="M2.84258 7.81182C3.85517 7.81182 4.67637 6.99058 4.67637 5.97803C4.67637 6.99062 5.49392 7.81182 6.50632 7.81182C7.51891 7.81182 8.33627 6.99058 8.33627 5.97803C8.33627 6.99062 9.15751 7.81182 10.1701 7.81182C11.1788 7.81182 12 6.99058 12 5.97803C12 6.99062 12.8212 7.81182 13.8299 7.81182C14.8425 7.81182 15.6637 6.99058 15.6637 5.97803C15.6637 6.99062 16.4813 7.81182 17.4937 7.81182C18.5063 7.81182 19.3236 6.99058 19.3236 5.97803C19.3236 6.99062 20.1449 7.81182 21.1574 7.81182C22.1662 7.81182 22.9874 6.99058 22.9874 5.97803V4.81934H1.01245V5.97803C1.01245 6.99062 1.83384 7.81182 2.84258 7.81182Z" fill="#A74A45"/>
<path d="M22.5034 4.06878L20.666 1.21125H20.8421C21.1721 1.21125 21.4497 0.94135 21.4497 0.607545C21.4497 0.277588 21.1798 0 20.8421 0H3.15343C2.82347 0 2.54973 0.27374 2.54973 0.607545C2.54973 0.929992 2.81596 1.21125 3.15343 1.21125H3.33342L1.49597 4.06878H22.5034Z" fill="#A74A45"/>
<path d="M23.231 20.6884H22.4398V8.21593C22.0648 8.43712 21.6261 8.5609 21.1573 8.5609C20.441 8.5609 19.7923 8.26829 19.3235 7.7959C18.8548 8.26849 18.2099 8.5609 17.4936 8.5609C16.7773 8.5609 16.1324 8.26829 15.6636 7.7959C15.1949 8.26849 14.5461 8.5609 13.8299 8.5609C13.1136 8.5609 12.4687 8.26829 11.9999 7.7959C11.5312 8.26849 10.8861 8.5609 10.17 8.5609C9.45367 8.5609 8.80492 8.26829 8.33617 7.7959C7.86742 8.26849 7.22233 8.5609 6.50623 8.5609C5.78993 8.5609 5.14503 8.26829 4.67628 7.7959C4.20753 8.26849 3.55878 8.5609 2.84249 8.5609C2.37758 8.5609 1.9387 8.43712 1.5637 8.21959V20.6883H0.764997C0.344956 20.6885 0 21.0334 0 21.4571C0 21.8847 0.348814 22.226 0.764997 22.226H23.2312C23.6512 22.226 24 21.881 24 21.4571C23.9998 21.0259 23.6473 20.6885 23.231 20.6885V20.6884ZM8.77853 20.6884H2.88355V12.5134C2.88355 12.0071 3.29224 11.5984 3.79855 11.5984H7.86349C8.36978 11.5984 8.77848 12.0071 8.77848 12.5134L8.77853 20.6884ZM21.0447 18.637C21.0447 19.1545 20.6247 19.5745 20.1072 19.5745H17.4703V18.3047H18.1077C18.3287 18.3047 18.508 18.1256 18.508 17.9044V17.0473C18.508 16.904 18.4785 16.7622 18.4216 16.6308L18.1596 16.0271C18.0651 15.8095 18.0475 15.5664 18.1094 15.3373L18.4408 14.1119C18.4778 13.9755 18.395 13.8356 18.2579 13.8019L17.4705 13.609V13.3099C17.7663 13.1812 17.9724 12.8895 17.9724 12.5535C17.9724 12.0888 17.5985 11.7149 17.1338 11.7149C16.6806 11.7149 16.3067 12.0888 16.3067 12.5535C16.3067 12.8914 16.5147 13.1847 16.8084 13.3125V13.6091L16.0201 13.8023C15.8834 13.8358 15.8008 13.9751 15.8368 14.1112L16.1642 15.3433C16.2803 15.7805 16.0961 16.0678 15.8548 16.6336C15.7995 16.7632 15.7709 16.9028 15.7709 17.0438V17.9043C15.7709 18.1253 15.95 18.3046 16.1712 18.3046H16.8084L16.808 19.5744H13.4876V18.4597H14.0336C14.2229 18.4597 14.3764 18.3063 14.3764 18.1168V17.3825C14.3764 17.2596 14.3511 17.1382 14.3022 17.0256L14.0777 16.5084C13.9968 16.322 13.9816 16.1136 14.0347 15.9175L14.3187 14.8676C14.3504 14.7508 14.2795 14.6309 14.162 14.6021L13.4874 14.4368V14.1806C13.7408 14.0704 13.9173 13.8204 13.9173 13.5324C13.9173 13.1343 13.5969 12.8139 13.1988 12.8139C12.8105 12.8139 12.4902 13.1344 12.4902 13.5324C12.4902 13.8219 12.6686 14.0733 12.92 14.1826V14.4368L12.2445 14.6023C12.1273 14.631 12.0566 14.7504 12.0876 14.8669L12.3681 15.9225C12.4589 16.2642 12.3699 16.4019 12.103 17.0279C12.0555 17.139 12.0312 17.2586 12.0312 17.3795V18.1168C12.0312 18.3061 12.1846 18.4598 12.374 18.4598H12.9198V19.5745H10.9079C10.3904 19.5745 9.97036 19.1544 9.97036 18.637L9.97091 10.9758C9.97091 10.4583 10.391 10.0383 10.9084 10.0383H20.1071C20.6246 10.0383 21.0446 10.4583 21.0446 10.9758L21.0447 18.637Z" fill="#A74A45"/>
<path d="M7.55591 16.3008C7.36053 16.3008 7.19904 16.4597 7.19904 16.6577C7.19904 16.8556 7.36053 17.0145 7.55591 17.0145C7.75385 17.0145 7.91534 16.8556 7.91534 16.6577C7.91534 16.4595 7.75385 16.3008 7.55591 16.3008Z" fill="#A74A45"/>
</svg>
