<svg width="17" height="41" viewBox="0 0 17 41" fill="none" xmlns="http://www.w3.org/2000/svg">
<path d="M15.1405 17.9876C16.3664 19.9584 16.7908 23.8797 16.9363 26.0417C16.968 26.5204 16.825 26.994 16.5339 27.3758C16.2429 27.7575 15.8232 28.0213 15.3523 28.1182C13.3125 28.5128 11.2404 28.7189 9.16268 28.7334C8.9439 28.7399 8.72544 28.7399 8.50006 28.7399C8.27467 28.7399 8.0559 28.7399 7.83743 28.7334C5.75968 28.7189 3.68757 28.5128 1.6478 28.1182C1.17692 28.0213 0.757318 27.7575 0.466176 27.3758C0.175099 26.994 0.0320786 26.5204 0.0638242 26.0417C0.209677 23.8793 0.633715 19.9577 1.8596 17.9876C2.79411 16.4798 1.90613 14.1454 1.19038 12.2675V12.2672C0.859067 11.509 0.610428 10.7176 0.448224 9.90653C0.189841 8.01505 0.0109799 7.04302 0.0109799 7.03643C-0.0544023 6.68104 0.178834 6.33914 0.534352 6.2695L4.96779 5.38997L5.33242 3.29373C5.38743 2.97536 5.66467 2.74323 5.98844 2.74481H11.0116C11.3353 2.74324 11.6126 2.97536 11.6676 3.29373L12.0322 5.38997L16.4656 6.2695C16.8212 6.33914 17.0544 6.68104 16.989 7.03643C16.989 7.04302 16.8102 8.01513 16.5518 9.90653C16.3896 10.7177 16.1409 11.5091 15.8096 12.2672C15.0939 14.1455 14.2058 16.4798 15.1404 17.9876L15.1405 17.9876ZM9.16276 0.661225C9.16276 0.296107 8.86603 0 8.50014 0C8.13425 0 7.83751 0.296107 7.83751 0.661225V1.42157H9.16278L9.16276 0.661225ZM15.2795 39.7305C15.233 39.7108 10.7665 37.7466 9.16276 34.8768V30.0556C8.95718 30.0622 8.73212 30.0622 8.50014 30.0622C8.27476 30.0622 8.05598 30.0622 7.83751 30.0556V34.8765C6.23374 37.7466 1.7673 39.7105 1.72079 39.7302C1.55891 39.8002 1.4316 39.9316 1.36685 40.0953C1.3021 40.2591 1.30555 40.4419 1.37597 40.6032C1.48033 40.8463 1.7208 41.0028 1.98578 41C2.07662 40.9984 2.16652 40.9805 2.25077 40.9473C4.3323 40.0144 6.22561 38.7102 7.83751 37.0985V40.3387C7.83751 40.7039 8.13424 41 8.50014 41C8.86603 41 9.16276 40.7039 9.16276 40.3387V37.0985C10.7747 38.7101 12.668 40.0143 14.7495 40.9473C14.8337 40.9805 14.9236 40.9984 15.0145 41C15.2795 41.0028 15.5199 40.8463 15.6243 40.6032C15.6947 40.4419 15.6982 40.2591 15.6334 40.0953C15.5687 39.9316 15.4414 39.8002 15.2795 39.7302L15.2795 39.7305Z" fill="black" fill-opacity="0.6"/>
</svg>
