<svg width="16" height="22" viewBox="0 0 16 22" fill="none" xmlns="http://www.w3.org/2000/svg">
<path d="M5.4998 0H10.4999C10.7759 0 10.9999 0.276055 10.9999 0.500048V2.50007C10.9999 2.77612 10.7761 3.00012 10.4999 3.00012H5.4998C5.22375 3.00012 4.99976 2.72406 4.99976 2.50007V0.500048C4.99976 0.223993 5.22358 0 5.4998 0Z" fill="black"/>
<path d="M14.4997 1H11.9996V2.49997C11.9996 2.89773 11.8416 3.27927 11.5603 3.5605C11.2791 3.84191 10.8976 3.99995 10.4996 3.99995H5.50002C5.10209 3.99995 4.72055 3.84191 4.43932 3.5605C4.15808 3.27925 4.00004 2.89772 4.00004 2.49997V1H1.49997C1.10221 1 0.720673 1.15803 0.439449 1.43928C0.158037 1.72052 0 2.10205 0 2.49997V20.4997C0 20.8974 0.158033 21.279 0.439449 21.5602C0.720694 21.8416 1.10222 21.9996 1.49997 21.9996H14.5C14.8978 21.9996 15.2793 21.8416 15.5606 21.5602C15.842 21.2789 16 20.8974 16 20.4997V2.49997C16 2.10204 15.842 1.7205 15.5606 1.43928C15.2793 1.15803 14.8978 1 14.5 1H14.4997ZM12.4997 16.9996H3.49982C3.22377 16.9996 2.99978 16.7757 2.99978 16.4995C2.99978 16.2235 3.22377 15.9996 3.49982 15.9996H12.4997C12.7757 15.9996 12.9997 16.2235 12.9997 16.4995C12.9997 16.7757 12.7757 16.9996 12.4997 16.9996ZM12.4997 12.9997H3.49982C3.22377 12.9997 2.99978 12.7757 2.99978 12.4997C2.99978 12.2236 3.22377 11.9996 3.49982 11.9996H12.4997C12.7757 11.9996 12.9997 12.2236 12.9997 12.4997C12.9997 12.7757 12.7757 12.9997 12.4997 12.9997ZM12.4997 8.99983L3.49982 8.99966C3.22377 8.99966 2.99978 8.77584 2.99978 8.49978C2.99978 8.22356 3.22377 7.99974 3.49982 7.99974H12.4997C12.7757 7.99974 12.9997 8.22356 12.9997 8.49978C12.9997 8.77584 12.7757 8.99966 12.4997 8.99966V8.99983Z" fill="black"/>
</svg>
