<svg width="21" height="21" viewBox="0 0 21 21" fill="none" xmlns="http://www.w3.org/2000/svg">
<path d="M10.3233 6.38672C9.04943 6.78406 7.71993 6.97359 6.38583 6.94846C5.06182 6.97245 3.74253 6.7855 2.47729 6.39459C2.6322 8.59952 4.31473 10.3321 6.39901 10.3321C8.48309 10.3321 10.1737 8.59442 10.3233 6.38672Z" fill="black"/>
<path d="M9.26811 11.0072C9.26537 11.0159 9.26079 11.0239 9.25493 11.0309L6.79528 13.7478H7.39917C7.47094 13.749 7.52899 13.8071 7.53027 13.8789V16.6221C7.53027 16.6569 7.51654 16.6902 7.492 16.7148C7.46728 16.7395 7.43396 16.7532 7.39917 16.7532H5.38047C5.30796 16.7532 5.24918 16.6944 5.24918 16.6221V13.8789C5.24918 13.8065 5.30796 13.7478 5.38047 13.7478H6.00798L3.55091 11.0256C3.55091 11.0256 3.55091 11.0098 3.53516 11.002C-0.202706 13.0179 0.00199478 18.8666 0.00199478 18.8666C0.00199478 21.712 12.8011 21.712 12.8011 18.8666C12.8011 18.8666 13.0058 13.018 9.26792 11.0076L9.26811 11.0072Z" fill="black"/>
<path d="M6.44114 13.7473L9.02674 10.8834C8.20334 10.5076 7.30668 10.3201 6.40177 10.3348C5.49686 10.3201 4.60019 10.5076 3.77679 10.8834L6.37027 13.7473H6.44114Z" fill="black"/>
<path d="M11.7436 4.95018C11.7436 4.53015 11.2001 4.09435 10.2551 3.76623C10.2798 3.91655 10.2965 4.06816 10.3051 4.22032C10.3051 5.13128 8.33895 5.53281 6.38869 5.53281H6.38851C5.5045 5.54508 4.62228 5.44456 3.76354 5.23362C2.71364 4.93956 2.48255 4.51972 2.48255 4.22033C2.48255 4.22033 2.48255 4.0365 2.53766 3.76367C1.59009 4.09436 1.04663 4.53016 1.04663 4.95016C1.04663 5.78748 3.19644 6.68527 6.39876 6.68527C9.60142 6.68527 11.7434 5.78753 11.7434 4.95016L11.7436 4.95018Z" fill="black"/>
<path d="M6.40172 5.27567C8.486 5.27567 10.0557 4.82413 10.0557 4.22577C10.0557 4.06299 9.84571 0.130859 6.4149 0.130859C2.98408 0.130859 2.74513 4.02107 2.72681 4.22835C2.73981 4.82694 4.3017 5.27571 6.40168 5.27571L6.40172 5.27567Z" fill="black"/>
<path d="M5.51208 14.0098H7.26824V16.4905H5.51208V14.0098Z" fill="black"/>
<path d="M14.7731 1.31249V0.656243C14.7731 0.29388 14.4792 0 14.1168 0C13.7543 0 13.4606 0.29388 13.4606 0.656243V20.9998H14.7731V6.82493L20.6792 3.93737L14.7731 1.31249Z" fill="black"/>
</svg>
