<svg width="25" height="21" viewBox="0 0 25 21" fill="none" xmlns="http://www.w3.org/2000/svg">
<path d="M4.62813 10.1906H3.64773C3.80267 5.57259 7.59514 1.85755 12.2646 1.85755C14.7928 1.85755 17.1663 2.96681 18.8175 4.87602C19.1529 5.26293 19.7462 5.31458 20.1332 4.97914C20.5201 4.64369 20.5717 4.05038 20.2363 3.66344C18.2497 1.34163 15.3345 0 12.2644 0C6.58868 0 1.94488 4.54055 1.79009 10.1906L0.758222 10.1907C0.164894 10.1907 -0.19629 10.8357 0.113251 11.3259L2.04817 14.5508C2.33196 15.041 3.05432 15.041 3.36386 14.5508L5.29878 11.3259C5.58275 10.8357 5.19566 10.1907 4.62805 10.1907L4.62813 10.1906Z" fill="black"/>
<path d="M24.4158 9.64917L22.4809 6.42431C22.1971 5.93408 21.4748 5.93408 21.1652 6.42431L19.2303 9.64917C18.9208 10.1651 19.2819 10.7844 19.8753 10.7844H20.8557C20.7265 15.4282 16.934 19.1432 12.2647 19.1432C9.73641 19.1432 7.36287 18.0339 5.71174 16.1247C5.3763 15.7378 4.78298 15.6862 4.39605 16.0216C4.00911 16.3571 3.95749 16.9504 4.29293 17.3373C6.27949 19.6591 9.19471 21.0007 12.2648 21.0007C17.9405 21.0007 22.5843 16.4602 22.7391 10.8102H23.7453C24.3384 10.81 24.6998 10.165 24.416 9.64911L24.4158 9.64917Z" fill="black"/>
<path d="M12.2646 4C10.4588 4 8.98814 5.47063 8.98814 7.2765V8.38576C8.60123 8.51479 8.21413 8.64382 7.82724 8.82432C7.62083 8.92744 7.46606 9.13385 7.46606 9.36619V14.8613C7.46606 15.1968 7.72413 15.4547 8.05939 15.4547H16.3924C16.7279 15.4547 16.9858 15.1966 16.9858 14.8613L16.9859 9.36619C16.9859 9.13404 16.8569 8.92763 16.6248 8.82432C16.2379 8.64364 15.8507 8.51479 15.4639 8.38576V7.2765C15.5412 5.44469 14.0706 4 12.2648 4H12.2646ZM13.1418 13.2102C13.1675 13.2876 13.1418 13.365 13.0901 13.4166C13.0385 13.4683 12.9611 13.5197 12.8837 13.5197H11.6195C11.5421 13.5197 11.4647 13.494 11.4131 13.4166C11.3614 13.365 11.3357 13.2618 11.3614 13.2102L11.7743 11.6622C11.4388 11.4815 11.2067 11.1462 11.2067 10.7334C11.2067 10.1658 11.671 9.70155 12.2386 9.70155C12.8061 9.70155 13.2704 10.1658 13.2704 10.7334C13.2704 11.1462 13.0383 11.4815 12.7028 11.6622L13.1418 13.2102ZM14.0705 8.02462C12.8837 7.81821 11.6713 7.81821 10.4845 8.02462V7.25061C10.4845 6.27021 11.2842 5.44474 12.2904 5.44474C13.2708 5.44474 14.0962 6.24445 14.0962 7.25061L14.0964 8.02462H14.0705Z" fill="black"/>
</svg>
