<svg width="23" height="21" viewBox="0 0 23 21" fill="none" xmlns="http://www.w3.org/2000/svg">
<path d="M12.7106 0C7.3843 0 2.97798 4.1505 2.46956 9.46235H1.01684C0.460043 9.46235 0 9.93181 0 10.5C0 11.0682 0.460043 11.5376 1.01684 11.5376H8.86105C9.24846 11.5376 9.58741 11.3153 9.7568 10.9695L10.6043 9.28954L13.1947 14.4037C13.3642 14.7495 13.7032 14.9719 14.0904 14.9719C14.4778 14.9719 14.8168 14.7495 14.9862 14.4037L16.4389 11.5131H17.8916C18.4484 11.5131 18.9085 11.0436 18.9085 10.4754C18.9085 9.90724 18.4484 9.43778 17.8916 9.43778H15.8336C15.4462 9.43778 15.1073 9.66009 14.9379 10.006L14.0904 11.6859L11.5 6.59647C11.1611 5.90471 10.0473 5.90471 9.70838 6.59647L8.25566 9.48706H4.50316C5.01167 5.31172 8.49781 2.07529 12.7105 2.07529C17.2621 2.07529 20.9905 5.85529 20.9905 10.5247C20.9905 15.1941 17.2622 18.9494 12.7105 18.9494C9.27263 18.9494 6.29474 16.7752 5.06 13.7118H2.90526C4.23689 17.9364 8.13474 21 12.7105 21C18.3758 21 23 16.2812 23 10.5C23 4.71882 18.3758 0 12.7105 0H12.7106Z" fill="black" fill-opacity="0.6"/>
</svg>
