<svg width="24" height="25" viewBox="0 0 24 25" fill="none" xmlns="http://www.w3.org/2000/svg">
<path d="M9.00924 11.3609C11.7167 11.3609 13.9117 8.5666 13.9117 5.12025C13.9117 1.67344 11.7167 0 9.00924 0C6.30178 0 4.10681 1.67368 4.10681 5.12025C4.10681 8.56683 6.30155 11.3609 9.00924 11.3609Z" fill="#A74A45"/>
<path d="M12.3834 20.6612V16.8431H13.7707C13.7968 16.7717 13.8261 16.7001 13.8585 16.6319L12.8738 15.6507L15.1615 13.3727L14.1348 12.661C13.7644 12.401 13.2737 12.4173 12.9065 12.6837C11.7691 13.5026 10.4336 13.9736 9.00727 13.9736C7.5809 13.9736 6.24516 13.5023 5.10804 12.6837C4.74086 12.4171 4.25014 12.401 3.87977 12.661L0.448336 15.0461C0.16569 15.241 0 15.5661 0 15.9104V20.5148C0 21.0964 0.467827 21.5677 1.04967 21.5677H13.1601L13.8587 20.8723C13.8262 20.8041 13.797 20.7327 13.7709 20.6611L12.3834 20.6612Z" fill="#A74A45"/>
<path d="M24.0001 19.6858V17.8174H22.8693C22.759 17.3235 22.5638 16.8654 22.3006 16.4495L23.1032 15.6501L21.7807 14.3275L20.9813 15.1302C20.5653 14.867 20.1073 14.6721 19.6134 14.5615V13.4307H17.745V14.5615C17.537 14.607 17.3323 14.6687 17.1408 14.7466C16.871 14.8473 16.6145 14.9774 16.3771 15.1302L15.5777 14.3275L14.2586 15.6501L15.058 16.4495C14.7949 16.8654 14.6031 17.3235 14.4893 17.8174H13.3585V19.6858H14.4893C14.6031 20.1797 14.7949 20.6411 15.058 21.0536L14.5414 21.567L14.2588 21.8531L15.5779 23.1756L16.3774 22.373C16.7901 22.6362 17.2513 22.8311 17.7452 22.9417V24.0725H19.6136V22.9417C20.1075 22.8314 20.5656 22.6362 20.9815 22.373L21.7809 23.1756L23.1035 21.8531L22.3009 21.0537C22.564 20.6409 22.7589 20.1797 22.8695 19.6858L24.0001 19.6858ZM18.6775 20.5795C18.4436 20.5795 18.2226 20.5373 18.0179 20.4559C17.3354 20.1928 16.8513 19.5266 16.8513 18.7532C16.8513 17.9767 17.3355 17.3106 18.0179 17.0474C18.2226 16.9663 18.4436 16.9239 18.6775 16.9239C19.6879 16.9239 20.5068 17.7428 20.5068 18.7533C20.5071 19.7605 19.6882 20.5795 18.6775 20.5795Z" fill="#A74A45"/>
</svg>
